<?xml version="1.0" encoding="utf-8"?>
<!-- Generator: Adobe Illustrator 20.0.0, SVG Export Plug-In . SVG Version: 6.00 Build 0)  -->
<!DOCTYPE svg PUBLIC "-//W3C//DTD SVG 1.1//EN" "http://www.w3.org/Graphics/SVG/1.1/DTD/svg11.dtd">
<svg version="1.1" id="Layer_1" xmlns="http://www.w3.org/2000/svg" xmlns:xlink="http://www.w3.org/1999/xlink" x="0px" y="0px"
	 viewBox="0 0 290.6 181.5" style="enable-background:new 0 0 290.6 181.5;" xml:space="preserve">
<style type="text/css">
	.st0{fill:#A088E4;}
	.st1{fill:#FFFFFF;}
</style>
<g>
	<ellipse class="st0" cx="133.9" cy="144.2" rx="5.4" ry="5.3"/>
	<ellipse class="st0" cx="58.9" cy="144.2" rx="5.4" ry="5.3"/>
	<ellipse class="st0" cx="59" cy="49.7" rx="5.4" ry="5.3"/>
	<path class="st0" d="M80.4,138.9c-3,0-5.4,2.4-5.4,5.3v10.6c0,2.9,2.4,5.3,5.4,5.3s5.4-2.4,5.4-5.3v-10.6
		C85.8,141.3,83.4,138.9,80.4,138.9z"/>
	<path class="st0" d="M134,33.7c-3,0-5.4,2.4-5.4,5.3v10.6c0,2.9,2.4,5.3,5.4,5.3c3,0,5.4-2.4,5.4-5.3V39
		C139.3,36.1,136.9,33.7,134,33.7z"/>
	<path class="st0" d="M155.4,138.9c-3,0-5.4,2.4-5.4,5.3v21.3c0,2.9,2.4,5.3,5.4,5.3c3,0,5.4-2.4,5.4-5.3v-21.3
		C160.8,141.3,158.4,138.9,155.4,138.9z"/>
	<ellipse class="st0" cx="213" cy="176.1" rx="5.4" ry="5.3"/>
	<path class="st0" d="M213,138.9c-3,0-5.4,2.4-5.4,5.3v10.6c0,2.9,2.4,5.3,5.4,5.3s5.4-2.4,5.4-5.3v-10.6
		C218.4,141.3,216,138.9,213,138.9z"/>
	<path class="st0" d="M155.4,33.7c-3,0-5.4,2.4-5.4,5.3v10.6c0,2.9,2.4,5.3,5.4,5.3c3,0,5.4-2.4,5.4-5.3V39
		C160.8,36.1,158.4,33.7,155.4,33.7z"/>
	<ellipse class="st0" cx="155.4" cy="17.7" rx="5.4" ry="5.3"/>
	<ellipse class="st0" cx="213" cy="5.3" rx="5.4" ry="5.3"/>
	<ellipse class="st0" cx="237.3" cy="36.9" rx="5.4" ry="5.3"/>
	<path class="st0" d="M213,21.3c-3,0-5.4,2.4-5.4,5.3v10.6c0,2.9,2.4,5.3,5.4,5.3s5.4-2.4,5.4-5.3V26.6
		C218.4,23.7,216,21.3,213,21.3z"/>
	<ellipse class="st0" cx="107.2" cy="26.2" rx="5.4" ry="5.3"/>
	<path class="st0" d="M112.5,57.6V47.5c0-2.9-2.4-5.3-5.4-5.3c-3,0-5.4,2.4-5.4,5.3v12.4h0v8.9c0,2.9,2.4,5.3,5.4,5.3
		s5.4-2.4,5.4-5.3V58.1C112.6,58,112.6,57.8,112.5,57.6z"/>
	<ellipse class="st0" cx="185.7" cy="49.7" rx="5.4" ry="5.3"/>
	<path class="st1" d="M60.6,63.7c-2.2-0.7-4.6,0-6,1.9L32.2,96.1L9.7,65.6c-1.4-1.8-3.9-2.6-6-1.9C1.5,64.5,0,66.5,0,68.8v54.1
		c0,2.9,2.5,5.3,5.4,5.3c3,0,5.4-2.4,5.4-5.3V85.1l17.1,23.2l0,0c1,1.3,2.6,2.1,4.4,2.1c1.8,0,3.4-0.8,4.3-2.2l17.1-23.2v37.8
		c0,2.9,2.5,5.3,5.4,5.3c3,0,5.4-2.4,5.4-5.3V68.8C64.3,66.5,62.8,64.5,60.6,63.7z"/>
	<path class="st1" d="M135.7,63.7c-2.2-0.7-4.6,0-6,1.9l-22.4,30.5L84.8,65.6c-1.4-1.8-3.9-2.6-6-1.9c-2.2,0.7-3.7,2.8-3.7,5.1v54.1
		c0,2.9,2.5,5.3,5.4,5.3c3,0,5.4-2.4,5.4-5.3V85.1l17.1,23.2l0,0c1,1.3,2.6,2.1,4.4,2.1c1.8,0,3.4-0.8,4.3-2.2l17.1-23.2v37.8
		c0,2.9,2.5,5.3,5.4,5.3c3,0,5.4-2.4,5.4-5.3V68.8C139.3,66.5,137.9,64.5,135.7,63.7z"/>
	<path class="st1" d="M199.5,129.9c0-2.6-0.2-5.2-0.6-7.8l0,0c-0.8-4.1-2.3-8-4.1-11.6c-1.9-3.3-4.1-6.3-6.7-8.9
		c6.7-3.1,11.3-10,11.3-18.1c0-2.5-0.4-4.8-1.2-7l0-0.1c-0.7-1.7-1.5-3.2-2.5-4.6c-3.5-4.9-9.1-8.1-15.5-8.1c-0.2,0-0.3,0-0.5,0
		c-0.2,0-0.4,0-0.6,0h-23.6c-3,0-5.4,2.4-5.4,5.3v53.9c0,2.9,2.2,5.3,5.1,5.5c3.1,0.2,5.6-2.3,5.6-5.3V74.5h15.6h2.7h0.9
		c5,0,8.6,4.1,8.6,9.1v0c0,5-3.6,9.1-8.6,9.1h-3.6c-0.4,0-0.8,0-1.2-0.1c-0.9,0.1-1.9,0.1-2.9,0.1c-2.8,0-5.1,2.1-5.4,4.8
		c-0.3,2.7,1.5,5.2,4.3,5.7l0.1,0c0.3,0.1,2,0.6,4.4,2.2c3.3,2.1,6.2,5.1,8.7,8.8c1.5,2.4,2.6,5.1,3.5,8.1c0.6,2.4,0.9,4.9,0.9,7.6
		l0,0v5.3c0,2.9,2.4,5.3,5.4,5.3c3,0,5.4-2.4,5.4-5.3L199.5,129.9L199.5,129.9z"/>
	<path class="st1" d="M213,53.2c-3,0-5.4,2.4-5.4,5.3v10.6v4.7v6.6v21.3V116v7c0,2.9,2.4,5.3,5.4,5.3c3,0,5.4-2.4,5.4-5.3v-7v-14.3
		V80.4v-6.6v-4.7V58.5C218.4,55.6,216,53.2,213,53.2z"/>
	<g>
		<path class="st1" d="M290.1,120.8l-26.7-54c-0.9-1.8-2.8-3-4.8-3c-2,0-3.8,1.1-4.8,2.9l-26.5,54.1c-1.2,2.3-0.5,5.1,1.6,6.6
			c0.9,0.7,2,1.1,3.2,1.1c0.1,0,0.2,0,0.3,0c1.7-0.1,3.2-1.2,3.9-2.7l22.2-44.6l15.9,32.1l5.9,12.2c0.6,1.3,1.8,2.2,3.1,2.7
			c1.4,0.4,2.8,0.3,4.1-0.3c1.3-0.6,2.3-1.7,2.7-3C290.8,123.5,290.7,122.1,290.1,120.8z"/>
		<path class="st1" d="M270.4,91.8c-11.4,1.9-22,6.7-30.7,14l-3.2,19.4c8.6-12.8,22.4-21.3,37.8-23.2"/>
	</g>
	<path class="st0" d="M237.3,52.8c-3,0-5.4,2.4-5.4,5.3v10.6c0,2.9,2.4,5.3,5.4,5.3c3,0,5.4-2.4,5.4-5.3V58.1
		C242.7,55.2,240.3,52.8,237.3,52.8z"/>
	<ellipse class="st0" cx="285.2" cy="69.1" rx="5.4" ry="5.3"/>
	<ellipse class="st0" cx="245.2" cy="144.5" rx="5.4" ry="5.3"/>
</g>
</svg>
