<?xml version="1.0" encoding="utf-8"?>
<svg version="1.1" xmlns:xlink="http://www.w3.org/1999/xlink" width="37px" height="37px" xmlns="http://www.w3.org/2000/svg">
  <g transform="matrix(1 0 0 1 -127 -305 )">
    <path d="M 37 2.16114314516129  C 37 1.3636290322580642  36.03576209677419 0.964237903225806  35.47188508064516 1.5281149193548387  L 31.580544354838715 5.419455645161291  C 28.233014112903227 2.071328629032258  23.608760080645162 0  18.5 0  C 8.595637096774194 0  0.5090483870967742 7.783278225806451  0.023125000000000038 17.56701814516129  C -0.002163306451612897 18.075618951612903  0.4084173387096774 18.5  0.9176149193548386 18.5  L 3.0096814516129036 18.5  C 3.4835947580645166 18.5  3.875973790322581 18.13059677419355  3.9028286290322582 17.657504032258064  C 4.338622983870968 9.969784274193549  10.701131048387095 3.8790322580645165  18.5 3.8790322580645165  C 22.540385080645162 3.8790322580645165  26.19517943548387 5.514417338709677  28.84015725806452 8.159842741935483  L 24.802383064516132 12.197691532258064  C 24.238431451612907 12.76164314516129  24.63782258064516 13.725806451612904  25.43533669354839 14  L 36.10483870967742 14  C 36.59919153225807 13.725806451612904  37 13.324997983870968  37 12.830645161290324  L 37 2.16114314516129  Z M 36.976875 19.432981854838708  C 37.002163306451614 18.9243810483871  36.59158266129032 18.5  36.08238508064516 18.5  L 33.990318548387094 18.5  C 33.51640524193548 18.5  33.12402620967742 18.86940322580645  33.097171370967736 19.342495967741932  C 32.66137701612903 27.03021572580645  26.298868951612906 33.12096774193548  18.5 33.12096774193548  C 14.459614919354838 33.12096774193548  10.804820564516131 31.485582661290323  8.159842741935483 28.840157258064515  L 12.197616935483872 24.802308467741934  C 12.761568548387098 24.238356854838706  12.362177419354838 23.274193548387093  11.564663306451612 23  L 0.8951612903225806 23  C 0.40080846774193557 23.274193548387093  0 23.675002016129028  0 24.169354838709673  L 0 34.83885685483871  C 0 35.63637096774193  0.9642379032258066 36.03576209677419  1.5281149193548387 35.47181048387097  L 5.419455645161291 31.580544354838715  C 8.766985887096775 34.92867137096774  13.39131451612903 37  18.5 37  C 28.404437500000004 37  36.490951612903224 29.21672177419355  36.976875 19.432981854838708  Z " fill-rule="nonzero" fill="#712177" stroke="none" transform="matrix(1 0 0 1 127 305 )" />
  </g>
</svg>