<?xml version="1.0" encoding="utf-8"?>
<svg version="1.1" xmlns:xlink="http://www.w3.org/1999/xlink" width="37px" height="37px" xmlns="http://www.w3.org/2000/svg">
  <g transform="matrix(1 0 0 1 -129 -305 )">
    <path d="M 18.5 0  C 28.717296370967738 0  37 8.282703629032259  37 18.5  C 37 28.717296370967738  28.717296370967738 37  18.5 37  C 8.282703629032259 37  0 28.717296370967738  0 18.5  C 0 8.282703629032259  8.282703629032259 0  18.5 0  Z M 14.672141129032259 28.29552620967742  C 15.13829637096774 28.761681451612905  15.893961693548388 28.761681451612905  16.36011693548387 28.295600806451613  L 30.085923387096773 14.569794354838711  C 30.55200403225806 14.103713709677422  30.55200403225806 13.347973790322584  30.085923387096773 12.88189314516129  L 28.39802217741935 11.193991935483872  C 27.93194153225806 10.727836693548387  27.17620161290322 10.727836693548387  26.71004637096774 11.193991935483872  L 15.516129032258066 22.387834677419352  L 10.289953629032258 17.16165927419355  C 9.823872983870968 16.69557862903226  9.068133064516129 16.69557862903226  8.601977822580645 17.16165927419355  L 6.9140766129032265 18.849560483870967  C 6.447995967741935 19.315641129032254  6.447995967741935 20.071381048387096  6.9140766129032265 20.537461693548384  L 14.672141129032259 28.29552620967742  Z " fill-rule="nonzero" fill="#497d0c" stroke="none" transform="matrix(1 0 0 1 129 305 )" />
  </g>
</svg>