<?xml version="1.0" encoding="utf-8"?>
<!-- Generator: Adobe Illustrator 16.0.3, SVG Export Plug-In . SVG Version: 6.00 Build 0)  -->
<!DOCTYPE svg PUBLIC "-//W3C//DTD SVG 1.1//EN" "http://www.w3.org/Graphics/SVG/1.1/DTD/svg11.dtd">
<svg version="1.1" id="Layer_1" xmlns="http://www.w3.org/2000/svg" xmlns:xlink="http://www.w3.org/1999/xlink" x="0px" y="0px"
	 width="246px" height="41px" viewBox="0 0 246 41" enable-background="new 0 0 246 41" xml:space="preserve">
<g>
	<g>
		<path fill="#FFFFFF" d="M0,1.188h65.457v40.023H0V1.188z"/>
	</g>
	<g>
		<path fill="#105EAB" d="M0.643,1.843h64.17V40.52H0.643V1.843z"/>
	</g>
	<polygon fill="#FFFFFF" points="26.985,40.512 64.8,2.204 64.8,1.821 64.61,1.821 26.419,40.512 	"/>
	<polygon fill="#FFFFFF" points="3.144,40.512 5.7,1.821 5.297,1.821 2.741,40.512 	"/>
	<polygon fill="#FFFFFF" points="5.188,40.512 10.709,1.821 10.301,1.821 4.783,40.512 	"/>
	<polygon fill="#FFFFFF" points="7.377,40.512 16.012,1.821 15.604,1.821 6.963,40.512 	"/>
	<polygon fill="#FFFFFF" points="9.779,40.512 22.105,1.821 21.69,1.821 9.36,40.512 	"/>
	<polygon fill="#FFFFFF" points="12.045,40.512 27.881,1.821 27.446,1.821 11.609,40.512 	"/>
	<polygon fill="#FFFFFF" points="14.652,40.512 34.459,1.821 34.017,1.821 14.199,40.512 	"/>
	<polygon fill="#FFFFFF" points="44.356,1.821 43.875,1.821 18.231,40.512 18.711,40.512 	"/>
	<polygon fill="#FFFFFF" points="53.5,1.821 52.995,1.821 21.819,40.512 22.334,40.512 	"/>
	<polygon fill="#FFFFFF" points="64.8,16.461 64.8,15.953 33.887,40.512 34.524,40.512 	"/>
	<polygon fill="#FFFFFF" points="64.8,27.104 64.8,26.633 42.591,40.512 43.351,40.512 	"/>
	<polygon fill="#FFFFFF" points="64.8,37.145 64.8,36.699 56.628,40.512 57.576,40.512 	"/>
	<path fill="#FFFFFF" d="M19.797,25.082c-0.794,0.761-2.79,1.58-4.255,1.566c-4.264-0.004-6.255-3.629-6.291-9.164
		c0.029-5.237,2.178-8.569,5.871-8.577c2.64,0.003,3.924,1.535,4.625,2.448l0.772,1.028v-4.76L20.272,7.51
		c-1.522-0.708-3.454-1.039-5.216-1.042C8.427,6.483,3.369,11.235,3.358,17.943c0.011,6.877,4.792,11.202,11.64,11.209h0.036
		c3.4,0,5.144-1.024,6.064-1.729l0.273-0.207l-1.135-2.546L19.797,25.082z M38.372,8.943c-2.218-1.627-4.996-2.109-7.366-2.109
		H22.91v21.93h8.623c4.183-0.01,10.645-2.664,10.655-11.023C42.196,13.361,40.597,10.57,38.372,8.943z M28.235,26.22V9.311
		c3.915,0.104,8.083,0.582,8.157,8.517C36.329,25.534,32.065,26.115,28.235,26.22z M60.656,24.67l-0.439,0.412
		c-0.794,0.763-2.784,1.58-4.248,1.566c-4.263,0-6.256-3.629-6.292-9.162c0.028-5.242,2.181-8.573,5.879-8.58
		c2.635,0.003,3.922,1.536,4.61,2.448l0.776,1.042V7.625L60.695,7.51c-1.515-0.709-3.447-1.038-5.216-1.041
		c-6.627,0.014-11.674,4.765-11.684,11.474c0.01,6.88,4.78,11.198,11.634,11.209h0.052c3.389,0,5.126-1.026,6.047-1.729l0.273-0.207
		L60.656,24.67z"/>
	<path fill="#0033A0" d="M65.956,39.438h0.773v0.115h-0.324v0.829h-0.123v-0.829h-0.327L65.956,39.438L65.956,39.438z"/>
	<path fill="#0033A0" d="M67.629,40.383v-0.566c0-0.021,0-0.142,0-0.231l0,0l-0.27,0.8h-0.126l-0.266-0.8h-0.004
		c0,0.092,0.004,0.213,0.004,0.231v0.566h-0.126v-0.943h0.18l0.276,0.8h0.004l0.266-0.8h0.184v0.943H67.629z"/>
</g>
<g>
	<path d="M70.227,11.994c0.088-0.796,0.359-1.498,0.812-2.105c0.452-0.607,1.017-1.074,1.694-1.4C73.41,8.163,74.12,8,74.863,8
		c0.406,0,0.803,0.049,1.192,0.147c0.388,0.099,0.759,0.248,1.113,0.448c0.354,0.2,0.683,0.453,0.987,0.758
		c0.304,0.305,0.572,0.665,0.803,1.079h-0.994c-0.258-0.339-0.555-0.625-0.89-0.857c-0.335-0.232-0.687-0.404-1.056-0.515
		c-0.369-0.11-0.737-0.166-1.106-0.166c-0.493,0-0.968,0.089-1.426,0.266c-0.458,0.177-0.868,0.433-1.227,0.766
		c-0.36,0.333-0.644,0.733-0.852,1.2c-0.208,0.468-0.312,0.979-0.312,1.534c0.008,0.715,0.189,1.357,0.545,1.929
		c0.356,0.572,0.824,1.015,1.403,1.333c0.58,0.317,1.194,0.481,1.842,0.492c0.38-0.011,0.759-0.075,1.135-0.195
		c0.376-0.119,0.734-0.301,1.073-0.543c0.339-0.24,0.641-0.545,0.905-0.91h0.994c-0.325,0.559-0.706,1.021-1.142,1.394
		s-0.904,0.646-1.406,0.823c-0.502,0.179-1.021,0.269-1.56,0.269c-0.593,0-1.171-0.108-1.734-0.329
		c-0.563-0.22-1.068-0.535-1.517-0.947c-0.448-0.412-0.802-0.906-1.06-1.483c-0.258-0.578-0.387-1.208-0.387-1.89
		C70.188,12.395,70.201,12.193,70.227,11.994z"/>
	<path d="M79.975,13.751c0.014-0.53,0.118-1.008,0.312-1.432c0.194-0.423,0.456-0.784,0.785-1.083
		c0.329-0.298,0.694-0.526,1.096-0.682c0.401-0.155,0.813-0.236,1.234-0.242c0.565,0,1.114,0.137,1.644,0.413
		c0.53,0.275,0.964,0.688,1.302,1.238c0.338,0.553,0.507,1.208,0.507,1.971v0.17h-5.984c0.039,0.49,0.19,0.908,0.452,1.254
		c0.262,0.347,0.58,0.604,0.954,0.777c0.374,0.172,0.741,0.256,1.101,0.256c0.321,0,0.646-0.063,0.973-0.19
		c0.327-0.129,0.616-0.306,0.868-0.528c0.252-0.223,0.429-0.472,0.534-0.742h0.919c-0.185,0.508-0.456,0.938-0.812,1.289
		c-0.356,0.354-0.754,0.612-1.194,0.78c-0.441,0.169-0.886,0.253-1.335,0.253c-0.59-0.023-1.141-0.181-1.654-0.472
		c-0.514-0.29-0.926-0.698-1.236-1.222C80.13,15.033,79.975,14.432,79.975,13.751z M85.982,13.305
		c-0.075-0.383-0.232-0.735-0.472-1.063c-0.239-0.324-0.541-0.584-0.905-0.779c-0.363-0.193-0.757-0.291-1.181-0.291
		c-0.567,0-1.04,0.134-1.416,0.404s-0.653,0.568-0.831,0.9c-0.177,0.332-0.28,0.607-0.307,0.826h5.112V13.305z"/>
	<path d="M88.157,17.105V10.48h0.849v0.995c0.219-0.365,0.518-0.646,0.896-0.844c0.378-0.197,0.782-0.296,1.209-0.296
		c0.373,0,0.732,0.067,1.079,0.201c0.347,0.134,0.657,0.329,0.931,0.585s0.492,0.575,0.655,0.958
		c0.163,0.383,0.244,0.812,0.244,1.283v3.743h-0.872v-3.743c0-0.457-0.098-0.849-0.294-1.173c-0.196-0.323-0.453-0.567-0.771-0.729
		s-0.658-0.242-1.019-0.242c-0.353,0-0.682,0.077-0.988,0.231c-0.306,0.155-0.552,0.387-0.741,0.694
		c-0.188,0.31-0.282,0.679-0.282,1.107v3.854L88.157,17.105L88.157,17.105z"/>
	<path d="M96.103,17.105V11.29H94.71v-0.81h1.393V8.144h0.896v2.336h1.537v0.81h-1.537v5.815H96.103z"/>
	<path d="M99.488,17.105v-6.648h0.837v0.993c0.369-0.759,1.014-1.138,1.937-1.138v0.908c-0.209,0-0.426,0.044-0.65,0.133
		c-0.225,0.089-0.431,0.215-0.619,0.377c-0.188,0.164-0.339,0.355-0.451,0.574c-0.112,0.219-0.168,0.455-0.168,0.711v4.092h-0.886
		V17.105z"/>
	<path d="M102.582,13.68c0.006-0.436,0.098-0.854,0.275-1.26c0.177-0.404,0.425-0.762,0.744-1.075
		c0.318-0.313,0.696-0.559,1.132-0.739c0.437-0.18,0.91-0.271,1.421-0.271c0.485,0,0.981,0.139,1.488,0.417
		c0.508,0.278,0.935,0.658,1.282,1.141c0.347,0.48,0.542,1.013,0.585,1.592c0,0.029,0.002,0.072,0.006,0.13
		c0.004,0.058,0.006,0.099,0.006,0.124c0,0.488-0.092,0.947-0.275,1.374c-0.183,0.427-0.438,0.801-0.766,1.123
		c-0.328,0.321-0.701,0.571-1.122,0.75c-0.421,0.178-0.863,0.266-1.326,0.266c-0.56,0-1.106-0.14-1.639-0.42
		c-0.533-0.278-0.968-0.69-1.306-1.233C102.75,15.055,102.582,14.415,102.582,13.68z M103.454,13.725
		c0,0.53,0.118,0.994,0.354,1.393c0.235,0.398,0.552,0.708,0.95,0.93c0.398,0.223,0.832,0.344,1.301,0.368
		c0.392,0,0.784-0.104,1.175-0.315s0.715-0.521,0.971-0.931c0.256-0.407,0.384-0.89,0.384-1.442c0-0.321-0.067-0.635-0.201-0.938
		c-0.134-0.304-0.319-0.576-0.556-0.815c-0.237-0.238-0.51-0.429-0.819-0.566c-0.31-0.139-0.628-0.208-0.955-0.208
		c-0.446,0.01-0.866,0.125-1.263,0.343c-0.396,0.219-0.717,0.52-0.962,0.901C103.588,12.822,103.461,13.251,103.454,13.725z"/>
	<path d="M110.536,12.42c-0.008-0.064-0.012-0.152-0.012-0.266c0-0.385,0.096-0.715,0.287-0.991s0.432-0.483,0.721-0.621
		c0.289-0.138,0.571-0.207,0.845-0.207c0.223,0,0.445,0.038,0.666,0.112c0.221,0.075,0.422,0.187,0.605,0.334
		c0.183,0.146,0.331,0.335,0.444,0.562c0.113,0.227,0.176,0.484,0.188,0.771h-0.908c-0.016-0.316-0.118-0.55-0.306-0.697
		c-0.188-0.148-0.417-0.222-0.688-0.222c-0.238,0-0.46,0.078-0.665,0.234c-0.205,0.155-0.314,0.385-0.328,0.686
		c0.002,0.008,0.013,0.058,0.034,0.148c0.021,0.092,0.034,0.151,0.04,0.18c0.061,0.219,0.269,0.402,0.624,0.549
		c0.354,0.146,0.712,0.288,1.072,0.423c0.359,0.136,0.664,0.334,0.912,0.597c0.249,0.262,0.373,0.635,0.373,1.12
		c0,0.082-0.009,0.203-0.027,0.363c-0.049,0.408-0.184,0.744-0.404,1.008c-0.22,0.265-0.479,0.455-0.777,0.572
		c-0.298,0.117-0.59,0.176-0.878,0.176c-0.4,0-0.758-0.092-1.074-0.274c-0.315-0.184-0.561-0.434-0.735-0.75
		c-0.174-0.317-0.262-0.67-0.262-1.057l0.898-0.025c0.012,0.379,0.141,0.688,0.386,0.925c0.246,0.237,0.525,0.36,0.839,0.373
		c0.315-0.027,0.584-0.149,0.806-0.365c0.222-0.216,0.333-0.478,0.333-0.785c0-0.272-0.089-0.519-0.268-0.739
		c-0.179-0.222-0.453-0.38-0.823-0.473c-0.505-0.137-0.938-0.326-1.296-0.57C110.798,13.264,110.591,12.901,110.536,12.42z"/>
	<path d="M118.933,19.419v-8.962h0.857v1.188c0.199-0.29,0.431-0.531,0.696-0.728c0.265-0.195,0.553-0.342,0.863-0.442
		c0.311-0.1,0.634-0.154,0.971-0.164c0.45,0,0.889,0.08,1.319,0.241c0.43,0.161,0.815,0.388,1.157,0.682
		c0.343,0.294,0.615,0.646,0.82,1.059c0.204,0.413,0.313,0.857,0.325,1.336c0,0.53-0.09,1.016-0.271,1.452
		c-0.18,0.436-0.435,0.817-0.762,1.144c-0.328,0.324-0.705,0.573-1.13,0.748c-0.424,0.174-0.879,0.268-1.364,0.278
		c-0.58,0-1.101-0.124-1.565-0.374c-0.464-0.249-0.802-0.597-1.013-1.042v3.584H118.933z M119.767,13.836
		c0.01,0.393,0.109,0.781,0.297,1.167c0.188,0.386,0.482,0.709,0.882,0.974c0.4,0.263,0.895,0.4,1.484,0.414
		c0.45,0,0.874-0.11,1.271-0.334c0.396-0.223,0.716-0.531,0.955-0.93c0.236-0.396,0.355-0.839,0.355-1.326
		c0-0.461-0.117-0.892-0.352-1.291c-0.23-0.397-0.555-0.717-0.96-0.955c-0.408-0.239-0.86-0.358-1.357-0.358
		c-0.514,0.018-0.968,0.151-1.36,0.399c-0.393,0.248-0.693,0.572-0.903,0.975C119.87,12.974,119.767,13.393,119.767,13.836z"/>
	<path d="M126.904,13.836c0.006-0.527,0.109-1.012,0.311-1.451c0.2-0.438,0.471-0.813,0.809-1.121s0.72-0.543,1.143-0.707
		s0.854-0.245,1.288-0.245c1.212,0.029,2.08,0.514,2.604,1.456v-1.287h0.873v6.626h-0.873v-1.26
		c-0.248,0.444-0.606,0.791-1.078,1.035c-0.473,0.246-1.004,0.368-1.602,0.368c-0.453-0.012-0.888-0.099-1.304-0.262
		c-0.416-0.162-0.788-0.394-1.116-0.693s-0.586-0.659-0.771-1.079C126.998,14.797,126.904,14.337,126.904,13.836z M127.823,13.629
		c0,0.545,0.12,1.026,0.358,1.444c0.238,0.419,0.557,0.741,0.946,0.966c0.394,0.225,0.81,0.342,1.248,0.352
		c0.507,0,0.964-0.121,1.372-0.364c0.408-0.243,0.729-0.563,0.959-0.958c0.23-0.396,0.35-0.807,0.35-1.231
		c0-0.469-0.113-0.901-0.339-1.298c-0.225-0.397-0.532-0.713-0.927-0.95c-0.395-0.238-0.824-0.368-1.294-0.392
		c-0.513,0-0.972,0.127-1.381,0.382c-0.409,0.254-0.729,0.572-0.955,0.954C127.938,12.915,127.823,13.28,127.823,13.629z"/>
	<path d="M135.602,17.105v-6.648h0.838v0.993c0.367-0.759,1.016-1.138,1.938-1.138v0.908c-0.209,0-0.426,0.044-0.648,0.133
		c-0.227,0.089-0.433,0.215-0.619,0.377c-0.188,0.164-0.34,0.355-0.451,0.574c-0.112,0.219-0.168,0.455-0.168,0.711v4.092h-0.887
		v-0.002H135.602z"/>
	<path d="M138.678,13.836c0.006-0.527,0.109-1.012,0.311-1.451c0.201-0.438,0.472-0.813,0.811-1.121
		c0.34-0.308,0.719-0.543,1.143-0.707c0.422-0.164,0.853-0.245,1.287-0.245c1.213,0.029,2.08,0.514,2.604,1.456v-1.287h0.872v6.626
		h-0.872v-1.26c-0.248,0.444-0.605,0.791-1.079,1.035c-0.471,0.246-1.004,0.368-1.601,0.368c-0.452-0.012-0.889-0.099-1.305-0.262
		c-0.416-0.162-0.787-0.394-1.115-0.693s-0.586-0.659-0.772-1.079S138.678,14.337,138.678,13.836z M139.598,13.629
		c0,0.545,0.119,1.026,0.358,1.444c0.239,0.419,0.556,0.741,0.946,0.966c0.394,0.225,0.81,0.342,1.248,0.352
		c0.508,0,0.965-0.121,1.373-0.364c0.408-0.243,0.728-0.563,0.959-0.958c0.23-0.396,0.348-0.807,0.348-1.231
		c0-0.469-0.112-0.901-0.337-1.298c-0.226-0.396-0.533-0.713-0.927-0.95c-0.396-0.238-0.824-0.368-1.295-0.392
		c-0.512,0-0.972,0.127-1.381,0.382c-0.408,0.254-0.729,0.572-0.955,0.954C139.71,12.915,139.598,13.28,139.598,13.629z"/>
	<path d="M150.341,13.751c0.015-0.53,0.117-1.008,0.312-1.432c0.195-0.423,0.457-0.784,0.785-1.083
		c0.33-0.298,0.694-0.526,1.098-0.682c0.4-0.155,0.813-0.236,1.232-0.242c0.565,0,1.113,0.137,1.646,0.413
		c0.528,0.275,0.965,0.688,1.303,1.238c0.339,0.553,0.509,1.208,0.509,1.971v0.17h-5.984c0.039,0.49,0.189,0.908,0.451,1.254
		c0.264,0.347,0.58,0.604,0.955,0.777c0.373,0.172,0.738,0.256,1.102,0.256c0.32,0,0.646-0.063,0.973-0.19
		c0.327-0.129,0.616-0.306,0.867-0.528c0.252-0.224,0.43-0.472,0.534-0.742h0.92c-0.187,0.508-0.456,0.938-0.813,1.289
		c-0.354,0.354-0.754,0.612-1.192,0.78c-0.44,0.169-0.888,0.253-1.336,0.253c-0.589-0.023-1.142-0.181-1.653-0.472
		c-0.515-0.29-0.925-0.698-1.234-1.222C150.496,15.033,150.341,14.432,150.341,13.751z M156.35,13.305
		c-0.076-0.383-0.231-0.735-0.473-1.063c-0.238-0.324-0.541-0.584-0.904-0.779c-0.363-0.193-0.758-0.291-1.182-0.291
		c-0.566,0-1.04,0.134-1.416,0.404c-0.377,0.27-0.652,0.568-0.831,0.9c-0.178,0.332-0.28,0.607-0.308,0.826h5.113V13.305
		L156.35,13.305z"/>
	<path d="M158.539,17.105V8.144h0.896v8.961H158.539z"/>
	<path d="M164.111,11.994c0.09-0.796,0.359-1.498,0.813-2.105c0.454-0.607,1.018-1.074,1.694-1.4C167.296,8.163,168.006,8,168.749,8
		c0.405,0,0.803,0.049,1.19,0.147c0.389,0.099,0.76,0.248,1.112,0.448c0.354,0.2,0.685,0.453,0.987,0.758s0.57,0.665,0.803,1.079
		h-0.992c-0.26-0.339-0.556-0.625-0.892-0.857c-0.335-0.232-0.688-0.404-1.056-0.515c-0.368-0.11-0.736-0.166-1.105-0.166
		c-0.49,0-0.968,0.089-1.427,0.266c-0.458,0.177-0.867,0.433-1.228,0.766c-0.359,0.333-0.645,0.733-0.853,1.2
		c-0.208,0.468-0.313,0.979-0.313,1.534c0.01,0.715,0.19,1.357,0.547,1.929c0.355,0.571,0.822,1.015,1.402,1.333
		c0.579,0.317,1.193,0.481,1.842,0.492c0.381-0.011,0.76-0.075,1.137-0.195c0.377-0.119,0.732-0.301,1.072-0.543
		c0.34-0.24,0.643-0.545,0.904-0.91h0.993c-0.325,0.559-0.705,1.021-1.142,1.394c-0.437,0.372-0.903,0.646-1.405,0.823
		c-0.502,0.179-1.021,0.269-1.56,0.269c-0.596,0-1.172-0.108-1.734-0.329c-0.563-0.22-1.068-0.535-1.518-0.947
		c-0.447-0.412-0.803-0.906-1.061-1.483c-0.26-0.578-0.389-1.208-0.389-1.89C164.074,12.395,164.087,12.193,164.111,11.994z"/>
	<path d="M173.854,13.68c0.006-0.436,0.1-0.854,0.274-1.26c0.179-0.404,0.427-0.762,0.744-1.075
		c0.317-0.313,0.694-0.559,1.132-0.739s0.91-0.271,1.421-0.271c0.485,0,0.981,0.139,1.489,0.417
		c0.507,0.278,0.936,0.658,1.281,1.141c0.347,0.48,0.541,1.013,0.586,1.592c0,0.029,0.002,0.072,0.006,0.13
		c0.004,0.058,0.006,0.099,0.006,0.124c0,0.488-0.092,0.947-0.275,1.374c-0.183,0.427-0.438,0.801-0.766,1.123
		c-0.328,0.321-0.701,0.571-1.122,0.75c-0.421,0.178-0.862,0.266-1.325,0.266c-0.561,0-1.105-0.14-1.641-0.42
		c-0.533-0.278-0.969-0.69-1.305-1.233C174.021,15.055,173.854,14.415,173.854,13.68z M174.727,13.725
		c0,0.53,0.119,0.994,0.354,1.393c0.235,0.399,0.552,0.708,0.95,0.93c0.398,0.223,0.832,0.344,1.301,0.368
		c0.393,0,0.784-0.104,1.176-0.315c0.393-0.211,0.715-0.521,0.971-0.931c0.258-0.407,0.385-0.89,0.385-1.442
		c0-0.321-0.065-0.635-0.199-0.938c-0.135-0.303-0.318-0.576-0.557-0.815c-0.236-0.238-0.51-0.429-0.818-0.566
		c-0.311-0.138-0.628-0.208-0.955-0.208c-0.443,0.01-0.866,0.125-1.264,0.343c-0.396,0.219-0.717,0.52-0.963,0.901
		C174.863,12.823,174.734,13.251,174.727,13.725z"/>
	<path d="M182.107,17.105V10.48h0.85v0.995c0.219-0.365,0.518-0.646,0.896-0.844c0.379-0.197,0.78-0.296,1.209-0.296
		c0.373,0,0.731,0.067,1.08,0.201c0.346,0.134,0.655,0.329,0.932,0.585c0.273,0.256,0.492,0.575,0.654,0.958
		c0.162,0.383,0.244,0.812,0.244,1.283v3.743H187.1v-3.743c0-0.457-0.099-0.849-0.293-1.173c-0.197-0.323-0.455-0.567-0.771-0.729
		c-0.318-0.162-0.657-0.242-1.02-0.242c-0.354,0-0.683,0.077-0.988,0.231c-0.305,0.155-0.553,0.387-0.738,0.694
		c-0.188,0.31-0.282,0.679-0.282,1.107v3.854L182.107,17.105L182.107,17.105z"/>
	<path d="M190.055,17.105V11.29h-1.393v-0.81h1.393V8.144h0.896v2.336h1.537v0.81h-1.537v5.815H190.055z"/>
	<path d="M193.439,17.105v-6.648h0.838v0.993c0.367-0.759,1.015-1.138,1.937-1.138v0.908c-0.209,0-0.426,0.044-0.649,0.133
		c-0.226,0.089-0.432,0.215-0.619,0.377c-0.188,0.164-0.34,0.355-0.45,0.574c-0.112,0.219-0.168,0.455-0.168,0.711v4.092h-0.888
		V17.105L193.439,17.105z"/>
	<path d="M196.534,13.68c0.006-0.436,0.098-0.854,0.274-1.26c0.178-0.404,0.426-0.762,0.742-1.075
		c0.318-0.313,0.695-0.559,1.133-0.739s0.909-0.271,1.422-0.271c0.483,0,0.979,0.139,1.487,0.417
		c0.509,0.278,0.937,0.658,1.281,1.141c0.349,0.48,0.542,1.013,0.586,1.592c0,0.029,0.002,0.072,0.006,0.13
		c0.005,0.058,0.007,0.099,0.007,0.124c0,0.488-0.093,0.947-0.274,1.374c-0.183,0.427-0.438,0.801-0.767,1.123
		c-0.328,0.321-0.701,0.571-1.121,0.75c-0.422,0.178-0.863,0.266-1.326,0.266c-0.562,0-1.106-0.14-1.642-0.42
		c-0.532-0.278-0.968-0.69-1.305-1.233S196.534,14.415,196.534,13.68z M197.406,13.725c0,0.53,0.117,0.994,0.354,1.393
		c0.235,0.398,0.553,0.708,0.95,0.93c0.397,0.223,0.832,0.344,1.302,0.368c0.393,0,0.783-0.104,1.176-0.315s0.715-0.521,0.972-0.931
		c0.257-0.407,0.385-0.89,0.385-1.442c0-0.321-0.065-0.635-0.201-0.938c-0.134-0.304-0.317-0.576-0.556-0.815
		c-0.237-0.238-0.512-0.429-0.819-0.566c-0.309-0.138-0.628-0.208-0.954-0.208c-0.445,0.01-0.865,0.125-1.263,0.343
		c-0.396,0.219-0.718,0.52-0.963,0.901C197.542,12.823,197.414,13.251,197.406,13.725z"/>
	<path d="M204.805,17.105V8.144h0.896v8.961H204.805z"/>
	<path d="M212.459,16.889l-2.531-6.408h0.943l2.132,5.281l2.241-5.281h0.945l-3.828,8.938h-0.943L212.459,16.889z"/>
	<path d="M220.402,17.105V8.144h0.896v8.961H220.402z"/>
	<path d="M222.637,13.836c0.006-0.527,0.109-1.012,0.313-1.451c0.199-0.438,0.47-0.813,0.809-1.121
		c0.34-0.308,0.719-0.543,1.143-0.707c0.422-0.164,0.853-0.245,1.287-0.245c1.213,0.029,2.08,0.514,2.604,1.456v-1.287h0.872v6.626
		h-0.872v-1.26c-0.248,0.444-0.605,0.791-1.079,1.035c-0.471,0.246-1.004,0.368-1.601,0.368c-0.452-0.012-0.889-0.099-1.305-0.262
		c-0.416-0.162-0.787-0.394-1.115-0.693s-0.586-0.659-0.772-1.079S222.637,14.337,222.637,13.836z M223.557,13.629
		c0,0.545,0.119,1.026,0.358,1.444c0.239,0.419,0.556,0.741,0.946,0.966c0.394,0.225,0.81,0.342,1.248,0.352
		c0.508,0,0.965-0.121,1.373-0.364c0.408-0.243,0.728-0.563,0.959-0.958c0.23-0.396,0.348-0.807,0.348-1.231
		c0-0.469-0.111-0.901-0.337-1.298c-0.226-0.396-0.533-0.713-0.927-0.95c-0.396-0.238-0.824-0.368-1.295-0.392
		c-0.51,0-0.972,0.127-1.381,0.382c-0.408,0.254-0.729,0.572-0.955,0.954C223.669,12.915,223.557,13.28,223.557,13.629z"/>
	<path d="M70.575,30.449v-8.963h2.351c0.706,0,1.313,0.074,1.823,0.225c0.51,0.148,0.92,0.41,1.23,0.783
		c0.311,0.374,0.487,0.882,0.531,1.523c0.008,0.058,0.012,0.139,0.012,0.241c0,0.497-0.131,0.94-0.395,1.332
		c-0.263,0.39-0.63,0.692-1.102,0.909c-0.471,0.218-1.005,0.325-1.603,0.325h-1.951v3.622L70.575,30.449L70.575,30.449z
		 M71.471,22.286v3.743h1.854c0.788,0,1.367-0.182,1.735-0.545c0.369-0.362,0.553-0.853,0.553-1.467
		c-0.033-0.638-0.276-1.084-0.729-1.345c-0.453-0.26-1.069-0.389-1.85-0.389L71.471,22.286L71.471,22.286z"/>
	<path d="M77.571,30.449v-6.648h0.837v0.992c0.369-0.759,1.014-1.139,1.937-1.139v0.908c-0.209,0-0.426,0.043-0.65,0.133
		c-0.224,0.089-0.431,0.215-0.619,0.379c-0.188,0.162-0.339,0.354-0.451,0.572c-0.112,0.22-0.168,0.455-0.168,0.711v4.092H77.571z"
		/>
	<path d="M80.683,27.094c0.014-0.529,0.118-1.008,0.312-1.432c0.194-0.424,0.456-0.785,0.785-1.083
		c0.329-0.299,0.694-0.526,1.096-0.683c0.401-0.155,0.813-0.236,1.234-0.242c0.565,0,1.114,0.138,1.644,0.412
		c0.53,0.274,0.964,0.688,1.302,1.238c0.338,0.553,0.507,1.209,0.507,1.971v0.17h-5.984c0.039,0.49,0.19,0.908,0.452,1.255
		c0.262,0.346,0.58,0.604,0.954,0.776s0.741,0.256,1.101,0.256c0.321,0,0.646-0.063,0.973-0.19c0.327-0.129,0.616-0.306,0.868-0.528
		c0.252-0.223,0.429-0.472,0.534-0.742h0.919c-0.185,0.508-0.456,0.938-0.812,1.289c-0.356,0.354-0.754,0.612-1.194,0.781
		c-0.441,0.168-0.886,0.252-1.335,0.252c-0.59-0.021-1.141-0.181-1.654-0.472c-0.514-0.29-0.926-0.698-1.236-1.222
		C80.838,28.376,80.683,27.773,80.683,27.094z M86.691,26.646c-0.075-0.383-0.232-0.735-0.472-1.063
		C85.98,25.26,85.678,25,85.314,24.807c-0.363-0.193-0.757-0.293-1.181-0.293c-0.567,0-1.04,0.135-1.416,0.404
		s-0.653,0.568-0.831,0.9c-0.177,0.332-0.28,0.606-0.307,0.826h5.112V26.646z"/>
	<path d="M90.63,30.449l-2.785-6.626h0.967l2.292,5.487l2.3-5.487h0.97l-2.824,6.626H90.63z"/>
	<path d="M94.672,27.094c0.014-0.529,0.118-1.008,0.312-1.432c0.194-0.424,0.456-0.785,0.785-1.083
		c0.329-0.299,0.694-0.526,1.096-0.683c0.401-0.155,0.813-0.236,1.234-0.242c0.565,0,1.114,0.138,1.644,0.412
		c0.53,0.274,0.964,0.688,1.302,1.238c0.338,0.553,0.507,1.209,0.507,1.971v0.17h-5.984c0.039,0.49,0.19,0.908,0.452,1.255
		c0.262,0.346,0.58,0.604,0.954,0.776s0.741,0.256,1.101,0.256c0.321,0,0.646-0.063,0.973-0.19c0.327-0.129,0.616-0.306,0.868-0.528
		s0.429-0.472,0.534-0.742h0.919c-0.185,0.508-0.456,0.938-0.812,1.289c-0.356,0.354-0.754,0.612-1.194,0.781
		c-0.441,0.168-0.886,0.252-1.335,0.252c-0.59-0.021-1.141-0.181-1.654-0.472c-0.514-0.29-0.926-0.698-1.236-1.222
		C94.828,28.376,94.672,27.773,94.672,27.094z M100.68,26.646c-0.075-0.383-0.232-0.735-0.472-1.063
		c-0.239-0.324-0.541-0.584-0.905-0.776c-0.363-0.195-0.757-0.293-1.181-0.293c-0.567,0-1.04,0.135-1.416,0.403
		s-0.653,0.569-0.831,0.901c-0.177,0.332-0.28,0.605-0.307,0.824h5.112V26.646z"/>
	<path d="M102.854,30.449v-6.626h0.849v0.993c0.219-0.364,0.518-0.646,0.896-0.844c0.378-0.195,0.782-0.296,1.209-0.296
		c0.373,0,0.732,0.066,1.079,0.201c0.347,0.136,0.657,0.329,0.931,0.585c0.274,0.257,0.492,0.575,0.655,0.958
		c0.163,0.384,0.244,0.812,0.244,1.283v3.743h-0.872v-3.743c0-0.457-0.098-0.849-0.294-1.172c-0.196-0.324-0.453-0.566-0.771-0.729
		c-0.318-0.162-0.658-0.242-1.019-0.242c-0.353,0-0.682,0.076-0.988,0.231c-0.306,0.153-0.552,0.386-0.741,0.694
		c-0.188,0.309-0.282,0.678-0.282,1.106v3.853L102.854,30.449L102.854,30.449z"/>
	<path d="M109.996,27.12c0.006-0.524,0.106-1,0.3-1.425c0.194-0.426,0.456-0.788,0.784-1.086c0.328-0.297,0.693-0.526,1.094-0.688
		c0.401-0.159,0.81-0.249,1.226-0.269c0.757,0,1.449,0.18,2.076,0.535c0.627,0.354,1.085,0.896,1.375,1.621h-1.017
		c-0.243-0.41-0.571-0.726-0.984-0.942c-0.414-0.22-0.897-0.328-1.449-0.328c-0.5,0.03-0.939,0.169-1.317,0.412
		s-0.668,0.557-0.871,0.94c-0.203,0.383-0.309,0.793-0.319,1.229c0,0.471,0.113,0.902,0.338,1.298s0.539,0.709,0.938,0.942
		c0.4,0.233,0.843,0.358,1.328,0.373c0.511,0,0.975-0.114,1.394-0.344c0.419-0.23,0.742-0.522,0.968-0.878h0.991
		c-0.722,1.388-1.823,2.08-3.306,2.08c-0.445,0-0.88-0.082-1.305-0.248c-0.425-0.168-0.808-0.405-1.149-0.719
		c-0.341-0.313-0.611-0.679-0.81-1.101c-0.199-0.422-0.302-0.875-0.308-1.359c0.01-0.01,0.017-0.02,0.02-0.025
		C109.994,27.13,109.996,27.124,109.996,27.12z"/>
	<path d="M118.106,23.025v-1.539h0.896v1.539H118.106z M118.106,30.449v-6.626h0.896v6.626H118.106z"/>
	<path d="M120.334,27.021c0.006-0.437,0.098-0.854,0.275-1.261c0.177-0.403,0.425-0.762,0.744-1.073
		c0.319-0.313,0.696-0.561,1.132-0.738c0.437-0.182,0.91-0.271,1.421-0.271c0.484,0,0.98,0.141,1.488,0.418
		c0.508,0.276,0.936,0.656,1.28,1.141c0.349,0.48,0.542,1.013,0.587,1.592c0,0.027,0.002,0.072,0.006,0.13
		c0.004,0.06,0.006,0.101,0.006,0.124c0,0.488-0.092,0.947-0.274,1.374s-0.438,0.801-0.767,1.123c-0.33,0.321-0.7,0.571-1.121,0.75
		c-0.422,0.178-0.862,0.266-1.326,0.266c-0.56,0-1.106-0.14-1.639-0.42c-0.533-0.278-0.968-0.69-1.306-1.233
		C120.502,28.396,120.334,27.758,120.334,27.021z M121.206,27.068c0,0.529,0.118,0.994,0.354,1.392
		c0.235,0.397,0.552,0.708,0.95,0.931c0.398,0.223,0.832,0.344,1.301,0.367c0.394,0,0.785-0.104,1.176-0.316
		c0.392-0.211,0.716-0.521,0.972-0.93c0.257-0.408,0.385-0.89,0.385-1.441c0-0.321-0.065-0.635-0.2-0.938s-0.318-0.575-0.557-0.813
		c-0.236-0.239-0.51-0.43-0.818-0.567c-0.31-0.14-0.627-0.208-0.955-0.208c-0.445,0.01-0.867,0.124-1.264,0.344
		c-0.396,0.219-0.717,0.52-0.962,0.9C121.341,26.165,121.214,26.594,121.206,27.068z M122.442,22.457l2.351-1.419l0.423,0.704
		l-2.351,1.38L122.442,22.457z"/>
	<path d="M128.588,30.449v-6.626h0.85v0.993c0.22-0.364,0.519-0.646,0.896-0.844c0.379-0.195,0.782-0.296,1.21-0.296
		c0.372,0,0.731,0.066,1.079,0.201c0.348,0.136,0.656,0.329,0.934,0.585c0.271,0.257,0.49,0.575,0.652,0.958
		c0.163,0.384,0.244,0.812,0.244,1.283v3.743h-0.872v-3.743c0-0.457-0.101-0.849-0.294-1.172c-0.196-0.324-0.454-0.566-0.771-0.729
		c-0.318-0.162-0.656-0.242-1.02-0.242c-0.354,0-0.684,0.076-0.987,0.231c-0.306,0.153-0.553,0.386-0.739,0.694
		c-0.188,0.308-0.281,0.678-0.281,1.106v3.853L128.588,30.449L128.588,30.449z"/>
	<path d="M139.075,26.827c0.053-0.617,0.247-1.164,0.581-1.642c0.334-0.479,0.751-0.849,1.252-1.109
		c0.501-0.264,1.016-0.403,1.546-0.422c0.562,0,1.083,0.106,1.567,0.322c0.483,0.215,0.879,0.553,1.183,1.012v-3.502h0.896v8.963
		h-0.849v-1.26c-0.315,0.472-0.692,0.821-1.134,1.056c-0.441,0.231-0.979,0.349-1.616,0.349c-0.544-0.021-1.083-0.184-1.617-0.479
		s-0.972-0.707-1.312-1.231c-0.34-0.522-0.51-1.114-0.51-1.772C139.063,26.986,139.066,26.893,139.075,26.827z M139.994,26.756
		c-0.016,0.081-0.023,0.202-0.023,0.364c0,0.438,0.114,0.856,0.344,1.257c0.229,0.398,0.541,0.725,0.938,0.973
		c0.396,0.248,0.838,0.377,1.323,0.385c0.438,0,0.861-0.108,1.275-0.327c0.412-0.22,0.75-0.534,1.01-0.947s0.391-0.892,0.391-1.437
		c0-0.293-0.094-0.635-0.279-1.026c-0.187-0.396-0.479-0.733-0.885-1.022c-0.402-0.287-0.906-0.434-1.512-0.434
		c-0.329,0-0.676,0.073-1.037,0.22c-0.361,0.147-0.688,0.39-0.977,0.724C140.275,25.814,140.085,26.24,139.994,26.756z"/>
	<path d="M147.45,27.094c0.014-0.529,0.116-1.008,0.312-1.432c0.196-0.424,0.456-0.785,0.785-1.083
		c0.329-0.299,0.694-0.526,1.096-0.683c0.401-0.155,0.813-0.236,1.234-0.242c0.564,0,1.113,0.138,1.645,0.412
		c0.529,0.274,0.965,0.688,1.304,1.238c0.338,0.553,0.507,1.209,0.507,1.971v0.17h-5.982c0.039,0.49,0.188,0.908,0.45,1.255
		c0.265,0.346,0.58,0.604,0.954,0.776c0.373,0.172,0.74,0.256,1.104,0.256c0.319,0,0.646-0.063,0.973-0.19
		c0.326-0.129,0.615-0.306,0.867-0.528s0.43-0.472,0.533-0.742h0.92c-0.187,0.508-0.455,0.938-0.813,1.289
		c-0.354,0.354-0.754,0.612-1.192,0.781c-0.44,0.168-0.888,0.252-1.336,0.252c-0.59-0.021-1.142-0.181-1.654-0.472
		c-0.514-0.29-0.924-0.698-1.234-1.222C147.605,28.376,147.45,27.773,147.45,27.094z M153.458,26.646
		c-0.075-0.383-0.231-0.735-0.472-1.063c-0.239-0.324-0.541-0.584-0.904-0.776c-0.364-0.195-0.758-0.293-1.182-0.293
		c-0.567,0-1.041,0.135-1.416,0.403c-0.377,0.271-0.653,0.569-0.832,0.901c-0.178,0.332-0.279,0.605-0.308,0.824h5.112
		L153.458,26.646L153.458,26.646z"/>
	<path d="M159.076,30.449v-8.963h4.893v0.826h-3.996v3.22h3.863v0.798h-3.863v3.32h3.996v0.799H159.076z"/>
	<path d="M165.32,30.449v-6.626h0.85v0.993c0.219-0.364,0.518-0.646,0.896-0.844c0.379-0.195,0.781-0.296,1.209-0.296
		c0.373,0,0.731,0.066,1.08,0.201c0.347,0.136,0.656,0.329,0.932,0.585c0.273,0.257,0.492,0.575,0.654,0.958
		c0.162,0.384,0.244,0.812,0.244,1.283v3.743h-0.873v-3.743c0-0.457-0.1-0.849-0.293-1.172c-0.196-0.324-0.455-0.566-0.772-0.729
		c-0.317-0.162-0.657-0.242-1.019-0.242c-0.354,0-0.684,0.076-0.987,0.231c-0.306,0.153-0.554,0.386-0.74,0.694
		c-0.188,0.309-0.282,0.678-0.282,1.106v3.853L165.32,30.449L165.32,30.449z"/>
	<path d="M173.074,30.449v-5.801h-1.018V23.85h1.018c0-1.56,0.852-2.34,2.554-2.34v0.825c-0.504,0-0.907,0.103-1.212,0.306
		c-0.305,0.205-0.46,0.574-0.471,1.11c0.017,0.032,0.022,0.063,0.022,0.099h1.658v0.799h-1.658v5.802L173.074,30.449L173.074,30.449
		z"/>
	<path d="M175.979,27.094c0.016-0.529,0.117-1.008,0.313-1.432s0.456-0.785,0.785-1.083c0.327-0.299,0.692-0.526,1.096-0.683
		c0.401-0.155,0.813-0.236,1.234-0.242c0.563,0,1.112,0.138,1.644,0.412c0.53,0.274,0.967,0.688,1.305,1.238
		c0.338,0.553,0.506,1.209,0.506,1.971v0.17h-5.983c0.04,0.49,0.19,0.908,0.452,1.255c0.263,0.346,0.58,0.604,0.954,0.776
		c0.372,0.172,0.739,0.256,1.102,0.256c0.321,0,0.646-0.063,0.974-0.19c0.326-0.129,0.615-0.306,0.867-0.528
		s0.431-0.472,0.533-0.742h0.92c-0.186,0.508-0.455,0.938-0.813,1.289c-0.355,0.354-0.754,0.612-1.194,0.781
		c-0.44,0.168-0.886,0.252-1.335,0.252c-0.589-0.021-1.141-0.181-1.654-0.472c-0.514-0.29-0.925-0.698-1.233-1.222
		C176.134,28.376,175.979,27.773,175.979,27.094z M181.986,26.646c-0.075-0.383-0.232-0.735-0.473-1.063
		c-0.238-0.324-0.541-0.584-0.904-0.776c-0.363-0.195-0.758-0.293-1.183-0.293c-0.565,0-1.038,0.135-1.416,0.403
		c-0.377,0.269-0.651,0.569-0.829,0.901c-0.18,0.332-0.281,0.605-0.31,0.824h5.112v0.004H181.986z"/>
	<path d="M184.167,30.449v-6.648h0.837v0.992c0.368-0.759,1.016-1.139,1.938-1.139v0.908c-0.209,0-0.426,0.043-0.649,0.133
		c-0.226,0.089-0.433,0.215-0.619,0.379c-0.188,0.162-0.339,0.354-0.45,0.572c-0.111,0.22-0.168,0.455-0.168,0.711v4.092H184.167z"
		/>
	<path d="M187.863,23.823h0.849v0.896c0.158-0.329,0.396-0.588,0.716-0.77c0.319-0.185,0.672-0.273,1.053-0.273
		c0.465,0,0.906,0.111,1.326,0.334c0.42,0.224,0.752,0.531,1,0.927c0.235-0.403,0.545-0.711,0.924-0.92
		c0.381-0.209,0.778-0.313,1.194-0.313c0.353,0,0.696,0.063,1.03,0.188c0.334,0.127,0.631,0.309,0.891,0.537
		c0.262,0.23,0.469,0.508,0.621,0.83c0.153,0.324,0.23,0.672,0.23,1.045v4.144h-0.872v-3.997c0-0.399-0.087-0.743-0.263-1.029
		c-0.174-0.286-0.403-0.501-0.689-0.645c-0.286-0.145-0.594-0.217-0.926-0.217c-0.297,0-0.576,0.063-0.836,0.192
		c-0.262,0.13-0.469,0.321-0.625,0.575c-0.155,0.254-0.232,0.557-0.232,0.904v4.213h-0.92V26.38c0-0.37-0.089-0.694-0.268-0.97
		c-0.18-0.275-0.414-0.486-0.703-0.633c-0.29-0.146-0.602-0.217-0.932-0.217c-0.305,0-0.58,0.065-0.836,0.198
		c-0.256,0.136-0.457,0.336-0.609,0.604c-0.151,0.271-0.229,0.601-0.229,0.99v4.092h-0.896v-6.622H187.863z"/>
	<path d="M198.995,27.094c0.014-0.529,0.116-1.008,0.312-1.432c0.196-0.424,0.457-0.785,0.785-1.083
		c0.329-0.299,0.694-0.526,1.096-0.683c0.401-0.155,0.813-0.236,1.234-0.242c0.564,0,1.113,0.138,1.645,0.412
		c0.529,0.274,0.966,0.688,1.304,1.238c0.338,0.553,0.507,1.209,0.507,1.971v0.17h-5.982c0.039,0.49,0.188,0.908,0.451,1.255
		c0.264,0.346,0.579,0.604,0.953,0.776c0.373,0.172,0.74,0.256,1.104,0.256c0.32,0,0.646-0.063,0.973-0.19
		c0.327-0.129,0.615-0.306,0.867-0.528s0.43-0.472,0.533-0.742h0.92c-0.187,0.508-0.455,0.938-0.813,1.289
		c-0.354,0.354-0.754,0.612-1.192,0.781c-0.44,0.168-0.888,0.252-1.336,0.252c-0.588-0.021-1.142-0.181-1.654-0.472
		c-0.514-0.29-0.924-0.698-1.234-1.222C199.15,28.376,198.995,27.773,198.995,27.094z M205.003,26.646
		c-0.075-0.383-0.231-0.735-0.472-1.063c-0.239-0.324-0.541-0.584-0.904-0.776c-0.363-0.195-0.758-0.293-1.182-0.293
		c-0.567,0-1.041,0.135-1.416,0.403c-0.377,0.271-0.653,0.569-0.831,0.901c-0.179,0.332-0.28,0.605-0.308,0.824h5.111
		L205.003,26.646L205.003,26.646z"/>
	<path d="M206.866,26.827c0.053-0.617,0.247-1.164,0.581-1.642c0.334-0.479,0.751-0.849,1.252-1.109
		c0.501-0.264,1.016-0.403,1.546-0.422c0.562,0,1.083,0.106,1.567,0.322c0.483,0.215,0.879,0.553,1.183,1.012v-3.502h0.896v8.963
		h-0.849v-1.26c-0.315,0.472-0.692,0.821-1.134,1.056c-0.441,0.231-0.979,0.349-1.616,0.349c-0.544-0.021-1.083-0.184-1.617-0.479
		s-0.972-0.707-1.312-1.231c-0.34-0.522-0.51-1.114-0.51-1.772C206.854,26.986,206.857,26.893,206.866,26.827z M207.785,26.756
		c-0.016,0.081-0.023,0.202-0.023,0.364c0,0.438,0.114,0.856,0.344,1.257c0.229,0.398,0.541,0.725,0.938,0.973
		c0.396,0.248,0.838,0.377,1.323,0.385c0.438,0,0.861-0.108,1.275-0.327c0.412-0.22,0.75-0.534,1.01-0.947s0.391-0.892,0.391-1.437
		c0-0.293-0.094-0.635-0.279-1.026c-0.187-0.396-0.479-0.733-0.885-1.022c-0.402-0.287-0.906-0.434-1.512-0.434
		c-0.329,0-0.676,0.073-1.037,0.22c-0.361,0.147-0.688,0.39-0.977,0.724C208.066,25.814,207.876,26.24,207.785,26.756z"/>
	<path d="M215.225,27.18c0.006-0.527,0.108-1.013,0.312-1.451c0.198-0.438,0.47-0.813,0.81-1.121
		c0.338-0.309,0.719-0.543,1.141-0.705c0.424-0.164,0.854-0.246,1.289-0.246c1.211,0.029,2.08,0.515,2.604,1.455v-1.286h0.872v6.626
		h-0.872v-1.262c-0.248,0.445-0.607,0.791-1.079,1.037c-0.471,0.246-1.004,0.367-1.6,0.367c-0.453-0.012-0.888-0.099-1.304-0.262
		c-0.416-0.162-0.789-0.395-1.117-0.693c-0.327-0.299-0.586-0.658-0.772-1.078S215.225,27.68,215.225,27.18z M216.143,26.973
		c0,0.545,0.121,1.025,0.359,1.443c0.239,0.419,0.557,0.741,0.947,0.966c0.393,0.226,0.809,0.343,1.248,0.353
		c0.507,0,0.964-0.12,1.371-0.364c0.408-0.243,0.729-0.563,0.959-0.958c0.231-0.396,0.349-0.807,0.349-1.23
		c0-0.47-0.112-0.9-0.337-1.299c-0.225-0.396-0.533-0.713-0.928-0.949s-0.823-0.367-1.293-0.393c-0.512,0-0.971,0.127-1.381,0.381
		c-0.41,0.255-0.729,0.573-0.955,0.955C216.256,26.259,216.143,26.623,216.143,26.973z"/>
	<path d="M223.582,26.827c0.053-0.617,0.247-1.164,0.581-1.642c0.334-0.479,0.751-0.849,1.252-1.109
		c0.501-0.264,1.017-0.403,1.546-0.422c0.561,0,1.083,0.106,1.566,0.322c0.486,0.215,0.88,0.553,1.184,1.012v-3.502h0.896v8.963
		h-0.851v-1.26c-0.313,0.472-0.692,0.821-1.134,1.056c-0.439,0.231-0.979,0.349-1.616,0.349c-0.544-0.021-1.083-0.184-1.616-0.479
		c-0.533-0.297-0.973-0.707-1.313-1.231c-0.342-0.522-0.512-1.114-0.512-1.772C223.57,26.986,223.574,26.893,223.582,26.827z
		 M224.501,26.756c-0.017,0.081-0.022,0.202-0.022,0.364c0,0.438,0.113,0.856,0.342,1.257c0.229,0.398,0.543,0.725,0.939,0.973
		s0.838,0.377,1.323,0.385c0.438,0,0.862-0.108,1.274-0.327c0.414-0.22,0.75-0.534,1.011-0.947c0.26-0.413,0.391-0.892,0.391-1.437
		c0-0.293-0.094-0.635-0.278-1.026c-0.188-0.396-0.48-0.733-0.885-1.022c-0.404-0.287-0.908-0.434-1.513-0.434
		c-0.329,0-0.675,0.073-1.037,0.22c-0.36,0.147-0.687,0.39-0.976,0.724C224.782,25.814,224.592,26.24,224.501,26.756z"/>
	<path d="M231.958,27.094c0.015-0.529,0.117-1.008,0.312-1.432c0.195-0.424,0.457-0.785,0.785-1.083
		c0.329-0.299,0.694-0.526,1.096-0.683c0.401-0.155,0.813-0.236,1.234-0.242c0.565,0,1.113,0.138,1.645,0.412
		c0.529,0.274,0.966,0.688,1.304,1.238c0.338,0.553,0.507,1.209,0.507,1.971v0.17h-5.982c0.039,0.49,0.188,0.908,0.451,1.255
		c0.264,0.346,0.58,0.604,0.953,0.776s0.74,0.256,1.104,0.256c0.32,0,0.646-0.063,0.973-0.19c0.327-0.129,0.616-0.306,0.867-0.528
		c0.252-0.224,0.43-0.472,0.533-0.742h0.921c-0.187,0.508-0.456,0.938-0.813,1.289c-0.354,0.354-0.754,0.612-1.193,0.781
		c-0.439,0.168-0.887,0.252-1.336,0.252c-0.588-0.021-1.141-0.181-1.652-0.472c-0.516-0.29-0.926-0.698-1.234-1.222
		C232.113,28.376,231.958,27.773,231.958,27.094z M237.966,26.646c-0.075-0.383-0.231-0.735-0.472-1.063
		c-0.239-0.324-0.541-0.584-0.904-0.776c-0.363-0.195-0.758-0.293-1.182-0.293c-0.567,0-1.04,0.135-1.416,0.403
		c-0.377,0.271-0.653,0.569-0.831,0.901c-0.179,0.332-0.28,0.605-0.308,0.824h5.111L237.966,26.646L237.966,26.646z"/>
	<path d="M239.861,25.764c-0.008-0.063-0.012-0.152-0.012-0.267c0-0.386,0.096-0.715,0.287-0.991
		c0.189-0.275,0.432-0.482,0.721-0.619c0.289-0.14,0.568-0.207,0.845-0.207c0.223,0,0.444,0.037,0.666,0.111
		c0.221,0.074,0.423,0.186,0.604,0.334c0.182,0.146,0.329,0.335,0.442,0.563c0.112,0.228,0.176,0.483,0.188,0.771h-0.906
		c-0.016-0.316-0.118-0.55-0.307-0.695c-0.188-0.148-0.418-0.224-0.688-0.224c-0.239,0-0.461,0.077-0.666,0.231
		c-0.205,0.156-0.313,0.386-0.328,0.688c0.002,0.009,0.015,0.059,0.034,0.148c0.021,0.092,0.033,0.15,0.039,0.18
		c0.063,0.219,0.271,0.4,0.625,0.549c0.354,0.146,0.712,0.288,1.07,0.423c0.359,0.136,0.664,0.334,0.912,0.597
		c0.248,0.264,0.373,0.637,0.373,1.121c0,0.082-0.01,0.203-0.027,0.362c-0.049,0.408-0.185,0.744-0.402,1.009
		c-0.221,0.266-0.479,0.454-0.775,0.571c-0.298,0.117-0.592,0.177-0.88,0.177c-0.399,0-0.759-0.093-1.073-0.273
		c-0.314-0.184-0.562-0.434-0.734-0.752c-0.174-0.316-0.262-0.668-0.262-1.055l0.896-0.026c0.014,0.38,0.143,0.688,0.387,0.925
		c0.244,0.236,0.524,0.361,0.84,0.373c0.313-0.027,0.584-0.148,0.806-0.365c0.222-0.216,0.333-0.479,0.333-0.785
		c0-0.271-0.09-0.519-0.268-0.74c-0.181-0.222-0.453-0.379-0.824-0.472c-0.506-0.137-0.938-0.325-1.295-0.571
		C240.124,26.605,239.917,26.244,239.861,25.764z"/>
</g>
<g>
	<path d="M69.193,36.139c0.051-0.457,0.207-0.861,0.466-1.211c0.26-0.35,0.585-0.617,0.974-0.805
		c0.389-0.188,0.797-0.281,1.225-0.281c0.233,0,0.462,0.028,0.685,0.085c0.223,0.058,0.437,0.144,0.64,0.259
		c0.203,0.114,0.393,0.26,0.567,0.436c0.175,0.176,0.329,0.383,0.461,0.621H73.64c-0.148-0.195-0.319-0.359-0.512-0.493
		c-0.192-0.134-0.395-0.231-0.606-0.295c-0.212-0.063-0.424-0.097-0.636-0.097c-0.284,0-0.557,0.052-0.82,0.152
		c-0.263,0.102-0.499,0.249-0.706,0.44c-0.207,0.19-0.37,0.421-0.49,0.688c-0.12,0.271-0.179,0.563-0.179,0.883
		c0.004,0.41,0.109,0.78,0.313,1.108c0.205,0.328,0.474,0.583,0.807,0.767s0.687,0.277,1.059,0.283
		c0.219-0.006,0.437-0.044,0.653-0.111c0.216-0.069,0.422-0.174,0.617-0.313c0.195-0.139,0.369-0.313,0.52-0.523h0.572
		c-0.187,0.32-0.406,0.588-0.656,0.801c-0.251,0.213-0.521,0.371-0.809,0.475s-0.587,0.153-0.896,0.153
		c-0.341,0-0.673-0.063-0.997-0.19c-0.324-0.125-0.614-0.308-0.872-0.545c-0.258-0.236-0.461-0.521-0.609-0.853
		c-0.149-0.331-0.223-0.693-0.223-1.087C69.17,36.369,69.178,36.253,69.193,36.139z"/>
	<path d="M74.969,39.077v-5.151h1.4c0.483,0,0.91,0.068,1.28,0.204c0.371,0.138,0.68,0.326,0.929,0.569
		c0.249,0.242,0.434,0.521,0.558,0.837c0.123,0.315,0.185,0.653,0.185,1.014c-0.004,0.384-0.08,0.731-0.227,1.048
		c-0.148,0.314-0.35,0.584-0.605,0.805c-0.255,0.223-0.542,0.392-0.862,0.505c-0.319,0.114-0.648,0.171-0.987,0.171L74.969,39.077
		L74.969,39.077z M75.483,34.384v4.22h0.793c0.715,0,1.304-0.168,1.767-0.504c0.462-0.336,0.716-0.853,0.762-1.55
		c0-0.286-0.05-0.561-0.148-0.819c-0.098-0.26-0.249-0.491-0.45-0.693s-0.457-0.361-0.765-0.479
		c-0.309-0.115-0.667-0.174-1.073-0.174L75.483,34.384L75.483,34.384z"/>
	<path d="M79.896,36.139c0.051-0.457,0.207-0.861,0.467-1.211c0.261-0.35,0.585-0.617,0.974-0.805
		c0.389-0.188,0.797-0.281,1.225-0.281c0.233,0,0.462,0.028,0.685,0.085c0.223,0.058,0.437,0.144,0.64,0.259
		c0.204,0.114,0.393,0.26,0.568,0.436c0.175,0.176,0.329,0.383,0.461,0.621h-0.571c-0.149-0.195-0.319-0.359-0.512-0.493
		s-0.395-0.231-0.606-0.295c-0.212-0.063-0.424-0.097-0.636-0.097c-0.284,0-0.557,0.052-0.82,0.152
		c-0.263,0.102-0.499,0.249-0.706,0.44c-0.207,0.19-0.37,0.421-0.49,0.688c-0.12,0.271-0.179,0.563-0.179,0.883
		c0.004,0.41,0.109,0.78,0.313,1.108c0.205,0.328,0.474,0.583,0.807,0.767s0.687,0.277,1.059,0.283
		c0.219-0.006,0.436-0.044,0.652-0.111c0.216-0.069,0.422-0.174,0.617-0.313c0.195-0.139,0.369-0.313,0.52-0.523h0.572
		c-0.188,0.32-0.406,0.588-0.656,0.801s-0.52,0.371-0.809,0.475c-0.288,0.104-0.587,0.153-0.896,0.153
		c-0.341,0-0.673-0.063-0.997-0.19c-0.324-0.125-0.615-0.308-0.873-0.545c-0.258-0.236-0.461-0.521-0.61-0.853
		c-0.148-0.331-0.223-0.693-0.223-1.087C79.874,36.369,79.881,36.253,79.896,36.139z"/>
	<path d="M87.277,35.598c0.004-0.387,0.084-0.709,0.24-0.972c0.155-0.262,0.359-0.457,0.611-0.584c0.252-0.128,0.525-0.194,0.82-0.2
		c0.204,0,0.401,0.039,0.591,0.119c0.191,0.079,0.36,0.189,0.507,0.331c0.148,0.142,0.265,0.308,0.351,0.499
		c0.086,0.189,0.129,0.396,0.129,0.616c0,0.517-0.241,1.001-0.724,1.454l-1.844,1.74h2.568v0.476h-3.279v-0.459l2.298-2.235
		c0.32-0.318,0.479-0.645,0.479-0.976c0-0.191-0.048-0.367-0.143-0.527c-0.095-0.159-0.221-0.286-0.378-0.381
		c-0.158-0.095-0.325-0.146-0.501-0.155c-0.337,0-0.623,0.102-0.857,0.305c-0.235,0.203-0.353,0.52-0.353,0.949H87.277
		L87.277,35.598z"/>
	<path d="M93.266,33.926h0.641v3.739h0.46v0.458h-0.46v0.954h-0.515v-0.954h-2.597v-0.458L93.266,33.926z M93.392,34.629
		l-2.013,3.036h2.013V34.629z"/>
	<path d="M94.55,39.961l2.012-6.035h0.473l-2.039,6.035H94.55z"/>
	<path d="M97.939,39.077l2.125-4.693h-2.437v-0.458h2.979v0.458l-2.116,4.693H97.939z"/>
	<path d="M101.166,35.525h0.515v0.871h-0.515V35.525z M101.166,38.193h0.515v0.884h-0.515V38.193z"/>
	<path d="M104.886,37.636c0.011,0.224,0.068,0.412,0.17,0.567c0.103,0.154,0.235,0.271,0.399,0.347
		c0.163,0.077,0.335,0.116,0.516,0.116c0.168,0,0.33-0.045,0.485-0.134c0.156-0.091,0.281-0.212,0.375-0.362
		c0.094-0.15,0.142-0.314,0.142-0.49c0-0.215-0.054-0.406-0.161-0.572c-0.102-0.16-0.293-0.291-0.574-0.387
		c-0.28-0.097-0.555-0.189-0.824-0.279c-0.269-0.092-0.49-0.229-0.662-0.408c-0.171-0.184-0.258-0.449-0.258-0.799
		c0-0.014,0.002-0.034,0.005-0.063c0.003-0.027,0.004-0.052,0.004-0.076c0.014-0.246,0.088-0.466,0.223-0.656
		c0.135-0.189,0.311-0.338,0.526-0.44c0.215-0.104,0.441-0.156,0.676-0.156c0.278,0,0.526,0.067,0.745,0.203
		c0.218,0.136,0.386,0.306,0.504,0.511c0.119,0.205,0.178,0.406,0.178,0.603v0.069h-0.515c-0.038-0.287-0.14-0.5-0.304-0.64
		c-0.164-0.141-0.362-0.222-0.596-0.243c-0.161,0-0.311,0.034-0.449,0.104c-0.138,0.069-0.25,0.166-0.336,0.286
		c-0.085,0.119-0.132,0.248-0.14,0.388c0,0.323,0.083,0.547,0.251,0.671c0.169,0.125,0.437,0.24,0.804,0.348
		c0.368,0.105,0.664,0.235,0.892,0.393c0.227,0.154,0.39,0.419,0.488,0.791c0.02,0.137,0.029,0.246,0.029,0.326
		c0,0.175-0.033,0.352-0.1,0.531c-0.066,0.181-0.164,0.344-0.291,0.489c-0.127,0.147-0.29,0.267-0.485,0.354
		c-0.195,0.091-0.416,0.136-0.664,0.136c-0.239,0-0.46-0.04-0.661-0.117c-0.201-0.079-0.374-0.188-0.517-0.331
		c-0.144-0.141-0.254-0.304-0.329-0.488c-0.076-0.184-0.113-0.379-0.113-0.588L104.886,37.636L104.886,37.636z"/>
	<path d="M107.945,37.197c0.003-0.305,0.063-0.582,0.178-0.834c0.116-0.254,0.27-0.469,0.465-0.646
		c0.194-0.177,0.413-0.312,0.656-0.405c0.243-0.095,0.491-0.143,0.741-0.143c0.697,0.018,1.196,0.296,1.498,0.837v-0.739h0.501v3.81
		h-0.501v-0.724c-0.143,0.256-0.35,0.453-0.621,0.595s-0.577,0.212-0.919,0.212c-0.26-0.008-0.511-0.057-0.75-0.15
		c-0.239-0.093-0.453-0.227-0.641-0.398c-0.189-0.172-0.337-0.379-0.445-0.62S107.945,37.484,107.945,37.197z M108.474,37.078
		c0,0.313,0.069,0.59,0.207,0.831c0.138,0.241,0.32,0.426,0.545,0.555s0.464,0.196,0.717,0.202c0.291,0,0.555-0.07,0.789-0.21
		c0.235-0.14,0.418-0.323,0.552-0.551c0.132-0.229,0.2-0.464,0.2-0.708c0-0.271-0.065-0.52-0.194-0.747
		c-0.128-0.228-0.307-0.41-0.533-0.546c-0.226-0.137-0.474-0.211-0.744-0.228c-0.293,0-0.558,0.073-0.793,0.222
		c-0.235,0.146-0.418,0.328-0.549,0.549C108.539,36.668,108.474,36.878,108.474,37.078z"/>
	<path d="M112.865,39.077v-5.151h0.515v5.151H112.865z"/>
	<path d="M115.429,39.077l-1.601-3.81h0.555l1.317,3.154l1.322-3.154h0.558l-1.624,3.81H115.429z"/>
	<path d="M117.664,37.197c0.003-0.305,0.063-0.582,0.179-0.834c0.116-0.254,0.27-0.469,0.465-0.646
		c0.194-0.177,0.413-0.312,0.656-0.405c0.243-0.095,0.49-0.143,0.741-0.143c0.697,0.018,1.195,0.296,1.497,0.837v-0.739h0.501v3.81
		h-0.501v-0.724c-0.143,0.256-0.35,0.453-0.621,0.595s-0.577,0.212-0.919,0.212c-0.26-0.008-0.511-0.057-0.75-0.15
		c-0.239-0.093-0.453-0.227-0.642-0.398c-0.188-0.172-0.337-0.379-0.445-0.62C117.718,37.75,117.664,37.484,117.664,37.197z
		 M118.192,37.078c0,0.313,0.069,0.59,0.207,0.831c0.138,0.241,0.32,0.426,0.545,0.555c0.225,0.129,0.464,0.196,0.717,0.202
		c0.291,0,0.554-0.07,0.789-0.21c0.235-0.14,0.418-0.323,0.551-0.551c0.133-0.229,0.2-0.464,0.2-0.708
		c0-0.271-0.065-0.52-0.194-0.747c-0.129-0.228-0.307-0.41-0.533-0.546c-0.226-0.137-0.474-0.211-0.743-0.228
		c-0.294,0-0.559,0.073-0.794,0.222c-0.235,0.146-0.418,0.328-0.549,0.549C118.258,36.668,118.192,36.878,118.192,37.078z"/>
	<path d="M122.586,35.27h0.488v0.517c0.09-0.19,0.227-0.338,0.411-0.443c0.184-0.104,0.385-0.157,0.606-0.157
		c0.267,0,0.521,0.064,0.763,0.192c0.24,0.128,0.433,0.306,0.573,0.531c0.136-0.232,0.313-0.408,0.532-0.529
		c0.218-0.12,0.447-0.18,0.688-0.18c0.201,0,0.398,0.036,0.592,0.11c0.191,0.072,0.361,0.176,0.512,0.309
		c0.15,0.132,0.27,0.292,0.357,0.479c0.086,0.186,0.131,0.385,0.131,0.6v2.382h-0.5v-2.3c0-0.229-0.051-0.426-0.151-0.59
		s-0.231-0.287-0.396-0.371c-0.166-0.082-0.342-0.125-0.531-0.125c-0.172,0-0.332,0.037-0.48,0.111
		c-0.15,0.073-0.271,0.186-0.359,0.331c-0.09,0.146-0.135,0.319-0.135,0.521v2.423h-0.527V36.74c0-0.213-0.053-0.398-0.154-0.559
		c-0.104-0.158-0.236-0.279-0.404-0.361c-0.166-0.084-0.345-0.127-0.535-0.127c-0.172,0-0.332,0.039-0.479,0.115
		c-0.146,0.076-0.263,0.192-0.35,0.349c-0.088,0.155-0.131,0.345-0.131,0.569v2.353h-0.514L122.586,35.27L122.586,35.27z"/>
	<path d="M128.91,37.107c0.004-0.252,0.057-0.492,0.158-0.726c0.101-0.233,0.244-0.438,0.428-0.616
		c0.184-0.181,0.398-0.322,0.65-0.427s0.523-0.155,0.816-0.155c0.278,0,0.564,0.08,0.855,0.24c0.291,0.159,0.537,0.377,0.736,0.654
		s0.312,0.583,0.336,0.915c0,0.018,0.002,0.042,0.004,0.075c0.002,0.031,0.004,0.056,0.004,0.07c0,0.281-0.053,0.545-0.158,0.791
		c-0.104,0.244-0.252,0.459-0.44,0.646c-0.188,0.186-0.401,0.329-0.646,0.431c-0.241,0.104-0.495,0.152-0.762,0.152
		c-0.322,0-0.637-0.08-0.942-0.24c-0.308-0.161-0.558-0.396-0.751-0.71C129.008,37.896,128.91,37.53,128.91,37.107z M129.412,37.134
		c0,0.306,0.066,0.571,0.203,0.8c0.135,0.229,0.316,0.407,0.546,0.535c0.229,0.127,0.479,0.197,0.749,0.211
		c0.227,0,0.449-0.062,0.675-0.183s0.411-0.299,0.56-0.533c0.146-0.235,0.221-0.512,0.221-0.83c0-0.186-0.038-0.364-0.115-0.54
		c-0.077-0.174-0.184-0.33-0.318-0.469c-0.136-0.139-0.293-0.247-0.473-0.326c-0.178-0.08-0.359-0.121-0.549-0.121
		c-0.256,0.008-0.498,0.072-0.727,0.197c-0.229,0.126-0.412,0.3-0.553,0.52C129.488,36.614,129.416,36.859,129.412,37.134z"/>
	<path d="M133.409,36.383c-0.005-0.037-0.007-0.089-0.007-0.152c0-0.222,0.055-0.41,0.164-0.569c0.11-0.158,0.248-0.277,0.414-0.356
		c0.166-0.078,0.328-0.119,0.485-0.119c0.13,0,0.257,0.021,0.384,0.065c0.127,0.043,0.242,0.106,0.348,0.19
		c0.104,0.086,0.189,0.192,0.256,0.324c0.066,0.131,0.102,0.277,0.107,0.442h-0.521c-0.01-0.183-0.068-0.315-0.176-0.401
		c-0.108-0.084-0.24-0.127-0.396-0.127c-0.138,0-0.265,0.045-0.383,0.133c-0.118,0.092-0.181,0.223-0.188,0.396
		c0.002,0.005,0.008,0.032,0.021,0.085c0.011,0.054,0.021,0.088,0.022,0.104c0.035,0.125,0.154,0.229,0.357,0.313
		c0.204,0.085,0.41,0.166,0.616,0.244c0.207,0.077,0.382,0.191,0.524,0.342c0.144,0.151,0.213,0.366,0.213,0.646
		c0,0.047-0.004,0.115-0.014,0.207c-0.029,0.235-0.107,0.43-0.232,0.58c-0.127,0.151-0.274,0.263-0.446,0.33
		c-0.171,0.066-0.34,0.101-0.506,0.101c-0.229,0-0.437-0.052-0.617-0.157s-0.321-0.25-0.423-0.432c-0.1-0.184-0.15-0.385-0.15-0.607
		l0.518-0.015c0.006,0.219,0.08,0.396,0.222,0.53c0.142,0.138,0.302,0.209,0.481,0.215c0.182-0.016,0.336-0.086,0.463-0.209
		c0.128-0.125,0.191-0.275,0.191-0.452c0-0.156-0.052-0.298-0.154-0.427c-0.103-0.127-0.26-0.217-0.474-0.271
		c-0.29-0.077-0.538-0.188-0.743-0.327C133.561,36.868,133.441,36.66,133.409,36.383z"/>
	<path d="M139.294,39.077l-1.603-3.81h0.558l1.315,3.154l1.322-3.154h0.559l-1.623,3.81H139.294z"/>
	<path d="M141.902,34.809v-0.883h0.515v0.883H141.902z M141.902,39.077v-3.81h0.515v3.81H141.902z"/>
	<path d="M143.111,36.995c0.029-0.354,0.142-0.67,0.332-0.943c0.192-0.274,0.434-0.487,0.722-0.639
		c0.288-0.149,0.584-0.231,0.89-0.242c0.321,0,0.621,0.062,0.9,0.187c0.277,0.123,0.505,0.316,0.68,0.58v-2.012h0.516v5.151h-0.487
		v-0.724c-0.183,0.271-0.399,0.473-0.652,0.605s-0.563,0.2-0.93,0.2c-0.312-0.015-0.622-0.104-0.929-0.275
		c-0.309-0.171-0.561-0.407-0.754-0.708c-0.195-0.302-0.293-0.642-0.293-1.021C143.104,37.086,143.105,37.032,143.111,36.995z
		 M143.641,36.954c-0.011,0.046-0.014,0.116-0.014,0.21c0,0.251,0.064,0.491,0.196,0.722c0.131,0.231,0.312,0.416,0.54,0.56
		s0.48,0.218,0.761,0.222c0.251,0,0.495-0.063,0.733-0.188c0.236-0.125,0.431-0.308,0.58-0.545c0.148-0.236,0.225-0.512,0.225-0.824
		c0-0.168-0.053-0.364-0.161-0.592c-0.106-0.227-0.276-0.423-0.508-0.588c-0.231-0.166-0.521-0.25-0.869-0.25
		c-0.19,0-0.39,0.043-0.597,0.127c-0.209,0.084-0.396,0.224-0.562,0.416C143.801,36.412,143.691,36.657,143.641,36.954z"/>
	<path d="M147.841,37.197c0.005-0.305,0.063-0.582,0.179-0.834c0.115-0.254,0.271-0.469,0.465-0.646
		c0.195-0.177,0.414-0.312,0.656-0.405c0.243-0.095,0.49-0.143,0.74-0.143c0.697,0.018,1.196,0.296,1.497,0.837v-0.739h0.502v3.81
		h-0.502v-0.724c-0.144,0.256-0.351,0.453-0.62,0.595c-0.271,0.142-0.576,0.212-0.92,0.212c-0.26-0.008-0.511-0.057-0.75-0.15
		c-0.238-0.093-0.451-0.227-0.643-0.398c-0.188-0.172-0.336-0.379-0.443-0.62C147.896,37.75,147.841,37.484,147.841,37.197z
		 M148.37,37.078c0,0.313,0.067,0.59,0.206,0.831c0.138,0.241,0.318,0.426,0.545,0.555s0.465,0.196,0.718,0.202
		c0.29,0,0.554-0.07,0.789-0.21c0.233-0.14,0.418-0.323,0.552-0.551c0.133-0.229,0.199-0.464,0.199-0.708
		c0-0.271-0.064-0.52-0.193-0.747s-0.308-0.41-0.533-0.546c-0.226-0.137-0.473-0.211-0.743-0.228c-0.293,0-0.558,0.073-0.793,0.222
		c-0.235,0.146-0.419,0.328-0.55,0.549S148.37,36.878,148.37,37.078z"/>
	<path d="M152.641,36.383c-0.004-0.037-0.008-0.089-0.008-0.152c0-0.222,0.055-0.41,0.165-0.569
		c0.109-0.158,0.248-0.277,0.414-0.356c0.166-0.078,0.328-0.119,0.485-0.119c0.129,0,0.256,0.021,0.383,0.065
		c0.128,0.043,0.244,0.106,0.35,0.19c0.104,0.086,0.188,0.192,0.254,0.324c0.066,0.131,0.102,0.277,0.108,0.442h-0.522
		c-0.009-0.183-0.066-0.315-0.176-0.401c-0.107-0.084-0.238-0.127-0.395-0.127c-0.137,0-0.266,0.045-0.383,0.133
		c-0.118,0.092-0.182,0.223-0.188,0.396c0.001,0.005,0.008,0.032,0.021,0.085c0.011,0.054,0.02,0.088,0.021,0.104
		c0.036,0.125,0.155,0.229,0.359,0.313c0.203,0.085,0.408,0.166,0.615,0.244c0.207,0.077,0.383,0.191,0.523,0.342
		c0.143,0.151,0.214,0.366,0.214,0.646c0,0.047-0.005,0.115-0.015,0.207c-0.028,0.235-0.105,0.43-0.232,0.58
		c-0.126,0.151-0.275,0.263-0.445,0.33c-0.172,0.066-0.34,0.101-0.506,0.101c-0.23,0-0.437-0.052-0.617-0.157
		c-0.182-0.105-0.322-0.25-0.422-0.432c-0.102-0.184-0.151-0.385-0.151-0.607l0.519-0.015c0.006,0.219,0.079,0.396,0.221,0.53
		c0.142,0.138,0.303,0.209,0.481,0.215c0.183-0.016,0.336-0.086,0.464-0.209c0.127-0.125,0.19-0.275,0.19-0.452
		c0-0.156-0.052-0.298-0.153-0.427c-0.104-0.127-0.26-0.217-0.473-0.271c-0.291-0.077-0.539-0.188-0.746-0.327
		C152.79,36.868,152.672,36.66,152.641,36.383z"/>
	<path d="M155.729,39.077v-0.938h0.558v0.938H155.729z"/>
	<path d="M159.27,39.077v-5.151h1.352c0.404,0,0.754,0.042,1.048,0.129c0.292,0.084,0.528,0.234,0.707,0.45
		c0.179,0.214,0.28,0.507,0.306,0.875c0.006,0.033,0.008,0.08,0.008,0.14c0,0.287-0.075,0.541-0.229,0.766
		c-0.15,0.226-0.361,0.398-0.633,0.523s-0.578,0.188-0.921,0.188h-1.122v2.083L159.27,39.077L159.27,39.077z M159.783,34.384v2.152
		h1.064c0.453,0,0.786-0.104,0.998-0.313c0.211-0.209,0.318-0.49,0.318-0.844c-0.021-0.365-0.159-0.623-0.419-0.771
		c-0.261-0.148-0.615-0.224-1.063-0.224H159.783L159.783,34.384z"/>
	<path d="M163.216,39.077v-3.823h0.479v0.572c0.213-0.438,0.584-0.654,1.113-0.654v0.521c-0.119,0-0.244,0.025-0.373,0.076
		s-0.248,0.123-0.356,0.219c-0.106,0.093-0.192,0.203-0.259,0.33c-0.064,0.125-0.098,0.261-0.098,0.406v2.354L163.216,39.077
		L163.216,39.077z"/>
	<path d="M164.917,37.107c0.004-0.252,0.058-0.492,0.158-0.726c0.103-0.231,0.243-0.438,0.428-0.616
		c0.185-0.18,0.399-0.322,0.651-0.427c0.25-0.104,0.522-0.155,0.816-0.155c0.278,0,0.563,0.08,0.855,0.24
		c0.291,0.159,0.537,0.377,0.736,0.654c0.198,0.277,0.311,0.583,0.336,0.915c0,0.018,0.002,0.042,0.004,0.075
		c0.002,0.031,0.002,0.056,0.002,0.07c0,0.281-0.051,0.545-0.156,0.791c-0.105,0.244-0.252,0.459-0.439,0.646
		c-0.188,0.186-0.402,0.329-0.646,0.431c-0.241,0.104-0.496,0.152-0.762,0.152c-0.322,0-0.637-0.08-0.942-0.24
		c-0.308-0.161-0.558-0.396-0.752-0.71C165.014,37.896,164.917,37.53,164.917,37.107z M165.419,37.134
		c0,0.306,0.067,0.571,0.203,0.8c0.136,0.229,0.317,0.407,0.546,0.535c0.23,0.127,0.479,0.197,0.749,0.211
		c0.226,0,0.451-0.062,0.675-0.183c0.227-0.121,0.412-0.299,0.559-0.533c0.147-0.235,0.222-0.512,0.222-0.83
		c0-0.186-0.039-0.364-0.115-0.54c-0.077-0.174-0.184-0.33-0.319-0.469c-0.135-0.139-0.291-0.247-0.472-0.326
		c-0.178-0.08-0.36-0.121-0.549-0.121c-0.256,0.008-0.498,0.072-0.726,0.197c-0.229,0.126-0.412,0.3-0.553,0.52
		C165.496,36.613,165.423,36.859,165.419,37.134z"/>
	<path d="M169.82,39.077v-3.345h-0.801v-0.465h0.801v-1.343h0.515v1.343h0.883v0.465h-0.883v3.345H169.82z"/>
	<path d="M171.352,37.148c0.01-0.306,0.068-0.58,0.181-0.823c0.112-0.244,0.263-0.451,0.45-0.623
		c0.189-0.173,0.399-0.302,0.631-0.392c0.23-0.09,0.468-0.137,0.71-0.141c0.325,0,0.641,0.08,0.944,0.237
		c0.306,0.157,0.556,0.396,0.75,0.713c0.194,0.315,0.291,0.692,0.291,1.132v0.098h-3.439c0.021,0.282,0.107,0.522,0.26,0.723
		c0.15,0.199,0.334,0.348,0.548,0.445c0.216,0.1,0.427,0.147,0.634,0.147c0.186,0,0.371-0.037,0.56-0.11
		c0.188-0.074,0.354-0.175,0.499-0.304c0.146-0.129,0.247-0.271,0.307-0.428h0.529c-0.107,0.292-0.262,0.54-0.467,0.741
		c-0.204,0.203-0.434,0.353-0.688,0.449c-0.253,0.098-0.51,0.146-0.768,0.146c-0.34-0.015-0.656-0.104-0.951-0.271
		c-0.296-0.168-0.532-0.402-0.711-0.703C171.441,37.883,171.352,37.539,171.352,37.148z M174.807,36.893
		c-0.043-0.221-0.134-0.425-0.271-0.61c-0.139-0.188-0.313-0.337-0.521-0.448s-0.436-0.168-0.679-0.168
		c-0.326,0-0.599,0.077-0.813,0.232c-0.217,0.153-0.375,0.326-0.479,0.518c-0.102,0.191-0.161,0.35-0.177,0.477H174.807
		L174.807,36.893z"/>
	<path d="M175.802,37.163c0-0.397,0.093-0.749,0.28-1.049c0.186-0.302,0.425-0.531,0.715-0.692c0.291-0.162,0.59-0.245,0.893-0.251
		c0.231,0,0.453,0.034,0.662,0.104c0.209,0.067,0.394,0.168,0.555,0.297c0.16,0.13,0.281,0.279,0.363,0.449v-0.769h0.488v3.495
		c0,0.292-0.051,0.551-0.152,0.773c-0.102,0.226-0.238,0.412-0.414,0.562s-0.377,0.261-0.604,0.336
		c-0.227,0.074-0.461,0.112-0.703,0.112c-0.218,0-0.431-0.03-0.639-0.09c-0.209-0.06-0.4-0.146-0.576-0.262
		s-0.327-0.261-0.453-0.433c-0.128-0.173-0.22-0.369-0.273-0.59h0.5c0.125,0.293,0.316,0.517,0.574,0.669s0.537,0.229,0.838,0.229
		c0.25,0,0.482-0.052,0.699-0.154c0.215-0.104,0.389-0.256,0.521-0.457c0.13-0.201,0.196-0.438,0.196-0.711v-0.416
		c-0.303,0.562-0.797,0.842-1.484,0.842c-0.236,0-0.473-0.044-0.708-0.131c-0.235-0.088-0.449-0.217-0.64-0.389
		c-0.191-0.172-0.346-0.384-0.459-0.636C175.863,37.755,175.807,37.475,175.802,37.163z M176.316,37.064
		c0,0.318,0.065,0.601,0.195,0.842c0.131,0.24,0.309,0.427,0.528,0.557c0.222,0.129,0.465,0.196,0.729,0.203
		c0.211,0,0.433-0.055,0.666-0.163c0.23-0.108,0.43-0.28,0.59-0.517c0.162-0.234,0.244-0.528,0.244-0.879
		c0-0.178-0.041-0.354-0.121-0.526c-0.078-0.173-0.188-0.327-0.33-0.462c-0.139-0.137-0.305-0.243-0.492-0.321
		c-0.188-0.079-0.387-0.118-0.596-0.118c-0.363,0.01-0.65,0.104-0.86,0.285s-0.354,0.379-0.435,0.594
		C176.355,36.771,176.316,36.941,176.316,37.064z"/>
</g>
<path d="M180.547,37.148c0.009-0.306,0.068-0.58,0.18-0.823c0.112-0.244,0.264-0.451,0.451-0.623
	c0.189-0.173,0.398-0.302,0.63-0.392c0.229-0.09,0.468-0.137,0.71-0.141c0.325,0,0.641,0.08,0.945,0.237s0.555,0.396,0.749,0.713
	c0.194,0.315,0.291,0.692,0.291,1.132v0.098h-3.439c0.022,0.282,0.108,0.522,0.261,0.723c0.149,0.199,0.332,0.348,0.547,0.445
	c0.217,0.1,0.427,0.147,0.635,0.147c0.184,0,0.369-0.037,0.559-0.11c0.188-0.074,0.354-0.175,0.499-0.304
	c0.146-0.129,0.246-0.271,0.308-0.428h0.529c-0.107,0.292-0.264,0.54-0.468,0.741c-0.204,0.203-0.435,0.353-0.687,0.449
	c-0.254,0.098-0.51,0.146-0.77,0.146c-0.339-0.015-0.654-0.104-0.951-0.271c-0.295-0.168-0.531-0.402-0.711-0.703
	C180.637,37.885,180.547,37.539,180.547,37.148z M184,36.893c-0.041-0.221-0.133-0.425-0.271-0.61
	c-0.139-0.188-0.312-0.337-0.521-0.448s-0.437-0.168-0.68-0.168c-0.326,0-0.598,0.077-0.814,0.232
	c-0.215,0.153-0.374,0.326-0.477,0.518s-0.162,0.35-0.178,0.477H184L184,36.893z"/>
<path d="M185.176,35.27h0.488v0.517c0.091-0.19,0.229-0.338,0.41-0.443c0.186-0.104,0.387-0.157,0.605-0.157
	c0.268,0,0.521,0.064,0.762,0.192c0.242,0.128,0.434,0.306,0.575,0.531c0.136-0.232,0.313-0.408,0.532-0.529
	c0.218-0.12,0.447-0.18,0.686-0.18c0.203,0,0.4,0.036,0.592,0.11c0.193,0.072,0.363,0.176,0.514,0.309
	c0.15,0.132,0.27,0.292,0.355,0.479c0.088,0.186,0.133,0.385,0.133,0.6v2.382h-0.5v-2.3c0-0.229-0.051-0.426-0.151-0.59
	s-0.231-0.287-0.396-0.371c-0.166-0.082-0.343-0.125-0.533-0.125c-0.17,0-0.33,0.037-0.48,0.111
	c-0.148,0.073-0.27,0.186-0.357,0.331c-0.09,0.146-0.133,0.319-0.133,0.521v2.423h-0.531V36.74c0-0.213-0.049-0.398-0.152-0.559
	c-0.104-0.158-0.237-0.279-0.404-0.361c-0.167-0.084-0.346-0.127-0.535-0.127c-0.174,0-0.334,0.039-0.479,0.115
	c-0.146,0.076-0.264,0.192-0.352,0.349c-0.088,0.155-0.131,0.345-0.131,0.569v2.353h-0.516v-3.81H185.176z"/>
<path d="M191.5,37.107c0.006-0.252,0.058-0.492,0.158-0.726c0.104-0.231,0.246-0.438,0.429-0.616
	c0.184-0.181,0.399-0.322,0.651-0.427s0.522-0.155,0.815-0.155c0.278,0,0.563,0.08,0.856,0.24c0.291,0.159,0.537,0.377,0.735,0.654
	c0.199,0.277,0.312,0.583,0.337,0.915c0,0.018,0.002,0.042,0.004,0.075c0.002,0.031,0.002,0.056,0.002,0.07
	c0,0.281-0.052,0.545-0.156,0.791c-0.105,0.244-0.252,0.459-0.44,0.646c-0.188,0.186-0.401,0.329-0.646,0.431
	c-0.241,0.104-0.496,0.152-0.762,0.152c-0.322,0-0.637-0.08-0.943-0.24c-0.307-0.161-0.557-0.396-0.75-0.71
	C191.598,37.896,191.5,37.53,191.5,37.107z M192.002,37.134c0,0.306,0.068,0.571,0.205,0.8c0.135,0.229,0.315,0.407,0.545,0.535
	c0.229,0.127,0.479,0.197,0.748,0.211c0.227,0,0.451-0.062,0.677-0.183s0.411-0.299,0.558-0.533c0.147-0.235,0.221-0.512,0.221-0.83
	c0-0.186-0.037-0.364-0.114-0.54c-0.077-0.174-0.185-0.33-0.319-0.469s-0.292-0.247-0.471-0.326
	c-0.178-0.08-0.361-0.121-0.551-0.121c-0.256,0.008-0.498,0.072-0.726,0.197c-0.229,0.126-0.411,0.3-0.554,0.52
	C192.08,36.613,192.007,36.859,192.002,37.134z"/>
<path d="M196,36.383c-0.006-0.037-0.008-0.089-0.008-0.152c0-0.222,0.056-0.41,0.166-0.569c0.108-0.158,0.248-0.277,0.414-0.356
	c0.166-0.078,0.327-0.119,0.485-0.119c0.127,0,0.255,0.021,0.382,0.065c0.127,0.043,0.243,0.106,0.348,0.19
	c0.105,0.086,0.19,0.192,0.256,0.324c0.064,0.131,0.102,0.277,0.109,0.442h-0.522c-0.009-0.183-0.068-0.315-0.177-0.401
	c-0.107-0.084-0.239-0.127-0.395-0.127c-0.138,0-0.266,0.045-0.383,0.133c-0.118,0.092-0.182,0.223-0.189,0.396
	c0.002,0.005,0.01,0.032,0.021,0.085c0.011,0.054,0.02,0.088,0.021,0.104c0.035,0.125,0.155,0.229,0.358,0.313
	c0.204,0.085,0.409,0.166,0.616,0.244c0.207,0.077,0.382,0.191,0.523,0.342c0.144,0.151,0.215,0.366,0.215,0.646
	c0,0.047-0.006,0.115-0.016,0.207c-0.027,0.235-0.105,0.43-0.232,0.58c-0.125,0.151-0.274,0.263-0.445,0.33
	c-0.172,0.066-0.342,0.101-0.506,0.101c-0.23,0-0.437-0.052-0.617-0.157c-0.182-0.105-0.322-0.25-0.424-0.432
	c-0.1-0.184-0.149-0.385-0.149-0.607l0.517-0.015c0.008,0.219,0.08,0.396,0.223,0.53c0.141,0.138,0.302,0.209,0.48,0.215
	c0.184-0.016,0.336-0.086,0.465-0.209c0.127-0.125,0.189-0.275,0.189-0.452c0-0.156-0.05-0.298-0.152-0.427
	c-0.104-0.127-0.261-0.217-0.474-0.271c-0.291-0.077-0.539-0.188-0.745-0.327C196.15,36.868,196.033,36.66,196,36.383z"/>
<path d="M200.513,37.197c0.004-0.305,0.063-0.582,0.179-0.834c0.115-0.254,0.271-0.469,0.465-0.646
	c0.195-0.177,0.414-0.312,0.656-0.405c0.243-0.095,0.489-0.143,0.74-0.143c0.695,0.018,1.195,0.296,1.497,0.837v-0.739h0.502v3.81
	h-0.502v-0.724c-0.144,0.256-0.351,0.453-0.62,0.595c-0.271,0.142-0.577,0.212-0.92,0.212c-0.26-0.008-0.512-0.057-0.749-0.15
	c-0.24-0.094-0.453-0.227-0.644-0.398c-0.188-0.172-0.336-0.379-0.443-0.62S200.513,37.484,200.513,37.197z M201.041,37.078
	c0,0.313,0.07,0.59,0.207,0.831c0.138,0.241,0.318,0.426,0.545,0.555c0.226,0.129,0.465,0.196,0.718,0.202
	c0.29,0,0.554-0.07,0.789-0.21c0.233-0.14,0.418-0.323,0.551-0.551c0.134-0.229,0.199-0.464,0.199-0.708
	c0-0.271-0.063-0.52-0.192-0.747c-0.131-0.228-0.309-0.41-0.533-0.546c-0.227-0.137-0.475-0.211-0.742-0.228
	c-0.295,0-0.56,0.073-0.795,0.222c-0.235,0.146-0.418,0.328-0.549,0.549C201.106,36.668,201.041,36.878,201.041,37.078z"/>
<path d="M207.218,39.077v-5.151h0.517v5.151H207.218z"/>
<path d="M208.427,37.197c0.004-0.305,0.063-0.582,0.179-0.834c0.115-0.254,0.271-0.469,0.465-0.646
	c0.194-0.177,0.412-0.312,0.655-0.405c0.244-0.095,0.49-0.143,0.741-0.143c0.695,0.018,1.195,0.296,1.497,0.837v-0.739h0.502v3.81
	h-0.502v-0.724c-0.144,0.256-0.351,0.453-0.62,0.595c-0.271,0.142-0.577,0.212-0.921,0.212c-0.261-0.008-0.511-0.057-0.749-0.15
	c-0.239-0.093-0.452-0.227-0.643-0.398c-0.188-0.172-0.336-0.379-0.443-0.62S208.427,37.484,208.427,37.197z M208.955,37.078
	c0,0.313,0.068,0.59,0.207,0.831c0.138,0.241,0.318,0.426,0.545,0.555c0.226,0.129,0.465,0.196,0.717,0.202
	c0.291,0,0.555-0.07,0.79-0.21c0.233-0.14,0.418-0.323,0.551-0.551c0.133-0.229,0.199-0.464,0.199-0.708
	c0-0.271-0.064-0.52-0.193-0.747c-0.13-0.228-0.308-0.41-0.532-0.546c-0.227-0.137-0.475-0.211-0.742-0.228
	c-0.295,0-0.56,0.073-0.795,0.222c-0.235,0.146-0.42,0.328-0.549,0.549C209.021,36.668,208.955,36.878,208.955,37.078z"/>
<path d="M214.992,37.163c0-0.397,0.094-0.749,0.28-1.049c0.187-0.302,0.425-0.531,0.716-0.692c0.289-0.162,0.588-0.245,0.892-0.251
	c0.231,0,0.452,0.034,0.661,0.104c0.211,0.067,0.395,0.168,0.555,0.297c0.161,0.13,0.281,0.279,0.365,0.449v-0.769h0.486v3.495
	c0,0.292-0.05,0.551-0.15,0.773c-0.102,0.226-0.24,0.412-0.416,0.562s-0.376,0.261-0.602,0.336
	c-0.228,0.074-0.461,0.112-0.703,0.112c-0.219,0-0.432-0.03-0.641-0.09c-0.208-0.06-0.4-0.146-0.574-0.262
	c-0.177-0.115-0.328-0.261-0.455-0.433c-0.127-0.173-0.219-0.369-0.273-0.59h0.502c0.125,0.293,0.314,0.517,0.572,0.669
	c0.26,0.152,0.539,0.229,0.84,0.229c0.25,0,0.482-0.052,0.697-0.154c0.215-0.104,0.391-0.256,0.521-0.457
	c0.131-0.201,0.196-0.438,0.196-0.711v-0.416c-0.303,0.562-0.795,0.842-1.483,0.842c-0.237,0-0.473-0.044-0.708-0.131
	c-0.234-0.088-0.449-0.217-0.64-0.389c-0.192-0.172-0.345-0.384-0.46-0.636C215.056,37.755,214.996,37.475,214.992,37.163z
	 M215.508,37.064c0,0.318,0.066,0.601,0.195,0.842c0.131,0.24,0.309,0.427,0.528,0.557c0.222,0.129,0.466,0.196,0.73,0.203
	c0.21,0,0.432-0.055,0.665-0.163c0.23-0.108,0.429-0.28,0.591-0.517c0.162-0.234,0.241-0.528,0.241-0.879
	c0-0.178-0.038-0.354-0.118-0.526c-0.079-0.173-0.188-0.327-0.33-0.462c-0.14-0.137-0.304-0.243-0.493-0.321
	c-0.188-0.079-0.387-0.118-0.596-0.118c-0.363,0.01-0.65,0.104-0.86,0.285c-0.211,0.182-0.354,0.379-0.435,0.594
	C215.548,36.771,215.508,36.941,215.508,37.064z"/>
<path d="M219.65,37.148c0.008-0.306,0.067-0.58,0.178-0.823c0.112-0.244,0.264-0.451,0.453-0.623
	c0.188-0.173,0.397-0.302,0.629-0.392c0.23-0.09,0.469-0.137,0.711-0.141c0.324,0,0.641,0.08,0.944,0.237
	c0.306,0.157,0.554,0.396,0.748,0.713c0.195,0.315,0.292,0.692,0.292,1.132v0.098h-3.439c0.022,0.282,0.109,0.522,0.26,0.723
	c0.15,0.199,0.334,0.348,0.549,0.445c0.215,0.099,0.428,0.147,0.633,0.147c0.186,0,0.371-0.037,0.559-0.11
	c0.189-0.074,0.355-0.175,0.5-0.304c0.146-0.129,0.246-0.271,0.308-0.428h0.528c-0.106,0.292-0.264,0.54-0.467,0.741
	c-0.205,0.203-0.434,0.353-0.688,0.449c-0.253,0.098-0.509,0.146-0.768,0.146c-0.34-0.015-0.655-0.104-0.951-0.271
	c-0.295-0.169-0.532-0.402-0.711-0.703C219.74,37.885,219.65,37.539,219.65,37.148z M223.104,36.893
	c-0.044-0.221-0.134-0.425-0.271-0.61c-0.139-0.188-0.312-0.337-0.521-0.448c-0.209-0.111-0.435-0.168-0.679-0.168
	c-0.326,0-0.599,0.077-0.813,0.232c-0.217,0.153-0.375,0.326-0.478,0.518s-0.161,0.35-0.177,0.477H223.104L223.104,36.893z"/>
<path d="M224.279,39.077v-3.81h0.488v0.571c0.125-0.211,0.296-0.371,0.514-0.485c0.219-0.112,0.45-0.17,0.695-0.17
	c0.215,0,0.421,0.039,0.621,0.116c0.199,0.076,0.378,0.188,0.534,0.336c0.157,0.147,0.282,0.331,0.377,0.552
	c0.093,0.22,0.142,0.465,0.142,0.736v2.152h-0.502v-2.152c0-0.263-0.057-0.486-0.17-0.674c-0.113-0.186-0.262-0.325-0.443-0.419
	c-0.184-0.093-0.379-0.14-0.586-0.14c-0.203,0-0.393,0.045-0.567,0.134c-0.177,0.09-0.317,0.223-0.427,0.399
	c-0.108,0.176-0.162,0.39-0.162,0.637v2.215L224.279,39.077L224.279,39.077z"/>
<path d="M228.771,39.077v-3.345h-0.801v-0.465h0.801v-1.343h0.516v1.343h0.885v0.465h-0.885v3.345H228.771z"/>
<path d="M230.304,37.148c0.009-0.306,0.067-0.58,0.181-0.823c0.11-0.244,0.262-0.451,0.45-0.623c0.188-0.173,0.399-0.302,0.63-0.392
	s0.467-0.137,0.711-0.141c0.324,0,0.641,0.08,0.944,0.237c0.306,0.157,0.556,0.396,0.749,0.713c0.195,0.315,0.291,0.692,0.291,1.132
	v0.098h-3.439c0.022,0.282,0.108,0.522,0.26,0.723c0.15,0.199,0.334,0.348,0.549,0.445c0.216,0.1,0.426,0.147,0.633,0.147
	c0.186,0,0.371-0.037,0.561-0.11c0.188-0.074,0.354-0.175,0.498-0.304c0.146-0.129,0.248-0.271,0.307-0.428h0.529
	c-0.106,0.292-0.263,0.54-0.467,0.741c-0.205,0.203-0.434,0.353-0.687,0.449c-0.255,0.098-0.511,0.146-0.769,0.146
	c-0.34-0.015-0.656-0.104-0.951-0.271c-0.295-0.168-0.531-0.402-0.711-0.703C230.394,37.885,230.304,37.539,230.304,37.148z
	 M233.758,36.893c-0.043-0.221-0.133-0.425-0.271-0.61c-0.139-0.188-0.312-0.337-0.521-0.448c-0.21-0.111-0.437-0.168-0.679-0.168
	c-0.326,0-0.599,0.077-0.815,0.232c-0.215,0.153-0.374,0.326-0.478,0.518c-0.102,0.191-0.16,0.35-0.176,0.477H233.758
	L233.758,36.893z"/>
<path d="M235.387,34.344h-0.934v-0.418h2.375v0.418H235.9v2.52h-0.515L235.387,34.344L235.387,34.344z M237.35,36.861v-2.938h0.745
	l0.844,2.066l0.87-2.066h0.744v2.938h-0.459v-2.519l-1.016,2.519h-0.271l-0.997-2.519v2.519H237.35z"/>
</svg>
