<?xml version="1.0" encoding="utf-8"?>
<!-- Generator: Adobe Illustrator 15.1.0, SVG Export Plug-In . SVG Version: 6.00 Build 0)  -->
<!DOCTYPE svg PUBLIC "-//W3C//DTD SVG 1.1//EN" "http://www.w3.org/Graphics/SVG/1.1/DTD/svg11.dtd">
<svg version="1.1" id="Layer_1" xmlns="http://www.w3.org/2000/svg" xmlns:xlink="http://www.w3.org/1999/xlink" x="0px" y="0px"
	 width="550.239px" height="74.334px" viewBox="0 0 550.239 74.334" enable-background="new 0 0 550.239 74.334"
	 xml:space="preserve">
<g>
	<g>
		<g>
			<path fill="#FFFFFF" d="M0.717,0h118.497v72.457H0.717V0z"/>
		</g>
		<g>
			<path fill="#105EAB" d="M1.881,1.185h116.168v70.017H1.881V1.185z"/>
		</g>
		<polygon fill="#FFFFFF" points="49.569,71.187 118.024,1.837 118.024,1.144 117.681,1.144 48.545,71.187 		"/>
		<polygon fill="#FFFFFF" points="6.407,71.187 11.035,1.144 10.307,1.144 5.679,71.187 		"/>
		<polygon fill="#FFFFFF" points="10.109,71.187 20.104,1.144 19.364,1.144 9.375,71.187 		"/>
		<polygon fill="#FFFFFF" points="14.07,71.187 29.704,1.144 28.963,1.144 13.323,71.187 		"/>
		<polygon fill="#FFFFFF" points="18.419,71.187 40.734,1.144 39.983,1.144 17.661,71.187 		"/>
		<polygon fill="#FFFFFF" points="22.523,71.187 51.191,1.144 50.403,1.144 21.732,71.187 		"/>
		<polygon fill="#FFFFFF" points="27.242,71.187 63.099,1.144 62.297,1.144 26.421,71.187 		"/>
		<polygon fill="#FFFFFF" points="81.015,1.144 80.145,1.144 33.721,71.187 34.589,71.187 		"/>
		<polygon fill="#FFFFFF" points="97.569,1.144 96.654,1.144 40.217,71.187 41.148,71.187 		"/>
		<polygon fill="#FFFFFF" points="118.024,27.647 118.024,26.727 62.062,71.187 63.215,71.187 		"/>
		<polygon fill="#FFFFFF" points="118.024,46.915 118.024,46.06 77.82,71.187 79.195,71.187 		"/>
		<polygon fill="#FFFFFF" points="118.024,65.093 118.024,64.286 103.23,71.187 104.946,71.187 		"/>
		<path fill="#FFFFFF" d="M36.555,43.255c-1.438,1.375-5.05,2.862-7.703,2.835c-7.718-0.008-11.324-6.567-11.388-16.587
			c0.051-9.482,3.943-15.514,10.627-15.527c4.78,0.007,7.104,2.777,8.374,4.432l1.398,1.86V11.65l-0.447-0.207
			c-2.755-1.28-6.254-1.88-9.442-1.887c-12,0.027-21.158,8.629-21.177,20.771c0.019,12.456,8.675,20.276,21.072,20.296h0.064
			c6.155,0,9.313-1.857,10.979-3.136l0.493-0.376l-2.054-4.607L36.555,43.255z M70.181,14.038
			c-4.016-2.947-9.044-3.818-13.334-3.818H42.191v39.699h15.61c7.572-0.017,19.27-4.82,19.289-19.959
			C77.103,22.034,74.21,16.983,70.181,14.038z M51.831,45.313v-30.61c7.088,0.189,14.633,1.052,14.767,15.418
			C66.483,44.073,58.765,45.122,51.831,45.313z M110.523,42.507l-0.796,0.748c-1.438,1.378-5.041,2.861-7.69,2.834
			c-7.718,0-11.328-6.566-11.392-16.582c0.052-9.488,3.949-15.518,10.643-15.531c4.771,0.007,7.101,2.779,8.346,4.433l1.404,1.886
			v-8.641l-0.445-0.209c-2.741-1.285-6.239-1.879-9.441-1.885C89.155,9.585,80.019,18.187,80,30.331
			c0.019,12.458,8.653,20.273,21.06,20.297h0.096c6.136,0,9.279-1.861,10.947-3.136l0.493-0.378L110.523,42.507z"/>
		<path fill="#0033A0" d="M120.117,69.245h1.401v0.207h-0.587v1.505h-0.222v-1.505h-0.593V69.245z"/>
		<path fill="#0033A0" d="M123.146,70.952v-1.024c0-0.038,0-0.258,0-0.423l0,0l-0.487,1.443h-0.229l-0.481-1.443h-0.006
			c0,0.162,0.006,0.385,0.006,0.423v1.024h-0.228v-1.711h0.326l0.5,1.447h0.006l0.48-1.447h0.334v1.711H123.146z"/>
	</g>
	<g>
		<path d="M128.851,48.617c0.11-0.986,0.445-1.853,1.004-2.604c0.561-0.752,1.259-1.33,2.097-1.731
			c0.837-0.404,1.716-0.606,2.636-0.606c0.502,0,0.994,0.062,1.474,0.184s0.94,0.308,1.377,0.556s0.845,0.561,1.222,0.938
			c0.376,0.377,0.708,0.822,0.993,1.335h-1.229c-0.32-0.42-0.687-0.771-1.101-1.062c-0.415-0.287-0.85-0.499-1.306-0.637
			c-0.456-0.137-0.913-0.205-1.369-0.205c-0.61,0-1.198,0.111-1.765,0.33c-0.567,0.221-1.073,0.534-1.518,0.945
			c-0.445,0.413-0.797,0.908-1.053,1.485c-0.257,0.577-0.386,1.209-0.386,1.897c0.009,0.886,0.234,1.68,0.675,2.387
			c0.44,0.706,1.018,1.255,1.736,1.648c0.718,0.393,1.477,0.596,2.279,0.609c0.471-0.014,0.939-0.093,1.405-0.242
			c0.466-0.15,0.908-0.373,1.328-0.67c0.419-0.299,0.792-0.675,1.12-1.129h1.229c-0.402,0.691-0.873,1.267-1.412,1.724
			c-0.54,0.458-1.119,0.798-1.74,1.021c-0.621,0.22-1.264,0.33-1.93,0.33c-0.733,0-1.449-0.137-2.145-0.408
			s-1.322-0.662-1.877-1.172c-0.555-0.508-0.992-1.121-1.311-1.836c-0.32-0.715-0.479-1.493-0.479-2.338
			C128.804,49.114,128.82,48.864,128.851,48.617z"/>
		<path d="M140.883,50.79c0.017-0.658,0.146-1.246,0.386-1.771c0.24-0.526,0.563-0.971,0.972-1.341
			c0.407-0.369,0.859-0.65,1.355-0.844c0.496-0.19,1.005-0.291,1.527-0.299c0.699,0,1.378,0.17,2.034,0.512
			c0.657,0.338,1.193,0.852,1.612,1.533s0.628,1.493,0.628,2.438v0.209h-7.404c0.048,0.607,0.235,1.125,0.56,1.551
			c0.324,0.428,0.717,0.748,1.18,0.963c0.463,0.213,0.917,0.318,1.363,0.318c0.397,0,0.799-0.08,1.204-0.238
			c0.405-0.158,0.763-0.376,1.074-0.652c0.311-0.277,0.531-0.584,0.66-0.922h1.137c-0.229,0.628-0.564,1.163-1.004,1.598
			c-0.441,0.436-0.933,0.758-1.478,0.967c-0.545,0.207-1.095,0.312-1.652,0.312c-0.729-0.029-1.411-0.223-2.047-0.584
			c-0.635-0.358-1.145-0.864-1.529-1.512C141.076,52.378,140.883,51.634,140.883,50.79z M148.316,50.239
			c-0.092-0.473-0.288-0.911-0.583-1.313c-0.296-0.401-0.669-0.725-1.12-0.965s-0.937-0.358-1.461-0.358
			c-0.702,0-1.286,0.166-1.752,0.499c-0.466,0.331-0.808,0.703-1.028,1.114c-0.22,0.413-0.346,0.754-0.38,1.023H148.316
			L148.316,50.239z"/>
		<path d="M150.977,54.942v-8.196h1.05v1.229c0.271-0.451,0.641-0.799,1.108-1.041c0.469-0.244,0.968-0.367,1.497-0.367
			c0.461,0,0.906,0.085,1.336,0.25c0.429,0.166,0.813,0.408,1.152,0.726c0.34,0.317,0.609,0.713,0.811,1.185
			c0.201,0.473,0.302,1.002,0.302,1.587v4.632h-1.08v-4.632c0-0.563-0.121-1.048-0.364-1.448c-0.243-0.402-0.561-0.701-0.955-0.901
			c-0.393-0.198-0.814-0.3-1.26-0.3c-0.437,0-0.844,0.095-1.222,0.289c-0.378,0.19-0.683,0.478-0.917,0.86
			c-0.233,0.382-0.349,0.837-0.349,1.37v4.768h-1.11V54.942L150.977,54.942z"/>
		<path d="M160.776,54.942v-7.195h-1.723v-1.001h1.723v-2.892h1.108v2.892h1.902v1.001h-1.902v7.195H160.776z"/>
		<path d="M164.934,54.942v-8.227h1.036v1.23c0.456-0.939,1.255-1.409,2.396-1.409v1.124c-0.258,0-0.526,0.054-0.805,0.164
			c-0.277,0.109-0.533,0.266-0.766,0.469c-0.233,0.201-0.418,0.438-0.558,0.709c-0.139,0.271-0.208,0.562-0.208,0.878v5.063
			L164.934,54.942L164.934,54.942z"/>
		<path d="M168.727,50.703c0.008-0.539,0.121-1.059,0.34-1.559c0.22-0.499,0.526-0.943,0.92-1.33
			c0.394-0.388,0.861-0.692,1.401-0.914c0.54-0.223,1.125-0.335,1.758-0.335c0.6,0,1.213,0.172,1.841,0.516
			c0.628,0.346,1.157,0.814,1.586,1.41c0.429,0.596,0.671,1.254,0.725,1.971c0,0.036,0.002,0.088,0.007,0.16
			c0.005,0.069,0.007,0.12,0.007,0.152c0,0.604-0.114,1.17-0.34,1.699c-0.227,0.527-0.542,0.992-0.948,1.39
			c-0.405,0.399-0.867,0.708-1.389,0.928c-0.521,0.22-1.067,0.329-1.641,0.329c-0.693,0-1.369-0.174-2.028-0.52
			c-0.66-0.348-1.198-0.856-1.615-1.527C168.935,52.403,168.727,51.612,168.727,50.703z M169.806,50.759
			c0,0.656,0.146,1.23,0.438,1.723c0.291,0.491,0.683,0.874,1.176,1.148c0.493,0.275,1.03,0.426,1.61,0.457
			c0.485,0,0.97-0.131,1.454-0.391c0.484-0.261,0.885-0.645,1.202-1.15c0.317-0.504,0.476-1.102,0.476-1.783
			c0-0.398-0.083-0.785-0.248-1.162c-0.167-0.377-0.396-0.713-0.688-1.008c-0.293-0.297-0.63-0.531-1.014-0.703
			c-0.382-0.172-0.776-0.256-1.181-0.256c-0.552,0.014-1.072,0.152-1.562,0.424c-0.49,0.271-0.887,0.643-1.191,1.115
			C169.972,49.642,169.815,50.173,169.806,50.759z"/>
		<path d="M178.54,49.145c-0.009-0.082-0.014-0.188-0.014-0.329c0-0.475,0.118-0.883,0.355-1.225
			c0.237-0.343,0.534-0.598,0.891-0.768c0.357-0.171,0.706-0.256,1.046-0.256c0.275,0,0.55,0.049,0.823,0.14
			c0.273,0.093,0.523,0.229,0.749,0.415c0.226,0.184,0.409,0.414,0.549,0.695c0.14,0.28,0.218,0.596,0.232,0.955h-1.123
			c-0.02-0.391-0.146-0.682-0.378-0.867c-0.233-0.182-0.517-0.273-0.851-0.273c-0.295,0-0.569,0.096-0.823,0.289
			c-0.254,0.191-0.389,0.475-0.406,0.849c0.002,0.01,0.017,0.071,0.042,0.185c0.026,0.115,0.042,0.188,0.05,0.221
			c0.075,0.271,0.333,0.497,0.771,0.68c0.439,0.182,0.881,0.356,1.326,0.523c0.445,0.169,0.821,0.412,1.128,0.736
			c0.307,0.323,0.461,0.786,0.461,1.387c0,0.103-0.011,0.252-0.033,0.449c-0.061,0.506-0.228,0.922-0.5,1.248
			c-0.272,0.327-0.593,0.562-0.961,0.708s-0.73,0.218-1.087,0.218c-0.495,0-0.938-0.113-1.329-0.34s-0.694-0.537-0.91-0.93
			c-0.216-0.393-0.324-0.828-0.324-1.307l1.111-0.033c0.015,0.469,0.174,0.853,0.478,1.144c0.304,0.293,0.649,0.448,1.038,0.458
			c0.39-0.033,0.722-0.184,0.997-0.451c0.273-0.268,0.411-0.592,0.411-0.969c0-0.337-0.11-0.643-0.331-0.917
			c-0.221-0.276-0.561-0.468-1.019-0.585c-0.625-0.169-1.16-0.404-1.603-0.704C178.864,50.188,178.608,49.738,178.54,49.145z"/>
		<path d="M188.93,57.804V46.716h1.061v1.472c0.246-0.358,0.534-0.659,0.862-0.899c0.328-0.244,0.684-0.424,1.069-0.549
			c0.384-0.122,0.784-0.189,1.201-0.203c0.557,0,1.101,0.1,1.631,0.299c0.531,0.198,1.009,0.479,1.432,0.843
			c0.422,0.362,0.761,0.798,1.016,1.307c0.254,0.511,0.388,1.062,0.402,1.653c0,0.656-0.111,1.256-0.333,1.797
			c-0.222,0.541-0.536,1.014-0.941,1.413c-0.407,0.402-0.873,0.71-1.398,0.927c-0.526,0.215-1.088,0.33-1.688,0.346
			c-0.717,0-1.362-0.154-1.937-0.463c-0.575-0.309-0.993-0.736-1.253-1.29v4.435L188.93,57.804L188.93,57.804z M189.96,50.896
			c0.013,0.486,0.135,0.967,0.369,1.442c0.233,0.476,0.597,0.878,1.091,1.204c0.496,0.326,1.107,0.498,1.836,0.516
			c0.556,0,1.081-0.138,1.573-0.415c0.492-0.275,0.886-0.659,1.18-1.149c0.294-0.489,0.441-1.038,0.441-1.641
			c0-0.572-0.145-1.104-0.432-1.598c-0.288-0.492-0.684-0.889-1.188-1.184c-0.504-0.293-1.065-0.442-1.68-0.442
			c-0.636,0.021-1.197,0.187-1.683,0.493c-0.485,0.306-0.857,0.709-1.117,1.205C190.091,49.824,189.96,50.347,189.96,50.896z"/>
		<path d="M198.762,50.896c0.007-0.652,0.136-1.251,0.385-1.795c0.249-0.544,0.582-1.006,1.001-1.387
			c0.419-0.38,0.889-0.672,1.412-0.874s1.054-0.303,1.593-0.303c1.5,0.037,2.575,0.636,3.223,1.8v-1.591h1.079v8.196h-1.079v-1.558
			c-0.307,0.552-0.752,0.978-1.335,1.282c-0.583,0.303-1.243,0.455-1.98,0.455c-0.561-0.015-1.099-0.121-1.611-0.323
			c-0.515-0.2-0.976-0.487-1.381-0.857c-0.406-0.37-0.725-0.815-0.957-1.337C198.879,52.086,198.762,51.517,198.762,50.896z
			 M199.9,50.641c0,0.674,0.148,1.271,0.445,1.787c0.296,0.519,0.687,0.917,1.172,1.194s1,0.424,1.543,0.436
			c0.628,0,1.193-0.151,1.698-0.453c0.505-0.301,0.9-0.696,1.187-1.186c0.288-0.49,0.43-0.998,0.43-1.523
			c0-0.58-0.138-1.114-0.417-1.605c-0.278-0.492-0.662-0.883-1.146-1.175c-0.487-0.294-1.02-0.458-1.601-0.486
			c-0.632,0-1.202,0.156-1.709,0.47c-0.508,0.316-0.9,0.709-1.182,1.183C200.039,49.756,199.9,50.211,199.9,50.641z"/>
		<path d="M209.497,54.942v-8.227h1.035v1.23c0.457-0.939,1.255-1.409,2.396-1.409v1.124c-0.259,0-0.526,0.054-0.805,0.164
			c-0.278,0.109-0.534,0.266-0.766,0.469c-0.232,0.201-0.419,0.438-0.559,0.709c-0.139,0.271-0.208,0.562-0.208,0.878v5.063
			L209.497,54.942L209.497,54.942z"/>
		<path d="M213.267,50.896c0.008-0.652,0.137-1.251,0.385-1.795c0.25-0.544,0.582-1.006,1.002-1.387
			c0.418-0.38,0.889-0.672,1.411-0.874c0.523-0.202,1.054-0.303,1.593-0.303c1.501,0.037,2.574,0.636,3.223,1.8v-1.591h1.08v8.196
			h-1.08v-1.558c-0.307,0.552-0.752,0.978-1.334,1.282c-0.584,0.303-1.243,0.455-1.98,0.455c-0.56-0.015-1.099-0.121-1.612-0.323
			c-0.514-0.2-0.975-0.487-1.38-0.857c-0.406-0.37-0.726-0.815-0.957-1.337C213.383,52.086,213.267,51.517,213.267,50.896z
			 M214.405,50.641c0,0.674,0.149,1.271,0.445,1.787c0.296,0.519,0.687,0.917,1.171,1.194c0.486,0.277,1.002,0.424,1.545,0.436
			c0.627,0,1.192-0.151,1.697-0.453c0.504-0.301,0.898-0.696,1.187-1.186c0.287-0.49,0.43-0.998,0.43-1.523
			c0-0.58-0.139-1.114-0.417-1.605c-0.277-0.492-0.66-0.883-1.146-1.175c-0.486-0.294-1.021-0.458-1.602-0.486
			c-0.631,0-1.201,0.156-1.708,0.47c-0.507,0.316-0.901,0.709-1.183,1.183S214.405,50.211,214.405,50.641z"/>
		<path d="M227.699,50.79c0.018-0.658,0.146-1.246,0.387-1.771c0.241-0.526,0.562-0.971,0.972-1.341
			c0.407-0.369,0.858-0.65,1.355-0.844c0.496-0.19,1.005-0.291,1.526-0.299c0.701,0,1.379,0.17,2.033,0.512
			c0.657,0.338,1.194,0.852,1.613,1.533c0.418,0.682,0.627,1.493,0.627,2.438v0.209h-7.404c0.049,0.607,0.236,1.125,0.561,1.551
			c0.323,0.428,0.718,0.748,1.179,0.963c0.464,0.213,0.917,0.318,1.364,0.318c0.396,0,0.798-0.08,1.203-0.238
			c0.406-0.158,0.764-0.376,1.073-0.652c0.312-0.277,0.53-0.584,0.661-0.922h1.138c-0.228,0.628-0.563,1.163-1.004,1.598
			c-0.44,0.436-0.933,0.758-1.478,0.967c-0.544,0.207-1.095,0.312-1.65,0.312c-0.73-0.029-1.412-0.223-2.048-0.584
			c-0.636-0.358-1.146-0.864-1.528-1.512C227.891,52.378,227.699,51.634,227.699,50.79z M235.133,50.239
			c-0.093-0.473-0.287-0.911-0.583-1.313c-0.296-0.401-0.67-0.725-1.12-0.965s-0.937-0.358-1.462-0.358
			c-0.701,0-1.285,0.166-1.752,0.499c-0.465,0.331-0.807,0.703-1.027,1.114c-0.221,0.413-0.347,0.754-0.381,1.023H235.133
			L235.133,50.239z"/>
		<path d="M237.814,54.942V43.854h1.107v11.088H237.814z"/>
		<path d="M244.71,48.617c0.109-0.986,0.443-1.853,1.004-2.604c0.559-0.752,1.258-1.33,2.097-1.731
			c0.836-0.404,1.714-0.606,2.634-0.606c0.502,0,0.995,0.062,1.476,0.184s0.94,0.308,1.376,0.556
			c0.438,0.248,0.845,0.561,1.223,0.938c0.377,0.377,0.707,0.822,0.993,1.335h-1.229c-0.321-0.42-0.688-0.771-1.103-1.062
			c-0.413-0.289-0.85-0.499-1.306-0.637c-0.459-0.137-0.912-0.205-1.37-0.205c-0.61,0-1.198,0.111-1.766,0.33
			c-0.565,0.221-1.072,0.534-1.518,0.945c-0.444,0.413-0.798,0.908-1.054,1.485s-0.387,1.209-0.387,1.897
			c0.011,0.886,0.236,1.68,0.677,2.387c0.44,0.706,1.019,1.255,1.735,1.648c0.718,0.393,1.477,0.596,2.279,0.609
			c0.47-0.014,0.939-0.093,1.406-0.242c0.465-0.15,0.907-0.373,1.327-0.67c0.42-0.299,0.792-0.675,1.12-1.129h1.229
			c-0.402,0.691-0.873,1.267-1.411,1.724c-0.539,0.458-1.119,0.798-1.742,1.021c-0.62,0.221-1.263,0.33-1.928,0.33
			c-0.733,0-1.449-0.137-2.146-0.408c-0.695-0.271-1.321-0.662-1.877-1.172c-0.555-0.508-0.992-1.121-1.311-1.836
			c-0.32-0.715-0.479-1.493-0.479-2.338C244.662,49.114,244.677,48.864,244.71,48.617z"/>
		<path d="M256.734,50.703c0.006-0.539,0.119-1.059,0.339-1.559c0.22-0.499,0.526-0.943,0.921-1.33
			c0.392-0.388,0.861-0.692,1.4-0.914c0.541-0.223,1.126-0.335,1.758-0.335c0.6,0,1.214,0.172,1.842,0.516
			c0.628,0.346,1.156,0.814,1.586,1.41s0.671,1.254,0.725,1.971c0,0.036,0.003,0.088,0.008,0.16c0.006,0.069,0.01,0.12,0.01,0.152
			c0,0.604-0.117,1.17-0.341,1.699c-0.228,0.527-0.542,0.992-0.948,1.39c-0.404,0.399-0.867,0.708-1.389,0.928
			s-1.069,0.329-1.642,0.329c-0.694,0-1.37-0.174-2.026-0.52c-0.662-0.348-1.2-0.856-1.617-1.527
			C256.943,52.403,256.734,51.612,256.734,50.703z M257.812,50.759c0,0.656,0.146,1.23,0.437,1.723
			c0.291,0.491,0.685,0.874,1.176,1.148c0.493,0.275,1.03,0.426,1.61,0.457c0.486,0,0.97-0.131,1.454-0.391
			c0.485-0.261,0.885-0.645,1.204-1.15c0.316-0.504,0.475-1.102,0.475-1.783c0-0.398-0.084-0.785-0.249-1.162
			s-0.395-0.713-0.688-1.008c-0.293-0.297-0.63-0.531-1.014-0.703s-0.777-0.256-1.181-0.256c-0.553,0.014-1.072,0.152-1.562,0.424
			c-0.492,0.271-0.889,0.643-1.192,1.115C257.979,49.642,257.822,50.173,257.812,50.759z"/>
		<path d="M266.918,54.942v-8.196h1.05v1.229c0.271-0.451,0.64-0.799,1.106-1.041c0.469-0.244,0.968-0.367,1.497-0.367
			c0.461,0,0.904,0.085,1.337,0.25c0.429,0.166,0.813,0.408,1.151,0.726c0.34,0.317,0.609,0.713,0.811,1.185
			c0.201,0.473,0.303,1.002,0.303,1.587v4.632h-1.079v-4.632c0-0.563-0.122-1.048-0.364-1.448c-0.244-0.402-0.561-0.701-0.955-0.901
			c-0.394-0.198-0.814-0.3-1.26-0.3c-0.438,0-0.845,0.095-1.222,0.289c-0.378,0.19-0.685,0.478-0.916,0.86
			c-0.233,0.382-0.351,0.837-0.351,1.37v4.768h-1.108V54.942L266.918,54.942z"/>
		<path d="M276.716,54.942v-7.195h-1.723v-1.001h1.723v-2.892h1.105v2.892h1.902v1.001h-1.902v7.195H276.716z"/>
		<path d="M280.875,54.942v-8.227h1.035v1.23c0.457-0.939,1.256-1.409,2.395-1.409v1.124c-0.256,0-0.526,0.054-0.805,0.164
			c-0.278,0.109-0.531,0.266-0.764,0.469c-0.234,0.201-0.42,0.438-0.56,0.709c-0.139,0.271-0.208,0.562-0.208,0.878v5.063
			L280.875,54.942L280.875,54.942z"/>
		<path d="M284.667,50.703c0.008-0.539,0.119-1.059,0.34-1.559c0.222-0.499,0.527-0.943,0.922-1.33
			c0.393-0.388,0.86-0.692,1.4-0.914c0.54-0.223,1.127-0.335,1.757-0.335c0.602,0,1.214,0.172,1.844,0.516
			c0.627,0.346,1.157,0.814,1.585,1.41c0.43,0.596,0.671,1.254,0.725,1.971c0,0.036,0.002,0.088,0.01,0.16
			c0.005,0.069,0.007,0.12,0.007,0.152c0,0.604-0.114,1.17-0.341,1.699c-0.226,0.527-0.543,0.992-0.946,1.39
			c-0.405,0.399-0.867,0.708-1.389,0.928c-0.521,0.22-1.067,0.329-1.64,0.329c-0.695,0-1.372-0.174-2.031-0.52
			c-0.66-0.348-1.197-0.856-1.612-1.527C284.878,52.402,284.667,51.612,284.667,50.703z M285.748,50.759
			c0,0.656,0.145,1.23,0.436,1.723c0.289,0.491,0.684,0.874,1.174,1.148c0.494,0.275,1.031,0.426,1.613,0.457
			c0.485,0,0.967-0.131,1.453-0.391c0.484-0.261,0.886-0.645,1.202-1.15c0.318-0.504,0.476-1.102,0.476-1.783
			c0-0.398-0.084-0.785-0.248-1.162c-0.166-0.377-0.395-0.713-0.689-1.008c-0.292-0.297-0.629-0.531-1.013-0.703
			c-0.386-0.172-0.776-0.256-1.181-0.256c-0.553,0.014-1.072,0.152-1.562,0.424c-0.492,0.271-0.889,0.643-1.191,1.115
			C285.914,49.642,285.757,50.173,285.748,50.759z"/>
		<path d="M294.873,54.942V43.854h1.105v11.088H294.873z"/>
		<path d="M304.343,54.673l-3.133-7.927h1.168l2.635,6.534l2.773-6.534h1.171l-4.737,11.058h-1.166L304.343,54.673z"/>
		<path d="M314.173,54.942V43.854h1.107v11.088H314.173z"/>
		<path d="M316.906,50.896c0.008-0.652,0.135-1.251,0.385-1.795c0.248-0.544,0.582-1.006,1-1.387c0.419-0.38,0.89-0.672,1.412-0.874
			c0.524-0.202,1.053-0.303,1.592-0.303c1.5,0.037,2.574,0.636,3.223,1.8v-1.591h1.078v8.196h-1.078v-1.558
			c-0.307,0.552-0.752,0.978-1.334,1.282c-0.584,0.303-1.242,0.455-1.98,0.455c-0.562-0.015-1.102-0.121-1.613-0.323
			c-0.514-0.2-0.975-0.487-1.381-0.857s-0.725-0.815-0.957-1.337C317.021,52.086,316.906,51.517,316.906,50.896z M318.044,50.641
			c0,0.674,0.149,1.271,0.443,1.787c0.297,0.519,0.689,0.917,1.173,1.194c0.485,0.277,1.001,0.424,1.544,0.436
			c0.627,0,1.193-0.151,1.696-0.453c0.505-0.301,0.9-0.696,1.187-1.186c0.29-0.49,0.432-0.998,0.432-1.523
			c0-0.58-0.141-1.114-0.418-1.605c-0.277-0.492-0.662-0.883-1.147-1.175c-0.485-0.294-1.02-0.458-1.601-0.486
			c-0.63,0-1.203,0.156-1.709,0.47c-0.506,0.316-0.9,0.709-1.18,1.183C318.184,49.757,318.044,50.211,318.044,50.641z"/>
		<path d="M331.831,54.942V43.854h2.906c0.874,0,1.624,0.093,2.257,0.277c0.629,0.186,1.138,0.508,1.523,0.969
			c0.383,0.461,0.6,1.09,0.656,1.885c0.01,0.07,0.015,0.17,0.015,0.299c0,0.615-0.161,1.164-0.488,1.646
			c-0.326,0.483-0.78,0.859-1.364,1.127c-0.582,0.268-1.243,0.402-1.984,0.402h-2.414v4.481L331.831,54.942L331.831,54.942z
			 M332.939,44.844v4.632h2.294c0.976,0,1.691-0.224,2.147-0.672c0.459-0.449,0.685-1.055,0.685-1.816
			c-0.042-0.789-0.343-1.34-0.899-1.663c-0.561-0.321-1.323-0.48-2.291-0.48H332.939L332.939,44.844z"/>
		<path d="M340.456,54.942v-8.227h1.036v1.23c0.458-0.939,1.254-1.409,2.396-1.409v1.124c-0.259,0-0.526,0.054-0.806,0.164
			c-0.277,0.109-0.533,0.266-0.765,0.469c-0.231,0.201-0.42,0.438-0.56,0.709c-0.139,0.271-0.209,0.562-0.209,0.878v5.063
			L340.456,54.942L340.456,54.942z"/>
		<path d="M344.271,50.79c0.018-0.658,0.146-1.246,0.388-1.771c0.241-0.526,0.563-0.971,0.97-1.341
			c0.408-0.369,0.859-0.65,1.355-0.844c0.497-0.19,1.006-0.291,1.527-0.299c0.7,0,1.378,0.17,2.033,0.512
			c0.657,0.338,1.193,0.852,1.613,1.533c0.418,0.682,0.627,1.493,0.627,2.438v0.209h-7.404c0.049,0.607,0.236,1.125,0.561,1.551
			c0.322,0.428,0.717,0.748,1.179,0.963c0.463,0.213,0.917,0.318,1.363,0.318c0.397,0,0.799-0.08,1.204-0.238
			c0.408-0.158,0.764-0.376,1.072-0.652c0.309-0.277,0.531-0.584,0.662-0.922h1.137c-0.229,0.628-0.561,1.163-1.002,1.598
			c-0.44,0.436-0.934,0.758-1.478,0.967c-0.544,0.207-1.097,0.312-1.649,0.312c-0.73-0.029-1.411-0.223-2.049-0.584
			c-0.633-0.358-1.145-0.864-1.529-1.512C344.464,52.38,344.271,51.634,344.271,50.79z M351.705,50.239
			c-0.092-0.473-0.287-0.911-0.584-1.313c-0.296-0.401-0.668-0.725-1.118-0.965s-0.937-0.358-1.462-0.358
			c-0.701,0-1.287,0.166-1.752,0.499c-0.465,0.331-0.81,0.703-1.029,1.114c-0.219,0.413-0.345,0.754-0.38,1.023H351.705
			L351.705,50.239z"/>
		<path d="M356.545,54.942l-3.446-8.196h1.198l2.833,6.79l2.846-6.79h1.201l-3.492,8.196H356.545z"/>
		<path d="M361.513,50.79c0.018-0.658,0.148-1.246,0.391-1.771c0.24-0.526,0.561-0.971,0.969-1.341
			c0.406-0.369,0.859-0.65,1.355-0.844c0.496-0.19,1.005-0.291,1.526-0.299c0.7,0,1.378,0.17,2.033,0.512
			c0.657,0.338,1.193,0.852,1.613,1.533c0.419,0.682,0.626,1.493,0.626,2.438v0.209h-7.402c0.047,0.607,0.234,1.125,0.559,1.551
			c0.324,0.428,0.72,0.748,1.18,0.963c0.463,0.213,0.916,0.318,1.363,0.318c0.397,0,0.799-0.08,1.204-0.238
			c0.407-0.158,0.764-0.376,1.072-0.652c0.312-0.277,0.531-0.584,0.661-0.922h1.139c-0.229,0.628-0.562,1.163-1.003,1.598
			c-0.44,0.436-0.934,0.758-1.478,0.967c-0.545,0.207-1.096,0.312-1.65,0.312c-0.729-0.029-1.41-0.223-2.049-0.584
			c-0.633-0.358-1.143-0.864-1.528-1.512C361.708,52.38,361.513,51.634,361.513,50.79z M368.947,50.239
			c-0.09-0.473-0.285-0.911-0.584-1.313c-0.295-0.401-0.668-0.725-1.117-0.965c-0.451-0.24-0.938-0.358-1.463-0.358
			c-0.701,0-1.287,0.166-1.751,0.499c-0.464,0.331-0.808,0.703-1.029,1.114c-0.22,0.413-0.345,0.754-0.38,1.023H368.947
			L368.947,50.239z"/>
		<path d="M371.609,54.942v-8.196h1.05v1.229c0.269-0.451,0.636-0.799,1.105-1.041c0.468-0.244,0.968-0.367,1.495-0.367
			c0.462,0,0.907,0.085,1.338,0.25c0.428,0.166,0.813,0.408,1.154,0.726c0.338,0.317,0.607,0.713,0.807,1.185
			c0.201,0.473,0.302,1.002,0.302,1.587v4.632h-1.077v-4.632c0-0.563-0.121-1.048-0.364-1.448c-0.241-0.402-0.56-0.701-0.954-0.901
			c-0.393-0.198-0.813-0.3-1.26-0.3c-0.437,0-0.844,0.095-1.225,0.289c-0.378,0.19-0.684,0.478-0.916,0.86
			c-0.23,0.382-0.35,0.837-0.35,1.37v4.768h-1.105V54.942z"/>
		<path d="M380.413,50.821c0.008-0.646,0.132-1.235,0.372-1.762c0.24-0.525,0.562-0.973,0.969-1.341
			c0.407-0.368,0.857-0.651,1.352-0.851c0.497-0.199,1.002-0.309,1.517-0.331c0.937,0,1.793,0.222,2.567,0.663
			c0.777,0.441,1.342,1.108,1.701,2.006h-1.259c-0.299-0.508-0.704-0.896-1.217-1.166c-0.513-0.272-1.11-0.408-1.793-0.408
			c-0.62,0.04-1.163,0.211-1.63,0.512c-0.467,0.3-0.826,0.689-1.078,1.163c-0.251,0.475-0.383,0.98-0.393,1.521
			c0,0.582,0.141,1.117,0.42,1.605c0.279,0.489,0.665,0.877,1.162,1.167c0.494,0.29,1.041,0.445,1.645,0.461
			c0.629,0,1.204-0.144,1.725-0.427c0.518-0.283,0.918-0.645,1.197-1.082h1.225c-0.892,1.715-2.256,2.573-4.088,2.573
			c-0.554,0-1.092-0.103-1.615-0.309c-0.524-0.206-1-0.501-1.422-0.888c-0.422-0.385-0.756-0.838-1-1.36
			c-0.248-0.522-0.373-1.083-0.383-1.683c0.016-0.012,0.02-0.023,0.024-0.035C380.411,50.837,380.413,50.827,380.413,50.821z"/>
		<path d="M390.418,45.757v-1.902h1.108v1.902H390.418z M390.418,54.942v-8.196h1.108v8.196H390.418z"/>
		<path d="M393.147,50.703c0.009-0.539,0.12-1.059,0.341-1.559c0.221-0.499,0.525-0.943,0.919-1.33
			c0.395-0.388,0.864-0.692,1.403-0.914c0.541-0.223,1.126-0.335,1.758-0.335c0.598,0,1.212,0.172,1.842,0.516
			c0.629,0.346,1.156,0.814,1.586,1.41c0.427,0.596,0.668,1.254,0.725,1.971c0,0.036,0.003,0.088,0.008,0.16
			c0.004,0.069,0.008,0.12,0.008,0.152c0,0.604-0.115,1.17-0.34,1.699c-0.225,0.527-0.543,0.992-0.949,1.39
			c-0.402,0.399-0.865,0.708-1.387,0.928s-1.069,0.329-1.642,0.329c-0.692,0-1.368-0.174-2.028-0.52
			c-0.66-0.348-1.198-0.856-1.613-1.527C393.357,52.402,393.147,51.612,393.147,50.703z M394.226,50.759
			c0,0.656,0.146,1.23,0.438,1.723c0.291,0.491,0.684,0.874,1.175,1.148c0.491,0.275,1.029,0.426,1.61,0.457
			c0.484,0,0.971-0.131,1.453-0.391c0.486-0.261,0.887-0.645,1.203-1.15c0.32-0.504,0.477-1.102,0.477-1.783
			c0-0.398-0.084-0.785-0.25-1.162s-0.395-0.713-0.688-1.008c-0.293-0.297-0.631-0.531-1.014-0.703s-0.776-0.256-1.182-0.256
			c-0.551,0.014-1.069,0.152-1.562,0.424c-0.49,0.271-0.887,0.643-1.189,1.115C394.392,49.642,394.235,50.173,394.226,50.759z
			 M395.755,45.054l2.908-1.755l0.523,0.868l-2.906,1.711L395.755,45.054z"/>
		<path d="M403.332,54.942v-8.196h1.05v1.229c0.271-0.451,0.64-0.799,1.106-1.041c0.471-0.244,0.968-0.367,1.498-0.367
			c0.461,0,0.904,0.085,1.334,0.25c0.432,0.166,0.813,0.408,1.154,0.726c0.338,0.317,0.607,0.713,0.809,1.185
			c0.201,0.473,0.303,1.002,0.303,1.587v4.632h-1.08v-4.632c0-0.563-0.119-1.048-0.363-1.448c-0.242-0.402-0.56-0.701-0.954-0.901
			c-0.393-0.198-0.813-0.3-1.261-0.3c-0.437,0-0.844,0.095-1.223,0.289c-0.379,0.19-0.684,0.478-0.916,0.86
			c-0.232,0.382-0.35,0.837-0.35,1.37v4.768h-1.107V54.942L403.332,54.942z"/>
		<path d="M416.306,50.462c0.066-0.765,0.305-1.442,0.719-2.031c0.414-0.588,0.931-1.047,1.55-1.375
			c0.62-0.324,1.259-0.497,1.913-0.521c0.692,0,1.34,0.133,1.939,0.398s1.087,0.684,1.464,1.251v-4.331h1.107V54.94h-1.05v-1.559
			c-0.391,0.584-0.857,1.019-1.403,1.307c-0.548,0.289-1.211,0.432-1.998,0.432c-0.673-0.029-1.341-0.228-2.001-0.595
			c-0.664-0.366-1.205-0.874-1.623-1.523c-0.424-0.649-0.631-1.38-0.631-2.194C416.292,50.656,416.296,50.542,416.306,50.462z
			 M417.445,50.375c-0.018,0.099-0.029,0.249-0.029,0.45c0,0.541,0.145,1.061,0.424,1.555c0.283,0.493,0.67,0.897,1.162,1.205
			c0.492,0.307,1.037,0.465,1.637,0.475c0.542,0,1.07-0.135,1.58-0.406c0.51-0.27,0.927-0.662,1.248-1.17
			c0.321-0.51,0.484-1.104,0.484-1.777c0-0.359-0.117-0.785-0.346-1.273c-0.23-0.487-0.597-0.907-1.096-1.267
			c-0.498-0.356-1.122-0.535-1.873-0.535c-0.407,0-0.832,0.09-1.279,0.273c-0.449,0.183-0.851,0.479-1.207,0.894
			C417.793,49.21,417.556,49.735,417.445,50.375z"/>
		<path d="M426.64,50.79c0.018-0.658,0.148-1.246,0.389-1.771c0.24-0.526,0.561-0.971,0.969-1.341
			c0.406-0.369,0.859-0.65,1.355-0.844c0.496-0.19,1.005-0.291,1.526-0.299c0.7,0,1.378,0.17,2.034,0.512
			c0.658,0.338,1.193,0.852,1.612,1.533c0.42,0.682,0.628,1.493,0.628,2.438v0.209h-7.404c0.049,0.607,0.234,1.125,0.559,1.551
			c0.325,0.428,0.72,0.748,1.182,0.963c0.461,0.213,0.916,0.318,1.361,0.318c0.397,0,0.799-0.08,1.205-0.238
			s0.763-0.376,1.071-0.652c0.312-0.277,0.531-0.584,0.663-0.922h1.137c-0.229,0.628-0.562,1.163-1.003,1.598
			c-0.438,0.436-0.934,0.758-1.478,0.967c-0.545,0.207-1.095,0.312-1.648,0.312c-0.73-0.029-1.412-0.223-2.051-0.584
			c-0.631-0.358-1.143-0.864-1.528-1.512C426.833,52.38,426.64,51.634,426.64,50.79z M434.074,50.239
			c-0.092-0.473-0.287-0.911-0.584-1.313c-0.295-0.401-0.67-0.725-1.119-0.965c-0.451-0.24-0.938-0.358-1.461-0.358
			c-0.703,0-1.287,0.166-1.753,0.499c-0.463,0.331-0.807,0.703-1.028,1.114c-0.219,0.413-0.346,0.754-0.379,1.023H434.074
			L434.074,50.239z"/>
		<path d="M441.025,54.942V43.854h6.056v1.022h-4.944v3.984h4.78v0.987h-4.78v4.109h4.944v0.987L441.025,54.942L441.025,54.942z"/>
		<path d="M448.72,54.942v-8.196h1.051v1.229c0.27-0.451,0.639-0.799,1.105-1.041c0.467-0.244,0.967-0.367,1.495-0.367
			c0.462,0,0.907,0.085,1.338,0.25c0.428,0.166,0.813,0.408,1.153,0.726c0.339,0.317,0.607,0.713,0.81,1.185
			c0.2,0.473,0.301,1.002,0.301,1.587v4.632h-1.079v-4.632c0-0.563-0.12-1.048-0.363-1.448c-0.242-0.402-0.561-0.701-0.955-0.901
			c-0.393-0.198-0.812-0.3-1.26-0.3c-0.436,0-0.844,0.095-1.222,0.289c-0.379,0.19-0.685,0.478-0.917,0.86
			c-0.231,0.382-0.352,0.837-0.352,1.37v4.768h-1.105V54.942z"/>
		<path d="M458.281,54.942v-7.178h-1.261v-0.988h1.261c0-1.93,1.054-2.894,3.162-2.894v1.021c-0.627,0-1.125,0.125-1.5,0.379
			c-0.379,0.252-0.57,0.71-0.584,1.375c0.019,0.039,0.028,0.08,0.028,0.119h2.054v0.988h-2.054v7.178H458.281z"/>
		<path d="M461.84,50.79c0.017-0.658,0.149-1.246,0.39-1.771c0.24-0.526,0.562-0.971,0.969-1.341c0.407-0.369,0.86-0.65,1.355-0.844
			c0.496-0.19,1.006-0.291,1.527-0.299c0.699,0,1.377,0.17,2.033,0.512c0.658,0.338,1.194,0.852,1.613,1.533
			c0.418,0.682,0.626,1.493,0.626,2.438v0.209h-7.403c0.051,0.607,0.235,1.125,0.56,1.551c0.323,0.428,0.718,0.748,1.177,0.963
			c0.463,0.213,0.917,0.318,1.365,0.318c0.396,0,0.797-0.08,1.205-0.238c0.406-0.158,0.764-0.376,1.073-0.652
			c0.309-0.277,0.528-0.584,0.66-0.922h1.138c-0.229,0.628-0.563,1.163-1.004,1.598c-0.441,0.436-0.934,0.758-1.479,0.967
			c-0.543,0.207-1.096,0.312-1.648,0.312c-0.73-0.029-1.412-0.223-2.05-0.584c-0.633-0.358-1.142-0.864-1.528-1.512
			C462.035,52.38,461.84,51.634,461.84,50.79z M469.275,50.239c-0.092-0.473-0.289-0.911-0.584-1.313
			c-0.295-0.401-0.668-0.725-1.121-0.965c-0.449-0.24-0.934-0.358-1.46-0.358c-0.702,0-1.287,0.166-1.75,0.499
			c-0.466,0.331-0.81,0.703-1.03,1.114c-0.221,0.413-0.348,0.754-0.381,1.023H469.275L469.275,50.239z"/>
		<path d="M471.942,54.942v-8.227h1.036v1.23c0.455-0.939,1.253-1.409,2.393-1.409v1.124c-0.257,0-0.525,0.054-0.806,0.164
			c-0.276,0.109-0.531,0.266-0.764,0.469c-0.231,0.201-0.42,0.438-0.56,0.709c-0.139,0.271-0.209,0.562-0.209,0.878v5.063
			L471.942,54.942L471.942,54.942z"/>
		<path d="M476.48,46.746h1.051v1.11c0.191-0.41,0.49-0.729,0.886-0.953c0.394-0.225,0.829-0.338,1.303-0.338
			c0.573,0,1.12,0.138,1.64,0.414c0.521,0.275,0.935,0.658,1.238,1.145c0.293-0.5,0.674-0.879,1.146-1.138
			c0.471-0.257,0.962-0.389,1.476-0.389c0.437,0,0.864,0.079,1.275,0.235c0.413,0.158,0.78,0.379,1.102,0.664
			c0.323,0.285,0.578,0.627,0.769,1.028c0.188,0.4,0.284,0.831,0.284,1.292v5.125h-1.076v-4.946c0-0.495-0.109-0.919-0.323-1.272
			c-0.216-0.355-0.501-0.619-0.854-0.798c-0.354-0.179-0.736-0.267-1.145-0.267c-0.369,0-0.715,0.08-1.036,0.238
			c-0.323,0.16-0.581,0.397-0.771,0.713c-0.192,0.313-0.29,0.688-0.29,1.119v5.213h-1.135v-5.035c0-0.459-0.111-0.859-0.333-1.201
			c-0.22-0.342-0.511-0.6-0.867-0.781c-0.358-0.179-0.744-0.269-1.153-0.269c-0.373,0-0.719,0.084-1.033,0.248
			c-0.316,0.165-0.566,0.415-0.755,0.749s-0.283,0.743-0.283,1.225v5.064h-1.106v-8.196H476.48z"/>
		<path d="M490.224,50.79c0.018-0.658,0.146-1.246,0.386-1.771c0.24-0.526,0.565-0.971,0.972-1.341
			c0.408-0.369,0.859-0.65,1.355-0.844c0.494-0.19,1.002-0.291,1.527-0.299c0.697,0,1.375,0.17,2.033,0.512
			c0.657,0.338,1.193,0.852,1.611,1.533c0.42,0.682,0.629,1.493,0.629,2.438v0.209h-7.407c0.052,0.607,0.235,1.125,0.562,1.551
			c0.322,0.428,0.718,0.748,1.18,0.963c0.459,0.213,0.916,0.318,1.363,0.318c0.396,0,0.797-0.08,1.202-0.238
			c0.407-0.158,0.765-0.376,1.073-0.652c0.311-0.277,0.531-0.584,0.66-0.922h1.14c-0.231,0.628-0.565,1.163-1.005,1.598
			c-0.439,0.436-0.934,0.758-1.477,0.967c-0.543,0.207-1.097,0.312-1.652,0.312c-0.729-0.029-1.408-0.223-2.047-0.584
			c-0.635-0.358-1.144-0.864-1.529-1.512C490.417,52.38,490.224,51.634,490.224,50.79z M497.658,50.239
			c-0.093-0.473-0.288-0.911-0.584-1.313c-0.296-0.401-0.668-0.725-1.119-0.965c-0.453-0.24-0.937-0.358-1.461-0.358
			c-0.702,0-1.287,0.166-1.752,0.499c-0.466,0.331-0.81,0.703-1.029,1.114c-0.221,0.413-0.348,0.754-0.382,1.023H497.658
			L497.658,50.239z"/>
		<path d="M499.937,50.462c0.066-0.765,0.306-1.442,0.719-2.031c0.414-0.588,0.933-1.047,1.55-1.375
			c0.62-0.324,1.259-0.497,1.913-0.521c0.695,0,1.342,0.133,1.939,0.398c0.6,0.266,1.087,0.684,1.464,1.251v-4.331h1.107V54.94
			h-1.05v-1.559c-0.391,0.584-0.857,1.019-1.403,1.307c-0.544,0.289-1.21,0.432-1.998,0.432c-0.673-0.029-1.341-0.228-2.001-0.595
			c-0.662-0.366-1.203-0.874-1.623-1.523s-0.629-1.38-0.629-2.194C499.923,50.656,499.927,50.542,499.937,50.462z M501.076,50.375
			c-0.019,0.099-0.028,0.249-0.028,0.45c0,0.541,0.142,1.061,0.423,1.555c0.285,0.493,0.67,0.897,1.163,1.205
			c0.491,0.307,1.036,0.465,1.639,0.475c0.541,0,1.067-0.135,1.578-0.406c0.511-0.27,0.929-0.662,1.249-1.17
			c0.322-0.51,0.483-1.104,0.483-1.777c0-0.359-0.116-0.785-0.345-1.273c-0.23-0.487-0.596-0.907-1.095-1.267
			c-0.499-0.356-1.124-0.535-1.871-0.535c-0.407,0-0.835,0.09-1.282,0.273c-0.449,0.183-0.852,0.479-1.207,0.894
			C501.424,49.21,501.187,49.735,501.076,50.375z"/>
		<path d="M510.25,50.896c0.007-0.652,0.136-1.251,0.384-1.795c0.249-0.544,0.582-1.006,1.002-1.387
			c0.418-0.38,0.889-0.672,1.409-0.874c0.524-0.202,1.055-0.303,1.595-0.303c1.498,0.037,2.573,0.636,3.223,1.8v-1.591h1.078v8.196
			h-1.078v-1.558c-0.309,0.552-0.753,0.978-1.336,1.282c-0.583,0.303-1.243,0.455-1.981,0.455c-0.56-0.015-1.099-0.121-1.611-0.323
			c-0.514-0.2-0.976-0.487-1.381-0.857s-0.726-0.815-0.956-1.337C510.365,52.086,510.25,51.517,510.25,50.896z M511.388,50.641
			c0,0.674,0.148,1.271,0.445,1.787c0.294,0.519,0.688,0.917,1.17,1.194c0.486,0.277,1.003,0.424,1.545,0.436
			c0.629,0,1.193-0.151,1.697-0.453c0.504-0.301,0.899-0.696,1.186-1.186c0.289-0.49,0.432-0.998,0.432-1.523
			c0-0.58-0.141-1.114-0.419-1.605c-0.276-0.492-0.661-0.883-1.147-1.175c-0.484-0.294-1.02-0.458-1.6-0.486
			c-0.632,0-1.203,0.156-1.71,0.47c-0.507,0.316-0.899,0.709-1.179,1.183C511.528,49.757,511.388,50.211,511.388,50.641z"/>
		<path d="M520.562,50.462c0.066-0.765,0.306-1.442,0.719-2.031c0.414-0.588,0.932-1.047,1.55-1.375
			c0.62-0.324,1.259-0.497,1.913-0.521c0.693,0,1.34,0.133,1.939,0.398s1.087,0.684,1.464,1.251v-4.331h1.107V54.94h-1.05v-1.559
			c-0.391,0.584-0.857,1.019-1.403,1.307c-0.548,0.289-1.21,0.432-1.998,0.432c-0.673-0.029-1.341-0.228-2.001-0.595
			c-0.664-0.366-1.205-0.874-1.623-1.523c-0.423-0.649-0.631-1.38-0.631-2.194C520.548,50.656,520.554,50.542,520.562,50.462z
			 M521.701,50.375c-0.018,0.099-0.029,0.249-0.029,0.45c0,0.541,0.145,1.061,0.424,1.555c0.283,0.493,0.67,0.897,1.162,1.205
			c0.492,0.307,1.037,0.465,1.637,0.475c0.543,0,1.07-0.135,1.58-0.406c0.51-0.27,0.927-0.662,1.248-1.17
			c0.321-0.51,0.484-1.104,0.484-1.777c0-0.359-0.117-0.785-0.346-1.273c-0.23-0.487-0.597-0.907-1.096-1.267
			c-0.498-0.356-1.122-0.535-1.873-0.535c-0.407,0-0.832,0.09-1.279,0.273c-0.449,0.183-0.851,0.479-1.207,0.894
			C522.049,49.21,521.812,49.735,521.701,50.375z"/>
		<path d="M530.896,50.79c0.018-0.658,0.148-1.246,0.389-1.771c0.24-0.526,0.561-0.971,0.969-1.341
			c0.406-0.369,0.86-0.65,1.355-0.844c0.496-0.19,1.005-0.291,1.527-0.299c0.699,0,1.377,0.17,2.034,0.512
			c0.657,0.338,1.192,0.852,1.611,1.533c0.42,0.682,0.628,1.493,0.628,2.438v0.209h-7.404c0.049,0.607,0.234,1.125,0.56,1.551
			c0.324,0.428,0.719,0.748,1.181,0.963c0.461,0.213,0.916,0.318,1.361,0.318c0.398,0,0.799-0.08,1.206-0.238
			c0.405-0.158,0.762-0.376,1.07-0.652c0.312-0.277,0.531-0.584,0.663-0.922h1.137c-0.229,0.628-0.562,1.163-1.003,1.598
			c-0.438,0.436-0.934,0.758-1.478,0.967c-0.544,0.207-1.095,0.312-1.648,0.312c-0.73-0.029-1.412-0.223-2.051-0.584
			c-0.631-0.358-1.142-0.864-1.528-1.512C531.09,52.38,530.896,51.634,530.896,50.79z M538.33,50.239
			c-0.092-0.473-0.287-0.911-0.584-1.313c-0.295-0.401-0.67-0.725-1.119-0.965c-0.451-0.24-0.938-0.358-1.461-0.358
			c-0.703,0-1.287,0.166-1.753,0.499c-0.463,0.331-0.807,0.703-1.027,1.114c-0.22,0.413-0.347,0.754-0.38,1.023H538.33
			L538.33,50.239z"/>
		<path d="M540.65,49.145c-0.014-0.082-0.018-0.188-0.018-0.329c0-0.475,0.119-0.883,0.357-1.225
			c0.237-0.343,0.531-0.598,0.891-0.768c0.356-0.171,0.707-0.256,1.045-0.256c0.277,0,0.551,0.049,0.824,0.14
			c0.273,0.093,0.523,0.229,0.75,0.415c0.226,0.184,0.408,0.414,0.549,0.695c0.14,0.28,0.219,0.596,0.232,0.955h-1.123
			c-0.02-0.391-0.146-0.682-0.379-0.867c-0.232-0.182-0.518-0.273-0.85-0.273c-0.296,0-0.57,0.096-0.826,0.289
			c-0.254,0.191-0.39,0.475-0.406,0.849c0.004,0.01,0.017,0.071,0.044,0.185c0.024,0.115,0.043,0.188,0.05,0.221
			c0.076,0.271,0.334,0.497,0.772,0.68c0.438,0.182,0.88,0.356,1.325,0.523s0.82,0.412,1.129,0.736
			c0.308,0.323,0.461,0.786,0.461,1.387c0,0.103-0.014,0.252-0.032,0.449c-0.062,0.506-0.228,0.922-0.499,1.248
			c-0.274,0.327-0.594,0.562-0.963,0.708c-0.367,0.146-0.73,0.218-1.087,0.218c-0.495,0-0.938-0.113-1.329-0.34
			c-0.393-0.227-0.695-0.537-0.909-0.93c-0.22-0.393-0.324-0.828-0.324-1.307l1.112-0.033c0.014,0.469,0.173,0.853,0.477,1.144
			c0.305,0.293,0.649,0.448,1.037,0.458c0.391-0.033,0.723-0.184,0.998-0.451c0.273-0.268,0.412-0.592,0.412-0.969
			c0-0.337-0.111-0.643-0.333-0.917c-0.22-0.276-0.56-0.468-1.019-0.585c-0.625-0.169-1.159-0.404-1.604-0.704
			C540.974,50.188,540.718,49.738,540.65,49.145z"/>
	</g>
	<g>
		<path d="M129.253,64.769c0.086-0.775,0.351-1.459,0.79-2.05c0.44-0.593,0.99-1.045,1.648-1.362
			c0.658-0.318,1.35-0.477,2.073-0.477c0.395,0,0.782,0.048,1.16,0.145c0.377,0.096,0.739,0.24,1.083,0.436
			c0.345,0.193,0.665,0.441,0.961,0.736c0.296,0.297,0.557,0.648,0.781,1.051h-0.967c-0.252-0.33-0.54-0.607-0.866-0.834
			c-0.326-0.225-0.668-0.392-1.027-0.498c-0.359-0.109-0.718-0.162-1.076-0.162c-0.48,0-0.942,0.086-1.389,0.258
			c-0.445,0.172-0.844,0.422-1.194,0.744c-0.35,0.324-0.626,0.714-0.829,1.169c-0.202,0.456-0.303,0.953-0.303,1.493
			c0.007,0.697,0.185,1.322,0.53,1.878c0.346,0.556,0.801,0.987,1.366,1.298c0.564,0.31,1.162,0.469,1.792,0.479
			c0.371-0.01,0.739-0.072,1.104-0.189c0.367-0.117,0.715-0.291,1.044-0.525c0.33-0.236,0.624-0.53,0.88-0.889h0.968
			c-0.317,0.543-0.687,0.998-1.11,1.356c-0.424,0.358-0.881,0.628-1.37,0.802c-0.487,0.173-0.993,0.259-1.517,0.259
			c-0.578,0-1.139-0.106-1.687-0.321c-0.548-0.213-1.041-0.521-1.477-0.923c-0.437-0.401-0.781-0.882-1.032-1.444
			c-0.252-0.561-0.377-1.172-0.377-1.838C129.215,65.157,129.228,64.961,129.253,64.769z"/>
		<path d="M139.03,69.742v-8.721h2.371c0.817,0,1.54,0.116,2.166,0.347c0.627,0.23,1.151,0.553,1.573,0.963
			c0.421,0.412,0.734,0.883,0.943,1.418c0.208,0.531,0.312,1.104,0.312,1.715c-0.006,0.648-0.135,1.239-0.384,1.771
			c-0.251,0.534-0.592,0.99-1.025,1.365c-0.432,0.375-0.918,0.662-1.459,0.854c-0.54,0.191-1.097,0.288-1.67,0.288H139.03z
			 M139.901,61.798v7.143h1.344c1.21,0,2.207-0.285,2.99-0.854s1.212-1.443,1.29-2.623c0-0.486-0.084-0.948-0.251-1.389
			c-0.167-0.439-0.421-0.83-0.762-1.173c-0.34-0.341-0.772-0.612-1.295-0.808S142.088,61.8,141.4,61.8L139.901,61.798
			L139.901,61.798z"/>
		<path d="M147.371,64.769c0.086-0.775,0.35-1.459,0.79-2.05c0.44-0.593,0.991-1.045,1.648-1.362
			c0.658-0.318,1.35-0.477,2.073-0.477c0.396,0,0.782,0.048,1.16,0.145c0.378,0.096,0.739,0.24,1.083,0.436
			c0.344,0.193,0.665,0.441,0.961,0.736c0.296,0.297,0.557,0.648,0.781,1.051H154.9c-0.251-0.33-0.54-0.607-0.866-0.834
			c-0.326-0.225-0.667-0.392-1.027-0.498c-0.359-0.109-0.718-0.162-1.076-0.162c-0.479,0-0.942,0.086-1.388,0.258
			s-0.844,0.422-1.194,0.744c-0.35,0.324-0.626,0.714-0.83,1.169c-0.202,0.456-0.303,0.953-0.303,1.493
			c0.007,0.697,0.185,1.322,0.53,1.878c0.346,0.556,0.801,0.987,1.366,1.298c0.563,0.31,1.162,0.469,1.792,0.479
			c0.371-0.01,0.739-0.072,1.104-0.189c0.366-0.117,0.715-0.291,1.044-0.525c0.33-0.236,0.624-0.53,0.881-0.889h0.967
			c-0.316,0.543-0.687,0.998-1.11,1.356c-0.424,0.358-0.88,0.628-1.369,0.802c-0.488,0.173-0.994,0.259-1.518,0.259
			c-0.577,0-1.139-0.106-1.687-0.321c-0.548-0.213-1.04-0.521-1.477-0.923c-0.436-0.401-0.78-0.882-1.032-1.444
			c-0.251-0.561-0.377-1.172-0.377-1.838C147.333,65.157,147.346,64.961,147.371,64.769z"/>
		<path d="M159.865,63.851c0.007-0.652,0.142-1.201,0.405-1.645c0.262-0.442,0.608-0.772,1.035-0.987
			c0.427-0.218,0.89-0.329,1.389-0.339c0.345,0,0.679,0.066,1.001,0.202c0.323,0.134,0.608,0.321,0.858,0.561
			c0.251,0.239,0.449,0.521,0.594,0.843c0.147,0.323,0.219,0.672,0.219,1.044c0,0.872-0.408,1.694-1.226,2.461l-3.122,2.946h4.348
			v0.803h-5.55v-0.776l3.89-3.784c0.541-0.541,0.812-1.091,0.812-1.65c0-0.325-0.081-0.623-0.242-0.893
			c-0.161-0.271-0.375-0.486-0.641-0.646c-0.267-0.16-0.549-0.249-0.849-0.262c-0.57,0-1.054,0.172-1.451,0.514
			c-0.398,0.344-0.597,0.879-0.597,1.606h-0.872V63.851L159.865,63.851z"/>
		<path d="M170.002,61.021h1.085v6.329h0.78v0.776h-0.78v1.614h-0.871v-1.614h-4.396v-0.776L170.002,61.021z M170.216,62.212
			l-3.407,5.141h3.407V62.212z"/>
		<path d="M172.177,71.238l3.407-10.217h0.799l-3.452,10.217H172.177z"/>
		<path d="M177.915,69.742l3.597-7.944h-4.125v-0.776h5.043v0.776l-3.582,7.944H177.915z"/>
		<path d="M183.375,63.731h0.872v1.475h-0.872V63.731z M183.375,68.246h0.872v1.496h-0.872V68.246z"/>
		<path d="M189.673,67.302c0.019,0.379,0.115,0.697,0.289,0.962c0.174,0.261,0.398,0.458,0.675,0.588
			c0.276,0.13,0.567,0.194,0.874,0.194c0.285,0,0.558-0.075,0.822-0.225c0.263-0.154,0.476-0.357,0.636-0.614
			c0.159-0.256,0.24-0.534,0.24-0.832c0-0.36-0.091-0.685-0.272-0.966c-0.173-0.275-0.496-0.492-0.971-0.657
			c-0.474-0.164-0.939-0.322-1.395-0.474c-0.455-0.153-0.829-0.385-1.12-0.691c-0.291-0.309-0.436-0.76-0.436-1.352
			c0-0.024,0.002-0.059,0.007-0.105c0.004-0.045,0.007-0.088,0.007-0.131c0.023-0.416,0.149-0.786,0.378-1.108
			c0.229-0.321,0.526-0.571,0.89-0.747c0.364-0.178,0.746-0.263,1.145-0.263c0.472,0,0.892,0.114,1.261,0.343
			c0.369,0.23,0.654,0.519,0.854,0.866c0.201,0.347,0.301,0.688,0.301,1.019v0.119h-0.871c-0.065-0.487-0.236-0.847-0.515-1.084
			c-0.276-0.236-0.613-0.373-1.008-0.412c-0.272,0-0.526,0.058-0.76,0.178s-0.423,0.282-0.567,0.486
			c-0.145,0.201-0.224,0.422-0.238,0.656c0,0.547,0.142,0.926,0.427,1.137c0.286,0.211,0.738,0.406,1.36,0.586
			c0.622,0.182,1.124,0.401,1.509,0.664c0.386,0.264,0.661,0.71,0.828,1.341c0.033,0.231,0.05,0.416,0.05,0.553
			c0,0.296-0.057,0.595-0.168,0.899c-0.113,0.305-0.277,0.581-0.493,0.829c-0.216,0.248-0.491,0.448-0.821,0.602
			c-0.331,0.151-0.705,0.228-1.123,0.228c-0.407,0-0.781-0.066-1.12-0.199c-0.34-0.133-0.632-0.322-0.875-0.561
			s-0.429-0.515-0.557-0.828c-0.128-0.312-0.19-0.645-0.19-0.998h0.951V67.302z"/>
		<path d="M194.851,66.56c0.006-0.514,0.106-0.985,0.302-1.41c0.195-0.428,0.458-0.793,0.787-1.092
			c0.329-0.299,0.699-0.527,1.11-0.688c0.412-0.159,0.831-0.24,1.253-0.24c1.18,0.029,2.024,0.5,2.535,1.416v-1.251h0.849v6.447
			h-0.849v-1.226c-0.242,0.433-0.593,0.769-1.05,1.007c-0.459,0.239-0.977,0.357-1.557,0.357c-0.441-0.011-0.865-0.095-1.27-0.255
			s-0.766-0.384-1.086-0.676c-0.319-0.291-0.57-0.641-0.752-1.049C194.942,67.495,194.851,67.047,194.851,66.56z M195.746,66.359
			c0,0.528,0.116,0.998,0.35,1.407c0.233,0.408,0.541,0.721,0.922,0.938c0.382,0.22,0.787,0.332,1.214,0.342
			c0.492,0,0.938-0.118,1.336-0.355c0.397-0.236,0.708-0.547,0.934-0.933c0.224-0.387,0.338-0.784,0.338-1.2
			c0-0.457-0.111-0.876-0.329-1.264c-0.217-0.387-0.519-0.695-0.901-0.926c-0.382-0.229-0.801-0.357-1.258-0.383
			c-0.496,0-0.944,0.124-1.343,0.373c-0.398,0.246-0.708,0.559-0.929,0.93C195.856,65.663,195.746,66.021,195.746,66.359z"/>
		<path d="M203.18,69.742v-8.721h0.871v8.721H203.18z"/>
		<path d="M207.519,69.742l-2.71-6.447h0.939l2.23,5.341l2.238-5.341h0.944l-2.748,6.447H207.519z"/>
		<path d="M211.302,66.56c0.005-0.514,0.106-0.985,0.302-1.41c0.196-0.428,0.458-0.793,0.787-1.092s0.699-0.527,1.11-0.688
			c0.412-0.159,0.83-0.24,1.254-0.24c1.179,0.029,2.023,0.5,2.533,1.416v-1.251h0.85v6.447h-0.85v-1.226
			c-0.242,0.433-0.592,0.769-1.05,1.007c-0.458,0.239-0.976,0.357-1.557,0.357c-0.44-0.011-0.864-0.095-1.269-0.255
			c-0.406-0.16-0.767-0.384-1.088-0.676c-0.319-0.291-0.57-0.641-0.752-1.049C211.394,67.495,211.302,67.047,211.302,66.56z
			 M212.197,66.359c0,0.528,0.118,0.998,0.352,1.407c0.232,0.408,0.54,0.721,0.922,0.938c0.383,0.22,0.786,0.332,1.214,0.342
			c0.491,0,0.938-0.118,1.336-0.355c0.398-0.236,0.708-0.547,0.933-0.933c0.225-0.387,0.339-0.784,0.339-1.2
			c0-0.457-0.11-0.876-0.327-1.264c-0.22-0.387-0.521-0.695-0.902-0.926c-0.382-0.229-0.801-0.357-1.258-0.383
			c-0.497,0-0.945,0.124-1.344,0.373c-0.398,0.246-0.708,0.559-0.93,0.93C212.307,65.663,212.197,66.021,212.197,66.359z"/>
		<path d="M219.634,63.295h0.826v0.874c0.153-0.323,0.386-0.572,0.695-0.751c0.312-0.177,0.653-0.265,1.025-0.265
			c0.451,0,0.882,0.107,1.291,0.324c0.408,0.217,0.731,0.516,0.972,0.898c0.229-0.392,0.529-0.692,0.9-0.896
			c0.368-0.203,0.757-0.305,1.161-0.305c0.344,0,0.678,0.062,1.002,0.187s0.614,0.298,0.865,0.524
			c0.256,0.222,0.457,0.492,0.605,0.807c0.148,0.316,0.224,0.655,0.224,1.016v4.031h-0.849v-3.887c0-0.391-0.085-0.725-0.256-1.002
			c-0.17-0.279-0.393-0.488-0.671-0.627c-0.278-0.142-0.579-0.213-0.899-0.213c-0.289,0-0.561,0.062-0.814,0.187
			c-0.256,0.126-0.457,0.314-0.607,0.562c-0.152,0.248-0.227,0.539-0.227,0.879v4.101h-0.895V65.78c0-0.361-0.087-0.674-0.261-0.943
			c-0.173-0.269-0.401-0.475-0.685-0.613c-0.282-0.143-0.584-0.214-0.906-0.214c-0.293,0-0.564,0.064-0.812,0.194
			c-0.248,0.129-0.445,0.324-0.594,0.59c-0.148,0.262-0.221,0.584-0.221,0.965v3.982h-0.871V63.295L219.634,63.295z"/>
		<path d="M230.341,66.407c0.004-0.424,0.094-0.833,0.267-1.227c0.172-0.393,0.413-0.74,0.724-1.045
			c0.31-0.305,0.676-0.543,1.103-0.721c0.425-0.176,0.886-0.262,1.383-0.262c0.472,0,0.955,0.135,1.447,0.405
			c0.495,0.271,0.91,0.639,1.247,1.108c0.34,0.467,0.527,0.986,0.57,1.548c0,0.029,0.003,0.071,0.006,0.127
			c0.004,0.054,0.006,0.094,0.006,0.12c0,0.475-0.088,0.92-0.268,1.338c-0.179,0.414-0.426,0.779-0.745,1.092
			c-0.318,0.314-0.683,0.559-1.091,0.73c-0.411,0.174-0.84,0.258-1.293,0.258c-0.543,0-1.074-0.137-1.595-0.408
			c-0.519-0.272-0.942-0.673-1.271-1.201C230.504,67.745,230.341,67.123,230.341,66.407z M231.189,66.452
			c0,0.516,0.115,0.969,0.344,1.354c0.229,0.39,0.537,0.689,0.926,0.904c0.388,0.217,0.81,0.335,1.268,0.357
			c0.382,0,0.763-0.104,1.143-0.309c0.381-0.205,0.695-0.506,0.944-0.902c0.251-0.396,0.374-0.866,0.374-1.406
			c0-0.313-0.065-0.617-0.195-0.913c-0.129-0.294-0.311-0.56-0.541-0.796c-0.229-0.23-0.495-0.416-0.797-0.552
			c-0.301-0.136-0.611-0.204-0.93-0.204c-0.433,0.013-0.843,0.121-1.229,0.334c-0.386,0.214-0.696,0.506-0.935,0.877
			C231.321,65.573,231.197,65.99,231.189,66.452z"/>
		<path d="M237.955,65.181c-0.006-0.062-0.012-0.151-0.012-0.258c0-0.375,0.094-0.695,0.28-0.966c0.187-0.269,0.422-0.468,0.7-0.603
			c0.282-0.135,0.557-0.201,0.822-0.201c0.219,0,0.433,0.037,0.648,0.109c0.217,0.073,0.412,0.182,0.59,0.324
			c0.178,0.145,0.322,0.325,0.432,0.548c0.111,0.22,0.171,0.47,0.184,0.751h-0.883c-0.018-0.309-0.116-0.535-0.298-0.68
			c-0.183-0.146-0.407-0.217-0.669-0.217c-0.232,0-0.447,0.077-0.648,0.226c-0.199,0.153-0.305,0.375-0.319,0.669
			c0.003,0.008,0.015,0.053,0.033,0.145c0.019,0.09,0.034,0.148,0.04,0.176c0.059,0.212,0.261,0.391,0.605,0.531
			c0.346,0.143,0.694,0.281,1.043,0.412c0.352,0.132,0.646,0.323,0.889,0.58c0.242,0.256,0.361,0.619,0.361,1.092
			c0,0.082-0.01,0.197-0.025,0.354c-0.049,0.397-0.18,0.725-0.393,0.98c-0.215,0.255-0.465,0.443-0.756,0.558
			c-0.29,0.115-0.574,0.172-0.855,0.172c-0.391,0-0.737-0.088-1.045-0.267c-0.307-0.181-0.546-0.424-0.716-0.729
			c-0.169-0.311-0.255-0.652-0.255-1.029l0.875-0.024c0.01,0.369,0.137,0.67,0.375,0.899c0.238,0.23,0.51,0.353,0.816,0.362
			c0.307-0.027,0.567-0.146,0.783-0.356c0.217-0.211,0.323-0.464,0.323-0.764c0-0.265-0.086-0.505-0.259-0.723
			c-0.176-0.215-0.441-0.367-0.803-0.459c-0.49-0.129-0.911-0.317-1.261-0.555C238.21,66.003,238.01,65.651,237.955,65.181z"/>
		<path d="M247.917,69.742l-2.711-6.447h0.94l2.229,5.341l2.238-5.341h0.944l-2.748,6.447H247.917z"/>
		<path d="M252.333,62.517v-1.495h0.872v1.495H252.333z M252.333,69.742v-6.447h0.872v6.447H252.333z"/>
		<path d="M254.378,66.217c0.053-0.599,0.242-1.132,0.564-1.597c0.325-0.463,0.73-0.824,1.219-1.08
			c0.488-0.255,0.989-0.391,1.506-0.41c0.545,0,1.053,0.104,1.524,0.314c0.473,0.209,0.856,0.536,1.151,0.984v-3.407h0.872v8.721
			h-0.828v-1.226c-0.307,0.458-0.675,0.801-1.103,1.027s-0.953,0.34-1.574,0.34c-0.527-0.023-1.055-0.18-1.574-0.467
			c-0.521-0.288-0.945-0.689-1.274-1.199c-0.331-0.51-0.497-1.086-0.497-1.727C254.367,66.37,254.371,66.28,254.378,66.217z
			 M255.274,66.148c-0.017,0.079-0.022,0.196-0.022,0.356c0,0.424,0.111,0.831,0.332,1.221c0.222,0.391,0.527,0.705,0.915,0.947
			c0.387,0.241,0.814,0.367,1.287,0.373c0.425,0,0.837-0.105,1.24-0.319c0.401-0.212,0.729-0.521,0.981-0.922
			c0.256-0.402,0.382-0.866,0.382-1.397c0-0.285-0.09-0.617-0.272-1c-0.182-0.385-0.467-0.716-0.861-0.998
			c-0.391-0.28-0.883-0.422-1.473-0.422c-0.322,0-0.658,0.072-1.008,0.216c-0.354,0.144-0.67,0.377-0.949,0.702
			C255.546,65.231,255.362,65.646,255.274,66.148z"/>
		<path d="M262.385,66.56c0.006-0.514,0.106-0.985,0.302-1.41c0.195-0.428,0.459-0.793,0.787-1.092
			c0.33-0.299,0.699-0.527,1.111-0.688c0.411-0.159,0.83-0.24,1.253-0.24c1.179,0.029,2.023,0.5,2.534,1.416v-1.251h0.85v6.447
			h-0.85v-1.226c-0.242,0.433-0.594,0.769-1.05,1.007c-0.459,0.239-0.978,0.357-1.558,0.357c-0.44-0.011-0.865-0.095-1.27-0.255
			s-0.766-0.384-1.088-0.676c-0.318-0.291-0.568-0.641-0.752-1.049C262.477,67.495,262.385,67.047,262.385,66.56z M263.281,66.359
			c0,0.528,0.115,0.998,0.35,1.407c0.232,0.408,0.541,0.721,0.922,0.938c0.383,0.22,0.787,0.332,1.215,0.342
			c0.491,0,0.937-0.118,1.335-0.355c0.399-0.236,0.708-0.547,0.933-0.933c0.225-0.387,0.34-0.784,0.34-1.2
			c0-0.457-0.113-0.876-0.33-1.264c-0.216-0.387-0.518-0.695-0.9-0.926c-0.383-0.229-0.801-0.357-1.259-0.383
			c-0.495,0-0.944,0.124-1.342,0.373c-0.399,0.246-0.71,0.559-0.932,0.93C263.39,65.663,263.281,66.021,263.281,66.359z"/>
		<path d="M270.508,65.181c-0.009-0.062-0.013-0.151-0.013-0.258c0-0.375,0.093-0.695,0.278-0.966
			c0.187-0.269,0.423-0.468,0.7-0.603c0.283-0.135,0.559-0.201,0.824-0.201c0.219,0,0.432,0.037,0.646,0.109
			c0.218,0.073,0.414,0.182,0.592,0.324c0.178,0.145,0.32,0.325,0.433,0.548c0.109,0.22,0.17,0.47,0.183,0.751h-0.885
			c-0.016-0.309-0.115-0.535-0.297-0.68c-0.184-0.146-0.406-0.217-0.668-0.217c-0.23,0-0.449,0.077-0.648,0.226
			c-0.199,0.153-0.307,0.375-0.319,0.669c0.002,0.008,0.013,0.053,0.034,0.145c0.016,0.089,0.033,0.148,0.037,0.176
			c0.061,0.212,0.263,0.391,0.607,0.531c0.346,0.143,0.693,0.281,1.043,0.412c0.352,0.132,0.646,0.323,0.887,0.58
			c0.242,0.256,0.361,0.619,0.361,1.092c0,0.082-0.008,0.197-0.023,0.354c-0.049,0.397-0.18,0.725-0.393,0.98
			c-0.215,0.255-0.467,0.443-0.756,0.558c-0.291,0.115-0.576,0.172-0.855,0.172c-0.391,0-0.738-0.088-1.045-0.267
			c-0.308-0.181-0.547-0.424-0.717-0.729c-0.168-0.311-0.254-0.652-0.254-1.029l0.875-0.024c0.011,0.369,0.137,0.67,0.375,0.899
			c0.238,0.23,0.511,0.353,0.816,0.362c0.307-0.027,0.567-0.146,0.783-0.356c0.217-0.211,0.324-0.464,0.324-0.764
			c0-0.265-0.086-0.505-0.26-0.723c-0.176-0.215-0.441-0.367-0.801-0.459c-0.491-0.129-0.911-0.317-1.263-0.555
			C270.763,66.003,270.563,65.651,270.508,65.181z"/>
		<path d="M275.738,69.742v-1.591h0.941v1.591H275.738z"/>
		<path d="M281.729,69.742v-8.721h2.289c0.687,0,1.276,0.071,1.774,0.218c0.494,0.145,0.895,0.398,1.197,0.764
			c0.301,0.36,0.473,0.857,0.518,1.48c0.01,0.056,0.012,0.135,0.012,0.235c0,0.485-0.127,0.916-0.385,1.295
			c-0.254,0.382-0.613,0.676-1.07,0.888c-0.458,0.213-0.979,0.317-1.559,0.317h-1.9v3.524L281.729,69.742L281.729,69.742z
			 M282.601,61.798v3.643h1.804c0.767,0,1.33-0.176,1.689-0.529c0.356-0.354,0.538-0.829,0.538-1.426
			c-0.033-0.619-0.27-1.055-0.71-1.307s-1.04-0.379-1.8-0.379L282.601,61.798L282.601,61.798z"/>
		<path d="M288.411,69.742v-6.471h0.814v0.968c0.358-0.738,0.986-1.107,1.884-1.107v0.883c-0.204,0-0.416,0.046-0.633,0.129
			c-0.219,0.086-0.419,0.211-0.604,0.369c-0.184,0.157-0.326,0.346-0.436,0.562c-0.111,0.212-0.166,0.442-0.166,0.69v3.981h-0.86
			V69.742z"/>
		<path d="M291.292,66.407c0.007-0.424,0.095-0.833,0.267-1.227c0.174-0.393,0.414-0.74,0.725-1.045s0.678-0.543,1.102-0.721
			c0.426-0.176,0.887-0.262,1.383-0.262c0.471,0,0.955,0.135,1.447,0.405c0.494,0.271,0.91,0.639,1.248,1.108
			c0.337,0.467,0.526,0.986,0.569,1.548c0,0.029,0.001,0.071,0.007,0.127c0.003,0.054,0.004,0.094,0.004,0.12
			c0,0.475-0.089,0.92-0.267,1.338c-0.179,0.414-0.425,0.779-0.746,1.092c-0.318,0.314-0.681,0.559-1.091,0.73
			c-0.41,0.174-0.841,0.258-1.291,0.258c-0.545,0-1.076-0.137-1.596-0.408c-0.519-0.272-0.941-0.673-1.272-1.201
			C291.455,67.745,291.292,67.123,291.292,66.407z M292.141,66.452c0,0.516,0.114,0.969,0.343,1.354
			c0.23,0.39,0.539,0.689,0.925,0.904c0.39,0.217,0.81,0.335,1.269,0.357c0.381,0,0.765-0.104,1.142-0.309
			c0.382-0.205,0.696-0.506,0.944-0.902c0.252-0.396,0.375-0.866,0.375-1.406c0-0.313-0.066-0.617-0.194-0.913
			c-0.131-0.294-0.312-0.56-0.541-0.796c-0.229-0.23-0.495-0.416-0.797-0.552c-0.301-0.136-0.61-0.204-0.929-0.204
			c-0.434,0.013-0.844,0.121-1.229,0.334c-0.39,0.214-0.698,0.506-0.938,0.877C292.273,65.567,292.148,65.99,292.141,66.452z"/>
		<path d="M299.591,69.742v-5.66h-1.355v-0.787h1.355v-2.273h0.868v2.273h1.497v0.787h-1.497v5.66H299.591z"/>
		<path d="M302.183,66.477c0.016-0.517,0.115-0.979,0.305-1.392c0.188-0.415,0.443-0.766,0.764-1.057
			c0.321-0.289,0.676-0.512,1.067-0.662s0.79-0.23,1.202-0.236c0.551,0,1.086,0.135,1.601,0.402c0.517,0.267,0.937,0.67,1.27,1.205
			c0.329,0.535,0.491,1.173,0.491,1.916v0.164h-5.822c0.039,0.479,0.186,0.885,0.441,1.223c0.256,0.336,0.562,0.588,0.927,0.755
			c0.366,0.167,0.723,0.251,1.072,0.251c0.312,0,0.628-0.062,0.946-0.187s0.599-0.296,0.844-0.514
			c0.246-0.219,0.418-0.459,0.52-0.725h0.896c-0.182,0.493-0.444,0.913-0.791,1.255c-0.346,0.344-0.732,0.596-1.161,0.762
			c-0.43,0.164-0.864,0.246-1.302,0.246c-0.574-0.023-1.108-0.176-1.609-0.459c-0.502-0.281-0.9-0.68-1.205-1.189
			C302.335,67.723,302.183,67.138,302.183,66.477z M308.031,66.042c-0.072-0.372-0.225-0.717-0.459-1.033
			c-0.234-0.318-0.526-0.568-0.881-0.76c-0.355-0.188-0.736-0.283-1.148-0.283c-0.553,0-1.012,0.129-1.38,0.391
			c-0.364,0.262-0.633,0.554-0.806,0.877c-0.174,0.322-0.274,0.592-0.3,0.804h4.974V66.042L308.031,66.042z"/>
		<path d="M309.716,66.501c0-0.674,0.158-1.268,0.475-1.775c0.314-0.508,0.719-0.898,1.21-1.172c0.49-0.272,0.996-0.416,1.51-0.424
			c0.394,0,0.767,0.058,1.12,0.177c0.356,0.118,0.666,0.286,0.938,0.503c0.272,0.221,0.478,0.473,0.617,0.76v-1.298h0.825v5.917
			c0,0.492-0.084,0.933-0.256,1.31c-0.172,0.381-0.405,0.696-0.703,0.948c-0.297,0.254-0.638,0.441-1.02,0.568
			c-0.383,0.126-0.779,0.189-1.189,0.189c-0.369,0-0.729-0.052-1.082-0.152c-0.354-0.1-0.68-0.247-0.974-0.443
			c-0.298-0.194-0.556-0.439-0.767-0.729c-0.217-0.292-0.371-0.627-0.465-0.999h0.85c0.211,0.494,0.534,0.873,0.969,1.133
			c0.438,0.258,0.91,0.389,1.42,0.389c0.424,0,0.816-0.086,1.182-0.262c0.363-0.176,0.661-0.433,0.879-0.773
			c0.221-0.34,0.332-0.74,0.332-1.203v-0.705c-0.51,0.949-1.347,1.424-2.512,1.424c-0.4,0-0.799-0.074-1.197-0.22
			c-0.399-0.149-0.762-0.366-1.084-0.659c-0.324-0.289-0.585-0.649-0.777-1.073C309.822,67.504,309.722,67.028,309.716,66.501z
			 M310.587,66.334c0,0.541,0.112,1.017,0.332,1.425c0.219,0.409,0.521,0.724,0.895,0.942c0.375,0.22,0.787,0.333,1.236,0.344
			c0.357,0,0.73-0.091,1.125-0.275c0.393-0.187,0.729-0.476,1.001-0.874c0.273-0.396,0.41-0.896,0.41-1.488
			c0-0.301-0.067-0.598-0.202-0.891c-0.133-0.293-0.32-0.556-0.559-0.783c-0.236-0.229-0.517-0.41-0.835-0.544
			c-0.319-0.134-0.655-0.2-1.009-0.2c-0.615,0.017-1.101,0.176-1.455,0.484c-0.356,0.307-0.6,0.641-0.733,1.003
			C310.655,65.84,310.587,66.127,310.587,66.334z"/>
	</g>
	<path d="M317.548,66.477c0.016-0.517,0.115-0.979,0.303-1.392c0.189-0.415,0.444-0.766,0.764-1.057
		c0.322-0.289,0.677-0.512,1.068-0.662c0.39-0.15,0.791-0.23,1.201-0.236c0.552,0,1.084,0.135,1.602,0.402
		c0.516,0.267,0.938,0.67,1.268,1.205c0.331,0.535,0.492,1.173,0.492,1.916v0.164h-5.822c0.037,0.479,0.184,0.885,0.44,1.223
		c0.255,0.336,0.563,0.588,0.927,0.755c0.365,0.167,0.723,0.251,1.072,0.251c0.312,0,0.629-0.062,0.947-0.187
		s0.598-0.296,0.843-0.514c0.247-0.219,0.419-0.459,0.521-0.725h0.896c-0.182,0.493-0.444,0.913-0.79,1.255
		c-0.346,0.344-0.734,0.596-1.162,0.762c-0.43,0.164-0.863,0.246-1.301,0.246c-0.574-0.023-1.109-0.176-1.61-0.459
		c-0.501-0.281-0.9-0.68-1.204-1.189C317.699,67.723,317.548,67.138,317.548,66.477z M323.394,66.042
		c-0.071-0.372-0.225-0.717-0.458-1.033c-0.233-0.318-0.526-0.568-0.882-0.76c-0.353-0.188-0.736-0.283-1.148-0.283
		c-0.552,0-1.012,0.129-1.379,0.391c-0.363,0.262-0.631,0.554-0.805,0.877c-0.174,0.322-0.272,0.592-0.299,0.804h4.971V66.042
		L323.394,66.042z"/>
	<path d="M325.382,63.295h0.828v0.874c0.152-0.323,0.387-0.572,0.695-0.751c0.312-0.177,0.653-0.265,1.025-0.265
		c0.451,0,0.881,0.107,1.29,0.324s0.731,0.516,0.972,0.898c0.229-0.392,0.529-0.692,0.9-0.896c0.369-0.203,0.76-0.305,1.162-0.305
		c0.345,0,0.678,0.062,1.002,0.187s0.614,0.298,0.865,0.524c0.256,0.222,0.457,0.492,0.604,0.807
		c0.15,0.316,0.224,0.655,0.224,1.016v4.031h-0.848v-3.887c0-0.391-0.086-0.725-0.255-1.002c-0.17-0.279-0.393-0.488-0.671-0.627
		c-0.28-0.142-0.577-0.213-0.9-0.213c-0.288,0-0.56,0.062-0.814,0.187c-0.253,0.126-0.455,0.314-0.606,0.562
		c-0.152,0.248-0.226,0.539-0.226,0.879v4.101h-0.897V65.78c0-0.361-0.084-0.674-0.26-0.943c-0.173-0.269-0.4-0.475-0.686-0.613
		c-0.281-0.143-0.584-0.214-0.904-0.214c-0.291,0-0.563,0.064-0.812,0.194c-0.25,0.129-0.446,0.324-0.594,0.59
		c-0.147,0.262-0.222,0.584-0.222,0.965v3.982h-0.869L325.382,63.295L325.382,63.295z"/>
	<path d="M336.09,66.407c0.009-0.424,0.096-0.833,0.268-1.227c0.173-0.393,0.415-0.74,0.726-1.045s0.678-0.543,1.102-0.721
		c0.426-0.176,0.887-0.262,1.383-0.262c0.473,0,0.955,0.135,1.449,0.405c0.492,0.271,0.908,0.639,1.246,1.108
		c0.337,0.467,0.525,0.986,0.569,1.548c0,0.029,0.001,0.071,0.007,0.127c0.002,0.054,0.004,0.094,0.004,0.12
		c0,0.475-0.088,0.92-0.266,1.338c-0.18,0.414-0.426,0.779-0.746,1.092c-0.319,0.314-0.681,0.559-1.093,0.73
		c-0.409,0.174-0.839,0.258-1.29,0.258c-0.545,0-1.075-0.137-1.596-0.408c-0.519-0.272-0.939-0.673-1.271-1.201
		C336.254,67.745,336.09,67.123,336.09,66.407z M336.94,66.452c0,0.516,0.116,0.969,0.345,1.354c0.229,0.39,0.537,0.689,0.925,0.904
		c0.388,0.217,0.81,0.335,1.267,0.357c0.383,0,0.764-0.104,1.144-0.309s0.695-0.506,0.944-0.902c0.25-0.396,0.375-0.866,0.375-1.406
		c0-0.313-0.066-0.617-0.196-0.913c-0.13-0.294-0.31-0.56-0.541-0.796c-0.229-0.23-0.493-0.416-0.797-0.552
		c-0.301-0.136-0.61-0.204-0.931-0.204c-0.433,0.013-0.844,0.121-1.229,0.334c-0.388,0.214-0.697,0.506-0.937,0.877
		C337.07,65.569,336.947,65.99,336.94,66.452z"/>
	<path d="M343.706,65.181c-0.008-0.062-0.011-0.151-0.011-0.258c0-0.375,0.09-0.695,0.278-0.966c0.187-0.269,0.42-0.468,0.7-0.603
		c0.283-0.135,0.557-0.201,0.824-0.201c0.216,0,0.431,0.037,0.646,0.109c0.215,0.073,0.412,0.182,0.589,0.324
		c0.179,0.145,0.323,0.325,0.433,0.548c0.109,0.22,0.17,0.47,0.184,0.751h-0.885c-0.014-0.309-0.115-0.535-0.297-0.68
		c-0.182-0.146-0.404-0.217-0.667-0.217c-0.231,0-0.448,0.077-0.647,0.226c-0.201,0.153-0.307,0.375-0.322,0.669
		c0.002,0.008,0.016,0.053,0.034,0.145c0.019,0.089,0.033,0.148,0.038,0.176c0.061,0.212,0.263,0.391,0.607,0.531
		c0.346,0.143,0.693,0.281,1.043,0.412c0.352,0.132,0.646,0.323,0.887,0.58c0.242,0.256,0.363,0.619,0.363,1.092
		c0,0.082-0.01,0.197-0.025,0.354c-0.049,0.397-0.179,0.725-0.394,0.98c-0.213,0.255-0.464,0.443-0.755,0.558
		c-0.289,0.115-0.576,0.172-0.856,0.172c-0.39,0-0.738-0.088-1.045-0.267c-0.308-0.181-0.546-0.424-0.716-0.729
		c-0.169-0.311-0.255-0.652-0.255-1.029l0.874-0.024c0.012,0.369,0.137,0.67,0.375,0.899c0.238,0.23,0.511,0.353,0.816,0.362
		c0.309-0.027,0.567-0.146,0.785-0.356c0.215-0.211,0.323-0.464,0.323-0.764c0-0.265-0.086-0.505-0.259-0.723
		c-0.176-0.215-0.441-0.367-0.801-0.459c-0.492-0.129-0.912-0.317-1.262-0.555C343.96,66.003,343.759,65.651,343.706,65.181z"/>
	<path d="M351.345,66.56c0.006-0.514,0.106-0.985,0.302-1.41c0.196-0.428,0.458-0.793,0.788-1.092
		c0.329-0.299,0.697-0.527,1.109-0.688c0.412-0.159,0.83-0.24,1.254-0.24c1.178,0.029,2.021,0.5,2.533,1.416v-1.251h0.85v6.447
		h-0.85v-1.226c-0.242,0.433-0.592,0.769-1.051,1.007c-0.457,0.239-0.975,0.357-1.555,0.357c-0.441-0.011-0.866-0.095-1.27-0.255
		c-0.406-0.158-0.766-0.384-1.087-0.676c-0.321-0.291-0.571-0.641-0.753-1.049C351.435,67.495,351.345,67.047,351.345,66.56z
		 M352.241,66.359c0,0.528,0.118,0.998,0.35,1.407c0.233,0.408,0.541,0.721,0.925,0.938c0.381,0.22,0.785,0.332,1.212,0.342
		c0.493,0,0.937-0.118,1.338-0.355c0.395-0.236,0.706-0.547,0.933-0.933c0.224-0.387,0.337-0.784,0.337-1.2
		c0-0.457-0.11-0.876-0.326-1.264c-0.222-0.387-0.522-0.695-0.901-0.926c-0.385-0.229-0.803-0.357-1.259-0.383
		c-0.497,0-0.945,0.124-1.343,0.373c-0.399,0.246-0.709,0.559-0.931,0.93C352.35,65.663,352.241,66.021,352.241,66.359z"/>
	<path d="M362.695,69.742v-8.721h0.873v8.721H362.695z"/>
	<path d="M364.742,66.56c0.008-0.514,0.107-0.985,0.302-1.41c0.194-0.428,0.46-0.793,0.788-1.092s0.696-0.527,1.109-0.688
		c0.412-0.159,0.831-0.24,1.252-0.24c1.18,0.029,2.023,0.5,2.535,1.416v-1.251h0.85v6.447h-0.85v-1.226
		c-0.242,0.433-0.592,0.769-1.051,1.007c-0.458,0.239-0.977,0.357-1.557,0.357c-0.441-0.011-0.864-0.095-1.269-0.255
		c-0.405-0.158-0.767-0.384-1.087-0.676c-0.32-0.291-0.57-0.641-0.752-1.049C364.832,67.495,364.742,67.047,364.742,66.56z
		 M365.636,66.359c0,0.528,0.118,0.998,0.35,1.407c0.233,0.408,0.541,0.721,0.924,0.938c0.383,0.22,0.785,0.332,1.212,0.342
		c0.493,0,0.938-0.118,1.338-0.355c0.395-0.236,0.708-0.547,0.935-0.933c0.224-0.387,0.336-0.784,0.336-1.2
		c0-0.457-0.109-0.876-0.325-1.264c-0.222-0.387-0.522-0.695-0.901-0.926c-0.385-0.229-0.803-0.357-1.258-0.383
		c-0.498,0-0.945,0.124-1.344,0.373c-0.399,0.246-0.71,0.559-0.93,0.93C365.747,65.663,365.636,66.021,365.636,66.359z"/>
	<path d="M375.857,66.501c0-0.674,0.156-1.268,0.474-1.775c0.316-0.508,0.719-0.898,1.21-1.172c0.492-0.272,0.996-0.416,1.51-0.424
		c0.393,0,0.768,0.058,1.12,0.177c0.356,0.118,0.667,0.286,0.938,0.503c0.272,0.221,0.478,0.473,0.617,0.76v-1.298h0.828v5.917
		c0,0.492-0.085,0.933-0.257,1.31c-0.172,0.381-0.405,0.696-0.703,0.948c-0.298,0.254-0.638,0.441-1.02,0.568
		c-0.384,0.126-0.78,0.189-1.19,0.189c-0.369,0-0.73-0.052-1.082-0.152c-0.353-0.1-0.679-0.247-0.975-0.443
		c-0.296-0.194-0.553-0.439-0.767-0.729c-0.215-0.292-0.37-0.627-0.464-0.999h0.849c0.214,0.494,0.534,0.873,0.971,1.133
		c0.438,0.258,0.909,0.389,1.421,0.389c0.422,0,0.816-0.086,1.18-0.262c0.365-0.176,0.66-0.433,0.88-0.773
		c0.222-0.34,0.333-0.74,0.333-1.203v-0.705c-0.512,0.949-1.346,1.424-2.512,1.424c-0.401,0-0.799-0.074-1.198-0.22
		c-0.399-0.149-0.764-0.366-1.083-0.659c-0.325-0.289-0.586-0.649-0.778-1.073C375.962,67.504,375.863,67.028,375.857,66.501z
		 M376.728,66.334c0,0.541,0.111,1.017,0.332,1.425c0.222,0.409,0.521,0.724,0.895,0.942c0.374,0.22,0.785,0.333,1.238,0.344
		c0.355,0,0.729-0.091,1.124-0.275c0.392-0.187,0.729-0.476,1.003-0.874c0.273-0.396,0.41-0.896,0.41-1.488
		c0-0.301-0.067-0.598-0.203-0.891c-0.133-0.293-0.318-0.556-0.559-0.783c-0.236-0.229-0.516-0.41-0.834-0.544
		c-0.32-0.134-0.656-0.2-1.008-0.2c-0.617,0.017-1.102,0.176-1.457,0.484c-0.355,0.307-0.602,0.641-0.734,1.003
		C376.794,65.84,376.728,66.127,376.728,66.334z"/>
	<path d="M383.74,66.477c0.016-0.517,0.117-0.979,0.301-1.392c0.189-0.415,0.445-0.766,0.766-1.057
		c0.32-0.289,0.675-0.512,1.066-0.662c0.389-0.152,0.792-0.23,1.202-0.236c0.552,0,1.083,0.135,1.603,0.402
		c0.515,0.267,0.936,0.67,1.266,1.205s0.492,1.173,0.492,1.916v0.164h-5.821c0.038,0.479,0.187,0.885,0.438,1.223
		c0.255,0.336,0.564,0.588,0.93,0.755c0.363,0.167,0.723,0.251,1.07,0.251c0.313,0,0.627-0.062,0.947-0.187
		c0.319-0.125,0.6-0.296,0.843-0.514c0.247-0.219,0.42-0.459,0.521-0.725h0.894c-0.18,0.493-0.443,0.913-0.789,1.255
		c-0.346,0.344-0.73,0.596-1.162,0.762c-0.428,0.164-0.863,0.246-1.301,0.246c-0.573-0.023-1.107-0.176-1.61-0.459
		c-0.501-0.283-0.9-0.68-1.204-1.189C383.892,67.723,383.74,67.138,383.74,66.477z M389.586,66.042
		c-0.073-0.372-0.224-0.717-0.458-1.033c-0.232-0.318-0.526-0.568-0.88-0.76c-0.354-0.188-0.735-0.283-1.149-0.283
		c-0.553,0-1.011,0.129-1.377,0.391c-0.365,0.262-0.636,0.554-0.808,0.877c-0.173,0.322-0.272,0.592-0.3,0.804h4.974L389.586,66.042
		L389.586,66.042z"/>
	<path d="M391.574,69.742v-6.447h0.828v0.968c0.214-0.357,0.504-0.629,0.871-0.82c0.367-0.193,0.764-0.289,1.176-0.289
		c0.362,0,0.713,0.064,1.051,0.195c0.338,0.13,0.64,0.32,0.905,0.568c0.268,0.251,0.479,0.561,0.638,0.934
		c0.156,0.372,0.236,0.789,0.236,1.248v3.644h-0.847v-3.644c0-0.445-0.096-0.826-0.288-1.141c-0.192-0.313-0.442-0.551-0.754-0.709
		c-0.309-0.156-0.639-0.235-0.991-0.235c-0.343,0-0.661,0.075-0.962,0.226c-0.297,0.152-0.537,0.376-0.721,0.676
		c-0.184,0.299-0.275,0.659-0.275,1.076v3.75L391.574,69.742L391.574,69.742z"/>
	<path d="M399.179,69.742v-5.66h-1.355v-0.787h1.355v-2.273h0.872v2.273h1.497v0.787h-1.497v5.66H399.179z"/>
	<path d="M401.774,66.477c0.015-0.517,0.114-0.979,0.304-1.392c0.188-0.415,0.443-0.766,0.764-1.057
		c0.321-0.289,0.676-0.512,1.067-0.662s0.792-0.23,1.202-0.236c0.551,0,1.086,0.135,1.602,0.402c0.517,0.267,0.938,0.67,1.27,1.205
		c0.328,0.535,0.49,1.173,0.49,1.916v0.164h-5.822c0.039,0.479,0.187,0.885,0.441,1.223c0.256,0.336,0.562,0.588,0.929,0.755
		c0.364,0.167,0.721,0.251,1.071,0.251c0.312,0,0.628-0.062,0.944-0.187c0.321-0.125,0.6-0.296,0.845-0.514
		c0.246-0.219,0.418-0.459,0.521-0.725h0.897c-0.184,0.493-0.444,0.913-0.793,1.255c-0.345,0.344-0.731,0.596-1.161,0.762
		c-0.428,0.164-0.864,0.246-1.302,0.246c-0.574-0.023-1.109-0.176-1.609-0.459c-0.5-0.281-0.9-0.68-1.204-1.189
		C401.925,67.723,401.774,67.138,401.774,66.477z M407.621,66.042c-0.072-0.372-0.225-0.717-0.459-1.033
		c-0.233-0.318-0.526-0.568-0.881-0.76c-0.355-0.188-0.736-0.283-1.148-0.283c-0.553,0-1.012,0.129-1.379,0.391
		c-0.365,0.262-0.634,0.554-0.809,0.877c-0.172,0.322-0.271,0.592-0.297,0.804h4.973V66.042L407.621,66.042z"/>
	<path d="M410.376,61.729h-1.578v-0.708h4.021v0.708h-1.568v4.262h-0.872L410.376,61.729L410.376,61.729z M413.701,65.991v-4.971
		h1.263l1.427,3.498l1.475-3.498h1.26v4.971h-0.775v-4.262l-1.721,4.262h-0.459l-1.687-4.262v4.262H413.701z"/>
</g>
</svg>
