<?xml version="1.0" encoding="utf-8"?>
<!-- Generator: Adobe Illustrator 16.0.3, SVG Export Plug-In . SVG Version: 6.00 Build 0)  -->
<!DOCTYPE svg PUBLIC "-//W3C//DTD SVG 1.1//EN" "http://www.w3.org/Graphics/SVG/1.1/DTD/svg11.dtd">
<svg version="1.1" id="Layer_1" xmlns="http://www.w3.org/2000/svg" xmlns:xlink="http://www.w3.org/1999/xlink" x="0px" y="0px"
	 width="462.761px" height="42.535px" viewBox="0 0 462.761 42.535" enable-background="new 0 0 462.761 42.535"
	 xml:space="preserve">
<g>
	<g>
		<path fill="#FFFFFF" d="M1.205,0h69.562v42.535H1.205V0z"/>
	</g>
	<g>
		<path fill="#105EAB" d="M1.888,0.695h68.196v41.102H1.888V0.695z"/>
	</g>
	<polygon fill="#FFFFFF" points="29.884,41.789 70.068,1.078 70.068,0.669 69.867,0.669 29.282,41.789 	"/>
	<polygon fill="#FFFFFF" points="4.546,41.789 7.262,0.669 6.834,0.669 4.118,41.789 	"/>
	<polygon fill="#FFFFFF" points="6.719,41.789 12.586,0.669 12.152,0.669 6.288,41.789 	"/>
	<polygon fill="#FFFFFF" points="9.044,41.789 18.222,0.669 17.787,0.669 8.605,41.789 	"/>
	<polygon fill="#FFFFFF" points="11.598,41.789 24.697,0.669 24.255,0.669 11.152,41.789 	"/>
	<polygon fill="#FFFFFF" points="14.006,41.789 30.835,0.669 30.372,0.669 13.542,41.789 	"/>
	<polygon fill="#FFFFFF" points="16.776,41.789 37.826,0.669 37.355,0.669 16.294,41.789 	"/>
	<polygon fill="#FFFFFF" points="48.343,0.669 47.832,0.669 20.58,41.789 21.09,41.789 	"/>
	<polygon fill="#FFFFFF" points="58.061,0.669 57.523,0.669 24.393,41.789 24.939,41.789 	"/>
	<polygon fill="#FFFFFF" points="70.068,16.228 70.068,15.689 37.217,41.789 37.894,41.789 	"/>
	<polygon fill="#FFFFFF" points="70.068,27.539 70.068,27.037 46.467,41.789 47.275,41.789 	"/>
	<polygon fill="#FFFFFF" points="70.068,38.212 70.068,37.736 61.384,41.789 62.392,41.789 	"/>
	<path fill="#FFFFFF" d="M22.244,25.391c-0.844,0.811-2.965,1.682-4.522,1.664c-4.53-0.005-6.647-3.854-6.686-9.732
		c0.031-5.566,2.315-9.109,6.239-9.117c2.806,0.006,4.17,1.633,4.915,2.602l0.821,1.096V6.841L22.749,6.72
		c-1.617-0.752-3.671-1.104-5.543-1.107C10.162,5.628,4.785,10.677,4.775,17.806c0.01,7.313,5.092,11.9,12.37,11.914h0.037
		c3.614,0,5.467-1.09,6.445-1.84l0.29-0.221l-1.206-2.707L22.244,25.391z M41.983,8.24C39.625,6.509,36.673,6,34.155,6h-8.604
		v23.305h9.164c4.444-0.01,11.312-2.83,11.323-11.717C46.046,12.935,44.348,9.968,41.983,8.24z M31.21,26.6V8.63
		c4.162,0.111,8.59,0.617,8.669,9.051C39.812,25.873,35.281,26.488,31.21,26.6z M65.665,24.955l-0.467,0.438
		c-0.845,0.812-2.959,1.681-4.515,1.662c-4.531,0-6.65-3.854-6.688-9.731c0.031-5.568,2.318-9.109,6.247-9.117
		c2.802,0.004,4.169,1.631,4.899,2.602l0.825,1.107V6.841l-0.261-0.123c-1.609-0.754-3.662-1.102-5.542-1.105
		c-7.042,0.016-12.405,5.063-12.417,12.193c0.012,7.314,5.081,11.9,12.363,11.914h0.057c3.601,0,5.447-1.092,6.426-1.838l0.29-0.223
		L65.665,24.955z"/>
	<path fill="#0033A0" d="M71.297,40.648h0.822v0.121h-0.344v0.883h-0.13V40.77h-0.348V40.648z"/>
	<path fill="#0033A0" d="M73.075,41.652v-0.604c0-0.021,0-0.149,0-0.246l0,0l-0.286,0.851h-0.134l-0.283-0.851h-0.003
		c0,0.097,0.003,0.226,0.003,0.246v0.604h-0.134v-1.004h0.191l0.293,0.85h0.004l0.281-0.85h0.196v1.004H73.075z"/>
</g>
<g>
	<path d="M78.1,20.32c0.101-0.906,0.409-1.705,0.923-2.396c0.515-0.689,1.157-1.221,1.927-1.592s1.578-0.557,2.422-0.557
		c0.462,0,0.914,0.057,1.355,0.168c0.441,0.111,0.864,0.281,1.266,0.512c0.403,0.227,0.777,0.514,1.124,0.861
		c0.346,0.348,0.65,0.756,0.913,1.227H86.9c-0.294-0.385-0.631-0.711-1.012-0.975c-0.381-0.266-0.781-0.461-1.201-0.586
		c-0.419-0.125-0.838-0.188-1.257-0.188c-0.561,0-1.101,0.1-1.622,0.301c-0.522,0.203-0.987,0.492-1.396,0.871
		c-0.409,0.379-0.732,0.834-0.968,1.363c-0.235,0.533-0.354,1.113-0.354,1.746c0.009,0.813,0.216,1.545,0.621,2.19
		c0.405,0.65,0.936,1.154,1.595,1.519c0.661,0.358,1.358,0.547,2.096,0.559c0.432-0.012,0.863-0.084,1.291-0.221
		c0.429-0.14,0.835-0.342,1.221-0.617c0.386-0.274,0.729-0.619,1.029-1.037h1.13c-0.37,0.636-0.803,1.164-1.298,1.587
		c-0.496,0.422-1.029,0.731-1.6,0.938c-0.57,0.203-1.161,0.305-1.773,0.305c-0.674,0-1.333-0.125-1.972-0.375
		c-0.64-0.25-1.215-0.609-1.725-1.078c-0.51-0.467-0.912-1.031-1.206-1.688c-0.294-0.657-0.44-1.373-0.44-2.148
		C78.057,20.775,78.072,20.546,78.1,20.32z"/>
	<path d="M89.16,22.316c0.016-0.604,0.134-1.146,0.354-1.627c0.221-0.482,0.519-0.895,0.893-1.232c0.375-0.34,0.79-0.6,1.246-0.775
		c0.456-0.178,0.924-0.27,1.403-0.273c0.644,0,1.267,0.154,1.87,0.469c0.603,0.313,1.097,0.781,1.481,1.408
		c0.385,0.629,0.577,1.375,0.577,2.241v0.189h-6.806c0.045,0.561,0.216,1.035,0.515,1.428c0.298,0.396,0.66,0.688,1.084,0.886
		c0.426,0.192,0.842,0.29,1.252,0.29c0.366,0,0.734-0.071,1.107-0.219c0.372-0.145,0.701-0.346,0.986-0.6
		c0.287-0.254,0.488-0.537,0.608-0.848h1.044c-0.21,0.578-0.518,1.068-0.923,1.469c-0.405,0.4-0.857,0.697-1.358,0.889
		c-0.501,0.192-1.007,0.287-1.519,0.287c-0.671-0.025-1.297-0.205-1.881-0.535c-0.583-0.33-1.052-0.797-1.405-1.391
		C89.336,23.775,89.16,23.089,89.16,22.316z M95.992,21.811c-0.085-0.437-0.264-0.838-0.536-1.209
		c-0.272-0.367-0.615-0.664-1.029-0.887c-0.414-0.221-0.861-0.33-1.344-0.33c-0.646,0-1.182,0.154-1.61,0.461
		c-0.429,0.307-0.743,0.646-0.945,1.025c-0.202,0.377-0.318,0.689-0.35,0.938h5.814V21.811z"/>
	<path d="M98.438,26.134v-7.537h0.965v1.131c0.25-0.416,0.588-0.734,1.019-0.959c0.431-0.225,0.889-0.336,1.375-0.336
		c0.424,0,0.832,0.076,1.227,0.23c0.395,0.152,0.748,0.375,1.06,0.666c0.313,0.291,0.56,0.654,0.745,1.088
		c0.185,0.436,0.278,0.922,0.278,1.459v4.26h-0.992v-4.26c0-0.518-0.111-0.963-0.334-1.332c-0.224-0.367-0.516-0.643-0.878-0.828
		c-0.361-0.184-0.749-0.273-1.158-0.273c-0.401,0-0.775,0.086-1.123,0.262c-0.348,0.178-0.628,0.441-0.843,0.791
		c-0.214,0.352-0.321,0.771-0.321,1.26v4.383h-1.02V26.134L98.438,26.134z"/>
	<path d="M107.444,26.134v-6.615h-1.583v-0.922h1.583v-2.656h1.02v2.656h1.748v0.922h-1.748v6.615H107.444z"/>
	<path d="M111.267,26.134v-7.563h0.951V19.7c0.419-0.863,1.154-1.293,2.203-1.293v1.033c-0.238,0-0.484,0.049-0.74,0.148
		c-0.255,0.102-0.49,0.244-0.704,0.432c-0.214,0.186-0.385,0.402-0.513,0.65c-0.128,0.25-0.191,0.518-0.191,0.807v4.656
		L111.267,26.134L111.267,26.134z"/>
	<path d="M114.753,22.236c0.006-0.494,0.111-0.973,0.313-1.435c0.202-0.459,0.483-0.867,0.846-1.223
		c0.361-0.355,0.792-0.637,1.288-0.84c0.497-0.205,1.035-0.309,1.616-0.309c0.551,0,1.116,0.156,1.693,0.475
		c0.577,0.316,1.063,0.748,1.457,1.297c0.395,0.547,0.617,1.15,0.666,1.812c0,0.032,0.002,0.082,0.007,0.146
		c0.004,0.063,0.007,0.11,0.007,0.141c0,0.56-0.104,1.078-0.313,1.564c-0.208,0.483-0.499,0.911-0.871,1.276
		c-0.373,0.365-0.797,0.648-1.277,0.853c-0.479,0.202-0.981,0.303-1.509,0.303c-0.636,0-1.258-0.157-1.864-0.478
		c-0.606-0.318-1.101-0.784-1.484-1.403C114.945,23.798,114.753,23.072,114.753,22.236z M115.746,22.287
		c0,0.604,0.133,1.131,0.402,1.584c0.267,0.453,0.628,0.805,1.081,1.057s0.946,0.393,1.479,0.418c0.447,0,0.892-0.119,1.337-0.356
		c0.445-0.24,0.813-0.595,1.104-1.06c0.292-0.463,0.438-1.012,0.438-1.641c0-0.365-0.077-0.721-0.229-1.068
		c-0.153-0.344-0.363-0.652-0.633-0.926c-0.27-0.271-0.579-0.486-0.931-0.646c-0.352-0.156-0.715-0.234-1.086-0.234
		c-0.507,0.012-0.985,0.139-1.435,0.389c-0.451,0.25-0.816,0.59-1.095,1.025C115.897,21.261,115.754,21.748,115.746,22.287z"/>
	<path d="M123.772,20.802c-0.009-0.074-0.013-0.174-0.013-0.301c0-0.438,0.108-0.813,0.326-1.127
		c0.218-0.314,0.492-0.551,0.82-0.707c0.327-0.156,0.648-0.234,0.961-0.234c0.252,0,0.505,0.043,0.757,0.129
		c0.25,0.084,0.48,0.211,0.688,0.381c0.208,0.168,0.376,0.381,0.504,0.639c0.129,0.26,0.201,0.551,0.214,0.877h-1.032
		c-0.018-0.359-0.134-0.623-0.348-0.795c-0.214-0.166-0.475-0.25-0.782-0.25c-0.271,0-0.523,0.088-0.756,0.266
		c-0.234,0.178-0.358,0.438-0.375,0.779c0.003,0.008,0.016,0.066,0.039,0.17c0.023,0.105,0.039,0.172,0.045,0.203
		c0.07,0.248,0.307,0.457,0.71,0.623c0.403,0.17,0.81,0.33,1.218,0.482c0.409,0.151,0.755,0.379,1.037,0.678
		c0.282,0.297,0.424,0.723,0.424,1.273c0,0.096-0.01,0.229-0.03,0.413c-0.056,0.464-0.209,0.847-0.46,1.146
		c-0.25,0.301-0.544,0.516-0.883,0.647c-0.339,0.135-0.671,0.199-0.999,0.199c-0.456,0-0.863-0.102-1.221-0.311
		c-0.359-0.209-0.638-0.494-0.836-0.855c-0.198-0.359-0.298-0.76-0.298-1.201l1.021-0.029c0.014,0.435,0.159,0.783,0.439,1.054
		c0.279,0.271,0.597,0.412,0.954,0.424c0.358-0.031,0.663-0.17,0.916-0.416c0.251-0.246,0.378-0.543,0.378-0.894
		c0-0.311-0.101-0.59-0.304-0.844c-0.202-0.252-0.515-0.43-0.936-0.535c-0.575-0.153-1.066-0.371-1.474-0.647
		C124.071,21.763,123.835,21.349,123.772,20.802z"/>
	<path d="M133.324,28.764V18.57h0.975v1.354c0.226-0.33,0.49-0.605,0.792-0.826c0.302-0.225,0.628-0.391,0.982-0.504
		c0.353-0.113,0.721-0.176,1.104-0.188c0.512,0,1.012,0.092,1.5,0.273c0.488,0.184,0.927,0.441,1.316,0.775
		c0.388,0.334,0.7,0.734,0.933,1.203c0.233,0.469,0.356,0.977,0.37,1.52c0,0.604-0.102,1.154-0.305,1.65
		c-0.205,0.5-0.493,0.932-0.866,1.301c-0.374,0.369-0.802,0.649-1.285,0.853c-0.484,0.196-1,0.305-1.552,0.315
		c-0.659,0-1.252-0.141-1.78-0.426c-0.528-0.283-0.913-0.679-1.152-1.187v4.076h-1.032V28.764L133.324,28.764z M134.271,22.414
		c0.011,0.447,0.124,0.889,0.338,1.326c0.214,0.438,0.548,0.807,1.003,1.104c0.456,0.302,1.018,0.457,1.688,0.476
		c0.512,0,0.994-0.127,1.446-0.383c0.453-0.252,0.814-0.604,1.085-1.058c0.27-0.45,0.405-0.955,0.405-1.508
		c0-0.524-0.132-1.014-0.396-1.467c-0.265-0.455-0.628-0.818-1.092-1.088c-0.464-0.271-0.979-0.408-1.544-0.408
		c-0.584,0.02-1.101,0.172-1.547,0.455c-0.446,0.281-0.788,0.65-1.026,1.104C134.391,21.427,134.271,21.908,134.271,22.414z"/>
	<path d="M142.362,22.414c0.006-0.602,0.125-1.15,0.353-1.65c0.229-0.5,0.535-0.924,0.92-1.273c0.385-0.35,0.817-0.619,1.298-0.805
		c0.48-0.188,0.969-0.277,1.464-0.277c1.379,0.033,2.367,0.584,2.963,1.652v-1.463h0.992v7.537h-0.992v-1.434
		c-0.282,0.508-0.691,0.898-1.227,1.178c-0.537,0.279-1.143,0.42-1.82,0.42c-0.515-0.014-1.01-0.111-1.482-0.299
		c-0.472-0.184-0.896-0.447-1.27-0.787c-0.372-0.342-0.666-0.75-0.879-1.229C142.468,23.507,142.362,22.984,142.362,22.414z
		 M143.407,22.177c0,0.621,0.136,1.171,0.409,1.646c0.272,0.479,0.631,0.844,1.078,1.098c0.446,0.256,0.919,0.391,1.418,0.4
		c0.577,0,1.096-0.139,1.56-0.416c0.465-0.275,0.828-0.639,1.091-1.09c0.264-0.449,0.396-0.916,0.396-1.4
		c0-0.531-0.127-1.023-0.383-1.475c-0.256-0.453-0.607-0.813-1.054-1.08c-0.448-0.271-0.937-0.42-1.471-0.447
		c-0.581,0-1.104,0.145-1.572,0.434c-0.466,0.289-0.827,0.65-1.086,1.086C143.534,21.365,143.407,21.783,143.407,22.177z"/>
	<path d="M152.228,26.134v-7.563h0.952V19.7c0.419-0.863,1.153-1.293,2.203-1.293v1.033c-0.238,0-0.484,0.049-0.74,0.148
		c-0.256,0.099-0.491,0.244-0.705,0.432c-0.214,0.186-0.385,0.402-0.513,0.65c-0.128,0.25-0.191,0.518-0.191,0.807v4.656
		L152.228,26.134L152.228,26.134z"/>
	<path d="M155.694,22.414c0.006-0.602,0.125-1.15,0.353-1.65c0.23-0.5,0.535-0.924,0.92-1.273c0.385-0.35,0.817-0.619,1.298-0.805
		c0.481-0.188,0.969-0.277,1.465-0.277c1.379,0.033,2.366,0.584,2.962,1.652v-1.463h0.992v7.537h-0.992v-1.434
		c-0.282,0.508-0.692,0.898-1.227,1.178c-0.537,0.279-1.143,0.42-1.82,0.42c-0.515-0.014-1.01-0.111-1.482-0.299
		c-0.472-0.184-0.896-0.447-1.269-0.787c-0.373-0.342-0.666-0.75-0.879-1.229C155.801,23.507,155.694,22.984,155.694,22.414z
		 M156.74,22.177c0,0.621,0.136,1.171,0.409,1.646c0.271,0.479,0.631,0.844,1.077,1.098c0.445,0.256,0.919,0.391,1.418,0.4
		c0.577,0,1.096-0.139,1.561-0.416c0.463-0.275,0.827-0.639,1.09-1.09c0.263-0.449,0.395-0.916,0.395-1.4
		c0-0.531-0.127-1.023-0.383-1.475c-0.256-0.453-0.607-0.813-1.055-1.08c-0.447-0.271-0.937-0.42-1.471-0.447
		c-0.581,0-1.104,0.145-1.57,0.434c-0.467,0.289-0.829,0.65-1.086,1.086C156.868,21.365,156.74,21.783,156.74,22.177z"/>
	<path d="M168.958,22.316c0.017-0.604,0.135-1.146,0.355-1.627c0.221-0.482,0.518-0.895,0.893-1.232
		c0.375-0.34,0.789-0.6,1.246-0.775c0.457-0.178,0.924-0.27,1.403-0.273c0.644,0,1.269,0.154,1.869,0.469
		c0.604,0.313,1.097,0.781,1.481,1.408c0.385,0.629,0.578,1.375,0.578,2.241v0.189h-6.807c0.044,0.561,0.216,1.035,0.514,1.428
		c0.299,0.396,0.66,0.688,1.084,0.886c0.426,0.192,0.842,0.29,1.252,0.29c0.365,0,0.735-0.071,1.107-0.219
		c0.372-0.145,0.699-0.346,0.986-0.6s0.488-0.537,0.607-0.848h1.043c-0.209,0.578-0.517,1.068-0.922,1.469
		c-0.404,0.4-0.857,0.697-1.357,0.889c-0.502,0.191-1.008,0.287-1.519,0.287c-0.672-0.025-1.297-0.205-1.882-0.535
		c-0.584-0.33-1.053-0.797-1.405-1.391C169.136,23.775,168.958,23.089,168.958,22.316z M175.792,21.811
		c-0.086-0.437-0.264-0.838-0.535-1.209c-0.272-0.367-0.616-0.664-1.03-0.887c-0.413-0.221-0.86-0.33-1.343-0.33
		c-0.645,0-1.184,0.154-1.611,0.461c-0.427,0.307-0.742,0.646-0.943,1.025c-0.203,0.377-0.318,0.689-0.35,0.938h5.813
		L175.792,21.811L175.792,21.811z"/>
	<path d="M178.255,26.134V15.941h1.021v10.191h-1.021V26.134z"/>
	<path d="M184.595,20.32c0.102-0.906,0.408-1.705,0.923-2.396c0.517-0.689,1.157-1.221,1.928-1.592s1.577-0.557,2.423-0.557
		c0.463,0,0.914,0.057,1.355,0.168c0.441,0.111,0.863,0.281,1.266,0.512c0.402,0.227,0.776,0.514,1.123,0.861
		c0.348,0.348,0.65,0.756,0.913,1.227h-1.131c-0.293-0.385-0.63-0.711-1.013-0.975c-0.379-0.266-0.779-0.461-1.199-0.586
		c-0.422-0.125-0.84-0.188-1.258-0.188c-0.562,0-1.103,0.1-1.623,0.301c-0.52,0.203-0.985,0.492-1.395,0.871
		c-0.408,0.379-0.732,0.834-0.97,1.363c-0.233,0.533-0.354,1.113-0.354,1.746c0.01,0.813,0.217,1.545,0.621,2.19
		c0.404,0.65,0.937,1.154,1.594,1.519c0.66,0.358,1.359,0.547,2.096,0.559c0.434-0.012,0.863-0.084,1.292-0.221
		c0.429-0.14,0.835-0.342,1.222-0.617c0.385-0.274,0.729-0.619,1.028-1.037h1.131c-0.371,0.636-0.804,1.164-1.3,1.587
		c-0.494,0.422-1.028,0.731-1.6,0.938c-0.569,0.203-1.16,0.305-1.773,0.305c-0.673,0-1.331-0.125-1.971-0.375
		c-0.641-0.25-1.217-0.609-1.727-1.078c-0.509-0.467-0.91-1.031-1.205-1.688c-0.293-0.656-0.439-1.373-0.439-2.148
		C184.55,20.775,184.565,20.546,184.595,20.32z"/>
	<path d="M195.647,22.236c0.006-0.494,0.11-0.973,0.312-1.435c0.203-0.459,0.484-0.867,0.847-1.223
		c0.363-0.356,0.792-0.637,1.289-0.84c0.495-0.205,1.034-0.309,1.614-0.309c0.551,0,1.115,0.156,1.693,0.475
		c0.576,0.316,1.063,0.748,1.457,1.297c0.396,0.547,0.617,1.15,0.666,1.812c0,0.032,0.002,0.082,0.006,0.146
		c0.006,0.063,0.008,0.11,0.008,0.141c0,0.56-0.104,1.078-0.312,1.564c-0.209,0.483-0.5,0.911-0.872,1.276s-0.798,0.648-1.275,0.853
		c-0.479,0.202-0.982,0.303-1.51,0.303c-0.637,0-1.258-0.157-1.863-0.478c-0.606-0.317-1.103-0.784-1.484-1.403
		C195.839,23.798,195.647,23.072,195.647,22.236z M196.639,22.287c0,0.604,0.134,1.131,0.401,1.584
		c0.269,0.453,0.629,0.805,1.082,1.057s0.946,0.393,1.479,0.418c0.445,0,0.893-0.119,1.338-0.356c0.445-0.24,0.813-0.595,1.104-1.06
		c0.293-0.463,0.438-1.012,0.438-1.641c0-0.365-0.078-0.721-0.229-1.068c-0.151-0.344-0.362-0.652-0.633-0.926
		c-0.268-0.271-0.578-0.486-0.931-0.646c-0.353-0.156-0.715-0.234-1.086-0.234c-0.508,0.012-0.985,0.139-1.437,0.389
		s-0.814,0.59-1.095,1.025C196.791,21.261,196.648,21.748,196.639,22.287z"/>
	<path d="M205.009,26.134v-7.537h0.965v1.131c0.25-0.416,0.59-0.734,1.02-0.959c0.432-0.225,0.889-0.336,1.375-0.336
		c0.424,0,0.834,0.076,1.229,0.23c0.395,0.152,0.746,0.375,1.059,0.666s0.561,0.654,0.745,1.088
		c0.185,0.436,0.276,0.922,0.276,1.459v4.26h-0.991v-4.26c0-0.518-0.112-0.963-0.335-1.332c-0.223-0.367-0.516-0.643-0.878-0.828
		c-0.361-0.184-0.748-0.273-1.157-0.273c-0.402,0-0.775,0.086-1.124,0.262c-0.347,0.178-0.627,0.441-0.842,0.791
		c-0.216,0.352-0.321,0.771-0.321,1.26v4.383h-1.02L205.009,26.134L205.009,26.134z"/>
	<path d="M214.016,26.134v-6.615h-1.585v-0.922h1.585v-2.656h1.019v2.656h1.748v0.922h-1.748v6.615H214.016z"/>
	<path d="M217.839,26.134v-7.563h0.951V19.7c0.418-0.863,1.151-1.293,2.201-1.293v1.033c-0.236,0-0.482,0.049-0.74,0.148
		c-0.256,0.102-0.49,0.244-0.703,0.432c-0.215,0.186-0.387,0.402-0.514,0.65c-0.128,0.25-0.191,0.518-0.191,0.807v4.656
		L217.839,26.134L217.839,26.134z"/>
	<path d="M221.324,22.236c0.008-0.494,0.11-0.973,0.313-1.435c0.2-0.459,0.481-0.867,0.845-1.223
		c0.361-0.355,0.792-0.637,1.288-0.84c0.496-0.205,1.035-0.309,1.614-0.309c0.554,0,1.117,0.156,1.693,0.475
		c0.578,0.316,1.063,0.748,1.459,1.297c0.394,0.547,0.616,1.15,0.666,1.812c0,0.032,0.002,0.082,0.008,0.146
		c0.004,0.063,0.006,0.11,0.006,0.141c0,0.56-0.104,1.078-0.313,1.564c-0.208,0.483-0.498,0.911-0.871,1.276
		c-0.371,0.365-0.798,0.648-1.275,0.853c-0.479,0.202-0.98,0.303-1.508,0.303c-0.639,0-1.26-0.157-1.865-0.478
		c-0.606-0.317-1.1-0.784-1.483-1.403C221.519,23.798,221.324,23.072,221.324,22.236z M222.316,22.287
		c0,0.604,0.135,1.131,0.4,1.584c0.269,0.453,0.629,0.805,1.08,1.057c0.455,0.252,0.947,0.393,1.481,0.418
		c0.446,0,0.892-0.119,1.335-0.356c0.445-0.24,0.814-0.595,1.105-1.06c0.291-0.463,0.437-1.012,0.437-1.641
		c0-0.365-0.075-0.721-0.228-1.068c-0.152-0.344-0.362-0.652-0.633-0.926c-0.271-0.271-0.58-0.486-0.933-0.646
		c-0.353-0.156-0.713-0.234-1.085-0.234c-0.508,0.012-0.984,0.139-1.438,0.389c-0.449,0.25-0.814,0.59-1.096,1.025
		C222.468,21.261,222.326,21.748,222.316,22.287z"/>
	<path d="M230.703,26.134V15.941h1.021v10.191h-1.021V26.134z"/>
	<path d="M239.408,25.884l-2.878-7.287h1.073l2.424,6.006l2.549-6.006h1.076l-4.354,10.167h-1.072L239.408,25.884z"/>
	<path d="M248.445,26.134V15.941h1.018v10.191h-1.018V26.134z"/>
	<path d="M250.957,22.414c0.008-0.602,0.125-1.15,0.354-1.65s0.535-0.924,0.92-1.273c0.388-0.35,0.815-0.619,1.299-0.805
		c0.479-0.188,0.97-0.277,1.464-0.277c1.379,0.033,2.366,0.584,2.965,1.652v-1.463h0.99v7.537h-0.99v-1.434
		c-0.285,0.508-0.693,0.898-1.23,1.178c-0.535,0.281-1.141,0.42-1.818,0.42c-0.516-0.014-1.01-0.111-1.481-0.299
		c-0.474-0.184-0.896-0.447-1.271-0.787c-0.373-0.342-0.666-0.75-0.879-1.229C251.062,23.507,250.957,22.984,250.957,22.414z
		 M252.001,22.177c0,0.621,0.137,1.171,0.408,1.646c0.272,0.479,0.635,0.844,1.08,1.098c0.442,0.256,0.918,0.391,1.418,0.4
		c0.575,0,1.096-0.139,1.561-0.416c0.463-0.275,0.828-0.639,1.09-1.09c0.266-0.449,0.396-0.916,0.396-1.4
		c0-0.531-0.127-1.023-0.386-1.475c-0.254-0.453-0.606-0.813-1.055-1.08c-0.445-0.271-0.938-0.42-1.472-0.447
		c-0.58,0-1.104,0.145-1.571,0.434c-0.466,0.289-0.826,0.65-1.084,1.086C252.128,21.368,252.001,21.783,252.001,22.177z"/>
	<path d="M264.675,26.134V15.941h2.672c0.805,0,1.494,0.086,2.076,0.254c0.578,0.17,1.043,0.467,1.396,0.891
		c0.354,0.426,0.556,1.004,0.604,1.732c0.01,0.064,0.014,0.156,0.014,0.277c0,0.563-0.146,1.068-0.447,1.512
		s-0.717,0.789-1.254,1.035c-0.535,0.247-1.145,0.372-1.822,0.372h-2.219v4.118L264.675,26.134L264.675,26.134z M265.695,16.849
		v4.258h2.107c0.896,0,1.555-0.205,1.975-0.619c0.42-0.412,0.629-0.969,0.629-1.666c-0.039-0.728-0.314-1.234-0.828-1.529
		c-0.516-0.295-1.215-0.441-2.104-0.441h-1.779V16.849z"/>
	<path d="M272.603,26.134v-7.563h0.953V19.7c0.418-0.863,1.152-1.293,2.201-1.293v1.033c-0.238,0-0.482,0.049-0.74,0.148
		c-0.254,0.102-0.49,0.244-0.703,0.432c-0.215,0.186-0.385,0.402-0.514,0.65c-0.127,0.25-0.189,0.518-0.189,0.807v4.656
		L272.603,26.134L272.603,26.134z"/>
	<path d="M276.111,22.316c0.016-0.604,0.135-1.146,0.355-1.627c0.221-0.482,0.518-0.895,0.893-1.232
		c0.373-0.34,0.789-0.6,1.244-0.775c0.457-0.178,0.926-0.27,1.404-0.273c0.645,0,1.266,0.154,1.869,0.469
		c0.604,0.313,1.096,0.781,1.481,1.408c0.386,0.629,0.574,1.375,0.574,2.241v0.189h-6.806c0.045,0.561,0.217,1.035,0.517,1.428
		c0.297,0.396,0.657,0.688,1.084,0.886c0.426,0.192,0.842,0.29,1.254,0.29c0.362,0,0.731-0.071,1.104-0.219
		c0.373-0.145,0.701-0.346,0.984-0.6c0.287-0.254,0.488-0.537,0.607-0.848h1.045c-0.211,0.578-0.516,1.068-0.922,1.469
		c-0.402,0.4-0.857,0.697-1.357,0.889c-0.5,0.192-1.008,0.287-1.518,0.287c-0.672-0.025-1.299-0.205-1.883-0.535
		s-1.051-0.797-1.406-1.391C276.289,23.775,276.111,23.089,276.111,22.316z M282.943,21.811c-0.084-0.437-0.264-0.838-0.535-1.209
		c-0.273-0.367-0.615-0.664-1.029-0.887c-0.414-0.221-0.86-0.33-1.344-0.33c-0.646,0-1.184,0.154-1.609,0.461
		c-0.428,0.307-0.743,0.646-0.946,1.025c-0.199,0.377-0.315,0.689-0.349,0.938h5.813L282.943,21.811L282.943,21.811z"/>
	<path d="M287.392,26.134l-3.166-7.537h1.1l2.605,6.242l2.615-6.242h1.104l-3.211,7.537H287.392z"/>
	<path d="M291.96,22.316c0.016-0.604,0.133-1.146,0.354-1.627c0.222-0.482,0.519-0.895,0.892-1.232
		c0.375-0.34,0.791-0.6,1.248-0.775c0.455-0.178,0.924-0.27,1.401-0.273c0.646,0,1.269,0.154,1.869,0.469
		c0.604,0.313,1.098,0.781,1.481,1.408c0.385,0.629,0.576,1.375,0.576,2.241v0.189h-6.807c0.045,0.561,0.217,1.035,0.516,1.428
		c0.297,0.396,0.66,0.688,1.084,0.886c0.424,0.192,0.842,0.29,1.252,0.29c0.367,0,0.734-0.071,1.105-0.219
		c0.373-0.145,0.701-0.346,0.988-0.6c0.285-0.254,0.486-0.537,0.604-0.848h1.048c-0.212,0.578-0.521,1.068-0.925,1.469
		c-0.401,0.4-0.856,0.697-1.356,0.889c-0.5,0.192-1.008,0.287-1.519,0.287c-0.672-0.025-1.297-0.205-1.883-0.535
		c-0.582-0.33-1.054-0.797-1.404-1.391C292.138,23.775,291.96,23.089,291.96,22.316z M298.792,21.811
		c-0.086-0.437-0.265-0.838-0.535-1.209c-0.271-0.367-0.615-0.664-1.029-0.887c-0.414-0.221-0.859-0.33-1.344-0.33
		c-0.645,0-1.184,0.154-1.609,0.461c-0.428,0.307-0.744,0.646-0.945,1.025c-0.201,0.377-0.317,0.689-0.35,0.938h5.813V21.811
		L298.792,21.811z"/>
	<path d="M301.238,26.134v-7.537h0.967v1.131c0.248-0.416,0.586-0.734,1.019-0.959c0.43-0.225,0.892-0.336,1.375-0.336
		c0.426,0,0.832,0.076,1.229,0.23c0.395,0.152,0.746,0.375,1.061,0.666c0.313,0.291,0.559,0.654,0.744,1.088
		c0.184,0.436,0.277,0.922,0.277,1.459v4.26h-0.992v-4.26c0-0.518-0.111-0.963-0.336-1.332c-0.223-0.367-0.514-0.643-0.877-0.828
		c-0.361-0.184-0.746-0.273-1.158-0.273c-0.4,0-0.775,0.086-1.123,0.262c-0.348,0.178-0.629,0.441-0.844,0.791
		c-0.211,0.352-0.32,0.771-0.32,1.26v4.383h-1.018v-0.004L301.238,26.134L301.238,26.134z"/>
	<path d="M309.332,22.345c0.008-0.594,0.121-1.137,0.342-1.619s0.521-0.895,0.893-1.232c0.375-0.338,0.787-0.602,1.242-0.783
		s0.92-0.283,1.396-0.303c0.857,0,1.645,0.201,2.357,0.607c0.717,0.404,1.232,1.018,1.564,1.844h-1.158
		c-0.271-0.467-0.645-0.824-1.117-1.072c-0.473-0.25-1.02-0.375-1.646-0.375c-0.57,0.037-1.068,0.191-1.498,0.471
		c-0.428,0.275-0.758,0.633-0.99,1.068c-0.23,0.438-0.352,0.9-0.361,1.396c0,0.534,0.127,1.026,0.385,1.477
		c0.258,0.451,0.611,0.807,1.068,1.072c0.453,0.268,0.957,0.41,1.51,0.424c0.58,0,1.109-0.131,1.586-0.394
		c0.479-0.26,0.844-0.592,1.102-0.993h1.127c-0.818,1.575-2.074,2.364-3.76,2.364c-0.506,0-1.002-0.094-1.484-0.282
		c-0.48-0.189-0.918-0.461-1.307-0.814c-0.387-0.355-0.695-0.771-0.92-1.252c-0.229-0.48-0.344-0.996-0.352-1.547
		c0.012-0.012,0.02-0.021,0.021-0.031C309.33,22.357,309.332,22.35,309.332,22.345z"/>
	<path d="M318.529,17.689v-1.748h1.02v1.748H318.529z M318.529,26.134v-7.537h1.02v7.537H318.529z"/>
	<path d="M321.037,22.236c0.008-0.494,0.111-0.973,0.311-1.435c0.205-0.459,0.486-0.867,0.85-1.223
		c0.361-0.355,0.793-0.637,1.289-0.84c0.498-0.205,1.033-0.309,1.611-0.309c0.555,0,1.115,0.156,1.695,0.475
		c0.576,0.316,1.064,0.748,1.457,1.297c0.395,0.547,0.617,1.15,0.666,1.812c0,0.032,0.002,0.082,0.008,0.146
		c0.004,0.063,0.006,0.11,0.006,0.141c0,0.56-0.104,1.078-0.313,1.564c-0.207,0.483-0.498,0.911-0.871,1.276
		c-0.371,0.365-0.797,0.648-1.277,0.853c-0.477,0.202-0.979,0.303-1.506,0.303c-0.639,0-1.26-0.157-1.865-0.478
		c-0.604-0.318-1.102-0.784-1.48-1.403C321.228,23.798,321.037,23.072,321.037,22.236z M322.027,22.287
		c0,0.604,0.135,1.131,0.402,1.584s0.627,0.805,1.08,1.057s0.947,0.393,1.48,0.418c0.443,0,0.893-0.119,1.336-0.356
		c0.443-0.24,0.813-0.595,1.104-1.06c0.293-0.463,0.439-1.012,0.439-1.641c0-0.365-0.076-0.721-0.23-1.068
		c-0.15-0.344-0.361-0.652-0.631-0.926c-0.27-0.271-0.58-0.486-0.932-0.646c-0.355-0.156-0.715-0.234-1.086-0.234
		c-0.508,0.012-0.984,0.139-1.439,0.389c-0.451,0.25-0.813,0.59-1.096,1.025C322.181,21.261,322.037,21.748,322.027,22.287z
		 M323.435,17.042l2.674-1.613l0.479,0.799l-2.674,1.572L323.435,17.042z"/>
	<path d="M330.398,26.134v-7.537h0.965v1.131c0.248-0.416,0.588-0.734,1.018-0.959c0.434-0.225,0.889-0.336,1.377-0.336
		c0.424,0,0.832,0.076,1.229,0.23c0.395,0.152,0.748,0.375,1.061,0.666s0.559,0.654,0.744,1.088
		c0.184,0.436,0.279,0.922,0.279,1.459v4.26h-0.994v-4.26c0-0.518-0.111-0.963-0.334-1.332c-0.227-0.367-0.518-0.643-0.877-0.828
		c-0.361-0.184-0.748-0.273-1.158-0.273c-0.402,0-0.777,0.086-1.125,0.262c-0.346,0.178-0.627,0.441-0.842,0.791
		c-0.213,0.352-0.322,0.771-0.322,1.26v4.383H330.4v-0.005H330.398z"/>
	<path d="M342.326,22.016c0.061-0.702,0.277-1.325,0.658-1.868c0.381-0.541,0.855-0.963,1.424-1.264
		c0.572-0.299,1.156-0.457,1.76-0.479c0.639,0,1.23,0.121,1.783,0.365c0.551,0.246,0.998,0.629,1.346,1.15v-3.98h1.021v10.191
		h-0.969v-1.432c-0.357,0.535-0.789,0.936-1.291,1.201c-0.5,0.264-1.109,0.395-1.836,0.395c-0.619-0.025-1.229-0.209-1.84-0.545
		c-0.605-0.336-1.104-0.805-1.492-1.4c-0.385-0.598-0.574-1.27-0.574-2.018C342.312,22.193,342.316,22.087,342.326,22.016z
		 M343.371,21.934c-0.02,0.094-0.027,0.229-0.027,0.414c0,0.497,0.131,0.977,0.393,1.43c0.26,0.453,0.613,0.824,1.064,1.104
		c0.453,0.283,0.955,0.431,1.506,0.438c0.498,0,0.982-0.123,1.451-0.373c0.469-0.248,0.855-0.605,1.148-1.076
		c0.295-0.469,0.443-1.016,0.443-1.633c0-0.332-0.105-0.723-0.318-1.17c-0.211-0.447-0.545-0.834-1.006-1.162
		c-0.457-0.33-1.031-0.494-1.721-0.494c-0.373,0-0.766,0.084-1.178,0.252s-0.781,0.439-1.109,0.82
		C343.691,20.863,343.474,21.345,343.371,21.934z"/>
	<path d="M351.822,22.316c0.016-0.604,0.135-1.146,0.355-1.627c0.221-0.482,0.518-0.895,0.893-1.232
		c0.375-0.34,0.789-0.6,1.246-0.775c0.457-0.178,0.924-0.27,1.402-0.273c0.645,0,1.268,0.154,1.869,0.469
		c0.605,0.313,1.098,0.781,1.482,1.408c0.385,0.629,0.578,1.375,0.578,2.241v0.189h-6.809c0.045,0.561,0.215,1.035,0.514,1.428
		c0.301,0.396,0.66,0.688,1.086,0.886c0.426,0.192,0.844,0.29,1.254,0.29c0.361,0,0.73-0.071,1.104-0.219
		c0.373-0.145,0.701-0.346,0.986-0.6c0.287-0.254,0.488-0.537,0.607-0.848h1.045c-0.211,0.578-0.518,1.068-0.922,1.469
		s-0.857,0.697-1.357,0.889c-0.5,0.192-1.008,0.287-1.52,0.287c-0.67-0.025-1.297-0.205-1.881-0.535s-1.053-0.797-1.406-1.391
		C352.001,23.775,351.822,23.089,351.822,22.316z M358.656,21.811c-0.086-0.437-0.266-0.838-0.537-1.209
		c-0.271-0.367-0.615-0.664-1.027-0.887c-0.414-0.221-0.859-0.33-1.344-0.33c-0.646,0-1.184,0.154-1.611,0.461
		c-0.426,0.307-0.744,0.646-0.941,1.025c-0.203,0.377-0.318,0.689-0.352,0.938h5.814v0.002H358.656z"/>
	<path d="M365.044,26.134V15.941h5.566v0.938h-4.545v3.662h4.395v0.908h-4.395v3.775h4.545v0.907L365.044,26.134L365.044,26.134z"/>
	<path d="M372.119,26.134v-7.537h0.965v1.131c0.248-0.416,0.588-0.734,1.018-0.959c0.436-0.225,0.893-0.336,1.375-0.336
		c0.428,0,0.834,0.076,1.23,0.23c0.395,0.152,0.748,0.375,1.059,0.666c0.314,0.291,0.563,0.654,0.744,1.088
		c0.188,0.436,0.277,0.922,0.277,1.459v4.26h-0.992v-4.26c0-0.518-0.111-0.963-0.334-1.332c-0.223-0.367-0.516-0.643-0.877-0.828
		c-0.363-0.184-0.748-0.273-1.158-0.273c-0.398,0-0.773,0.086-1.125,0.262c-0.348,0.178-0.627,0.441-0.842,0.791
		c-0.213,0.352-0.32,0.771-0.32,1.26v4.383h-1.02V26.134L372.119,26.134z"/>
	<path d="M380.908,26.134v-6.6h-1.158v-0.906h1.158c0-1.775,0.967-2.662,2.904-2.662v0.939c-0.574,0-1.033,0.113-1.379,0.35
		c-0.348,0.23-0.523,0.65-0.535,1.262c0.018,0.035,0.025,0.072,0.025,0.111h1.889v0.906h-1.889v6.6H380.908L380.908,26.134z"/>
	<path d="M384.179,22.316c0.018-0.604,0.137-1.146,0.355-1.627c0.221-0.482,0.518-0.895,0.893-1.232
		c0.375-0.34,0.789-0.6,1.246-0.775c0.455-0.178,0.924-0.27,1.402-0.273c0.645,0,1.268,0.154,1.869,0.469
		c0.604,0.313,1.098,0.781,1.48,1.408c0.383,0.629,0.576,1.375,0.576,2.241v0.189h-6.807c0.045,0.561,0.217,1.035,0.516,1.428
		c0.297,0.396,0.66,0.688,1.084,0.886c0.426,0.192,0.844,0.29,1.252,0.29c0.367,0,0.734-0.071,1.107-0.219
		c0.373-0.145,0.701-0.346,0.984-0.6c0.287-0.254,0.49-0.537,0.607-0.848h1.047c-0.211,0.578-0.518,1.068-0.924,1.469
		c-0.404,0.4-0.857,0.697-1.357,0.889c-0.5,0.192-1.006,0.287-1.518,0.287c-0.672-0.025-1.297-0.205-1.883-0.535
		c-0.582-0.33-1.053-0.797-1.404-1.391C384.357,23.775,384.179,23.089,384.179,22.316z M391.013,21.811
		c-0.088-0.437-0.266-0.838-0.539-1.209c-0.27-0.367-0.611-0.664-1.025-0.887c-0.416-0.221-0.861-0.33-1.346-0.33
		c-0.645,0-1.182,0.154-1.609,0.461c-0.426,0.307-0.742,0.646-0.945,1.025c-0.201,0.377-0.316,0.689-0.35,0.938h5.814V21.811
		L391.013,21.811z"/>
	<path d="M393.462,26.134v-7.563h0.953V19.7c0.418-0.863,1.152-1.293,2.201-1.293v1.033c-0.238,0-0.484,0.049-0.74,0.148
		c-0.256,0.099-0.49,0.244-0.703,0.432c-0.215,0.186-0.387,0.402-0.514,0.65c-0.127,0.25-0.193,0.518-0.193,0.807v4.656
		L393.462,26.134L393.462,26.134z"/>
	<path d="M397.634,18.597h0.967v1.021c0.18-0.375,0.449-0.668,0.813-0.875c0.365-0.207,0.764-0.313,1.199-0.313
		c0.525,0,1.027,0.127,1.506,0.381s0.857,0.604,1.139,1.053c0.27-0.459,0.619-0.809,1.051-1.045
		c0.436-0.238,0.889-0.357,1.357-0.357c0.402,0,0.793,0.072,1.172,0.217c0.381,0.146,0.719,0.35,1.014,0.609
		c0.301,0.264,0.531,0.58,0.707,0.947c0.176,0.365,0.264,0.764,0.264,1.186v4.713h-0.99v-4.547c0-0.455-0.102-0.846-0.299-1.17
		c-0.199-0.326-0.459-0.568-0.783-0.734c-0.328-0.164-0.678-0.242-1.055-0.242c-0.338,0-0.654,0.07-0.951,0.217
		c-0.295,0.148-0.533,0.367-0.709,0.656c-0.178,0.287-0.268,0.633-0.268,1.027v4.793h-1.045v-4.631c0-0.42-0.102-0.787-0.305-1.102
		c-0.203-0.313-0.471-0.553-0.801-0.719c-0.328-0.164-0.684-0.246-1.061-0.246c-0.344,0-0.658,0.076-0.947,0.227
		c-0.291,0.152-0.521,0.383-0.693,0.688c-0.174,0.309-0.262,0.686-0.262,1.127v4.654h-1.018v-7.535H397.634L397.634,18.597z"/>
	<path d="M410.269,22.316c0.016-0.604,0.135-1.146,0.354-1.627c0.221-0.482,0.52-0.895,0.895-1.232
		c0.375-0.34,0.789-0.6,1.246-0.775c0.455-0.178,0.922-0.27,1.402-0.273c0.643,0,1.266,0.154,1.869,0.469
		c0.604,0.313,1.098,0.781,1.48,1.408c0.387,0.629,0.578,1.375,0.578,2.241v0.189h-6.807c0.045,0.561,0.217,1.035,0.514,1.428
		c0.299,0.396,0.66,0.688,1.086,0.886c0.424,0.192,0.844,0.29,1.252,0.29c0.365,0,0.734-0.071,1.107-0.219
		c0.373-0.145,0.701-0.346,0.986-0.6c0.281-0.254,0.484-0.537,0.604-0.848h1.047c-0.213,0.578-0.52,1.068-0.924,1.469
		s-0.857,0.697-1.357,0.889c-0.5,0.192-1.008,0.287-1.52,0.287c-0.67-0.025-1.295-0.205-1.881-0.535
		c-0.584-0.33-1.051-0.797-1.404-1.391C410.447,23.775,410.269,23.089,410.269,22.316z M417.101,21.811
		c-0.086-0.437-0.264-0.838-0.535-1.209c-0.271-0.367-0.615-0.664-1.029-0.887c-0.414-0.221-0.861-0.33-1.344-0.33
		c-0.646,0-1.182,0.154-1.611,0.461c-0.428,0.307-0.742,0.646-0.943,1.025c-0.203,0.377-0.316,0.689-0.35,0.938h5.813V21.811
		L417.101,21.811z"/>
	<path d="M419.197,22.016c0.061-0.702,0.279-1.325,0.662-1.868c0.379-0.541,0.854-0.963,1.424-1.264
		c0.568-0.299,1.156-0.457,1.756-0.479c0.639,0,1.234,0.121,1.783,0.365c0.553,0.246,1,0.629,1.346,1.15v-3.98h1.018v10.191h-0.963
		v-1.432c-0.355,0.535-0.789,0.936-1.291,1.201c-0.5,0.264-1.111,0.395-1.838,0.395c-0.617-0.025-1.229-0.209-1.838-0.545
		c-0.607-0.336-1.104-0.805-1.492-1.4c-0.385-0.598-0.578-1.27-0.578-2.018C419.183,22.193,419.187,22.087,419.197,22.016z
		 M420.244,21.934c-0.02,0.094-0.027,0.229-0.027,0.414c0,0.497,0.131,0.977,0.393,1.43c0.26,0.453,0.611,0.824,1.064,1.104
		c0.453,0.283,0.953,0.431,1.506,0.438c0.498,0,0.98-0.123,1.451-0.373c0.471-0.248,0.855-0.605,1.148-1.076
		c0.295-0.469,0.441-1.016,0.441-1.633c0-0.332-0.104-0.723-0.314-1.17c-0.215-0.447-0.549-0.834-1.008-1.162
		c-0.459-0.33-1.031-0.494-1.721-0.494c-0.373,0-0.766,0.084-1.178,0.252c-0.41,0.168-0.781,0.439-1.109,0.82
		C420.562,20.863,420.345,21.345,420.244,21.934z"/>
	<path d="M428.675,22.414c0.006-0.602,0.125-1.15,0.354-1.65s0.537-0.924,0.92-1.273c0.387-0.35,0.816-0.619,1.299-0.805
		c0.48-0.188,0.969-0.277,1.463-0.277c1.379,0.033,2.367,0.584,2.963,1.652v-1.463h0.992v7.537h-0.992v-1.434
		c-0.283,0.508-0.688,0.898-1.227,1.178c-0.537,0.281-1.143,0.42-1.82,0.42c-0.514-0.014-1.01-0.111-1.48-0.299
		c-0.475-0.184-0.896-0.447-1.271-0.787c-0.371-0.342-0.666-0.75-0.879-1.229C428.783,23.507,428.675,22.984,428.675,22.414z
		 M429.72,22.177c0,0.621,0.139,1.171,0.408,1.646c0.273,0.479,0.633,0.844,1.08,1.098c0.445,0.256,0.918,0.391,1.418,0.4
		c0.578,0,1.098-0.139,1.561-0.416c0.465-0.275,0.826-0.639,1.092-1.09c0.264-0.449,0.395-0.916,0.395-1.4
		c0-0.531-0.127-1.023-0.383-1.475c-0.256-0.453-0.607-0.813-1.055-1.08c-0.445-0.271-0.938-0.42-1.473-0.447
		c-0.58,0-1.104,0.145-1.568,0.434c-0.467,0.289-0.828,0.65-1.086,1.086S429.72,21.783,429.72,22.177z"/>
	<path d="M438.156,22.016c0.061-0.702,0.279-1.325,0.66-1.868c0.381-0.541,0.854-0.963,1.422-1.264
		c0.57-0.299,1.156-0.457,1.76-0.479c0.639,0,1.23,0.121,1.783,0.365c0.551,0.246,0.998,0.629,1.346,1.15v-3.98h1.018v10.191h-0.965
		v-1.432c-0.355,0.535-0.789,0.936-1.291,1.201c-0.5,0.264-1.109,0.395-1.836,0.395c-0.619-0.025-1.229-0.209-1.84-0.545
		c-0.604-0.336-1.104-0.805-1.492-1.4c-0.385-0.598-0.578-1.27-0.578-2.018C438.142,22.193,438.146,22.087,438.156,22.016z
		 M439.201,21.934c-0.018,0.094-0.027,0.229-0.027,0.414c0,0.497,0.131,0.977,0.395,1.43c0.26,0.453,0.611,0.824,1.064,1.104
		c0.453,0.283,0.953,0.431,1.504,0.438c0.498,0,0.982-0.123,1.451-0.373c0.471-0.248,0.855-0.605,1.148-1.076
		c0.297-0.469,0.443-1.016,0.443-1.633c0-0.332-0.105-0.723-0.316-1.17c-0.213-0.447-0.547-0.834-1.008-1.162
		c-0.457-0.33-1.031-0.494-1.721-0.494c-0.373,0-0.766,0.084-1.178,0.252s-0.781,0.439-1.109,0.82
		C439.521,20.863,439.304,21.345,439.201,21.934z"/>
	<path d="M447.654,22.316c0.016-0.604,0.135-1.146,0.354-1.627c0.221-0.482,0.521-0.895,0.895-1.232
		c0.375-0.34,0.791-0.6,1.246-0.775c0.453-0.178,0.926-0.27,1.402-0.273c0.645,0,1.268,0.154,1.869,0.469
		c0.605,0.313,1.096,0.781,1.48,1.408c0.387,0.629,0.578,1.375,0.578,2.241v0.189h-6.807c0.045,0.561,0.215,1.035,0.514,1.428
		c0.299,0.396,0.66,0.688,1.086,0.886c0.424,0.192,0.842,0.29,1.25,0.29c0.365,0,0.734-0.071,1.107-0.219
		c0.373-0.145,0.701-0.346,0.986-0.6c0.287-0.254,0.486-0.537,0.605-0.848h1.045c-0.211,0.578-0.518,1.068-0.922,1.469
		c-0.402,0.4-0.855,0.697-1.355,0.889c-0.5,0.192-1.006,0.287-1.521,0.287c-0.67-0.025-1.297-0.205-1.881-0.535
		s-1.053-0.797-1.406-1.391C447.832,23.775,447.654,23.089,447.654,22.316z M454.486,21.811c-0.086-0.437-0.264-0.838-0.537-1.209
		c-0.271-0.367-0.615-0.664-1.027-0.887c-0.414-0.221-0.861-0.33-1.344-0.33c-0.646,0-1.184,0.154-1.611,0.461
		c-0.426,0.307-0.744,0.646-0.943,1.025c-0.201,0.377-0.316,0.689-0.35,0.938h5.814v0.002H454.486z"/>
	<path d="M456.619,20.802c-0.01-0.074-0.016-0.174-0.016-0.301c0-0.438,0.109-0.813,0.326-1.127c0.219-0.314,0.49-0.551,0.82-0.707
		c0.328-0.156,0.648-0.234,0.961-0.234c0.254,0,0.506,0.043,0.758,0.129c0.25,0.084,0.48,0.211,0.688,0.381
		c0.207,0.168,0.375,0.381,0.506,0.639c0.127,0.26,0.201,0.551,0.213,0.877h-1.031c-0.02-0.359-0.137-0.623-0.35-0.795
		c-0.215-0.166-0.475-0.25-0.781-0.25c-0.27,0-0.521,0.088-0.758,0.266c-0.232,0.178-0.357,0.438-0.373,0.779
		c0.002,0.008,0.016,0.066,0.039,0.17c0.021,0.105,0.039,0.172,0.045,0.203c0.07,0.248,0.307,0.457,0.711,0.623
		c0.402,0.17,0.809,0.33,1.219,0.482c0.408,0.151,0.754,0.379,1.037,0.678c0.283,0.297,0.424,0.723,0.424,1.273
		c0,0.096-0.012,0.229-0.027,0.413c-0.059,0.464-0.209,0.847-0.459,1.146c-0.252,0.301-0.547,0.516-0.889,0.647
		c-0.338,0.135-0.67,0.199-0.998,0.199c-0.453,0-0.859-0.102-1.223-0.311c-0.355-0.209-0.637-0.494-0.834-0.855
		c-0.199-0.359-0.299-0.76-0.299-1.201l1.021-0.029c0.014,0.435,0.158,0.783,0.438,1.054c0.281,0.271,0.598,0.412,0.953,0.424
		c0.359-0.031,0.666-0.17,0.918-0.416s0.379-0.543,0.379-0.894c0-0.311-0.104-0.59-0.307-0.844c-0.201-0.252-0.514-0.43-0.936-0.535
		c-0.576-0.153-1.066-0.371-1.473-0.647C456.914,21.763,456.681,21.349,456.619,20.802z"/>
</g>
<g>
	<path d="M78.469,35.164c0.08-0.711,0.322-1.34,0.726-1.883c0.405-0.545,0.911-0.961,1.515-1.252
		c0.605-0.293,1.241-0.439,1.905-0.439c0.363,0,0.719,0.045,1.066,0.133c0.348,0.088,0.679,0.223,0.996,0.402
		c0.317,0.178,0.611,0.404,0.883,0.676c0.273,0.273,0.512,0.598,0.718,0.967h-0.889c-0.231-0.305-0.496-0.559-0.796-0.768
		c-0.3-0.209-0.613-0.361-0.944-0.459c-0.33-0.1-0.66-0.148-0.988-0.148c-0.442,0-0.867,0.08-1.277,0.238
		c-0.41,0.156-0.776,0.387-1.098,0.686c-0.322,0.298-0.576,0.654-0.762,1.072s-0.278,0.875-0.278,1.373
		c0.007,0.641,0.169,1.215,0.488,1.725c0.318,0.511,0.737,0.908,1.255,1.191c0.518,0.287,1.067,0.434,1.647,0.441
		c0.34-0.008,0.679-0.066,1.015-0.176c0.337-0.105,0.657-0.271,0.96-0.482c0.303-0.217,0.573-0.49,0.809-0.816h0.89
		c-0.291,0.5-0.63,0.916-1.02,1.246c-0.39,0.332-0.81,0.576-1.259,0.738c-0.448,0.158-0.913,0.238-1.395,0.238
		c-0.531,0-1.047-0.1-1.551-0.295c-0.503-0.197-0.956-0.48-1.357-0.85c-0.401-0.371-0.717-0.812-0.948-1.326
		c-0.232-0.519-0.347-1.078-0.347-1.689C78.435,35.523,78.447,35.341,78.469,35.164z"/>
	<path d="M87.457,39.736V31.72h2.18c0.75,0,1.414,0.105,1.991,0.318c0.577,0.211,1.058,0.508,1.446,0.885
		c0.386,0.377,0.675,0.813,0.867,1.304c0.192,0.489,0.287,1.018,0.287,1.575c-0.006,0.599-0.123,1.14-0.353,1.63
		c-0.23,0.489-0.544,0.909-0.942,1.254c-0.398,0.348-0.845,0.606-1.341,0.782c-0.496,0.181-1.008,0.269-1.535,0.269H87.457
		L87.457,39.736z M88.257,32.434v6.563h1.234c1.113,0,2.029-0.263,2.749-0.783c0.719-0.521,1.114-1.325,1.185-2.409
		c0-0.447-0.077-0.871-0.23-1.275c-0.154-0.404-0.387-0.766-0.701-1.08c-0.313-0.314-0.709-0.563-1.19-0.742
		c-0.481-0.18-1.037-0.271-1.669-0.271L88.257,32.434L88.257,32.434z"/>
	<path d="M95.123,35.164c0.08-0.711,0.322-1.34,0.727-1.883c0.405-0.545,0.91-0.961,1.515-1.252
		c0.605-0.293,1.241-0.439,1.906-0.439c0.363,0,0.718,0.045,1.066,0.133c0.347,0.088,0.679,0.223,0.995,0.402
		c0.317,0.178,0.612,0.404,0.884,0.676c0.272,0.273,0.512,0.598,0.717,0.967h-0.889c-0.231-0.305-0.496-0.559-0.796-0.768
		c-0.299-0.209-0.613-0.361-0.943-0.459c-0.331-0.1-0.66-0.148-0.989-0.148c-0.441,0-0.866,0.08-1.276,0.238
		c-0.41,0.156-0.775,0.387-1.098,0.686c-0.322,0.298-0.575,0.654-0.762,1.072c-0.186,0.418-0.279,0.875-0.279,1.373
		c0.007,0.641,0.17,1.215,0.488,1.725c0.318,0.511,0.737,0.908,1.255,1.191c0.518,0.287,1.067,0.434,1.647,0.441
		c0.34-0.008,0.678-0.066,1.015-0.176c0.337-0.105,0.658-0.271,0.959-0.482c0.304-0.217,0.574-0.49,0.81-0.816h0.89
		c-0.291,0.5-0.631,0.916-1.02,1.246c-0.39,0.332-0.81,0.576-1.259,0.738c-0.448,0.158-0.914,0.238-1.395,0.238
		c-0.531,0-1.048-0.1-1.551-0.295c-0.503-0.197-0.956-0.48-1.357-0.85c-0.401-0.369-0.718-0.812-0.949-1.326
		c-0.231-0.516-0.347-1.078-0.347-1.689C95.088,35.523,95.1,35.341,95.123,35.164z"/>
	<path d="M106.608,34.32c0.006-0.601,0.13-1.104,0.373-1.512c0.241-0.406,0.559-0.709,0.951-0.906
		c0.392-0.199,0.818-0.305,1.276-0.313c0.317,0,0.624,0.063,0.919,0.188c0.296,0.121,0.559,0.295,0.79,0.514
		c0.23,0.219,0.412,0.479,0.546,0.775c0.134,0.299,0.201,0.617,0.201,0.961c0,0.803-0.375,1.557-1.126,2.264l-2.87,2.707h3.997
		v0.738h-5.102v-0.713l3.577-3.479c0.497-0.498,0.745-1.004,0.745-1.521c0-0.299-0.074-0.571-0.222-0.819
		c-0.147-0.248-0.344-0.445-0.589-0.595c-0.246-0.146-0.506-0.229-0.78-0.239c-0.524,0-0.969,0.157-1.334,0.473
		c-0.366,0.314-0.549,0.81-0.549,1.478H106.608L106.608,34.32z"/>
	<path d="M115.926,31.72h0.997v5.818h0.717v0.715h-0.717v1.481h-0.801v-1.481h-4.041v-0.715L115.926,31.72z M116.122,32.814
		l-3.132,4.725h3.132V32.814z"/>
	<path d="M117.924,41.113l3.132-9.394h0.734l-3.173,9.394H117.924z"/>
	<path d="M123.198,39.736l3.306-7.303h-3.792V31.72h4.636v0.714l-3.293,7.303H123.198z"/>
	<path d="M128.218,34.21h0.802v1.354h-0.802V34.21z M128.218,38.361h0.802v1.375h-0.802V38.361z"/>
	<path d="M134.007,37.494c0.018,0.348,0.106,0.643,0.265,0.883c0.161,0.24,0.367,0.42,0.621,0.539
		c0.253,0.121,0.521,0.18,0.803,0.18c0.262,0,0.514-0.065,0.755-0.207c0.243-0.141,0.438-0.328,0.584-0.563
		c0.147-0.234,0.222-0.492,0.222-0.766c0-0.332-0.084-0.631-0.251-0.89c-0.159-0.252-0.456-0.453-0.893-0.604
		c-0.436-0.147-0.863-0.295-1.281-0.436s-0.762-0.354-1.03-0.635c-0.267-0.283-0.401-0.699-0.401-1.242
		c0-0.021,0.003-0.055,0.007-0.098c0.004-0.041,0.007-0.08,0.007-0.119c0.021-0.383,0.137-0.725,0.347-1.02
		c0.21-0.298,0.484-0.525,0.818-0.688c0.335-0.164,0.686-0.244,1.052-0.244c0.433,0,0.819,0.104,1.159,0.315
		c0.339,0.214,0.601,0.478,0.785,0.795c0.184,0.318,0.276,0.634,0.276,0.938v0.109h-0.801c-0.06-0.447-0.218-0.779-0.473-0.998
		c-0.254-0.218-0.563-0.345-0.926-0.379c-0.25,0-0.484,0.055-0.699,0.166c-0.215,0.106-0.389,0.256-0.522,0.444
		c-0.133,0.185-0.207,0.388-0.218,0.601c0,0.506,0.13,0.854,0.392,1.047c0.263,0.192,0.678,0.373,1.25,0.539
		c0.571,0.164,1.033,0.369,1.387,0.608c0.354,0.242,0.607,0.652,0.761,1.232c0.03,0.211,0.045,0.383,0.045,0.508
		c0,0.271-0.051,0.545-0.155,0.826c-0.104,0.279-0.254,0.533-0.453,0.762c-0.198,0.23-0.451,0.412-0.755,0.556
		c-0.303,0.139-0.647,0.209-1.032,0.209c-0.373,0-0.716-0.064-1.029-0.185c-0.313-0.125-0.581-0.295-0.804-0.516
		c-0.223-0.219-0.395-0.473-0.512-0.76c-0.118-0.285-0.175-0.592-0.175-0.916h0.874V37.494L134.007,37.494z"/>
	<path d="M138.767,36.811c0.004-0.472,0.098-0.904,0.276-1.295c0.18-0.396,0.42-0.729,0.724-1.007
		c0.302-0.272,0.642-0.481,1.02-0.631c0.379-0.146,0.764-0.221,1.153-0.221c1.083,0.026,1.861,0.461,2.33,1.303v-1.149h0.78v5.928
		h-0.78v-1.127c-0.222,0.397-0.544,0.707-0.965,0.926c-0.422,0.219-0.898,0.33-1.431,0.33c-0.405-0.012-0.794-0.088-1.167-0.234
		s-0.705-0.352-0.998-0.619c-0.294-0.27-0.525-0.592-0.693-0.967C138.85,37.671,138.767,37.259,138.767,36.811z M139.588,36.626
		c0,0.485,0.108,0.916,0.322,1.291c0.214,0.377,0.497,0.664,0.848,0.863c0.352,0.202,0.723,0.307,1.116,0.313
		c0.453,0,0.863-0.107,1.227-0.326c0.366-0.219,0.651-0.502,0.858-0.854c0.207-0.354,0.311-0.724,0.311-1.104
		c0-0.42-0.102-0.807-0.302-1.16c-0.2-0.354-0.477-0.641-0.829-0.852c-0.351-0.213-0.737-0.328-1.157-0.352
		c-0.457,0-0.868,0.111-1.235,0.342c-0.366,0.227-0.651,0.512-0.854,0.854C139.69,35.988,139.588,36.314,139.588,36.626z"/>
	<path d="M146.422,39.736V31.72h0.8v8.017H146.422z"/>
	<path d="M150.411,39.736l-2.492-5.926h0.864l2.05,4.905l2.058-4.905h0.868l-2.526,5.926H150.411z"/>
	<path d="M153.888,36.811c0.005-0.472,0.098-0.904,0.278-1.295c0.18-0.396,0.42-0.729,0.724-1.007
		c0.302-0.272,0.642-0.481,1.02-0.631c0.379-0.146,0.763-0.221,1.152-0.221c1.084,0.026,1.86,0.461,2.33,1.303v-1.149h0.78v5.928
		h-0.78v-1.127c-0.223,0.397-0.544,0.707-0.965,0.926c-0.422,0.219-0.898,0.33-1.432,0.33c-0.405-0.012-0.794-0.088-1.166-0.234
		c-0.373-0.146-0.705-0.352-0.999-0.619c-0.293-0.27-0.524-0.592-0.691-0.967S153.888,37.259,153.888,36.811z M154.71,36.626
		c0,0.485,0.107,0.916,0.322,1.291c0.214,0.377,0.497,0.664,0.848,0.863c0.351,0.202,0.722,0.307,1.115,0.313
		c0.453,0,0.862-0.107,1.228-0.326c0.365-0.219,0.65-0.502,0.857-0.854c0.208-0.354,0.311-0.724,0.311-1.104
		c0-0.42-0.101-0.807-0.301-1.16c-0.2-0.354-0.478-0.641-0.829-0.852c-0.351-0.213-0.737-0.328-1.156-0.352
		c-0.457,0-0.869,0.111-1.235,0.342c-0.367,0.227-0.651,0.512-0.854,0.854C154.812,35.988,154.71,36.314,154.71,36.626z"/>
	<path d="M161.546,33.811h0.76v0.805c0.14-0.297,0.353-0.525,0.638-0.689c0.287-0.162,0.6-0.244,0.942-0.244
		c0.415,0,0.81,0.101,1.186,0.299c0.376,0.199,0.672,0.476,0.894,0.828c0.211-0.36,0.487-0.637,0.827-0.822
		c0.34-0.188,0.696-0.282,1.068-0.282c0.314,0,0.623,0.06,0.922,0.174c0.297,0.115,0.563,0.272,0.795,0.479
		c0.235,0.203,0.42,0.453,0.557,0.74c0.137,0.289,0.205,0.604,0.205,0.937v3.705h-0.779v-3.576c0-0.356-0.078-0.664-0.234-0.92
		c-0.156-0.257-0.361-0.447-0.617-0.576s-0.531-0.192-0.828-0.192c-0.265,0-0.515,0.057-0.748,0.174
		c-0.233,0.112-0.42,0.285-0.559,0.516c-0.14,0.227-0.208,0.496-0.208,0.809v3.771h-0.822v-3.642c0-0.33-0.08-0.617-0.24-0.865
		c-0.159-0.247-0.369-0.436-0.629-0.563c-0.259-0.131-0.537-0.194-0.833-0.194c-0.27,0-0.519,0.061-0.747,0.18
		s-0.41,0.299-0.545,0.541c-0.137,0.238-0.204,0.537-0.204,0.887v3.66h-0.801V33.811L161.546,33.811z"/>
	<path d="M171.387,36.671c0.005-0.391,0.087-0.766,0.245-1.127c0.16-0.36,0.381-0.683,0.666-0.961
		c0.285-0.281,0.623-0.5,1.014-0.662c0.391-0.16,0.814-0.241,1.271-0.241c0.434,0,0.877,0.125,1.332,0.372
		c0.453,0.248,0.836,0.589,1.146,1.021c0.312,0.432,0.483,0.906,0.522,1.424c0,0.027,0.002,0.064,0.006,0.119
		c0.002,0.049,0.004,0.086,0.004,0.107c0,0.438-0.08,0.848-0.245,1.229c-0.163,0.381-0.392,0.717-0.685,1.006
		s-0.627,0.513-1.004,0.67c-0.375,0.158-0.771,0.236-1.187,0.236c-0.502,0-0.989-0.125-1.468-0.375
		c-0.476-0.25-0.864-0.617-1.168-1.104C171.539,37.9,171.387,37.33,171.387,36.671z M172.167,36.712c0,0.474,0.104,0.89,0.314,1.244
		c0.212,0.356,0.495,0.633,0.852,0.832c0.356,0.196,0.744,0.307,1.166,0.328c0.351,0,0.701-0.095,1.049-0.283
		c0.352-0.188,0.641-0.465,0.869-0.83c0.229-0.364,0.344-0.797,0.344-1.291c0-0.289-0.061-0.567-0.18-0.84
		c-0.119-0.271-0.285-0.517-0.496-0.729s-0.457-0.384-0.733-0.509s-0.562-0.188-0.854-0.188c-0.398,0.011-0.774,0.109-1.129,0.31
		c-0.355,0.195-0.643,0.465-0.859,0.808C172.289,35.904,172.173,36.287,172.167,36.712z"/>
	<path d="M178.386,35.544c-0.006-0.058-0.01-0.139-0.01-0.237c0-0.345,0.084-0.64,0.258-0.888c0.171-0.246,0.386-0.43,0.644-0.555
		c0.259-0.123,0.511-0.187,0.757-0.187c0.198,0,0.397,0.033,0.596,0.103c0.197,0.065,0.377,0.165,0.541,0.299
		c0.164,0.131,0.295,0.299,0.396,0.502c0.102,0.205,0.156,0.435,0.168,0.688h-0.813c-0.014-0.283-0.105-0.49-0.273-0.623
		c-0.166-0.135-0.374-0.198-0.613-0.198c-0.215,0-0.412,0.067-0.597,0.209c-0.183,0.141-0.28,0.344-0.294,0.612
		c0.002,0.008,0.014,0.051,0.029,0.133c0.019,0.084,0.031,0.14,0.037,0.162c0.056,0.193,0.24,0.357,0.559,0.488
		c0.316,0.131,0.639,0.26,0.958,0.379c0.321,0.121,0.595,0.299,0.815,0.533c0.222,0.234,0.334,0.568,0.334,1.002
		c0,0.074-0.008,0.184-0.023,0.326c-0.046,0.365-0.165,0.666-0.361,0.902c-0.195,0.231-0.429,0.406-0.693,0.51
		c-0.268,0.105-0.529,0.158-0.787,0.158c-0.357,0-0.678-0.082-0.961-0.244c-0.281-0.166-0.502-0.389-0.657-0.674
		c-0.155-0.283-0.233-0.598-0.233-0.945l0.803-0.021c0.011,0.342,0.125,0.617,0.346,0.826c0.22,0.213,0.471,0.324,0.75,0.334
		c0.281-0.022,0.523-0.133,0.723-0.326c0.196-0.192,0.295-0.428,0.295-0.701c0-0.243-0.078-0.465-0.238-0.661
		c-0.159-0.199-0.403-0.341-0.735-0.425c-0.451-0.121-0.838-0.291-1.159-0.51C178.623,36.298,178.437,35.977,178.386,35.544z"/>
	<path d="M187.544,39.736l-2.492-5.926h0.865l2.049,4.905l2.058-4.905h0.869l-2.526,5.926H187.544z"/>
	<path d="M191.602,33.095V31.72h0.801v1.375H191.602z M191.602,39.736v-5.926h0.801v5.926H191.602z"/>
	<path d="M193.483,36.496c0.048-0.551,0.22-1.041,0.519-1.467c0.301-0.428,0.672-0.76,1.119-0.994
		c0.449-0.234,0.91-0.359,1.385-0.377c0.502,0,0.968,0.098,1.402,0.289c0.434,0.191,0.786,0.494,1.057,0.904V31.72h0.803v8.017
		h-0.76v-1.127c-0.281,0.424-0.62,0.735-1.014,0.942c-0.396,0.209-0.877,0.313-1.447,0.313c-0.483-0.021-0.969-0.164-1.445-0.43
		c-0.479-0.267-0.869-0.636-1.174-1.103c-0.303-0.469-0.454-0.998-0.454-1.588C193.474,36.639,193.477,36.555,193.483,36.496z
		 M194.307,36.434c-0.017,0.071-0.021,0.182-0.021,0.325c0,0.392,0.103,0.767,0.307,1.123c0.203,0.359,0.482,0.648,0.84,0.869
		c0.354,0.226,0.749,0.338,1.184,0.344c0.391,0,0.771-0.098,1.141-0.293c0.369-0.192,0.672-0.479,0.902-0.848
		c0.233-0.369,0.351-0.797,0.351-1.283c0-0.262-0.083-0.567-0.249-0.92c-0.168-0.354-0.432-0.655-0.791-0.916
		c-0.361-0.258-0.813-0.39-1.354-0.39c-0.297,0-0.605,0.064-0.928,0.197c-0.324,0.133-0.615,0.349-0.874,0.646
		C194.556,35.587,194.387,35.97,194.307,36.434z"/>
	<path d="M200.841,36.811c0.006-0.472,0.1-0.904,0.279-1.295c0.18-0.396,0.42-0.729,0.723-1.007
		c0.304-0.272,0.644-0.481,1.021-0.631c0.379-0.146,0.762-0.221,1.151-0.221c1.084,0.026,1.86,0.461,2.329,1.303v-1.149h0.779v5.928
		h-0.779v-1.127c-0.223,0.397-0.545,0.707-0.967,0.926s-0.896,0.33-1.43,0.33c-0.404-0.012-0.796-0.088-1.168-0.234
		c-0.371-0.146-0.703-0.352-0.998-0.619c-0.293-0.27-0.522-0.592-0.691-0.967C200.927,37.671,200.841,37.259,200.841,36.811z
		 M201.666,36.626c0,0.485,0.106,0.916,0.319,1.291c0.216,0.377,0.499,0.664,0.851,0.863c0.352,0.202,0.723,0.307,1.115,0.313
		c0.452,0,0.861-0.107,1.228-0.326c0.364-0.219,0.651-0.502,0.858-0.854c0.205-0.354,0.311-0.724,0.311-1.104
		c0-0.42-0.102-0.807-0.303-1.16c-0.199-0.354-0.478-0.641-0.828-0.852c-0.352-0.213-0.737-0.328-1.156-0.352
		c-0.456,0-0.868,0.111-1.234,0.342c-0.365,0.227-0.65,0.512-0.855,0.854C201.767,35.988,201.666,36.314,201.666,36.626z"/>
	<path d="M208.31,35.544c-0.008-0.058-0.012-0.139-0.012-0.237c0-0.345,0.086-0.64,0.257-0.888c0.17-0.246,0.386-0.43,0.646-0.555
		c0.258-0.123,0.51-0.187,0.756-0.187c0.199,0,0.397,0.033,0.594,0.103c0.199,0.065,0.381,0.165,0.544,0.299
		c0.163,0.131,0.294,0.299,0.396,0.502c0.102,0.205,0.156,0.435,0.168,0.688h-0.812c-0.015-0.283-0.106-0.49-0.274-0.623
		c-0.166-0.135-0.373-0.198-0.613-0.198c-0.213,0-0.412,0.067-0.596,0.209c-0.184,0.141-0.281,0.344-0.294,0.612
		c0.002,0.008,0.013,0.051,0.03,0.133c0.018,0.084,0.031,0.14,0.035,0.162c0.057,0.193,0.24,0.357,0.559,0.488
		c0.319,0.131,0.637,0.26,0.958,0.379c0.323,0.121,0.595,0.299,0.815,0.533c0.222,0.234,0.334,0.568,0.334,1.002
		c0,0.074-0.008,0.184-0.022,0.326c-0.046,0.365-0.166,0.666-0.362,0.902c-0.195,0.231-0.429,0.406-0.693,0.51
		c-0.268,0.105-0.529,0.158-0.786,0.158c-0.358,0-0.679-0.082-0.962-0.244c-0.282-0.166-0.501-0.389-0.656-0.674
		c-0.156-0.283-0.234-0.598-0.234-0.945l0.805-0.021c0.01,0.342,0.125,0.617,0.346,0.826c0.219,0.213,0.469,0.324,0.75,0.334
		c0.281-0.022,0.521-0.133,0.721-0.326c0.198-0.192,0.297-0.428,0.297-0.701c0-0.243-0.078-0.465-0.238-0.661
		c-0.161-0.199-0.404-0.341-0.735-0.425c-0.452-0.121-0.838-0.291-1.161-0.51C208.544,36.298,208.359,35.977,208.31,35.544z"/>
	<path d="M213.115,39.736v-1.461h0.866v1.461H213.115z"/>
	<path d="M218.623,39.736V31.72h2.104c0.631,0,1.174,0.064,1.631,0.197c0.454,0.135,0.822,0.367,1.1,0.703
		c0.277,0.334,0.438,0.789,0.477,1.362c0.008,0.052,0.011,0.123,0.011,0.216c0,0.444-0.116,0.842-0.354,1.188
		c-0.233,0.353-0.563,0.621-0.984,0.816c-0.421,0.193-0.898,0.291-1.434,0.291h-1.746v3.238h-0.803v0.004H218.623z M219.423,32.434
		v3.35h1.658c0.705,0,1.224-0.162,1.555-0.486c0.326-0.324,0.494-0.762,0.494-1.311c-0.031-0.57-0.248-0.971-0.653-1.203
		c-0.405-0.23-0.955-0.348-1.653-0.348L219.423,32.434L219.423,32.434z"/>
	<path d="M224.765,39.736v-5.947h0.747v0.889c0.329-0.678,0.907-1.018,1.731-1.018v0.813c-0.188,0-0.379,0.039-0.58,0.117
		c-0.201,0.08-0.387,0.193-0.556,0.34c-0.168,0.146-0.302,0.316-0.401,0.514c-0.102,0.195-0.152,0.408-0.152,0.636v3.66
		L224.765,39.736L224.765,39.736z"/>
	<path d="M227.412,36.671c0.006-0.391,0.09-0.766,0.246-1.127c0.158-0.36,0.381-0.683,0.666-0.961
		c0.284-0.281,0.621-0.5,1.014-0.662c0.391-0.16,0.814-0.241,1.271-0.241c0.435,0,0.877,0.125,1.332,0.372
		c0.453,0.248,0.837,0.589,1.146,1.021c0.311,0.432,0.482,0.906,0.522,1.424c0,0.027,0.002,0.064,0.007,0.119
		c0.004,0.049,0.006,0.086,0.006,0.107c0,0.438-0.082,0.848-0.248,1.229c-0.162,0.381-0.392,0.717-0.686,1.006
		c-0.293,0.289-0.626,0.513-1.004,0.67c-0.375,0.158-0.771,0.236-1.187,0.236c-0.5,0-0.99-0.125-1.467-0.375
		c-0.477-0.25-0.865-0.617-1.169-1.104C227.563,37.9,227.412,37.33,227.412,36.671z M228.192,36.712c0,0.474,0.106,0.89,0.315,1.244
		c0.211,0.356,0.494,0.633,0.852,0.832c0.357,0.196,0.744,0.307,1.164,0.328c0.352,0,0.702-0.095,1.051-0.283s0.64-0.465,0.868-0.83
		c0.229-0.364,0.345-0.797,0.345-1.291c0-0.289-0.061-0.567-0.181-0.84c-0.12-0.271-0.286-0.517-0.496-0.729
		c-0.211-0.213-0.455-0.384-0.733-0.509c-0.276-0.125-0.563-0.188-0.854-0.188c-0.397,0.011-0.774,0.109-1.128,0.31
		c-0.357,0.195-0.643,0.465-0.861,0.808C228.313,35.902,228.199,36.287,228.192,36.712z"/>
	<path d="M235.041,39.736v-5.203h-1.246v-0.723h1.246V31.72h0.801v2.091h1.375v0.723h-1.375v5.203H235.041z"/>
	<path d="M237.423,36.734c0.015-0.476,0.104-0.9,0.279-1.279c0.174-0.381,0.407-0.701,0.701-0.969
		c0.297-0.271,0.621-0.473,0.979-0.609c0.359-0.139,0.729-0.213,1.105-0.219c0.506,0,0.996,0.125,1.471,0.371
		c0.476,0.244,0.863,0.613,1.166,1.106c0.304,0.492,0.453,1.078,0.453,1.763v0.149h-5.354c0.033,0.438,0.17,0.813,0.404,1.123
		c0.234,0.312,0.52,0.541,0.854,0.693c0.336,0.153,0.662,0.229,0.984,0.229c0.287,0,0.576-0.057,0.871-0.17
		c0.291-0.116,0.551-0.271,0.775-0.473c0.225-0.199,0.383-0.425,0.477-0.666h0.822c-0.166,0.455-0.406,0.84-0.727,1.153
		c-0.316,0.314-0.676,0.547-1.068,0.697c-0.395,0.15-0.791,0.229-1.193,0.229c-0.526-0.021-1.021-0.162-1.479-0.425
		c-0.46-0.26-0.826-0.625-1.105-1.094C237.563,37.88,237.423,37.343,237.423,36.734z M242.798,36.335
		c-0.066-0.342-0.207-0.658-0.422-0.949c-0.213-0.291-0.483-0.521-0.812-0.698c-0.323-0.172-0.677-0.261-1.058-0.261
		c-0.506,0-0.928,0.119-1.268,0.361c-0.336,0.239-0.582,0.508-0.742,0.807c-0.158,0.298-0.25,0.544-0.272,0.738h4.569v0.002H242.798
		z"/>
	<path d="M244.349,36.757c0-0.618,0.145-1.164,0.436-1.631s0.662-0.828,1.113-1.078c0.451-0.252,0.914-0.383,1.387-0.391
		c0.361,0,0.705,0.053,1.029,0.161c0.326,0.107,0.613,0.263,0.863,0.464c0.25,0.202,0.439,0.436,0.566,0.698v-1.192h0.76v5.438
		c0,0.453-0.078,0.854-0.236,1.203c-0.156,0.352-0.375,0.643-0.646,0.87c-0.272,0.234-0.586,0.408-0.938,0.525
		C248.33,41.941,247.966,42,247.589,42c-0.34,0-0.672-0.047-0.994-0.139c-0.324-0.094-0.625-0.229-0.896-0.408
		c-0.273-0.18-0.508-0.404-0.705-0.672c-0.197-0.271-0.342-0.576-0.428-0.918h0.781c0.193,0.457,0.492,0.803,0.893,1.041
		c0.4,0.236,0.836,0.354,1.305,0.354c0.39,0,0.75-0.079,1.086-0.239s0.607-0.398,0.812-0.711c0.204-0.313,0.306-0.683,0.306-1.105
		v-0.648c-0.47,0.873-1.236,1.312-2.308,1.312c-0.369,0-0.735-0.068-1.104-0.203c-0.367-0.138-0.698-0.336-0.996-0.604
		c-0.299-0.268-0.536-0.598-0.715-0.988C244.445,37.68,244.353,37.242,244.349,36.757z M245.15,36.604
		c0,0.498,0.102,0.936,0.305,1.311c0.203,0.377,0.479,0.664,0.822,0.865c0.344,0.203,0.723,0.309,1.137,0.316
		c0.326,0,0.67-0.085,1.033-0.255c0.361-0.17,0.67-0.438,0.92-0.803c0.252-0.365,0.377-0.822,0.377-1.367
		c0-0.276-0.061-0.551-0.186-0.817c-0.123-0.271-0.295-0.513-0.516-0.722c-0.217-0.211-0.474-0.377-0.767-0.5
		c-0.295-0.123-0.604-0.184-0.928-0.184c-0.563,0.014-1.013,0.161-1.341,0.442c-0.325,0.281-0.553,0.59-0.676,0.922
		C245.21,36.148,245.15,36.414,245.15,36.604z"/>
	<path d="M251.508,36.734c0.016-0.476,0.105-0.9,0.279-1.279c0.174-0.381,0.408-0.701,0.703-0.969
		c0.295-0.271,0.621-0.473,0.979-0.609c0.359-0.139,0.729-0.213,1.105-0.219c0.506,0,0.996,0.125,1.473,0.371
		c0.473,0.244,0.861,0.613,1.164,1.106c0.305,0.492,0.453,1.078,0.453,1.763v0.149h-5.354c0.035,0.438,0.171,0.813,0.404,1.123
		s0.521,0.541,0.854,0.693c0.334,0.153,0.661,0.229,0.983,0.229c0.287,0,0.576-0.057,0.871-0.17
		c0.291-0.116,0.549-0.271,0.774-0.473c0.228-0.199,0.383-0.425,0.478-0.666h0.823c-0.168,0.455-0.407,0.84-0.727,1.153
		c-0.318,0.314-0.674,0.547-1.068,0.697c-0.394,0.15-0.793,0.229-1.194,0.229c-0.526-0.021-1.021-0.162-1.479-0.425
		c-0.461-0.26-0.83-0.625-1.106-1.094C251.647,37.88,251.508,37.343,251.508,36.734z M256.881,36.335
		c-0.064-0.342-0.207-0.658-0.42-0.949c-0.215-0.291-0.484-0.521-0.811-0.698c-0.324-0.172-0.679-0.261-1.058-0.261
		c-0.509,0-0.931,0.119-1.269,0.361c-0.336,0.239-0.582,0.508-0.742,0.807c-0.157,0.298-0.25,0.544-0.272,0.738h4.57L256.881,36.335
		L256.881,36.335z"/>
	<path d="M258.711,33.811h0.76v0.805c0.143-0.297,0.354-0.525,0.641-0.689c0.287-0.162,0.601-0.244,0.939-0.244
		c0.416,0,0.811,0.101,1.188,0.299c0.375,0.199,0.674,0.476,0.896,0.828c0.209-0.36,0.484-0.637,0.826-0.822
		c0.338-0.188,0.695-0.282,1.066-0.282c0.313,0,0.623,0.06,0.922,0.174c0.299,0.113,0.563,0.272,0.797,0.479
		c0.233,0.203,0.418,0.453,0.555,0.74c0.139,0.289,0.207,0.604,0.207,0.937v3.705h-0.779v-3.576c0-0.356-0.078-0.664-0.234-0.92
		c-0.157-0.257-0.36-0.447-0.617-0.576c-0.258-0.129-0.532-0.192-0.827-0.192c-0.267,0-0.517,0.057-0.748,0.174
		c-0.231,0.112-0.42,0.285-0.56,0.516c-0.141,0.227-0.207,0.496-0.207,0.809v3.771h-0.826v-3.642c0-0.33-0.077-0.617-0.235-0.865
		c-0.159-0.247-0.368-0.436-0.631-0.563c-0.261-0.131-0.535-0.194-0.834-0.194c-0.269,0-0.519,0.061-0.744,0.18
		c-0.229,0.119-0.407,0.299-0.547,0.541c-0.136,0.238-0.205,0.537-0.205,0.887v3.66h-0.799v-5.936H258.711z"/>
	<path d="M268.553,36.671c0.008-0.391,0.088-0.766,0.244-1.127c0.16-0.36,0.383-0.683,0.666-0.961
		c0.285-0.281,0.625-0.5,1.016-0.662c0.391-0.16,0.813-0.241,1.27-0.241c0.437,0,0.877,0.125,1.332,0.372
		c0.453,0.248,0.836,0.589,1.146,1.021s0.482,0.906,0.523,1.424c0,0.027,0.002,0.064,0.006,0.119
		c0.002,0.049,0.004,0.086,0.004,0.107c0,0.438-0.082,0.848-0.244,1.229c-0.164,0.381-0.393,0.717-0.688,1.006
		c-0.293,0.289-0.627,0.513-1.004,0.67c-0.377,0.158-0.771,0.236-1.188,0.236c-0.5,0-0.985-0.125-1.465-0.375
		s-0.865-0.617-1.171-1.104C268.704,37.9,268.553,37.33,268.553,36.671z M269.333,36.712c0,0.474,0.107,0.89,0.318,1.244
		c0.209,0.356,0.491,0.633,0.848,0.832c0.356,0.196,0.746,0.307,1.164,0.328c0.354,0,0.703-0.095,1.053-0.283
		s0.641-0.465,0.867-0.83c0.229-0.364,0.344-0.797,0.344-1.291c0-0.289-0.059-0.567-0.18-0.84c-0.119-0.271-0.285-0.517-0.496-0.729
		s-0.455-0.384-0.732-0.509c-0.275-0.125-0.563-0.188-0.855-0.188c-0.396,0.011-0.772,0.109-1.129,0.31
		c-0.354,0.195-0.641,0.465-0.858,0.808C269.454,35.902,269.338,36.287,269.333,36.712z"/>
	<path d="M275.553,35.544c-0.008-0.058-0.012-0.139-0.012-0.237c0-0.345,0.084-0.64,0.256-0.888c0.172-0.246,0.387-0.43,0.646-0.555
		c0.26-0.123,0.512-0.187,0.756-0.187c0.199,0,0.396,0.033,0.596,0.103c0.197,0.065,0.379,0.165,0.541,0.299
		c0.164,0.131,0.295,0.299,0.398,0.502c0.1,0.205,0.155,0.435,0.168,0.688h-0.814c-0.014-0.283-0.105-0.49-0.271-0.623
		c-0.17-0.135-0.375-0.198-0.615-0.198c-0.213,0-0.412,0.067-0.594,0.209c-0.186,0.141-0.283,0.344-0.295,0.612
		c0.002,0.008,0.012,0.051,0.029,0.133c0.018,0.084,0.031,0.14,0.035,0.162c0.057,0.193,0.24,0.357,0.559,0.488
		c0.316,0.131,0.637,0.26,0.959,0.379c0.322,0.121,0.594,0.299,0.814,0.533c0.223,0.234,0.334,0.568,0.334,1.002
		c0,0.074-0.008,0.184-0.023,0.326c-0.043,0.365-0.162,0.666-0.361,0.902c-0.194,0.231-0.428,0.406-0.692,0.51
		c-0.267,0.105-0.528,0.158-0.787,0.158c-0.358,0-0.68-0.082-0.959-0.244c-0.282-0.166-0.504-0.389-0.657-0.674
		c-0.156-0.283-0.234-0.598-0.234-0.945l0.803-0.021c0.012,0.342,0.127,0.617,0.346,0.826c0.221,0.213,0.471,0.324,0.75,0.334
		c0.283-0.022,0.521-0.133,0.723-0.326c0.197-0.192,0.297-0.428,0.297-0.701c0-0.243-0.077-0.465-0.239-0.661
		c-0.158-0.199-0.403-0.341-0.733-0.425c-0.453-0.121-0.839-0.291-1.16-0.51C275.786,36.298,275.602,35.977,275.553,35.544z"/>
	<path d="M282.575,36.811c0.006-0.472,0.098-0.904,0.276-1.295c0.181-0.396,0.423-0.729,0.724-1.007
		c0.305-0.272,0.643-0.481,1.021-0.631c0.379-0.146,0.763-0.221,1.151-0.221c1.082,0.026,1.859,0.461,2.328,1.303v-1.149h0.779
		v5.928h-0.779v-1.127c-0.223,0.397-0.543,0.707-0.965,0.926s-0.897,0.33-1.432,0.33c-0.404-0.012-0.795-0.088-1.166-0.234
		c-0.373-0.146-0.705-0.352-0.998-0.619c-0.295-0.27-0.525-0.592-0.693-0.967C282.657,37.671,282.575,37.259,282.575,36.811z
		 M283.397,36.626c0,0.485,0.107,0.916,0.32,1.291c0.215,0.377,0.498,0.664,0.85,0.863c0.353,0.202,0.723,0.307,1.115,0.313
		c0.451,0,0.861-0.107,1.229-0.326c0.363-0.219,0.65-0.502,0.857-0.854c0.207-0.354,0.309-0.724,0.309-1.104
		c0-0.42-0.1-0.807-0.299-1.16c-0.203-0.354-0.479-0.641-0.83-0.852c-0.352-0.213-0.738-0.328-1.156-0.352
		c-0.457,0-0.866,0.111-1.233,0.342c-0.364,0.227-0.651,0.512-0.854,0.854C283.499,35.988,283.397,36.314,283.397,36.626z"/>
	<path d="M293.006,39.736V31.72h0.805v8.017H293.006z"/>
	<path d="M294.887,36.811c0.006-0.472,0.098-0.904,0.277-1.295c0.18-0.396,0.422-0.729,0.725-1.007
		c0.303-0.272,0.641-0.481,1.02-0.631c0.381-0.146,0.765-0.221,1.152-0.221c1.084,0.026,1.859,0.461,2.33,1.303v-1.149h0.779v5.928
		h-0.779v-1.127c-0.223,0.397-0.543,0.707-0.967,0.926c-0.42,0.219-0.896,0.33-1.43,0.33c-0.406-0.012-0.795-0.088-1.166-0.234
		c-0.373-0.146-0.705-0.352-1-0.619c-0.295-0.27-0.523-0.592-0.691-0.967C294.971,37.671,294.887,37.259,294.887,36.811z
		 M295.711,36.626c0,0.485,0.105,0.916,0.318,1.291c0.217,0.377,0.498,0.664,0.85,0.863c0.354,0.202,0.725,0.307,1.115,0.313
		c0.453,0,0.863-0.107,1.23-0.326c0.361-0.219,0.646-0.502,0.854-0.854c0.207-0.354,0.314-0.724,0.314-1.104
		c0-0.42-0.104-0.807-0.305-1.16c-0.199-0.354-0.479-0.641-0.828-0.852c-0.352-0.213-0.736-0.328-1.155-0.352
		c-0.456,0-0.866,0.111-1.233,0.342c-0.367,0.227-0.652,0.512-0.855,0.854C295.813,35.986,295.711,36.314,295.711,36.626z"/>
	<path d="M305.104,36.757c0-0.618,0.145-1.164,0.436-1.631s0.662-0.828,1.113-1.078c0.451-0.252,0.916-0.383,1.389-0.391
		c0.361,0,0.703,0.053,1.027,0.161c0.328,0.107,0.613,0.263,0.863,0.464c0.25,0.202,0.439,0.436,0.566,0.698v-1.192h0.76v5.438
		c0,0.453-0.078,0.854-0.234,1.203c-0.158,0.352-0.373,0.643-0.646,0.87c-0.271,0.234-0.588,0.408-0.938,0.525
		c-0.355,0.114-0.717,0.174-1.094,0.174c-0.34,0-0.67-0.047-0.994-0.14c-0.326-0.094-0.625-0.229-0.898-0.407
		c-0.27-0.181-0.508-0.404-0.705-0.672c-0.193-0.271-0.34-0.576-0.426-0.919h0.779c0.195,0.457,0.494,0.804,0.893,1.041
		c0.402,0.236,0.838,0.355,1.309,0.355c0.389,0,0.75-0.08,1.086-0.24s0.604-0.397,0.809-0.711c0.205-0.313,0.307-0.682,0.307-1.104
		v-0.647c-0.469,0.872-1.236,1.311-2.311,1.311c-0.367,0-0.732-0.068-1.104-0.203c-0.363-0.137-0.697-0.336-0.992-0.604
		c-0.301-0.269-0.537-0.599-0.719-0.988C305.202,37.68,305.11,37.242,305.104,36.757z M305.907,36.604
		c0,0.498,0.102,0.936,0.305,1.311c0.201,0.377,0.48,0.664,0.822,0.865c0.344,0.203,0.723,0.309,1.135,0.316
		c0.328,0,0.672-0.085,1.037-0.255c0.359-0.17,0.666-0.438,0.918-0.803c0.252-0.365,0.377-0.822,0.377-1.367
		c0-0.276-0.061-0.551-0.186-0.817c-0.123-0.271-0.293-0.513-0.514-0.722c-0.217-0.211-0.475-0.377-0.768-0.5
		s-0.602-0.184-0.926-0.184c-0.566,0.014-1.018,0.161-1.34,0.442c-0.328,0.281-0.557,0.59-0.68,0.922
		C305.967,36.148,305.907,36.414,305.907,36.604z"/>
	<path d="M312.352,36.734c0.012-0.476,0.104-0.9,0.275-1.279c0.174-0.381,0.408-0.701,0.703-0.969
		c0.295-0.271,0.619-0.473,0.98-0.609c0.357-0.139,0.727-0.213,1.104-0.219c0.508,0,0.996,0.125,1.471,0.371
		c0.477,0.244,0.863,0.613,1.166,1.106c0.303,0.492,0.453,1.078,0.453,1.763v0.149h-5.354c0.035,0.438,0.172,0.813,0.402,1.123
		c0.234,0.312,0.521,0.541,0.855,0.693c0.334,0.153,0.662,0.229,0.984,0.229c0.285,0,0.574-0.057,0.871-0.17
		c0.289-0.116,0.551-0.271,0.773-0.473c0.227-0.199,0.383-0.425,0.479-0.666h0.82c-0.166,0.455-0.404,0.84-0.727,1.153
		c-0.318,0.314-0.674,0.547-1.068,0.697c-0.393,0.15-0.793,0.229-1.191,0.229c-0.525-0.021-1.021-0.162-1.48-0.425
		c-0.461-0.26-0.828-0.625-1.104-1.094C312.491,37.88,312.352,37.343,312.352,36.734z M317.725,36.335
		c-0.068-0.342-0.207-0.658-0.424-0.949c-0.213-0.291-0.482-0.521-0.809-0.698c-0.326-0.172-0.676-0.261-1.057-0.261
		c-0.51,0-0.932,0.119-1.27,0.361c-0.336,0.239-0.584,0.508-0.742,0.807c-0.156,0.298-0.25,0.544-0.271,0.738h4.572V36.335
		L317.725,36.335z"/>
	<path d="M319.551,39.736v-5.926h0.762v0.889c0.195-0.328,0.463-0.578,0.801-0.754c0.34-0.178,0.699-0.266,1.082-0.266
		c0.332,0,0.654,0.061,0.967,0.18c0.313,0.121,0.586,0.295,0.832,0.522c0.244,0.229,0.439,0.517,0.586,0.857
		c0.146,0.342,0.217,0.725,0.217,1.146v3.35h-0.775v-3.35c0-0.41-0.09-0.76-0.268-1.049c-0.176-0.289-0.402-0.508-0.689-0.652
		c-0.283-0.145-0.588-0.217-0.91-0.217c-0.314,0-0.609,0.068-0.885,0.209c-0.271,0.139-0.492,0.346-0.662,0.621
		c-0.168,0.275-0.252,0.605-0.252,0.99v3.445h-0.805V39.736L319.551,39.736z"/>
	<path d="M326.543,39.736v-5.203h-1.246v-0.723h1.246V31.72h0.801v2.091h1.375v0.723h-1.375v5.203H326.543z"/>
	<path d="M328.926,36.734c0.016-0.476,0.107-0.9,0.281-1.279c0.174-0.381,0.406-0.701,0.701-0.969
		c0.295-0.271,0.621-0.473,0.98-0.609c0.357-0.139,0.727-0.213,1.104-0.219c0.506,0,0.996,0.125,1.471,0.371
		c0.477,0.244,0.863,0.613,1.166,1.106c0.305,0.492,0.453,1.078,0.453,1.763v0.149h-5.354c0.035,0.438,0.17,0.813,0.402,1.123
		c0.234,0.31,0.521,0.541,0.855,0.693c0.336,0.153,0.662,0.229,0.986,0.229c0.283,0,0.572-0.057,0.865-0.17
		c0.293-0.116,0.555-0.271,0.777-0.473c0.225-0.199,0.383-0.425,0.477-0.666h0.822c-0.166,0.455-0.406,0.84-0.725,1.153
		c-0.318,0.314-0.676,0.547-1.068,0.697c-0.395,0.15-0.793,0.229-1.195,0.229c-0.525-0.021-1.02-0.162-1.479-0.425
		c-0.461-0.26-0.828-0.625-1.105-1.094C329.067,37.88,328.926,37.343,328.926,36.734z M334.301,36.335
		c-0.064-0.342-0.207-0.658-0.42-0.949c-0.215-0.291-0.484-0.521-0.811-0.698c-0.324-0.172-0.678-0.261-1.059-0.261
		c-0.508,0-0.93,0.119-1.27,0.361c-0.334,0.239-0.582,0.508-0.742,0.807c-0.158,0.298-0.25,0.544-0.271,0.738h4.568v0.002H334.301z"
		/>
	<path d="M336.836,32.371h-1.451v-0.65h3.695v0.65h-1.441v3.92h-0.803V32.371L336.836,32.371z M339.891,36.291v-4.57h1.158
		l1.313,3.215l1.354-3.215h1.16v4.57h-0.715v-3.92l-1.582,3.92h-0.422l-1.549-3.92v3.92H339.891z"/>
</g>
</svg>
