<?xml version="1.0" encoding="utf-8"?>
<!-- Generator: Adobe Illustrator 16.0.3, SVG Export Plug-In . SVG Version: 6.00 Build 0)  -->
<!DOCTYPE svg PUBLIC "-//W3C//DTD SVG 1.1//EN" "http://www.w3.org/Graphics/SVG/1.1/DTD/svg11.dtd">
<svg version="1.1" id="Layer_1" xmlns="http://www.w3.org/2000/svg" xmlns:xlink="http://www.w3.org/1999/xlink" x="0px" y="0px"
	 width="671px" height="90px" viewBox="0 0 671 90" enable-background="new 0 0 671 90" xml:space="preserve">
<g>
	<g>
		<path fill="#FFFFFF" d="M1,1.041h145.484V90H1V1.041z"/>
	</g>
	<g>
		<path fill="#105EAB" d="M2.429,2.496h142.626v85.962H2.429V2.496z"/>
	</g>
	<polygon fill="#FFFFFF" points="60.979,88.44 145.024,3.297 145.024,2.445 144.602,2.445 59.721,88.44 	"/>
	<polygon fill="#FFFFFF" points="7.987,88.44 13.668,2.445 12.774,2.445 7.093,88.44 	"/>
	<polygon fill="#FFFFFF" points="12.532,88.44 24.803,2.445 23.894,2.445 11.63,88.44 	"/>
	<polygon fill="#FFFFFF" points="17.395,88.44 36.589,2.445 35.68,2.445 16.478,88.44 	"/>
	<polygon fill="#FFFFFF" points="22.735,88.44 50.132,2.445 49.209,2.445 21.803,88.44 	"/>
	<polygon fill="#FFFFFF" points="27.773,88.44 62.97,2.445 62.002,2.445 26.802,88.44 	"/>
	<polygon fill="#FFFFFF" points="33.566,88.44 77.59,2.445 76.605,2.445 32.559,88.44 	"/>
	<polygon fill="#FFFFFF" points="99.586,2.445 98.518,2.445 41.521,88.44 42.587,88.44 	"/>
	<polygon fill="#FFFFFF" points="119.91,2.445 118.787,2.445 49.496,88.44 50.64,88.44 	"/>
	<polygon fill="#FFFFFF" points="145.024,34.985 145.024,33.855 76.316,88.44 77.733,88.44 	"/>
	<polygon fill="#FFFFFF" points="145.024,58.64 145.024,57.591 95.663,88.44 97.352,88.44 	"/>
	<polygon fill="#FFFFFF" points="145.024,80.959 145.024,79.968 126.861,88.44 128.968,88.44 	"/>
	<path fill="#FFFFFF" d="M45.001,54.146c-1.765,1.691-6.2,3.515-9.457,3.483c-9.476-0.01-13.903-8.063-13.982-20.365
		c0.063-11.642,4.841-19.047,13.048-19.063c5.869,0.008,8.722,3.41,10.281,5.44l1.717,2.285V15.345l-0.549-0.254
		c-3.383-1.573-7.678-2.309-11.593-2.316c-14.733,0.032-25.977,10.593-26,25.501c0.023,15.292,10.65,24.895,25.871,24.919h0.079
		c7.557,0,11.434-2.281,13.479-3.849l0.605-0.461l-2.522-5.658L45.001,54.146z M86.285,18.276
		c-4.93-3.618-11.104-4.688-16.371-4.688H51.92v48.741h19.165c9.296-0.021,23.658-5.919,23.682-24.505
		C94.783,28.094,91.231,21.892,86.285,18.276z M63.755,56.675V19.093c8.703,0.232,17.966,1.292,18.13,18.93
		C81.744,55.153,72.269,56.44,63.755,56.675z M135.815,53.229l-0.977,0.918c-1.766,1.692-6.189,3.512-9.442,3.479
		c-9.476,0-13.907-8.061-13.986-20.357c0.064-11.65,4.848-19.053,13.066-19.069c5.858,0.008,8.718,3.413,10.247,5.441l1.724,2.316
		V15.348l-0.546-0.256c-3.366-1.578-7.661-2.307-11.592-2.313c-14.729,0.03-25.946,10.591-25.969,25.501
		c0.023,15.295,10.624,24.891,25.856,24.919h0.117c7.533,0,11.393-2.284,13.44-3.85l0.606-0.463L135.815,53.229z"/>
	<path fill="#0033A0" d="M147.594,86.056h1.72v0.254h-0.72v1.847h-0.272V86.31h-0.728V86.056z"/>
	<path fill="#0033A0" d="M151.313,88.153v-1.258c0-0.047,0-0.317,0-0.519l0,0l-0.598,1.774h-0.281l-0.591-1.774h-0.008
		c0,0.199,0.008,0.472,0.008,0.519v1.258h-0.28v-2.1h0.4l0.613,1.777h0.008l0.59-1.777h0.41v2.1H151.313z"/>
</g>
<g>
	<path d="M158.317,60.731c0.135-1.211,0.546-2.275,1.233-3.198c0.688-0.923,1.545-1.632,2.574-2.126
		c1.028-0.496,2.107-0.744,3.236-0.744c0.617,0,1.22,0.075,1.81,0.225c0.59,0.15,1.154,0.377,1.691,0.682
		c0.537,0.304,1.037,0.688,1.5,1.152c0.462,0.463,0.869,1.01,1.219,1.639h-1.509c-0.393-0.516-0.843-0.948-1.352-1.303
		c-0.509-0.354-1.043-0.613-1.604-0.781c-0.56-0.168-1.12-0.252-1.68-0.252c-0.749,0-1.471,0.136-2.167,0.404
		c-0.696,0.271-1.318,0.657-1.864,1.162c-0.546,0.506-0.978,1.114-1.293,1.823s-0.474,1.485-0.474,2.33
		c0.012,1.087,0.288,2.063,0.829,2.93c0.541,0.867,1.25,1.541,2.131,2.024c0.881,0.482,1.813,0.732,2.798,0.748
		c0.578-0.016,1.153-0.114,1.725-0.297c0.572-0.184,1.115-0.457,1.63-0.823c0.515-0.367,0.973-0.828,1.375-1.386h1.509
		c-0.494,0.849-1.072,1.555-1.734,2.117c-0.662,0.563-1.374,0.98-2.136,1.252c-0.762,0.271-1.552,0.406-2.369,0.406
		c-0.901,0-1.779-0.167-2.634-0.5c-0.855-0.334-1.623-0.814-2.304-1.439c-0.681-0.625-1.218-1.377-1.61-2.254
		c-0.393-0.879-0.588-1.834-0.588-2.871C158.259,61.341,158.279,61.034,158.317,60.731z"/>
	<path d="M173.089,63.399c0.021-0.807,0.179-1.53,0.474-2.174c0.295-0.645,0.692-1.192,1.193-1.646
		c0.5-0.453,1.055-0.799,1.664-1.035s1.234-0.359,1.875-0.368c0.859,0,1.692,0.209,2.497,0.628c0.806,0.416,1.465,1.045,1.979,1.881
		c0.514,0.838,0.771,1.834,0.771,2.994v0.256h-9.091c0.06,0.746,0.289,1.381,0.687,1.906c0.398,0.525,0.881,0.918,1.449,1.18
		c0.568,0.261,1.125,0.391,1.673,0.391c0.488,0,0.981-0.098,1.478-0.292s0.936-0.462,1.318-0.802
		c0.382-0.34,0.652-0.717,0.811-1.131h1.396c-0.281,0.772-0.692,1.428-1.233,1.961c-0.541,0.535-1.145,0.931-1.814,1.187
		s-1.345,0.384-2.028,0.384c-0.896-0.035-1.733-0.273-2.513-0.716c-0.78-0.44-1.406-1.062-1.877-1.856
		C173.325,65.347,173.089,64.433,173.089,63.399z M182.215,62.722c-0.114-0.58-0.353-1.119-0.716-1.613
		c-0.363-0.493-0.822-0.889-1.375-1.184c-0.552-0.295-1.15-0.441-1.794-0.441c-0.862,0-1.579,0.205-2.151,0.613
		c-0.572,0.408-0.992,0.864-1.262,1.369c-0.27,0.506-0.425,0.924-0.467,1.256H182.215L182.215,62.722z"/>
	<path d="M185.482,68.497V58.433h1.289v1.51c0.333-0.555,0.786-0.981,1.361-1.28c0.575-0.3,1.188-0.449,1.837-0.449
		c0.566,0,1.112,0.103,1.64,0.306c0.527,0.203,0.999,0.5,1.415,0.89c0.417,0.39,0.748,0.875,0.995,1.454
		c0.247,0.582,0.371,1.231,0.371,1.949v5.688h-1.325v-5.688c0-0.693-0.149-1.287-0.447-1.779c-0.298-0.493-0.689-0.861-1.172-1.107
		c-0.483-0.244-1-0.367-1.547-0.367c-0.536,0-1.036,0.116-1.5,0.353c-0.464,0.235-0.839,0.587-1.125,1.056s-0.429,1.029-0.429,1.682
		v5.854h-1.363V68.497z"/>
	<path d="M197.512,68.497v-8.835h-2.115v-1.229h2.115v-3.549h1.361v3.549h2.335v1.229h-2.335v8.835H197.512z"/>
	<path d="M202.617,68.497V58.396h1.271v1.51c0.56-1.153,1.541-1.729,2.942-1.729v1.38c-0.317,0-0.646,0.066-0.988,0.201
		c-0.341,0.135-0.655,0.326-0.941,0.575c-0.286,0.248-0.514,0.539-0.685,0.871s-0.256,0.69-0.256,1.078v6.216H202.617
		L202.617,68.497z"/>
	<path d="M207.274,63.292c0.009-0.662,0.148-1.3,0.417-1.914c0.27-0.613,0.646-1.158,1.13-1.633c0.483-0.475,1.057-0.85,1.72-1.122
		c0.663-0.274,1.382-0.411,2.158-0.411c0.736,0,1.49,0.211,2.261,0.633c0.771,0.424,1.42,1,1.947,1.731
		c0.527,0.731,0.824,1.539,0.89,2.419c0,0.045,0.003,0.109,0.009,0.197c0.006,0.086,0.009,0.149,0.009,0.188
		c0,0.742-0.14,1.438-0.418,2.086c-0.278,0.648-0.666,1.218-1.163,1.707s-1.065,0.868-1.705,1.138
		c-0.64,0.271-1.311,0.404-2.015,0.404c-0.85,0-1.68-0.212-2.49-0.638c-0.81-0.425-1.471-1.05-1.983-1.875
		C207.53,65.379,207.274,64.408,207.274,63.292z M208.599,63.36c0,0.806,0.179,1.511,0.537,2.115
		c0.357,0.604,0.839,1.074,1.444,1.412c0.605,0.336,1.264,0.521,1.976,0.559c0.596,0,1.191-0.16,1.786-0.48
		c0.594-0.32,1.086-0.791,1.475-1.412c0.389-0.619,0.584-1.352,0.584-2.191c0-0.488-0.102-0.963-0.305-1.426
		c-0.204-0.463-0.485-0.875-0.845-1.238s-0.774-0.651-1.244-0.862c-0.47-0.211-0.954-0.315-1.451-0.315
		c-0.677,0.016-1.316,0.188-1.917,0.521c-0.602,0.333-1.089,0.789-1.462,1.369C208.803,61.989,208.611,62.64,208.599,63.36z"/>
	<path d="M219.322,61.378c-0.012-0.1-0.018-0.232-0.018-0.404c0-0.584,0.145-1.084,0.436-1.504s0.655-0.734,1.094-0.943
		s0.867-0.313,1.284-0.313c0.338,0,0.675,0.058,1.011,0.171c0.335,0.113,0.642,0.282,0.919,0.508
		c0.277,0.225,0.502,0.51,0.674,0.854c0.172,0.345,0.268,0.734,0.286,1.173h-1.379c-0.024-0.481-0.179-0.836-0.465-1.062
		c-0.286-0.225-0.634-0.336-1.044-0.336c-0.362,0-0.699,0.117-1.01,0.354c-0.312,0.235-0.478,0.583-0.499,1.042
		c0.003,0.012,0.021,0.087,0.052,0.227c0.032,0.14,0.052,0.229,0.061,0.271c0.093,0.332,0.409,0.609,0.948,0.833
		s1.082,0.438,1.628,0.644s1.008,0.506,1.385,0.904c0.377,0.396,0.566,0.965,0.566,1.702c0,0.126-0.013,0.31-0.04,0.552
		c-0.075,0.62-0.28,1.131-0.614,1.532c-0.334,0.401-0.728,0.69-1.18,0.869c-0.453,0.178-0.897,0.267-1.335,0.267
		c-0.608,0-1.152-0.139-1.631-0.417c-0.479-0.278-0.852-0.659-1.117-1.142c-0.265-0.48-0.398-1.016-0.398-1.604l1.365-0.041
		c0.018,0.578,0.213,1.047,0.586,1.406s0.797,0.549,1.274,0.564c0.479-0.041,0.887-0.227,1.224-0.555
		c0.336-0.328,0.505-0.726,0.505-1.191c0-0.413-0.135-0.788-0.406-1.125c-0.271-0.338-0.688-0.575-1.251-0.717
		c-0.768-0.207-1.424-0.496-1.968-0.866C219.72,62.66,219.406,62.108,219.322,61.378z"/>
	<path d="M232.078,72.01V58.396h1.303v1.807c0.302-0.439,0.655-0.809,1.058-1.104c0.403-0.298,0.84-0.521,1.312-0.673
		c0.471-0.151,0.963-0.233,1.475-0.249c0.683,0,1.351,0.122,2.003,0.366s1.239,0.589,1.758,1.035s0.935,0.981,1.247,1.606
		c0.312,0.627,0.476,1.303,0.493,2.03c0,0.806-0.136,1.541-0.408,2.206c-0.272,0.664-0.658,1.243-1.156,1.734
		c-0.499,0.494-1.071,0.871-1.716,1.138c-0.646,0.265-1.336,0.406-2.073,0.424c-0.88,0-1.673-0.188-2.378-0.567
		c-0.705-0.379-1.218-0.906-1.538-1.584v5.444H232.078L232.078,72.01z M233.344,63.528c0.015,0.597,0.166,1.188,0.452,1.772
		s0.733,1.077,1.34,1.478c0.608,0.4,1.359,0.611,2.254,0.632c0.683,0,1.327-0.169,1.932-0.509c0.604-0.338,1.087-0.809,1.448-1.411
		s0.542-1.275,0.542-2.015c0-0.701-0.177-1.354-0.53-1.961c-0.353-0.605-0.84-1.091-1.459-1.453
		c-0.619-0.361-1.307-0.543-2.062-0.543c-0.781,0.026-1.47,0.229-2.066,0.605s-1.053,0.871-1.372,1.48
		C233.504,62.213,233.344,62.854,233.344,63.528z"/>
	<path d="M244.15,63.528c0.009-0.801,0.167-1.536,0.472-2.204c0.306-0.668,0.715-1.235,1.229-1.702
		c0.515-0.467,1.092-0.825,1.734-1.073c0.642-0.249,1.294-0.372,1.956-0.372c1.842,0.045,3.161,0.78,3.957,2.209v-1.953h1.325
		v10.064h-1.325v-1.913c-0.377,0.677-0.924,1.201-1.639,1.574c-0.717,0.372-1.526,0.559-2.431,0.559
		c-0.688-0.018-1.349-0.149-1.979-0.397c-0.631-0.246-1.197-0.598-1.695-1.053s-0.89-1.002-1.175-1.64
		C244.293,64.989,244.15,64.29,244.15,63.528z M245.547,63.215c0,0.827,0.182,1.56,0.546,2.194c0.364,0.637,0.843,1.125,1.439,1.467
		c0.596,0.341,1.228,0.52,1.895,0.534c0.771,0,1.464-0.185,2.084-0.556c0.62-0.369,1.105-0.854,1.457-1.455
		c0.353-0.601,0.528-1.224,0.528-1.871c0-0.711-0.17-1.368-0.512-1.971s-0.812-1.084-1.408-1.443
		c-0.598-0.361-1.252-0.561-1.965-0.596c-0.776,0-1.476,0.192-2.099,0.578c-0.623,0.387-1.105,0.87-1.451,1.451
		C245.717,62.129,245.547,62.687,245.547,63.215z"/>
	<path d="M257.329,68.497V58.396h1.271v1.51c0.561-1.153,1.541-1.729,2.942-1.729v1.38c-0.317,0-0.646,0.066-0.988,0.201
		c-0.341,0.135-0.655,0.326-0.94,0.575c-0.286,0.248-0.515,0.539-0.686,0.871s-0.256,0.69-0.256,1.078v6.216H257.329L257.329,68.497
		z"/>
	<path d="M261.959,63.528c0.009-0.801,0.167-1.536,0.472-2.204c0.307-0.668,0.715-1.235,1.229-1.702
		c0.514-0.467,1.091-0.825,1.733-1.073c0.643-0.249,1.294-0.372,1.956-0.372c1.843,0.045,3.161,0.78,3.957,2.209v-1.953h1.325
		v10.064h-1.325v-1.913c-0.377,0.677-0.924,1.201-1.639,1.574c-0.716,0.372-1.526,0.559-2.43,0.559
		c-0.688-0.018-1.35-0.149-1.98-0.397c-0.631-0.246-1.197-0.598-1.695-1.053s-0.89-1.002-1.175-1.64
		C262.101,64.989,261.959,64.29,261.959,63.528z M263.355,63.215c0,0.827,0.183,1.56,0.547,2.194
		c0.363,0.637,0.843,1.125,1.438,1.467c0.596,0.341,1.229,0.52,1.896,0.534c0.77,0,1.464-0.185,2.084-0.556
		c0.619-0.369,1.104-0.854,1.457-1.455c0.352-0.601,0.527-1.224,0.527-1.871c0-0.711-0.17-1.368-0.512-1.971
		c-0.341-0.603-0.811-1.084-1.408-1.443c-0.597-0.361-1.252-0.561-1.965-0.596c-0.776,0-1.475,0.192-2.098,0.578
		c-0.623,0.387-1.106,0.87-1.451,1.451S263.355,62.687,263.355,63.215z"/>
	<path d="M279.677,63.399c0.021-0.807,0.179-1.53,0.475-2.174c0.295-0.645,0.691-1.192,1.192-1.646
		c0.5-0.453,1.055-0.799,1.664-1.035s1.234-0.359,1.875-0.368c0.859,0,1.692,0.209,2.497,0.628c0.806,0.416,1.465,1.045,1.979,1.881
		c0.514,0.838,0.771,1.834,0.771,2.994v0.256h-9.091c0.06,0.746,0.289,1.381,0.687,1.906c0.398,0.525,0.882,0.918,1.449,1.18
		c0.568,0.261,1.125,0.391,1.673,0.391c0.488,0,0.981-0.098,1.479-0.292s0.936-0.462,1.317-0.802
		c0.383-0.34,0.652-0.717,0.812-1.131h1.396c-0.28,0.772-0.691,1.428-1.232,1.961c-0.541,0.535-1.146,0.931-1.814,1.187
		s-1.345,0.384-2.027,0.384c-0.896-0.035-1.733-0.273-2.514-0.716c-0.78-0.44-1.406-1.062-1.877-1.856
		C279.913,65.347,279.677,64.433,279.677,63.399z M288.804,62.722c-0.114-0.58-0.353-1.119-0.716-1.613
		c-0.363-0.493-0.822-0.889-1.375-1.184c-0.552-0.295-1.15-0.441-1.794-0.441c-0.862,0-1.579,0.205-2.151,0.613
		c-0.571,0.408-0.991,0.864-1.262,1.369c-0.27,0.506-0.425,0.924-0.467,1.256H288.804L288.804,62.722z"/>
	<path d="M292.095,68.497V54.884h1.361v13.613H292.095z"/>
	<path d="M300.562,60.731c0.136-1.211,0.546-2.275,1.233-3.198s1.545-1.632,2.574-2.126c1.027-0.496,2.106-0.744,3.235-0.744
		c0.617,0,1.221,0.075,1.811,0.225c0.59,0.15,1.154,0.377,1.69,0.682c0.537,0.304,1.037,0.688,1.5,1.152
		c0.463,0.463,0.869,1.01,1.22,1.639h-1.509c-0.394-0.516-0.844-0.948-1.353-1.303c-0.509-0.354-1.043-0.613-1.604-0.781
		s-1.12-0.252-1.681-0.252c-0.749,0-1.471,0.136-2.167,0.404c-0.695,0.271-1.317,0.657-1.864,1.162
		c-0.546,0.506-0.978,1.114-1.293,1.823c-0.314,0.709-0.474,1.485-0.474,2.33c0.012,1.087,0.288,2.063,0.829,2.93
		c0.541,0.867,1.25,1.541,2.131,2.024c0.881,0.482,1.813,0.732,2.798,0.748c0.578-0.016,1.153-0.114,1.726-0.297
		c0.571-0.184,1.114-0.457,1.63-0.823c0.515-0.367,0.973-0.828,1.375-1.386h1.509c-0.494,0.849-1.072,1.555-1.734,2.117
		c-0.661,0.563-1.374,0.98-2.136,1.252s-1.552,0.406-2.369,0.406c-0.9,0-1.778-0.167-2.634-0.5
		c-0.854-0.334-1.623-0.814-2.304-1.439s-1.218-1.377-1.61-2.254c-0.393-0.879-0.588-1.834-0.588-2.871
		C300.503,61.341,300.522,61.034,300.562,60.731z"/>
	<path d="M315.324,63.292c0.009-0.662,0.147-1.3,0.417-1.914c0.27-0.613,0.646-1.158,1.13-1.633c0.482-0.475,1.057-0.85,1.72-1.122
		c0.663-0.274,1.382-0.411,2.158-0.411c0.736,0,1.49,0.211,2.261,0.633c0.771,0.424,1.42,1,1.947,1.731s0.824,1.539,0.89,2.419
		c0,0.045,0.003,0.109,0.009,0.197c0.007,0.086,0.01,0.149,0.01,0.188c0,0.742-0.141,1.438-0.418,2.086
		c-0.278,0.648-0.666,1.218-1.163,1.707s-1.065,0.868-1.705,1.138c-0.641,0.271-1.312,0.404-2.016,0.404
		c-0.85,0-1.68-0.212-2.489-0.638c-0.811-0.425-1.472-1.05-1.983-1.875C315.58,65.379,315.324,64.408,315.324,63.292z
		 M316.648,63.36c0,0.806,0.18,1.511,0.537,2.115c0.357,0.604,0.84,1.074,1.444,1.412c0.605,0.336,1.264,0.521,1.976,0.559
		c0.597,0,1.191-0.16,1.786-0.48s1.086-0.791,1.476-1.412c0.389-0.619,0.584-1.352,0.584-2.191c0-0.488-0.103-0.963-0.306-1.426
		s-0.484-0.875-0.845-1.238c-0.359-0.363-0.773-0.651-1.244-0.862c-0.47-0.211-0.954-0.315-1.45-0.315
		c-0.678,0.016-1.316,0.188-1.917,0.521c-0.603,0.333-1.09,0.789-1.463,1.369C316.853,61.989,316.661,62.64,316.648,63.36z"/>
	<path d="M327.828,68.497V58.433h1.289v1.51c0.333-0.555,0.786-0.981,1.36-1.28c0.575-0.3,1.188-0.449,1.837-0.449
		c0.566,0,1.112,0.103,1.641,0.306c0.527,0.203,0.998,0.5,1.415,0.89c0.416,0.39,0.747,0.875,0.994,1.454
		c0.247,0.582,0.371,1.231,0.371,1.949v5.688h-1.325v-5.688c0-0.693-0.149-1.287-0.447-1.779c-0.298-0.493-0.688-0.861-1.172-1.107
		c-0.483-0.244-0.999-0.367-1.547-0.367c-0.536,0-1.036,0.116-1.5,0.353c-0.464,0.235-0.839,0.587-1.125,1.056
		s-0.43,1.029-0.43,1.682v5.854h-1.361V68.497z"/>
	<path d="M339.857,68.497v-8.835h-2.115v-1.229h2.115v-3.549h1.36v3.549h2.336v1.229h-2.336v8.835H339.857z"/>
	<path d="M344.964,68.497V58.396h1.271v1.51c0.56-1.153,1.54-1.729,2.94-1.729v1.38c-0.316,0-0.646,0.066-0.988,0.201
		c-0.341,0.135-0.654,0.326-0.939,0.575c-0.286,0.248-0.516,0.539-0.687,0.871c-0.17,0.332-0.256,0.69-0.256,1.078v6.216H344.964
		L344.964,68.497z"/>
	<path d="M349.62,63.292c0.01-0.662,0.147-1.3,0.418-1.914c0.27-0.613,0.646-1.158,1.13-1.633c0.483-0.475,1.057-0.85,1.72-1.122
		c0.663-0.274,1.383-0.411,2.158-0.411c0.737,0,1.49,0.211,2.262,0.633c0.771,0.424,1.42,1,1.947,1.731
		c0.526,0.731,0.823,1.539,0.889,2.419c0,0.045,0.003,0.109,0.011,0.197c0.006,0.086,0.009,0.149,0.009,0.188
		c0,0.742-0.141,1.438-0.418,2.086c-0.278,0.648-0.666,1.218-1.163,1.707s-1.065,0.868-1.705,1.138
		c-0.639,0.271-1.311,0.404-2.014,0.404c-0.852,0-1.682-0.212-2.491-0.638c-0.811-0.425-1.471-1.05-1.982-1.875
		C349.879,65.378,349.62,64.408,349.62,63.292z M350.945,63.36c0,0.806,0.179,1.511,0.536,2.115c0.357,0.604,0.84,1.074,1.443,1.412
		c0.605,0.336,1.264,0.521,1.978,0.559c0.596,0,1.19-0.16,1.784-0.48c0.596-0.32,1.087-0.791,1.477-1.412
		c0.39-0.619,0.584-1.352,0.584-2.191c0-0.488-0.103-0.963-0.306-1.426s-0.484-0.875-0.845-1.238
		c-0.359-0.363-0.773-0.651-1.244-0.862s-0.954-0.315-1.45-0.315c-0.678,0.016-1.315,0.188-1.918,0.521s-1.09,0.789-1.463,1.369
		C351.148,61.989,350.957,62.64,350.945,63.36z"/>
	<path d="M362.148,68.497V54.884h1.36v13.613H362.148z"/>
	<path d="M373.775,68.165l-3.845-9.732h1.434l3.237,8.021l3.404-8.021h1.438l-5.816,13.577h-1.433L373.775,68.165z"/>
	<path d="M385.845,68.497V54.884h1.36v13.613H385.845z"/>
	<path d="M389.2,63.528c0.009-0.801,0.166-1.536,0.472-2.204c0.305-0.668,0.715-1.235,1.229-1.702s1.092-0.825,1.733-1.073
		c0.643-0.249,1.294-0.372,1.956-0.372c1.841,0.045,3.16,0.78,3.957,2.209v-1.953h1.324v10.064h-1.324v-1.913
		c-0.378,0.677-0.924,1.201-1.64,1.574c-0.717,0.372-1.525,0.559-2.431,0.559c-0.688-0.018-1.35-0.149-1.98-0.397
		c-0.631-0.246-1.196-0.598-1.695-1.053c-0.498-0.455-0.89-1.002-1.174-1.64C389.342,64.989,389.2,64.29,389.2,63.528z
		 M390.597,63.215c0,0.827,0.183,1.56,0.546,2.194c0.363,0.637,0.845,1.125,1.439,1.467c0.596,0.341,1.228,0.52,1.896,0.534
		c0.771,0,1.464-0.185,2.084-0.556c0.619-0.369,1.105-0.854,1.457-1.455c0.353-0.601,0.528-1.224,0.528-1.871
		c0-0.711-0.171-1.368-0.513-1.971c-0.341-0.603-0.812-1.084-1.408-1.443c-0.597-0.361-1.252-0.561-1.965-0.596
		c-0.775,0-1.476,0.192-2.099,0.578c-0.621,0.387-1.105,0.87-1.449,1.451C390.769,62.13,390.597,62.687,390.597,63.215z"/>
	<path d="M407.523,68.497V54.884h3.571c1.071,0,1.994,0.113,2.77,0.34c0.773,0.227,1.396,0.623,1.868,1.189
		c0.472,0.566,0.739,1.339,0.807,2.314c0.012,0.088,0.018,0.209,0.018,0.369c0,0.754-0.198,1.428-0.6,2.021
		c-0.399,0.593-0.957,1.054-1.673,1.383s-1.527,0.494-2.436,0.494h-2.964v5.502L407.523,68.497L407.523,68.497z M408.886,56.097
		v5.687h2.816c1.196,0,2.076-0.275,2.636-0.826c0.561-0.551,0.84-1.294,0.84-2.228c-0.051-0.969-0.42-1.647-1.105-2.043
		c-0.688-0.394-1.624-0.59-2.811-0.59H408.886L408.886,56.097z"/>
	<path d="M418.114,68.497V58.396h1.271v1.51c0.561-1.153,1.54-1.729,2.941-1.729v1.38c-0.317,0-0.646,0.066-0.988,0.201
		c-0.341,0.135-0.655,0.326-0.94,0.575c-0.285,0.248-0.515,0.539-0.686,0.871c-0.17,0.332-0.256,0.69-0.256,1.078v6.216H418.114
		L418.114,68.497z"/>
	<path d="M422.798,63.399c0.021-0.807,0.18-1.53,0.475-2.174c0.296-0.645,0.692-1.192,1.192-1.646
		c0.5-0.453,1.055-0.799,1.664-1.035s1.234-0.359,1.875-0.368c0.859,0,1.691,0.209,2.497,0.628c0.806,0.416,1.465,1.045,1.979,1.881
		c0.515,0.838,0.771,1.834,0.771,2.994v0.256h-9.091c0.06,0.746,0.289,1.381,0.688,1.906c0.397,0.525,0.881,0.918,1.448,1.18
		c0.567,0.261,1.125,0.391,1.673,0.391c0.488,0,0.98-0.098,1.479-0.292s0.937-0.462,1.317-0.802s0.652-0.717,0.812-1.131h1.396
		c-0.282,0.772-0.691,1.428-1.232,1.961c-0.54,0.535-1.146,0.931-1.814,1.187s-1.345,0.384-2.027,0.384
		c-0.896-0.035-1.732-0.273-2.514-0.716c-0.779-0.44-1.405-1.062-1.877-1.856C423.036,65.349,422.798,64.433,422.798,63.399z
		 M431.925,62.722c-0.114-0.58-0.353-1.119-0.717-1.613c-0.363-0.493-0.821-0.889-1.374-1.184s-1.15-0.441-1.794-0.441
		c-0.862,0-1.58,0.205-2.151,0.613s-0.993,0.864-1.263,1.369c-0.271,0.506-0.425,0.924-0.467,1.256H431.925L431.925,62.722z"/>
	<path d="M437.868,68.497l-4.23-10.064h1.469l3.48,8.336l3.494-8.336h1.474l-4.289,10.064H437.868z"/>
	<path d="M443.968,63.399c0.021-0.807,0.18-1.53,0.476-2.174c0.295-0.645,0.691-1.192,1.191-1.646
		c0.5-0.453,1.055-0.799,1.664-1.035s1.234-0.359,1.875-0.368c0.859,0,1.691,0.209,2.497,0.628c0.806,0.416,1.465,1.045,1.979,1.881
		c0.514,0.838,0.771,1.834,0.771,2.994v0.256h-9.091c0.06,0.746,0.289,1.381,0.688,1.906c0.397,0.525,0.882,0.918,1.448,1.18
		c0.567,0.261,1.125,0.391,1.673,0.391c0.488,0,0.98-0.098,1.479-0.292s0.937-0.462,1.317-0.802c0.382-0.34,0.652-0.717,0.812-1.131
		h1.396c-0.281,0.772-0.691,1.428-1.232,1.961c-0.54,0.535-1.146,0.931-1.814,1.187s-1.345,0.384-2.026,0.384
		c-0.896-0.035-1.733-0.273-2.515-0.716c-0.778-0.44-1.404-1.062-1.877-1.856C444.206,65.349,443.968,64.433,443.968,63.399z
		 M453.095,62.722c-0.114-0.58-0.353-1.119-0.717-1.613c-0.363-0.493-0.821-0.889-1.374-1.184s-1.15-0.441-1.794-0.441
		c-0.862,0-1.58,0.205-2.151,0.613s-0.993,0.864-1.263,1.369c-0.27,0.506-0.425,0.924-0.467,1.256H453.095L453.095,62.722z"/>
	<path d="M456.361,68.497V58.433h1.289v1.51c0.331-0.555,0.784-0.981,1.359-1.28c0.575-0.3,1.188-0.449,1.837-0.449
		c0.566,0,1.112,0.103,1.641,0.306c0.526,0.203,0.997,0.5,1.415,0.89c0.416,0.39,0.746,0.875,0.993,1.454
		c0.247,0.582,0.371,1.231,0.371,1.949v5.688h-1.325v-5.688c0-0.693-0.148-1.287-0.446-1.779c-0.298-0.493-0.688-0.861-1.172-1.107
		c-0.483-0.244-0.999-0.367-1.548-0.367c-0.535,0-1.035,0.116-1.501,0.353c-0.464,0.235-0.839,0.587-1.125,1.056
		c-0.284,0.469-0.429,1.029-0.429,1.682v5.854h-1.359V68.497z"/>
	<path d="M467.171,63.438c0.01-0.795,0.161-1.518,0.456-2.164s0.692-1.195,1.189-1.647c0.5-0.452,1.054-0.801,1.662-1.045
		c0.609-0.244,1.229-0.379,1.861-0.406c1.15,0,2.201,0.271,3.153,0.812s1.647,1.361,2.088,2.464h-1.545
		c-0.368-0.623-0.866-1.101-1.495-1.433c-0.629-0.334-1.362-0.5-2.201-0.5c-0.761,0.049-1.428,0.258-2.001,0.627
		s-1.015,0.847-1.322,1.429c-0.309,0.583-0.471,1.204-0.484,1.866c0,0.715,0.172,1.373,0.515,1.972
		c0.343,0.6,0.817,1.077,1.426,1.433c0.607,0.356,1.28,0.547,2.018,0.566c0.774,0,1.48-0.176,2.117-0.523
		c0.637-0.349,1.127-0.793,1.472-1.33h1.504c-1.096,2.106-2.77,3.16-5.021,3.16c-0.678,0-1.339-0.126-1.983-0.379
		s-1.227-0.615-1.745-1.09c-0.518-0.473-0.928-1.029-1.229-1.67c-0.304-0.643-0.458-1.33-0.468-2.066
		c0.016-0.015,0.024-0.029,0.029-0.043C467.169,63.455,467.171,63.444,467.171,63.438z"/>
	<path d="M479.456,57.219v-2.335h1.36v2.335H479.456z M479.456,68.497V58.433h1.36v10.064H479.456z"/>
	<path d="M482.805,63.292c0.01-0.662,0.148-1.3,0.418-1.914c0.271-0.613,0.646-1.158,1.13-1.633s1.058-0.85,1.721-1.122
		c0.663-0.274,1.383-0.411,2.157-0.411c0.737,0,1.49,0.211,2.263,0.633c0.771,0.424,1.42,1,1.947,1.731
		c0.525,0.731,0.822,1.539,0.889,2.419c0,0.045,0.003,0.109,0.01,0.197c0.006,0.086,0.009,0.149,0.009,0.188
		c0,0.742-0.14,1.438-0.418,2.086c-0.277,0.648-0.666,1.218-1.163,1.707s-1.064,0.868-1.705,1.138
		c-0.639,0.271-1.311,0.404-2.014,0.404c-0.851,0-1.681-0.212-2.491-0.638c-0.81-0.425-1.471-1.05-1.981-1.875
		C483.063,65.378,482.805,64.408,482.805,63.292z M484.13,63.36c0,0.806,0.179,1.511,0.537,2.115
		c0.356,0.604,0.839,1.074,1.443,1.412c0.604,0.336,1.264,0.521,1.977,0.559c0.596,0,1.191-0.16,1.785-0.48
		c0.595-0.32,1.087-0.791,1.476-1.412c0.391-0.619,0.584-1.352,0.584-2.191c0-0.488-0.102-0.963-0.306-1.426
		c-0.203-0.463-0.484-0.875-0.844-1.238c-0.36-0.363-0.774-0.651-1.244-0.862c-0.472-0.211-0.954-0.315-1.451-0.315
		c-0.677,0.016-1.315,0.188-1.918,0.521s-1.089,0.789-1.462,1.369C484.334,61.989,484.142,62.64,484.13,63.36z M486.008,56.356
		l3.57-2.155l0.643,1.067l-3.57,2.099L486.008,56.356z"/>
	<path d="M495.309,68.497V58.433h1.289v1.51c0.332-0.555,0.785-0.981,1.36-1.28c0.575-0.3,1.188-0.449,1.837-0.449
		c0.566,0,1.112,0.103,1.64,0.306s0.998,0.5,1.415,0.89c0.416,0.39,0.747,0.875,0.994,1.454c0.247,0.582,0.371,1.231,0.371,1.949
		v5.688h-1.325v-5.688c0-0.693-0.148-1.287-0.447-1.779c-0.298-0.493-0.688-0.861-1.172-1.107c-0.482-0.244-0.999-0.367-1.547-0.367
		c-0.536,0-1.036,0.116-1.501,0.353c-0.464,0.235-0.839,0.587-1.125,1.056c-0.285,0.469-0.429,1.029-0.429,1.682v5.854h-1.36V68.497
		z"/>
	<path d="M511.239,62.995c0.081-0.938,0.375-1.77,0.883-2.493s1.142-1.286,1.901-1.687c0.762-0.399,1.545-0.612,2.35-0.641
		c0.851,0,1.645,0.163,2.381,0.489c0.736,0.327,1.335,0.839,1.797,1.536v-5.317h1.36v13.613h-1.289v-1.913
		c-0.479,0.716-1.054,1.25-1.724,1.604c-0.669,0.354-1.486,0.529-2.453,0.529c-0.826-0.035-1.646-0.279-2.457-0.729
		c-0.812-0.45-1.477-1.074-1.992-1.871c-0.517-0.797-0.774-1.694-0.774-2.694C511.222,63.235,511.228,63.094,511.239,62.995z
		 M512.637,62.888c-0.023,0.122-0.036,0.307-0.036,0.553c0,0.664,0.175,1.302,0.521,1.908c0.347,0.607,0.822,1.102,1.426,1.479
		c0.604,0.377,1.273,0.572,2.01,0.584c0.665,0,1.312-0.166,1.938-0.499c0.628-0.332,1.139-0.812,1.534-1.438
		s0.593-1.354,0.593-2.181c0-0.442-0.143-0.964-0.424-1.562c-0.283-0.598-0.731-1.115-1.345-1.555
		c-0.612-0.438-1.378-0.658-2.297-0.658c-0.5,0-1.023,0.111-1.573,0.336c-0.551,0.223-1.045,0.588-1.482,1.096
		S512.773,62.103,512.637,62.888z"/>
	<path d="M523.926,63.399c0.021-0.807,0.18-1.53,0.475-2.174c0.296-0.645,0.692-1.192,1.192-1.646
		c0.5-0.453,1.055-0.799,1.664-1.035s1.234-0.359,1.875-0.368c0.859,0,1.691,0.209,2.497,0.628c0.806,0.416,1.465,1.045,1.979,1.881
		c0.515,0.838,0.771,1.834,0.771,2.994v0.256h-9.091c0.06,0.746,0.289,1.381,0.688,1.906c0.397,0.525,0.881,0.918,1.448,1.18
		c0.567,0.261,1.125,0.391,1.673,0.391c0.488,0,0.98-0.098,1.479-0.292s0.937-0.462,1.317-0.802s0.652-0.717,0.812-1.131h1.396
		c-0.282,0.772-0.691,1.428-1.232,1.961c-0.54,0.535-1.146,0.931-1.814,1.187s-1.345,0.384-2.026,0.384
		c-0.896-0.035-1.733-0.273-2.515-0.716c-0.778-0.44-1.405-1.062-1.877-1.856C524.164,65.349,523.926,64.433,523.926,63.399z
		 M533.053,62.722c-0.114-0.58-0.353-1.119-0.717-1.613c-0.363-0.493-0.821-0.889-1.374-1.184s-1.15-0.441-1.794-0.441
		c-0.862,0-1.58,0.205-2.151,0.613s-0.993,0.864-1.263,1.369c-0.27,0.506-0.425,0.924-0.467,1.256H533.053L533.053,62.722z"/>
	<path d="M541.587,68.497V54.884h7.434v1.254h-6.071v4.891h5.87v1.213h-5.87v5.044h6.071v1.213L541.587,68.497L541.587,68.497z"/>
	<path d="M551.035,68.497V58.433h1.289v1.51c0.332-0.555,0.785-0.981,1.359-1.28c0.575-0.3,1.188-0.449,1.837-0.449
		c0.566,0,1.112,0.103,1.641,0.306c0.526,0.203,0.998,0.5,1.415,0.89c0.416,0.39,0.747,0.875,0.994,1.454
		c0.246,0.582,0.37,1.231,0.37,1.949v5.688h-1.324v-5.688c0-0.693-0.149-1.287-0.447-1.779c-0.298-0.493-0.688-0.861-1.172-1.107
		c-0.483-0.244-0.999-0.367-1.547-0.367c-0.536,0-1.036,0.116-1.501,0.353c-0.465,0.235-0.84,0.587-1.125,1.056
		s-0.43,1.029-0.43,1.682v5.854h-1.359V68.497z"/>
	<path d="M562.773,68.497v-8.813h-1.546v-1.213h1.546c0-2.369,1.294-3.553,3.881-3.553v1.253c-0.768,0-1.381,0.154-1.842,0.466
		c-0.462,0.309-0.698,0.871-0.715,1.687c0.024,0.048,0.036,0.097,0.036,0.147h2.521v1.213h-2.521v8.813H562.773z"/>
	<path d="M567.144,63.399c0.021-0.807,0.181-1.53,0.476-2.174c0.295-0.645,0.691-1.192,1.191-1.646
		c0.5-0.453,1.056-0.799,1.664-1.035c0.609-0.236,1.234-0.359,1.875-0.368c0.859,0,1.691,0.209,2.497,0.628
		c0.807,0.416,1.465,1.045,1.979,1.881c0.514,0.838,0.771,1.834,0.771,2.994v0.256h-9.091c0.061,0.746,0.289,1.381,0.688,1.906
		c0.396,0.525,0.881,0.918,1.447,1.18c0.567,0.261,1.125,0.391,1.673,0.391c0.488,0,0.98-0.098,1.479-0.292s0.937-0.462,1.318-0.802
		c0.381-0.34,0.651-0.717,0.811-1.131h1.396c-0.281,0.772-0.691,1.428-1.232,1.961c-0.54,0.535-1.146,0.931-1.814,1.187
		s-1.345,0.384-2.026,0.384c-0.896-0.035-1.733-0.273-2.515-0.716c-0.778-0.44-1.404-1.062-1.877-1.856
		C567.382,65.349,567.144,64.433,567.144,63.399z M576.271,62.722c-0.113-0.58-0.353-1.119-0.717-1.613
		c-0.362-0.493-0.82-0.889-1.374-1.184c-0.553-0.295-1.149-0.441-1.794-0.441c-0.862,0-1.58,0.205-2.15,0.613
		c-0.572,0.408-0.993,0.864-1.264,1.369c-0.27,0.506-0.425,0.924-0.467,1.256H576.271L576.271,62.722z"/>
	<path d="M579.545,68.497V58.396h1.271v1.51c0.56-1.153,1.539-1.729,2.94-1.729v1.38c-0.317,0-0.646,0.066-0.988,0.201
		c-0.341,0.135-0.654,0.326-0.939,0.575c-0.286,0.248-0.516,0.539-0.687,0.871c-0.17,0.332-0.256,0.69-0.256,1.078v6.216H579.545
		L579.545,68.497z"/>
	<path d="M585.118,58.433h1.289v1.364c0.238-0.503,0.602-0.894,1.087-1.17c0.484-0.276,1.019-0.415,1.6-0.415
		c0.704,0,1.375,0.169,2.013,0.508c0.639,0.338,1.146,0.807,1.52,1.405c0.358-0.613,0.828-1.079,1.405-1.396
		c0.578-0.317,1.183-0.478,1.813-0.478c0.535,0,1.059,0.097,1.564,0.29c0.508,0.193,0.959,0.465,1.354,0.814
		c0.396,0.351,0.71,0.771,0.943,1.263c0.232,0.491,0.351,1.021,0.351,1.586v6.292h-1.324v-6.072c0-0.607-0.134-1.129-0.397-1.563
		c-0.266-0.434-0.615-0.76-1.049-0.979c-0.436-0.219-0.903-0.327-1.406-0.327c-0.452,0-0.876,0.098-1.271,0.293
		c-0.396,0.196-0.713,0.487-0.948,0.875c-0.236,0.385-0.354,0.844-0.354,1.373v6.4h-1.396v-6.182c0-0.563-0.136-1.053-0.407-1.473
		c-0.271-0.419-0.627-0.738-1.067-0.959c-0.439-0.22-0.913-0.33-1.416-0.33c-0.459,0-0.881,0.102-1.268,0.303
		c-0.387,0.203-0.695,0.51-0.926,0.92c-0.231,0.41-0.348,0.912-0.348,1.505v6.216h-1.359V58.433H585.118z"/>
	<path d="M601.991,63.399c0.021-0.807,0.18-1.53,0.475-2.174c0.295-0.645,0.692-1.192,1.192-1.646
		c0.5-0.453,1.055-0.799,1.664-1.035c0.608-0.236,1.233-0.359,1.875-0.368c0.858,0,1.69,0.209,2.497,0.628
		c0.806,0.416,1.465,1.045,1.979,1.881c0.514,0.838,0.771,1.834,0.771,2.994v0.256h-9.092c0.061,0.746,0.289,1.381,0.688,1.906
		c0.396,0.525,0.881,0.918,1.448,1.18c0.566,0.261,1.125,0.391,1.673,0.391c0.487,0,0.979-0.098,1.478-0.292
		s0.938-0.462,1.318-0.802s0.651-0.717,0.811-1.131h1.397c-0.282,0.772-0.692,1.428-1.233,1.961
		c-0.54,0.535-1.146,0.931-1.813,1.187s-1.346,0.384-2.027,0.384c-0.896-0.035-1.732-0.273-2.514-0.716
		c-0.779-0.44-1.405-1.062-1.877-1.856C602.229,65.349,601.991,64.433,601.991,63.399z M611.118,62.722
		c-0.114-0.58-0.354-1.119-0.717-1.613c-0.363-0.493-0.821-0.889-1.374-1.184c-0.554-0.295-1.15-0.441-1.795-0.441
		c-0.861,0-1.579,0.205-2.15,0.613c-0.572,0.408-0.993,0.864-1.263,1.369c-0.271,0.506-0.426,0.924-0.468,1.256H611.118
		L611.118,62.722z"/>
	<path d="M613.917,62.995c0.081-0.938,0.375-1.77,0.883-2.493s1.143-1.286,1.902-1.687c0.761-0.399,1.544-0.612,2.349-0.641
		c0.852,0,1.646,0.163,2.381,0.489c0.736,0.327,1.335,0.839,1.797,1.536v-5.317h1.36v13.613H623.3v-1.913
		c-0.479,0.716-1.053,1.25-1.723,1.604c-0.669,0.354-1.487,0.529-2.454,0.529c-0.826-0.035-1.646-0.279-2.457-0.729
		c-0.812-0.45-1.477-1.074-1.992-1.871s-0.773-1.694-0.773-2.694C613.898,63.235,613.905,63.094,613.917,62.995z M615.314,62.888
		c-0.023,0.122-0.035,0.307-0.035,0.553c0,0.664,0.174,1.302,0.521,1.908c0.347,0.607,0.822,1.102,1.426,1.479
		c0.604,0.377,1.273,0.572,2.011,0.584c0.665,0,1.311-0.166,1.938-0.499c0.628-0.332,1.139-0.812,1.534-1.438
		s0.593-1.354,0.593-2.181c0-0.442-0.142-0.964-0.424-1.562c-0.283-0.598-0.731-1.115-1.344-1.555
		c-0.613-0.438-1.378-0.658-2.297-0.658c-0.5,0-1.024,0.111-1.574,0.336c-0.55,0.223-1.044,0.588-1.482,1.096
		C615.742,61.458,615.452,62.103,615.314,62.888z"/>
	<path d="M626.578,63.528c0.009-0.801,0.166-1.536,0.472-2.204c0.305-0.668,0.715-1.235,1.229-1.702s1.092-0.825,1.733-1.073
		c0.643-0.249,1.294-0.372,1.956-0.372c1.841,0.045,3.16,0.78,3.957,2.209v-1.953h1.324v10.064h-1.324v-1.913
		c-0.378,0.677-0.924,1.201-1.64,1.574c-0.716,0.372-1.525,0.559-2.431,0.559c-0.688-0.018-1.35-0.149-1.98-0.397
		c-0.631-0.246-1.196-0.598-1.695-1.053c-0.498-0.455-0.89-1.002-1.174-1.64C626.72,64.989,626.578,64.29,626.578,63.528z
		 M627.975,63.215c0,0.827,0.183,1.56,0.546,2.194c0.363,0.637,0.845,1.125,1.439,1.467c0.596,0.341,1.228,0.52,1.896,0.534
		c0.771,0,1.465-0.185,2.084-0.556c0.619-0.369,1.105-0.854,1.457-1.455c0.353-0.601,0.528-1.224,0.528-1.871
		c0-0.711-0.171-1.368-0.513-1.971c-0.341-0.603-0.812-1.084-1.408-1.443c-0.597-0.361-1.252-0.561-1.965-0.596
		c-0.775,0-1.476,0.192-2.099,0.578c-0.622,0.387-1.105,0.87-1.449,1.451C628.146,62.13,627.975,62.687,627.975,63.215z"/>
	<path d="M639.239,62.995c0.081-0.938,0.375-1.77,0.883-2.493s1.142-1.286,1.901-1.687c0.762-0.399,1.545-0.612,2.35-0.641
		c0.851,0,1.645,0.163,2.381,0.489c0.736,0.327,1.335,0.839,1.797,1.536v-5.317h1.36v13.613h-1.289v-1.913
		c-0.479,0.716-1.054,1.25-1.724,1.604c-0.669,0.354-1.486,0.529-2.453,0.529c-0.826-0.035-1.646-0.279-2.457-0.729
		c-0.812-0.45-1.477-1.074-1.992-1.871c-0.517-0.797-0.774-1.694-0.774-2.694C639.222,63.235,639.228,63.094,639.239,62.995z
		 M640.637,62.888c-0.023,0.122-0.036,0.307-0.036,0.553c0,0.664,0.175,1.302,0.521,1.908c0.347,0.607,0.822,1.102,1.426,1.479
		c0.604,0.377,1.273,0.572,2.01,0.584c0.665,0,1.312-0.166,1.938-0.499c0.628-0.332,1.139-0.812,1.534-1.438
		s0.593-1.354,0.593-2.181c0-0.442-0.143-0.964-0.424-1.562c-0.283-0.598-0.731-1.115-1.345-1.555
		c-0.612-0.438-1.378-0.658-2.297-0.658c-0.5,0-1.023,0.111-1.573,0.336c-0.551,0.223-1.045,0.588-1.482,1.096
		S640.773,62.103,640.637,62.888z"/>
	<path d="M651.926,63.399c0.021-0.807,0.18-1.53,0.475-2.174c0.296-0.645,0.692-1.192,1.192-1.646
		c0.5-0.453,1.055-0.799,1.664-1.035s1.234-0.359,1.875-0.368c0.859,0,1.691,0.209,2.497,0.628c0.806,0.416,1.465,1.045,1.979,1.881
		c0.515,0.838,0.771,1.834,0.771,2.994v0.256h-9.091c0.06,0.746,0.289,1.381,0.688,1.906c0.397,0.525,0.881,0.918,1.448,1.18
		c0.567,0.261,1.125,0.391,1.673,0.391c0.488,0,0.98-0.098,1.479-0.292s0.937-0.462,1.317-0.802s0.652-0.717,0.812-1.131h1.396
		c-0.282,0.772-0.691,1.428-1.232,1.961c-0.54,0.535-1.146,0.931-1.814,1.187s-1.345,0.384-2.026,0.384
		c-0.896-0.035-1.733-0.273-2.515-0.716c-0.778-0.44-1.405-1.062-1.877-1.856C652.164,65.349,651.926,64.433,651.926,63.399z
		 M661.053,62.722c-0.114-0.58-0.353-1.119-0.717-1.613c-0.363-0.493-0.821-0.889-1.374-1.184s-1.15-0.441-1.794-0.441
		c-0.862,0-1.58,0.205-2.151,0.613s-0.993,0.864-1.263,1.369c-0.27,0.506-0.425,0.924-0.467,1.256H661.053L661.053,62.722z"/>
	<path d="M663.9,61.378c-0.013-0.1-0.019-0.232-0.019-0.404c0-0.584,0.146-1.084,0.437-1.504c0.291-0.42,0.655-0.734,1.095-0.943
		c0.438-0.209,0.867-0.313,1.283-0.313c0.339,0,0.676,0.058,1.012,0.171s0.642,0.282,0.919,0.508
		c0.277,0.225,0.502,0.51,0.675,0.854c0.172,0.345,0.268,0.734,0.285,1.173h-1.379c-0.024-0.481-0.179-0.836-0.465-1.062
		c-0.286-0.225-0.635-0.336-1.044-0.336c-0.362,0-0.699,0.117-1.012,0.354c-0.312,0.235-0.478,0.583-0.499,1.042
		c0.003,0.012,0.021,0.087,0.053,0.227c0.03,0.14,0.052,0.229,0.061,0.271c0.093,0.332,0.409,0.609,0.948,0.833
		s1.081,0.438,1.628,0.644c0.546,0.205,1.008,0.506,1.386,0.904c0.377,0.396,0.565,0.965,0.565,1.702c0,0.126-0.015,0.31-0.04,0.552
		c-0.075,0.62-0.279,1.131-0.613,1.532c-0.335,0.401-0.729,0.69-1.181,0.869c-0.452,0.178-0.897,0.267-1.335,0.267
		c-0.607,0-1.151-0.139-1.632-0.417c-0.479-0.278-0.852-0.659-1.116-1.142c-0.267-0.48-0.397-1.016-0.397-1.604l1.364-0.041
		c0.018,0.578,0.213,1.047,0.586,1.406s0.798,0.549,1.273,0.564c0.479-0.041,0.888-0.227,1.225-0.555s0.506-0.726,0.506-1.191
		c0-0.413-0.136-0.788-0.407-1.125c-0.271-0.338-0.688-0.575-1.25-0.717c-0.769-0.207-1.424-0.496-1.969-0.866
		C664.299,62.66,663.984,62.108,663.9,61.378z"/>
</g>
<g>
	<path d="M158.81,80.56c0.106-0.951,0.43-1.791,0.97-2.516c0.541-0.727,1.216-1.283,2.024-1.673c0.808-0.39,1.657-0.585,2.545-0.585
		c0.485,0,0.96,0.059,1.424,0.177s0.907,0.296,1.33,0.535c0.423,0.239,0.816,0.542,1.18,0.905c0.364,0.365,0.684,0.796,0.959,1.291
		h-1.187c-0.309-0.406-0.663-0.747-1.063-1.025c-0.4-0.277-0.82-0.482-1.261-0.613c-0.441-0.133-0.881-0.199-1.321-0.199
		c-0.589,0-1.157,0.106-1.705,0.318c-0.547,0.211-1.036,0.518-1.466,0.914c-0.43,0.398-0.769,0.876-1.018,1.434
		c-0.248,0.56-0.372,1.17-0.372,1.834c0.009,0.854,0.227,1.623,0.651,2.304c0.425,0.682,0.984,1.213,1.677,1.594
		c0.692,0.38,1.426,0.576,2.2,0.588c0.455-0.012,0.907-0.09,1.356-0.233c0.45-0.144,0.878-0.359,1.282-0.646
		c0.405-0.289,0.766-0.652,1.081-1.09h1.188c-0.389,0.667-0.843,1.223-1.363,1.665c-0.521,0.442-1.081,0.771-1.681,0.985
		c-0.599,0.213-1.22,0.318-1.863,0.318c-0.709,0-1.399-0.131-2.071-0.395c-0.673-0.262-1.277-0.641-1.813-1.133
		c-0.536-0.492-0.958-1.082-1.267-1.772c-0.309-0.688-0.463-1.44-0.463-2.257C158.764,81.038,158.78,80.797,158.81,80.56z"/>
	<path d="M170.814,86.667V75.96h2.911c1.003,0,1.89,0.143,2.66,0.426s1.413,0.678,1.931,1.182c0.517,0.505,0.902,1.084,1.158,1.74
		c0.256,0.654,0.384,1.357,0.384,2.106c-0.008,0.796-0.165,1.521-0.472,2.176c-0.308,0.655-0.727,1.214-1.258,1.675
		c-0.531,0.461-1.128,0.812-1.791,1.047c-0.663,0.237-1.347,0.355-2.051,0.355H170.814z M171.884,76.913v8.768h1.649
		c1.486,0,2.71-0.349,3.671-1.047c0.961-0.697,1.488-1.771,1.583-3.22c0-0.597-0.103-1.164-0.308-1.704
		c-0.205-0.541-0.517-1.021-0.935-1.441s-0.948-0.752-1.59-0.992c-0.642-0.241-1.385-0.362-2.23-0.362L171.884,76.913
		L171.884,76.913z"/>
	<path d="M181.054,80.56c0.106-0.951,0.43-1.791,0.97-2.516c0.541-0.727,1.216-1.283,2.024-1.673s1.657-0.585,2.545-0.585
		c0.485,0,0.96,0.059,1.424,0.177c0.464,0.118,0.907,0.296,1.33,0.535c0.423,0.239,0.816,0.542,1.18,0.905
		c0.364,0.365,0.684,0.796,0.959,1.291h-1.187c-0.309-0.406-0.663-0.747-1.063-1.025c-0.4-0.277-0.82-0.482-1.261-0.613
		c-0.441-0.133-0.881-0.199-1.321-0.199c-0.589,0-1.157,0.106-1.705,0.318c-0.547,0.211-1.036,0.518-1.466,0.914
		c-0.43,0.398-0.769,0.876-1.018,1.434c-0.248,0.56-0.372,1.17-0.372,1.834c0.009,0.854,0.227,1.623,0.651,2.304
		c0.425,0.682,0.984,1.213,1.677,1.594c0.692,0.38,1.426,0.576,2.2,0.588c0.455-0.012,0.907-0.09,1.356-0.233
		c0.45-0.144,0.878-0.359,1.282-0.646c0.405-0.289,0.766-0.652,1.081-1.09h1.188c-0.389,0.667-0.843,1.223-1.363,1.665
		c-0.521,0.442-1.081,0.771-1.681,0.985c-0.599,0.213-1.22,0.318-1.863,0.318c-0.709,0-1.399-0.131-2.071-0.395
		c-0.673-0.262-1.277-0.641-1.813-1.133s-0.958-1.082-1.267-1.772c-0.309-0.688-0.463-1.44-0.463-2.257
		C181.008,81.038,181.024,80.797,181.054,80.56z"/>
	<path d="M196.394,79.433c0.009-0.801,0.175-1.474,0.498-2.018c0.322-0.544,0.746-0.949,1.27-1.213
		c0.524-0.266,1.093-0.404,1.705-0.416c0.424,0,0.834,0.082,1.229,0.248c0.396,0.164,0.747,0.395,1.054,0.688
		c0.308,0.293,0.551,0.639,0.729,1.036c0.18,0.397,0.269,0.825,0.269,1.282c0,1.072-0.501,2.08-1.505,3.023l-3.833,3.617h5.338
		v0.985h-6.814v-0.953l4.776-4.646c0.664-0.664,0.996-1.34,0.996-2.027c0-0.398-0.099-0.764-0.297-1.096
		c-0.197-0.332-0.46-0.596-0.787-0.793c-0.328-0.196-0.675-0.305-1.042-0.322c-0.7,0-1.294,0.211-1.782,0.632
		c-0.489,0.421-0.733,1.079-0.733,1.972H196.394L196.394,79.433z"/>
	<path d="M208.84,75.96h1.332v7.771h0.957v0.953h-0.957v1.981h-1.07v-1.981h-5.398v-0.953L208.84,75.96z M209.102,77.422
		l-4.183,6.31h4.183V77.422z"/>
	<path d="M211.51,88.504l4.183-12.544h0.981l-4.238,12.544H211.51z"/>
	<path d="M218.554,86.667l4.416-9.754h-5.065V75.96h6.192v0.953l-4.398,9.754H218.554z"/>
	<path d="M225.259,79.287h1.07v1.81h-1.07V79.287z M225.259,84.83h1.07v1.837h-1.07V84.83z"/>
	<path d="M232.991,83.671c0.023,0.465,0.142,0.857,0.354,1.18c0.214,0.32,0.489,0.562,0.829,0.721c0.339,0.16,0.696,0.24,1.073,0.24
		c0.349,0,0.685-0.092,1.009-0.277c0.323-0.188,0.584-0.438,0.78-0.754c0.196-0.314,0.295-0.655,0.295-1.021
		c0-0.444-0.112-0.841-0.335-1.187c-0.212-0.336-0.609-0.604-1.192-0.805c-0.582-0.201-1.152-0.396-1.712-0.582
		c-0.559-0.188-1.018-0.472-1.375-0.849c-0.357-0.379-0.536-0.933-0.536-1.659c0-0.029,0.003-0.072,0.009-0.129
		c0.006-0.056,0.009-0.107,0.009-0.16c0.028-0.512,0.183-0.966,0.464-1.361c0.281-0.396,0.646-0.703,1.093-0.918
		c0.447-0.217,0.916-0.324,1.405-0.324c0.579,0,1.095,0.141,1.548,0.422c0.453,0.282,0.803,0.636,1.049,1.063
		c0.246,0.426,0.369,0.844,0.369,1.25v0.146h-1.07c-0.08-0.597-0.29-1.039-0.631-1.33c-0.34-0.291-0.753-0.459-1.238-0.506
		c-0.334,0-0.646,0.071-0.933,0.219c-0.287,0.146-0.52,0.345-0.697,0.595c-0.178,0.248-0.275,0.518-0.292,0.805
		c0,0.672,0.175,1.137,0.524,1.396c0.351,0.259,0.906,0.499,1.67,0.72c0.763,0.221,1.38,0.492,1.853,0.815s0.811,0.872,1.016,1.646
		c0.04,0.283,0.061,0.511,0.061,0.679c0,0.362-0.069,0.729-0.207,1.104c-0.138,0.373-0.34,0.713-0.605,1.018
		c-0.265,0.305-0.602,0.551-1.008,0.738c-0.406,0.187-0.866,0.279-1.379,0.279c-0.499,0-0.958-0.082-1.375-0.244
		c-0.418-0.164-0.776-0.394-1.075-0.687c-0.299-0.293-0.527-0.632-0.684-1.015c-0.157-0.383-0.234-0.791-0.234-1.225h1.168V83.671z"
		/>
	<path d="M239.348,82.76c0.007-0.631,0.131-1.21,0.371-1.733c0.24-0.525,0.562-0.973,0.966-1.34
		c0.404-0.367,0.858-0.647,1.363-0.844c0.506-0.195,1.02-0.294,1.539-0.294c1.448,0.036,2.485,0.614,3.112,1.738v-1.536h1.042v7.916
		h-1.042v-1.505c-0.297,0.532-0.728,0.944-1.29,1.237c-0.563,0.293-1.199,0.439-1.911,0.439c-0.541-0.014-1.062-0.117-1.559-0.313
		c-0.497-0.195-0.94-0.471-1.333-0.828c-0.392-0.358-0.7-0.788-0.924-1.29C239.46,83.908,239.348,83.358,239.348,82.76z
		 M240.447,82.513c0,0.65,0.143,1.225,0.429,1.727c0.286,0.501,0.664,0.885,1.133,1.152c0.469,0.269,0.965,0.408,1.49,0.42
		c0.604,0,1.152-0.145,1.64-0.436c0.488-0.291,0.869-0.672,1.146-1.145c0.275-0.474,0.415-0.963,0.415-1.473
		c0-0.561-0.136-1.076-0.403-1.551s-0.638-0.854-1.107-1.136c-0.469-0.283-0.984-0.438-1.545-0.47c-0.609,0-1.159,0.152-1.649,0.457
		c-0.489,0.304-0.87,0.685-1.141,1.142C240.582,81.659,240.447,82.097,240.447,82.513z"/>
	<path d="M249.573,86.667V75.96h1.069v10.707H249.573z"/>
	<path d="M254.901,86.667l-3.328-7.916h1.154l2.738,6.557l2.748-6.557h1.159l-3.374,7.916H254.901z"/>
	<path d="M259.546,82.76c0.007-0.631,0.131-1.21,0.371-1.733c0.24-0.525,0.562-0.973,0.966-1.34s0.858-0.647,1.363-0.844
		c0.506-0.195,1.019-0.294,1.539-0.294c1.448,0.036,2.484,0.614,3.111,1.738v-1.536h1.042v7.916h-1.042v-1.505
		c-0.297,0.532-0.727,0.944-1.289,1.237c-0.563,0.293-1.199,0.439-1.911,0.439c-0.541-0.014-1.062-0.117-1.559-0.313
		s-0.94-0.471-1.334-0.828c-0.392-0.358-0.7-0.788-0.924-1.29C259.658,83.908,259.546,83.358,259.546,82.76z M260.645,82.513
		c0,0.65,0.144,1.225,0.43,1.727c0.286,0.501,0.664,0.885,1.133,1.152c0.469,0.269,0.965,0.408,1.49,0.42
		c0.604,0,1.151-0.145,1.64-0.436s0.869-0.672,1.146-1.145c0.276-0.474,0.415-0.963,0.415-1.473c0-0.561-0.135-1.076-0.402-1.551
		c-0.269-0.475-0.639-0.854-1.107-1.136c-0.469-0.283-0.984-0.438-1.545-0.47c-0.61,0-1.16,0.152-1.649,0.457
		c-0.489,0.304-0.87,0.685-1.142,1.142C260.78,81.659,260.645,82.097,260.645,82.513z"/>
	<path d="M269.775,78.751h1.015v1.073c0.188-0.396,0.473-0.702,0.854-0.921c0.383-0.217,0.802-0.326,1.259-0.326
		c0.554,0,1.082,0.133,1.584,0.398c0.502,0.267,0.898,0.635,1.193,1.105c0.282-0.482,0.65-0.85,1.105-1.1
		c0.454-0.25,0.93-0.375,1.427-0.375c0.421,0,0.831,0.076,1.23,0.229c0.398,0.153,0.754,0.365,1.063,0.642
		c0.313,0.274,0.56,0.606,0.742,0.992c0.183,0.387,0.275,0.803,0.275,1.247v4.949h-1.042V81.89c0-0.478-0.104-0.888-0.313-1.229
		c-0.209-0.342-0.483-0.598-0.825-0.77s-0.71-0.259-1.104-0.259c-0.355,0-0.689,0.076-1,0.23c-0.312,0.153-0.561,0.384-0.745,0.688
		c-0.188,0.305-0.279,0.663-0.279,1.08v5.034h-1.099v-4.86c0-0.442-0.106-0.828-0.32-1.158c-0.213-0.33-0.493-0.582-0.84-0.754
		c-0.346-0.174-0.718-0.261-1.113-0.261c-0.359,0-0.692,0.079-0.997,0.238c-0.304,0.158-0.547,0.399-0.729,0.724
		c-0.183,0.321-0.272,0.717-0.272,1.184v4.889h-1.069L269.775,78.751L269.775,78.751z"/>
	<path d="M282.92,82.573c0.007-0.521,0.116-1.023,0.328-1.506c0.212-0.483,0.508-0.91,0.889-1.283
		c0.38-0.374,0.831-0.668,1.354-0.885c0.521-0.215,1.088-0.322,1.697-0.322c0.579,0,1.173,0.166,1.778,0.498
		c0.606,0.332,1.117,0.785,1.531,1.361c0.415,0.575,0.646,1.211,0.699,1.901c0,0.036,0.003,0.088,0.008,0.156
		c0.004,0.067,0.007,0.116,0.007,0.147c0,0.584-0.109,1.131-0.329,1.642c-0.219,0.51-0.522,0.957-0.915,1.342
		c-0.391,0.386-0.837,0.685-1.34,0.896c-0.503,0.213-1.031,0.317-1.585,0.317c-0.669,0-1.321-0.167-1.959-0.501
		c-0.637-0.335-1.156-0.826-1.561-1.475C283.122,84.215,282.92,83.451,282.92,82.573z M283.962,82.628
		c0,0.633,0.141,1.188,0.422,1.662c0.281,0.477,0.66,0.846,1.136,1.111c0.477,0.264,0.994,0.41,1.556,0.438
		c0.469,0,0.937-0.127,1.403-0.379c0.468-0.251,0.854-0.621,1.16-1.108c0.308-0.488,0.459-1.063,0.459-1.726
		c0-0.385-0.08-0.758-0.24-1.121c-0.159-0.362-0.381-0.688-0.663-0.976c-0.282-0.285-0.608-0.512-0.979-0.678
		c-0.369-0.166-0.75-0.25-1.141-0.25c-0.532,0.014-1.035,0.148-1.51,0.41c-0.474,0.262-0.855,0.621-1.148,1.077
		C284.123,81.548,283.971,82.06,283.962,82.628z"/>
	<path d="M292.269,81.067c-0.009-0.077-0.014-0.185-0.014-0.317c0-0.46,0.114-0.854,0.343-1.185c0.229-0.33,0.517-0.576,0.86-0.74
		c0.346-0.166,0.683-0.248,1.01-0.248c0.268,0,0.531,0.045,0.796,0.135s0.505,0.223,0.724,0.398c0.218,0.177,0.395,0.4,0.529,0.672
		c0.137,0.271,0.21,0.578,0.226,0.922h-1.085c-0.02-0.379-0.142-0.657-0.365-0.834c-0.224-0.178-0.499-0.266-0.821-0.266
		c-0.285,0-0.55,0.094-0.795,0.278c-0.245,0.188-0.376,0.46-0.393,0.82c0.003,0.01,0.017,0.067,0.041,0.178
		c0.023,0.11,0.041,0.183,0.048,0.216c0.073,0.26,0.321,0.479,0.745,0.653s0.851,0.345,1.279,0.506
		c0.432,0.161,0.794,0.398,1.091,0.712s0.444,0.76,0.444,1.34c0,0.099-0.011,0.242-0.031,0.434c-0.06,0.488-0.22,0.89-0.482,1.205
		c-0.263,0.314-0.571,0.543-0.928,0.684c-0.355,0.141-0.706,0.21-1.051,0.21c-0.479,0-0.905-0.108-1.282-0.327
		c-0.377-0.221-0.67-0.52-0.879-0.897c-0.208-0.38-0.313-0.8-0.313-1.263l1.073-0.03c0.014,0.454,0.168,0.823,0.461,1.104
		c0.294,0.283,0.628,0.432,1.002,0.445c0.377-0.033,0.698-0.178,0.963-0.436c0.265-0.26,0.397-0.571,0.397-0.938
		c0-0.325-0.106-0.62-0.319-0.886c-0.214-0.264-0.541-0.452-0.984-0.563c-0.604-0.161-1.119-0.391-1.548-0.682
		C292.583,82.075,292.336,81.644,292.269,81.067z"/>
	<path d="M304.5,86.667l-3.328-7.916h1.155l2.737,6.557l2.748-6.557h1.159l-3.374,7.916H304.5z"/>
	<path d="M309.92,77.796V75.96h1.07v1.836H309.92z M309.92,86.667v-7.916h1.07v7.916H309.92z"/>
	<path d="M312.433,82.339c0.063-0.736,0.295-1.391,0.693-1.96c0.399-0.569,0.897-1.013,1.496-1.327
		c0.599-0.313,1.215-0.48,1.848-0.503c0.669,0,1.293,0.128,1.873,0.386c0.579,0.256,1.05,0.658,1.413,1.207V75.96h1.07v10.707
		h-1.015v-1.505c-0.377,0.563-0.829,0.983-1.354,1.261c-0.526,0.278-1.17,0.417-1.932,0.417c-0.648-0.028-1.294-0.22-1.932-0.573
		c-0.639-0.354-1.161-0.846-1.566-1.472c-0.406-0.626-0.609-1.333-0.609-2.12C312.419,82.528,312.423,82.417,312.433,82.339z
		 M313.532,82.255c-0.021,0.096-0.028,0.241-0.028,0.436c0,0.521,0.137,1.021,0.409,1.5c0.272,0.479,0.646,0.865,1.122,1.162
		c0.475,0.297,1.001,0.451,1.581,0.459c0.521,0,1.029-0.131,1.523-0.392c0.493-0.261,0.896-0.639,1.206-1.132
		c0.312-0.494,0.467-1.064,0.467-1.715c0-0.35-0.11-0.758-0.334-1.229c-0.223-0.471-0.574-0.878-1.057-1.224
		c-0.481-0.345-1.084-0.519-1.807-0.519c-0.395,0-0.808,0.088-1.238,0.265c-0.434,0.176-0.821,0.463-1.166,0.862
		C313.866,81.128,313.64,81.638,313.532,82.255z"/>
	<path d="M322.263,82.76c0.007-0.631,0.131-1.21,0.371-1.733c0.24-0.525,0.563-0.973,0.966-1.34
		c0.404-0.367,0.858-0.647,1.363-0.844c0.506-0.195,1.02-0.294,1.539-0.294c1.448,0.036,2.485,0.614,3.112,1.738v-1.536h1.042v7.916
		h-1.042v-1.505c-0.297,0.532-0.728,0.944-1.29,1.237c-0.563,0.293-1.199,0.439-1.911,0.439c-0.541-0.014-1.062-0.117-1.559-0.313
		s-0.94-0.471-1.334-0.828c-0.392-0.358-0.699-0.788-0.924-1.29C322.375,83.908,322.263,83.358,322.263,82.76z M323.362,82.513
		c0,0.65,0.143,1.225,0.429,1.727c0.286,0.501,0.664,0.885,1.133,1.152c0.469,0.269,0.965,0.408,1.49,0.42
		c0.604,0,1.151-0.145,1.64-0.436s0.869-0.672,1.146-1.145c0.275-0.474,0.415-0.963,0.415-1.473c0-0.561-0.136-1.076-0.403-1.551
		s-0.638-0.854-1.107-1.136c-0.469-0.283-0.984-0.438-1.545-0.47c-0.609,0-1.16,0.152-1.649,0.457
		c-0.489,0.304-0.87,0.685-1.142,1.142C323.497,81.659,323.362,82.097,323.362,82.513z"/>
	<path d="M332.236,81.067c-0.01-0.077-0.015-0.185-0.015-0.317c0-0.46,0.114-0.854,0.342-1.185c0.229-0.33,0.517-0.576,0.861-0.74
		c0.346-0.166,0.683-0.248,1.01-0.248c0.267,0,0.531,0.045,0.795,0.135c0.265,0.09,0.507,0.223,0.724,0.398
		c0.219,0.177,0.395,0.4,0.531,0.672c0.135,0.271,0.209,0.578,0.225,0.922h-1.086c-0.019-0.379-0.141-0.657-0.365-0.834
		c-0.224-0.178-0.498-0.266-0.82-0.266c-0.284,0-0.551,0.094-0.795,0.278c-0.246,0.188-0.377,0.46-0.393,0.82
		c0.002,0.01,0.016,0.067,0.041,0.178c0.022,0.109,0.041,0.183,0.047,0.216c0.074,0.26,0.322,0.479,0.746,0.653
		s0.85,0.345,1.279,0.506c0.432,0.161,0.795,0.398,1.09,0.712c0.297,0.313,0.444,0.76,0.444,1.34c0,0.099-0.01,0.242-0.03,0.434
		c-0.06,0.488-0.22,0.89-0.482,1.205c-0.263,0.314-0.572,0.543-0.928,0.684s-0.707,0.21-1.051,0.21
		c-0.479,0-0.906-0.108-1.283-0.327c-0.377-0.221-0.67-0.52-0.878-0.897c-0.208-0.38-0.313-0.8-0.313-1.263l1.074-0.03
		c0.014,0.454,0.168,0.823,0.461,1.104c0.293,0.283,0.627,0.432,1.002,0.445c0.377-0.033,0.697-0.178,0.963-0.436
		c0.265-0.26,0.396-0.571,0.396-0.938c0-0.325-0.105-0.62-0.318-0.886c-0.215-0.264-0.541-0.452-0.983-0.563
		c-0.604-0.161-1.119-0.391-1.55-0.682C332.549,82.075,332.303,81.644,332.236,81.067z"/>
	<path d="M338.656,86.667v-1.953h1.157v1.953H338.656z"/>
	<path d="M346.012,86.667V75.96h2.81c0.842,0,1.567,0.088,2.178,0.266c0.606,0.178,1.098,0.49,1.469,0.938
		c0.371,0.444,0.582,1.053,0.635,1.819c0.011,0.068,0.015,0.166,0.015,0.289c0,0.595-0.156,1.125-0.472,1.59
		c-0.313,0.468-0.754,0.83-1.315,1.089c-0.563,0.26-1.201,0.389-1.914,0.389h-2.332v4.328L346.012,86.667L346.012,86.667z
		 M347.082,76.913v4.473h2.215c0.941,0,1.633-0.217,2.074-0.65c0.438-0.434,0.66-1.018,0.66-1.752
		c-0.041-0.76-0.33-1.295-0.871-1.604s-1.277-0.465-2.209-0.465L347.082,76.913L347.082,76.913z"/>
	<path d="M354.215,86.667v-7.945h1v1.188c0.439-0.906,1.211-1.36,2.313-1.36v1.085c-0.25,0-0.509,0.054-0.777,0.158
		c-0.269,0.106-0.514,0.258-0.74,0.453c-0.225,0.194-0.403,0.424-0.537,0.687c-0.135,0.26-0.203,0.543-0.203,0.848v4.889h-1.056
		V86.667z"/>
	<path d="M357.752,82.573c0.008-0.521,0.117-1.023,0.328-1.506c0.213-0.482,0.508-0.91,0.889-1.283
		c0.381-0.374,0.832-0.668,1.354-0.885c0.521-0.215,1.088-0.322,1.696-0.322c0.58,0,1.173,0.166,1.779,0.498
		c0.605,0.332,1.117,0.785,1.531,1.361c0.414,0.575,0.646,1.211,0.699,1.901c0,0.036,0.002,0.088,0.008,0.156
		c0.004,0.067,0.006,0.116,0.006,0.147c0,0.584-0.109,1.131-0.328,1.642c-0.219,0.51-0.522,0.957-0.916,1.342
		c-0.391,0.386-0.836,0.685-1.34,0.896c-0.502,0.213-1.031,0.317-1.584,0.317c-0.67,0-1.322-0.167-1.959-0.501
		c-0.637-0.335-1.156-0.826-1.562-1.475C357.953,84.215,357.752,83.451,357.752,82.573z M358.795,82.628
		c0,0.633,0.141,1.188,0.422,1.662c0.281,0.477,0.66,0.846,1.135,1.111c0.478,0.264,0.994,0.41,1.556,0.438
		c0.469,0,0.938-0.127,1.403-0.379c0.468-0.251,0.855-0.621,1.16-1.108c0.308-0.488,0.459-1.063,0.459-1.726
		c0-0.385-0.08-0.758-0.24-1.121c-0.159-0.362-0.381-0.688-0.663-0.976c-0.281-0.285-0.607-0.512-0.979-0.678
		c-0.369-0.166-0.75-0.25-1.141-0.25c-0.531,0.014-1.035,0.148-1.508,0.41c-0.476,0.262-0.857,0.621-1.15,1.077
		S358.803,82.06,358.795,82.628z"/>
	<path d="M367.941,86.667v-6.949h-1.664v-0.967h1.664V75.96h1.069v2.791h1.836v0.967h-1.836v6.949H367.941z"/>
	<path d="M371.125,82.657c0.018-0.633,0.141-1.203,0.373-1.709c0.231-0.508,0.545-0.938,0.938-1.295
		c0.394-0.357,0.83-0.629,1.31-0.814s0.971-0.283,1.475-0.29c0.676,0,1.332,0.165,1.965,0.493c0.634,0.328,1.152,0.822,1.558,1.48
		c0.404,0.658,0.604,1.441,0.604,2.354v0.201h-7.149c0.047,0.587,0.227,1.087,0.541,1.5c0.313,0.414,0.692,0.723,1.139,0.928
		c0.447,0.205,0.885,0.307,1.316,0.307c0.383,0,0.771-0.076,1.161-0.229c0.392-0.154,0.736-0.363,1.037-0.631
		c0.302-0.268,0.513-0.564,0.638-0.889h1.1c-0.223,0.606-0.545,1.121-0.971,1.541c-0.425,0.422-0.9,0.731-1.427,0.934
		c-0.526,0.201-1.059,0.302-1.596,0.302c-0.705-0.028-1.363-0.216-1.977-0.563c-0.614-0.346-1.105-0.834-1.478-1.461
		C371.311,84.188,371.125,83.47,371.125,82.657z M378.303,82.124c-0.088-0.457-0.276-0.88-0.563-1.268
		c-0.287-0.39-0.646-0.699-1.082-0.933c-0.435-0.231-0.904-0.348-1.41-0.348c-0.678,0-1.242,0.159-1.693,0.481
		c-0.449,0.321-0.778,0.68-0.992,1.077c-0.211,0.397-0.334,0.726-0.366,0.987h6.106V82.124z"/>
	<path d="M380.373,82.688c0-0.828,0.193-1.556,0.582-2.18c0.387-0.624,0.883-1.104,1.486-1.439s1.223-0.51,1.854-0.521
		c0.482,0,0.941,0.071,1.375,0.217c0.436,0.144,0.818,0.35,1.152,0.618c0.334,0.271,0.586,0.58,0.758,0.933v-1.594h1.014v7.264
		c0,0.606-0.104,1.145-0.315,1.609c-0.211,0.467-0.498,0.854-0.863,1.164c-0.365,0.311-0.783,0.543-1.252,0.698
		c-0.472,0.155-0.957,0.233-1.461,0.233c-0.453,0-0.896-0.063-1.328-0.186c-0.435-0.122-0.834-0.304-1.197-0.544
		c-0.365-0.239-0.68-0.54-0.942-0.897c-0.265-0.359-0.455-0.769-0.57-1.226h1.043c0.26,0.608,0.656,1.072,1.19,1.39
		c0.537,0.317,1.117,0.477,1.744,0.477c0.519,0,1.002-0.107,1.451-0.322c0.447-0.216,0.81-0.531,1.08-0.949
		c0.271-0.418,0.408-0.91,0.408-1.478V85.09c-0.627,1.166-1.654,1.749-3.084,1.749c-0.492,0-0.982-0.091-1.472-0.271
		c-0.489-0.182-0.934-0.449-1.329-0.808c-0.398-0.356-0.718-0.797-0.955-1.319C380.503,83.919,380.381,83.335,380.373,82.688z
		 M381.443,82.483c0,0.664,0.137,1.248,0.407,1.75c0.271,0.502,0.64,0.887,1.099,1.156c0.459,0.269,0.965,0.409,1.518,0.422
		c0.437,0,0.896-0.112,1.381-0.338c0.482-0.228,0.894-0.584,1.229-1.072c0.336-0.489,0.504-1.1,0.504-1.828
		c0-0.37-0.082-0.734-0.248-1.094c-0.164-0.359-0.394-0.681-0.687-0.961c-0.291-0.281-0.633-0.504-1.024-0.668
		c-0.393-0.164-0.805-0.246-1.238-0.246c-0.756,0.02-1.352,0.217-1.789,0.594c-0.437,0.377-0.737,0.787-0.901,1.232
		C381.525,81.876,381.443,82.228,381.443,82.483z"/>
	<path d="M390.053,82.657c0.017-0.633,0.142-1.203,0.371-1.709c0.232-0.508,0.545-0.938,0.939-1.295
		c0.393-0.357,0.828-0.629,1.309-0.814c0.479-0.186,0.971-0.283,1.475-0.29c0.677,0,1.33,0.165,1.966,0.493
		c0.633,0.328,1.149,0.822,1.555,1.48s0.604,1.441,0.604,2.354v0.201h-7.147c0.047,0.587,0.227,1.087,0.539,1.5
		c0.313,0.414,0.692,0.723,1.141,0.928c0.445,0.205,0.885,0.307,1.314,0.307c0.385,0,0.771-0.076,1.162-0.229
		c0.393-0.154,0.737-0.363,1.036-0.631c0.302-0.268,0.515-0.564,0.64-0.889h1.098c-0.221,0.606-0.545,1.121-0.969,1.541
		c-0.426,0.422-0.9,0.731-1.428,0.934c-0.525,0.201-1.06,0.302-1.597,0.302c-0.703-0.028-1.36-0.216-1.975-0.563
		c-0.615-0.348-1.107-0.834-1.479-1.461C390.238,84.188,390.053,83.47,390.053,82.657z M397.23,82.124
		c-0.09-0.457-0.276-0.88-0.563-1.268c-0.285-0.39-0.646-0.699-1.08-0.933c-0.436-0.231-0.904-0.348-1.412-0.348
		c-0.678,0-1.242,0.159-1.69,0.481c-0.449,0.321-0.781,0.68-0.992,1.077c-0.213,0.397-0.334,0.726-0.367,0.987h6.105V82.124z"/>
	<path d="M399.299,82.657c0.019-0.633,0.141-1.203,0.373-1.709c0.232-0.508,0.545-0.938,0.938-1.295
		c0.393-0.357,0.829-0.629,1.309-0.814s0.971-0.283,1.475-0.29c0.677,0,1.332,0.165,1.966,0.493c0.633,0.328,1.151,0.822,1.557,1.48
		s0.604,1.441,0.604,2.354v0.201h-7.149c0.047,0.587,0.227,1.087,0.541,1.5c0.313,0.414,0.692,0.723,1.139,0.928
		c0.447,0.205,0.885,0.307,1.316,0.307c0.383,0,0.771-0.076,1.162-0.229c0.391-0.154,0.735-0.363,1.036-0.631
		c0.302-0.268,0.513-0.564,0.638-0.889h1.1c-0.223,0.606-0.545,1.121-0.971,1.541c-0.424,0.422-0.9,0.731-1.426,0.934
		c-0.527,0.201-1.06,0.302-1.597,0.302c-0.705-0.028-1.362-0.216-1.977-0.563c-0.614-0.346-1.105-0.834-1.478-1.461
		C399.484,84.188,399.299,83.47,399.299,82.657z M406.477,82.124c-0.088-0.457-0.276-0.88-0.563-1.268
		c-0.287-0.39-0.646-0.699-1.082-0.933c-0.434-0.231-0.904-0.348-1.41-0.348c-0.678,0-1.242,0.159-1.693,0.481
		c-0.448,0.321-0.778,0.68-0.991,1.077c-0.211,0.397-0.334,0.726-0.367,0.987h6.106V82.124z"/>
	<path d="M408.918,78.751h1.016v1.073c0.188-0.396,0.474-0.702,0.854-0.921c0.383-0.217,0.801-0.326,1.258-0.326
		c0.555,0,1.082,0.133,1.584,0.398c0.502,0.267,0.9,0.635,1.195,1.105c0.28-0.482,0.649-0.85,1.104-1.1
		c0.453-0.25,0.931-0.375,1.426-0.375c0.423,0,0.832,0.076,1.23,0.229c0.4,0.152,0.754,0.365,1.064,0.642
		c0.313,0.274,0.559,0.606,0.741,0.992c0.184,0.387,0.275,0.803,0.275,1.247v4.949h-1.041V81.89c0-0.478-0.105-0.888-0.313-1.229
		c-0.209-0.342-0.483-0.598-0.825-0.77c-0.343-0.172-0.709-0.259-1.105-0.259c-0.354,0-0.688,0.076-1,0.23
		c-0.311,0.153-0.559,0.384-0.744,0.688c-0.188,0.305-0.278,0.663-0.278,1.08v5.034h-1.101v-4.86c0-0.442-0.104-0.828-0.319-1.158
		c-0.214-0.33-0.492-0.582-0.841-0.754c-0.346-0.174-0.717-0.261-1.112-0.261c-0.359,0-0.693,0.079-0.996,0.238
		c-0.306,0.158-0.547,0.399-0.729,0.724c-0.182,0.321-0.272,0.717-0.272,1.184v4.889h-1.07V78.751L408.918,78.751z"/>
	<path d="M422.064,82.573c0.009-0.521,0.117-1.023,0.328-1.506c0.213-0.482,0.509-0.91,0.89-1.283
		c0.381-0.374,0.832-0.668,1.354-0.885c0.522-0.215,1.088-0.322,1.697-0.322c0.58,0,1.172,0.166,1.779,0.498
		c0.604,0.332,1.116,0.785,1.53,1.361c0.414,0.575,0.646,1.211,0.699,1.901c0,0.036,0.002,0.088,0.008,0.156
		c0.004,0.067,0.006,0.116,0.006,0.147c0,0.584-0.108,1.131-0.327,1.642c-0.22,0.51-0.523,0.957-0.916,1.342
		c-0.392,0.386-0.836,0.685-1.341,0.896c-0.502,0.213-1.03,0.317-1.584,0.317c-0.67,0-1.321-0.167-1.959-0.501
		c-0.637-0.335-1.155-0.826-1.561-1.475C422.266,84.215,422.064,83.451,422.064,82.573z M423.107,82.628
		c0,0.633,0.142,1.188,0.423,1.662c0.28,0.477,0.659,0.846,1.135,1.111c0.477,0.264,0.994,0.41,1.555,0.438
		c0.469,0,0.938-0.127,1.404-0.379c0.467-0.251,0.854-0.621,1.16-1.108c0.307-0.488,0.459-1.063,0.459-1.726
		c0-0.385-0.08-0.758-0.24-1.121c-0.16-0.362-0.381-0.688-0.664-0.976c-0.281-0.285-0.606-0.512-0.979-0.678
		c-0.369-0.166-0.75-0.25-1.142-0.25c-0.531,0.014-1.035,0.148-1.508,0.41c-0.475,0.262-0.857,0.621-1.15,1.077
		S423.115,82.06,423.107,82.628z"/>
	<path d="M431.414,81.067c-0.01-0.077-0.014-0.185-0.014-0.317c0-0.46,0.112-0.854,0.342-1.185c0.229-0.33,0.516-0.576,0.86-0.74
		c0.347-0.166,0.683-0.248,1.011-0.248c0.266,0,0.53,0.045,0.795,0.135c0.264,0.09,0.506,0.223,0.723,0.398
		c0.219,0.177,0.396,0.4,0.531,0.672c0.135,0.271,0.209,0.578,0.225,0.922h-1.086c-0.018-0.379-0.141-0.657-0.365-0.834
		c-0.224-0.178-0.498-0.266-0.819-0.266c-0.285,0-0.552,0.094-0.795,0.278c-0.246,0.188-0.377,0.46-0.394,0.82
		c0.002,0.01,0.017,0.067,0.041,0.178c0.023,0.109,0.041,0.183,0.047,0.216c0.074,0.26,0.322,0.479,0.746,0.653
		s0.851,0.345,1.279,0.506c0.432,0.161,0.795,0.398,1.09,0.712c0.297,0.313,0.445,0.76,0.445,1.34c0,0.099-0.011,0.242-0.031,0.434
		c-0.059,0.488-0.219,0.89-0.482,1.205c-0.263,0.314-0.571,0.543-0.928,0.684c-0.354,0.141-0.707,0.21-1.051,0.21
		c-0.479,0-0.906-0.108-1.283-0.327c-0.377-0.221-0.67-0.52-0.879-0.897c-0.207-0.38-0.313-0.8-0.313-1.263l1.073-0.03
		c0.015,0.454,0.168,0.823,0.461,1.104c0.293,0.283,0.627,0.432,1.002,0.445c0.378-0.033,0.697-0.178,0.964-0.436
		c0.264-0.26,0.396-0.571,0.396-0.938c0-0.325-0.104-0.62-0.318-0.886c-0.215-0.264-0.541-0.452-0.983-0.563
		c-0.604-0.161-1.119-0.391-1.549-0.682C431.727,82.075,431.48,81.644,431.414,81.067z"/>
	<path d="M440.793,82.76c0.008-0.631,0.131-1.21,0.371-1.733c0.24-0.525,0.563-0.973,0.967-1.34s0.857-0.647,1.363-0.844
		c0.506-0.195,1.018-0.294,1.539-0.294c1.446,0.036,2.483,0.614,3.11,1.738v-1.536h1.043v7.916h-1.043v-1.505
		c-0.297,0.532-0.727,0.944-1.289,1.237s-1.198,0.439-1.911,0.439c-0.541-0.014-1.062-0.117-1.558-0.313
		c-0.498-0.194-0.94-0.471-1.334-0.828c-0.393-0.358-0.701-0.788-0.924-1.29C440.904,83.908,440.793,83.358,440.793,82.76z
		 M441.893,82.513c0,0.65,0.144,1.225,0.429,1.727c0.286,0.501,0.664,0.885,1.133,1.152c0.469,0.269,0.965,0.408,1.49,0.42
		c0.604,0,1.151-0.145,1.641-0.436c0.486-0.291,0.869-0.672,1.146-1.145c0.275-0.474,0.414-0.963,0.414-1.473
		c0-0.561-0.135-1.076-0.401-1.551c-0.271-0.475-0.64-0.854-1.107-1.136c-0.471-0.283-0.985-0.438-1.545-0.47
		c-0.611,0-1.16,0.152-1.65,0.457c-0.489,0.304-0.87,0.685-1.141,1.142C442.027,81.659,441.893,82.097,441.893,82.513z"/>
	<path d="M454.729,86.667V75.96h1.07v10.707H454.729z"/>
	<path d="M457.24,82.76c0.008-0.631,0.131-1.21,0.371-1.733c0.239-0.525,0.563-0.973,0.967-1.34
		c0.403-0.367,0.856-0.647,1.362-0.844c0.507-0.195,1.019-0.294,1.539-0.294c1.447,0.036,2.484,0.614,3.111,1.738v-1.536h1.043
		v7.916h-1.043v-1.505c-0.297,0.532-0.727,0.944-1.289,1.237s-1.199,0.439-1.912,0.439c-0.541-0.014-1.061-0.117-1.557-0.313
		c-0.498-0.194-0.941-0.471-1.334-0.828c-0.394-0.358-0.701-0.788-0.924-1.29C457.352,83.908,457.24,83.358,457.24,82.76z
		 M458.34,82.513c0,0.65,0.143,1.225,0.428,1.727c0.287,0.501,0.664,0.885,1.133,1.152c0.47,0.269,0.966,0.408,1.49,0.42
		c0.605,0,1.152-0.145,1.642-0.436c0.485-0.291,0.868-0.672,1.146-1.145c0.275-0.474,0.414-0.963,0.414-1.473
		c0-0.561-0.135-1.076-0.402-1.551c-0.27-0.475-0.639-0.854-1.106-1.136c-0.471-0.283-0.986-0.438-1.545-0.47
		c-0.611,0-1.16,0.152-1.65,0.457c-0.49,0.304-0.871,0.685-1.141,1.142C458.475,81.659,458.34,82.097,458.34,82.513z"/>
	<path d="M470.887,82.688c0-0.828,0.193-1.556,0.582-2.18c0.387-0.624,0.883-1.104,1.486-1.439s1.223-0.51,1.854-0.521
		c0.482,0,0.941,0.071,1.375,0.217c0.437,0.144,0.818,0.35,1.152,0.618c0.334,0.271,0.586,0.58,0.758,0.933v-1.594h1.014v7.264
		c0,0.606-0.104,1.145-0.315,1.609c-0.211,0.467-0.498,0.854-0.863,1.164c-0.365,0.311-0.783,0.543-1.252,0.698
		c-0.471,0.155-0.957,0.233-1.461,0.233c-0.453,0-0.895-0.063-1.328-0.186c-0.434-0.122-0.834-0.304-1.197-0.544
		c-0.364-0.239-0.68-0.54-0.942-0.897c-0.264-0.359-0.455-0.769-0.57-1.226h1.043c0.26,0.608,0.656,1.072,1.191,1.39
		c0.537,0.317,1.117,0.477,1.744,0.477c0.518,0,1.002-0.107,1.45-0.322c0.447-0.216,0.81-0.531,1.08-0.949
		c0.271-0.418,0.408-0.91,0.408-1.478V85.09c-0.627,1.166-1.653,1.749-3.084,1.749c-0.492,0-0.981-0.091-1.471-0.271
		c-0.49-0.182-0.935-0.449-1.33-0.808c-0.398-0.356-0.717-0.797-0.955-1.319C471.017,83.919,470.895,83.335,470.887,82.688z
		 M471.957,82.483c0,0.664,0.137,1.248,0.408,1.75c0.271,0.502,0.639,0.887,1.098,1.156c0.459,0.269,0.965,0.409,1.518,0.422
		c0.437,0,0.896-0.112,1.382-0.338c0.481-0.228,0.893-0.584,1.229-1.072c0.336-0.489,0.504-1.1,0.504-1.828
		c0-0.37-0.082-0.734-0.248-1.094c-0.164-0.359-0.393-0.681-0.686-0.961c-0.291-0.281-0.633-0.504-1.025-0.668
		c-0.392-0.164-0.805-0.246-1.237-0.246c-0.757,0.02-1.353,0.217-1.789,0.594c-0.438,0.377-0.738,0.787-0.902,1.232
		C472.039,81.876,471.957,82.228,471.957,82.483z"/>
	<path d="M480.566,82.657c0.016-0.633,0.141-1.203,0.37-1.709c0.232-0.508,0.545-0.938,0.939-1.295
		c0.393-0.357,0.828-0.629,1.309-0.814c0.479-0.186,0.972-0.283,1.476-0.29c0.676,0,1.33,0.165,1.965,0.493
		c0.633,0.328,1.15,0.822,1.555,1.48c0.405,0.658,0.605,1.441,0.605,2.354v0.201h-7.148c0.047,0.587,0.228,1.087,0.539,1.5
		c0.314,0.414,0.693,0.723,1.141,0.928c0.445,0.205,0.886,0.307,1.314,0.307c0.385,0,0.771-0.076,1.162-0.229
		c0.393-0.154,0.738-0.363,1.037-0.631c0.301-0.268,0.514-0.564,0.639-0.889h1.098c-0.221,0.606-0.545,1.121-0.969,1.541
		c-0.426,0.422-0.899,0.731-1.428,0.934c-0.525,0.201-1.059,0.302-1.596,0.302c-0.703-0.028-1.361-0.216-1.976-0.563
		s-1.106-0.834-1.479-1.461C480.752,84.188,480.566,83.47,480.566,82.657z M487.744,82.124c-0.09-0.457-0.277-0.88-0.564-1.268
		c-0.285-0.39-0.646-0.699-1.08-0.933c-0.436-0.231-0.903-0.348-1.412-0.348c-0.678,0-1.241,0.159-1.69,0.481
		c-0.449,0.321-0.781,0.68-0.992,1.077c-0.213,0.397-0.334,0.726-0.367,0.987h6.106V82.124z"/>
	<path d="M490.184,86.667v-7.916h1.017v1.188c0.26-0.438,0.616-0.771,1.069-1.008c0.451-0.235,0.935-0.354,1.443-0.354
		c0.445,0,0.875,0.08,1.291,0.24c0.414,0.16,0.785,0.394,1.111,0.699c0.328,0.307,0.588,0.688,0.783,1.145
		c0.192,0.457,0.291,0.969,0.291,1.533v4.473h-1.041v-4.473c0-0.547-0.117-1.014-0.353-1.4c-0.235-0.386-0.543-0.678-0.924-0.871
		c-0.379-0.193-0.785-0.289-1.217-0.289c-0.42,0-0.814,0.092-1.181,0.277c-0.364,0.186-0.659,0.461-0.885,0.83
		c-0.225,0.367-0.338,0.809-0.338,1.322v4.604H490.184z"/>
	<path d="M499.521,86.667v-6.949h-1.664v-0.967h1.664V75.96h1.07v2.791h1.838v0.967h-1.838v6.949H499.521z"/>
	<path d="M502.707,82.657c0.018-0.633,0.141-1.203,0.373-1.709c0.231-0.508,0.545-0.938,0.938-1.295
		c0.394-0.357,0.83-0.629,1.31-0.814s0.971-0.283,1.475-0.29c0.676,0,1.332,0.165,1.965,0.493c0.634,0.328,1.152,0.822,1.558,1.48
		c0.404,0.658,0.604,1.441,0.604,2.354v0.201h-7.149c0.047,0.587,0.227,1.087,0.541,1.5c0.313,0.414,0.692,0.723,1.139,0.928
		c0.447,0.205,0.885,0.307,1.315,0.307c0.384,0,0.771-0.076,1.162-0.229c0.392-0.154,0.736-0.363,1.037-0.631
		s0.513-0.564,0.638-0.889h1.1c-0.223,0.606-0.545,1.121-0.971,1.541c-0.425,0.422-0.9,0.731-1.427,0.934
		c-0.526,0.201-1.059,0.302-1.596,0.302c-0.705-0.028-1.363-0.216-1.977-0.563c-0.614-0.346-1.105-0.834-1.478-1.461
		C502.893,84.188,502.707,83.47,502.707,82.657z M509.885,82.124c-0.088-0.457-0.276-0.88-0.563-1.268
		c-0.287-0.39-0.646-0.699-1.082-0.933c-0.435-0.231-0.904-0.348-1.41-0.348c-0.678,0-1.242,0.159-1.693,0.481
		c-0.448,0.321-0.778,0.68-0.992,1.077c-0.211,0.397-0.334,0.726-0.366,0.987h6.106V82.124z"/>
	<path d="M513.27,76.829h-1.938V75.96h4.936v0.869h-1.926v5.234h-1.07L513.27,76.829L513.27,76.829z M517.35,82.063v-6.104h1.549
		l1.753,4.295l1.809-4.295h1.547v6.104h-0.953v-5.234l-2.112,5.234h-0.564l-2.07-5.234v5.234H517.35z"/>
</g>
</svg>
