<?xml version="1.0" encoding="utf-8"?>
<!-- Generator: Adobe Illustrator 20.1.0, SVG Export Plug-In . SVG Version: 6.00 Build 0)  -->
<!DOCTYPE svg PUBLIC "-//W3C//DTD SVG 1.1//EN" "http://www.w3.org/Graphics/SVG/1.1/DTD/svg11.dtd">
<svg version="1.1" id="Layer_1" xmlns="http://www.w3.org/2000/svg" xmlns:xlink="http://www.w3.org/1999/xlink" x="0px" y="0px"
	 viewBox="0 0 300 300" style="enable-background:new 0 0 300 300;" xml:space="preserve">
<style type="text/css">
	.st0{fill:#FFFFFF;}
</style>
<g>
	<g>
		<path class="st0" d="M233.6,242.4c0,11.6,9.3,21,20.9,21.1c11.6,0.1,21-9.3,21.1-20.9c0-8.8-5.3-16.3-12.9-19.5v-52.9
			c0-24.1-19.6-43.7-43.7-43.7c-23.1,0-42.1,18.1-43.6,40.8c-0.2,0-0.2,46.4-0.2,46.4c0,23-18.7,41.6-41.6,41.6
			c-23,0-41.6-18.7-41.6-41.6v-19.6c42.1-4.9,75.2-48.1,75.2-100.5c0-34.4-14.1-56.7-41.9-66.7c-1.4-7.8-8.3-13.8-16.6-13.8
			c-9.3,0-16.8,7.5-16.8,16.8c0,9.3,7.5,16.9,16.8,16.9c4.6,0,8.7-1.8,11.8-4.8c21,7.8,30.9,24.5,30.9,51.6
			c0,47-30.2,85.2-67.3,85.2s-67.3-38.2-67.3-85.2c0-27.1,9.9-43.8,30.9-51.6c3,3,7.2,4.8,11.8,4.8c9.3,0,16.8-7.5,16.8-16.9
			c0-9.3-7.5-16.8-16.8-16.8c-8.3,0-15.1,6-16.5,13.8C15.1,36.9,1,59.3,1,93.6c0,52.4,33.1,95.7,75.2,100.5v19.6
			c0,31.7,25.8,57.4,57.4,57.4c31.7,0,57.4-25.8,57.4-57.4v-43.5c0-15.4,12.5-27.9,27.9-27.9c15.4,0,27.9,12.5,27.9,27.9v28.7
			c-20.7,3.7-36.6,21.7-36.7,43.5c-0.1,11.8,4.5,23,12.9,31.4c8.4,8.4,19.5,13.1,31.3,13.1c24.6,0,44.5-19.8,44.6-44.2
			c0-11.9-4.5-23-12.9-31.4c-3.7-3.8-8-6.7-12.7-8.9l-0.1,16c1,0.8,2.1,1.7,3,2.6c5.7,5.8,8.9,13.5,8.9,21.7
			c-0.1,16.8-13.8,30.4-30.6,30.4c-8.2,0-16-3.3-21.7-9.1c-5.8-5.8-8.9-13.5-8.9-21.7c0.1-14.1,9.7-25.9,22.8-29.4v10
			C239.2,226.1,233.7,233.6,233.6,242.4z"/>
	</g>
</g>
</svg>
