<?xml version="1.0" encoding="utf-8"?>
<!-- Generator: Adobe Illustrator 15.1.0, SVG Export Plug-In . SVG Version: 6.00 Build 0)  -->
<!DOCTYPE svg PUBLIC "-//W3C//DTD SVG 1.1//EN" "http://www.w3.org/Graphics/SVG/1.1/DTD/svg11.dtd">
<svg version="1.1" id="Layer_1" xmlns="http://www.w3.org/2000/svg" xmlns:xlink="http://www.w3.org/1999/xlink" x="0px" y="0px"
	 width="470px" height="42px" viewBox="0 0 470 42" enable-background="new 0 0 470 42" xml:space="preserve">
<path fill="#005DAA" d="M28.882,8.957C27.875,4.327,27.574,3.623,26.97,0c-0.704,0.202-1.51,0.202-2.313,0.202
	c-0.604,0-1.007-0.101-1.913-0.202c-2.516,4.73-2.918,5.233-7.346,12.881l-5.032,8.755C7.044,27.373,3.521,33.01,0,38.645
	c1.006-0.201,2.214-0.303,2.817-0.303c1.006,0,1.812,0.102,2.416,0.303c1.912-4.025,4.025-7.95,6.139-11.775
	c2.415,0,4.831-0.101,7.145-0.101c2.013,0,4.126,0.101,6.24,0.101c1.006,3.824,1.409,7.85,1.711,11.775
	c1.509-0.201,3.522-0.303,4.629-0.303c1.509,0,3.12,0.202,4.629,0.303c-0.906-2.817-1.107-3.926-1.912-7.146l-1.51-6.642
	L28.882,8.957L28.882,8.957L28.882,8.957z M21.436,10.365l1.509,6.743l1.308,6.441c-2.013,0.101-3.925,0.101-5.938,0.101
	c-1.912,0-2.717,0-4.931-0.101L21.436,10.365L21.436,10.365L21.436,10.365z"/>
<path fill="#005DAA" d="M47.198,13.988l0.101-2.516c0.503,0,0.805,0,1.107,0c1.711,0,3.825,0.202,6.844,0.604
	c-0.101-0.806-0.101-1.006-0.101-1.61c0-0.705,0-1.308,0.101-2.214c-4.126,0.202-8.152,0.403-12.278,0.403
	c-3.521,0-7.145-0.201-10.667-0.403c0.201,0.806,0.201,1.006,0.201,1.912c0,0.605,0,1.107-0.201,2.013
	c2.717-0.403,5.435-0.503,8.152-0.503c0.101,1.912,0.101,3.724,0.101,5.636v7.146c0,4.73-0.302,9.46-0.504,14.29
	c1.409-0.201,1.913-0.201,3.321-0.201c1.509,0,2.314,0,4.025,0.201c-0.202-4.73-0.302-12.178-0.302-14.088L47.198,13.988
	L47.198,13.988L47.198,13.988z"/>
<path fill="#005DAA" d="M70.345,14.088c0.503-2.214,0.805-3.018,1.51-4.327c-2.314-1.509-4.328-2.113-7.347-2.113
	c-6.139,0-10.063,3.622-10.063,9.157c0,9.761,13.184,8.555,13.184,15.096c0,2.516-2.214,4.528-5.233,4.528
	c-3.321,0-5.636-1.811-6.24-4.831H55.25c-0.202,1.711-0.705,3.725-1.309,5.535c2.516,1.409,4.529,1.912,7.347,1.912
	c7.145,0,11.674-3.823,11.674-9.861c0-9.762-13.183-8.554-13.183-14.895c0-2.314,2.012-4.025,4.729-4.025
	c2.516,0,4.327,1.409,5.132,3.824L70.345,14.088L70.345,14.088L70.345,14.088z"/>
<path fill="#005DAA" d="M74.571,38.443c1.61-0.201,2.416-0.201,4.126-0.201c2.818,0,5.636,0.201,8.453,0.201
	c9.459,0,16.404-6.441,16.404-16c0-4.832-2.013-9.26-5.233-11.675C95.705,8.755,92.686,8.05,86.949,8.05
	c-2.918,0-5.938,0.201-8.957,0.201c-1.309,0-1.812,0-3.522-0.201c0.302,5.535,0.403,7.549,0.403,14.09
	C74.974,22.643,75.075,30.493,74.571,38.443L74.571,38.443L74.571,38.443z M95.001,29.988c-1.711,4.026-4.931,5.839-10.165,5.839
	c-1.308,0-1.811,0-3.321-0.102c0-3.924-0.101-7.749-0.101-11.674c0-4.427,0-8.755,0.302-13.184c1.812-0.202,2.617-0.202,3.724-0.202
	c2.516,0,4.528,0.403,5.937,1.208c3.221,1.711,5.033,5.736,5.033,11.069C96.41,25.864,95.705,28.279,95.001,29.988L95.001,29.988
	L95.001,29.988z"/>
<path fill="#005DAA" d="M105.266,32.506c0,2.013-0.101,3.119-0.402,5.938c1.51-0.201,2.113-0.201,3.421-0.201
	c1.61,0,2.114,0,3.723,0.302c-0.201-2.616-0.201-3.421-0.201-4.831l-0.101-4.527c0-1.41,0-2.718,0-4.127
	c0-0.402,0.101-0.604,0.302-0.604c0.101,0,0.202,0,0.503,0.704c2.617,4.428,5.233,8.855,7.548,13.385
	c1.61-0.101,2.214-0.101,3.522-0.101c1.409,0,2.214,0,4.428,0.101l-2.012-3.12l-3.925-6.138c-2.013-3.121-2.315-3.724-3.522-5.737
	c4.025-1.105,7.145-3.421,7.145-7.849c0-5.837-4.629-7.649-9.561-7.649c-2.314,0-4.73,0.201-7.044,0.201
	c-0.906,0-1.509,0-4.025-0.201c0.202,4.629,0.302,7.146,0.302,11.675C105.367,29.186,105.266,31.901,105.266,32.506L105.266,32.506
	L105.266,32.506z M111.706,22.643c0.101-4.025,0-8.05,0.201-11.976c0.805,0,1.006,0,1.409,0c3.724,0,5.435,1.812,5.435,5.536
	C118.751,20.832,116.234,22.643,111.706,22.643L111.706,22.643L111.706,22.643z"/>
<path d="M135.558,27.775h1.106l4.529,10.467h-1.107l-1.509-3.523h-4.83l-1.51,3.523h-1.107L135.558,27.775z M136.162,28.984
	l-2.013,4.729h4.025L136.162,28.984z"/>
<path d="M141.999,34.418c0-0.806,0.201-1.509,0.603-2.113c0.403-0.604,0.906-1.107,1.409-1.41c0.604-0.302,1.208-0.502,1.812-0.502
	c0.503,0,0.906,0.101,1.307,0.2c0.403,0.102,0.806,0.302,1.108,0.604s0.603,0.604,0.705,0.907v-1.511h1.006v7.045
	c0,0.604-0.101,1.107-0.301,1.61c-0.202,0.504-0.504,0.805-0.805,1.106c-0.302,0.303-0.806,0.504-1.208,0.705
	c-0.503,0.201-0.906,0.201-1.408,0.201c-0.403,0-0.907-0.101-1.308-0.201c-0.403-0.101-0.806-0.302-1.208-0.504
	c-0.402-0.201-0.704-0.503-0.905-0.905c-0.202-0.402-0.403-0.704-0.604-1.207h1.007c0.301,0.604,0.604,1.007,1.207,1.309
	c0.504,0.301,1.108,0.502,1.711,0.502c0.504,0,1.007-0.101,1.409-0.302c0.402-0.2,0.805-0.503,1.006-0.905
	c0.301-0.403,0.402-0.906,0.402-1.409v-0.806c-0.604,1.108-1.61,1.711-3.019,1.711c-0.504,0-1.006-0.101-1.409-0.301
	c-0.503-0.202-0.907-0.404-1.308-0.808c-0.402-0.301-0.705-0.805-0.906-1.306C142.1,35.626,141.999,35.022,141.999,34.418z
	 M143.005,34.216c0,0.604,0.101,1.208,0.402,1.712s0.604,0.904,1.108,1.106c0.502,0.201,0.905,0.401,1.509,0.401
	c0.402,0,0.907-0.1,1.309-0.301c0.503-0.202,0.906-0.604,1.208-1.006c0.301-0.504,0.503-1.108,0.503-1.812
	c0-0.401-0.101-0.704-0.202-1.107c-0.2-0.302-0.402-0.704-0.705-0.905c-0.301-0.302-0.604-0.503-1.007-0.604
	c-0.401-0.201-0.804-0.201-1.207-0.201c-0.705,0-1.309,0.201-1.711,0.604c-0.403,0.401-0.705,0.804-0.906,1.206
	C143.105,33.713,143.005,33.915,143.005,34.216z"/>
<path d="M151.458,34.316c0-0.604,0.101-1.208,0.403-1.71c0.201-0.503,0.503-0.905,0.906-1.309c0.402-0.302,0.805-0.604,1.309-0.805
	c0.503-0.201,0.906-0.303,1.409-0.303c0.705,0,1.309,0.202,1.912,0.504c0.604,0.302,1.107,0.806,1.51,1.409s0.604,1.408,0.604,2.314
	v0.201h-6.943c0,0.604,0.201,1.107,0.504,1.51c0.301,0.402,0.703,0.703,1.106,0.905c0.403,0.201,0.907,0.302,1.308,0.302
	c0.402,0,0.705-0.101,1.108-0.201c0.402-0.101,0.704-0.403,1.006-0.604c0.302-0.302,0.503-0.503,0.604-0.906h1.106
	c-0.201,0.604-0.502,1.106-0.906,1.509c-0.402,0.402-0.905,0.705-1.409,0.906c-0.503,0.202-1.006,0.302-1.51,0.302
	c-0.704,0-1.308-0.201-1.911-0.503c-0.604-0.303-1.107-0.806-1.409-1.407C151.659,35.827,151.458,35.123,151.458,34.316z
	 M158.503,33.813c-0.102-0.403-0.302-0.906-0.504-1.207c-0.301-0.403-0.603-0.705-1.006-0.905c-0.402-0.202-0.906-0.303-1.409-0.303
	c-0.705,0-1.208,0.201-1.611,0.503c-0.402,0.302-0.805,0.705-1.006,1.008c-0.201,0.301-0.302,0.704-0.402,1.006h5.938V33.813z"/>
<path d="M160.917,38.242v-7.749h1.006v1.107c0.302-0.403,0.604-0.706,1.006-1.008c0.403-0.2,0.906-0.301,1.409-0.301
	c0.403,0,0.805,0.101,1.208,0.201c0.403,0.201,0.805,0.401,1.107,0.704s0.604,0.705,0.805,1.108
	c0.202,0.403,0.302,0.904,0.302,1.508v4.328h-1.006v-4.328c0-0.503-0.102-1.005-0.303-1.407c-0.201-0.403-0.502-0.705-0.906-0.806
	c-0.402-0.201-0.805-0.303-1.208-0.303c-0.402,0-0.805,0.102-1.107,0.303c-0.403,0.201-0.604,0.402-0.905,0.806
	c-0.202,0.402-0.303,0.804-0.303,1.307v4.53L160.917,38.242L160.917,38.242z"/>
<path d="M169.169,34.418c0-0.604,0.101-1.208,0.302-1.609c0.202-0.504,0.503-0.907,0.906-1.309c0.402-0.303,0.805-0.605,1.308-0.806
	c0.503-0.201,0.907-0.302,1.409-0.302c0.906,0,1.711,0.2,2.415,0.604c0.706,0.403,1.308,1.007,1.61,1.913h-1.208
	c-0.303-0.504-0.705-0.806-1.107-1.107c-0.403-0.303-1.006-0.403-1.711-0.403c-0.603,0-1.107,0.201-1.509,0.503
	c-0.402,0.302-0.805,0.604-1.006,1.108c-0.201,0.503-0.403,0.905-0.403,1.408s0.101,1.007,0.403,1.51
	c0.302,0.504,0.604,0.804,1.107,1.106c0.503,0.302,1.007,0.401,1.51,0.401c0.604,0,1.108-0.1,1.61-0.401
	c0.503-0.303,0.907-0.603,1.107-1.006h1.107c-0.805,1.608-2.114,2.415-3.824,2.415c-0.503,0-1.006-0.102-1.509-0.303
	c-0.504-0.201-0.907-0.504-1.309-0.805c-0.402-0.303-0.705-0.807-0.906-1.308C169.271,35.525,169.169,35.022,169.169,34.418
	L169.169,34.418L169.169,34.418z"/>
<path d="M180.743,37.939l-2.918-7.446h1.107l2.517,6.138l2.616-6.138h1.107l-4.429,10.364h-1.106L180.743,37.939z"/>
<path d="M190.605,38.242v-6.743h-1.208v-0.906h1.208c0-1.812,1.006-2.718,3.019-2.718v1.007c-0.604,0-1.108,0.103-1.409,0.404
	c-0.402,0.2-0.502,0.702-0.502,1.307v0.101h1.912V31.6h-1.912v6.742h-1.108V38.242L190.605,38.242z"/>
<path d="M194.127,34.216c0-0.503,0.101-1.007,0.302-1.509c0.202-0.503,0.503-0.905,0.906-1.207c0.402-0.403,0.805-0.605,1.308-0.907
	c0.504-0.2,1.107-0.301,1.61-0.301c0.604,0,1.107,0.201,1.711,0.503s1.107,0.806,1.509,1.309c0.403,0.604,0.604,1.206,0.705,1.812
	c0,0,0,0.1,0,0.2s0,0.101,0,0.101c0,0.604-0.1,1.107-0.301,1.611c-0.202,0.503-0.504,0.904-0.907,1.307
	c-0.402,0.402-0.805,0.705-1.308,0.906c-0.503,0.202-1.005,0.302-1.509,0.302c-0.604,0-1.308-0.201-1.913-0.503
	c-0.604-0.303-1.106-0.806-1.509-1.407C194.33,35.827,194.127,35.123,194.127,34.216z M195.235,34.316
	c0,0.604,0.1,1.108,0.402,1.611c0.302,0.502,0.604,0.804,1.108,1.106c0.503,0.302,1.006,0.401,1.509,0.401
	c0.503,0,0.906-0.1,1.409-0.401c0.504-0.202,0.805-0.603,1.107-1.106c0.302-0.504,0.402-1.007,0.402-1.712
	c0-0.402-0.101-0.704-0.201-1.107c-0.202-0.401-0.402-0.704-0.604-0.905c-0.201-0.201-0.604-0.503-0.906-0.704
	c-0.403-0.202-0.705-0.202-1.107-0.202c-0.504,0-1.006,0.102-1.509,0.403s-0.805,0.604-1.108,1.007
	C195.335,33.209,195.235,33.713,195.235,34.316z"/>
<path d="M203.688,38.242v-7.749h1.006v1.107c0.402-0.906,1.207-1.309,2.214-1.309v1.007c-0.201,0-0.503,0.102-0.805,0.201
	c-0.302,0.101-0.503,0.202-0.704,0.403c-0.202,0.201-0.403,0.402-0.504,0.705c-0.101,0.302-0.202,0.501-0.202,0.804v4.73h-1.005
	V38.242L203.688,38.242z"/>
<path d="M213.45,38.242v-9.461h-2.415v-0.905h5.836v0.905h-2.416v9.461H213.45z"/>
<path d="M216.872,34.216c0-0.503,0.101-1.007,0.302-1.509c0.201-0.504,0.503-0.905,0.906-1.207c0.401-0.403,0.805-0.605,1.308-0.907
	c0.503-0.2,1.106-0.301,1.61-0.301c0.604,0,1.106,0.201,1.711,0.503c0.603,0.302,1.107,0.806,1.509,1.309
	c0.403,0.604,0.604,1.206,0.705,1.812c0,0,0,0.1,0,0.2s0,0.101,0,0.101c0,0.604-0.101,1.107-0.302,1.611
	c-0.202,0.503-0.503,0.904-0.906,1.307c-0.404,0.402-0.805,0.705-1.309,0.906c-0.503,0.202-1.007,0.302-1.509,0.302
	c-0.604,0-1.309-0.201-1.912-0.503c-0.604-0.303-1.107-0.806-1.511-1.407C217.072,35.827,216.872,35.123,216.872,34.216z
	 M217.878,34.316c0,0.604,0.1,1.108,0.402,1.611c0.302,0.504,0.604,0.804,1.107,1.106c0.503,0.302,1.006,0.401,1.51,0.401
	c0.502,0,0.906-0.1,1.409-0.401c0.503-0.202,0.805-0.603,1.106-1.106c0.302-0.504,0.403-1.007,0.403-1.712
	c0-0.402-0.101-0.704-0.202-1.107c-0.201-0.401-0.402-0.704-0.603-0.905c-0.202-0.201-0.604-0.503-0.906-0.704
	c-0.403-0.202-0.705-0.202-1.107-0.202c-0.503,0-1.007,0.102-1.509,0.403s-0.806,0.604-1.108,1.007
	C217.979,33.209,217.878,33.713,217.878,34.316z"/>
<path d="M225.526,38.242l2.617-3.926l-2.617-3.823h1.208l2.013,3.02l2.113-3.02h1.208l-2.616,3.823l2.616,3.926h-1.208l-2.113-3.121
	l-2.013,3.121H225.526z"/>
<path d="M233.074,29.587v-1.812h1.006v1.812H233.074z M233.074,38.242v-7.749h1.006v7.75L233.074,38.242L233.074,38.242z"/>
<path d="M235.589,34.418c0-0.604,0.103-1.208,0.303-1.609c0.201-0.504,0.504-0.907,0.906-1.309c0.403-0.303,0.805-0.605,1.308-0.806
	c0.503-0.201,0.906-0.302,1.408-0.302c0.907,0,1.712,0.2,2.416,0.604s1.308,1.007,1.609,1.913h-1.206
	c-0.303-0.504-0.704-0.806-1.106-1.107c-0.403-0.303-1.007-0.403-1.712-0.403c-0.604,0-1.106,0.201-1.509,0.503
	s-0.805,0.604-1.007,1.108c-0.201,0.503-0.402,0.905-0.402,1.408s0.1,1.007,0.402,1.51c0.302,0.502,0.604,0.804,1.108,1.106
	c0.502,0.302,1.006,0.401,1.509,0.401c0.604,0,1.107-0.1,1.61-0.401c0.502-0.303,0.905-0.603,1.106-1.006h1.107
	c-0.807,1.608-2.113,2.415-3.824,2.415c-0.503,0-1.008-0.102-1.509-0.303c-0.504-0.201-0.906-0.504-1.309-0.805
	c-0.403-0.303-0.705-0.807-0.906-1.308C235.691,35.525,235.589,35.022,235.589,34.418L235.589,34.418L235.589,34.418z"/>
<path d="M249.478,35.323c0,0.402,0.101,0.806,0.303,1.108c0.201,0.3,0.503,0.501,0.806,0.703c0.302,0.201,0.704,0.201,1.007,0.201
	c0.301,0,0.703-0.101,1.005-0.302c0.303-0.202,0.604-0.403,0.807-0.704c0.201-0.302,0.302-0.604,0.302-1.007
	s-0.101-0.806-0.302-1.107c-0.203-0.301-0.605-0.604-1.209-0.806c-0.602-0.201-1.106-0.4-1.71-0.604
	c-0.503-0.2-1.007-0.503-1.308-0.805c-0.302-0.403-0.504-0.906-0.504-1.611V30.29c0,0,0-0.1,0-0.2c0-0.504,0.202-0.905,0.403-1.309
	c0.301-0.401,0.604-0.704,1.107-0.905c0.402-0.202,0.906-0.303,1.409-0.303c0.603,0,1.106,0.101,1.508,0.403
	c0.403,0.303,0.807,0.604,1.007,1.008c0.202,0.401,0.404,0.804,0.404,1.206v0.1h-1.008c-0.101-0.604-0.303-1.005-0.604-1.306
	c-0.302-0.303-0.705-0.404-1.206-0.505c-0.303,0-0.604,0.101-0.906,0.202c-0.303,0.1-0.504,0.303-0.705,0.604
	c-0.201,0.2-0.302,0.502-0.302,0.804c0,0.604,0.201,1.107,0.503,1.309c0.303,0.303,0.907,0.503,1.61,0.705
	c0.703,0.201,1.307,0.503,1.812,0.806c0.503,0.301,0.806,0.804,1.007,1.609c0,0.302,0.101,0.504,0.101,0.704
	c0,0.402-0.101,0.705-0.201,1.108c-0.101,0.401-0.302,0.704-0.604,1.007c-0.303,0.301-0.604,0.502-1.008,0.704
	c-0.403,0.201-0.806,0.301-1.308,0.301s-0.906-0.1-1.309-0.2s-0.805-0.403-1.007-0.705c-0.302-0.303-0.503-0.604-0.705-1.006
	c-0.202-0.403-0.202-0.807-0.202-1.208h1.008L249.478,35.323L249.478,35.323z"/>
<path d="M255.918,35.123v-4.63h1.007v4.428c0,0.806,0.202,1.409,0.705,1.811c0.504,0.403,1.007,0.704,1.61,0.704
	c0.401,0,0.805-0.1,1.207-0.301c0.403-0.202,0.705-0.504,0.906-0.905c0.201-0.402,0.302-0.906,0.302-1.511v-4.226h1.007v7.75h-1.007
	v-1.208c-0.201,0.402-0.604,0.805-1.007,1.007c-0.503,0.201-1.007,0.402-1.51,0.402c-0.603,0-1.106-0.102-1.61-0.402
	c-0.502-0.303-0.905-0.604-1.206-1.107C256.12,36.432,255.918,35.827,255.918,35.123z"/>
<path d="M264.473,38.242V27.775h1.107v4.227c0.301-0.503,0.603-0.805,1.207-1.107c0.504-0.302,1.107-0.504,1.711-0.504
	c0.805,0,1.509,0.202,2.113,0.604c0.604,0.403,1.107,0.807,1.51,1.409c0.402,0.605,0.504,1.207,0.604,1.812
	c0,0.805-0.201,1.51-0.503,2.113c-0.302,0.704-0.806,1.207-1.309,1.61c-0.503,0.402-1.309,0.604-2.112,0.604
	c-0.504,0-0.906-0.101-1.31-0.201c-0.402-0.101-0.805-0.302-1.107-0.504c-0.301-0.201-0.603-0.503-0.805-0.805v1.309h-1.107
	L264.473,38.242L264.473,38.242z M265.479,34.115c0,0.403,0.101,0.806,0.201,1.208c0.102,0.402,0.302,0.705,0.604,1.007
	c0.302,0.301,0.604,0.502,1.007,0.704c0.402,0.201,0.906,0.302,1.409,0.302s1.006-0.101,1.408-0.403
	c0.402-0.302,0.805-0.603,1.107-1.105c0.302-0.504,0.402-1.007,0.402-1.611c0-0.402-0.101-0.806-0.302-1.107
	s-0.403-0.704-0.705-0.905c-0.302-0.302-0.604-0.503-1.007-0.604c-0.401-0.1-0.703-0.2-1.106-0.2c-0.402,0-0.805,0.101-1.308,0.302
	c-0.504,0.201-0.907,0.503-1.208,0.906C265.681,33.108,265.479,33.612,265.479,34.115z"/>
<path d="M273.73,32.809c0-0.102,0-0.202,0-0.303c0-0.402,0.101-0.805,0.302-1.107c0.202-0.303,0.504-0.604,0.806-0.705
	c0.303-0.2,0.705-0.2,1.007-0.2s0.505,0,0.806,0.1c0.302,0.101,0.503,0.202,0.704,0.402c0.202,0.202,0.403,0.403,0.504,0.604
	c0.1,0.302,0.2,0.604,0.2,0.906h-1.006c0-0.402-0.101-0.604-0.402-0.805c-0.301-0.202-0.504-0.303-0.806-0.303
	s-0.503,0.101-0.805,0.303c-0.202,0.2-0.402,0.402-0.402,0.805c0,0,0,0.101,0,0.201c0,0.102,0,0.202,0,0.202
	c0.101,0.301,0.301,0.501,0.704,0.604c0.403,0.101,0.805,0.301,1.207,0.502c0.402,0.202,0.806,0.403,1.106,0.705
	c0.303,0.303,0.403,0.705,0.403,1.309c0,0.102,0,0.202,0,0.403c-0.101,0.502-0.201,0.906-0.503,1.207
	c-0.302,0.302-0.604,0.503-0.905,0.704c-0.303,0.101-0.705,0.201-1.007,0.201c-0.504,0-0.906-0.101-1.207-0.301
	c-0.404-0.202-0.605-0.505-0.906-0.907c-0.203-0.403-0.303-0.805-0.303-1.206h1.007c0,0.401,0.202,0.804,0.403,1.105
	c0.301,0.303,0.604,0.403,1.006,0.403c0.403,0,0.706-0.201,0.906-0.403c0.302-0.2,0.402-0.604,0.402-0.904
	c0-0.303-0.101-0.604-0.302-0.906s-0.504-0.402-1.007-0.504c-0.604-0.202-1.107-0.402-1.509-0.705
	C274.032,33.813,273.831,33.31,273.73,32.809z"/>
<path d="M280.473,38.242v-6.743h-1.608v-0.906h1.608v-2.718h1.008v2.718h1.811v0.906h-1.811v6.743H280.473z"/>
<path d="M284.098,34.418c0-0.604,0.1-1.208,0.401-1.711c0.202-0.504,0.504-0.905,0.906-1.308c0.403-0.403,0.806-0.604,1.308-0.807
	c0.504-0.2,1.008-0.301,1.51-0.301c1.409,0,2.416,0.603,3.02,1.71v-1.509h1.007v7.75h-1.007v-1.511
	c-0.302,0.503-0.705,0.906-1.206,1.208c-0.505,0.303-1.209,0.402-1.812,0.402c-0.503,0-1.007-0.1-1.511-0.302
	c-0.502-0.202-0.904-0.503-1.307-0.806s-0.705-0.804-0.906-1.207C284.197,35.525,284.098,35.022,284.098,34.418z M285.103,34.216
	c0,0.604,0.101,1.208,0.403,1.712c0.302,0.504,0.604,0.904,1.108,1.106c0.501,0.302,0.904,0.401,1.407,0.401
	c0.604,0,1.107-0.1,1.61-0.401c0.503-0.303,0.805-0.704,1.106-1.106s0.403-0.907,0.403-1.409c0-0.504-0.102-1.007-0.403-1.509
	c-0.302-0.504-0.604-0.807-1.106-1.108s-1.007-0.402-1.509-0.503c-0.604,0-1.108,0.101-1.61,0.403
	c-0.503,0.302-0.806,0.704-1.107,1.107C285.203,33.41,285.103,33.813,285.103,34.216z"/>
<path d="M293.958,38.242v-7.749h1.008v1.107c0.302-0.403,0.604-0.706,1.006-1.008c0.403-0.2,0.906-0.301,1.409-0.301
	c0.402,0,0.805,0.101,1.207,0.201c0.403,0.201,0.806,0.401,1.107,0.704s0.604,0.705,0.806,1.108c0.2,0.403,0.302,0.904,0.302,1.508
	v4.328h-1.007v-4.328c0-0.503-0.101-1.005-0.301-1.407c-0.201-0.403-0.504-0.705-0.907-0.806c-0.402-0.201-0.805-0.303-1.207-0.303
	c-0.401,0-0.805,0.102-1.107,0.303c-0.402,0.201-0.604,0.402-0.906,0.806c-0.302,0.402-0.302,0.804-0.302,1.307v4.53L293.958,38.242
	L293.958,38.242z"/>
<path d="M302.312,34.418c0-0.604,0.101-1.208,0.302-1.609c0.201-0.403,0.503-0.907,0.906-1.309c0.403-0.303,0.804-0.605,1.308-0.806
	c0.502-0.201,0.905-0.302,1.409-0.302c0.905,0,1.71,0.2,2.415,0.604c0.704,0.403,1.308,1.007,1.609,1.913h-1.207
	c-0.302-0.504-0.704-0.806-1.107-1.107c-0.402-0.303-1.006-0.403-1.71-0.403c-0.605,0-1.107,0.201-1.511,0.503
	c-0.402,0.302-0.804,0.604-1.006,1.108c-0.201,0.4-0.402,0.905-0.402,1.408s0.1,1.007,0.402,1.51
	c0.303,0.502,0.604,0.804,1.107,1.106c0.503,0.302,1.008,0.401,1.51,0.401c0.604,0,1.106-0.1,1.609-0.401
	c0.503-0.303,0.906-0.603,1.107-1.006h1.107c-0.806,1.608-2.113,2.415-3.824,2.415c-0.502,0-1.007-0.102-1.51-0.303
	s-0.904-0.504-1.308-0.805c-0.402-0.303-0.705-0.807-0.905-1.308C302.413,35.525,302.312,35.022,302.312,34.418L302.312,34.418
	L302.312,34.418z"/>
<path d="M311.369,34.316c0-0.604,0.101-1.208,0.402-1.71c0.202-0.503,0.504-0.905,0.907-1.309c0.402-0.302,0.805-0.604,1.307-0.805
	c0.503-0.201,0.906-0.303,1.409-0.303c0.705,0,1.309,0.202,1.913,0.504c0.604,0.302,1.106,0.806,1.508,1.409
	c0.403,0.604,0.604,1.408,0.604,2.314v0.201h-6.944c0,0.604,0.202,1.107,0.505,1.51c0.302,0.4,0.704,0.703,1.106,0.905
	c0.401,0.201,0.905,0.302,1.308,0.302s0.705-0.101,1.106-0.201c0.404-0.101,0.706-0.403,1.009-0.604
	c0.302-0.302,0.502-0.503,0.604-0.906h1.105c-0.201,0.604-0.502,1.106-0.906,1.509c-0.4,0.402-0.904,0.705-1.407,0.906
	c-0.503,0.202-1.007,0.302-1.51,0.302c-0.705,0-1.308-0.201-1.911-0.503c-0.604-0.303-1.107-0.806-1.41-1.407
	C311.569,35.827,311.369,35.123,311.369,34.316z M318.413,33.813c-0.102-0.403-0.302-0.906-0.502-1.207
	c-0.302-0.403-0.604-0.705-1.008-0.905c-0.403-0.202-0.905-0.303-1.408-0.303c-0.705,0-1.208,0.201-1.609,0.503
	c-0.403,0.302-0.806,0.705-1.008,1.008c-0.201,0.301-0.302,0.704-0.403,1.006h5.938L318.413,33.813L318.413,33.813z"/>
<path d="M320.527,32.809c0-0.102,0-0.202,0-0.303c0-0.402,0.101-0.805,0.302-1.107c0.202-0.303,0.504-0.604,0.806-0.705
	c0.302-0.2,0.704-0.2,1.006-0.2c0.303,0,0.504,0,0.807,0.1c0.301,0.101,0.502,0.202,0.705,0.402
	c0.201,0.202,0.402,0.403,0.503,0.604c0.101,0.302,0.2,0.604,0.2,0.906h-1.006c0-0.402-0.102-0.604-0.402-0.805
	c-0.303-0.202-0.504-0.303-0.807-0.303c-0.302,0-0.503,0.101-0.806,0.303c-0.2,0.2-0.401,0.402-0.401,0.805c0,0,0,0.101,0,0.201
	c0,0.102,0,0.202,0,0.202c0.1,0.301,0.301,0.501,0.704,0.604c0.403,0.101,0.806,0.301,1.207,0.502
	c0.402,0.202,0.807,0.403,1.108,0.705c0.303,0.303,0.402,0.705,0.402,1.309c0,0.102,0,0.202,0,0.403
	c-0.1,0.502-0.201,0.906-0.503,1.207c-0.303,0.302-0.604,0.503-0.906,0.704c-0.302,0.101-0.705,0.201-1.007,0.201
	c-0.504,0-0.906-0.101-1.207-0.301c-0.403-0.202-0.604-0.505-0.906-0.907c-0.201-0.403-0.302-0.805-0.302-1.206h1.007
	c0,0.401,0.201,0.804,0.402,1.105c0.301,0.303,0.603,0.403,1.006,0.403s0.705-0.201,0.906-0.403c0.302-0.2,0.402-0.604,0.402-0.904
	c0-0.303-0.101-0.604-0.301-0.906c-0.202-0.302-0.504-0.402-1.008-0.504c-0.604-0.202-1.106-0.402-1.509-0.705
	C320.828,33.813,320.527,33.31,320.527,32.809z"/>
<path d="M329.886,34.418c0-0.604,0.102-1.208,0.402-1.711c0.202-0.504,0.504-0.905,0.907-1.308c0.403-0.403,0.805-0.604,1.308-0.807
	c0.502-0.2,1.007-0.301,1.51-0.301c1.407,0,2.414,0.603,3.019,1.71v-1.509h1.007v7.75h-1.007v-1.511
	c-0.302,0.503-0.705,0.906-1.207,1.208s-1.207,0.402-1.812,0.402c-0.503,0-1.007-0.1-1.51-0.302s-0.904-0.503-1.307-0.806
	c-0.403-0.303-0.706-0.804-0.907-1.207C329.987,35.525,329.886,35.022,329.886,34.418z M330.994,34.216
	c0,0.604,0.101,1.208,0.402,1.712s0.604,0.904,1.106,1.106c0.503,0.302,0.907,0.401,1.409,0.401c0.604,0,1.107-0.1,1.609-0.401
	c0.503-0.303,0.806-0.704,1.107-1.106s0.403-0.907,0.403-1.409c0-0.504-0.102-1.007-0.403-1.509
	c-0.302-0.504-0.604-0.807-1.107-1.108c-0.502-0.302-1.006-0.402-1.509-0.503c-0.604,0-1.108,0.101-1.61,0.403
	c-0.502,0.302-0.804,0.704-1.106,1.107C331.095,33.41,330.994,33.813,330.994,34.216z"/>
<path d="M339.849,38.242v-7.749h1.008v1.107c0.302-0.403,0.604-0.706,1.007-1.008c0.402-0.2,0.905-0.301,1.407-0.301
	c0.403,0,0.805,0.101,1.208,0.201c0.403,0.201,0.806,0.401,1.108,0.704c0.302,0.303,0.603,0.705,0.804,1.108
	s0.302,0.904,0.302,1.508v4.328h-1.006v-4.328c0-0.503-0.1-1.005-0.302-1.407c-0.201-0.403-0.503-0.705-0.906-0.806
	c-0.403-0.201-0.806-0.303-1.208-0.303c-0.401,0-0.804,0.102-1.106,0.303c-0.402,0.201-0.604,0.402-0.905,0.806
	c-0.303,0.402-0.303,0.804-0.303,1.307v4.53L339.849,38.242L339.849,38.242z"/>
<path d="M348.202,34.015c0.101-0.705,0.302-1.308,0.704-1.911c0.404-0.604,0.906-1.008,1.408-1.309
	c0.604-0.302,1.209-0.503,1.812-0.503s1.307,0.101,1.812,0.402c0.604,0.2,1.006,0.604,1.408,1.207v-4.025h1.007v10.466h-1.007v-1.51
	c-0.402,0.504-0.806,1.007-1.309,1.208c-0.503,0.302-1.106,0.403-1.911,0.403c-0.604,0-1.309-0.201-1.912-0.604
	c-0.604-0.403-1.107-0.806-1.509-1.407c-0.403-0.604-0.604-1.309-0.604-2.115C348.103,34.216,348.103,34.115,348.202,34.015z
	 M349.209,33.915c0,0.1,0,0.2,0,0.401c0,0.504,0.102,1.008,0.402,1.511c0.302,0.503,0.604,0.804,1.106,1.105
	c0.504,0.303,1.008,0.403,1.51,0.403c0.503,0,1.007-0.101,1.51-0.403c0.504-0.302,0.905-0.603,1.207-1.105
	c0.302-0.504,0.504-1.007,0.504-1.712c0-0.302-0.101-0.705-0.302-1.206c-0.202-0.504-0.604-0.806-1.007-1.208
	c-0.504-0.302-1.008-0.504-1.711-0.504c-0.402,0-0.806,0.101-1.208,0.303c-0.402,0.201-0.805,0.402-1.106,0.806
	C349.51,32.809,349.311,33.31,349.209,33.915z"/>
<path d="M362.19,38.242V27.775h2.817c1.008,0,1.812,0.101,2.617,0.403c0.704,0.302,1.408,0.705,1.912,1.107
	c0.504,0.502,0.906,1.006,1.107,1.71c0.2,0.705,0.402,1.309,0.402,2.014c0,0.804-0.202,1.509-0.504,2.113
	c-0.301,0.604-0.704,1.207-1.206,1.608c-0.504,0.403-1.107,0.807-1.711,1.007c-0.605,0.202-1.308,0.303-2.013,0.303h-3.422
	L362.19,38.242L362.19,38.242z M363.197,28.781v8.555h1.61c1.408,0,2.616-0.303,3.622-1.007c1.007-0.705,1.409-1.71,1.51-3.12
	c0-0.604-0.101-1.106-0.303-1.61c-0.201-0.503-0.503-1.007-0.906-1.408c-0.402-0.403-0.905-0.704-1.509-1.006
	c-0.604-0.201-1.308-0.303-2.214-0.303h-1.811V28.781L363.197,28.781z"/>
<path d="M372.456,29.587v-1.812h1.007v1.812H372.456z M372.456,38.242v-7.749h1.007v7.75L372.456,38.242L372.456,38.242z"/>
<path d="M374.972,32.809c0-0.102,0-0.202,0-0.303c0-0.402,0.101-0.805,0.302-1.107s0.503-0.604,0.806-0.705
	c0.302-0.2,0.705-0.2,1.007-0.2c0.301,0,0.502,0,0.805,0.1c0.302,0.101,0.504,0.202,0.705,0.402
	c0.202,0.202,0.403,0.403,0.504,0.604c0.1,0.302,0.201,0.604,0.201,0.906h-1.008c0-0.402-0.101-0.604-0.402-0.805
	c-0.303-0.202-0.504-0.303-0.805-0.303c-0.302,0-0.503,0.101-0.806,0.303c-0.201,0.2-0.402,0.402-0.402,0.805c0,0,0,0.101,0,0.201
	c0,0.102,0,0.202,0,0.202c0.101,0.301,0.302,0.501,0.705,0.604c0.402,0.101,0.804,0.301,1.206,0.502
	c0.403,0.202,0.806,0.403,1.107,0.705c0.302,0.303,0.403,0.705,0.403,1.309c0,0.102,0,0.202,0,0.403
	c-0.102,0.502-0.201,0.906-0.504,1.207c-0.303,0.302-0.604,0.503-0.906,0.704c-0.303,0.101-0.704,0.201-1.005,0.201
	c-0.505,0-0.907-0.101-1.209-0.301c-0.402-0.202-0.604-0.505-0.905-0.907c-0.202-0.403-0.303-0.805-0.303-1.206h1.007
	c0,0.401,0.201,0.804,0.402,1.105c0.303,0.303,0.604,0.403,1.008,0.403c0.402,0,0.702-0.201,0.904-0.403
	c0.303-0.2,0.403-0.604,0.403-0.904c0-0.303-0.101-0.604-0.302-0.906c-0.202-0.302-0.504-0.402-1.006-0.504
	c-0.604-0.202-1.108-0.402-1.51-0.705C375.272,33.813,374.972,33.31,374.972,32.809z"/>
<path d="M380.507,34.316c0-0.604,0.101-1.208,0.402-1.71c0.201-0.503,0.503-0.905,0.906-1.309c0.402-0.302,0.805-0.604,1.308-0.805
	c0.504-0.201,0.906-0.303,1.408-0.303c0.704,0,1.309,0.202,1.913,0.504c0.604,0.302,1.106,0.806,1.508,1.409
	c0.404,0.604,0.604,1.408,0.604,2.314v0.201h-6.943c0,0.604,0.201,1.107,0.503,1.51s0.705,0.703,1.107,0.905
	c0.403,0.201,0.905,0.302,1.308,0.302c0.403,0,0.704-0.101,1.108-0.201c0.402-0.101,0.704-0.403,1.006-0.604
	c0.302-0.302,0.504-0.503,0.604-0.906h1.107c-0.202,0.604-0.504,1.106-0.905,1.509c-0.403,0.402-0.906,0.705-1.409,0.906
	c-0.503,0.202-1.008,0.302-1.51,0.302c-0.704,0-1.308-0.201-1.912-0.503c-0.604-0.303-1.107-0.806-1.408-1.407
	C380.707,35.827,380.507,35.123,380.507,34.316z M387.451,33.813c-0.102-0.403-0.303-0.906-0.504-1.207
	c-0.303-0.403-0.604-0.705-1.007-0.905c-0.403-0.202-0.906-0.303-1.409-0.303c-0.704,0-1.206,0.201-1.609,0.503
	c-0.402,0.302-0.806,0.705-1.007,1.008c-0.201,0.301-0.302,0.704-0.402,1.006h5.938L387.451,33.813L387.451,33.813z"/>
<path d="M389.665,34.418c0-0.604,0.1-1.208,0.402-1.711c0.201-0.504,0.504-0.905,0.905-1.308c0.402-0.403,0.806-0.604,1.309-0.807
	c0.504-0.2,1.007-0.301,1.509-0.301c1.409,0,2.416,0.603,3.02,1.71v-1.509h1.007v7.75h-1.007v-1.511
	c-0.302,0.503-0.705,0.906-1.208,1.208c-0.503,0.303-1.206,0.402-1.811,0.402c-0.503,0-1.006-0.1-1.51-0.302
	c-0.503-0.202-0.906-0.503-1.308-0.806s-0.704-0.804-0.906-1.207C389.765,35.525,389.665,35.022,389.665,34.418z M390.671,34.216
	c0,0.604,0.102,1.208,0.403,1.712c0.301,0.504,0.603,0.904,1.106,1.106c0.504,0.302,0.906,0.401,1.409,0.401
	c0.604,0,1.106-0.1,1.609-0.401c0.503-0.303,0.806-0.704,1.107-1.106s0.403-0.907,0.403-1.409c0-0.504-0.102-1.007-0.403-1.509
	c-0.302-0.504-0.604-0.807-1.107-1.108s-1.006-0.402-1.509-0.503c-0.604,0-1.107,0.101-1.61,0.403
	c-0.504,0.302-0.806,0.704-1.107,1.107C390.772,33.41,390.671,33.813,390.671,34.216z"/>
<path d="M399.226,32.809c0-0.102,0-0.202,0-0.303c0-0.402,0.1-0.805,0.302-1.107c0.2-0.303,0.503-0.604,0.805-0.705
	c0.302-0.2,0.705-0.2,1.008-0.2c0.301,0,0.502,0,0.804,0.1c0.302,0.101,0.504,0.202,0.705,0.402
	c0.201,0.202,0.403,0.403,0.503,0.604c0.101,0.302,0.201,0.604,0.201,0.906h-1.006c0-0.402-0.102-0.604-0.403-0.805
	c-0.302-0.202-0.503-0.303-0.804-0.303c-0.303,0-0.504,0.101-0.806,0.303c-0.202,0.2-0.402,0.402-0.402,0.805c0,0,0,0.101,0,0.201
	c0,0.102,0,0.202,0,0.202c0.101,0.301,0.301,0.501,0.704,0.604c0.402,0.101,0.805,0.301,1.207,0.502
	c0.401,0.202,0.806,0.403,1.106,0.705c0.303,0.303,0.403,0.705,0.403,1.309c0,0.102,0,0.202,0,0.403
	c-0.101,0.502-0.201,0.906-0.504,1.207c-0.302,0.302-0.604,0.503-0.905,0.704c-0.303,0.101-0.704,0.201-1.006,0.201
	c-0.505,0-0.906-0.101-1.208-0.301c-0.402-0.202-0.604-0.505-0.906-0.907c-0.202-0.403-0.303-0.805-0.303-1.206h1.008
	c0,0.401,0.201,0.804,0.403,1.105c0.301,0.303,0.604,0.403,1.006,0.403c0.401,0,0.704-0.201,0.906-0.403
	c0.302-0.2,0.401-0.604,0.401-0.904c0-0.303-0.1-0.604-0.302-0.906c-0.2-0.302-0.503-0.402-1.006-0.504
	c-0.604-0.202-1.107-0.402-1.51-0.705C399.527,33.813,399.325,33.31,399.226,32.809z"/>
<path d="M404.761,34.316c0-0.604,0.102-1.208,0.401-1.71c0.201-0.503,0.504-0.905,0.907-1.309c0.401-0.302,0.805-0.604,1.308-0.805
	s0.906-0.303,1.408-0.303c0.705,0,1.308,0.202,1.913,0.504c0.604,0.302,1.106,0.806,1.508,1.409
	c0.403,0.604,0.604,1.408,0.604,2.314v0.201h-6.944c0,0.604,0.201,1.107,0.504,1.51c0.303,0.4,0.704,0.703,1.107,0.905
	c0.402,0.201,0.905,0.302,1.308,0.302s0.705-0.101,1.106-0.201c0.403-0.101,0.706-0.403,1.008-0.604
	c0.303-0.302,0.503-0.503,0.604-0.906h1.106c-0.202,0.604-0.504,1.106-0.905,1.509c-0.402,0.402-0.906,0.705-1.409,0.906
	c-0.503,0.202-1.007,0.302-1.51,0.302c-0.704,0-1.308-0.201-1.911-0.503c-0.604-0.303-1.107-0.806-1.409-1.407
	C404.961,35.827,404.761,35.123,404.761,34.316z M411.704,33.813c-0.101-0.403-0.302-0.906-0.504-1.207
	c-0.302-0.403-0.604-0.705-1.007-0.905c-0.402-0.202-0.906-0.303-1.409-0.303c-0.704,0-1.206,0.201-1.609,0.503
	c-0.402,0.302-0.805,0.705-1.007,1.008c-0.201,0.301-0.303,0.704-0.402,1.006h5.938L411.704,33.813L411.704,33.813z"/>
<path d="M418.246,38.242V27.775h2.817c0.906,0,1.609,0.101,2.113,0.304c0.604,0.2,1.007,0.502,1.308,0.805
	c0.302,0.302,0.505,0.704,0.604,1.006c0.101,0.402,0.201,0.704,0.201,1.106c0,0.604-0.101,1.108-0.402,1.612
	c-0.302,0.501-0.604,0.904-1.107,1.205c-0.504,0.303-1.007,0.403-1.609,0.403l2.918,3.925h-1.309l-3.521-4.731h0.906
	c0.604,0,1.206-0.1,1.609-0.302c0.503-0.199,0.805-0.401,1.106-0.804c0.303-0.403,0.403-0.806,0.403-1.309s-0.101-0.906-0.403-1.309
	c-0.302-0.401-0.604-0.604-1.106-0.804c-0.503-0.202-0.905-0.303-1.408-0.303h-2.113v9.46h-1.007V38.242L418.246,38.242z"/>
<path d="M426.396,34.316c0-0.604,0.102-1.208,0.404-1.71c0.201-0.503,0.502-0.905,0.906-1.309c0.402-0.302,0.805-0.604,1.309-0.805
	c0.501-0.201,0.904-0.303,1.407-0.303c0.705,0,1.309,0.202,1.912,0.504s1.107,0.806,1.509,1.409
	c0.403,0.604,0.604,1.408,0.604,2.314v0.201h-6.943c0,0.604,0.201,1.107,0.503,1.51s0.705,0.703,1.107,0.905
	c0.402,0.201,0.905,0.302,1.308,0.302c0.403,0,0.705-0.101,1.108-0.201c0.401-0.101,0.704-0.403,1.006-0.604
	c0.302-0.302,0.503-0.503,0.604-0.906h1.107c-0.2,0.604-0.504,1.106-0.905,1.509c-0.404,0.402-0.905,0.705-1.409,0.906
	c-0.503,0.202-1.006,0.302-1.51,0.302c-0.705,0-1.308-0.201-1.912-0.503c-0.604-0.303-1.106-0.806-1.408-1.407
	C426.599,35.827,426.396,35.123,426.396,34.316z M433.341,33.813c-0.102-0.403-0.303-0.906-0.505-1.207
	c-0.301-0.403-0.603-0.705-1.005-0.905c-0.402-0.202-0.906-0.303-1.409-0.303c-0.704,0-1.207,0.201-1.609,0.503
	s-0.806,0.705-1.007,1.008c-0.202,0.301-0.302,0.704-0.403,1.006h5.938V33.813L433.341,33.813z"/>
<path d="M435.556,34.418c0-0.806,0.201-1.509,0.604-2.113c0.401-0.604,0.905-1.107,1.407-1.41c0.604-0.302,1.208-0.502,1.812-0.502
	c0.503,0,0.905,0.101,1.308,0.2c0.402,0.102,0.806,0.302,1.107,0.604c0.303,0.303,0.605,0.604,0.705,0.907v-1.511h1.006v7.045
	c0,0.604-0.102,1.107-0.302,1.61c-0.2,0.504-0.503,0.805-0.804,1.106c-0.404,0.303-0.808,0.504-1.209,0.705
	c-0.504,0.201-0.906,0.201-1.409,0.201c-0.402,0-0.905-0.101-1.308-0.201s-0.805-0.302-1.208-0.504
	c-0.402-0.201-0.705-0.503-0.904-0.905c-0.302-0.302-0.403-0.704-0.503-1.207h1.005c0.303,0.604,0.604,1.007,1.208,1.309
	c0.504,0.301,1.107,0.502,1.71,0.502c0.504,0,1.008-0.101,1.409-0.302c0.401-0.2,0.805-0.503,1.008-0.905
	c0.301-0.403,0.402-0.906,0.402-1.409v-0.806c-0.605,1.108-1.61,1.711-3.02,1.711c-0.504,0-1.007-0.101-1.409-0.301
	c-0.402-0.202-0.906-0.404-1.309-0.808c-0.402-0.301-0.703-0.805-0.905-1.306C435.757,35.626,435.556,35.022,435.556,34.418z
	 M436.561,34.216c0,0.604,0.101,1.208,0.403,1.712c0.302,0.504,0.604,0.904,1.107,1.106c0.402,0.302,0.906,0.401,1.51,0.401
	c0.4,0,0.905-0.1,1.308-0.301c0.503-0.202,0.906-0.604,1.208-1.006c0.303-0.504,0.503-1.108,0.503-1.812
	c0-0.401-0.101-0.704-0.2-1.107c-0.203-0.302-0.404-0.704-0.706-0.905c-0.302-0.302-0.604-0.503-1.007-0.604
	c-0.403-0.201-0.806-0.201-1.207-0.201c-0.705,0-1.309,0.201-1.71,0.604c-0.403,0.401-0.706,0.804-0.907,1.206
	C436.661,33.612,436.561,33.915,436.561,34.216z"/>
<path d="M445.316,29.587v-1.812h1.007v1.812H445.316z M445.316,38.242v-7.749h1.007v7.75L445.316,38.242L445.316,38.242z"/>
<path d="M447.731,32.809c0-0.102,0-0.202,0-0.303c0-0.402,0.102-0.805,0.303-1.107s0.503-0.604,0.805-0.705
	c0.303-0.2,0.706-0.2,1.008-0.2s0.502,0,0.804,0.1c0.303,0.101,0.503,0.202,0.705,0.402c0.202,0.202,0.402,0.403,0.504,0.604
	c0.101,0.302,0.201,0.604,0.201,0.906h-1.007c0-0.402-0.101-0.604-0.403-0.805c-0.302-0.202-0.502-0.303-0.804-0.303
	s-0.504,0.101-0.807,0.303c-0.201,0.2-0.402,0.402-0.402,0.805c0,0,0,0.101,0,0.201c0,0.102,0,0.202,0,0.202
	c0.101,0.301,0.303,0.501,0.705,0.604c0.403,0.101,0.806,0.301,1.206,0.502c0.403,0.202,0.806,0.403,1.108,0.705
	c0.302,0.303,0.403,0.705,0.403,1.309c0,0.102,0,0.202,0,0.403c-0.102,0.502-0.202,0.906-0.505,1.207
	c-0.302,0.302-0.604,0.503-0.905,0.704c-0.302,0.101-0.704,0.201-1.006,0.201c-0.504,0-0.906-0.101-1.208-0.301
	c-0.402-0.202-0.604-0.505-0.906-0.907c-0.201-0.403-0.302-0.805-0.302-1.206h1.007c0,0.401,0.201,0.804,0.402,1.105
	c0.303,0.303,0.604,0.403,1.007,0.403c0.403,0,0.704-0.201,0.905-0.403c0.302-0.2,0.403-0.604,0.403-0.904
	c0-0.303-0.102-0.604-0.303-0.906s-0.502-0.402-1.006-0.504c-0.604-0.202-1.107-0.402-1.51-0.705
	C448.034,33.813,447.833,33.31,447.731,32.809z"/>
<path d="M454.475,38.242v-6.743h-1.61v-0.906h1.61v-2.718h1.007v2.718h1.811v0.906h-1.811v6.743H454.475z"/>
<path d="M458.399,38.242v-7.749h1.007v1.107c0.403-0.906,1.207-1.309,2.214-1.309v1.007c-0.202,0-0.504,0.102-0.807,0.201
	c-0.3,0.101-0.502,0.202-0.703,0.403c-0.202,0.201-0.403,0.402-0.504,0.705c-0.1,0.302-0.201,0.501-0.201,0.804v4.73h-1.007
	L458.399,38.242L458.399,38.242z"/>
<path d="M464.839,37.939l-2.918-7.446h1.107l2.516,6.138l2.617-6.138h1.107l-4.429,10.364h-1.106L464.839,37.939z"/>
</svg>
