<?xml version="1.0" encoding="utf-8"?>
<!-- Generator: Adobe Illustrator 15.1.0, SVG Export Plug-In  -->
<!DOCTYPE svg PUBLIC "-//W3C//DTD SVG 1.1//EN" "http://www.w3.org/Graphics/SVG/1.1/DTD/svg11.dtd" [
	<!ENTITY ns_flows "http://ns.adobe.com/Flows/1.0/">
]>
<svg version="1.1"
	 xmlns="http://www.w3.org/2000/svg" xmlns:xlink="http://www.w3.org/1999/xlink" xmlns:a="http://ns.adobe.com/AdobeSVGViewerExtensions/3.0/"
	 x="0px" y="0px" width="246px" height="33px" viewBox="0 0 246 33"
	 overflow="visible" enable-background="new 0 0 246 33" xml:space="preserve">
<defs>
</defs>
<path fill="#005DAA" d="M22.776,7.118C21.962,3.457,21.759,2.847,21.251,0C20.64,0.102,20.03,0.204,19.42,0.204
	c-0.508,0-0.814,0-1.525-0.204c-1.932,3.763-2.338,4.168-5.795,10.167l-3.965,7.018C5.491,21.76,2.746,26.131,0,30.605
	c0.813-0.102,1.729-0.202,2.237-0.202c0.812,0,1.423,0.101,1.931,0.202c1.526-3.15,3.152-6.303,4.88-9.254c1.933,0,3.763,0,5.694,0
	c1.627,0,3.254,0,4.881,0c0.813,3.052,1.118,6.204,1.322,9.254c1.22-0.102,2.745-0.202,3.66-0.202c1.22,0,2.44,0.101,3.661,0.202
	c-0.712-2.236-0.915-3.05-1.525-5.694l-1.221-5.185L22.776,7.118L22.776,7.118L22.776,7.118z M16.878,8.237l1.221,5.389l1.017,5.083
	c-1.626,0-3.152,0-4.677,0c-1.526,0-2.135,0-3.864,0L16.878,8.237L16.878,8.237L16.878,8.237z"/>
<path fill="#005DAA" d="M37.215,11.083l0.101-2.033c0.408,0,0.61,0,0.915,0c1.323,0,2.949,0.102,5.39,0.508
	c-0.101-0.609-0.101-0.813-0.101-1.321c0-0.51,0-1.018,0.101-1.729c-3.254,0.102-6.405,0.304-9.761,0.304
	c-2.847,0-5.592-0.102-8.439-0.304c0.204,0.609,0.204,0.812,0.204,1.524c0,0.507,0,0.813-0.204,1.627
	c2.135-0.306,4.271-0.407,6.406-0.407c0.102,1.526,0.102,2.949,0.102,4.475v5.593c0,3.761-0.204,7.523-0.407,11.285
	c1.118-0.102,1.524-0.202,2.542-0.202c1.22,0,1.83,0,3.153,0.202c-0.204-3.762-0.204-9.556-0.204-11.185L37.215,11.083
	L37.215,11.083L37.215,11.083z"/>
<path fill="#005DAA" d="M55.517,11.185c0.407-1.728,0.609-2.339,1.118-3.458C54.805,6.508,53.279,6.1,50.839,6.1
	c-4.78,0-7.93,2.849-7.93,7.22c0,7.729,10.37,6.812,10.37,11.896c0,2.033-1.728,3.559-4.168,3.559c-2.644,0-4.474-1.424-4.88-3.864
	h-0.711c-0.204,1.323-0.61,2.95-1.018,4.373c2.034,1.119,3.559,1.524,5.796,1.524c5.694,0,9.252-3.051,9.252-7.83
	c0-7.727-10.472-6.708-10.472-11.793c0-1.831,1.626-3.152,3.762-3.152c1.932,0,3.457,1.119,4.067,3.05h0.61V11.185L55.517,11.185z"
	/>
<path fill="#005DAA" d="M58.872,30.403c1.321-0.103,1.831-0.205,3.254-0.205c2.237,0,4.474,0.205,6.711,0.205
	c7.422,0,13.015-5.085,13.015-12.608c0-3.763-1.525-7.322-4.168-9.254c-2.135-1.523-4.473-2.134-8.948-2.134
	c-2.338,0-4.677,0.204-7.016,0.204c-1.016,0-1.423,0-2.746-0.204c0.204,4.373,0.306,6,0.306,11.184
	C59.177,17.997,59.177,24.199,58.872,30.403L58.872,30.403L58.872,30.403z M74.937,23.793c-1.424,3.152-3.863,4.676-8.032,4.676
	c-1.018,0-1.424,0-2.542-0.101c0-3.051-0.101-6.101-0.101-9.252c0-3.457,0-6.916,0.203-10.474c1.423-0.103,2.136-0.204,2.948-0.204
	c2.034,0,3.559,0.305,4.678,0.915c2.542,1.323,3.966,4.474,3.966,8.745C76.056,20.54,75.547,22.369,74.937,23.793L74.937,23.793
	L74.937,23.793z"/>
<path fill="#005DAA" d="M83.173,25.726c0,1.625-0.101,2.439-0.306,4.677c1.22-0.103,1.628-0.103,2.746-0.103
	c1.221,0,1.729,0,2.949,0.203c-0.102-2.034-0.203-2.746-0.203-3.761l-0.101-3.56c0-1.12,0-2.134,0-3.254
	c0-0.306,0.101-0.407,0.203-0.407s0.102,0,0.407,0.51c2.034,3.456,4.067,7.014,5.998,10.573c1.221-0.102,1.729-0.102,2.847-0.102
	c1.119,0,1.729,0,3.559,0.102l-1.525-2.542l-3.151-4.88c-1.525-2.44-1.831-2.949-2.847-4.475c3.151-0.812,5.592-2.643,5.592-6.201
	c0-4.576-3.661-5.999-7.524-5.999c-1.83,0-3.762,0.203-5.592,0.203c-0.712,0-1.221,0-3.151-0.203
	c0.203,3.659,0.203,5.591,0.203,9.252C83.173,23.081,83.173,25.318,83.173,25.726L83.173,25.726L83.173,25.726z M88.155,17.897
	c0.102-3.154,0-6.306,0.102-9.458c0.61,0,0.812,0,1.117,0c2.95,0,4.373,1.424,4.373,4.373
	C93.748,16.574,91.714,17.897,88.155,17.897L88.155,17.897L88.155,17.897z"/>
<path d="M106.559,11.999h0.813l3.253,7.523h-0.813l-1.118-2.542h-3.457l-1.118,2.542h-0.813L106.559,11.999z M106.965,12.812
	l-1.423,3.458h2.95L106.965,12.812z"/>
<path d="M111.236,16.674c0-0.608,0.103-1.117,0.407-1.525c0.305-0.406,0.61-0.812,1.016-1.016c0.407-0.202,0.814-0.406,1.322-0.406
	c0.305,0,0.711,0,1.017,0.101c0.305,0.104,0.61,0.204,0.813,0.407c0.203,0.204,0.406,0.406,0.509,0.61v-1.118h0.711v5.084
	c0,0.405-0.102,0.812-0.204,1.118c-0.102,0.305-0.305,0.61-0.61,0.813c-0.305,0.203-0.507,0.406-0.915,0.509
	c-0.305,0.1-0.711,0.203-1.016,0.203s-0.61,0-0.916-0.104c-0.304-0.1-0.609-0.202-0.813-0.405c-0.203-0.203-0.508-0.406-0.712-0.61
	c-0.203-0.204-0.305-0.508-0.406-0.813h0.712c0.203,0.407,0.508,0.712,0.813,1.018c0.406,0.203,0.813,0.304,1.22,0.304
	c0.407,0,0.712-0.101,1.017-0.203c0.305-0.101,0.61-0.406,0.711-0.711c0.203-0.306,0.305-0.609,0.305-1.017v-0.61
	c-0.406,0.814-1.118,1.22-2.135,1.22c-0.305,0-0.712-0.102-1.016-0.202c-0.305-0.104-0.61-0.306-0.915-0.611
	c-0.306-0.202-0.508-0.609-0.712-0.914C111.236,17.489,111.236,17.185,111.236,16.674z M111.948,16.574
	c0,0.509,0.102,0.915,0.305,1.221c0.203,0.305,0.406,0.61,0.813,0.813c0.304,0.203,0.711,0.305,1.016,0.305
	c0.305,0,0.61-0.102,1.018-0.204c0.305-0.202,0.61-0.406,0.813-0.712c0.203-0.305,0.305-0.812,0.305-1.322
	c0-0.305-0.102-0.507-0.203-0.812c-0.102-0.202-0.304-0.508-0.508-0.713c-0.204-0.201-0.406-0.304-0.712-0.508
	c-0.305-0.102-0.61-0.202-0.915-0.202c-0.509,0-0.915,0.202-1.22,0.406c-0.305,0.304-0.508,0.509-0.609,0.915
	C111.948,16.167,111.948,16.37,111.948,16.574z"/>
<path d="M118.049,16.674c0-0.404,0.101-0.812,0.305-1.22c0.203-0.306,0.407-0.609,0.61-0.915c0.305-0.202,0.609-0.406,0.915-0.608
	c0.306-0.104,0.712-0.204,1.017-0.204c0.509,0,0.915,0.101,1.423,0.305c0.407,0.203,0.813,0.609,1.118,1.017
	c0.306,0.406,0.408,1.018,0.408,1.626v0.104h-4.983c0,0.407,0.203,0.812,0.407,1.017c0.204,0.305,0.508,0.508,0.813,0.61
	c0.305,0.102,0.61,0.203,0.915,0.203s0.509-0.102,0.813-0.203c0.306-0.103,0.508-0.306,0.711-0.408
	c0.204-0.202,0.408-0.407,0.408-0.609h0.812c-0.202,0.407-0.407,0.815-0.712,1.119c-0.305,0.305-0.609,0.508-1.016,0.61
	c-0.408,0.1-0.713,0.203-1.119,0.203c-0.509,0-0.916-0.104-1.423-0.407c-0.408-0.204-0.813-0.61-1.017-1.016
	C118.15,17.794,118.049,17.285,118.049,16.674z M123.132,16.27c-0.102-0.306-0.202-0.61-0.406-0.916s-0.407-0.509-0.711-0.611
	c-0.306-0.203-0.61-0.203-1.018-0.203c-0.509,0-0.915,0.102-1.221,0.306c-0.304,0.203-0.508,0.509-0.712,0.712
	c-0.203,0.203-0.203,0.509-0.304,0.713H123.132z"/>
<path d="M124.86,19.522v-5.591h0.712v0.812c0.204-0.304,0.407-0.508,0.711-0.711c0.306-0.204,0.611-0.204,1.018-0.204
	c0.305,0,0.61,0.104,0.915,0.204c0.306,0.102,0.509,0.306,0.814,0.508c0.203,0.203,0.405,0.509,0.508,0.814
	c0.102,0.306,0.203,0.712,0.203,1.118v3.151h-0.711v-3.151c0-0.406-0.103-0.712-0.205-1.018c-0.202-0.306-0.405-0.507-0.609-0.609
	c-0.305-0.103-0.508-0.204-0.812-0.204c-0.306,0-0.61,0.102-0.814,0.204c-0.306,0.103-0.509,0.304-0.609,0.609
	c-0.103,0.306-0.203,0.611-0.203,0.915v3.254h-0.916V19.522z"/>
<path d="M130.859,16.674c0-0.404,0.102-0.812,0.204-1.22c0.101-0.406,0.406-0.712,0.609-0.915c0.306-0.202,0.61-0.406,0.915-0.608
	c0.306-0.204,0.712-0.204,1.018-0.204c0.61,0,1.22,0.101,1.729,0.406c0.508,0.306,0.915,0.712,1.119,1.321h-0.813
	c-0.204-0.306-0.51-0.609-0.814-0.813c-0.306-0.202-0.712-0.304-1.22-0.304c-0.406,0-0.813,0.102-1.118,0.304
	c-0.306,0.204-0.61,0.508-0.713,0.813c-0.203,0.306-0.305,0.713-0.305,1.018c0,0.407,0.102,0.713,0.305,1.117
	c0.204,0.308,0.407,0.613,0.813,0.815c0.306,0.203,0.712,0.304,1.119,0.304c0.406,0,0.812-0.101,1.221-0.304
	c0.406-0.202,0.609-0.408,0.812-0.713h0.813c-0.61,1.119-1.524,1.729-2.746,1.729c-0.406,0-0.711-0.101-1.117-0.204
	c-0.407-0.1-0.712-0.304-0.916-0.608c-0.203-0.306-0.508-0.611-0.711-0.916C130.859,17.387,130.859,17.185,130.859,16.674
	C130.859,16.778,130.859,16.778,130.859,16.674L130.859,16.674z"/>
<path d="M139.197,19.32l-2.134-5.389h0.812l1.83,4.474l1.931-4.474h0.814l-3.254,7.523h-0.915L139.197,19.32z"/>
<path d="M146.314,19.522v-4.881H145.4v-0.71h0.812c0-1.323,0.713-1.933,2.136-1.933v0.71c-0.407,0-0.812,0.104-1.018,0.306
	c-0.305,0.205-0.405,0.51-0.405,0.917v0.101h1.423v0.711h-1.423v4.881h-0.611V19.522z"/>
<path d="M148.856,16.674c0-0.404,0.103-0.71,0.204-1.015c0.102-0.306,0.405-0.611,0.609-0.917c0.306-0.304,0.609-0.508,0.915-0.609
	c0.406-0.102,0.814-0.202,1.222-0.202c0.405,0,0.812,0.101,1.219,0.304c0.406,0.204,0.813,0.508,1.119,0.914
	c0.305,0.408,0.406,0.815,0.508,1.323v0.102v0.101c0,0.408-0.102,0.814-0.203,1.12c-0.204,0.408-0.407,0.712-0.61,0.914
	c-0.305,0.306-0.608,0.508-0.914,0.611c-0.306,0.101-0.713,0.202-1.118,0.202c-0.51,0-0.917-0.102-1.424-0.306
	c-0.407-0.202-0.814-0.608-1.119-1.014C148.959,17.794,148.856,17.285,148.856,16.674z M149.568,16.674
	c0,0.408,0.102,0.814,0.305,1.12c0.204,0.305,0.51,0.61,0.813,0.813c0.305,0.203,0.713,0.305,1.12,0.305
	c0.304,0,0.609-0.102,1.015-0.305c0.409-0.203,0.61-0.405,0.814-0.813c0.203-0.407,0.306-0.712,0.306-1.221
	c0-0.304-0.103-0.508-0.204-0.813s-0.306-0.509-0.507-0.712c-0.205-0.203-0.409-0.407-0.713-0.509
	c-0.306-0.101-0.509-0.202-0.814-0.202c-0.406,0-0.712,0.102-1.017,0.304c-0.304,0.204-0.609,0.407-0.813,0.713
	C149.67,15.862,149.568,16.27,149.568,16.674z"/>
<path d="M155.771,19.522v-5.591h0.713v0.812c0.305-0.609,0.812-0.915,1.627-0.915v0.712c-0.204,0-0.407,0-0.509,0.102
	s-0.407,0.204-0.509,0.307c-0.203,0.101-0.305,0.304-0.406,0.507c-0.102,0.205-0.102,0.407-0.102,0.611v3.456H155.771z"/>
<path d="M162.786,19.522v-6.813h-1.728v-0.71h4.169v0.71h-1.729v6.813H162.786z"/>
<path d="M165.228,16.674c0-0.404,0.101-0.71,0.203-1.015c0.102-0.306,0.406-0.611,0.609-0.917c0.305-0.304,0.61-0.508,0.915-0.609
	c0.407-0.102,0.813-0.202,1.221-0.202c0.406,0,0.813,0.101,1.221,0.304c0.406,0.204,0.812,0.508,1.117,0.914
	c0.305,0.408,0.407,0.815,0.509,1.323v0.102v0.101c0,0.408-0.102,0.814-0.204,1.12c-0.202,0.408-0.405,0.712-0.609,0.914
	c-0.306,0.306-0.61,0.508-0.916,0.611c-0.304,0.101-0.71,0.202-1.117,0.202c-0.508,0-0.915-0.102-1.424-0.306
	c-0.407-0.202-0.812-0.608-1.118-1.014C165.328,17.794,165.228,17.285,165.228,16.674z M165.939,16.674
	c0,0.408,0.101,0.814,0.305,1.12c0.202,0.305,0.508,0.61,0.812,0.813c0.306,0.203,0.712,0.305,1.119,0.305
	c0.305,0,0.61-0.102,1.017-0.305s0.61-0.405,0.813-0.813c0.203-0.407,0.306-0.712,0.306-1.221c0-0.304-0.103-0.508-0.203-0.813
	c-0.103-0.306-0.306-0.509-0.51-0.712c-0.202-0.203-0.406-0.407-0.711-0.509c-0.305-0.101-0.509-0.202-0.813-0.202
	c-0.406,0-0.712,0.102-1.018,0.304c-0.305,0.204-0.61,0.407-0.812,0.713C166.04,15.862,165.939,16.27,165.939,16.674z"/>
<path d="M171.531,19.522l1.932-2.848l-1.932-2.743h0.915l1.423,2.135l1.525-2.135h0.915l-1.932,2.743l1.932,2.848h-0.915
	l-1.525-2.237l-1.423,2.237H171.531z"/>
<path d="M176.921,13.32v-1.321h0.711v1.321H176.921z M176.921,19.522v-5.591h0.711v5.591H176.921z"/>
<path d="M178.751,16.674c0-0.404,0.101-0.812,0.202-1.22c0.103-0.406,0.407-0.712,0.61-0.915c0.305-0.202,0.61-0.406,0.915-0.608
	c0.306-0.204,0.712-0.204,1.019-0.204c0.609,0,1.219,0.101,1.727,0.406c0.509,0.306,0.916,0.712,1.118,1.321h-0.813
	c-0.202-0.306-0.507-0.609-0.812-0.813c-0.305-0.202-0.712-0.304-1.219-0.304c-0.408,0-0.815,0.102-1.12,0.304
	c-0.306,0.204-0.61,0.508-0.712,0.813c-0.203,0.306-0.305,0.713-0.305,1.018c0,0.407,0.102,0.713,0.305,1.117
	c0.203,0.308,0.406,0.613,0.813,0.815c0.306,0.203,0.712,0.304,1.119,0.304c0.406,0,0.813-0.101,1.22-0.304
	c0.406-0.202,0.609-0.408,0.813-0.713h0.814c-0.611,1.119-1.526,1.729-2.746,1.729c-0.407,0-0.712-0.101-1.119-0.204
	c-0.406-0.1-0.712-0.304-0.915-0.608c-0.203-0.306-0.509-0.611-0.712-0.916C178.751,17.387,178.751,17.185,178.751,16.674
	C178.751,16.778,178.751,16.778,178.751,16.674L178.751,16.674z"/>
<path d="M188.815,17.387c0,0.305,0.103,0.609,0.204,0.815c0.102,0.202,0.306,0.405,0.609,0.506c0.306,0.103,0.51,0.204,0.712,0.204
	c0.203,0,0.509-0.102,0.713-0.204c0.203-0.101,0.406-0.304,0.508-0.506c0.102-0.206,0.202-0.511,0.202-0.714
	c0-0.304-0.101-0.609-0.202-0.814c-0.102-0.202-0.407-0.404-0.813-0.608c-0.407-0.102-0.813-0.306-1.22-0.406
	c-0.407-0.103-0.713-0.306-1.018-0.611c-0.203-0.306-0.405-0.609-0.405-1.117v-0.104v-0.101c0-0.407,0.101-0.713,0.304-0.915
	c0.204-0.305,0.406-0.508,0.814-0.611c0.305-0.102,0.61-0.203,1.017-0.203s0.813,0.101,1.117,0.305
	c0.306,0.204,0.611,0.405,0.714,0.71c0.203,0.306,0.304,0.611,0.304,0.915v0.103h-0.712c-0.102-0.406-0.203-0.712-0.406-0.915
	c-0.203-0.204-0.509-0.305-0.916-0.408c-0.202,0-0.406,0.104-0.61,0.204c-0.202,0.102-0.405,0.204-0.507,0.407
	c-0.103,0.204-0.204,0.407-0.204,0.611c0,0.508,0.102,0.812,0.407,1.017c0.202,0.201,0.608,0.304,1.22,0.507
	c0.508,0.205,1.017,0.306,1.322,0.611c0.306,0.304,0.608,0.608,0.712,1.119c0,0.202,0,0.404,0,0.507c0,0.305,0,0.511-0.104,0.814
	c-0.101,0.305-0.202,0.508-0.405,0.71c-0.203,0.204-0.408,0.407-0.712,0.51c-0.306,0.102-0.61,0.203-1.018,0.203
	c-0.304,0-0.712-0.102-1.016-0.203c-0.306-0.103-0.509-0.306-0.712-0.51c-0.203-0.202-0.407-0.405-0.509-0.71
	c-0.101-0.304-0.202-0.51-0.202-0.814h0.812V17.387z"/>
<path d="M193.392,17.285v-3.354h0.712v3.254c0,0.507,0.203,1.018,0.508,1.321c0.306,0.305,0.712,0.508,1.222,0.508
	c0.304,0,0.609-0.102,0.812-0.203c0.203-0.103,0.509-0.406,0.609-0.712c0.203-0.305,0.203-0.61,0.203-1.017v-3.051h0.713v5.592
	h-0.713v-0.915c-0.203,0.306-0.406,0.611-0.71,0.712c-0.306,0.203-0.713,0.306-1.119,0.306s-0.813-0.103-1.119-0.306
	c-0.406-0.204-0.71-0.406-0.915-0.812C193.595,18.203,193.392,17.794,193.392,17.285z"/>
<path d="M199.595,19.522v-7.523h0.812v3.05c0.205-0.306,0.51-0.609,0.814-0.813c0.408-0.203,0.814-0.304,1.22-0.407
	c0.611,0,1.119,0.104,1.526,0.407c0.405,0.305,0.813,0.61,1.017,1.017c0.304,0.408,0.406,0.814,0.406,1.322
	c0,0.509-0.103,1.016-0.306,1.525c-0.201,0.509-0.507,0.813-1.018,1.117c-0.404,0.306-0.914,0.407-1.523,0.51
	c-0.306,0-0.712,0-1.018-0.103c-0.305-0.102-0.609-0.203-0.813-0.407c-0.202-0.202-0.406-0.405-0.609-0.608v1.016h-0.508V19.522z
	 M200.306,16.574c0,0.306,0,0.611,0.101,0.915c0.104,0.306,0.205,0.508,0.408,0.714c0.203,0.202,0.406,0.405,0.711,0.506
	c0.306,0.103,0.611,0.204,1.018,0.204s0.711-0.102,1.017-0.305c0.305-0.203,0.61-0.509,0.812-0.813
	c0.205-0.306,0.306-0.712,0.306-1.221c0-0.304-0.101-0.508-0.202-0.813c-0.104-0.306-0.306-0.509-0.509-0.712
	s-0.407-0.306-0.713-0.407c-0.305-0.102-0.507-0.202-0.813-0.202c-0.304,0-0.609,0.101-0.915,0.202
	c-0.305,0.102-0.609,0.407-0.914,0.713C200.406,15.76,200.306,16.167,200.306,16.574z"/>
<path d="M206.306,15.557c0-0.103,0-0.103,0-0.203c0-0.306,0.101-0.611,0.201-0.814c0.205-0.202,0.407-0.406,0.611-0.508
	c0.203-0.101,0.51-0.204,0.713-0.204c0.202,0,0.404,0,0.507,0.104c0.205,0.101,0.306,0.202,0.509,0.304
	c0.202,0.103,0.306,0.305,0.406,0.508c0.102,0.205,0.102,0.406,0.205,0.611h-0.712c0-0.306-0.103-0.509-0.306-0.611
	c-0.205-0.102-0.306-0.203-0.609-0.203c-0.203,0-0.407,0.102-0.51,0.203c-0.203,0.103-0.304,0.306-0.304,0.611c0,0,0,0,0,0.101
	c0,0.103,0,0.103,0,0.103c0,0.203,0.202,0.305,0.508,0.509s0.609,0.204,0.915,0.304c0.306,0.103,0.509,0.305,0.812,0.51
	c0.205,0.203,0.306,0.508,0.306,0.915c0,0.103,0,0.202,0,0.305c0,0.306-0.204,0.609-0.306,0.813
	c-0.204,0.204-0.406,0.407-0.609,0.508c-0.203,0.102-0.509,0.102-0.712,0.102c-0.304,0-0.61-0.102-0.914-0.202
	c-0.306-0.203-0.511-0.407-0.611-0.611c-0.101-0.304-0.203-0.609-0.203-0.914h0.711c0,0.305,0.104,0.61,0.306,0.813
	c0.204,0.203,0.408,0.305,0.712,0.305s0.509-0.102,0.712-0.305s0.306-0.405,0.306-0.611c0-0.202-0.103-0.407-0.203-0.609
	c-0.103-0.202-0.408-0.305-0.713-0.407c-0.405-0.101-0.813-0.306-1.119-0.508C206.507,16.27,206.306,15.964,206.306,15.557z"/>
<path d="M211.186,19.522v-4.881h-1.22v-0.71h1.22v-1.933h0.71v1.933h1.324v0.71h-1.324v4.881H211.186z"/>
<path d="M213.727,16.778c0-0.408,0.103-0.813,0.306-1.221c0.203-0.408,0.407-0.712,0.711-0.916c0.306-0.202,0.611-0.406,0.917-0.609
	c0.304-0.101,0.712-0.204,1.118-0.204c1.017,0,1.729,0.407,2.236,1.221v-1.117h0.712v5.591h-0.712v-1.016
	c-0.204,0.406-0.508,0.71-0.914,0.914c-0.408,0.203-0.814,0.306-1.322,0.306c-0.406,0-0.712-0.103-1.118-0.204
	c-0.306-0.102-0.713-0.306-0.917-0.609c-0.304-0.204-0.508-0.508-0.608-0.916C213.829,17.589,213.727,17.185,213.727,16.778z
	 M214.541,16.574c0,0.406,0.103,0.813,0.306,1.221c0.202,0.305,0.508,0.61,0.813,0.813c0.304,0.203,0.712,0.305,1.016,0.305
	c0.407,0,0.815-0.102,1.119-0.305c0.306-0.203,0.61-0.509,0.813-0.813c0.202-0.306,0.304-0.712,0.304-1.017
	c0-0.408-0.102-0.712-0.304-1.118c-0.203-0.408-0.407-0.611-0.813-0.814c-0.304-0.204-0.712-0.306-1.119-0.306
	c-0.406,0-0.813,0.102-1.117,0.306c-0.306,0.203-0.611,0.509-0.815,0.814C214.541,15.964,214.541,16.27,214.541,16.574z"/>
<path d="M220.947,19.522v-5.591h0.711v0.812c0.203-0.304,0.406-0.508,0.712-0.711c0.305-0.204,0.608-0.204,1.017-0.204
	c0.305,0,0.61,0.104,0.915,0.204c0.306,0.102,0.508,0.306,0.813,0.508c0.205,0.203,0.406,0.509,0.509,0.814
	c0.101,0.306,0.202,0.712,0.202,1.118v3.151h-0.711v-3.151c0-0.406-0.101-0.712-0.203-1.018c-0.203-0.306-0.405-0.507-0.61-0.609
	c-0.305-0.103-0.51-0.204-0.812-0.204c-0.306,0-0.611,0.102-0.814,0.204c-0.305,0.103-0.508,0.304-0.61,0.609
	c-0.102,0.306-0.203,0.611-0.203,0.915v3.254h-0.914V19.522z"/>
<path d="M226.844,16.674c0-0.404,0.102-0.812,0.205-1.22c0.101-0.406,0.406-0.712,0.608-0.915c0.306-0.202,0.611-0.406,0.915-0.608
	c0.306-0.204,0.712-0.204,1.016-0.204c0.612,0,1.222,0.101,1.73,0.406c0.508,0.306,0.914,0.712,1.119,1.321h-0.611
	c-0.203-0.306-0.508-0.609-0.813-0.813c-0.306-0.202-0.711-0.304-1.221-0.304c-0.406,0-0.813,0.102-1.119,0.304
	c-0.304,0.204-0.609,0.508-0.71,0.813c-0.204,0.306-0.306,0.713-0.306,1.018c0,0.407,0.102,0.713,0.306,1.117
	c0.204,0.308,0.406,0.613,0.812,0.815c0.306,0.203,0.711,0.304,1.12,0.304c0.406,0,0.812-0.101,1.22-0.304
	c0.405-0.202,0.609-0.408,0.813-0.713h0.812c-0.608,1.119-1.524,1.729-2.744,1.729c-0.408,0-0.712-0.101-1.118-0.204
	c-0.407-0.1-0.711-0.304-0.915-0.608c-0.204-0.306-0.508-0.611-0.713-0.916C227.049,17.387,226.844,17.185,226.844,16.674
	C226.844,16.778,226.844,16.778,226.844,16.674L226.844,16.674z"/>
<path d="M233.452,16.674c0-0.404,0.103-0.812,0.306-1.22c0.204-0.306,0.406-0.609,0.609-0.915c0.306-0.202,0.611-0.406,0.917-0.608
	c0.303-0.104,0.712-0.204,1.016-0.204c0.508,0,0.915,0.101,1.424,0.305c0.406,0.203,0.812,0.609,1.119,1.017
	c0.304,0.406,0.405,1.018,0.405,1.626v0.104h-4.981c0,0.407,0.202,0.812,0.406,1.017c0.204,0.305,0.509,0.508,0.813,0.61
	c0.306,0.102,0.611,0.203,0.915,0.203c0.305,0,0.509-0.102,0.813-0.203c0.306-0.103,0.509-0.306,0.712-0.408
	c0.203-0.202,0.406-0.407,0.406-0.609h0.813c-0.202,0.407-0.406,0.815-0.712,1.119c-0.305,0.305-0.608,0.508-1.016,0.61
	c-0.407,0.1-0.713,0.203-1.119,0.203c-0.508,0-0.915-0.104-1.423-0.407c-0.51-0.305-0.813-0.61-1.018-1.016
	C233.555,17.794,233.452,17.285,233.452,16.674z M238.536,16.27c-0.102-0.306-0.203-0.61-0.406-0.916s-0.406-0.509-0.711-0.611
	c-0.306-0.203-0.611-0.203-1.018-0.203c-0.509,0-0.915,0.102-1.22,0.306c-0.305,0.203-0.509,0.509-0.713,0.712
	c-0.202,0.203-0.202,0.509-0.305,0.713H238.536z"/>
<path d="M240.062,15.557c0-0.103,0-0.103,0-0.203c0-0.306,0.103-0.611,0.205-0.814c0.202-0.202,0.406-0.406,0.609-0.508
	c0.203-0.101,0.508-0.204,0.711-0.204c0.205,0,0.407,0,0.509,0.104c0.202,0.101,0.306,0.202,0.508,0.304
	c0.204,0.103,0.306,0.305,0.408,0.508c0.101,0.205,0.101,0.406,0.203,0.611h-0.713c0-0.306-0.101-0.509-0.306-0.611
	c-0.202-0.102-0.304-0.203-0.609-0.203c-0.203,0-0.406,0.102-0.508,0.203c-0.203,0.103-0.306,0.306-0.306,0.611c0,0,0,0,0,0.101
	c0,0.103,0,0.103,0,0.103c0,0.203,0.204,0.305,0.508,0.509c0.306,0.204,0.611,0.204,0.915,0.304c0.306,0.103,0.51,0.305,0.815,0.51
	c0.203,0.203,0.304,0.508,0.304,0.915c0,0.103,0,0.202,0,0.305c0,0.306-0.203,0.609-0.304,0.813
	c-0.204,0.204-0.408,0.407-0.61,0.508c-0.205,0.102-0.509,0.102-0.713,0.102c-0.305,0-0.609-0.102-0.915-0.202
	c-0.305-0.203-0.507-0.407-0.609-0.611c-0.103-0.304-0.203-0.609-0.203-0.914h0.712c0,0.305,0.101,0.61,0.305,0.813
	c0.203,0.203,0.406,0.305,0.711,0.305c0.306,0,0.508-0.102,0.713-0.305c0.202-0.203,0.305-0.405,0.305-0.611
	c0-0.202-0.103-0.407-0.204-0.609c-0.101-0.202-0.406-0.305-0.71-0.407c-0.408-0.101-0.814-0.306-1.119-0.508
	C240.267,16.27,240.062,15.964,240.062,15.557z"/>
<path d="M103.61,27.96c0-0.405,0.102-0.812,0.305-1.218c0.204-0.408,0.407-0.713,0.712-0.917c0.305-0.304,0.61-0.405,0.915-0.609
	c0.306-0.103,0.712-0.202,1.119-0.202c1.017,0,1.729,0.406,2.237,1.22v-1.12h0.711v5.595h-0.813v-1.018
	c-0.203,0.406-0.509,0.712-0.915,0.914c-0.408,0.203-0.813,0.306-1.322,0.306c-0.407,0-0.712-0.103-1.119-0.202
	c-0.305-0.104-0.712-0.306-0.916-0.611c-0.304-0.205-0.508-0.509-0.61-0.917C103.712,28.775,103.61,28.369,103.61,27.96z
	 M104.424,27.757c0,0.408,0.101,0.815,0.304,1.221c0.203,0.306,0.508,0.61,0.813,0.815c0.306,0.202,0.712,0.304,1.018,0.304
	c0.406,0,0.813-0.102,1.118-0.304c0.306-0.205,0.61-0.51,0.814-0.815c0.203-0.306,0.305-0.712,0.305-1.018
	c0-0.405-0.102-0.711-0.305-1.117c-0.204-0.306-0.408-0.609-0.814-0.813c-0.305-0.204-0.712-0.304-1.118-0.304
	c-0.407,0-0.813,0.1-1.119,0.304c-0.305,0.204-0.61,0.508-0.813,0.813C104.525,27.149,104.424,27.455,104.424,27.757z"/>
<path d="M110.83,30.708v-5.595h0.711v0.814c0.204-0.306,0.407-0.508,0.712-0.712c0.305-0.202,0.61-0.202,1.016-0.202
	c0.306,0,0.61,0.1,0.916,0.202c0.305,0.102,0.508,0.306,0.813,0.51c0.305,0.202,0.407,0.508,0.508,0.812
	c0.102,0.306,0.204,0.712,0.204,1.119v3.151h-0.712v-3.151c0-0.407-0.101-0.711-0.204-1.017c-0.203-0.306-0.407-0.509-0.61-0.61
	c-0.305-0.102-0.508-0.204-0.814-0.204c-0.304,0-0.609,0.103-0.813,0.204c-0.203,0.102-0.508,0.305-0.61,0.61
	c-0.203,0.306-0.203,0.609-0.203,0.915v3.253h-0.915V30.708z"/>
<path d="M116.828,27.657c0-0.508,0.204-1.017,0.508-1.423c0.305-0.408,0.61-0.712,1.017-0.916c0.407-0.204,0.814-0.304,1.322-0.304
	s0.915,0.1,1.321,0.304c0.407,0.204,0.712,0.508,1.018,0.813v-2.948h0.711v7.525h-0.711v-1.018c-0.306,0.406-0.61,0.712-0.916,0.914
	c-0.406,0.203-0.814,0.306-1.322,0.306c-0.406,0-0.915-0.202-1.322-0.407c-0.406-0.203-0.813-0.611-1.118-1.016
	c-0.305-0.407-0.406-0.915-0.406-1.527C116.828,27.757,116.828,27.657,116.828,27.657z M117.54,27.555c0,0.102,0,0.202,0,0.306
	c0,0.405,0.101,0.712,0.305,1.018c0.204,0.302,0.406,0.609,0.813,0.812c0.305,0.201,0.711,0.305,1.118,0.305
	c0.408,0,0.712-0.104,1.119-0.305c0.305-0.203,0.61-0.407,0.813-0.812c0.202-0.409,0.306-0.713,0.306-1.222
	c0-0.202-0.104-0.508-0.204-0.813c-0.204-0.306-0.406-0.609-0.712-0.813c-0.305-0.204-0.712-0.407-1.22-0.407
	c-0.306,0-0.61,0.104-0.915,0.203c-0.305,0.103-0.61,0.306-0.813,0.611C117.845,26.843,117.641,27.149,117.54,27.555z"/>
<path d="M126.895,30.708v-7.525h2.033c0.712,0,1.321,0.101,1.831,0.305c0.508,0.203,1.016,0.509,1.321,0.814
	c0.304,0.305,0.61,0.712,0.813,1.22s0.306,0.915,0.306,1.523c0,0.611-0.103,1.12-0.306,1.527c-0.203,0.508-0.51,0.812-0.915,1.221
	c-0.407,0.304-0.814,0.609-1.22,0.71c-0.51,0.205-0.915,0.205-1.424,0.205H126.895L126.895,30.708z M127.708,23.793v6.202h1.117
	c1.019,0,1.934-0.202,2.544-0.712c0.609-0.509,1.015-1.221,1.118-2.238c0-0.405-0.104-0.812-0.204-1.22
	c-0.102-0.405-0.406-0.712-0.61-1.017c-0.304-0.306-0.712-0.507-1.118-0.71c-0.406-0.204-1.017-0.306-1.524-0.306H127.708
	L127.708,23.793z"/>
<path d="M134.418,24.503v-1.32h0.712v1.32H134.418z M134.418,30.708v-5.595h0.712v5.595H134.418z"/>
<path d="M136.146,26.743c0-0.103,0-0.103,0-0.205c0-0.304,0.103-0.609,0.204-0.812c0.103-0.204,0.406-0.408,0.609-0.51
	c0.204-0.103,0.509-0.202,0.713-0.202c0.203,0,0.405,0,0.508,0.1c0.203,0.103,0.305,0.204,0.508,0.307
	c0.205,0.102,0.305,0.306,0.407,0.508c0.102,0.203,0.102,0.406,0.203,0.609h-0.711c0-0.304-0.103-0.508-0.306-0.609
	c-0.204-0.103-0.305-0.202-0.609-0.202c-0.204,0-0.407,0.1-0.509,0.202c-0.204,0.102-0.305,0.306-0.305,0.609c0,0,0,0,0,0.103
	s0,0.103,0,0.103c0,0.203,0.204,0.303,0.508,0.507c0.306,0.205,0.61,0.205,0.915,0.306c0.306,0.102,0.508,0.306,0.813,0.508
	c0.203,0.203,0.306,0.51,0.306,0.915c0,0.103,0,0.202,0,0.306c0,0.305-0.204,0.608-0.306,0.813c-0.203,0.203-0.407,0.406-0.61,0.508
	c-0.203,0.104-0.508,0.104-0.712,0.104c-0.305,0-0.609-0.104-0.914-0.205c-0.306-0.203-0.509-0.406-0.61-0.611
	c-0.103-0.304-0.203-0.608-0.203-0.914h0.711c0,0.306,0.103,0.61,0.307,0.815c0.202,0.202,0.405,0.304,0.71,0.304
	s0.509-0.102,0.712-0.304c0.203-0.205,0.305-0.408,0.305-0.613c0-0.202-0.102-0.405-0.202-0.607
	c-0.103-0.204-0.407-0.307-0.712-0.407c-0.407-0.103-0.812-0.305-1.119-0.509C136.351,27.455,136.249,27.149,136.146,26.743z"/>
<path d="M140.112,27.861c0-0.406,0.102-0.815,0.306-1.221c0.203-0.306,0.406-0.61,0.61-0.914c0.304-0.204,0.608-0.408,0.914-0.612
	c0.306-0.203,0.712-0.203,1.017-0.203c0.509,0,0.915,0.104,1.424,0.306c0.407,0.204,0.813,0.609,1.119,1.018
	c0.305,0.406,0.405,1.016,0.405,1.627v0.1h-4.981c0,0.408,0.204,0.814,0.406,1.018c0.204,0.306,0.509,0.51,0.814,0.61
	c0.305,0.103,0.609,0.205,0.914,0.205c0.306,0,0.51-0.103,0.813-0.205c0.305-0.101,0.509-0.305,0.713-0.408
	c0.203-0.202,0.406-0.405,0.406-0.607h0.813c-0.204,0.405-0.406,0.812-0.712,1.118c-0.305,0.305-0.61,0.507-1.017,0.609
	c-0.407,0.103-0.712,0.203-1.119,0.203c-0.508,0-0.915-0.101-1.423-0.406c-0.508-0.304-0.813-0.609-1.017-1.017
	C140.316,28.978,140.112,28.469,140.112,27.861z M145.196,27.455c-0.102-0.306-0.203-0.611-0.406-0.917
	c-0.203-0.304-0.407-0.508-0.712-0.609c-0.306-0.202-0.61-0.202-1.018-0.202c-0.507,0-0.914,0.1-1.22,0.304
	c-0.305,0.204-0.509,0.508-0.711,0.713c-0.204,0.203-0.204,0.507-0.306,0.712H145.196z"/>
<path d="M146.722,27.96c0-0.405,0.102-0.812,0.305-1.218c0.204-0.408,0.407-0.713,0.712-0.917c0.305-0.203,0.61-0.405,0.915-0.609
	c0.306-0.103,0.712-0.202,1.119-0.202c1.017,0,1.729,0.406,2.236,1.22v-1.12h0.712v5.595h-0.712v-1.018
	c-0.202,0.406-0.508,0.712-0.914,0.914c-0.408,0.203-0.815,0.306-1.322,0.306c-0.407,0-0.712-0.103-1.119-0.202
	c-0.305-0.104-0.712-0.306-0.915-0.611c-0.305-0.205-0.508-0.509-0.61-0.917C146.823,28.775,146.722,28.369,146.722,27.96z
	 M147.536,27.757c0,0.408,0.101,0.815,0.305,1.221c0.202,0.306,0.508,0.61,0.812,0.815c0.306,0.202,0.712,0.304,1.017,0.304
	c0.407,0,0.813-0.102,1.119-0.304c0.306-0.205,0.61-0.51,0.812-0.815c0.205-0.306,0.306-0.712,0.306-1.018
	c0-0.405-0.101-0.711-0.306-1.117c-0.202-0.306-0.405-0.609-0.812-0.813c-0.306-0.204-0.712-0.304-1.119-0.304
	c-0.406,0-0.813,0.1-1.118,0.304s-0.61,0.508-0.813,0.813C147.637,27.149,147.536,27.455,147.536,27.757z"/>
<path d="M153.636,26.743c0-0.103,0-0.103,0-0.205c0-0.304,0.102-0.609,0.203-0.812c0.103-0.204,0.406-0.408,0.61-0.51
	c0.203-0.103,0.508-0.202,0.711-0.202c0.205,0,0.407,0,0.509,0.1c0.203,0.103,0.305,0.204,0.509,0.307
	c0.202,0.102,0.306,0.306,0.407,0.508c0.102,0.203,0.102,0.406,0.203,0.609h-0.712c0-0.304-0.103-0.508-0.306-0.609
	c-0.203-0.103-0.305-0.202-0.61-0.202c-0.203,0-0.405,0.1-0.508,0.202c-0.203,0.102-0.305,0.306-0.305,0.609c0,0,0,0,0,0.103
	s0,0.103,0,0.103c0,0.203,0.203,0.303,0.508,0.507c0.305,0.205,0.61,0.205,0.915,0.306c0.306,0.102,0.509,0.306,0.813,0.508
	c0.204,0.203,0.306,0.51,0.306,0.915c0,0.103,0,0.202,0,0.306c0,0.305-0.203,0.608-0.306,0.813c-0.204,0.203-0.406,0.406-0.61,0.508
	c-0.203,0.104-0.508,0.104-0.711,0.104c-0.306,0-0.61-0.104-0.915-0.205c-0.306-0.203-0.509-0.406-0.61-0.611
	c-0.102-0.304-0.203-0.608-0.203-0.914h0.711c0,0.306,0.103,0.61,0.306,0.815c0.204,0.202,0.406,0.304,0.712,0.304
	c0.305,0,0.508-0.102,0.711-0.304c0.204-0.205,0.306-0.408,0.306-0.613c0-0.202-0.102-0.405-0.203-0.607
	c-0.103-0.204-0.407-0.307-0.711-0.407c-0.408-0.103-0.814-0.305-1.12-0.509C153.941,27.455,153.737,27.149,153.636,26.743z"/>
<path d="M157.703,27.861c0-0.406,0.101-0.815,0.305-1.221c0.204-0.306,0.406-0.61,0.61-0.914c0.305-0.204,0.609-0.408,0.915-0.612
	c0.305-0.203,0.712-0.203,1.017-0.203c0.509,0,0.915,0.104,1.424,0.306c0.406,0.204,0.812,0.609,1.118,1.018
	c0.305,0.406,0.406,1.016,0.406,1.627v0.1h-4.982c0,0.408,0.204,0.814,0.407,1.018c0.203,0.306,0.509,0.51,0.813,0.61
	c0.305,0.103,0.609,0.205,0.915,0.205c0.305,0,0.509-0.103,0.813-0.205c0.305-0.101,0.509-0.305,0.712-0.408
	c0.203-0.202,0.407-0.405,0.407-0.607h0.812c-0.203,0.405-0.407,0.812-0.712,1.118c-0.305,0.305-0.61,0.507-1.017,0.609
	c-0.407,0.103-0.712,0.203-1.118,0.203c-0.509,0-0.915-0.101-1.424-0.406c-0.508-0.304-0.812-0.609-1.016-1.017
	C157.804,28.978,157.703,28.469,157.703,27.861z M162.685,27.455c-0.101-0.306-0.203-0.611-0.405-0.917
	c-0.205-0.304-0.407-0.508-0.713-0.609c-0.306-0.202-0.61-0.202-1.017-0.202c-0.509,0-0.915,0.1-1.22,0.304
	s-0.509,0.508-0.712,0.713c-0.204,0.203-0.204,0.507-0.305,0.712H162.685z"/>
<path d="M167.464,30.708v-7.525h2.034c0.61,0,1.118,0.101,1.524,0.203c0.407,0.102,0.712,0.305,0.915,0.61
	c0.203,0.202,0.407,0.507,0.407,0.712c0,0.202,0.102,0.508,0.204,0.813c0,0.406-0.103,0.812-0.306,1.221
	c-0.204,0.406-0.406,0.608-0.814,0.914c-0.406,0.304-0.711,0.304-1.117,0.304l2.135,2.848h-0.915l-2.542-3.457h0.609
	c0.407,0,0.814-0.102,1.22-0.202c0.306-0.104,0.611-0.306,0.814-0.611c0.204-0.304,0.305-0.508,0.305-0.915
	c0-0.406-0.101-0.712-0.305-0.914c-0.203-0.306-0.406-0.51-0.814-0.609c-0.405-0.103-0.609-0.204-1.016-0.204h-1.524v6.813H167.464z
	"/>
<path d="M173.259,27.861c0-0.406,0.103-0.815,0.306-1.221c0.204-0.306,0.406-0.61,0.61-0.914c0.305-0.204,0.61-0.408,0.915-0.612
	c0.305-0.203,0.713-0.203,1.017-0.203c0.509,0,0.915,0.104,1.424,0.306c0.407,0.204,0.813,0.609,1.119,1.018
	c0.304,0.406,0.406,1.016,0.406,1.627v0.1h-4.982c0,0.408,0.202,0.814,0.406,1.018c0.203,0.306,0.508,0.51,0.813,0.61
	c0.305,0.103,0.61,0.205,0.915,0.205s0.509-0.103,0.813-0.205c0.306-0.101,0.509-0.305,0.712-0.408
	c0.204-0.202,0.407-0.405,0.407-0.607h0.812c-0.202,0.405-0.407,0.812-0.712,1.118c-0.304,0.305-0.609,0.507-1.016,0.609
	c-0.408,0.103-0.713,0.203-1.119,0.203c-0.509,0-0.914-0.101-1.424-0.406c-0.508-0.304-0.813-0.609-1.017-1.017
	C173.361,28.978,173.259,28.469,173.259,27.861z M178.344,27.455c-0.103-0.306-0.203-0.611-0.406-0.917
	c-0.204-0.304-0.407-0.508-0.712-0.609c-0.305-0.202-0.61-0.202-1.018-0.202c-0.509,0-0.915,0.1-1.221,0.304
	c-0.305,0.204-0.508,0.508-0.711,0.713c-0.203,0.203-0.203,0.507-0.306,0.712H178.344z"/>
<path d="M179.868,27.861c0-0.611,0.102-1.118,0.407-1.526c0.305-0.406,0.61-0.812,1.017-1.017c0.407-0.204,0.814-0.407,1.322-0.407
	c0.305,0,0.712,0,1.017,0.104c0.305,0.1,0.61,0.202,0.814,0.406c0.201,0.202,0.406,0.405,0.507,0.609v-1.119h0.711v5.085
	c0,0.407-0.101,0.812-0.202,1.118c-0.102,0.305-0.304,0.611-0.609,0.814s-0.51,0.405-0.916,0.508
	c-0.305,0.102-0.712,0.204-1.017,0.204s-0.609,0-0.915-0.103c-0.305-0.102-0.61-0.204-0.813-0.406
	c-0.203-0.203-0.509-0.406-0.712-0.611c-0.203-0.203-0.305-0.509-0.407-0.812h0.713c0.203,0.405,0.508,0.71,0.813,1.017
	c0.406,0.203,0.813,0.303,1.22,0.303s0.711-0.1,1.017-0.202c0.306-0.101,0.611-0.407,0.712-0.712
	c0.203-0.306,0.306-0.61,0.306-1.017v-0.609c-0.406,0.812-1.119,1.221-2.136,1.221c-0.305,0-0.712-0.104-1.017-0.205
	c-0.306-0.101-0.61-0.306-0.915-0.611c-0.306-0.201-0.509-0.608-0.713-0.914C179.868,28.672,179.868,28.369,179.868,27.861z
	 M180.58,27.757c0,0.509,0.102,0.915,0.306,1.221c0.203,0.306,0.406,0.61,0.813,0.815c0.305,0.202,0.712,0.304,1.118,0.304
	c0.305,0,0.609-0.102,1.017-0.205c0.306-0.201,0.611-0.404,0.812-0.712c0.205-0.302,0.306-0.812,0.306-1.319
	c0-0.306-0.101-0.51-0.203-0.815c-0.103-0.303-0.304-0.508-0.508-0.711s-0.407-0.305-0.713-0.509
	c-0.305-0.1-0.609-0.203-0.914-0.203c-0.508,0-0.915,0.203-1.221,0.407c-0.305,0.305-0.508,0.508-0.609,0.916
	C180.682,27.351,180.58,27.555,180.58,27.757z"/>
<path d="M186.886,24.503v-1.32h0.709v1.32H186.886z M186.886,30.708v-5.595h0.709v5.595H186.886z"/>
<path d="M188.715,26.743c0-0.103,0-0.103,0-0.205c0-0.304,0.101-0.609,0.203-0.812c0.102-0.204,0.407-0.408,0.61-0.51
	c0.202-0.103,0.507-0.202,0.712-0.202c0.202,0,0.406,0,0.508,0.1c0.204,0.103,0.306,0.204,0.509,0.307
	c0.203,0.102,0.305,0.306,0.406,0.508c0.101,0.203,0.101,0.406,0.203,0.609h-0.712c0-0.304-0.101-0.508-0.305-0.609
	c-0.203-0.103-0.306-0.202-0.609-0.202c-0.205,0-0.406,0.1-0.51,0.202c-0.202,0.102-0.304,0.306-0.304,0.609c0,0,0,0,0,0.103
	s0,0.103,0,0.103c0,0.203,0.202,0.303,0.508,0.507c0.306,0.205,0.609,0.205,0.915,0.306c0.305,0.102,0.508,0.306,0.813,0.508
	c0.203,0.203,0.306,0.51,0.306,0.915c0,0.103,0,0.202,0,0.306c0,0.305-0.205,0.608-0.306,0.813
	c-0.203,0.203-0.406,0.406-0.609,0.508c-0.204,0.104-0.51,0.104-0.713,0.104c-0.306,0-0.61-0.104-0.914-0.205
	c-0.306-0.203-0.509-0.406-0.611-0.611c-0.101-0.304-0.202-0.608-0.202-0.914h0.712c0,0.306,0.102,0.61,0.304,0.815
	c0.205,0.202,0.406,0.304,0.712,0.304s0.509-0.102,0.713-0.304c0.203-0.205,0.304-0.408,0.304-0.613
	c0-0.202-0.101-0.405-0.203-0.607c-0.101-0.204-0.406-0.307-0.712-0.407c-0.407-0.103-0.813-0.305-1.117-0.509
	C188.918,27.455,188.715,27.149,188.715,26.743z"/>
<path d="M193.595,30.708v-4.883h-1.22v-0.712h1.22v-1.931h0.712v1.931h1.322v0.712h-1.322v4.883H193.595z"/>
<path d="M196.341,30.708v-5.595h0.711v0.814c0.306-0.61,0.814-0.914,1.628-0.914v0.712c-0.204,0-0.406,0-0.509,0.1
	c-0.102,0.103-0.407,0.204-0.508,0.306c-0.104,0.103-0.306,0.306-0.408,0.509c-0.101,0.203-0.101,0.405-0.101,0.609v3.459H196.341z"
	/>
<path d="M201.018,30.503l-2.135-5.39h0.812l1.83,4.475l1.933-4.475h0.813l-3.254,7.526h-0.813L201.018,30.503z"/>
</svg>
