<?xml version="1.0" encoding="utf-8"?>
<!-- Generator: Adobe Illustrator 15.1.0, SVG Export Plug-In . SVG Version: 6.00 Build 0)  -->
<!DOCTYPE svg PUBLIC "-//W3C//DTD SVG 1.1//EN" "http://www.w3.org/Graphics/SVG/1.1/DTD/svg11.dtd">
<svg version="1.1" id="Layer_1" xmlns="http://www.w3.org/2000/svg" xmlns:xlink="http://www.w3.org/1999/xlink" x="0px" y="0px"
	 width="550px" height="51px" viewBox="0 0 550 51" enable-background="new 0 0 550 51" xml:space="preserve">
<path fill="#005DAA" d="M35.542,11.006C34.331,5.352,33.927,4.443,33.22,0c-0.909,0.202-1.918,0.303-2.928,0.303
	c-0.808,0-1.312-0.101-2.423-0.303c-3.029,5.856-3.635,6.462-8.986,15.852l-6.261,10.804C8.583,33.725,4.342,40.592,0,47.559
	c1.312-0.202,2.625-0.404,3.534-0.404c1.211,0,2.221,0.202,3.029,0.404c2.323-4.948,4.948-9.795,7.573-14.44
	c2.928,0,5.856-0.101,8.785-0.101c2.524,0,5.15,0.101,7.674,0.101c1.212,4.646,1.717,9.693,2.121,14.44
	c1.817-0.202,4.342-0.404,5.755-0.404c1.918,0,3.736,0.202,5.655,0.404c-1.01-3.534-1.414-4.747-2.322-8.785l-1.818-8.078
	L35.542,11.006L35.542,11.006L35.542,11.006z M26.253,12.723l1.918,8.38l1.616,7.876c-2.423,0.102-4.847,0.102-7.27,0.102
	c-2.424,0-3.333,0-6.058-0.102L26.253,12.723L26.253,12.723L26.253,12.723z"/>
<path fill="#005DAA" d="M57.958,17.165l0.101-3.13c0.707,0,0.909-0.101,1.414-0.101c2.02,0,4.645,0.202,8.381,0.707
	c-0.202-0.908-0.202-1.312-0.202-2.019c0-0.808,0.101-1.515,0.202-2.726c-5.049,0.202-9.996,0.404-15.146,0.404
	c-4.342,0-8.684-0.202-13.026-0.404c0.303,0.909,0.303,1.211,0.303,2.322c0,0.808-0.101,1.312-0.303,2.524
	c3.333-0.403,6.665-0.707,9.997-0.707c0.101,2.323,0.101,4.646,0.101,6.968l-0.101,8.683c-0.101,5.857-0.404,11.612-0.606,17.469
	c1.717-0.202,2.323-0.304,4.039-0.304c1.918,0,2.827,0.102,4.948,0.304c-0.303-5.856-0.404-14.943-0.303-17.368L57.958,17.165
	L57.958,17.165L57.958,17.165z"/>
<path fill="#005DAA" d="M86.433,17.267c0.707-2.727,1.01-3.736,1.817-5.352C85.423,9.996,83,9.29,79.264,9.29
	c-7.472,0-12.319,4.443-12.319,11.309c0,12.016,16.156,10.501,16.156,18.479c0,3.129-2.727,5.554-6.361,5.554
	c-4.039,0-6.866-2.222-7.674-5.958h-1.111c-0.303,2.021-0.909,4.544-1.616,6.765c3.13,1.717,5.553,2.322,8.986,2.322
	c8.785,0,14.338-4.745,14.338-12.115c0-12.017-16.257-10.502-16.257-18.276c0-2.828,2.524-4.948,5.756-4.948
	c3.029,0,5.352,1.717,6.361,4.746h0.909V17.267L86.433,17.267z"/>
<path fill="#005DAA" d="M91.583,47.256c2.02-0.203,2.929-0.304,5.049-0.304c3.433,0,6.967,0.304,10.4,0.304
	c11.612,0,20.194-7.876,20.194-19.589c0-5.857-2.423-11.41-6.361-14.439c-3.231-2.423-6.967-3.332-13.935-3.332
	c-3.635,0-7.371,0.303-11.006,0.303c-1.615,0-2.221-0.101-4.342-0.303c0.404,6.765,0.505,9.289,0.505,17.367
	C92.087,27.869,92.087,37.461,91.583,47.256L91.583,47.256L91.583,47.256z M116.624,36.855c-2.121,4.948-6.058,7.27-12.42,7.27
	c-1.615,0-2.221-0.101-4.039-0.201c0-4.847-0.202-9.593-0.202-14.339c0-5.452,0-10.803,0.303-16.257
	c2.221-0.202,3.231-0.302,4.543-0.302c3.13,0,5.554,0.504,7.371,1.413c3.938,2.121,6.26,6.967,6.26,13.631
	C118.441,31.806,117.533,34.634,116.624,36.855L116.624,36.855L116.624,36.855z"/>
<path fill="#005DAA" d="M129.347,39.885c0,2.524-0.202,3.836-0.505,7.27c1.918-0.202,2.625-0.202,4.241-0.202
	c1.918,0,2.625,0.101,4.544,0.404c-0.202-3.231-0.303-4.241-0.303-5.957l-0.101-5.554c0-1.717-0.101-3.332-0.101-5.049
	c0-0.404,0.202-0.707,0.404-0.707s0.202,0.102,0.606,0.807c3.231,5.453,6.361,10.906,9.29,16.46
	c1.918-0.102,2.726-0.202,4.342-0.202c1.716,0,2.726,0.102,5.453,0.202l-2.423-3.838l-4.847-7.572
	c-2.423-3.838-2.827-4.544-4.341-6.968c4.948-1.312,8.784-4.14,8.784-9.693c0-7.169-5.654-9.391-11.712-9.391
	c-2.828,0-5.755,0.303-8.684,0.303c-1.11,0-1.918-0.101-4.947-0.303c0.303,5.654,0.404,8.785,0.404,14.338
	C129.448,35.846,129.347,39.178,129.347,39.885L129.347,39.885L129.347,39.885z M137.223,27.768
	c0.202-4.948,0.101-9.794,0.202-14.742c1.01-0.101,1.313-0.101,1.717-0.101c4.544,0,6.765,2.221,6.765,6.866
	C145.906,25.647,142.675,27.768,137.223,27.768L137.223,27.768L137.223,27.768z"/>
<path d="M166,35.037h1.312l5.15,11.915h-1.313l-1.717-4.038h-5.553l-1.716,4.038h-1.313L166,35.037z M166.606,36.45l-2.323,5.453
	h4.645L166.606,36.45z"/>
<path d="M173.27,42.51c0-0.909,0.202-1.717,0.605-2.424c0.404-0.706,1.01-1.212,1.616-1.615c0.606-0.403,1.414-0.605,2.02-0.605
	c0.505,0,1.01,0.102,1.515,0.202s0.909,0.403,1.312,0.706c0.404,0.304,0.606,0.606,0.808,1.01v-1.818h1.11v8.079
	c0,0.706-0.101,1.312-0.302,1.817c-0.202,0.505-0.606,0.908-1.01,1.312s-0.909,0.606-1.414,0.809c-0.505,0.2-1.11,0.302-1.616,0.302
	c-0.505,0-1.009-0.102-1.515-0.201c-0.504-0.101-0.909-0.303-1.312-0.605c-0.404-0.304-0.808-0.605-1.01-1.01
	c-0.202-0.404-0.505-0.808-0.605-1.415h1.211c0.303,0.709,0.707,1.213,1.313,1.516c0.605,0.304,1.211,0.505,1.918,0.505
	c0.606,0,1.111-0.102,1.616-0.403c0.505-0.202,0.909-0.606,1.211-1.01c0.303-0.404,0.505-1.01,0.505-1.615v-1.011
	c-0.707,1.313-1.817,1.919-3.433,1.919c-0.505,0-1.111-0.102-1.616-0.304c-0.505-0.201-1.01-0.504-1.515-0.908
	c-0.505-0.403-0.808-0.909-1.111-1.514C173.27,43.62,173.27,43.317,173.27,42.51z M174.481,42.308c0,0.707,0.202,1.413,0.505,1.919
	c0.303,0.505,0.707,1.009,1.212,1.312c0.505,0.304,1.11,0.506,1.716,0.506c0.505,0,1.01-0.102,1.515-0.404
	c0.504-0.303,1.009-0.605,1.413-1.212c0.404-0.605,0.606-1.212,0.606-2.02c0-0.403-0.101-0.808-0.303-1.212
	c-0.202-0.404-0.404-0.808-0.808-1.11c-0.404-0.304-0.707-0.606-1.11-0.707c-0.404-0.102-0.909-0.304-1.414-0.304
	c-0.808,0-1.515,0.202-2.02,0.707c-0.505,0.506-0.808,0.909-1.01,1.414C174.583,41.701,174.481,42.005,174.481,42.308z"/>
<path d="M184.175,42.51c0-0.707,0.202-1.312,0.404-1.918c0.202-0.606,0.606-1.01,1.009-1.414c0.404-0.404,0.909-0.707,1.414-0.909
	c0.505-0.201,1.11-0.304,1.616-0.304c0.707,0,1.514,0.203,2.221,0.506c0.707,0.303,1.313,0.909,1.716,1.615
	c0.404,0.707,0.707,1.616,0.707,2.626v0.202h-7.977c0.101,0.604,0.302,1.211,0.605,1.715c0.303,0.506,0.808,0.809,1.312,1.01
	c0.505,0.202,1.01,0.304,1.515,0.304c0.403,0,0.909-0.102,1.312-0.304c0.404-0.201,0.808-0.403,1.111-0.706
	c0.303-0.304,0.606-0.606,0.707-1.01h1.211c-0.202,0.706-0.606,1.212-1.11,1.716c-0.505,0.505-1.01,0.809-1.616,1.009
	c-0.606,0.203-1.212,0.305-1.817,0.305c-0.808,0-1.515-0.202-2.222-0.606c-0.707-0.403-1.211-0.908-1.616-1.615
	C184.276,44.024,184.175,43.418,184.175,42.51z M192.253,41.903c-0.101-0.504-0.303-1.009-0.606-1.413
	c-0.303-0.404-0.707-0.808-1.211-1.009c-0.505-0.203-1.01-0.404-1.616-0.404c-0.808,0-1.414,0.201-1.918,0.505
	c-0.505,0.303-0.909,0.807-1.111,1.212c-0.202,0.403-0.404,0.808-0.404,1.11L192.253,41.903L192.253,41.903z"/>
<path d="M194.979,46.952v-8.885h1.111v1.312c0.303-0.506,0.707-0.909,1.211-1.111c0.504-0.201,1.01-0.403,1.615-0.403
	c0.505,0,1.01,0.102,1.413,0.303c0.404,0.201,0.91,0.403,1.212,0.808s0.707,0.807,0.909,1.312c0.202,0.505,0.303,1.111,0.303,1.717
	v4.947h-1.212v-4.947c0-0.605-0.102-1.11-0.404-1.515s-0.605-0.708-1.009-1.009c-0.404-0.303-0.909-0.304-1.312-0.304
	c-0.505,0-0.909,0.101-1.313,0.304c-0.404,0.201-0.707,0.504-1.009,0.907c-0.303,0.404-0.404,0.91-0.404,1.515v5.149h-1.111V46.952
	L194.979,46.952z"/>
<path d="M204.572,42.51c0-0.707,0.101-1.312,0.404-1.918c0.303-0.606,0.605-1.01,1.01-1.414c0.404-0.404,0.909-0.707,1.413-0.909
	c0.505-0.201,1.111-0.304,1.616-0.403c1.009,0,1.918,0.202,2.726,0.706c0.808,0.506,1.414,1.212,1.818,2.121h-1.313
	c-0.303-0.506-0.807-1.01-1.312-1.213c-0.505-0.201-1.212-0.404-1.918-0.404c-0.707,0-1.212,0.203-1.717,0.507
	c-0.505,0.303-0.909,0.706-1.211,1.211c-0.303,0.506-0.404,1.01-0.404,1.616c0,0.605,0.101,1.212,0.404,1.716
	c0.303,0.506,0.707,0.909,1.211,1.213c0.505,0.303,1.111,0.505,1.818,0.505s1.312-0.202,1.817-0.505
	c0.505-0.304,1.009-0.707,1.312-1.213h1.313c-1.01,1.817-2.424,2.827-4.443,2.827c-0.606,0-1.212-0.102-1.717-0.303
	c-0.504-0.201-1.111-0.506-1.514-0.909c-0.404-0.403-0.808-0.908-1.11-1.514C204.47,43.62,204.47,43.217,204.572,42.51
	C204.47,42.61,204.572,42.61,204.572,42.51C204.572,42.61,204.572,42.51,204.572,42.51z"/>
<path d="M217.799,46.649l-3.332-8.582h1.212l2.827,7.067l3.029-7.067h1.313l-5.15,11.915h-1.211L217.799,46.649z"/>
<path d="M229.007,46.952v-7.774h-1.312v-1.11h1.312c0-2.121,1.111-3.131,3.434-3.131v1.111c-0.707,0-1.212,0.101-1.616,0.402
	c-0.404,0.304-0.605,0.808-0.605,1.515v0.103h2.221v1.11h-2.221v7.774H229.007z"/>
<path d="M233.147,42.408c0-0.605,0.102-1.111,0.404-1.716c0.303-0.606,0.605-1.01,1.009-1.414c0.404-0.405,0.909-0.707,1.515-1.01
	c0.606-0.302,1.212-0.403,1.919-0.403c0.605,0,1.312,0.202,2.019,0.605c0.707,0.403,1.211,0.909,1.717,1.515
	c0.505,0.604,0.707,1.312,0.808,2.12c0,0,0,0.101,0,0.201c0,0.102,0,0.102,0,0.202c0,0.605-0.102,1.312-0.404,1.817
	c-0.303,0.506-0.606,1.111-1.01,1.515c-0.404,0.404-0.909,0.807-1.515,1.01c-0.606,0.201-1.111,0.404-1.817,0.404
	c-0.708,0-1.515-0.203-2.222-0.607c-0.707-0.402-1.312-0.907-1.716-1.614C233.45,44.327,233.147,43.418,233.147,42.408z
	 M234.359,42.51c0,0.707,0.201,1.312,0.504,1.817c0.303,0.505,0.707,0.908,1.313,1.211c0.605,0.305,1.11,0.507,1.716,0.507
	c0.505,0,1.01-0.103,1.616-0.404c0.605-0.303,0.908-0.707,1.312-1.213c0.404-0.504,0.505-1.211,0.505-1.917
	c0-0.404-0.102-0.809-0.303-1.212c-0.203-0.404-0.404-0.808-0.707-1.111c-0.303-0.303-0.707-0.605-1.111-0.706
	c-0.403-0.102-0.807-0.304-1.312-0.304c-0.605,0-1.111,0.202-1.716,0.505c-0.606,0.303-0.91,0.706-1.313,1.212
	C234.46,41.399,234.359,41.803,234.359,42.51z"/>
<path d="M244.052,46.952v-8.885h1.11v1.312c0.505-1.011,1.313-1.515,2.625-1.515v1.212c-0.303,0-0.606,0.102-0.909,0.201
	c-0.303,0.102-0.606,0.304-0.808,0.505c-0.201,0.202-0.404,0.506-0.605,0.809c-0.203,0.303-0.203,0.605-0.203,0.908v5.452H244.052z"
	/>
<path d="M255.26,46.952V36.048h-2.726v-1.111h6.664v1.111h-2.727v10.904H255.26z"/>
<path d="M259.198,42.408c0-0.605,0.101-1.111,0.404-1.716c0.303-0.606,0.605-1.01,1.009-1.414s0.909-0.707,1.515-1.01
	c0.605-0.304,1.211-0.403,1.919-0.403c0.605,0,1.312,0.202,2.019,0.605c0.708,0.403,1.212,0.909,1.717,1.515
	c0.504,0.604,0.707,1.312,0.808,2.12c0,0,0,0.101,0,0.201c0,0.102,0,0.102,0,0.202c0,0.605-0.101,1.312-0.404,1.817
	c-0.303,0.506-0.606,1.111-1.01,1.515c-0.403,0.404-0.908,0.807-1.514,1.01c-0.606,0.201-1.111,0.404-1.818,0.404
	c-0.707,0-1.515-0.203-2.222-0.607c-0.707-0.402-1.312-0.907-1.716-1.614C259.501,44.327,259.198,43.418,259.198,42.408z
	 M260.309,42.51c0,0.707,0.201,1.312,0.505,1.817c0.303,0.505,0.707,0.908,1.312,1.211c0.605,0.305,1.111,0.507,1.716,0.507
	c0.505,0,1.01-0.103,1.616-0.404c0.605-0.303,0.909-0.707,1.313-1.213c0.403-0.504,0.504-1.211,0.504-1.917
	c0-0.404-0.101-0.809-0.303-1.212c-0.202-0.404-0.404-0.808-0.707-1.111c-0.303-0.303-0.707-0.605-1.111-0.706
	c-0.404-0.102-0.808-0.304-1.313-0.304c-0.605,0-1.111,0.202-1.716,0.505c-0.606,0.303-0.909,0.706-1.312,1.212
	C260.41,41.399,260.309,41.803,260.309,42.51z"/>
<path d="M269.195,46.952l3.029-4.543l-3.029-4.342h1.413l2.323,3.434l2.423-3.434h1.415l-3.03,4.342l3.03,4.442h-1.415l-2.423-3.534
	l-2.323,3.534h-1.413V46.952z"/>
<path d="M277.777,37.057v-2.02h1.212v2.02H277.777z M277.777,46.952v-8.885h1.212v8.885H277.777z"/>
<path d="M280.706,42.51c0-0.707,0.101-1.312,0.403-1.918c0.304-0.606,0.605-1.01,1.01-1.414s0.908-0.707,1.413-0.909
	c0.506-0.201,1.11-0.304,1.616-0.403c1.01,0,1.918,0.202,2.727,0.706c0.808,0.506,1.413,1.212,1.817,2.121h-1.312
	c-0.303-0.506-0.808-1.01-1.312-1.213c-0.505-0.202-1.212-0.404-1.918-0.404c-0.707,0-1.212,0.203-1.717,0.507
	c-0.505,0.303-0.908,0.706-1.212,1.211c-0.303,0.506-0.403,1.01-0.403,1.616c0,0.605,0.101,1.212,0.403,1.716
	c0.304,0.506,0.707,0.909,1.212,1.213c0.505,0.303,1.111,0.505,1.817,0.505c0.707,0,1.313-0.202,1.817-0.505
	c0.606-0.304,1.011-0.707,1.313-1.213h1.312c-1.01,1.817-2.424,2.827-4.443,2.827c-0.604,0-1.212-0.102-1.716-0.303
	c-0.605-0.201-1.111-0.506-1.515-0.909c-0.505-0.403-0.808-0.908-1.11-1.514C280.807,43.822,280.706,43.217,280.706,42.51
	C280.706,42.61,280.706,42.61,280.706,42.51C280.706,42.61,280.706,42.51,280.706,42.51z"/>
<path d="M296.558,43.62c0,0.505,0.202,0.909,0.404,1.313c0.202,0.403,0.505,0.604,0.909,0.807c0.403,0.202,0.807,0.304,1.212,0.304
	c0.404,0,0.807-0.102,1.11-0.304c0.403-0.202,0.605-0.505,0.909-0.807c0.303-0.305,0.303-0.707,0.303-1.111
	c0-0.505-0.102-0.908-0.403-1.312c-0.202-0.404-0.707-0.707-1.313-0.909c-0.605-0.201-1.312-0.403-1.918-0.605
	c-0.605-0.202-1.11-0.505-1.514-0.909c-0.404-0.403-0.606-1.009-0.606-1.817v-0.101c0,0,0-0.102,0-0.203
	c0-0.604,0.202-1.11,0.505-1.515c0.304-0.402,0.707-0.807,1.213-1.009c0.505-0.202,1.009-0.404,1.615-0.404s1.212,0.202,1.717,0.505
	c0.505,0.305,0.908,0.707,1.211,1.213c0.305,0.505,0.404,0.909,0.404,1.414v0.201h-1.211c-0.103-0.706-0.305-1.11-0.708-1.515
	s-0.807-0.505-1.414-0.604c-0.403,0-0.706,0.101-1.009,0.2c-0.304,0.103-0.605,0.404-0.808,0.708
	c-0.202,0.303-0.304,0.605-0.304,0.909c0,0.707,0.202,1.312,0.605,1.515c0.404,0.202,1.011,0.604,1.818,0.808
	c0.808,0.201,1.514,0.505,2.02,0.908c0.505,0.403,0.909,1.01,1.11,1.818c0,0.303,0.102,0.605,0.102,0.807
	c0,0.404-0.102,0.808-0.202,1.213c-0.101,0.403-0.403,0.807-0.707,1.11c-0.303,0.303-0.706,0.604-1.11,0.808
	c-0.404,0.201-1.009,0.303-1.515,0.303c-0.605,0-1.11-0.102-1.515-0.303c-0.403-0.203-0.908-0.404-1.211-0.808
	c-0.304-0.304-0.606-0.707-0.809-1.11c-0.202-0.404-0.303-0.909-0.303-1.414h1.414V43.62H296.558z"/>
<path d="M303.93,43.418v-5.25h1.212v5.049c0,0.908,0.303,1.615,0.808,2.12s1.11,0.807,1.918,0.807c0.505,0,0.908-0.101,1.312-0.403
	c0.404-0.202,0.707-0.605,1.01-1.009c0.303-0.505,0.403-1.011,0.403-1.717v-4.847h1.212v8.885h-1.11V45.64
	c-0.304,0.506-0.606,0.909-1.212,1.212c-0.605,0.304-1.11,0.404-1.716,0.404c-0.606,0-1.213-0.102-1.818-0.404
	s-1.01-0.706-1.414-1.313C304.131,44.934,303.93,44.227,303.93,43.418z"/>
<path d="M313.824,46.952V35.037h1.212v4.848c0.304-0.505,0.708-1.011,1.313-1.313c0.604-0.403,1.312-0.504,2.019-0.604
	c0.91,0,1.717,0.201,2.424,0.604c0.707,0.404,1.312,1.011,1.716,1.616c0.404,0.605,0.606,1.312,0.606,2.019
	c0,0.91-0.202,1.718-0.505,2.425c-0.304,0.707-0.909,1.312-1.515,1.817c-0.606,0.505-1.515,0.707-2.424,0.707
	c-0.504,0-1.11-0.103-1.515-0.202c-0.403-0.102-0.908-0.304-1.312-0.605c-0.403-0.303-0.707-0.606-0.908-1.009v1.513h-1.111V46.952z
	 M314.936,42.308c0,0.506,0.101,1.01,0.201,1.413c0.102,0.404,0.404,0.809,0.606,1.213c0.303,0.304,0.707,0.604,1.11,0.808
	c0.403,0.201,1.009,0.304,1.717,0.304c0.604,0,1.11-0.202,1.615-0.507c0.505-0.303,0.909-0.706,1.212-1.311
	c0.304-0.606,0.505-1.213,0.505-1.919c0-0.404-0.101-0.909-0.303-1.312c-0.202-0.404-0.505-0.707-0.807-1.01
	c-0.305-0.304-0.708-0.505-1.111-0.707s-0.808-0.202-1.312-0.202c-0.506,0-1.01,0.102-1.515,0.404
	c-0.505,0.302-1.01,0.605-1.414,1.11C315.037,41.096,314.936,41.601,314.936,42.308z"/>
<path d="M324.427,40.692c0-0.103,0-0.202,0-0.404c0-0.506,0.102-0.908,0.404-1.312s0.605-0.606,1.009-0.808s0.809-0.303,1.111-0.303
	c0.304,0,0.605,0,0.909,0.102c0.303,0.101,0.605,0.201,0.808,0.402c0.201,0.202,0.403,0.404,0.605,0.708
	c0.102,0.303,0.202,0.605,0.202,1.009h-1.312c0-0.403-0.202-0.706-0.404-0.908s-0.606-0.304-0.909-0.304s-0.605,0.102-0.908,0.304
	c-0.304,0.202-0.404,0.505-0.404,0.908c0,0,0,0.102,0,0.202s0,0.202,0.102,0.202c0.102,0.303,0.403,0.505,0.808,0.707
	c0.403,0.202,0.908,0.403,1.414,0.605c0.505,0.202,0.908,0.403,1.212,0.808c0.304,0.403,0.505,0.808,0.505,1.514
	c0,0.103,0,0.304,0,0.505c-0.101,0.506-0.201,1.01-0.505,1.313s-0.606,0.605-1.01,0.808s-0.807,0.202-1.212,0.202
	c-0.505,0-1.009-0.102-1.414-0.404c-0.403-0.303-0.706-0.605-1.009-1.01c-0.304-0.403-0.304-0.909-0.304-1.414h1.212
	c0,0.505,0.202,0.909,0.506,1.213c0.303,0.303,0.706,0.505,1.11,0.505c0.403,0,0.808-0.202,1.11-0.505
	c0.304-0.304,0.403-0.605,0.403-1.01c0-0.403-0.101-0.707-0.403-1.01s-0.605-0.504-1.11-0.604c-0.707-0.202-1.212-0.404-1.716-0.809
	C324.729,41.903,324.528,41.399,324.427,40.692z"/>
<path d="M332.101,46.952v-7.774h-1.817v-1.11h1.817v-3.131h1.212v3.131h2.02v1.11h-2.02v7.774H332.101z"/>
<path d="M336.24,42.61c0-0.707,0.103-1.312,0.404-1.917c0.303-0.606,0.605-1.111,1.11-1.515c0.506-0.404,0.909-0.707,1.515-0.909
	c0.606-0.202,1.111-0.303,1.717-0.303c1.615,0,2.727,0.706,3.433,1.918v-1.717h1.213v8.885h-1.213v-1.715
	c-0.303,0.604-0.807,1.009-1.413,1.413s-1.312,0.505-2.121,0.505c-0.605,0-1.211-0.101-1.716-0.303s-1.009-0.505-1.514-0.908
	c-0.506-0.404-0.809-0.909-1.011-1.414C336.442,44.125,336.24,43.317,336.24,42.61z M337.453,42.308
	c0,0.707,0.202,1.413,0.505,1.919c0.303,0.505,0.706,1.009,1.312,1.312c0.606,0.304,1.11,0.506,1.615,0.506
	c0.707,0,1.312-0.202,1.818-0.506c0.505-0.303,1.009-0.706,1.312-1.312c0.304-0.606,0.505-1.111,0.505-1.616
	c0-0.605-0.102-1.212-0.403-1.716c-0.304-0.506-0.707-0.909-1.212-1.312c-0.506-0.404-1.111-0.507-1.717-0.507
	c-0.707,0-1.312,0.203-1.817,0.507c-0.506,0.303-1.01,0.807-1.313,1.312C337.755,41.399,337.453,41.903,337.453,42.308z"/>
<path d="M347.65,46.952v-8.885h1.111v1.312c0.303-0.506,0.706-0.909,1.211-1.111c0.506-0.201,1.01-0.403,1.616-0.403
	c0.505,0,1.009,0.102,1.414,0.303c0.404,0.201,0.908,0.403,1.212,0.808s0.707,0.807,0.908,1.312
	c0.202,0.505,0.304,1.111,0.304,1.717v4.947h-1.212v-4.947c0-0.605-0.102-1.11-0.403-1.515c-0.304-0.404-0.606-0.708-1.01-1.009
	c-0.404-0.303-0.909-0.304-1.313-0.304c-0.504,0-0.908,0.101-1.312,0.304c-0.403,0.201-0.706,0.504-1.009,0.907
	c-0.304,0.404-0.403,0.91-0.403,1.515v5.149h-1.111v-0.101H347.65z"/>
<path d="M357.143,42.51c0-0.707,0.101-1.312,0.403-1.918c0.304-0.606,0.605-1.01,1.01-1.414s0.908-0.707,1.414-0.909
	c0.505-0.201,1.11-0.304,1.616-0.403c1.009,0,1.918,0.202,2.726,0.706c0.809,0.506,1.414,1.212,1.817,2.121h-1.312
	c-0.304-0.506-0.808-1.01-1.313-1.213c-0.505-0.201-1.212-0.404-1.918-0.404s-1.212,0.203-1.717,0.507
	c-0.504,0.303-0.908,0.706-1.212,1.211c-0.303,0.506-0.403,1.01-0.403,1.616c0,0.605,0.101,1.212,0.403,1.716
	c0.304,0.506,0.708,0.909,1.212,1.213c0.505,0.303,1.111,0.505,1.818,0.505s1.312-0.202,1.817-0.505
	c0.505-0.304,1.01-0.707,1.312-1.213h1.313c-1.011,1.817-2.424,2.827-4.443,2.827c-0.605,0-1.212-0.102-1.717-0.303
	s-1.11-0.506-1.515-0.909c-0.403-0.403-0.808-0.908-1.11-1.514C357.041,43.62,357.143,43.217,357.143,42.51
	C357.143,42.61,357.143,42.61,357.143,42.51C357.143,42.61,357.143,42.51,357.143,42.51z"/>
<path d="M367.543,42.51c0-0.707,0.201-1.312,0.403-1.918c0.202-0.606,0.605-1.01,1.01-1.414c0.403-0.404,0.908-0.707,1.414-0.909
	c0.505-0.201,1.11-0.304,1.616-0.304c0.706,0,1.514,0.203,2.221,0.506s1.312,0.909,1.717,1.615c0.403,0.707,0.707,1.616,0.707,2.626
	v0.202h-7.977c0.101,0.604,0.302,1.211,0.604,1.715c0.304,0.506,0.808,0.809,1.313,1.01c0.504,0.202,1.009,0.304,1.514,0.304
	c0.404,0,0.908-0.102,1.312-0.304c0.404-0.201,0.809-0.403,1.111-0.706c0.303-0.304,0.605-0.606,0.706-1.01h1.213
	c-0.202,0.706-0.606,1.212-1.11,1.716c-0.506,0.505-1.011,0.809-1.616,1.009c-0.605,0.203-1.212,0.305-1.818,0.305
	c-0.808,0-1.514-0.202-2.222-0.606c-0.706-0.403-1.211-0.908-1.615-1.615C367.644,44.023,367.543,43.418,367.543,42.51z
	 M375.62,41.903c-0.102-0.504-0.303-1.009-0.605-1.413c-0.304-0.404-0.707-0.808-1.212-1.009c-0.506-0.203-1.01-0.404-1.616-0.404
	c-0.808,0-1.414,0.201-1.918,0.505c-0.505,0.303-0.909,0.807-1.11,1.212c-0.202,0.404-0.404,0.808-0.404,1.11L375.62,41.903
	L375.62,41.903z"/>
<path d="M378.043,40.692c0-0.103,0-0.202,0-0.404c0-0.506,0.102-0.908,0.404-1.312s0.606-0.606,1.01-0.808s0.807-0.303,1.11-0.303
	s0.605,0,0.909,0.102c0.303,0.101,0.604,0.201,0.807,0.402c0.202,0.202,0.404,0.404,0.606,0.708
	c0.102,0.303,0.202,0.605,0.202,1.009h-1.212c0-0.403-0.202-0.706-0.404-0.908c-0.201-0.202-0.605-0.304-0.909-0.304
	c-0.303,0-0.605,0.102-0.909,0.304c-0.303,0.202-0.403,0.505-0.403,0.908c0,0,0,0.102,0,0.202s0,0.202,0.102,0.202
	c0.102,0.303,0.404,0.505,0.808,0.707s0.909,0.403,1.414,0.605c0.504,0.202,0.908,0.403,1.212,0.808
	c0.303,0.403,0.505,0.808,0.505,1.514c0,0.103,0,0.304,0,0.505c-0.102,0.506-0.202,1.01-0.505,1.313
	c-0.304,0.304-0.605,0.605-1.01,0.808s-0.808,0.202-1.212,0.202c-0.505,0-1.01-0.102-1.414-0.404
	c-0.404-0.302-0.707-0.605-1.009-1.01c-0.304-0.403-0.304-0.909-0.304-1.414h1.213c0,0.505,0.201,0.909,0.504,1.213
	c0.303,0.303,0.707,0.505,1.111,0.505s0.808-0.202,1.11-0.505c0.303-0.304,0.404-0.605,0.404-1.01c0-0.403-0.103-0.707-0.404-1.01
	c-0.303-0.303-0.605-0.504-1.11-0.604c-0.707-0.202-1.212-0.404-1.717-0.809C378.347,41.903,378.043,41.399,378.043,40.692z"/>
<path d="M388.848,42.61c0-0.707,0.101-1.312,0.403-1.917c0.304-0.606,0.606-1.111,1.111-1.515c0.505-0.404,0.909-0.707,1.514-0.909
	c0.605-0.202,1.111-0.303,1.717-0.303c1.615,0,2.727,0.706,3.433,1.918v-1.717h1.213v8.885h-1.213v-1.715
	c-0.303,0.604-0.808,1.009-1.414,1.413c-0.604,0.404-1.312,0.505-2.119,0.505c-0.606,0-1.213-0.101-1.717-0.303
	s-1.01-0.505-1.515-0.908c-0.505-0.404-0.807-0.909-1.01-1.414C389.051,44.125,388.848,43.317,388.848,42.61z M390.059,42.308
	c0,0.707,0.202,1.413,0.507,1.919c0.303,0.505,0.706,1.009,1.312,1.312c0.605,0.304,1.11,0.506,1.616,0.506
	c0.707,0,1.312-0.202,1.817-0.506c0.505-0.303,1.01-0.706,1.312-1.312c0.303-0.606,0.505-1.111,0.505-1.616
	c0-0.605-0.101-1.212-0.403-1.716c-0.304-0.506-0.707-0.909-1.212-1.312c-0.505-0.404-1.111-0.507-1.717-0.507
	c-0.707,0-1.312,0.203-1.817,0.507c-0.506,0.303-1.01,0.807-1.312,1.312C390.362,41.399,390.059,41.903,390.059,42.308z"/>
<path d="M400.258,46.952v-8.885h1.11v1.312c0.304-0.506,0.708-0.909,1.213-1.111c0.504-0.201,1.009-0.403,1.614-0.403
	c0.506,0,1.01,0.102,1.414,0.303s0.909,0.403,1.212,0.808c0.304,0.404,0.707,0.807,0.909,1.312c0.201,0.505,0.303,1.111,0.303,1.717
	v4.947h-1.11v-4.947c0-0.605-0.102-1.11-0.403-1.515c-0.304-0.404-0.606-0.708-1.01-1.009c-0.403-0.303-0.909-0.304-1.313-0.304
	c-0.504,0-0.908,0.101-1.312,0.304c-0.404,0.201-0.707,0.504-1.01,0.907c-0.303,0.404-0.403,0.91-0.403,1.515v5.149h-1.212v-0.101
	H400.258z"/>
<path d="M409.749,42.105c0.102-0.807,0.303-1.514,0.808-2.221s1.01-1.111,1.716-1.516c0.708-0.402,1.313-0.504,2.021-0.605
	c0.707,0,1.413,0.102,2.12,0.404c0.706,0.304,1.212,0.706,1.616,1.313v-4.646h1.211V46.75h-1.11v-1.716
	c-0.403,0.605-0.909,1.111-1.515,1.414s-1.312,0.505-2.12,0.505c-0.707,0-1.413-0.202-2.12-0.605
	c-0.706-0.404-1.312-0.909-1.716-1.616c-0.404-0.706-0.708-1.515-0.708-2.322C409.749,42.408,409.749,42.206,409.749,42.105z
	 M410.962,42.105c0,0.101,0,0.304,0,0.505c0,0.606,0.201,1.11,0.504,1.717c0.304,0.606,0.707,1.01,1.212,1.312
	c0.506,0.303,1.111,0.506,1.717,0.506s1.11-0.102,1.717-0.404c0.605-0.304,1.009-0.707,1.312-1.313
	c0.303-0.604,0.505-1.211,0.505-1.917c0-0.404-0.101-0.809-0.403-1.415c-0.304-0.604-0.605-1.009-1.213-1.413
	c-0.606-0.404-1.212-0.605-2.019-0.605c-0.404,0-0.909,0.102-1.414,0.303c-0.506,0.202-0.909,0.505-1.313,1.009
	C411.163,40.893,411.062,41.399,410.962,42.105z"/>
<path d="M425.805,46.952V35.037h3.23c1.111,0,2.12,0.202,2.928,0.505c0.808,0.305,1.616,0.707,2.12,1.313
	c0.505,0.605,1.011,1.212,1.313,1.918s0.403,1.515,0.403,2.322c0,0.91-0.202,1.718-0.505,2.424
	c-0.304,0.708-0.808,1.312-1.414,1.918c-0.606,0.606-1.212,0.909-2.02,1.212c-0.808,0.304-1.515,0.403-2.322,0.403h-3.736v-0.101
	H425.805z M427.016,36.048v9.794h1.817c1.616,0,3.029-0.404,4.14-1.213c1.11-0.807,1.616-2.019,1.818-3.635
	c0-0.706-0.102-1.312-0.304-1.919c-0.202-0.604-0.605-1.11-1.009-1.615c-0.404-0.505-1.01-0.807-1.818-1.11
	c-0.809-0.303-1.514-0.403-2.524-0.403h-2.12V36.048z"/>
<path d="M437.617,37.057v-2.02h1.213v2.02H437.617z M437.617,46.952v-8.885h1.213v8.885H437.617z"/>
<path d="M440.445,40.692c0-0.103,0-0.202,0-0.404c0-0.506,0.101-0.908,0.403-1.312s0.605-0.606,1.009-0.808
	c0.404-0.201,0.809-0.303,1.112-0.303s0.605,0,0.908,0.102c0.304,0.101,0.605,0.201,0.808,0.402
	c0.202,0.202,0.404,0.404,0.606,0.708c0.101,0.303,0.202,0.605,0.202,1.009h-1.213c0-0.403-0.201-0.706-0.403-0.908
	c-0.201-0.202-0.604-0.304-0.909-0.304c-0.303,0-0.605,0.102-0.908,0.304s-0.404,0.505-0.404,0.908c0,0,0,0.102,0,0.202
	s0,0.202,0.102,0.202c0.102,0.303,0.404,0.505,0.808,0.707s0.909,0.403,1.414,0.605s0.909,0.403,1.212,0.808
	c0.304,0.403,0.505,0.808,0.505,1.514c0,0.103,0,0.304,0,0.505c-0.102,0.506-0.201,1.01-0.505,1.313
	c-0.303,0.304-0.605,0.605-1.009,0.808c-0.404,0.202-0.809,0.202-1.213,0.202c-0.505,0-1.009-0.102-1.413-0.404
	c-0.405-0.302-0.707-0.605-1.01-1.01c-0.304-0.403-0.304-0.909-0.304-1.414h1.213c0,0.505,0.201,0.909,0.505,1.213
	c0.303,0.303,0.707,0.505,1.11,0.505s0.808-0.202,1.111-0.505c0.303-0.304,0.403-0.605,0.403-1.01c0-0.403-0.102-0.707-0.403-1.01
	c-0.304-0.303-0.606-0.504-1.111-0.604c-0.707-0.202-1.212-0.404-1.716-0.809C440.85,41.903,440.546,41.399,440.445,40.692z"/>
<path d="M446.807,42.51c0-0.707,0.202-1.312,0.403-1.918c0.202-0.606,0.605-1.01,1.01-1.414s0.909-0.707,1.414-0.909
	c0.505-0.201,1.11-0.304,1.615-0.304c0.708,0,1.515,0.203,2.223,0.506c0.706,0.303,1.312,0.909,1.716,1.615
	c0.404,0.707,0.707,1.616,0.707,2.626v0.202h-7.978c0.102,0.604,0.304,1.211,0.606,1.715c0.303,0.506,0.807,0.809,1.312,1.01
	c0.506,0.202,1.01,0.304,1.515,0.304c0.404,0,0.909-0.102,1.312-0.304c0.404-0.201,0.809-0.403,1.111-0.706
	c0.303-0.304,0.605-0.606,0.706-1.01h1.213c-0.202,0.706-0.605,1.212-1.11,1.716c-0.506,0.505-1.01,0.809-1.616,1.009
	c-0.605,0.203-1.212,0.305-1.818,0.305c-0.807,0-1.514-0.202-2.221-0.606c-0.707-0.403-1.212-0.908-1.616-1.615
	C446.907,44.023,446.807,43.418,446.807,42.51z M454.784,41.903c-0.103-0.504-0.304-1.009-0.606-1.413s-0.707-0.808-1.212-1.009
	c-0.505-0.203-1.009-0.404-1.616-0.404c-0.807,0-1.413,0.201-1.918,0.505c-0.505,0.303-0.908,0.807-1.11,1.212
	c-0.202,0.404-0.404,0.808-0.404,1.11L454.784,41.903L454.784,41.903z"/>
<path d="M457.308,42.61c0-0.707,0.101-1.312,0.403-1.917c0.303-0.606,0.605-1.111,1.111-1.515c0.505-0.404,0.908-0.707,1.515-0.909
	c0.605-0.202,1.11-0.303,1.716-0.303c1.616,0,2.727,0.706,3.433,1.918v-1.717h1.212v8.885h-1.212v-1.715
	c-0.303,0.604-0.808,1.009-1.413,1.413c-0.606,0.404-1.313,0.505-2.121,0.505c-0.605,0-1.212-0.101-1.717-0.303
	c-0.504-0.202-1.009-0.505-1.514-0.908c-0.506-0.404-0.808-0.909-1.01-1.414C457.51,44.125,457.308,43.317,457.308,42.61z
	 M458.52,42.308c0,0.707,0.202,1.413,0.505,1.919c0.303,0.505,0.707,1.009,1.313,1.312c0.604,0.304,1.11,0.506,1.615,0.506
	c0.706,0,1.312-0.202,1.817-0.506c0.505-0.303,1.01-0.706,1.312-1.312c0.304-0.606,0.505-1.111,0.505-1.616
	c0-0.605-0.101-1.212-0.403-1.716c-0.304-0.506-0.707-0.909-1.212-1.312c-0.505-0.404-1.111-0.507-1.717-0.507
	c-0.707,0-1.312,0.203-1.817,0.507c-0.505,0.303-1.01,0.807-1.313,1.312C458.822,41.399,458.52,41.903,458.52,42.308z"/>
<path d="M468.314,40.692c0-0.103,0-0.202,0-0.404c0-0.506,0.101-0.908,0.403-1.312s0.605-0.606,1.009-0.808
	c0.404-0.201,0.809-0.303,1.111-0.303s0.605,0,0.908,0.102c0.304,0.101,0.606,0.201,0.809,0.402
	c0.201,0.202,0.403,0.404,0.605,0.708c0.101,0.303,0.201,0.605,0.201,1.009h-1.212c0-0.403-0.202-0.706-0.403-0.908
	c-0.202-0.202-0.605-0.304-0.909-0.304c-0.303,0-0.605,0.102-0.908,0.304s-0.404,0.505-0.404,0.908c0,0,0,0.102,0,0.202
	s0,0.202,0.102,0.202c0.101,0.303,0.403,0.505,0.807,0.707c0.404,0.202,0.91,0.403,1.415,0.605s0.908,0.403,1.211,0.808
	c0.304,0.403,0.506,0.808,0.506,1.514c0,0.103,0,0.304,0,0.505c-0.102,0.506-0.202,1.01-0.506,1.313
	c-0.303,0.304-0.604,0.605-1.009,0.808c-0.403,0.202-0.808,0.202-1.212,0.202c-0.505,0-1.01-0.102-1.414-0.404
	c-0.403-0.303-0.707-0.605-1.01-1.01c-0.303-0.403-0.303-0.909-0.303-1.414h1.212c0,0.505,0.202,0.909,0.505,1.213
	c0.304,0.303,0.707,0.505,1.111,0.505c0.403,0,0.807-0.202,1.11-0.505c0.304-0.304,0.404-0.605,0.404-1.01
	c0-0.403-0.102-0.707-0.404-1.01c-0.304-0.303-0.605-0.504-1.11-0.604c-0.707-0.202-1.213-0.404-1.717-0.809
	C468.616,41.903,468.314,41.399,468.314,40.692z"/>
<path d="M474.675,42.51c0-0.707,0.202-1.312,0.403-1.918c0.202-0.606,0.606-1.01,1.011-1.414c0.403-0.404,0.908-0.707,1.413-0.909
	c0.505-0.201,1.11-0.304,1.616-0.304c0.707,0,1.514,0.203,2.221,0.506c0.708,0.303,1.313,0.909,1.717,1.615
	c0.403,0.707,0.707,1.616,0.707,2.626v0.202h-7.977c0.101,0.604,0.303,1.211,0.604,1.715c0.305,0.506,0.809,0.809,1.313,1.01
	c0.505,0.202,1.01,0.304,1.515,0.304c0.404,0,0.908-0.102,1.312-0.304c0.404-0.201,0.808-0.403,1.11-0.706
	c0.304-0.304,0.606-0.606,0.707-1.01h1.212c-0.201,0.706-0.605,1.212-1.11,1.716c-0.505,0.505-1.01,0.809-1.615,1.009
	c-0.606,0.203-1.212,0.305-1.818,0.305c-0.808,0-1.514-0.202-2.222-0.606c-0.706-0.403-1.211-0.908-1.615-1.615
	S474.675,43.418,474.675,42.51z M482.652,41.903c-0.102-0.504-0.304-1.009-0.605-1.413c-0.304-0.404-0.708-0.808-1.212-1.009
	c-0.506-0.203-1.011-0.404-1.616-0.404c-0.808,0-1.414,0.201-1.919,0.505c-0.505,0.303-0.909,0.807-1.11,1.212
	c-0.201,0.404-0.403,0.808-0.403,1.11L482.652,41.903L482.652,41.903z"/>
<path d="M490.123,46.952V35.037h3.231c1.01,0,1.817,0.102,2.424,0.304c0.605,0.201,1.11,0.506,1.514,0.908
	c0.304,0.404,0.605,0.708,0.708,1.112c0.101,0.402,0.201,0.807,0.303,1.312c0,0.707-0.202,1.312-0.505,1.919
	c-0.304,0.605-0.707,1.009-1.312,1.413c-0.505,0.304-1.111,0.506-1.817,0.506L498,46.953h-1.515l-4.039-5.452h1.009
	c0.707,0,1.312-0.102,1.919-0.304c0.605-0.201,0.908-0.504,1.212-0.908c0.303-0.404,0.403-0.909,0.403-1.415
	c0-0.604-0.202-1.11-0.505-1.513c-0.304-0.404-0.707-0.708-1.212-0.91c-0.506-0.202-1.01-0.303-1.616-0.303h-2.423v10.904h-1.11
	V46.952L490.123,46.952z"/>
<path d="M499.413,42.51c0-0.707,0.202-1.312,0.404-1.918c0.202-0.606,0.605-1.01,1.01-1.414c0.403-0.404,0.908-0.707,1.413-0.909
	c0.505-0.201,1.111-0.304,1.615-0.304c0.708,0,1.515,0.203,2.223,0.506c0.706,0.303,1.312,0.909,1.716,1.615
	c0.404,0.707,0.707,1.616,0.707,2.626v0.202h-7.978c0.103,0.604,0.305,1.211,0.606,1.715c0.304,0.506,0.808,0.809,1.312,1.01
	c0.505,0.202,1.01,0.304,1.515,0.304c0.403,0,0.909-0.102,1.312-0.304c0.403-0.201,0.807-0.403,1.111-0.706
	c0.303-0.304,0.605-0.606,0.706-1.01h1.212c-0.201,0.706-0.605,1.212-1.11,1.716c-0.505,0.505-1.009,0.809-1.616,1.009
	c-0.605,0.203-1.212,0.305-1.817,0.305c-0.808,0-1.515-0.202-2.221-0.606c-0.707-0.403-1.213-0.908-1.616-1.615
	C499.515,44.024,499.413,43.418,499.413,42.51z M507.39,41.903c-0.101-0.504-0.303-1.009-0.605-1.413s-0.707-0.808-1.212-1.009
	c-0.505-0.203-1.009-0.404-1.616-0.404c-0.807,0-1.414,0.201-1.918,0.505c-0.504,0.303-0.908,0.807-1.11,1.212
	c-0.202,0.404-0.404,0.808-0.404,1.11L507.39,41.903L507.39,41.903z"/>
<path d="M509.915,42.51c0-0.909,0.201-1.717,0.605-2.424c0.403-0.706,1.01-1.212,1.615-1.615c0.606-0.403,1.414-0.605,2.021-0.605
	c0.505,0,1.009,0.102,1.515,0.202c0.505,0.101,0.908,0.403,1.312,0.706c0.403,0.304,0.605,0.606,0.808,1.01v-1.818h1.11v8.079
	c0,0.706-0.101,1.312-0.303,1.817c-0.201,0.505-0.605,0.908-1.01,1.312c-0.403,0.404-0.908,0.606-1.413,0.809
	c-0.505,0.2-1.11,0.302-1.616,0.302c-0.505,0-1.009-0.102-1.514-0.201c-0.506-0.101-0.909-0.303-1.312-0.605
	c-0.404-0.304-0.809-0.605-1.011-1.01s-0.505-0.808-0.605-1.415h1.213c0.302,0.709,0.706,1.213,1.312,1.516
	c0.605,0.304,1.212,0.505,1.918,0.505c0.605,0,1.11-0.102,1.616-0.403c0.504-0.202,0.908-0.606,1.212-1.01
	c0.303-0.404,0.505-1.01,0.505-1.615v-1.011c-0.707,1.313-1.817,1.919-3.434,1.919c-0.504,0-1.11-0.102-1.615-0.304
	c-0.505-0.201-1.01-0.504-1.515-0.908c-0.505-0.403-0.807-0.909-1.11-1.514C509.915,43.62,509.915,43.317,509.915,42.51z
	 M511.126,42.308c0,0.707,0.202,1.413,0.505,1.919c0.304,0.505,0.708,1.009,1.213,1.312c0.504,0.304,1.11,0.506,1.717,0.506
	c0.504,0,1.008-0.102,1.514-0.404c0.505-0.303,1.009-0.605,1.414-1.212c0.404-0.605,0.605-1.212,0.605-2.02
	c0-0.403-0.102-0.808-0.304-1.212s-0.404-0.808-0.808-1.11c-0.403-0.304-0.707-0.606-1.11-0.707
	c-0.403-0.102-0.908-0.304-1.414-0.304c-0.808,0-1.515,0.202-2.02,0.707c-0.505,0.506-0.808,0.909-1.009,1.414
	C511.229,41.702,511.126,42.005,511.126,42.308z"/>
<path d="M521.122,37.057v-2.02h1.213v2.02H521.122z M521.122,46.952v-8.885h1.213v8.885H521.122z"/>
<path d="M523.949,40.692c0-0.103,0-0.202,0-0.404c0-0.506,0.102-0.908,0.404-1.312s0.606-0.606,1.01-0.808s0.807-0.303,1.11-0.303
	s0.605,0,0.909,0.102c0.303,0.101,0.604,0.201,0.807,0.402c0.202,0.202,0.404,0.404,0.606,0.708
	c0.102,0.303,0.202,0.605,0.202,1.009h-1.213c0-0.403-0.201-0.706-0.403-0.908s-0.605-0.304-0.909-0.304
	c-0.303,0-0.605,0.102-0.909,0.304c-0.303,0.202-0.403,0.505-0.403,0.908c0,0,0,0.102,0,0.202s0,0.202,0.102,0.202
	c0.102,0.303,0.404,0.505,0.808,0.707s0.908,0.403,1.414,0.605c0.504,0.202,0.908,0.403,1.212,0.808
	c0.303,0.403,0.505,0.808,0.505,1.514c0,0.103,0,0.304,0,0.505c-0.102,0.506-0.202,1.01-0.505,1.313
	c-0.304,0.304-0.606,0.605-1.01,0.808c-0.404,0.202-0.808,0.202-1.212,0.202c-0.505,0-1.01-0.102-1.414-0.404
	s-0.707-0.605-1.009-1.01c-0.304-0.403-0.304-0.909-0.304-1.414h1.212c0,0.505,0.202,0.909,0.505,1.213
	c0.303,0.303,0.707,0.505,1.11,0.505c0.404,0,0.809-0.202,1.111-0.505c0.303-0.304,0.403-0.605,0.403-1.01
	c0-0.403-0.102-0.707-0.403-1.01c-0.303-0.303-0.605-0.504-1.111-0.604c-0.707-0.202-1.211-0.404-1.716-0.809
	C524.354,41.903,524.051,41.399,523.949,40.692z"/>
<path d="M531.625,46.952v-7.774h-1.818v-1.11h1.818v-3.131h1.211v3.131h2.02v1.11h-2.02v7.774H531.625z"/>
<path d="M536.167,46.952v-8.885h1.111v1.312c0.505-1.011,1.312-1.515,2.625-1.515v1.212c-0.304,0-0.606,0.102-0.908,0.201
	c-0.304,0.102-0.606,0.304-0.809,0.505c-0.201,0.202-0.403,0.506-0.605,0.809s-0.202,0.605-0.202,0.908v5.452H536.167z"/>
<path d="M543.539,46.649l-3.332-8.582h1.212l2.827,7.067l3.029-7.067h1.312l-5.149,11.915h-1.212L543.539,46.649z"/>
</svg>
