<?xml version="1.0" encoding="utf-8"?>
<!-- Generator: Adobe Illustrator 15.1.0, SVG Export Plug-In . SVG Version: 6.00 Build 0)  -->
<!DOCTYPE svg PUBLIC "-//W3C//DTD SVG 1.1//EN" "http://www.w3.org/Graphics/SVG/1.1/DTD/svg11.dtd">
<svg version="1.1" id="Layer_1" xmlns="http://www.w3.org/2000/svg" xmlns:xlink="http://www.w3.org/1999/xlink" x="0px" y="0px"
	 width="671px" height="60px" viewBox="0 0 671 60" enable-background="new 0 0 671 60" xml:space="preserve">
<path fill="#005DAA" d="M41.006,12.695C39.595,6.146,39.192,5.038,38.387,0c-1.008,0.201-2.217,0.301-3.325,0.301
	c-0.907,0-1.511-0.1-2.72-0.301c-3.525,6.75-4.231,7.456-10.478,18.336L14.609,30.83C9.874,38.99,4.937,46.95,0,55.011
	c1.511-0.201,3.124-0.404,4.03-0.404c1.411,0,2.519,0.202,3.526,0.404c2.72-5.644,5.642-11.285,8.765-16.726
	c3.425,0,6.851-0.101,10.176-0.101c2.922,0,5.945,0.101,8.867,0.101c1.411,5.44,2.014,11.185,2.417,16.726
	c2.115-0.201,5.037-0.404,6.65-0.404c2.217,0,4.333,0.302,6.549,0.404c-1.208-4.032-1.612-5.541-2.62-10.277l-2.115-9.369
	L41.006,12.695L41.006,12.695L41.006,12.695z M30.326,14.709l2.217,9.673l1.915,9.168c-2.822,0.101-5.643,0.101-8.464,0.101
	c-2.72,0-3.929,0-6.952-0.101L30.326,14.709L30.326,14.709L30.326,14.709z"/>
<path fill="#005DAA" d="M67.102,19.849l0.1-3.627c0.806,0,1.108-0.101,1.612-0.101c2.317,0,5.339,0.301,9.672,0.805
	c-0.201-1.107-0.201-1.51-0.201-2.317c0-1.008,0.1-1.813,0.201-3.224c-5.743,0.302-11.586,0.604-17.531,0.604
	c-5.038,0-10.075-0.301-15.112-0.504c0.301,1.109,0.301,1.411,0.301,2.72c0,0.907-0.101,1.511-0.301,2.922
	c3.828-0.503,7.757-0.806,11.586-0.806c0.1,2.72,0.1,5.34,0.1,8.061l-0.1,10.073c-0.101,6.752-0.403,13.503-0.707,20.253
	c2.016-0.303,2.722-0.303,4.636-0.303c2.217,0,3.325,0.102,5.743,0.303c-0.303-6.75-0.404-17.229-0.404-20.049L67.102,19.849
	L67.102,19.849L67.102,19.849z"/>
<path fill="#005DAA" d="M99.946,20.05c0.806-3.224,1.108-4.333,2.116-6.146c-3.225-2.217-6.146-3.022-10.377-3.022
	c-8.665,0-14.307,5.139-14.307,12.998c0,13.904,18.74,12.19,18.74,21.359c0,3.627-3.224,6.449-7.456,6.449
	c-4.735,0-7.959-2.52-8.866-6.853h-1.31c-0.302,2.318-1.007,5.34-1.814,7.859c3.527,2.014,6.348,2.719,10.378,2.719
	c10.276,0,16.624-5.44,16.624-14.105c0-13.901-18.74-12.189-18.74-21.156c0-3.224,2.922-5.643,6.75-5.643
	c3.526,0,6.146,2.015,7.355,5.542L99.946,20.05L99.946,20.05L99.946,20.05z"/>
<path fill="#005DAA" d="M105.991,54.708c2.318-0.303,3.426-0.303,5.844-0.303c4.03,0,8.06,0.303,12.091,0.303
	c13.399,0,23.374-9.068,23.374-22.67c0-6.851-2.82-13.198-7.455-16.623c-3.728-2.821-8.061-3.829-16.121-3.829
	c-4.231,0-8.462,0.302-12.694,0.302c-1.814,0-2.621-0.101-4.937-0.302c0.402,7.858,0.604,10.781,0.604,20.05
	C106.595,32.241,106.595,43.424,105.991,54.708L105.991,54.708L105.991,54.708z M135.007,42.617
	c-2.52,5.742-6.952,8.364-14.408,8.364c-1.812,0-2.619-0.102-4.634-0.202c0-5.541-0.202-11.082-0.202-16.623
	c0-6.248,0-12.495,0.403-18.741c2.52-0.302,3.729-0.302,5.24-0.302c3.627,0,6.448,0.605,8.463,1.612
	c4.534,2.418,7.254,8.161,7.254,15.819C137.022,36.873,136.116,40.2,135.007,42.617L135.007,42.617L135.007,42.617z"/>
<path fill="#005DAA" d="M149.718,46.146c-0.101,2.921-0.202,4.433-0.604,8.461c2.217-0.302,3.022-0.302,4.937-0.302
	c2.216,0,3.022,0.101,5.239,0.505c-0.303-3.728-0.303-4.837-0.303-6.852l-0.101-6.448c0-2.014-0.101-3.929-0.101-5.842
	c0-0.503,0.202-0.807,0.403-0.807c0.202,0,0.302,0.1,0.705,0.906c3.728,6.246,7.457,12.594,10.781,19.044
	c2.217-0.102,3.123-0.203,5.038-0.203c2.015,0,3.224,0.102,6.347,0.203l-2.821-4.535l-5.643-8.767
	c-2.82-4.433-3.325-5.236-5.038-8.158c5.643-1.512,10.176-4.836,10.176-11.184c0-8.262-6.549-10.881-13.601-10.881
	c-3.326,0-6.751,0.302-10.076,0.302c-1.31,0-2.216-0.101-5.642-0.302c0.302,6.548,0.403,10.175,0.403,16.623
	C149.818,41.509,149.718,45.438,149.718,46.146L149.718,46.146L149.718,46.146z M158.784,32.14
	c0.202-5.642,0.101-11.385,0.202-17.028c1.107-0.101,1.51-0.101,2.015-0.101c5.339,0,7.757,2.52,7.757,7.96
	C168.86,29.723,165.233,32.14,158.784,32.14L158.784,32.14L158.784,32.14z"/>
<path d="M192.738,39.494h1.613l6.447,14.911h-1.612l-2.217-5.038h-6.851l-2.116,5.038h-1.612L192.738,39.494z M193.645,41.207
	l-2.922,6.85h5.743L193.645,41.207z"/>
<path d="M201.906,48.864c0-1.107,0.302-2.216,0.806-3.022c0.504-0.805,1.208-1.51,2.115-2.014c0.807-0.506,1.713-0.706,2.62-0.706
	c0.706,0,1.311,0.101,1.915,0.302c0.604,0.201,1.108,0.505,1.613,0.906c0.504,0.403,0.806,0.807,1.007,1.31v-2.217h1.41v10.076
	c0,0.804-0.1,1.612-0.403,2.216c-0.303,0.604-0.706,1.209-1.209,1.612s-1.108,0.806-1.713,1.008
	c-0.604,0.202-1.31,0.302-2.015,0.302c-0.604,0-1.209-0.1-1.813-0.302c-0.604-0.201-1.209-0.402-1.713-0.805
	c-0.504-0.403-0.907-0.707-1.31-1.21c-0.403-0.504-0.605-1.108-0.807-1.714h1.411c0.402,0.807,0.906,1.512,1.612,1.915
	c0.705,0.402,1.511,0.705,2.418,0.705c0.706,0,1.411-0.1,2.015-0.404c0.604-0.301,1.109-0.704,1.511-1.309
	c0.403-0.604,0.605-1.311,0.605-2.013v-1.213c-0.907,1.613-2.317,2.42-4.333,2.42c-0.706,0-1.41-0.102-2.015-0.403
	c-0.604-0.302-1.31-0.604-1.813-1.107c-0.604-0.504-1.008-1.109-1.31-1.814C202.208,50.678,201.906,49.771,201.906,48.864z
	 M203.417,48.562c0,0.908,0.201,1.714,0.604,2.42c0.403,0.704,0.907,1.209,1.511,1.611c0.604,0.403,1.31,0.604,2.115,0.604
	c0.604,0,1.208-0.201,1.914-0.503c0.705-0.305,1.209-0.807,1.712-1.513c0.504-0.704,0.706-1.512,0.706-2.519
	c0-0.503-0.101-1.007-0.303-1.51c-0.201-0.503-0.503-0.907-0.906-1.311c-0.404-0.405-0.907-0.704-1.411-0.907
	c-0.503-0.2-1.108-0.301-1.712-0.301c-1.007,0-1.914,0.301-2.519,0.805c-0.604,0.505-1.007,1.109-1.209,1.715
	C203.72,47.757,203.417,48.158,203.417,48.562z"/>
<path d="M215.508,48.764c0-0.907,0.201-1.714,0.503-2.418c0.303-0.706,0.807-1.31,1.311-1.813c0.503-0.504,1.108-0.907,1.813-1.109
	c0.706-0.201,1.31-0.402,2.015-0.402c0.907,0,1.814,0.2,2.721,0.704c0.906,0.504,1.612,1.108,2.217,2.015
	c0.604,0.906,0.806,2.016,0.806,3.325v0.3h-9.975c0.101,0.807,0.302,1.513,0.706,2.117c0.403,0.605,1.008,1.008,1.612,1.31
	c0.604,0.303,1.209,0.404,1.813,0.404c0.503,0,1.108-0.102,1.613-0.302c0.503-0.201,1.007-0.505,1.41-0.907
	c0.403-0.402,0.705-0.807,0.908-1.208h1.51c-0.302,0.806-0.806,1.508-1.31,2.115c-0.604,0.605-1.209,1.007-2.015,1.309
	c-0.706,0.303-1.511,0.402-2.217,0.402c-1.007,0-1.914-0.302-2.72-0.806c-0.805-0.503-1.511-1.208-2.015-2.015
	C215.709,50.981,215.508,49.973,215.508,48.764z M225.482,48.057c-0.101-0.604-0.403-1.208-0.806-1.812
	c-0.404-0.604-0.907-1.007-1.511-1.31c-0.604-0.302-1.31-0.504-2.015-0.504c-0.907,0-1.712,0.201-2.318,0.706
	c-0.604,0.402-1.107,0.907-1.41,1.512c-0.302,0.502-0.503,1.007-0.503,1.407L225.482,48.057L225.482,48.057z"/>
<path d="M229.009,54.405V43.322h1.41v1.613c0.403-0.604,0.906-1.107,1.512-1.41c0.604-0.302,1.309-0.504,2.015-0.504
	c0.604,0,1.208,0.101,1.813,0.301c0.604,0.203,1.108,0.506,1.511,1.01c0.402,0.503,0.806,1.008,1.107,1.611
	c0.302,0.604,0.403,1.31,0.403,2.115v6.246h-1.511v-6.246c0-0.806-0.202-1.408-0.504-1.913c-0.302-0.505-0.705-0.907-1.311-1.21
	c-0.604-0.302-1.107-0.402-1.712-0.402c-0.604,0-1.108,0.1-1.613,0.402c-0.503,0.303-0.906,0.604-1.208,1.109
	c-0.301,0.503-0.503,1.108-0.503,1.812v6.447h-1.411L229.009,54.405L229.009,54.405z"/>
<path d="M240.898,48.864c0-0.906,0.201-1.712,0.503-2.417c0.302-0.707,0.805-1.31,1.31-1.814c0.504-0.504,1.108-0.906,1.814-1.107
	c0.705-0.303,1.31-0.404,2.015-0.404c1.31,0,2.417,0.302,3.426,0.907c1.007,0.604,1.813,1.511,2.317,2.718h-1.714
	c-0.403-0.702-0.907-1.207-1.612-1.61c-0.705-0.404-1.511-0.504-2.417-0.504c-0.806,0.1-1.612,0.302-2.217,0.703
	c-0.605,0.404-1.108,0.908-1.411,1.614c-0.301,0.604-0.503,1.31-0.503,2.016c0,0.804,0.201,1.511,0.605,2.114
	c0.402,0.604,0.906,1.207,1.612,1.613c0.705,0.402,1.411,0.604,2.216,0.604c0.805,0,1.612-0.201,2.318-0.604
	c0.705-0.406,1.208-0.908,1.612-1.412h1.613c-1.209,2.318-3.023,3.426-5.542,3.426c-0.705,0-1.511-0.1-2.216-0.403
	c-0.706-0.3-1.31-0.704-1.915-1.208c-0.604-0.504-1.007-1.108-1.31-1.814C241.099,50.578,240.797,49.771,240.898,48.864
	C240.797,48.864,240.797,48.864,240.898,48.864C240.797,48.864,240.898,48.864,240.898,48.864z"/>
<path d="M257.421,54.003l-4.232-10.681h1.613l3.526,8.767l3.728-8.767h1.612l-6.348,14.911h-1.611L257.421,54.003z"/>
<path d="M271.425,54.405v-9.672h-1.713v-1.31h1.713c0-2.619,1.411-3.929,4.232-3.929v1.41c-0.806,0-1.511,0.2-2.015,0.503
	c-0.504,0.304-0.806,0.908-0.806,1.814c0,0.1,0,0.1,0,0.201h2.721v1.31h-2.721v9.672H271.425z"/>
<path d="M276.563,48.663c0-0.705,0.202-1.412,0.504-2.115c0.302-0.706,0.705-1.31,1.208-1.814c0.504-0.503,1.108-0.905,1.915-1.208
	c0.706-0.303,1.511-0.404,2.318-0.404c0.806,0,1.612,0.201,2.519,0.706c0.907,0.503,1.51,1.107,2.114,1.913
	c0.605,0.807,0.908,1.713,1.009,2.619c0,0,0,0.102,0,0.202s0,0.201,0,0.201c0,0.806-0.202,1.612-0.504,2.318
	c-0.303,0.703-0.707,1.308-1.31,1.913c-0.504,0.505-1.21,0.906-1.915,1.209c-0.706,0.303-1.411,0.403-2.217,0.403
	c-0.907,0-1.814-0.201-2.72-0.706c-0.907-0.503-1.612-1.107-2.217-2.014C276.866,50.981,276.563,49.871,276.563,48.663z
	 M277.975,48.764c0,0.904,0.201,1.613,0.604,2.317s0.907,1.207,1.613,1.511c0.706,0.302,1.411,0.605,2.115,0.605
	c0.604,0,1.31-0.201,1.914-0.504c0.604-0.304,1.209-0.908,1.612-1.513c0.403-0.704,0.604-1.511,0.604-2.417
	c0-0.504-0.1-1.008-0.302-1.513c-0.202-0.502-0.504-1.007-0.907-1.309c-0.403-0.302-0.806-0.704-1.41-0.905
	c-0.605-0.202-1.008-0.302-1.612-0.302c-0.706,0-1.41,0.2-2.115,0.604c-0.705,0.401-1.208,0.905-1.613,1.51
	C278.075,47.453,277.975,47.958,277.975,48.764z"/>
<path d="M290.165,54.405V43.322h1.412v1.613c0.604-1.309,1.713-1.914,3.224-1.914v1.512c-0.302,0-0.705,0.1-1.108,0.2
	c-0.403,0.102-0.705,0.404-1.007,0.604c-0.302,0.202-0.604,0.605-0.706,0.907c-0.1,0.303-0.301,0.806-0.301,1.209v6.852h-1.511
	v0.101H290.165z"/>
<path d="M304.069,54.405V40.805h-3.425v-1.31h8.262v1.31h-3.426v13.601H304.069z"/>
<path d="M309.005,48.663c0-0.705,0.203-1.412,0.504-2.115c0.302-0.706,0.705-1.31,1.209-1.814c0.503-0.503,1.107-0.905,1.914-1.208
	c0.705-0.303,1.511-0.404,2.317-0.404c0.805,0,1.612,0.201,2.519,0.706c0.907,0.503,1.511,1.107,2.115,1.913
	c0.604,0.807,0.907,1.713,1.008,2.619c0,0,0,0.102,0,0.202s0,0.201,0,0.201c0,0.806-0.202,1.612-0.504,2.318
	c-0.301,0.703-0.704,1.308-1.31,1.913c-0.504,0.505-1.208,0.906-1.915,1.209c-0.706,0.303-1.41,0.403-2.217,0.403
	c-0.906,0-1.813-0.201-2.721-0.706c-0.906-0.503-1.611-1.107-2.216-2.014C309.309,50.981,309.005,49.871,309.005,48.663z
	 M310.416,48.764c0,0.904,0.201,1.613,0.604,2.317c0.403,0.704,0.907,1.207,1.613,1.511c0.705,0.302,1.41,0.605,2.115,0.605
	c0.604,0,1.31-0.201,1.915-0.504c0.604-0.304,1.208-0.908,1.612-1.513c0.404-0.704,0.605-1.511,0.605-2.417
	c0-0.504-0.101-1.008-0.303-1.513c-0.2-0.502-0.503-1.007-0.906-1.309c-0.403-0.302-0.805-0.704-1.411-0.905
	c-0.604-0.202-1.007-0.302-1.611-0.302c-0.706,0-1.41,0.2-2.116,0.604c-0.706,0.401-1.208,0.905-1.612,1.51
	C310.518,47.454,310.416,47.958,310.416,48.764z"/>
<path d="M321.499,54.405l3.729-5.641l-3.729-5.442h1.813l2.921,4.232l2.921-4.232h1.713l-3.829,5.442l3.829,5.54h-1.713
	l-2.921-4.434l-2.921,4.434h-1.813V54.405z"/>
<path d="M332.279,42.014v-2.52h1.512v2.52H332.279z M332.279,54.405V43.322h1.512v10.982h-1.512V54.405z"/>
<path d="M335.805,48.864c0-0.906,0.202-1.712,0.505-2.417c0.301-0.707,0.806-1.31,1.31-1.814c0.503-0.504,1.108-0.906,1.813-1.107
	c0.705-0.303,1.311-0.404,2.016-0.404c1.309,0,2.418,0.302,3.424,0.907c1.009,0.604,1.814,1.511,2.317,2.718h-1.711
	c-0.404-0.702-0.907-1.207-1.612-1.61c-0.706-0.404-1.512-0.504-2.418-0.504c-0.808,0.1-1.614,0.302-2.218,0.703
	c-0.604,0.404-1.109,0.908-1.411,1.614c-0.301,0.604-0.503,1.31-0.503,2.016c0,0.804,0.201,1.511,0.604,2.114
	c0.404,0.705,0.907,1.207,1.512,1.613c0.604,0.402,1.41,0.604,2.216,0.604c0.807,0,1.613-0.201,2.319-0.604
	c0.704-0.406,1.209-0.908,1.611-1.412h1.611c-1.207,2.318-3.021,3.426-5.541,3.426c-0.704,0-1.51-0.1-2.216-0.403
	c-0.706-0.302-1.311-0.704-1.914-1.208c-0.604-0.504-1.008-1.108-1.311-1.814C336.007,50.477,335.805,49.771,335.805,48.864
	L335.805,48.864L335.805,48.864z"/>
<path d="M355.653,50.174c0,0.605,0.202,1.21,0.504,1.612c0.303,0.404,0.705,0.807,1.109,1.009c0.4,0.201,1.008,0.302,1.51,0.302
	c0.504,0,0.907-0.101,1.411-0.402c0.504-0.305,0.805-0.605,1.108-1.009c0.301-0.404,0.403-0.906,0.403-1.41
	c0-0.605-0.201-1.209-0.504-1.612c-0.303-0.505-0.806-0.807-1.613-1.109c-0.806-0.303-1.612-0.504-2.418-0.805
	c-0.806-0.302-1.41-0.604-1.915-1.21c-0.503-0.503-0.705-1.309-0.705-2.317c0,0,0-0.101,0-0.201s0-0.201,0-0.201
	c0-0.704,0.303-1.311,0.604-1.914c0.403-0.504,0.906-1.008,1.512-1.309c0.605-0.304,1.31-0.405,1.915-0.405
	c0.806,0,1.509,0.203,2.116,0.605c0.604,0.403,1.106,0.906,1.408,1.51c0.302,0.605,0.504,1.21,0.504,1.714v0.201h-1.511
	c-0.101-0.806-0.401-1.41-0.905-1.814c-0.504-0.402-1.009-0.604-1.713-0.704c-0.505,0-0.907,0.101-1.311,0.302
	c-0.402,0.201-0.705,0.504-1.008,0.807c-0.201,0.302-0.402,0.705-0.402,1.106c0,0.907,0.2,1.614,0.704,1.915
	c0.505,0.404,1.31,0.706,2.318,1.008c1.108,0.303,1.915,0.706,2.619,1.109s1.109,1.208,1.411,2.318
	c0.099,0.401,0.099,0.704,0.099,0.904c0,0.505-0.099,1.008-0.302,1.513c-0.2,0.503-0.504,1.008-0.806,1.409
	c-0.402,0.404-0.806,0.806-1.409,1.007c-0.604,0.303-1.21,0.405-1.914,0.405c-0.706,0-1.311-0.102-1.916-0.304
	c-0.604-0.2-1.107-0.503-1.51-0.905c-0.403-0.403-0.704-0.908-0.906-1.41c-0.202-0.504-0.301-1.108-0.301-1.714H355.653z"/>
<path d="M364.923,49.973v-6.55h1.51v6.348c0,1.109,0.304,2.014,1.009,2.618c0.705,0.605,1.409,0.907,2.318,1.009
	c0.604,0,1.207-0.2,1.711-0.504c0.504-0.302,0.908-0.705,1.211-1.31c0.302-0.605,0.503-1.311,0.503-2.114v-6.047h1.511v10.982h-1.41
	v-1.712c-0.302,0.604-0.805,1.106-1.511,1.509c-0.705,0.404-1.41,0.504-2.116,0.504c-0.806,0-1.511-0.199-2.317-0.503
	c-0.806-0.303-1.31-0.906-1.712-1.612C365.226,51.887,364.923,50.88,364.923,49.973z"/>
<path d="M377.113,54.405V39.494h1.511v5.943c0.403-0.704,0.907-1.207,1.714-1.61c0.806-0.404,1.611-0.706,2.519-0.706
	c1.108,0,2.115,0.302,3.021,0.807c0.908,0.503,1.612,1.209,2.116,2.013c0.503,0.806,0.806,1.715,0.806,2.521
	c0,1.108-0.201,2.116-0.704,3.022c-0.404,0.905-1.11,1.714-1.916,2.217c-0.805,0.604-1.812,0.906-3.021,0.906
	c-0.706,0-1.311-0.1-1.915-0.302c-0.604-0.201-1.107-0.404-1.611-0.705c-0.504-0.302-0.807-0.705-1.108-1.21v1.915h-1.411
	L377.113,54.405L377.113,54.405z M378.523,48.562c0,0.604,0.101,1.209,0.302,1.815c0.202,0.503,0.403,1.007,0.807,1.51
	c0.402,0.401,0.806,0.807,1.411,1.008c0.604,0.202,1.309,0.403,2.114,0.403c0.705,0,1.41-0.201,2.016-0.604
	c0.604-0.406,1.107-0.908,1.509-1.613c0.405-0.704,0.605-1.51,0.605-2.317c0-0.605-0.101-1.108-0.403-1.613
	c-0.202-0.502-0.604-0.906-1.008-1.31s-0.905-0.704-1.409-0.906c-0.505-0.201-1.109-0.302-1.613-0.302
	c-0.604,0-1.208,0.202-1.914,0.505c-0.705,0.3-1.31,0.805-1.713,1.41C378.726,46.95,378.523,47.656,378.523,48.562z"/>
<path d="M390.412,46.548c0-0.101,0-0.303,0-0.402c0-0.606,0.202-1.211,0.506-1.613c0.301-0.504,0.704-0.807,1.209-1.009
	c0.503-0.202,0.905-0.302,1.41-0.302c0.402,0,0.704,0.101,1.108,0.201c0.403,0.101,0.704,0.302,1.008,0.605
	c0.302,0.2,0.504,0.604,0.704,0.905c0.203,0.302,0.303,0.806,0.303,1.311h-1.511c0-0.505-0.202-0.907-0.504-1.209
	c-0.303-0.202-0.706-0.403-1.108-0.403c-0.403,0-0.807,0.1-1.109,0.403c-0.301,0.302-0.504,0.604-0.504,1.108
	c0,0,0,0.101,0.102,0.201c0,0.202,0.102,0.301,0.102,0.301c0.1,0.404,0.401,0.706,1.007,0.907c0.604,0.201,1.208,0.503,1.812,0.705
	c0.604,0.201,1.108,0.604,1.512,1.008c0.401,0.402,0.604,1.008,0.604,1.913c0,0.102,0,0.303,0,0.605
	c-0.102,0.704-0.303,1.21-0.705,1.715c-0.403,0.502-0.807,0.804-1.31,0.904c-0.504,0.201-1.008,0.302-1.511,0.302
	c-0.706,0-1.31-0.2-1.814-0.504c-0.504-0.302-0.906-0.704-1.209-1.209c-0.302-0.504-0.403-1.107-0.403-1.713h1.512
	c0,0.605,0.201,1.108,0.604,1.51c0.403,0.405,0.906,0.606,1.41,0.606s1.008-0.201,1.31-0.606c0.403-0.402,0.503-0.805,0.503-1.309
	c0-0.403-0.1-0.905-0.402-1.209c-0.303-0.403-0.706-0.604-1.41-0.806c-0.807-0.201-1.51-0.504-2.115-0.906
	C390.917,48.158,390.412,47.354,390.412,46.548z"/>
<path d="M399.984,54.405v-9.672h-2.317v-1.31h2.317v-3.929h1.512v3.929h2.517v1.31h-2.517v9.672H399.984z"/>
<path d="M405.122,48.966c0-0.907,0.2-1.715,0.504-2.418c0.303-0.706,0.808-1.31,1.31-1.915c0.605-0.504,1.209-0.906,1.915-1.209
	c0.704-0.302,1.409-0.403,2.114-0.403c2.017,0,3.427,0.807,4.333,2.417v-2.115h1.41v10.982h-1.41V52.19
	c-0.403,0.704-1.008,1.311-1.812,1.712c-0.808,0.402-1.715,0.605-2.621,0.605c-0.705,0-1.511-0.203-2.216-0.404
	c-0.706-0.301-1.311-0.603-1.814-1.107c-0.503-0.504-1.009-1.108-1.31-1.814C405.222,50.478,405.122,49.771,405.122,48.966z
	 M406.634,48.562c0,0.908,0.201,1.714,0.604,2.42c0.404,0.704,0.906,1.209,1.613,1.611c0.704,0.403,1.31,0.604,2.115,0.604
	c0.805,0,1.611-0.201,2.317-0.604c0.705-0.402,1.209-0.905,1.612-1.611c0.402-0.706,0.604-1.312,0.604-2.016
	c0-0.806-0.202-1.512-0.604-2.116c-0.403-0.604-0.906-1.209-1.512-1.611c-0.705-0.403-1.408-0.605-2.115-0.605
	c-0.806,0-1.612,0.202-2.317,0.605c-0.705,0.402-1.209,0.907-1.612,1.611C406.937,47.556,406.634,48.057,406.634,48.562z"/>
<path d="M419.329,54.405V43.322h1.408v1.613c0.405-0.604,0.908-1.107,1.512-1.41c0.605-0.302,1.31-0.504,2.016-0.504
	c0.604,0,1.209,0.101,1.814,0.301c0.603,0.203,1.107,0.506,1.509,1.01c0.402,0.503,0.808,1.008,1.109,1.611
	c0.302,0.604,0.402,1.31,0.402,2.115v6.246h-1.41v-6.246c0-0.806-0.201-1.408-0.503-1.913s-0.705-0.907-1.309-1.21
	c-0.506-0.302-1.11-0.402-1.714-0.402c-0.605,0-1.108,0.1-1.613,0.402c-0.504,0.303-0.905,0.604-1.209,1.109
	c-0.302,0.503-0.503,1.108-0.503,1.812v6.447h-1.511L419.329,54.405L419.329,54.405z"/>
<path d="M431.217,48.864c0-0.906,0.202-1.712,0.505-2.417c0.301-0.707,0.805-1.31,1.31-1.814c0.504-0.504,1.108-0.906,1.814-1.107
	c0.704-0.303,1.308-0.404,2.014-0.404c1.31,0,2.418,0.302,3.427,0.907c1.008,0.604,1.813,1.511,2.317,2.718h-1.714
	c-0.403-0.702-0.905-1.207-1.612-1.61c-0.705-0.404-1.511-0.504-2.418-0.504c-0.805,0.1-1.612,0.302-2.218,0.703
	c-0.604,0.404-1.107,0.908-1.41,1.614c-0.299,0.604-0.503,1.31-0.503,2.016c0,0.804,0.203,1.511,0.604,2.114
	c0.403,0.705,0.907,1.207,1.511,1.613c0.605,0.402,1.41,0.604,2.218,0.604c0.806,0,1.611-0.201,2.317-0.604
	c0.705-0.406,1.207-0.908,1.612-1.412h1.612c-1.21,2.318-3.023,3.426-5.541,3.426c-0.707,0-1.512-0.1-2.218-0.403
	c-0.705-0.3-1.31-0.704-1.912-1.208c-0.606-0.504-1.011-1.108-1.311-1.814C431.319,50.577,431.117,49.771,431.217,48.864
	L431.217,48.864L431.217,48.864z"/>
<path d="M444.214,48.764c0-0.907,0.203-1.714,0.505-2.418c0.301-0.706,0.805-1.31,1.311-1.813c0.504-0.504,1.107-0.907,1.813-1.109
	c0.704-0.302,1.309-0.402,2.014-0.402c0.906,0,1.812,0.2,2.72,0.704c0.906,0.504,1.612,1.108,2.218,2.015
	c0.604,0.906,0.806,2.016,0.806,3.325v0.3h-9.976c0.103,0.807,0.303,1.513,0.706,2.117c0.403,0.605,1.008,1.008,1.613,1.31
	c0.604,0.303,1.208,0.404,1.813,0.404c0.503,0,1.108-0.102,1.612-0.302c0.503-0.201,1.007-0.505,1.411-0.907
	c0.4-0.402,0.704-0.807,0.905-1.208h1.512c-0.303,0.806-0.807,1.508-1.311,2.115c-0.604,0.605-1.209,1.007-2.016,1.309
	c-0.704,0.303-1.51,0.402-2.216,0.402c-1.009,0-1.915-0.302-2.721-0.806c-0.807-0.503-1.511-1.208-2.015-2.015
	C444.417,50.981,444.214,49.973,444.214,48.764z M454.188,48.057c-0.101-0.604-0.402-1.208-0.806-1.812
	c-0.403-0.504-0.905-1.007-1.511-1.31c-0.604-0.302-1.31-0.504-2.015-0.504c-0.907,0-1.713,0.201-2.318,0.706
	c-0.604,0.402-1.107,0.907-1.41,1.512c-0.3,0.502-0.504,1.007-0.504,1.407L454.188,48.057L454.188,48.057z"/>
<path d="M457.212,46.548c0-0.101,0-0.303,0-0.402c0-0.606,0.2-1.211,0.505-1.613c0.301-0.504,0.703-0.807,1.208-1.009
	c0.504-0.201,0.906-0.302,1.409-0.302c0.404,0,0.705,0.101,1.109,0.201c0.403,0.101,0.705,0.302,1.008,0.605
	c0.303,0.2,0.503,0.604,0.705,0.905s0.302,0.806,0.302,1.311h-1.511c0-0.505-0.201-0.907-0.504-1.209
	c-0.302-0.202-0.705-0.403-1.109-0.403c-0.402,0-0.805,0.1-1.107,0.403c-0.303,0.3-0.505,0.604-0.505,1.108c0,0,0,0.101,0.103,0.201
	c0,0.202,0.1,0.301,0.1,0.301c0.101,0.404,0.404,0.706,1.008,0.907s1.21,0.503,1.813,0.705c0.604,0.201,1.107,0.604,1.512,1.008
	c0.403,0.402,0.604,1.008,0.604,1.913c0,0.102,0,0.303,0,0.605c-0.101,0.704-0.303,1.21-0.706,1.715
	c-0.403,0.502-0.806,0.804-1.31,0.904c-0.503,0.201-1.008,0.302-1.512,0.302c-0.704,0-1.31-0.2-1.812-0.504
	c-0.504-0.302-0.907-0.704-1.21-1.209c-0.301-0.504-0.401-1.107-0.401-1.713h1.508c0,0.605,0.202,1.108,0.606,1.51
	c0.403,0.405,0.905,0.606,1.409,0.606c0.506,0,1.009-0.201,1.311-0.606c0.403-0.402,0.505-0.805,0.505-1.309
	c0-0.403-0.102-0.905-0.404-1.209c-0.303-0.403-0.704-0.604-1.411-0.806c-0.804-0.201-1.511-0.504-2.114-0.906
	C457.716,48.158,457.312,47.354,457.212,46.548z"/>
<path d="M470.711,48.966c0-0.907,0.201-1.715,0.504-2.418c0.302-0.706,0.806-1.31,1.311-1.915c0.604-0.504,1.21-0.906,1.913-1.209
	c0.706-0.302,1.411-0.403,2.117-0.403c2.014,0,3.425,0.807,4.332,2.417v-2.115h1.41v10.982h-1.41V52.19
	c-0.403,0.704-1.009,1.311-1.813,1.712c-0.808,0.402-1.714,0.605-2.62,0.605c-0.706,0-1.511-0.203-2.216-0.404
	c-0.706-0.301-1.311-0.603-1.813-1.107c-0.505-0.504-1.011-1.108-1.31-1.814C470.812,50.478,470.711,49.771,470.711,48.966z
	 M472.224,48.562c0,0.908,0.202,1.714,0.604,2.42c0.405,0.704,0.908,1.209,1.613,1.611c0.705,0.403,1.309,0.604,2.116,0.604
	c0.805,0,1.61-0.201,2.316-0.604c0.706-0.402,1.208-0.905,1.612-1.611c0.403-0.706,0.606-1.312,0.606-2.016
	c0-0.806-0.203-1.512-0.606-2.116c-0.404-0.604-0.906-1.209-1.511-1.611c-0.705-0.403-1.41-0.605-2.115-0.605
	c-0.807,0-1.612,0.202-2.317,0.605c-0.705,0.402-1.21,0.907-1.613,1.611C472.526,47.556,472.224,48.057,472.224,48.562z"/>
<path d="M484.918,54.405V43.322h1.41v1.613c0.402-0.604,0.905-1.107,1.512-1.41c0.604-0.302,1.31-0.504,2.014-0.504
	c0.605,0,1.209,0.101,1.813,0.301c0.604,0.203,1.108,0.506,1.511,1.01c0.402,0.503,0.806,1.008,1.108,1.611
	c0.303,0.604,0.404,1.31,0.404,2.115v6.246h-1.512v-6.246c0-0.806-0.2-1.408-0.504-1.913c-0.302-0.505-0.704-0.907-1.311-1.21
	c-0.504-0.302-1.106-0.402-1.712-0.402c-0.604,0-1.108,0.1-1.612,0.402c-0.503,0.303-0.907,0.604-1.209,1.109
	c-0.301,0.503-0.505,1.108-0.505,1.812v6.447h-1.409L484.918,54.405L484.918,54.405z"/>
<path d="M496.807,48.36c0.101-1.007,0.404-1.913,1.009-2.72c0.604-0.806,1.209-1.41,2.115-1.812c0.805-0.404,1.712-0.706,2.62-0.706
	c0.904,0,1.812,0.2,2.619,0.505c0.805,0.302,1.509,0.906,2.015,1.713v-5.844h1.51v14.91h-1.41v-2.118
	c-0.505,0.808-1.108,1.412-1.914,1.715c-0.705,0.402-1.613,0.604-2.72,0.604c-0.906,0-1.814-0.302-2.72-0.806
	c-0.906-0.503-1.612-1.208-2.217-2.015c-0.605-0.904-0.807-1.813-0.807-2.922C496.807,48.663,496.807,48.462,496.807,48.36z
	 M498.318,48.261c0,0.1,0,0.301,0,0.604c0,0.707,0.202,1.411,0.604,2.117c0.402,0.704,0.905,1.209,1.512,1.611
	c0.704,0.403,1.409,0.604,2.216,0.604c0.705,0,1.41-0.201,2.114-0.503c0.706-0.406,1.21-0.908,1.714-1.613
	c0.403-0.704,0.605-1.51,0.605-2.418c0-0.505-0.202-1.008-0.505-1.713c-0.304-0.706-0.806-1.21-1.511-1.713
	c-0.705-0.504-1.512-0.705-2.518-0.705c-0.505,0-1.108,0.1-1.715,0.402c-0.604,0.202-1.108,0.604-1.613,1.211
	C498.822,46.648,498.419,47.354,498.318,48.261z"/>
<path d="M516.856,54.405V39.494h4.03c1.41,0,2.618,0.202,3.727,0.604c1.11,0.403,2.016,0.906,2.723,1.613
	c0.703,0.704,1.207,1.51,1.611,2.417c0.403,0.907,0.505,1.915,0.505,2.922c0,1.109-0.202,2.115-0.707,3.023
	c-0.403,0.907-1.008,1.712-1.713,2.315c-0.704,0.606-1.611,1.111-2.519,1.411c-0.906,0.303-1.913,0.504-2.822,0.504h-4.835V54.405
	L516.856,54.405z M518.368,40.805v12.191h2.317c2.116,0,3.729-0.504,5.139-1.411c1.31-1.006,2.115-2.417,2.216-4.533
	c0-0.806-0.101-1.614-0.403-2.418c-0.3-0.705-0.705-1.41-1.309-2.014c-0.604-0.606-1.31-1.008-2.218-1.41
	c-0.906-0.303-1.916-0.506-3.123-0.506h-2.619V40.805z"/>
<path d="M531.565,42.014v-2.52h1.511v2.52H531.565z M531.565,54.405V43.322h1.511v10.982h-1.511V54.405z"/>
<path d="M535.092,46.548c0-0.101,0-0.303,0-0.402c0-0.606,0.202-1.211,0.505-1.613c0.302-0.504,0.705-0.807,1.21-1.009
	c0.503-0.202,0.905-0.302,1.409-0.302c0.403,0,0.705,0.101,1.109,0.201c0.402,0.101,0.703,0.302,1.007,0.605
	c0.302,0.2,0.504,0.604,0.705,0.905c0.203,0.302,0.302,0.806,0.302,1.311h-1.51c0-0.505-0.202-0.907-0.504-1.209
	c-0.304-0.202-0.706-0.403-1.109-0.403c-0.402,0-0.807,0.1-1.108,0.403c-0.302,0.302-0.505,0.604-0.505,1.108
	c0,0,0,0.101,0.103,0.201c0,0.202,0.101,0.301,0.101,0.301c0.1,0.404,0.402,0.706,1.008,0.907c0.604,0.201,1.208,0.503,1.812,0.705
	c0.605,0.201,1.109,0.604,1.511,1.008c0.402,0.402,0.605,1.008,0.605,1.913c0,0.102,0,0.303,0,0.605
	c-0.102,0.704-0.303,1.21-0.706,1.715c-0.402,0.502-0.805,0.804-1.31,0.904c-0.504,0.201-1.009,0.302-1.511,0.302
	c-0.706,0-1.31-0.2-1.813-0.504c-0.504-0.302-0.906-0.704-1.209-1.209c-0.303-0.504-0.403-1.107-0.403-1.713h1.511
	c0,0.605,0.201,1.108,0.604,1.51c0.403,0.405,0.906,0.606,1.411,0.606c0.503,0,1.007-0.201,1.309-0.606
	c0.401-0.402,0.504-0.805,0.504-1.309c0-0.403-0.103-0.905-0.403-1.209c-0.302-0.403-0.705-0.604-1.409-0.806
	c-0.808-0.201-1.511-0.504-2.116-0.906C535.596,48.158,535.193,47.354,535.092,46.548z"/>
<path d="M543.052,48.764c0-0.907,0.2-1.714,0.504-2.418c0.302-0.706,0.806-1.31,1.31-1.813s1.108-0.907,1.814-1.109
	c0.703-0.302,1.308-0.402,2.013-0.402c0.908,0,1.813,0.2,2.721,0.704c0.906,0.504,1.612,1.108,2.217,2.015s0.805,2.016,0.805,3.325
	v0.3h-9.974c0.101,0.807,0.303,1.513,0.707,2.117c0.4,0.605,1.007,1.008,1.611,1.31c0.604,0.303,1.209,0.404,1.812,0.404
	c0.505,0,1.11-0.102,1.613-0.302c0.504-0.201,1.008-0.505,1.41-0.907s0.705-0.807,0.905-1.208h1.512
	c-0.301,0.806-0.805,1.508-1.31,2.115c-0.604,0.605-1.21,1.007-2.014,1.309c-0.707,0.303-1.511,0.402-2.219,0.402
	c-1.007,0-1.913-0.302-2.72-0.806c-0.805-0.503-1.511-1.208-2.015-2.015C543.253,50.981,543.052,49.973,543.052,48.764z
	 M553.026,48.057c-0.102-0.604-0.403-1.208-0.805-1.812c-0.405-0.504-0.908-1.007-1.511-1.31c-0.606-0.302-1.311-0.504-2.016-0.504
	c-0.906,0-1.713,0.201-2.318,0.706c-0.604,0.402-1.107,0.907-1.409,1.512c-0.303,0.502-0.505,1.007-0.505,1.407L553.026,48.057
	L553.026,48.057z"/>
<path d="M556.049,48.966c0-0.907,0.201-1.715,0.504-2.418c0.301-0.706,0.805-1.31,1.311-1.915c0.604-0.504,1.209-0.906,1.913-1.209
	c0.705-0.302,1.41-0.403,2.116-0.403c2.014,0,3.425,0.807,4.332,2.417v-2.115h1.411v10.982h-1.411V52.19
	c-0.403,0.704-1.007,1.311-1.813,1.712c-0.806,0.402-1.713,0.605-2.619,0.605c-0.706,0-1.511-0.203-2.216-0.404
	c-0.707-0.301-1.31-0.603-1.813-1.107c-0.507-0.504-1.011-1.108-1.311-1.814C556.15,50.478,556.049,49.771,556.049,48.966z
	 M557.56,48.562c0,0.908,0.203,1.714,0.605,2.42c0.402,0.704,0.906,1.209,1.611,1.611c0.705,0.403,1.31,0.604,2.116,0.604
	c0.806,0,1.612-0.201,2.317-0.604c0.705-0.402,1.208-0.905,1.612-1.611c0.402-0.706,0.604-1.312,0.604-2.016
	c0-0.806-0.201-1.512-0.604-2.116c-0.404-0.604-0.907-1.209-1.512-1.611c-0.704-0.403-1.41-0.605-2.113-0.605
	c-0.808,0-1.614,0.202-2.319,0.605c-0.705,0.402-1.209,0.907-1.61,1.611C557.863,47.556,557.56,48.057,557.56,48.562z"/>
<path d="M569.851,46.548c0-0.101,0-0.303,0-0.402c0-0.606,0.203-1.211,0.504-1.613c0.303-0.504,0.707-0.807,1.211-1.009
	s0.905-0.302,1.409-0.302c0.404,0,0.707,0.101,1.108,0.201c0.403,0.101,0.706,0.302,1.01,0.605c0.3,0.2,0.503,0.604,0.704,0.905
	s0.302,0.806,0.302,1.311h-1.511c0-0.505-0.202-0.907-0.505-1.209c-0.301-0.202-0.704-0.403-1.108-0.403
	c-0.403,0-0.805,0.1-1.107,0.403c-0.303,0.302-0.504,0.604-0.504,1.108c0,0,0,0.101,0.1,0.201c0,0.202,0.102,0.301,0.102,0.301
	c0.1,0.404,0.402,0.706,1.007,0.907c0.606,0.201,1.209,0.503,1.813,0.705c0.606,0.201,1.109,0.604,1.511,1.008
	c0.403,0.402,0.604,1.008,0.604,1.913c0,0.102,0,0.303,0,0.605c-0.1,0.704-0.301,1.21-0.704,1.715
	c-0.404,0.502-0.805,0.804-1.31,0.904c-0.504,0.201-1.008,0.302-1.513,0.302c-0.705,0-1.309-0.2-1.812-0.504
	c-0.504-0.302-0.906-0.704-1.209-1.209c-0.303-0.504-0.403-1.107-0.403-1.713h1.512c0,0.605,0.2,1.108,0.604,1.51
	c0.404,0.405,0.906,0.606,1.411,0.606c0.503,0,1.007-0.201,1.309-0.606c0.403-0.402,0.504-0.805,0.504-1.309
	c0-0.403-0.101-0.905-0.401-1.209c-0.303-0.403-0.707-0.604-1.411-0.806c-0.808-0.201-1.511-0.504-2.116-0.906
	C570.354,48.158,569.952,47.354,569.851,46.548z"/>
<path d="M577.711,48.764c0-0.907,0.2-1.714,0.503-2.418c0.303-0.706,0.807-1.31,1.311-1.813s1.108-0.907,1.812-1.109
	c0.707-0.302,1.31-0.402,2.016-0.402c0.906,0,1.813,0.2,2.721,0.704c0.905,0.504,1.61,1.108,2.216,2.015s0.806,2.016,0.806,3.325
	v0.3h-9.974c0.101,0.807,0.302,1.513,0.704,2.117c0.404,0.605,1.007,1.008,1.613,1.31c0.606,0.303,1.209,0.404,1.813,0.404
	c0.503,0,1.108-0.102,1.612-0.302c0.503-0.201,1.007-0.505,1.412-0.907c0.401-0.402,0.704-0.807,0.904-1.208h1.512
	c-0.302,0.806-0.807,1.508-1.311,2.115c-0.604,0.605-1.208,1.007-2.016,1.309c-0.703,0.303-1.51,0.402-2.216,0.402
	c-1.009,0-1.914-0.302-2.719-0.806c-0.807-0.503-1.512-1.208-2.017-2.015C578.013,50.981,577.711,49.973,577.711,48.764z
	 M587.684,48.057c-0.099-0.604-0.401-1.208-0.805-1.812c-0.403-0.504-0.905-1.007-1.512-1.31c-0.604-0.302-1.309-0.504-2.014-0.504
	c-0.907,0-1.714,0.201-2.317,0.706c-0.604,0.402-1.108,0.907-1.41,1.512c-0.304,0.502-0.504,1.007-0.504,1.407L587.684,48.057
	L587.684,48.057z"/>
<path d="M597.055,54.405V39.494h4.03c1.209,0,2.216,0.103,3.022,0.403c0.806,0.302,1.41,0.706,1.814,1.108
	c0.402,0.503,0.705,0.906,0.906,1.41s0.302,1.008,0.302,1.612c0,0.807-0.201,1.612-0.604,2.318c-0.404,0.704-0.907,1.31-1.613,1.712
	c-0.704,0.403-1.409,0.604-2.317,0.604l4.232,5.542h-1.914l-5.036-6.751h1.207c0.906,0,1.713-0.101,2.317-0.403
	c0.706-0.302,1.208-0.604,1.512-1.108c0.403-0.505,0.504-1.107,0.504-1.813c0-0.705-0.202-1.31-0.604-1.812
	c-0.403-0.505-0.906-0.908-1.512-1.211c-0.604-0.301-1.309-0.402-2.014-0.402h-3.023v13.5h-1.209V54.405L597.055,54.405z"/>
<path d="M608.642,48.764c0-0.907,0.2-1.714,0.503-2.418c0.303-0.706,0.807-1.31,1.31-1.813c0.505-0.504,1.11-0.907,1.814-1.109
	c0.706-0.302,1.309-0.402,2.016-0.402c0.905,0,1.812,0.2,2.72,0.704c0.906,0.504,1.61,1.108,2.216,2.015s0.806,2.016,0.806,3.325
	v0.3h-9.974c0.099,0.807,0.303,1.513,0.705,2.117c0.403,0.605,1.007,1.008,1.613,1.31c0.604,0.303,1.208,0.404,1.812,0.404
	c0.504,0,1.109-0.102,1.613-0.302c0.503-0.201,1.007-0.505,1.41-0.907c0.402-0.402,0.705-0.807,0.905-1.208h1.512
	c-0.302,0.806-0.807,1.508-1.31,2.115c-0.605,0.605-1.209,1.007-2.016,1.309c-0.704,0.303-1.51,0.402-2.217,0.402
	c-1.009,0-1.914-0.302-2.719-0.806c-0.806-0.503-1.511-1.208-2.017-2.015C608.943,50.981,608.642,49.973,608.642,48.764z
	 M618.614,48.057c-0.1-0.604-0.401-1.208-0.804-1.812c-0.403-0.504-0.906-1.007-1.512-1.31c-0.604-0.302-1.31-0.504-2.015-0.504
	c-0.906,0-1.713,0.201-2.318,0.706c-0.603,0.402-1.106,0.907-1.409,1.512c-0.303,0.502-0.503,1.007-0.503,1.407L618.614,48.057
	L618.614,48.057z"/>
<path d="M621.739,48.864c0-1.107,0.302-2.216,0.806-3.022c0.503-0.906,1.209-1.51,2.115-2.014c0.806-0.506,1.713-0.706,2.619-0.706
	c0.705,0,1.31,0.101,1.915,0.302c0.603,0.201,1.107,0.505,1.612,0.906c0.504,0.403,0.804,0.807,1.008,1.31v-2.217h1.41v10.076
	c0,0.804-0.102,1.612-0.404,2.216c-0.302,0.604-0.705,1.209-1.21,1.612c-0.502,0.403-1.106,0.806-1.713,1.008
	c-0.604,0.202-1.309,0.302-2.014,0.302c-0.604,0-1.209-0.1-1.813-0.302c-0.604-0.201-1.209-0.402-1.713-0.805
	c-0.503-0.403-0.908-0.707-1.311-1.21c-0.403-0.504-0.604-1.108-0.805-1.714h1.411c0.402,0.807,0.904,1.512,1.611,1.915
	c0.705,0.402,1.512,0.705,2.418,0.705c0.705,0,1.409-0.1,2.016-0.404c0.604-0.301,1.108-0.704,1.51-1.309
	c0.402-0.604,0.605-1.311,0.605-2.013v-1.213c-0.907,1.613-2.318,2.42-4.334,2.42c-0.703,0-1.409-0.102-2.014-0.403
	c-0.706-0.302-1.311-0.604-1.812-1.107c-0.505-0.504-1.01-1.109-1.311-1.814C622.041,50.678,621.739,49.771,621.739,48.864z
	 M623.25,48.562c0,0.908,0.201,1.714,0.605,2.42c0.402,0.704,0.904,1.209,1.509,1.611c0.605,0.403,1.311,0.604,2.115,0.604
	c0.606,0,1.21-0.201,1.916-0.503c0.704-0.305,1.208-0.807,1.713-1.513c0.502-0.704,0.705-1.512,0.705-2.519
	c0-0.503-0.102-1.007-0.303-1.51c-0.2-0.503-0.503-0.907-0.906-1.311c-0.402-0.405-0.905-0.704-1.409-0.907
	c-0.504-0.2-1.109-0.301-1.715-0.301c-1.006,0-1.915,0.301-2.518,0.805c-0.604,0.505-1.007,1.109-1.209,1.715
	C623.552,47.758,623.25,48.158,623.25,48.562z"/>
<path d="M635.743,42.014v-2.52h1.511v2.52H635.743z M635.743,54.405V43.322h1.511v10.982h-1.511V54.405z"/>
<path d="M639.27,46.548c0-0.101,0-0.303,0-0.402c0-0.606,0.201-1.211,0.503-1.613c0.303-0.504,0.705-0.807,1.21-1.009
	c0.504-0.201,0.906-0.302,1.409-0.302c0.405,0,0.707,0.101,1.109,0.201s0.705,0.302,1.007,0.605c0.303,0.2,0.505,0.604,0.707,0.905
	c0.201,0.302,0.301,0.806,0.301,1.311h-1.512c0-0.505-0.199-0.907-0.503-1.209c-0.301-0.202-0.705-0.403-1.109-0.403
	c-0.402,0-0.805,0.1-1.107,0.403c-0.304,0.302-0.504,0.604-0.504,1.108c0,0,0,0.101,0.102,0.201c0,0.202,0.099,0.301,0.099,0.301
	c0.102,0.404,0.404,0.706,1.009,0.907c0.604,0.201,1.21,0.503,1.814,0.705c0.604,0.201,1.108,0.604,1.51,1.008
	c0.403,0.402,0.605,1.008,0.605,1.913c0,0.102,0,0.303,0,0.605c-0.102,0.704-0.302,1.21-0.706,1.715
	c-0.403,0.502-0.806,0.804-1.311,0.904c-0.503,0.201-1.008,0.302-1.511,0.302c-0.703,0-1.31-0.2-1.812-0.504
	c-0.504-0.302-0.905-0.704-1.208-1.209c-0.303-0.504-0.405-1.107-0.405-1.713h1.511c0,0.605,0.202,1.108,0.605,1.51
	c0.403,0.405,0.906,0.606,1.41,0.606c0.505,0,1.008-0.201,1.311-0.606c0.402-0.402,0.503-0.805,0.503-1.309
	c0-0.403-0.101-0.905-0.404-1.209c-0.3-0.403-0.704-0.604-1.409-0.806c-0.805-0.201-1.512-0.504-2.115-0.906
	C639.772,48.158,639.371,47.354,639.27,46.548z"/>
<path d="M648.84,54.405v-9.672h-2.316v-1.31h2.316v-3.929h1.513v3.929h2.518v1.31h-2.518v9.672H648.84z"/>
<path d="M654.483,54.405V43.322h1.41v1.613c0.604-1.309,1.713-1.914,3.225-1.914v1.512c-0.303,0-0.706,0.1-1.11,0.2
	c-0.402,0.102-0.704,0.404-1.007,0.604c-0.302,0.303-0.604,0.605-0.705,0.907c-0.101,0.303-0.302,0.806-0.302,1.209v6.852h-1.511
	V54.405z"/>
<path d="M663.651,54.003l-4.232-10.681h1.614l3.525,8.767l3.728-8.767h1.612l-6.446,14.911h-1.613L663.651,54.003z"/>
</svg>
