<?xml version="1.0" encoding="utf-8"?>
<svg version="1.1" xmlns:xlink="http://www.w3.org/1999/xlink" width="42px" height="36px" xmlns="http://www.w3.org/2000/svg">
  <g transform="matrix(1 0 0 1 -423 -1728 )">
    <path d="M 41.0420169492105 32.67999999999999  C 41.0420169492105 31.741041978251474  40.66687359499184 30.84100058616354  40 30.18  L 23.49 2  C 22.828999413836453 1.3331264050081528  21.92895802174852 0.9579830507894922  20.99 0.9579830507894922  C 20.05104197825148 0.9579830507894922  19.151000586163537 1.333126405008152  18.49 2  L 2 30.18  C 1.3331264050081548 30.84100058616354  0.9579830507894933 31.741041978251474  0.9579830507894933 32.67999999999999  C 0.9579830507894933 33.61895802174851  1.3331264050081528 34.518999413836454  2 35  L 40 35  C 40.66687359499185 34.51899941383645  41.0420169492105 33.61895802174852  41.0420169492105 32.67999999999999  Z M 19.48 21.310000000000002  L 19.48 12.1  C 19.4633594566995 11.99574520691177  19.455 11.890336468690432  19.455 11.784761994677035  C 19.455 10.680192495015449  20.350430500338412 9.784761994677035  21.455 9.784761994677035  C 22.559569499661585 9.784761994677035  23.455 10.680192495015449  23.455 11.784761994677035  C 23.455 11.890336468690432  23.446640543300504 11.99574520691177  23.43 12.1  L 23.43 21.310000000000002  C 23.275079918103227 22.280590971201807  22.437876932862586 22.994761994677038  21.455 22.994761994677038  C 20.47212306713741 22.994761994677038  19.634920081896777 22.280590971201807  19.48 21.310000000000002  Z M 21.47 29.88  L 21.48 29.880000000000003  C 20.375430500338414 29.880000000000003  19.48 28.98456949966159  19.48 27.880000000000003  C 19.48 26.775430500338416  20.375430500338414 25.880000000000003  21.48 25.880000000000003  C 22.584569499661587 25.880000000000003  23.479999999999997 26.775430500338416  23.479999999999997 27.880000000000003  C 23.480000000156252 28.98459449981862  22.58456949981784 29.880025000157033  21.480000000156252 29.880025000157033  C 21.47666665114549 29.880025000157033  21.473333307343637 29.880016666745313  21.47 29.88  Z " fill-rule="nonzero" fill="#fbab18" stroke="none" transform="matrix(1 0 0 1 423 1728 )" />
  </g>
</svg>