<?xml version="1.0" encoding="utf-8"?>
<svg version="1.1" xmlns:xlink="http://www.w3.org/1999/xlink" width="25px" height="25px" xmlns="http://www.w3.org/2000/svg">
  <g transform="matrix(1 0 0 1 -2886 -240 )">
    <path d="M 2898.5 240  C 2905.5 240  2911 245.5  2911 252.5  C 2911 259.5  2905.5 265  2898.5 265  C 2891.5 265  2886 259.5  2886 252.5  C 2886 245.5  2891.5 240  2898.5 240  Z " fill-rule="nonzero" fill="#ffffff" stroke="none" />
    <path d="M 2898.5 240.5  C 2905.22 240.5  2910.5 245.78  2910.5 252.5  C 2910.5 259.22  2905.22 264.5  2898.5 264.5  C 2891.78 264.5  2886.5 259.22  2886.5 252.5  C 2886.5 245.78  2891.78 240.5  2898.5 240.5  Z " stroke-width="1" stroke="#333333" fill="none" />
  </g>
</svg>