<?xml version="1.0" encoding="utf-8"?>
<svg version="1.1" xmlns:xlink="http://www.w3.org/1999/xlink" width="23px" height="23px" xmlns="http://www.w3.org/2000/svg">
  <g transform="matrix(1 0 0 1 -2523 -333 )">
    <path d="M 23 20.53571428571429  C 23 21.89671875  21.89671875 23  20.53571428571429 23  L 2.464285714285714 23  C 1.10328125 23  0 21.89671875  0 20.53571428571429  L 0 2.464285714285714  C 0 1.1032812499999998  1.10328125 0  2.464285714285714 0  L 20.53571428571429 0  C 21.89671875 0  23 1.1032812499999998  23 2.464285714285714  L 23 20.53571428571429  Z M 8.865575892857143 17.965669642857144  C 9.186395089285714 18.28654017857143  9.706462053571428 18.28654017857143  10.02728125 17.96572098214286  L 19.473709821428567 8.519292410714288  C 19.794477678571425 8.19852455357143  19.794477678571425 7.678406250000003  19.473709821428567 7.357638392857144  L 18.312055803571425 6.195984375000001  C 17.991287946428567 5.875216517857144  17.471169642857138 5.875165178571429  17.150350446428572 6.195984375000001  L 9.446428571428571 13.899854910714286  L 5.849649553571428 10.303075892857143  C 5.528881696428571 9.982308035714286  5.0087633928571424 9.982308035714286  4.687944196428572 10.303075892857143  L 3.526290178571429 11.464729910714286  C 3.205522321428572 11.785497767857144  3.205522321428572 12.305616071428572  3.526290178571429 12.62638392857143  L 8.865575892857143 17.965669642857144  Z " fill-rule="nonzero" fill="#797979" stroke="none" transform="matrix(1 0 0 1 2523 333 )" />
  </g>
</svg>