<?xml version="1.0" encoding="utf-8"?>
<svg version="1.1" xmlns:xlink="http://www.w3.org/1999/xlink" width="37px" height="37px" xmlns="http://www.w3.org/2000/svg">
  <g transform="matrix(1 0 0 1 -423 -1483 )">
    <path d="M 37 18.5  C 37 8.286433467741935  28.716550403225803 0  18.5 0  C 8.283449596774194 0  0 8.286433467741935  0 18.5  C 0 28.719534274193553  8.283449596774194 37  18.5 37  C 28.716550403225803 37  37 28.719534274193553  37 18.5  Z M 15.366935483870968 11.338709677419356  C 15.366935483870968 9.608362903225807  16.76965322580645 8.205645161290322  18.5 8.205645161290322  C 20.23034677419355 8.205645161290322  21.633064516129032 9.608362903225807  21.633064516129032 11.338709677419356  C 21.633064516129032 13.069056451612903  20.23034677419355 14.471774193548386  18.5 14.471774193548386  C 16.76965322580645 14.471774193548386  15.366935483870968 13.069056451612903  15.366935483870968 11.338709677419356  Z M 22.67741935483871 25.36290322580645  L 22.67741935483871 27.153225806451612  C 22.67741935483871 27.647578629032257  22.276610887096776 28.048387096774192  21.78225806451613 28.048387096774192  L 15.217741935483872 28.048387096774192  C 14.723389112903225 28.048387096774192  14.32258064516129 27.647578629032257  14.32258064516129 27.153225806451612  L 14.32258064516129 25.36290322580645  C 14.32258064516129 24.868550403225804  14.723389112903225 24.46774193548387  15.217741935483872 24.46774193548387  L 16.112903225806452 24.46774193548387  L 16.112903225806452 19.693548387096772  L 15.217741935483872 19.693548387096772  C 14.723389112903225 19.693548387096772  14.32258064516129 19.292739919354837  14.32258064516129 18.798387096774192  L 14.32258064516129 17.008064516129032  C 14.32258064516129 16.513711693548387  14.723389112903225 16.112903225806452  15.217741935483872 16.112903225806452  L 19.991935483870968 16.112903225806452  C 20.486288306451616 16.112903225806452  20.88709677419355 16.513711693548387  20.88709677419355 17.008064516129032  L 20.88709677419355 24.46774193548387  L 21.78225806451613 24.46774193548387  C 22.276610887096776 24.46774193548387  22.67741935483871 24.868550403225804  22.67741935483871 25.36290322580645  Z " fill-rule="nonzero" fill="#712177" stroke="none" transform="matrix(1 0 0 1 423 1483 )" />
  </g>
</svg>