<?xml version="1.0" encoding="utf-8"?>
<svg version="1.1" xmlns:xlink="http://www.w3.org/1999/xlink" width="25px" height="25px" xmlns="http://www.w3.org/2000/svg">
  <g transform="matrix(1 0 0 1 -2886 -204 )">
    <path d="M 2898.5 204  C 2905.5 204  2911 209.5  2911 216.5  C 2911 223.5  2905.5 229  2898.5 229  C 2891.5 229  2886 223.5  2886 216.5  C 2886 209.5  2891.5 204  2898.5 204  Z " fill-rule="nonzero" fill="#ffffff" stroke="none" />
    <path d="M 2898.5 204.5  C 2905.22 204.5  2910.5 209.78  2910.5 216.5  C 2910.5 223.22  2905.22 228.5  2898.5 228.5  C 2891.78 228.5  2886.5 223.22  2886.5 216.5  C 2886.5 209.78  2891.78 204.5  2898.5 204.5  Z " stroke-width="1" stroke="#712177" fill="none" />
  </g>
</svg>