<?xml version="1.0" encoding="utf-8"?>
<svg version="1.1" xmlns:xlink="http://www.w3.org/1999/xlink" width="18px" height="18px" xmlns="http://www.w3.org/2000/svg">
  <g transform="matrix(1 0 0 1 -899 -764 )">
    <path d="M 17.842105263157894 17.049122807017543  C 18.00701754385965 16.88421052631579  18.00701754385965 16.61754385964912  17.842105263157894 16.45263157894737  L 13.582456140350878 12.192982456140351  C 13.501754385964913 12.112280701754386  13.396491228070175 12.07017543859649  13.28421052631579 12.07017543859649  L 12.821052631578949 12.07017543859649  C 13.926315789473685 10.789473684210527  14.596491228070176 9.12280701754386  14.596491228070176 7.298245614035087  C 14.596491228070175 3.2666666666666666  11.329824561403509 0  7.298245614035087 0  C 3.2666666666666675 0  0 3.2666666666666666  0 7.298245614035087  C 0 11.329824561403509  3.2666666666666666 14.596491228070175  7.298245614035087 14.596491228070175  C 9.12280701754386 14.596491228070175  10.789473684210527 13.926315789473684  12.07017543859649 12.821052631578947  L 12.07017543859649 13.284210526315789  C 12.07017543859649 13.396491228070174  12.115789473684211 13.501754385964912  12.192982456140351 13.582456140350876  L 16.45263157894737 17.842105263157894  C 16.61754385964912 18.00701754385965  16.88421052631579 18.00701754385965  17.049122807017543 17.842105263157894  L 17.842105263157894 17.049122807017543  Z M 12.912280701754385 7.298245614035087  C 12.912280701754385 10.399999999999999  10.399999999999999 12.912280701754385  7.298245614035087 12.912280701754385  C 4.196491228070175 12.912280701754385  1.6842105263157894 10.399999999999999  1.6842105263157894 7.298245614035087  C 1.6842105263157894 4.196491228070176  4.196491228070175 1.6842105263157894  7.298245614035087 1.6842105263157894  C 10.399999999999999 1.6842105263157894  12.912280701754385 4.196491228070175  12.912280701754385 7.298245614035087  Z " fill-rule="nonzero" fill="#333333" stroke="none" transform="matrix(1 0 0 1 899 764 )" />
  </g>
</svg>