<?xml version="1.0" encoding="utf-8"?>
<svg version="1.1" xmlns:xlink="http://www.w3.org/1999/xlink" width="14px" height="22px" xmlns="http://www.w3.org/2000/svg">
  <g transform="matrix(1 0 0 1 -891 -1849 )">
    <path d="M 13.099400000000003 13.0981  C 13.099400000000003 13.0981  11.0994 11.0981  11.0994 11.0981  C 11.0994 11.0981  11.0994 2.8980699999999997  11.0994 2.8980699999999997  C 11.0994 2.8980699999999997  12.099400000000003 2.8980699999999997  12.099400000000003 2.8980699999999997  C 12.099400000000003 2.8980699999999997  12.099400000000003 0.8980699999999999  12.099400000000003 0.8980699999999999  C 12.099400000000003 0.8980699999999999  1.8993900000000004 0.8980699999999999  1.8993900000000004 0.8980699999999999  C 1.8993900000000004 0.8980699999999999  1.8993900000000004 2.8980699999999997  1.8993900000000004 2.8980699999999997  C 1.8993900000000004 2.8980699999999997  2.8993900000000004 2.8980699999999997  2.8993900000000004 2.8980699999999997  C 2.8993900000000004 2.8980699999999997  2.8993900000000004 11.0981  2.8993900000000004 11.0981  C 2.8993900000000004 11.0981  0.8993900000000004 13.0981  0.8993900000000004 13.0981  C 0.8993900000000004 13.0981  0.8993900000000004 15.098100000000002  0.8993900000000004 15.098100000000002  C 0.8993900000000004 15.098100000000002  6.099400000000001 15.098100000000002  6.099400000000001 15.098100000000002  C 6.099400000000001 15.098100000000002  6.099400000000001 21.098100000000002  6.099400000000001 21.098100000000002  C 6.099400000000001 21.098100000000002  7.8994 21.098100000000002  7.8994 21.098100000000002  C 7.8994 21.098100000000002  7.8994 15.098100000000002  7.8994 15.098100000000002  C 7.8994 15.098100000000002  13.099400000000003 15.098100000000002  13.099400000000003 15.098100000000002  C 13.099400000000003 15.098100000000002  13.099400000000003 13.0981  13.099400000000003 13.0981  Z " fill-rule="nonzero" fill="#797979" stroke="none" transform="matrix(1 0 0 1 891 1849 )" />
  </g>
</svg>