<?xml version="1.0" encoding="UTF-8" standalone="no" ?>
<!DOCTYPE svg PUBLIC "-//W3C//DTD SVG 1.1//EN" "http://www.w3.org/Graphics/SVG/1.1/DTD/svg11.dtd">
<svg xmlns="http://www.w3.org/2000/svg" xmlns:xlink="http://www.w3.org/1999/xlink" version="1.1" width="14px" height="22px" viewBox="0 0 1080 1080" xml:space="preserve">
<desc>Created with Fabric.js 5.2.4</desc>
<defs>
</defs>
<g transform="matrix(1 0 0 1 540 540)" id="e349f4d3-9e3a-442c-b089-dbde282aca9d"  >
<rect style="stroke: none; stroke-width: 1; stroke-dasharray: none; stroke-linecap: butt; stroke-dashoffset: 0; stroke-linejoin: miter; stroke-miterlimit: 4; fill: rgb(255,255,255); fill-rule: nonzero; opacity: 1; visibility: hidden;" vector-effect="non-scaling-stroke"  x="-540" y="-540" rx="0" ry="0" width="1080" height="1080" />
</g>
<g transform="matrix(1 0 0 1 540 540)" id="f8be3788-b3fc-4db3-8e3a-7cf8b75a634a"  >
</g>
<g transform="matrix(1 0 0 1 540 540)"  >
<path style="stroke: rgb(0,0,0); stroke-width: 0; stroke-dasharray: none; stroke-linecap: butt; stroke-dashoffset: 0; stroke-linejoin: miter; stroke-miterlimit: 4; fill: rgb(144,98,147); fill-rule: nonzero; opacity: 1;" vector-effect="non-scaling-stroke"  transform=" translate(-7, -11)" d="M 13.099400000000003 13.0981 C 13.099400000000003 13.0981 11.0994 11.0981 11.0994 11.0981 C 11.0994 11.0981 11.0994 2.8980699999999997 11.0994 2.8980699999999997 C 11.0994 2.8980699999999997 12.099400000000003 2.8980699999999997 12.099400000000003 2.8980699999999997 C 12.099400000000003 2.8980699999999997 12.099400000000003 0.8980699999999999 12.099400000000003 0.8980699999999999 C 12.099400000000003 0.8980699999999999 1.8993900000000004 0.8980699999999999 1.8993900000000004 0.8980699999999999 C 1.8993900000000004 0.8980699999999999 1.8993900000000004 2.8980699999999997 1.8993900000000004 2.8980699999999997 C 1.8993900000000004 2.8980699999999997 2.8993900000000004 2.8980699999999997 2.8993900000000004 2.8980699999999997 C 2.8993900000000004 2.8980699999999997 2.8993900000000004 11.0981 2.8993900000000004 11.0981 C 2.8993900000000004 11.0981 0.8993900000000004 13.0981 0.8993900000000004 13.0981 C 0.8993900000000004 13.0981 0.8993900000000004 15.098100000000002 0.8993900000000004 15.098100000000002 C 0.8993900000000004 15.098100000000002 6.099400000000001 15.098100000000002 6.099400000000001 15.098100000000002 C 6.099400000000001 15.098100000000002 6.099400000000001 21.098100000000002 6.099400000000001 21.098100000000002 C 6.099400000000001 21.098100000000002 7.8994 21.098100000000002 7.8994 21.098100000000002 C 7.8994 21.098100000000002 7.8994 15.098100000000002 7.8994 15.098100000000002 C 7.8994 15.098100000000002 13.099400000000003 15.098100000000002 13.099400000000003 15.098100000000002 C 13.099400000000003 15.098100000000002 13.099400000000003 13.0981 13.099400000000003 13.0981 Z" stroke-linecap="round" />
</g>
<g transform="matrix(NaN NaN NaN NaN 0 0)"  >
<g style=""   >
</g>
</g>
<g transform="matrix(NaN NaN NaN NaN 0 0)"  >
<g style=""   >
</g>
</g>
</svg>