<?xml version="1.0" encoding="utf-8"?>
<svg version="1.1" xmlns:xlink="http://www.w3.org/1999/xlink" width="37px" height="37px" xmlns="http://www.w3.org/2000/svg">
  <g transform="matrix(1 0 0 1 -129 -306 )">
    <path d="M 37 18.5  C 37 8.28024193548387  28.71975806451613 0  18.5 0  C 8.28024193548387 0  0 8.28024193548387  0 18.5  C 0 28.71975806451613  8.28024193548387 37  18.5 37  C 28.71975806451613 37  37 28.71975806451613  37 18.5  Z M 22.67741935483871 18.5  L 27.570967741935487 23.356250000000003  C 27.92157258064516 23.706854838709678  27.92157258064516 24.27379032258065  27.570967741935487 24.624395161290323  L 24.616935483870968 27.570967741935487  C 24.266330645161293 27.92157258064516  23.699395161290322 27.92157258064516  23.348790322580648 27.570967741935487  L 18.5 22.67741935483871  L 13.64375 27.570967741935487  C 13.293145161290324 27.92157258064516  12.726209677419353 27.92157258064516  12.375604838709677 27.570967741935487  L 9.429032258064515 24.616935483870968  C 9.07842741935484 24.266330645161293  9.07842741935484 23.699395161290322  9.429032258064515 23.348790322580648  L 14.32258064516129 18.5  L 9.429032258064515 13.64375  C 9.07842741935484 13.293145161290324  9.07842741935484 12.726209677419353  9.429032258064515 12.375604838709677  L 12.383064516129032 9.421572580645162  C 12.733669354838709 9.070967741935485  13.300604838709678 9.070967741935485  13.651209677419356 9.421572580645162  L 18.5 14.32258064516129  L 23.356250000000003 9.429032258064515  C 23.706854838709678 9.07842741935484  24.27379032258065 9.07842741935484  24.624395161290323 9.429032258064515  L 27.578427419354842 12.383064516129032  C 27.929032258064517 12.733669354838709  27.929032258064517 13.300604838709678  27.578427419354842 13.651209677419356  L 22.67741935483871 18.5  Z " fill-rule="nonzero" fill="#af4448" stroke="none" transform="matrix(1 0 0 1 129 306 )" />
  </g>
</svg>