<?xml version="1.0" encoding="utf-8"?>
<!-- Generator: Adobe Illustrator 16.0.3, SVG Export Plug-In . SVG Version: 6.00 Build 0)  -->
<!DOCTYPE svg PUBLIC "-//W3C//DTD SVG 1.1//EN" "http://www.w3.org/Graphics/SVG/1.1/DTD/svg11.dtd">
<svg version="1.1" id="Layer_1" xmlns="http://www.w3.org/2000/svg" xmlns:xlink="http://www.w3.org/1999/xlink" x="0px" y="0px"
	 width="246px" height="41px" viewBox="0 0 246 41" enable-background="new 0 0 246 41" xml:space="preserve" role="img">
<g>
	<g>
		<path fill="#FFFFFF" d="M0,1.188h65.457v40.023H0V1.188z"/>
	</g>
	<g>
		<path fill="#105EAB" d="M0.643,1.843h64.17V40.52H0.643V1.843z"/>
	</g>
	<polygon fill="#FFFFFF" points="26.985,40.512 64.8,2.204 64.8,1.821 64.61,1.821 26.419,40.512 	"/>
	<polygon fill="#FFFFFF" points="3.144,40.512 5.7,1.821 5.297,1.821 2.741,40.512 	"/>
	<polygon fill="#FFFFFF" points="5.188,40.512 10.709,1.821 10.301,1.821 4.783,40.512 	"/>
	<polygon fill="#FFFFFF" points="7.377,40.512 16.012,1.821 15.604,1.821 6.963,40.512 	"/>
	<polygon fill="#FFFFFF" points="9.779,40.512 22.105,1.821 21.69,1.821 9.36,40.512 	"/>
	<polygon fill="#FFFFFF" points="12.045,40.512 27.881,1.821 27.446,1.821 11.609,40.512 	"/>
	<polygon fill="#FFFFFF" points="14.652,40.512 34.459,1.821 34.017,1.821 14.199,40.512 	"/>
	<polygon fill="#FFFFFF" points="44.356,1.821 43.875,1.821 18.231,40.512 18.711,40.512 	"/>
	<polygon fill="#FFFFFF" points="53.5,1.821 52.995,1.821 21.819,40.512 22.334,40.512 	"/>
	<polygon fill="#FFFFFF" points="64.8,16.461 64.8,15.953 33.887,40.512 34.524,40.512 	"/>
	<polygon fill="#FFFFFF" points="64.8,27.103 64.8,26.633 42.591,40.512 43.351,40.512 	"/>
	<polygon fill="#FFFFFF" points="64.8,37.145 64.8,36.699 56.628,40.512 57.576,40.512 	"/>
	<path fill="#FFFFFF" d="M19.797,25.082c-0.794,0.761-2.79,1.58-4.255,1.566c-4.264-0.004-6.255-3.628-6.291-9.162
		c0.029-5.237,2.178-8.569,5.871-8.577c2.64,0.003,3.924,1.535,4.625,2.448l0.772,1.028v-4.76l-0.247-0.115
		c-1.522-0.708-3.454-1.039-5.216-1.042C8.427,6.483,3.369,11.235,3.358,17.943c0.011,6.878,4.792,11.201,11.64,11.21h0.036
		c3.4,0,5.144-1.025,6.064-1.73l0.273-0.207l-1.135-2.546L19.797,25.082z M38.372,8.943c-2.218-1.627-4.996-2.109-7.366-2.109H22.91
		v21.93h8.623c4.183-0.01,10.645-2.665,10.655-11.025C42.196,13.361,40.597,10.57,38.372,8.943z M28.235,26.22V9.311
		c3.915,0.104,8.083,0.582,8.157,8.517C36.329,25.534,32.065,26.115,28.235,26.22z M60.656,24.67l-0.439,0.412
		c-0.794,0.763-2.784,1.58-4.248,1.566c-4.263,0-6.256-3.628-6.292-9.16c0.028-5.242,2.181-8.573,5.879-8.58
		c2.635,0.003,3.922,1.536,4.61,2.448l0.776,1.042V7.625L60.695,7.51c-1.515-0.709-3.447-1.038-5.216-1.041
		c-6.627,0.014-11.674,4.765-11.684,11.474c0.01,6.88,4.78,11.198,11.634,11.21h0.052c3.389,0,5.126-1.027,6.047-1.73l0.273-0.207
		L60.656,24.67z"/>
	<path fill="#0033A0" d="M65.956,39.438h0.773v0.115h-0.324v0.829h-0.123v-0.829h-0.327V39.438z"/>
	<path fill="#0033A0" d="M67.629,40.383v-0.567c0-0.02,0-0.141,0-0.232l0,0l-0.27,0.8h-0.126l-0.266-0.8h-0.004
		c0,0.092,0.004,0.213,0.004,0.232v0.567h-0.126v-0.944h0.18l0.276,0.799h0.004l0.266-0.799h0.184v0.944H67.629z"/>
</g>
<g>
	<path d="M70.227,21.582c0.088-0.796,0.359-1.498,0.812-2.105c0.452-0.607,1.017-1.074,1.694-1.4
		c0.677-0.326,1.387-0.489,2.13-0.489c0.406,0,0.803,0.049,1.192,0.147c0.388,0.099,0.759,0.248,1.113,0.448
		c0.354,0.2,0.683,0.453,0.987,0.758s0.572,0.665,0.803,1.079h-0.994c-0.258-0.339-0.555-0.625-0.89-0.857
		c-0.335-0.232-0.687-0.404-1.056-0.515c-0.369-0.11-0.737-0.166-1.106-0.166c-0.493,0-0.968,0.089-1.426,0.266
		c-0.458,0.177-0.868,0.433-1.227,0.766c-0.36,0.333-0.644,0.733-0.852,1.2s-0.312,0.979-0.312,1.534
		c0.008,0.715,0.189,1.358,0.545,1.929s0.824,1.015,1.403,1.333c0.58,0.317,1.194,0.481,1.842,0.492
		c0.38-0.011,0.759-0.075,1.135-0.195s0.734-0.301,1.073-0.543c0.339-0.241,0.641-0.545,0.905-0.911h0.994
		c-0.325,0.559-0.706,1.022-1.142,1.394s-0.904,0.646-1.406,0.824s-1.021,0.268-1.56,0.268c-0.593,0-1.171-0.109-1.734-0.329
		c-0.563-0.22-1.068-0.536-1.517-0.948c-0.448-0.411-0.802-0.906-1.06-1.483c-0.258-0.578-0.387-1.208-0.387-1.89
		C70.188,21.983,70.201,21.781,70.227,21.582z"/>
	<path d="M79.975,23.339c0.014-0.53,0.118-1.008,0.312-1.432c0.194-0.423,0.456-0.784,0.785-1.083
		c0.329-0.298,0.694-0.526,1.096-0.682c0.401-0.155,0.813-0.236,1.234-0.242c0.565,0,1.114,0.137,1.644,0.413
		c0.53,0.275,0.964,0.688,1.302,1.238c0.338,0.552,0.507,1.208,0.507,1.971v0.169h-5.984c0.039,0.49,0.19,0.909,0.452,1.255
		s0.58,0.604,0.954,0.776s0.741,0.257,1.101,0.257c0.321,0,0.646-0.063,0.973-0.191c0.327-0.129,0.616-0.305,0.868-0.528
		s0.429-0.472,0.534-0.743h0.919c-0.185,0.508-0.456,0.938-0.812,1.29c-0.356,0.352-0.754,0.612-1.194,0.78
		c-0.441,0.169-0.886,0.253-1.335,0.253c-0.59-0.023-1.141-0.181-1.654-0.472c-0.514-0.29-0.926-0.698-1.236-1.222
		C80.13,24.621,79.975,24.019,79.975,23.339z M85.982,22.892c-0.075-0.382-0.232-0.735-0.472-1.062
		c-0.239-0.324-0.541-0.584-0.905-0.779c-0.363-0.193-0.757-0.291-1.181-0.291c-0.567,0-1.04,0.134-1.416,0.404
		s-0.653,0.569-0.831,0.901c-0.177,0.332-0.28,0.607-0.307,0.826H85.982z"/>
	<path d="M88.157,26.694v-6.626h0.849v0.994c0.219-0.365,0.518-0.646,0.896-0.843s0.782-0.296,1.209-0.296
		c0.373,0,0.732,0.067,1.079,0.201c0.347,0.134,0.657,0.329,0.931,0.585s0.492,0.575,0.655,0.958s0.244,0.811,0.244,1.283v3.743
		h-0.872v-3.743c0-0.457-0.098-0.848-0.294-1.172s-0.453-0.568-0.771-0.729c-0.318-0.162-0.658-0.242-1.019-0.242
		c-0.353,0-0.682,0.077-0.988,0.231c-0.306,0.155-0.552,0.387-0.741,0.695c-0.188,0.309-0.282,0.678-0.282,1.107v3.853H88.157z"/>
	<path d="M96.103,26.694v-5.816H94.71v-0.81h1.393v-2.336h0.896v2.336h1.537v0.81h-1.537v5.816H96.103z"/>
	<path d="M99.488,26.694v-6.649h0.837v0.993c0.369-0.759,1.014-1.138,1.937-1.138v0.908c-0.209,0-0.426,0.044-0.65,0.133
		c-0.225,0.089-0.431,0.215-0.619,0.378c-0.188,0.164-0.339,0.355-0.451,0.574s-0.168,0.455-0.168,0.71v4.092H99.488z"/>
	<path d="M102.582,23.268c0.006-0.436,0.098-0.855,0.275-1.26s0.425-0.762,0.744-1.075c0.318-0.313,0.696-0.559,1.132-0.739
		c0.437-0.18,0.91-0.271,1.421-0.271c0.485,0,0.981,0.139,1.488,0.417c0.508,0.278,0.935,0.658,1.282,1.14
		c0.347,0.481,0.542,1.013,0.585,1.592c0,0.029,0.002,0.073,0.006,0.13c0.004,0.058,0.006,0.099,0.006,0.124
		c0,0.489-0.092,0.947-0.275,1.374c-0.183,0.427-0.438,0.801-0.766,1.123s-0.701,0.572-1.122,0.75s-0.863,0.266-1.326,0.266
		c-0.56,0-1.106-0.14-1.639-0.42c-0.533-0.279-0.968-0.691-1.306-1.234C102.75,24.642,102.582,24.003,102.582,23.268z
		 M103.454,23.313c0,0.53,0.118,0.994,0.354,1.392c0.235,0.398,0.552,0.708,0.95,0.93c0.398,0.222,0.832,0.344,1.301,0.368
		c0.392,0,0.784-0.105,1.175-0.316c0.391-0.211,0.715-0.521,0.971-0.93c0.256-0.408,0.384-0.89,0.384-1.443
		c0-0.321-0.067-0.634-0.201-0.938c-0.134-0.304-0.319-0.576-0.556-0.815s-0.51-0.429-0.819-0.567
		c-0.31-0.139-0.628-0.208-0.955-0.208c-0.446,0.01-0.866,0.125-1.263,0.343c-0.396,0.219-0.717,0.52-0.962,0.901
		C103.588,22.41,103.461,22.839,103.454,23.313z"/>
	<path d="M110.536,22.008c-0.008-0.064-0.012-0.153-0.012-0.266c0-0.385,0.096-0.715,0.287-0.991
		c0.191-0.276,0.432-0.483,0.721-0.621c0.289-0.138,0.571-0.207,0.845-0.207c0.223,0,0.445,0.038,0.666,0.112
		c0.221,0.075,0.422,0.187,0.605,0.334c0.183,0.147,0.331,0.335,0.444,0.562s0.176,0.484,0.188,0.771h-0.908
		c-0.016-0.316-0.118-0.55-0.306-0.697c-0.188-0.148-0.417-0.222-0.688-0.222c-0.238,0-0.46,0.078-0.665,0.234
		c-0.205,0.156-0.314,0.385-0.328,0.686c0.002,0.008,0.013,0.058,0.034,0.149c0.021,0.092,0.034,0.151,0.04,0.179
		c0.061,0.219,0.269,0.402,0.624,0.549c0.354,0.146,0.712,0.288,1.072,0.423c0.359,0.135,0.664,0.334,0.912,0.596
		c0.249,0.263,0.373,0.636,0.373,1.121c0,0.082-0.009,0.203-0.027,0.363c-0.049,0.408-0.184,0.744-0.404,1.008
		c-0.22,0.265-0.479,0.455-0.777,0.572s-0.59,0.176-0.878,0.176c-0.4,0-0.758-0.092-1.074-0.274
		c-0.315-0.184-0.561-0.434-0.735-0.751c-0.174-0.317-0.262-0.669-0.262-1.056l0.898-0.026c0.012,0.38,0.141,0.688,0.386,0.925
		c0.246,0.237,0.525,0.361,0.839,0.373c0.315-0.027,0.584-0.149,0.806-0.365s0.333-0.478,0.333-0.785
		c0-0.272-0.089-0.519-0.268-0.74s-0.453-0.379-0.823-0.472c-0.505-0.137-0.938-0.326-1.296-0.571
		C110.798,22.852,110.591,22.489,110.536,22.008z"/>
	<path d="M118.933,29.007v-8.962h0.857v1.188c0.199-0.29,0.431-0.532,0.696-0.728c0.265-0.195,0.553-0.342,0.863-0.442
		c0.311-0.1,0.634-0.154,0.971-0.164c0.45,0,0.889,0.08,1.319,0.241s0.815,0.388,1.157,0.682c0.342,0.294,0.615,0.646,0.82,1.059
		s0.314,0.857,0.326,1.336c0,0.53-0.09,1.015-0.27,1.452s-0.434,0.818-0.762,1.143s-0.705,0.574-1.129,0.748
		c-0.425,0.175-0.88,0.268-1.365,0.279c-0.58,0-1.101-0.124-1.565-0.374c-0.464-0.249-0.802-0.597-1.013-1.042v3.584H118.933z
		 M119.767,23.424c0.01,0.393,0.109,0.781,0.297,1.167c0.188,0.385,0.482,0.709,0.882,0.973c0.4,0.263,0.895,0.401,1.484,0.415
		c0.45,0,0.874-0.111,1.271-0.334s0.716-0.532,0.955-0.93c0.236-0.397,0.355-0.839,0.355-1.326c0-0.461-0.117-0.892-0.35-1.291
		c-0.232-0.398-0.553-0.717-0.96-0.956c-0.408-0.238-0.86-0.358-1.357-0.358c-0.514,0.018-0.968,0.151-1.36,0.4
		c-0.393,0.248-0.693,0.572-0.903,0.974S119.767,22.98,119.767,23.424z"/>
	<path d="M126.904,23.424c0.006-0.528,0.109-1.012,0.311-1.451c0.2-0.439,0.47-0.813,0.809-1.121
		c0.338-0.308,0.718-0.543,1.141-0.707c0.423-0.164,0.853-0.245,1.288-0.245c1.212,0.029,2.08,0.514,2.604,1.455v-1.286h0.872v6.626
		h-0.872v-1.26c-0.248,0.445-0.607,0.791-1.079,1.036c-0.471,0.246-1.004,0.368-1.6,0.368c-0.453-0.012-0.888-0.099-1.304-0.262
		c-0.416-0.162-0.788-0.394-1.116-0.693c-0.328-0.299-0.586-0.659-0.773-1.079S126.904,23.925,126.904,23.424z M127.823,23.217
		c0,0.545,0.12,1.026,0.359,1.444c0.239,0.419,0.556,0.741,0.947,0.966c0.393,0.225,0.809,0.342,1.248,0.352
		c0.507,0,0.964-0.121,1.372-0.365c0.408-0.243,0.728-0.563,0.959-0.958c0.232-0.395,0.348-0.806,0.348-1.231
		c0-0.469-0.112-0.901-0.337-1.298c-0.225-0.396-0.533-0.713-0.927-0.95c-0.394-0.238-0.824-0.368-1.294-0.392
		c-0.511,0-0.971,0.127-1.381,0.382c-0.409,0.254-0.728,0.572-0.955,0.954C127.937,22.503,127.823,22.868,127.823,23.217z"/>
	<path d="M135.602,26.694v-6.649h0.837v0.993c0.368-0.759,1.015-1.138,1.937-1.138v0.908c-0.209,0-0.426,0.044-0.65,0.133
		c-0.225,0.089-0.431,0.215-0.619,0.378c-0.188,0.164-0.339,0.355-0.451,0.574s-0.168,0.455-0.168,0.71v4.092H135.602z"/>
	<path d="M138.678,23.424c0.006-0.528,0.109-1.012,0.311-1.451c0.2-0.439,0.47-0.813,0.809-1.121
		c0.338-0.308,0.718-0.543,1.141-0.707c0.423-0.164,0.853-0.245,1.288-0.245c1.212,0.029,2.08,0.514,2.604,1.455v-1.286h0.872v6.626
		h-0.872v-1.26c-0.248,0.445-0.607,0.791-1.079,1.036c-0.471,0.246-1.004,0.368-1.6,0.368c-0.453-0.012-0.888-0.099-1.304-0.262
		c-0.416-0.162-0.788-0.394-1.116-0.693c-0.328-0.299-0.586-0.659-0.773-1.079S138.678,23.925,138.678,23.424z M139.597,23.217
		c0,0.545,0.12,1.026,0.359,1.444c0.239,0.419,0.556,0.741,0.947,0.966c0.393,0.225,0.809,0.342,1.248,0.352
		c0.507,0,0.964-0.121,1.372-0.365c0.408-0.243,0.728-0.563,0.959-0.958c0.232-0.395,0.348-0.806,0.348-1.231
		c0-0.469-0.112-0.901-0.337-1.298c-0.225-0.396-0.533-0.713-0.927-0.95c-0.394-0.238-0.824-0.368-1.294-0.392
		c-0.511,0-0.971,0.127-1.381,0.382c-0.409,0.254-0.728,0.572-0.955,0.954C139.71,22.503,139.597,22.868,139.597,23.217z"/>
	<path d="M150.341,23.339c0.014-0.53,0.117-1.008,0.312-1.432c0.194-0.423,0.456-0.784,0.785-1.083
		c0.329-0.298,0.694-0.526,1.096-0.682c0.401-0.155,0.813-0.236,1.234-0.242c0.565,0,1.113,0.137,1.644,0.413
		c0.53,0.275,0.965,0.688,1.303,1.238c0.338,0.552,0.507,1.208,0.507,1.971v0.169h-5.984c0.04,0.49,0.19,0.909,0.452,1.255
		c0.263,0.346,0.58,0.604,0.954,0.776c0.373,0.172,0.74,0.257,1.102,0.257c0.321,0,0.646-0.063,0.973-0.191
		c0.327-0.129,0.616-0.305,0.867-0.528c0.252-0.224,0.43-0.472,0.534-0.743h0.92c-0.186,0.508-0.456,0.938-0.813,1.29
		c-0.355,0.352-0.754,0.612-1.194,0.78c-0.44,0.169-0.886,0.253-1.335,0.253c-0.589-0.023-1.141-0.181-1.654-0.472
		c-0.514-0.29-0.925-0.698-1.235-1.222C150.496,24.621,150.341,24.019,150.341,23.339z M156.349,22.892
		c-0.075-0.382-0.232-0.735-0.472-1.062c-0.239-0.324-0.541-0.584-0.904-0.779c-0.364-0.193-0.758-0.291-1.182-0.291
		c-0.567,0-1.04,0.134-1.416,0.404c-0.377,0.27-0.653,0.569-0.831,0.901s-0.28,0.607-0.308,0.826H156.349z"/>
	<path d="M158.539,26.694v-8.962h0.896v8.962H158.539z"/>
	<path d="M164.112,21.582c0.089-0.796,0.359-1.498,0.812-2.105c0.453-0.607,1.018-1.074,1.694-1.4
		c0.678-0.326,1.388-0.489,2.131-0.489c0.406,0,0.803,0.049,1.191,0.147c0.388,0.099,0.759,0.248,1.113,0.448
		c0.354,0.2,0.683,0.453,0.987,0.758s0.572,0.665,0.803,1.079h-0.993c-0.259-0.339-0.555-0.625-0.891-0.857
		c-0.335-0.232-0.687-0.404-1.055-0.515c-0.369-0.11-0.737-0.166-1.106-0.166c-0.492,0-0.968,0.089-1.427,0.266
		c-0.458,0.177-0.867,0.433-1.227,0.766c-0.36,0.333-0.644,0.733-0.852,1.2s-0.313,0.979-0.313,1.534
		c0.009,0.715,0.19,1.358,0.546,1.929s0.823,1.015,1.403,1.333c0.579,0.317,1.193,0.481,1.842,0.492
		c0.38-0.011,0.759-0.075,1.136-0.195c0.376-0.12,0.733-0.301,1.073-0.543c0.339-0.241,0.641-0.545,0.904-0.911h0.993
		c-0.325,0.559-0.705,1.022-1.141,1.394s-0.904,0.646-1.406,0.824s-1.021,0.268-1.56,0.268c-0.594,0-1.172-0.109-1.734-0.329
		s-1.068-0.536-1.517-0.948c-0.448-0.411-0.802-0.906-1.06-1.483c-0.259-0.578-0.388-1.208-0.388-1.89
		C164.074,21.983,164.087,21.781,164.112,21.582z"/>
	<path d="M173.854,23.268c0.006-0.436,0.098-0.855,0.274-1.26c0.178-0.404,0.426-0.762,0.744-1.075
		c0.318-0.313,0.695-0.559,1.132-0.739c0.438-0.18,0.91-0.271,1.421-0.271c0.485,0,0.981,0.139,1.489,0.417
		c0.507,0.278,0.935,0.658,1.281,1.14c0.347,0.481,0.542,1.013,0.586,1.592c0,0.029,0.002,0.073,0.006,0.13
		c0.004,0.058,0.006,0.099,0.006,0.124c0,0.489-0.092,0.947-0.275,1.374c-0.183,0.427-0.438,0.801-0.766,1.123
		s-0.701,0.572-1.122,0.75s-0.863,0.266-1.326,0.266c-0.56,0-1.106-0.14-1.64-0.42c-0.533-0.279-0.968-0.691-1.305-1.234
		C174.022,24.642,173.854,24.003,173.854,23.268z M174.727,23.313c0,0.53,0.118,0.994,0.354,1.392
		c0.235,0.398,0.552,0.708,0.95,0.93s0.832,0.344,1.301,0.368c0.393,0,0.784-0.105,1.176-0.316s0.715-0.521,0.971-0.93
		c0.257-0.408,0.385-0.89,0.385-1.443c0-0.321-0.067-0.634-0.201-0.938c-0.134-0.304-0.319-0.576-0.556-0.815
		s-0.51-0.429-0.819-0.567s-0.628-0.208-0.955-0.208c-0.445,0.01-0.866,0.125-1.262,0.343c-0.396,0.219-0.718,0.52-0.963,0.901
		S174.734,22.839,174.727,23.313z"/>
	<path d="M182.108,26.694v-6.626h0.849v0.994c0.219-0.365,0.518-0.646,0.896-0.843c0.379-0.197,0.782-0.296,1.21-0.296
		c0.372,0,0.732,0.067,1.079,0.201c0.347,0.134,0.657,0.329,0.932,0.585c0.273,0.256,0.492,0.575,0.654,0.958
		c0.163,0.383,0.244,0.811,0.244,1.283v3.743H187.1v-3.743c0-0.457-0.099-0.848-0.294-1.172c-0.196-0.324-0.454-0.568-0.772-0.729
		c-0.318-0.162-0.657-0.242-1.019-0.242c-0.353,0-0.682,0.077-0.987,0.231c-0.306,0.155-0.553,0.387-0.74,0.695
		c-0.188,0.309-0.282,0.678-0.282,1.107v3.853H182.108z"/>
	<path d="M190.055,26.694v-5.816h-1.393v-0.81h1.393v-2.336h0.896v2.336h1.537v0.81h-1.537v5.816H190.055z"/>
	<path d="M193.44,26.694v-6.649h0.837v0.993c0.368-0.759,1.015-1.138,1.937-1.138v0.908c-0.209,0-0.426,0.044-0.65,0.133
		c-0.225,0.089-0.431,0.215-0.619,0.378c-0.188,0.164-0.339,0.355-0.451,0.574s-0.168,0.455-0.168,0.71v4.092H193.44z"/>
	<path d="M196.534,23.268c0.006-0.436,0.098-0.855,0.274-1.26c0.178-0.404,0.426-0.762,0.744-1.075
		c0.318-0.313,0.695-0.559,1.132-0.739c0.438-0.18,0.91-0.271,1.421-0.271c0.485,0,0.981,0.139,1.489,0.417
		c0.507,0.278,0.935,0.658,1.281,1.14c0.347,0.481,0.542,1.013,0.586,1.592c0,0.029,0.002,0.073,0.006,0.13
		c0.004,0.058,0.006,0.099,0.006,0.124c0,0.489-0.092,0.947-0.275,1.374c-0.183,0.427-0.438,0.801-0.766,1.123
		s-0.701,0.572-1.122,0.75s-0.863,0.266-1.326,0.266c-0.56,0-1.106-0.14-1.64-0.42c-0.533-0.279-0.968-0.691-1.305-1.234
		C196.702,24.642,196.534,24.003,196.534,23.268z M197.406,23.313c0,0.53,0.118,0.994,0.354,1.392
		c0.235,0.398,0.552,0.708,0.95,0.93s0.832,0.344,1.301,0.368c0.393,0,0.784-0.105,1.176-0.316s0.715-0.521,0.971-0.93
		c0.257-0.408,0.385-0.89,0.385-1.443c0-0.321-0.067-0.634-0.201-0.938c-0.134-0.304-0.319-0.576-0.556-0.815
		s-0.51-0.429-0.819-0.567s-0.628-0.208-0.955-0.208c-0.445,0.01-0.866,0.125-1.262,0.343c-0.396,0.219-0.718,0.52-0.963,0.901
		S197.414,22.839,197.406,23.313z"/>
	<path d="M204.804,26.694v-8.962h0.896v8.962H204.804z"/>
	<path d="M212.459,26.476l-2.531-6.407h0.943l2.132,5.28l2.241-5.28h0.946l-3.829,8.938h-0.943L212.459,26.476z"/>
	<path d="M220.403,26.694v-8.962h0.896v8.962H220.403z"/>
	<path d="M222.637,23.424c0.006-0.528,0.109-1.012,0.311-1.451c0.2-0.439,0.47-0.813,0.809-1.121
		c0.338-0.308,0.718-0.543,1.141-0.707c0.423-0.164,0.853-0.245,1.288-0.245c1.212,0.029,2.08,0.514,2.604,1.455v-1.286h0.872v6.626
		h-0.872v-1.26c-0.248,0.445-0.607,0.791-1.079,1.036c-0.471,0.246-1.004,0.368-1.6,0.368c-0.453-0.012-0.888-0.099-1.304-0.262
		c-0.416-0.162-0.788-0.394-1.116-0.693c-0.328-0.299-0.586-0.659-0.773-1.079S222.637,23.925,222.637,23.424z M223.556,23.217
		c0,0.545,0.12,1.026,0.359,1.444c0.239,0.419,0.556,0.741,0.947,0.966c0.393,0.225,0.809,0.342,1.248,0.352
		c0.507,0,0.964-0.121,1.372-0.365c0.408-0.243,0.728-0.563,0.959-0.958c0.232-0.395,0.348-0.806,0.348-1.231
		c0-0.469-0.112-0.901-0.337-1.298c-0.225-0.396-0.533-0.713-0.927-0.95c-0.394-0.238-0.824-0.368-1.294-0.392
		c-0.511,0-0.971,0.127-1.381,0.382c-0.409,0.254-0.728,0.572-0.955,0.954C223.669,22.503,223.556,22.868,223.556,23.217z"/>
	<path d="M70.575,40.037v-8.962h2.351c0.706,0,1.313,0.074,1.823,0.224c0.51,0.148,0.92,0.41,1.23,0.783
		c0.311,0.374,0.487,0.882,0.531,1.524c0.008,0.057,0.012,0.138,0.012,0.242c0,0.497-0.131,0.94-0.395,1.331
		c-0.263,0.39-0.63,0.693-1.102,0.91c-0.471,0.217-1.005,0.325-1.603,0.325h-1.951v3.622H70.575z M71.471,31.874v3.743h1.854
		c0.788,0,1.367-0.182,1.735-0.544c0.369-0.363,0.553-0.852,0.553-1.467c-0.033-0.637-0.276-1.085-0.729-1.344
		c-0.453-0.26-1.069-0.389-1.85-0.389H71.471z"/>
	<path d="M77.571,40.037v-6.649h0.837v0.993c0.369-0.759,1.014-1.139,1.937-1.139v0.908c-0.209,0-0.426,0.044-0.65,0.133
		s-0.431,0.215-0.619,0.379c-0.188,0.163-0.339,0.354-0.451,0.573s-0.168,0.455-0.168,0.71v4.092H77.571z"/>
	<path d="M80.683,36.682c0.014-0.53,0.118-1.008,0.312-1.432c0.194-0.424,0.456-0.785,0.785-1.083
		c0.329-0.299,0.694-0.526,1.096-0.682c0.401-0.156,0.813-0.237,1.234-0.243c0.565,0,1.114,0.138,1.644,0.413
		c0.53,0.274,0.964,0.688,1.302,1.238c0.338,0.552,0.507,1.208,0.507,1.971v0.169h-5.984c0.039,0.49,0.19,0.909,0.452,1.255
		s0.58,0.604,0.954,0.776s0.741,0.257,1.101,0.257c0.321,0,0.646-0.063,0.973-0.191c0.327-0.129,0.616-0.305,0.868-0.528
		s0.429-0.472,0.534-0.743h0.919c-0.185,0.508-0.456,0.938-0.812,1.29c-0.356,0.352-0.754,0.612-1.194,0.78
		c-0.441,0.169-0.886,0.253-1.335,0.253c-0.59-0.023-1.141-0.181-1.654-0.472c-0.514-0.29-0.926-0.698-1.236-1.222
		C80.838,37.964,80.683,37.361,80.683,36.682z M86.691,36.234c-0.075-0.382-0.232-0.735-0.472-1.062
		c-0.239-0.325-0.541-0.584-0.905-0.778c-0.363-0.194-0.757-0.292-1.181-0.292c-0.567,0-1.04,0.135-1.416,0.404
		c-0.376,0.269-0.653,0.569-0.831,0.901c-0.177,0.332-0.28,0.607-0.307,0.826H86.691z"/>
	<path d="M90.63,40.037l-2.785-6.626h0.967l2.292,5.487l2.3-5.487h0.97l-2.824,6.626H90.63z"/>
	<path d="M94.672,36.682c0.014-0.53,0.118-1.008,0.312-1.432c0.194-0.424,0.456-0.785,0.785-1.083
		c0.329-0.299,0.694-0.526,1.096-0.682c0.401-0.156,0.813-0.237,1.234-0.243c0.565,0,1.114,0.138,1.644,0.413
		c0.53,0.274,0.964,0.688,1.302,1.238c0.338,0.552,0.507,1.208,0.507,1.971v0.169h-5.984c0.039,0.49,0.19,0.909,0.452,1.255
		s0.58,0.604,0.954,0.776s0.741,0.257,1.101,0.257c0.321,0,0.646-0.063,0.973-0.191c0.327-0.129,0.616-0.305,0.868-0.528
		s0.429-0.472,0.534-0.743h0.919c-0.185,0.508-0.456,0.938-0.812,1.29c-0.356,0.352-0.754,0.612-1.194,0.78
		c-0.441,0.169-0.886,0.253-1.335,0.253c-0.59-0.023-1.141-0.181-1.654-0.472c-0.514-0.29-0.926-0.698-1.236-1.222
		C94.828,37.964,94.672,37.361,94.672,36.682z M100.68,36.234c-0.075-0.382-0.232-0.735-0.472-1.062
		c-0.239-0.325-0.541-0.584-0.905-0.778c-0.363-0.194-0.757-0.292-1.181-0.292c-0.567,0-1.04,0.135-1.416,0.404
		c-0.376,0.269-0.653,0.569-0.831,0.901c-0.177,0.332-0.28,0.607-0.307,0.826H100.68z"/>
	<path d="M102.854,40.037v-6.626h0.849v0.993c0.219-0.364,0.518-0.646,0.896-0.843c0.378-0.196,0.782-0.295,1.209-0.295
		c0.373,0,0.732,0.066,1.079,0.201c0.347,0.134,0.657,0.329,0.931,0.585s0.492,0.575,0.655,0.958s0.244,0.811,0.244,1.283v3.743
		h-0.872v-3.743c0-0.457-0.098-0.848-0.294-1.172s-0.453-0.567-0.771-0.729c-0.318-0.161-0.658-0.242-1.019-0.242
		c-0.353,0-0.682,0.077-0.988,0.232c-0.306,0.154-0.552,0.386-0.741,0.694c-0.188,0.309-0.282,0.678-0.282,1.107v3.853H102.854z"/>
	<path d="M109.996,36.708c0.006-0.524,0.106-1,0.3-1.425c0.194-0.426,0.456-0.788,0.784-1.086c0.328-0.297,0.693-0.526,1.094-0.688
		c0.401-0.16,0.81-0.249,1.226-0.268c0.757,0,1.449,0.179,2.076,0.534c0.627,0.355,1.085,0.896,1.375,1.622h-1.017
		c-0.243-0.41-0.571-0.725-0.984-0.943c-0.414-0.219-0.897-0.328-1.449-0.328c-0.5,0.031-0.939,0.169-1.317,0.412
		s-0.668,0.557-0.871,0.94c-0.203,0.383-0.309,0.793-0.319,1.229c0,0.471,0.113,0.903,0.338,1.298s0.539,0.709,0.938,0.943
		c0.4,0.234,0.843,0.358,1.328,0.372c0.511,0,0.975-0.114,1.394-0.344c0.419-0.23,0.742-0.522,0.968-0.877h0.991
		c-0.722,1.388-1.823,2.081-3.306,2.081c-0.445,0-0.88-0.083-1.305-0.249c-0.425-0.167-0.808-0.406-1.149-0.718
		c-0.341-0.312-0.611-0.678-0.81-1.1s-0.302-0.875-0.308-1.36c0.01-0.01,0.017-0.019,0.02-0.027
		C109.994,36.718,109.996,36.712,109.996,36.708z"/>
	<path d="M118.106,32.613v-1.538h0.896v1.538H118.106z M118.106,40.037v-6.626h0.896v6.626H118.106z"/>
	<path d="M120.334,36.61c0.006-0.436,0.098-0.855,0.275-1.26s0.425-0.762,0.744-1.074s0.696-0.56,1.132-0.739
		c0.437-0.181,0.91-0.271,1.421-0.271c0.485,0,0.981,0.139,1.489,0.417c0.507,0.277,0.935,0.657,1.281,1.14
		c0.347,0.481,0.542,1.013,0.586,1.592c0,0.029,0.002,0.073,0.006,0.13c0.004,0.058,0.006,0.099,0.006,0.124
		c0,0.489-0.092,0.947-0.275,1.374c-0.183,0.427-0.438,0.801-0.766,1.123s-0.701,0.572-1.122,0.75s-0.862,0.266-1.326,0.266
		c-0.56,0-1.106-0.14-1.639-0.42c-0.533-0.279-0.968-0.691-1.306-1.234C120.502,37.984,120.334,37.346,120.334,36.61z
		 M121.206,36.656c0,0.53,0.118,0.994,0.354,1.392c0.235,0.398,0.552,0.708,0.95,0.93c0.398,0.222,0.832,0.344,1.301,0.368
		c0.392,0,0.784-0.105,1.175-0.316s0.715-0.521,0.971-0.93c0.257-0.408,0.385-0.89,0.385-1.443c0-0.321-0.067-0.634-0.201-0.938
		c-0.134-0.304-0.319-0.576-0.556-0.815s-0.51-0.429-0.819-0.567c-0.309-0.139-0.627-0.208-0.955-0.208
		c-0.446,0.01-0.866,0.124-1.263,0.343c-0.396,0.219-0.717,0.519-0.962,0.901C121.341,35.753,121.214,36.182,121.206,36.656z
		 M122.442,32.045l2.351-1.419l0.423,0.704l-2.351,1.38L122.442,32.045z"/>
	<path d="M128.588,40.037v-6.626h0.849v0.993c0.219-0.364,0.518-0.646,0.896-0.843c0.379-0.196,0.782-0.295,1.21-0.295
		c0.372,0,0.732,0.066,1.079,0.201c0.347,0.134,0.657,0.329,0.932,0.585c0.273,0.256,0.492,0.575,0.654,0.958
		c0.163,0.383,0.244,0.811,0.244,1.283v3.743h-0.872v-3.743c0-0.457-0.099-0.848-0.294-1.172c-0.196-0.324-0.454-0.567-0.772-0.729
		c-0.318-0.161-0.657-0.242-1.019-0.242c-0.353,0-0.682,0.077-0.987,0.232c-0.306,0.154-0.553,0.386-0.74,0.694
		c-0.188,0.309-0.282,0.678-0.282,1.107v3.853H128.588z"/>
	<path d="M139.075,36.415c0.053-0.617,0.247-1.164,0.581-1.641c0.334-0.478,0.751-0.848,1.252-1.11
		c0.501-0.264,1.016-0.403,1.546-0.422c0.561,0,1.083,0.107,1.567,0.322c0.485,0.215,0.879,0.553,1.183,1.012v-3.501h0.896v8.962
		h-0.849v-1.26c-0.315,0.472-0.693,0.823-1.134,1.056c-0.441,0.232-0.979,0.349-1.616,0.349c-0.544-0.023-1.083-0.184-1.617-0.48
		c-0.534-0.296-0.972-0.707-1.312-1.231s-0.51-1.115-0.51-1.773C139.063,36.574,139.067,36.48,139.075,36.415z M139.994,36.344
		c-0.016,0.081-0.023,0.202-0.023,0.364c0,0.438,0.114,0.856,0.343,1.257c0.229,0.399,0.542,0.724,0.939,0.973
		c0.396,0.248,0.838,0.376,1.323,0.384c0.438,0,0.862-0.109,1.275-0.328s0.75-0.534,1.01-0.947s0.391-0.892,0.391-1.436
		c0-0.292-0.094-0.634-0.279-1.027c-0.187-0.394-0.481-0.734-0.885-1.023c-0.403-0.288-0.907-0.433-1.512-0.433
		c-0.329,0-0.675,0.073-1.037,0.22c-0.361,0.147-0.687,0.388-0.976,0.722C140.275,35.402,140.085,35.828,139.994,36.344z"/>
	<path d="M147.45,36.682c0.014-0.53,0.117-1.008,0.312-1.432s0.456-0.785,0.785-1.083c0.329-0.299,0.694-0.526,1.096-0.682
		c0.401-0.156,0.813-0.237,1.234-0.243c0.565,0,1.113,0.138,1.644,0.413c0.53,0.274,0.965,0.688,1.303,1.238
		c0.338,0.552,0.507,1.208,0.507,1.971v0.169h-5.984c0.04,0.49,0.19,0.909,0.452,1.255c0.263,0.346,0.58,0.604,0.954,0.776
		c0.373,0.172,0.74,0.257,1.102,0.257c0.321,0,0.646-0.063,0.973-0.191c0.327-0.129,0.616-0.305,0.867-0.528
		c0.252-0.224,0.43-0.472,0.534-0.743h0.92c-0.186,0.508-0.456,0.938-0.813,1.29c-0.355,0.352-0.754,0.612-1.194,0.78
		c-0.44,0.169-0.886,0.253-1.335,0.253c-0.589-0.023-1.141-0.181-1.654-0.472c-0.514-0.29-0.925-0.698-1.235-1.222
		C147.605,37.964,147.45,37.361,147.45,36.682z M153.458,36.234c-0.075-0.382-0.232-0.735-0.472-1.062
		c-0.239-0.325-0.541-0.584-0.904-0.778c-0.364-0.194-0.758-0.292-1.182-0.292c-0.567,0-1.04,0.135-1.416,0.404
		c-0.377,0.269-0.653,0.569-0.831,0.901s-0.28,0.607-0.308,0.826H153.458z"/>
	<path d="M159.076,40.037v-8.962h4.893V31.9h-3.997v3.22h3.864v0.798h-3.864v3.321h3.997v0.798H159.076z"/>
	<path d="M165.321,40.037v-6.626h0.849v0.993c0.219-0.364,0.518-0.646,0.896-0.843c0.379-0.196,0.782-0.295,1.21-0.295
		c0.372,0,0.732,0.066,1.079,0.201c0.347,0.134,0.657,0.329,0.932,0.585c0.273,0.256,0.492,0.575,0.654,0.958
		c0.163,0.383,0.244,0.811,0.244,1.283v3.743h-0.872v-3.743c0-0.457-0.099-0.848-0.294-1.172c-0.196-0.324-0.454-0.567-0.772-0.729
		c-0.318-0.161-0.657-0.242-1.019-0.242c-0.353,0-0.682,0.077-0.987,0.232c-0.306,0.154-0.553,0.386-0.74,0.694
		c-0.188,0.309-0.282,0.678-0.282,1.107v3.853H165.321z"/>
	<path d="M173.074,40.037v-5.801h-1.018v-0.799h1.018c0-1.559,0.852-2.339,2.554-2.339v0.825c-0.504,0-0.908,0.103-1.212,0.306
		c-0.304,0.204-0.46,0.574-0.47,1.11c0.016,0.032,0.023,0.064,0.023,0.098h1.658v0.799h-1.658v5.801H173.074z"/>
	<path d="M175.979,36.682c0.014-0.53,0.117-1.008,0.312-1.432s0.456-0.785,0.785-1.083c0.329-0.299,0.694-0.526,1.096-0.682
		c0.401-0.156,0.813-0.237,1.234-0.243c0.565,0,1.113,0.138,1.644,0.413c0.53,0.274,0.965,0.688,1.303,1.238
		c0.338,0.552,0.507,1.208,0.507,1.971v0.169h-5.984c0.04,0.49,0.19,0.909,0.452,1.255c0.263,0.346,0.58,0.604,0.954,0.776
		c0.373,0.172,0.74,0.257,1.102,0.257c0.321,0,0.646-0.063,0.973-0.191c0.327-0.129,0.616-0.305,0.867-0.528
		c0.252-0.224,0.43-0.472,0.534-0.743h0.92c-0.186,0.508-0.456,0.938-0.813,1.29c-0.355,0.352-0.754,0.612-1.194,0.78
		c-0.44,0.169-0.886,0.253-1.335,0.253c-0.589-0.023-1.141-0.181-1.654-0.472c-0.514-0.29-0.925-0.698-1.235-1.222
		C176.134,37.964,175.979,37.361,175.979,36.682z M181.986,36.234c-0.075-0.382-0.232-0.735-0.472-1.062
		c-0.239-0.325-0.541-0.584-0.904-0.778c-0.364-0.194-0.758-0.292-1.182-0.292c-0.567,0-1.04,0.135-1.416,0.404
		c-0.377,0.269-0.653,0.569-0.831,0.901s-0.28,0.607-0.308,0.826H181.986z"/>
	<path d="M184.167,40.037v-6.649h0.837v0.993c0.368-0.759,1.015-1.139,1.937-1.139v0.908c-0.209,0-0.426,0.044-0.65,0.133
		s-0.431,0.215-0.619,0.379c-0.188,0.163-0.339,0.354-0.451,0.573s-0.168,0.455-0.168,0.71v4.092H184.167z"/>
	<path d="M187.863,33.411h0.849v0.898c0.158-0.331,0.396-0.588,0.716-0.77c0.319-0.183,0.671-0.273,1.053-0.273
		c0.464,0,0.905,0.111,1.325,0.334s0.753,0.531,1,0.925c0.236-0.403,0.545-0.71,0.925-0.919c0.381-0.209,0.778-0.313,1.194-0.313
		c0.353,0,0.696,0.063,1.03,0.19s0.631,0.307,0.891,0.537c0.261,0.23,0.468,0.507,0.621,0.83c0.153,0.324,0.23,0.672,0.23,1.044
		v4.143h-0.872V36.04c0-0.4-0.087-0.743-0.262-1.029s-0.404-0.501-0.69-0.645s-0.594-0.216-0.926-0.216
		c-0.297,0-0.576,0.064-0.836,0.193c-0.261,0.129-0.469,0.321-0.624,0.575c-0.156,0.254-0.233,0.556-0.233,0.905v4.213h-0.92v-4.068
		c0-0.371-0.089-0.694-0.268-0.97c-0.179-0.276-0.413-0.486-0.703-0.632c-0.29-0.145-0.601-0.217-0.932-0.217
		c-0.303,0-0.58,0.066-0.835,0.199c-0.255,0.134-0.458,0.335-0.609,0.604c-0.152,0.271-0.228,0.601-0.228,0.991v4.092h-0.896V33.411
		z"/>
	<path d="M198.995,36.682c0.014-0.53,0.117-1.008,0.312-1.432s0.456-0.785,0.785-1.083c0.329-0.299,0.694-0.526,1.096-0.682
		c0.401-0.156,0.813-0.237,1.234-0.243c0.565,0,1.113,0.138,1.644,0.413c0.53,0.274,0.965,0.688,1.303,1.238
		c0.338,0.552,0.507,1.208,0.507,1.971v0.169h-5.984c0.04,0.49,0.19,0.909,0.452,1.255c0.263,0.346,0.58,0.604,0.954,0.776
		c0.373,0.172,0.74,0.257,1.102,0.257c0.321,0,0.646-0.063,0.973-0.191c0.327-0.129,0.616-0.305,0.867-0.528
		c0.252-0.224,0.43-0.472,0.534-0.743h0.92c-0.186,0.508-0.456,0.938-0.813,1.29c-0.355,0.352-0.754,0.612-1.194,0.78
		c-0.44,0.169-0.886,0.253-1.335,0.253c-0.589-0.023-1.141-0.181-1.654-0.472c-0.514-0.29-0.925-0.698-1.235-1.222
		C199.15,37.964,198.995,37.361,198.995,36.682z M205.003,36.234c-0.075-0.382-0.232-0.735-0.472-1.062
		c-0.239-0.325-0.541-0.584-0.904-0.778c-0.364-0.194-0.758-0.292-1.182-0.292c-0.567,0-1.04,0.135-1.416,0.404
		c-0.377,0.269-0.653,0.569-0.831,0.901s-0.28,0.607-0.308,0.826H205.003z"/>
	<path d="M206.866,36.415c0.053-0.617,0.247-1.164,0.581-1.641c0.334-0.478,0.751-0.848,1.252-1.11
		c0.501-0.264,1.016-0.403,1.546-0.422c0.561,0,1.083,0.107,1.567,0.322c0.485,0.215,0.879,0.553,1.183,1.012v-3.501h0.896v8.962
		h-0.849v-1.26c-0.315,0.472-0.693,0.823-1.134,1.056c-0.441,0.232-0.979,0.349-1.616,0.349c-0.544-0.023-1.083-0.184-1.617-0.48
		c-0.534-0.296-0.972-0.707-1.312-1.231s-0.51-1.115-0.51-1.773C206.854,36.574,206.858,36.48,206.866,36.415z M207.785,36.344
		c-0.016,0.081-0.023,0.202-0.023,0.364c0,0.438,0.114,0.856,0.343,1.257c0.229,0.399,0.542,0.724,0.939,0.973
		c0.396,0.248,0.838,0.376,1.323,0.384c0.438,0,0.862-0.109,1.275-0.328s0.75-0.534,1.01-0.947s0.391-0.892,0.391-1.436
		c0-0.292-0.094-0.634-0.279-1.027c-0.187-0.394-0.481-0.734-0.885-1.023c-0.403-0.288-0.907-0.433-1.512-0.433
		c-0.329,0-0.675,0.073-1.037,0.22c-0.361,0.147-0.687,0.388-0.976,0.722C208.066,35.402,207.876,35.828,207.785,36.344z"/>
	<path d="M215.224,36.767c0.006-0.528,0.109-1.012,0.311-1.451c0.2-0.439,0.47-0.813,0.809-1.121
		c0.338-0.308,0.718-0.543,1.141-0.706c0.423-0.164,0.853-0.246,1.288-0.246c1.212,0.03,2.08,0.515,2.604,1.455v-1.286h0.872v6.626
		h-0.872v-1.26c-0.248,0.445-0.607,0.791-1.079,1.036c-0.471,0.246-1.004,0.368-1.6,0.368c-0.453-0.012-0.888-0.099-1.304-0.262
		c-0.416-0.162-0.788-0.394-1.116-0.693c-0.328-0.299-0.586-0.659-0.773-1.079S215.224,37.268,215.224,36.767z M216.143,36.56
		c0,0.545,0.12,1.026,0.359,1.444c0.239,0.419,0.556,0.741,0.947,0.966c0.393,0.225,0.809,0.342,1.248,0.352
		c0.507,0,0.964-0.121,1.372-0.365c0.408-0.243,0.728-0.563,0.959-0.958c0.232-0.395,0.348-0.806,0.348-1.231
		c0-0.469-0.112-0.901-0.337-1.298c-0.225-0.396-0.533-0.713-0.927-0.95s-0.824-0.368-1.294-0.392c-0.511,0-0.971,0.127-1.381,0.381
		c-0.409,0.255-0.728,0.573-0.955,0.955C216.256,35.846,216.143,36.211,216.143,36.56z"/>
	<path d="M223.582,36.415c0.053-0.617,0.247-1.164,0.581-1.641c0.334-0.478,0.751-0.848,1.252-1.11
		c0.501-0.264,1.016-0.403,1.546-0.422c0.561,0,1.083,0.107,1.567,0.322c0.485,0.215,0.879,0.553,1.183,1.012v-3.501h0.896v8.962
		h-0.849v-1.26c-0.315,0.472-0.693,0.823-1.134,1.056c-0.441,0.232-0.979,0.349-1.616,0.349c-0.544-0.023-1.083-0.184-1.617-0.48
		c-0.534-0.296-0.972-0.707-1.312-1.231s-0.51-1.115-0.51-1.773C223.57,36.574,223.574,36.48,223.582,36.415z M224.501,36.344
		c-0.016,0.081-0.023,0.202-0.023,0.364c0,0.438,0.114,0.856,0.343,1.257c0.229,0.399,0.542,0.724,0.939,0.973
		c0.396,0.248,0.838,0.376,1.323,0.384c0.438,0,0.862-0.109,1.275-0.328s0.75-0.534,1.01-0.947s0.391-0.892,0.391-1.436
		c0-0.292-0.094-0.634-0.279-1.027c-0.187-0.394-0.481-0.734-0.885-1.023c-0.403-0.288-0.907-0.433-1.512-0.433
		c-0.329,0-0.675,0.073-1.037,0.22c-0.361,0.147-0.687,0.388-0.976,0.722C224.782,35.402,224.592,35.828,224.501,36.344z"/>
	<path d="M231.958,36.682c0.014-0.53,0.117-1.008,0.312-1.432s0.456-0.785,0.785-1.083c0.329-0.299,0.694-0.526,1.096-0.682
		c0.401-0.156,0.813-0.237,1.234-0.243c0.565,0,1.113,0.138,1.644,0.413c0.53,0.274,0.965,0.688,1.303,1.238
		c0.338,0.552,0.507,1.208,0.507,1.971v0.169h-5.984c0.04,0.49,0.19,0.909,0.452,1.255c0.263,0.346,0.58,0.604,0.954,0.776
		c0.373,0.172,0.74,0.257,1.102,0.257c0.321,0,0.646-0.063,0.973-0.191c0.327-0.129,0.616-0.305,0.867-0.528
		c0.252-0.224,0.43-0.472,0.534-0.743h0.92c-0.186,0.508-0.456,0.938-0.813,1.29c-0.355,0.352-0.754,0.612-1.194,0.78
		c-0.44,0.169-0.886,0.253-1.335,0.253c-0.589-0.023-1.141-0.181-1.654-0.472c-0.514-0.29-0.925-0.698-1.235-1.222
		C232.113,37.964,231.958,37.361,231.958,36.682z M237.966,36.234c-0.075-0.382-0.232-0.735-0.472-1.062
		c-0.239-0.325-0.541-0.584-0.904-0.778c-0.364-0.194-0.758-0.292-1.182-0.292c-0.567,0-1.04,0.135-1.416,0.404
		c-0.377,0.269-0.653,0.569-0.831,0.901s-0.28,0.607-0.308,0.826H237.966z"/>
	<path d="M239.861,35.351c-0.008-0.064-0.012-0.153-0.012-0.266c0-0.385,0.096-0.715,0.287-0.991
		c0.191-0.275,0.432-0.482,0.721-0.62c0.289-0.139,0.57-0.207,0.845-0.207c0.223,0,0.445,0.037,0.666,0.112
		c0.221,0.074,0.423,0.186,0.604,0.334c0.183,0.147,0.331,0.335,0.444,0.562s0.176,0.484,0.188,0.771h-0.907
		c-0.016-0.317-0.118-0.55-0.306-0.697c-0.188-0.148-0.418-0.222-0.688-0.222c-0.239,0-0.461,0.077-0.666,0.233
		c-0.205,0.155-0.314,0.384-0.328,0.686c0.002,0.008,0.014,0.058,0.034,0.149s0.034,0.151,0.04,0.179
		c0.062,0.219,0.27,0.402,0.624,0.549s0.712,0.288,1.071,0.423c0.36,0.135,0.664,0.334,0.912,0.596
		c0.249,0.263,0.373,0.636,0.373,1.121c0,0.082-0.009,0.203-0.026,0.363c-0.05,0.408-0.185,0.744-0.404,1.008
		c-0.22,0.265-0.479,0.455-0.776,0.572s-0.591,0.176-0.879,0.176c-0.4,0-0.759-0.092-1.074-0.274
		c-0.315-0.184-0.561-0.434-0.735-0.751s-0.262-0.669-0.262-1.056l0.898-0.026c0.012,0.38,0.141,0.688,0.386,0.925
		c0.245,0.237,0.525,0.361,0.839,0.373c0.315-0.027,0.584-0.149,0.806-0.365s0.333-0.478,0.333-0.785c0-0.272-0.09-0.519-0.268-0.74
		c-0.179-0.222-0.453-0.379-0.824-0.472c-0.505-0.137-0.937-0.326-1.295-0.571C240.124,36.194,239.917,35.832,239.861,35.351z"/>
</g>
</svg>
