<?xml version="1.0" encoding="utf-8"?>
<!-- Generator: Adobe Illustrator 15.1.0, SVG Export Plug-In  -->
<!DOCTYPE svg PUBLIC "-//W3C//DTD SVG 1.1//EN" "http://www.w3.org/Graphics/SVG/1.1/DTD/svg11.dtd" [
	<!ENTITY ns_flows "http://ns.adobe.com/Flows/1.0/">
]>
<svg version="1.1"
	 xmlns="http://www.w3.org/2000/svg" xmlns:xlink="http://www.w3.org/1999/xlink" xmlns:a="http://ns.adobe.com/AdobeSVGViewerExtensions/3.0/"
	 x="0px" y="0px" width="550px" height="74px" viewBox="0 0 550 74"
	 overflow="visible" enable-background="new 0 0 550 74" xml:space="preserve" role="img">
<defs>
</defs>
<path fill="#FFFFFF" d="M0,0h117.317v71.737H0V0z"/>
<path fill="#105EAB" d="M1.152,1.173h115.013v69.319H1.152V1.173z"/>
<polygon fill="#FFFFFF" points="48.367,70.479 116.14,1.819 116.14,1.132 115.8,1.132 47.352,70.479 "/>
<polygon fill="#FFFFFF" points="5.634,70.479 10.215,1.132 9.495,1.132 4.913,70.479 "/>
<polygon fill="#FFFFFF" points="9.299,70.479 19.194,1.132 18.461,1.132 8.572,70.479 "/>
<polygon fill="#FFFFFF" points="13.221,70.479 28.699,1.132 27.965,1.132 12.481,70.479 "/>
<polygon fill="#FFFFFF" points="17.527,70.479 39.62,1.132 38.875,1.132 16.775,70.479 "/>
<polygon fill="#FFFFFF" points="21.589,70.479 49.972,1.132 49.191,1.132 20.806,70.479 "/>
<polygon fill="#FFFFFF" points="26.261,70.479 61.762,1.132 60.968,1.132 25.449,70.479 "/>
<polygon fill="#FFFFFF" points="79.5,1.132 78.638,1.132 32.676,70.479 33.536,70.479 "/>
<polygon fill="#FFFFFF" points="95.889,1.132 94.983,1.132 39.107,70.479 40.03,70.479 "/>
<polygon fill="#FFFFFF" points="116.14,27.373 116.14,26.461 60.734,70.479 61.877,70.479 "/>
<polygon fill="#FFFFFF" points="116.14,46.448 116.14,45.602 76.336,70.479 77.698,70.479 "/>
<polygon fill="#FFFFFF" points="116.14,64.446 116.14,63.647 101.494,70.479 103.192,70.479 "/>
<path fill="#FFFFFF" d="M35.482,42.824c-1.423,1.364-5,2.833-7.626,2.807c-7.641-0.008-11.211-6.5-11.275-16.421
	c0.051-9.388,3.904-15.36,10.522-15.373c4.733,0.006,7.033,2.75,8.291,4.387l1.384,1.843v-8.533l-0.442-0.205
	c-2.728-1.269-6.192-1.862-9.349-1.868C15.106,9.489,6.039,18.005,6.021,30.026c0.019,12.331,8.588,20.076,20.862,20.093h0.063
	c6.094,0,9.221-1.838,10.87-3.102l0.488-0.371l-2.034-4.565L35.482,42.824z M68.773,13.898c-3.976-2.918-8.954-3.781-13.202-3.781
	h-14.51v39.305h15.455c7.496-0.018,19.078-4.773,19.097-19.761C75.626,21.816,72.762,16.814,68.773,13.898z M50.605,44.864V14.558
	c7.018,0.188,14.487,1.041,14.62,15.265C65.112,43.637,57.471,44.675,50.605,44.864z M108.714,42.085l-0.788,0.74
	c-1.424,1.365-4.991,2.832-7.614,2.804c-7.642,0-11.215-6.499-11.278-16.415c0.052-9.395,3.909-15.364,10.536-15.376
	c4.724,0.006,7.03,2.751,8.263,4.387l1.39,1.867v-8.555l-0.44-0.207c-2.714-1.272-6.178-1.86-9.348-1.866
	c-11.877,0.024-20.923,8.541-20.942,20.564c0.019,12.333,8.567,20.071,20.851,20.095h0.094c6.074,0,9.188-1.842,10.838-3.104
	l0.489-0.373L108.714,42.085z"/>
<path fill="#0033A0" d="M118.212,68.555h1.387v0.205h-0.581v1.488H118.8V68.76h-0.587V68.555z"/>
<path fill="#0033A0" d="M121.211,70.249v-1.016c0-0.037,0-0.256,0-0.418l0,0l-0.482,1.432h-0.227l-0.477-1.432h-0.006
	c0,0.16,0.006,0.381,0.006,0.418v1.016H119.8v-1.693h0.323l0.494,1.432h0.007l0.476-1.432h0.331v1.693H121.211z"/>
<path d="M126.312,45.709c0.151-1.353,0.61-2.542,1.377-3.576c0.769-1.029,1.727-1.822,2.876-2.375
	c1.148-0.555,2.354-0.83,3.616-0.83c0.689,0,1.363,0.084,2.022,0.252c0.659,0.167,1.289,0.421,1.89,0.76
	c0.601,0.34,1.16,0.768,1.676,1.288c0.517,0.519,0.971,1.128,1.362,1.831h-1.686c-0.438-0.576-0.941-1.059-1.51-1.456
	c-0.569-0.394-1.166-0.687-1.791-0.872c-0.626-0.187-1.252-0.282-1.878-0.282c-0.837,0-1.644,0.149-2.421,0.451
	s-1.472,0.734-2.083,1.3c-0.611,0.564-1.092,1.244-1.445,2.037c-0.353,0.789-0.53,1.66-0.53,2.603
	c0.014,1.215,0.322,2.305,0.926,3.273c0.605,0.969,1.398,1.723,2.381,2.264c0.984,0.541,2.026,0.818,3.126,0.836
	c0.646-0.018,1.289-0.127,1.928-0.332c0.639-0.205,1.246-0.512,1.821-0.92c0.577-0.412,1.088-0.926,1.537-1.551h1.687
	c-0.553,0.949-1.199,1.736-1.938,2.369c-0.739,0.629-1.535,1.094-2.386,1.396s-1.733,0.455-2.647,0.455
	c-1.007,0-1.987-0.188-2.943-0.559c-0.955-0.373-1.813-0.91-2.574-1.609c-0.762-0.697-1.361-1.537-1.799-2.52
	c-0.438-0.98-0.658-2.051-0.658-3.209C126.248,46.387,126.27,46.047,126.312,45.709z"/>
<path d="M142.606,48.69c0.023-0.9,0.2-1.711,0.53-2.43c0.329-0.721,0.773-1.333,1.332-1.839c0.559-0.508,1.178-0.892,1.859-1.157
	c0.681-0.265,1.379-0.4,2.095-0.413c0.959,0,1.89,0.234,2.79,0.701c0.899,0.466,1.637,1.167,2.211,2.103
	c0.573,0.934,0.861,2.049,0.861,3.344v0.285h-10.158c0.067,0.832,0.322,1.543,0.768,2.131c0.445,0.586,0.984,1.025,1.618,1.318
	c0.634,0.289,1.257,0.436,1.869,0.436c0.545,0,1.096-0.109,1.651-0.326c0.555-0.219,1.047-0.518,1.472-0.895
	c0.427-0.381,0.729-0.803,0.907-1.262h1.562c-0.315,0.863-0.773,1.594-1.377,2.191c-0.604,0.598-1.28,1.039-2.028,1.326
	c-0.747,0.283-1.503,0.428-2.266,0.428c-1-0.041-1.937-0.307-2.808-0.801c-0.872-0.492-1.57-1.186-2.098-2.074
	C142.87,50.868,142.606,49.844,142.606,48.69z M152.804,47.932c-0.127-0.65-0.393-1.252-0.8-1.803
	c-0.406-0.555-0.918-0.992-1.536-1.322c-0.616-0.332-1.285-0.494-2.004-0.494c-0.963,0-1.764,0.229-2.404,0.686
	c-0.639,0.455-1.109,0.964-1.41,1.531c-0.302,0.562-0.476,1.029-0.521,1.402H152.804L152.804,47.932z"/>
<path d="M156.242,54.385V43.139h1.441v1.687c0.371-0.62,0.878-1.096,1.52-1.43c0.643-0.334,1.327-0.502,2.053-0.502
	c0.632,0,1.243,0.115,1.832,0.342c0.589,0.227,1.116,0.557,1.581,0.994c0.464,0.433,0.836,0.977,1.112,1.625
	c0.276,0.65,0.414,1.375,0.414,2.178v6.354h-1.48v-6.354c0-0.777-0.167-1.439-0.499-1.988c-0.334-0.551-0.77-0.964-1.31-1.238
	c-0.541-0.273-1.117-0.412-1.729-0.412c-0.599,0-1.158,0.131-1.677,0.395c-0.519,0.262-0.937,0.656-1.257,1.179
	c-0.319,0.523-0.479,1.15-0.479,1.879v6.539H156.242z"/>
<path d="M169.474,54.385v-9.872h-2.364v-1.375h2.364v-3.966h1.52v3.966h2.609v1.375h-2.609v9.872H169.474z"/>
<path d="M173.964,48.69c0.023-0.9,0.2-1.711,0.529-2.43c0.329-0.721,0.773-1.333,1.333-1.839c0.558-0.508,1.178-0.892,1.859-1.157
	c0.681-0.265,1.379-0.4,2.096-0.413c0.959,0,1.89,0.234,2.79,0.701c0.9,0.466,1.637,1.167,2.211,2.103
	c0.573,0.934,0.86,2.049,0.86,3.344v0.285h-10.158c0.067,0.832,0.323,1.543,0.768,2.131c0.446,0.586,0.985,1.025,1.619,1.318
	c0.634,0.289,1.258,0.436,1.871,0.436c0.544,0,1.094-0.109,1.65-0.326c0.555-0.219,1.046-0.518,1.473-0.895
	c0.426-0.381,0.729-0.803,0.906-1.262h1.562c-0.315,0.863-0.774,1.594-1.378,2.191c-0.604,0.598-1.279,1.039-2.027,1.326
	c-0.748,0.283-1.503,0.428-2.266,0.428c-1-0.041-1.936-0.307-2.808-0.801c-0.872-0.492-1.571-1.186-2.098-2.074
	C174.226,50.866,173.964,49.844,173.964,48.69z M184.161,47.932c-0.127-0.65-0.394-1.252-0.801-1.803
	c-0.406-0.555-0.918-0.992-1.535-1.322c-0.618-0.33-1.286-0.494-2.006-0.494c-0.962,0-1.764,0.229-2.404,0.686
	c-0.639,0.455-1.109,0.964-1.41,1.531c-0.301,0.562-0.476,1.029-0.521,1.402H184.161L184.161,47.932z"/>
<path d="M187.608,54.385V43.098h1.421v1.687c0.625-1.287,1.721-1.932,3.286-1.932v1.541c-0.354,0-0.722,0.074-1.104,0.225
	c-0.382,0.15-0.731,0.365-1.052,0.643c-0.319,0.279-0.574,0.601-0.764,0.974c-0.191,0.371-0.287,0.771-0.287,1.203v6.947H187.608
	L187.608,54.385z"/>
<path d="M193.266,46.43c-0.014-0.109-0.02-0.262-0.02-0.453c0-0.652,0.162-1.212,0.487-1.681c0.324-0.469,0.732-0.82,1.223-1.053
	c0.49-0.234,0.969-0.354,1.434-0.354c0.378,0,0.755,0.063,1.13,0.191c0.375,0.125,0.717,0.316,1.025,0.566
	c0.311,0.252,0.562,0.568,0.755,0.953c0.191,0.386,0.298,0.824,0.319,1.312h-1.541c-0.026-0.539-0.2-0.935-0.52-1.185
	c-0.319-0.252-0.708-0.378-1.167-0.378c-0.404,0-0.781,0.134-1.128,0.396c-0.349,0.266-0.534,0.654-0.557,1.164
	c0.003,0.016,0.022,0.098,0.058,0.254c0.035,0.154,0.058,0.256,0.067,0.305c0.104,0.369,0.457,0.68,1.059,0.93
	c0.603,0.248,1.208,0.488,1.819,0.719c0.61,0.229,1.127,0.564,1.548,1.01c0.422,0.445,0.633,1.078,0.633,1.902
	c0,0.141-0.015,0.348-0.046,0.617c-0.084,0.693-0.313,1.264-0.686,1.711c-0.374,0.449-0.813,0.773-1.319,0.973
	s-1.003,0.299-1.492,0.299c-0.681,0-1.289-0.156-1.823-0.469c-0.536-0.311-0.952-0.736-1.248-1.273
	c-0.296-0.539-0.444-1.137-0.444-1.793l1.525-0.045c0.02,0.646,0.238,1.168,0.656,1.57c0.417,0.4,0.89,0.611,1.424,0.631
	c0.535-0.047,0.991-0.252,1.368-0.621c0.375-0.367,0.564-0.809,0.564-1.33c0-0.461-0.151-0.883-0.454-1.258
	c-0.302-0.377-0.769-0.645-1.397-0.801c-0.857-0.23-1.591-0.555-2.199-0.967C193.71,47.864,193.359,47.249,193.266,46.43z"/>
<path d="M207.845,54.385v-9.847h-1.728v-1.357h1.728c0-2.645,1.445-3.969,4.336-3.969v1.398c-0.857,0-1.542,0.176-2.058,0.522
	c-0.517,0.349-0.782,0.975-0.798,1.884c0.026,0.053,0.04,0.109,0.04,0.164h2.815v1.357h-2.815v9.847H207.845L207.845,54.385z"/>
<path d="M212.488,48.569c0.011-0.738,0.166-1.453,0.467-2.137c0.302-0.688,0.722-1.294,1.262-1.826
	c0.54-0.529,1.181-0.949,1.922-1.255c0.741-0.308,1.545-0.458,2.411-0.458c0.823,0,1.665,0.236,2.527,0.707
	c0.862,0.473,1.587,1.118,2.175,1.933c0.589,0.82,0.921,1.719,0.994,2.705c0,0.049,0.002,0.123,0.009,0.219
	c0.006,0.096,0.011,0.166,0.011,0.209c0,0.83-0.156,1.607-0.468,2.334c-0.312,0.723-0.745,1.361-1.299,1.908
	c-0.556,0.545-1.19,0.971-1.904,1.273c-0.715,0.301-1.463,0.449-2.251,0.449c-0.95,0-1.878-0.238-2.783-0.713
	s-1.643-1.172-2.215-2.098C212.774,50.901,212.488,49.817,212.488,48.569z M213.969,48.647c0,0.898,0.2,1.686,0.6,2.361
	c0.4,0.676,0.938,1.201,1.613,1.578c0.675,0.377,1.412,0.586,2.208,0.625c0.666,0,1.33-0.18,1.995-0.535
	c0.665-0.359,1.213-0.887,1.648-1.58c0.435-0.693,0.654-1.51,0.654-2.449c0-0.545-0.115-1.076-0.342-1.594
	c-0.227-0.518-0.542-0.979-0.943-1.385c-0.401-0.406-0.865-0.726-1.391-0.96c-0.524-0.236-1.065-0.355-1.621-0.355
	c-0.756,0.018-1.471,0.212-2.143,0.583c-0.673,0.372-1.217,0.881-1.634,1.53C214.197,47.112,213.983,47.84,213.969,48.647z"/>
<path d="M226.258,54.385V43.098h1.42v1.687c0.625-1.287,1.723-1.932,3.288-1.932v1.541c-0.354,0-0.722,0.074-1.104,0.225
	c-0.381,0.15-0.731,0.365-1.051,0.643c-0.319,0.279-0.575,0.601-0.766,0.974c-0.19,0.371-0.285,0.771-0.285,1.203v6.947H226.258
	L226.258,54.385L226.258,54.385z"/>
<path d="M237.977,54.385V39.173h4.134c1.426,0,2.686,0.202,3.78,0.607c1.094,0.4,2.008,0.962,2.743,1.677
	c0.735,0.716,1.283,1.54,1.647,2.47c0.364,0.932,0.544,1.931,0.544,2.996c-0.01,1.131-0.234,2.162-0.67,3.09
	c-0.436,0.93-1.032,1.725-1.787,2.379c-0.755,0.656-1.603,1.154-2.544,1.488c-0.942,0.338-1.914,0.506-2.914,0.506H237.977z
	 M239.499,40.527v12.458h2.343c2.111,0,3.848-0.496,5.214-1.488c1.363-0.992,2.114-2.516,2.249-4.574
	c0-0.848-0.146-1.654-0.438-2.423c-0.291-0.767-0.733-1.45-1.327-2.047c-0.593-0.596-1.347-1.066-2.259-1.41
	c-0.912-0.342-1.968-0.516-3.17-0.516L239.499,40.527L239.499,40.527z"/>
<path d="M253.036,41.784v-2.611h1.521v2.611H253.036z M253.036,54.385V43.139h1.521v11.247H253.036z"/>
<path d="M256.779,46.43c-0.014-0.109-0.019-0.262-0.019-0.453c0-0.652,0.16-1.212,0.486-1.681c0.325-0.469,0.732-0.82,1.224-1.053
	c0.491-0.234,0.969-0.354,1.434-0.354c0.377,0,0.757,0.063,1.13,0.191c0.375,0.125,0.717,0.316,1.025,0.566
	c0.312,0.252,0.562,0.568,0.755,0.953c0.193,0.386,0.299,0.824,0.319,1.312h-1.541c-0.026-0.539-0.2-0.935-0.52-1.185
	c-0.319-0.252-0.708-0.378-1.167-0.378c-0.405,0-0.781,0.134-1.128,0.396c-0.349,0.266-0.534,0.654-0.558,1.164
	c0.003,0.016,0.023,0.098,0.059,0.254c0.035,0.154,0.058,0.256,0.068,0.305c0.104,0.369,0.455,0.68,1.058,0.93
	c0.604,0.248,1.21,0.488,1.821,0.719c0.61,0.229,1.126,0.564,1.548,1.01c0.42,0.445,0.632,1.078,0.632,1.902
	c0,0.141-0.015,0.348-0.046,0.617c-0.083,0.693-0.312,1.264-0.685,1.711c-0.374,0.449-0.814,0.773-1.32,0.973
	c-0.506,0.199-1.002,0.299-1.492,0.299c-0.679,0-1.288-0.156-1.823-0.469c-0.536-0.311-0.952-0.736-1.249-1.273
	c-0.295-0.539-0.444-1.137-0.444-1.793l1.526-0.045c0.02,0.646,0.238,1.168,0.656,1.57c0.417,0.4,0.891,0.611,1.425,0.631
	c0.535-0.047,0.991-0.252,1.366-0.621c0.378-0.367,0.565-0.809,0.565-1.33c0-0.461-0.152-0.883-0.454-1.258
	c-0.303-0.377-0.769-0.645-1.398-0.801c-0.858-0.23-1.59-0.555-2.2-0.967C257.227,47.858,256.874,47.249,256.779,46.43z"/>
<path d="M264.72,48.69c0.022-0.9,0.199-1.711,0.53-2.43c0.328-0.721,0.773-1.333,1.332-1.839c0.558-0.508,1.178-0.892,1.859-1.157
	c0.683-0.265,1.379-0.4,2.097-0.413c0.958,0,1.891,0.234,2.791,0.701c0.9,0.466,1.636,1.167,2.21,2.103
	c0.574,0.934,0.859,2.049,0.859,3.344v0.285H266.24c0.067,0.832,0.322,1.543,0.767,2.131c0.446,0.586,0.985,1.025,1.62,1.318
	c0.633,0.289,1.257,0.436,1.867,0.436c0.547,0,1.096-0.109,1.653-0.326c0.555-0.219,1.046-0.518,1.472-0.895
	c0.427-0.381,0.729-0.803,0.905-1.262h1.563c-0.316,0.863-0.774,1.594-1.377,2.191c-0.605,0.598-1.281,1.039-2.029,1.326
	c-0.748,0.283-1.502,0.428-2.266,0.428c-1.001-0.041-1.938-0.307-2.81-0.801c-0.871-0.492-1.569-1.186-2.097-2.074
	C264.983,50.866,264.72,49.844,264.72,48.69z M274.918,47.932c-0.127-0.65-0.394-1.252-0.8-1.803
	c-0.407-0.555-0.919-0.992-1.535-1.322c-0.618-0.33-1.287-0.494-2.005-0.494c-0.963,0-1.766,0.229-2.404,0.686
	c-0.638,0.455-1.108,0.964-1.41,1.531c-0.3,0.562-0.476,1.029-0.52,1.402H274.918L274.918,47.932z"/>
<path d="M277.798,48.836c0.01-0.898,0.184-1.719,0.525-2.465c0.343-0.748,0.799-1.382,1.373-1.904
	c0.573-0.521,1.22-0.921,1.937-1.196c0.717-0.279,1.446-0.418,2.185-0.418c2.059,0.051,3.532,0.872,4.422,2.469V43.14h1.481v11.246
	h-1.481V52.25c-0.422,0.756-1.031,1.34-1.831,1.758s-1.704,0.625-2.716,0.625c-0.77-0.021-1.506-0.168-2.213-0.443
	c-0.705-0.279-1.335-0.67-1.895-1.18c-0.557-0.508-0.994-1.117-1.312-1.83C277.956,50.465,277.798,49.684,277.798,48.836z
	 M279.358,48.485c0,0.922,0.203,1.74,0.609,2.451s0.943,1.258,1.609,1.637c0.666,0.381,1.371,0.582,2.117,0.598
	c0.859,0,1.637-0.209,2.33-0.621c0.691-0.412,1.234-0.957,1.629-1.627c0.394-0.67,0.59-1.367,0.59-2.09
	c0-0.797-0.19-1.529-0.572-2.203s-0.906-1.211-1.574-1.613c-0.666-0.403-1.398-0.625-2.197-0.665c-0.864,0-1.647,0.216-2.34,0.647
	c-0.697,0.431-1.238,0.972-1.624,1.623C279.55,47.27,279.358,47.891,279.358,48.485z"/>
<path d="M291.936,46.43c-0.015-0.109-0.021-0.262-0.021-0.453c0-0.652,0.163-1.212,0.487-1.681s0.733-0.82,1.225-1.053
	c0.489-0.234,0.969-0.354,1.434-0.354c0.38,0,0.756,0.063,1.129,0.191c0.374,0.125,0.719,0.316,1.028,0.566
	c0.309,0.252,0.558,0.568,0.753,0.953c0.192,0.386,0.298,0.824,0.319,1.312h-1.539c-0.027-0.539-0.201-0.935-0.522-1.185
	c-0.318-0.252-0.708-0.378-1.165-0.378c-0.404,0-0.783,0.134-1.129,0.396c-0.348,0.266-0.534,0.654-0.557,1.164
	c0.004,0.016,0.021,0.098,0.057,0.254c0.035,0.154,0.059,0.256,0.068,0.305c0.103,0.369,0.457,0.68,1.061,0.93
	c0.6,0.248,1.207,0.488,1.818,0.719c0.609,0.229,1.125,0.564,1.548,1.01c0.421,0.445,0.632,1.078,0.632,1.902
	c0,0.141-0.016,0.348-0.047,0.617c-0.083,0.693-0.311,1.264-0.686,1.711c-0.373,0.449-0.812,0.773-1.318,0.973
	s-1.002,0.299-1.493,0.299c-0.68,0-1.287-0.156-1.823-0.469c-0.535-0.311-0.952-0.736-1.248-1.273
	c-0.295-0.539-0.444-1.137-0.444-1.793l1.524-0.045c0.021,0.646,0.238,1.168,0.656,1.57c0.416,0.4,0.89,0.611,1.424,0.631
	c0.535-0.047,0.991-0.252,1.367-0.621c0.375-0.367,0.563-0.809,0.563-1.33c0-0.461-0.151-0.883-0.454-1.258
	c-0.303-0.377-0.77-0.645-1.398-0.801c-0.857-0.23-1.59-0.555-2.199-0.967C292.38,47.864,292.029,47.249,291.936,46.43z"/>
<path d="M299.876,48.69c0.023-0.9,0.199-1.711,0.529-2.43c0.328-0.721,0.773-1.333,1.332-1.839c0.559-0.508,1.178-0.892,1.859-1.157
	c0.682-0.265,1.38-0.4,2.096-0.413c0.961,0,1.891,0.234,2.791,0.701c0.9,0.466,1.637,1.167,2.21,2.103
	c0.574,0.934,0.86,2.049,0.86,3.344v0.285h-10.158c0.066,0.832,0.322,1.543,0.768,2.131c0.445,0.586,0.984,1.025,1.619,1.318
	c0.634,0.289,1.258,0.436,1.868,0.436c0.546,0,1.095-0.109,1.651-0.326c0.555-0.219,1.047-0.518,1.474-0.895
	c0.425-0.381,0.728-0.803,0.905-1.262h1.562c-0.316,0.863-0.774,1.594-1.379,2.191s-1.279,1.039-2.027,1.326
	c-0.749,0.283-1.503,0.428-2.268,0.428c-1-0.041-1.936-0.307-2.807-0.801c-0.871-0.492-1.57-1.186-2.1-2.074
	C300.14,50.866,299.876,49.844,299.876,48.69z M310.073,47.932c-0.125-0.65-0.392-1.252-0.799-1.803
	c-0.408-0.555-0.92-0.992-1.535-1.322c-0.617-0.33-1.285-0.494-2.006-0.494c-0.961,0-1.764,0.229-2.401,0.686
	c-0.64,0.455-1.109,0.964-1.41,1.531c-0.302,0.562-0.475,1.029-0.522,1.402H310.073L310.073,47.932z"/>
<path d="M318.606,45.709c0.152-1.353,0.609-2.542,1.377-3.576c0.768-1.029,1.729-1.822,2.876-2.375
	c1.149-0.555,2.354-0.83,3.616-0.83c0.689,0,1.361,0.084,2.023,0.252c0.656,0.167,1.289,0.421,1.889,0.76
	c0.602,0.34,1.158,0.768,1.676,1.288c0.518,0.519,0.971,1.128,1.362,1.831h-1.687c-0.438-0.576-0.941-1.059-1.511-1.456
	c-0.568-0.394-1.164-0.687-1.792-0.872c-0.625-0.187-1.251-0.282-1.876-0.282c-0.837,0-1.644,0.149-2.422,0.451
	c-0.777,0.302-1.473,0.734-2.083,1.3c-0.61,0.564-1.093,1.244-1.444,2.037c-0.354,0.789-0.529,1.66-0.529,2.603
	c0.014,1.215,0.32,2.305,0.926,3.273c0.604,0.969,1.396,1.723,2.381,2.264c0.982,0.541,2.025,0.818,3.127,0.836
	c0.645-0.018,1.287-0.127,1.926-0.332c0.64-0.205,1.248-0.512,1.823-0.92c0.574-0.412,1.089-0.926,1.536-1.551h1.686
	c-0.552,0.949-1.197,1.736-1.936,2.369c-0.74,0.629-1.535,1.094-2.387,1.396c-0.854,0.303-1.734,0.455-2.646,0.455
	c-1.008,0-1.989-0.188-2.943-0.559c-0.955-0.373-1.814-0.91-2.573-1.609c-0.763-0.697-1.362-1.537-1.8-2.52
	c-0.438-0.98-0.657-2.051-0.657-3.209C318.54,46.387,318.563,46.047,318.606,45.709z"/>
<path d="M334.89,48.569c0.01-0.738,0.166-1.453,0.467-2.137c0.301-0.688,0.723-1.294,1.26-1.826
	c0.541-0.529,1.184-0.949,1.924-1.255c0.742-0.308,1.545-0.458,2.41-0.458c0.824,0,1.666,0.236,2.529,0.707
	c0.859,0.473,1.586,1.118,2.174,1.933c0.588,0.82,0.922,1.719,0.992,2.705c0,0.049,0.004,0.123,0.012,0.219
	c0.006,0.096,0.012,0.166,0.012,0.209c0,0.83-0.156,1.607-0.467,2.334c-0.312,0.723-0.746,1.361-1.301,1.908
	s-1.189,0.971-1.904,1.273c-0.713,0.301-1.463,0.449-2.25,0.449c-0.951,0-1.879-0.238-2.783-0.713
	c-0.902-0.475-1.643-1.172-2.213-2.098C335.175,50.901,334.89,49.817,334.89,48.569z M336.37,48.647c0,0.898,0.199,1.686,0.6,2.361
	s0.938,1.201,1.613,1.578s1.412,0.586,2.209,0.625c0.664,0,1.328-0.18,1.996-0.535c0.662-0.359,1.213-0.887,1.646-1.58
	c0.436-0.693,0.654-1.51,0.654-2.449c0-0.545-0.115-1.076-0.344-1.594c-0.225-0.518-0.541-0.979-0.941-1.385
	c-0.402-0.406-0.865-0.726-1.391-0.96c-0.525-0.236-1.066-0.355-1.621-0.355c-0.756,0.018-1.471,0.212-2.145,0.583
	c-0.672,0.372-1.215,0.881-1.631,1.53C336.599,47.112,336.384,47.84,336.37,48.647z"/>
<path d="M348.651,54.385V43.139h1.439v1.687c0.371-0.62,0.879-1.096,1.523-1.43c0.641-0.334,1.324-0.502,2.051-0.502
	c0.633,0,1.244,0.115,1.83,0.342c0.59,0.227,1.117,0.557,1.58,0.994c0.467,0.433,0.838,0.977,1.113,1.625
	c0.277,0.65,0.414,1.375,0.414,2.178v6.354h-1.479v-6.354c0-0.777-0.166-1.439-0.5-1.988c-0.334-0.551-0.77-0.964-1.311-1.238
	c-0.539-0.273-1.117-0.412-1.73-0.412c-0.598,0-1.156,0.131-1.676,0.395c-0.52,0.262-0.936,0.656-1.256,1.179s-0.48,1.15-0.48,1.879
	v6.539H348.651z"/>
<path d="M361.882,54.385v-9.872h-2.365v-1.375h2.365v-3.966h1.52v3.966h2.611v1.375h-2.611v9.872H361.882z"/>
<path d="M367.372,54.385V43.098h1.42v1.687c0.627-1.287,1.723-1.932,3.289-1.932v1.541c-0.355,0-0.723,0.074-1.105,0.225
	c-0.381,0.15-0.732,0.365-1.053,0.643c-0.318,0.279-0.574,0.601-0.764,0.974c-0.191,0.371-0.287,0.771-0.287,1.203v6.947H367.372
	L367.372,54.385L367.372,54.385z"/>
<path d="M372.364,48.569c0.01-0.738,0.166-1.453,0.465-2.137c0.301-0.688,0.723-1.294,1.264-1.826
	c0.539-0.529,1.182-0.949,1.922-1.255c0.742-0.308,1.545-0.458,2.412-0.458c0.822,0,1.664,0.236,2.525,0.707
	c0.861,0.473,1.588,1.118,2.176,1.933c0.588,0.82,0.92,1.719,0.994,2.705c0,0.049,0.002,0.123,0.01,0.219s0.012,0.166,0.012,0.209
	c0,0.83-0.156,1.607-0.467,2.334c-0.312,0.723-0.744,1.361-1.299,1.908c-0.555,0.545-1.191,0.971-1.906,1.273
	c-0.713,0.301-1.463,0.449-2.25,0.449c-0.951,0-1.879-0.238-2.781-0.713c-0.906-0.475-1.645-1.172-2.217-2.098
	C372.649,50.901,372.364,49.817,372.364,48.569z M373.845,48.647c0,0.898,0.199,1.686,0.6,2.361
	c0.398,0.676,0.938,1.201,1.613,1.578s1.412,0.586,2.209,0.625c0.666,0,1.328-0.18,1.994-0.535c0.664-0.359,1.213-0.887,1.648-1.58
	s0.654-1.51,0.654-2.449c0-0.545-0.115-1.076-0.342-1.594s-0.541-0.979-0.945-1.385c-0.4-0.406-0.863-0.726-1.391-0.96
	c-0.523-0.236-1.064-0.355-1.619-0.355c-0.758,0.018-1.471,0.212-2.145,0.583c-0.672,0.372-1.217,0.881-1.633,1.53
	C374.073,47.112,373.856,47.84,373.845,48.647z"/>
<path d="M386.151,54.385V39.173h1.518v15.212H386.151z"/>
<path d="M395.075,48.836c0.01-0.898,0.184-1.719,0.525-2.465c0.342-0.748,0.799-1.382,1.373-1.904
	c0.574-0.521,1.219-0.921,1.936-1.196c0.719-0.279,1.445-0.418,2.186-0.418c2.059,0.051,3.533,0.872,4.422,2.469V43.14h1.48v11.246
	h-1.48V52.25c-0.422,0.756-1.031,1.34-1.832,1.758s-1.705,0.625-2.715,0.625c-0.771-0.021-1.508-0.168-2.213-0.443
	c-0.707-0.279-1.338-0.67-1.896-1.18c-0.555-0.508-0.992-1.117-1.312-1.83C395.233,50.465,395.075,49.684,395.075,48.836z
	 M396.636,48.485c0,0.922,0.201,1.74,0.609,2.451c0.406,0.711,0.941,1.258,1.607,1.637c0.664,0.381,1.371,0.582,2.119,0.598
	c0.857,0,1.633-0.209,2.328-0.621c0.691-0.412,1.234-0.957,1.629-1.627c0.393-0.67,0.588-1.367,0.588-2.09
	c0-0.797-0.189-1.529-0.57-2.203c-0.383-0.674-0.906-1.211-1.574-1.613c-0.666-0.403-1.398-0.625-2.195-0.665
	c-0.867,0-1.648,0.216-2.344,0.647c-0.695,0.431-1.236,0.972-1.621,1.623C396.827,47.27,396.636,47.891,396.636,48.485z"/>
<path d="M409.579,54.385V43.139h1.439v1.687c0.373-0.62,0.879-1.096,1.521-1.43s1.326-0.502,2.053-0.502
	c0.631,0,1.242,0.115,1.832,0.342c0.588,0.227,1.115,0.557,1.58,0.994c0.465,0.433,0.836,0.977,1.111,1.625
	c0.277,0.65,0.414,1.375,0.414,2.178v6.354h-1.48v-6.354c0-0.777-0.166-1.439-0.498-1.988c-0.334-0.551-0.771-0.964-1.311-1.238
	c-0.541-0.273-1.117-0.412-1.729-0.412c-0.6,0-1.16,0.131-1.678,0.395c-0.52,0.262-0.938,0.656-1.258,1.179
	c-0.318,0.523-0.479,1.15-0.479,1.879v6.539H409.579z"/>
<path d="M421.446,48.237c0.09-1.045,0.42-1.975,0.986-2.783c0.566-0.811,1.277-1.439,2.127-1.886s1.727-0.687,2.625-0.717
	c0.949,0,1.836,0.184,2.66,0.549c0.824,0.364,1.492,0.938,2.008,1.717v-5.943h1.52v15.212h-1.439v-2.137
	c-0.535,0.799-1.178,1.395-1.924,1.791c-0.75,0.395-1.664,0.592-2.744,0.592c-0.924-0.041-1.838-0.312-2.744-0.816
	c-0.906-0.502-1.648-1.199-2.227-2.092c-0.576-0.889-0.865-1.895-0.865-3.01C421.429,48.506,421.435,48.348,421.446,48.237z
	 M423.007,48.118c-0.025,0.137-0.041,0.342-0.041,0.617c0,0.744,0.195,1.453,0.584,2.135c0.387,0.678,0.918,1.229,1.594,1.65
	c0.674,0.422,1.422,0.639,2.246,0.654c0.742,0,1.463-0.186,2.164-0.557c0.701-0.373,1.273-0.908,1.715-1.609
	c0.441-0.699,0.662-1.514,0.662-2.436c0-0.494-0.156-1.076-0.475-1.744c-0.314-0.668-0.816-1.248-1.5-1.736
	c-0.684-0.488-1.539-0.734-2.566-0.734c-0.561,0-1.146,0.125-1.76,0.373c-0.615,0.252-1.166,0.656-1.658,1.226
	C423.483,46.518,423.161,47.241,423.007,48.118z"/>
<path d="M441.511,54.385V39.173h3.99c1.199,0,2.23,0.127,3.096,0.379c0.865,0.254,1.562,0.697,2.086,1.33
	c0.529,0.635,0.828,1.496,0.902,2.588c0.012,0.098,0.02,0.234,0.02,0.411c0,0.845-0.225,1.596-0.67,2.258
	c-0.449,0.664-1.07,1.18-1.869,1.547c-0.801,0.369-1.707,0.553-2.721,0.553h-3.312v6.146H441.511L441.511,54.385z M443.032,40.527
	v6.354h3.146c1.338,0,2.32-0.307,2.945-0.924c0.625-0.613,0.939-1.444,0.939-2.488c-0.057-1.08-0.469-1.842-1.236-2.28
	c-0.768-0.439-1.816-0.662-3.139-0.662H443.032z"/>
<path d="M453.134,54.385V43.098h1.42v1.687c0.627-1.287,1.723-1.932,3.289-1.932v1.541c-0.354,0-0.723,0.074-1.105,0.225
	c-0.381,0.15-0.73,0.365-1.051,0.643c-0.32,0.279-0.576,0.601-0.766,0.974c-0.189,0.371-0.285,0.771-0.285,1.203v6.947H453.134
	L453.134,54.385L453.134,54.385z"/>
<path d="M458.157,48.69c0.021-0.9,0.199-1.711,0.527-2.43c0.33-0.721,0.773-1.333,1.332-1.839c0.561-0.508,1.18-0.892,1.859-1.157
	c0.684-0.265,1.381-0.4,2.098-0.413c0.959,0,1.891,0.234,2.791,0.701c0.9,0.466,1.637,1.167,2.211,2.103
	c0.572,0.934,0.859,2.049,0.859,3.344v0.285h-10.158c0.066,0.832,0.32,1.543,0.768,2.131c0.443,0.586,0.984,1.025,1.617,1.318
	c0.635,0.289,1.258,0.436,1.869,0.436c0.547,0,1.096-0.109,1.652-0.326c0.555-0.219,1.047-0.518,1.473-0.895
	c0.426-0.381,0.727-0.803,0.906-1.262h1.561c-0.314,0.863-0.773,1.594-1.377,2.191c-0.605,0.598-1.281,1.039-2.027,1.326
	c-0.75,0.283-1.504,0.428-2.268,0.428c-1-0.041-1.936-0.307-2.807-0.801c-0.871-0.492-1.57-1.186-2.1-2.074
	C458.421,50.866,458.157,49.844,458.157,48.69z M468.354,47.932c-0.127-0.65-0.393-1.252-0.801-1.803
	c-0.406-0.555-0.918-0.992-1.533-1.322c-0.619-0.33-1.287-0.494-2.006-0.494c-0.963,0-1.766,0.229-2.404,0.686
	c-0.637,0.455-1.107,0.964-1.408,1.531c-0.303,0.562-0.477,1.029-0.521,1.402H468.354L468.354,47.932z"/>
<path d="M474.784,54.385l-4.727-11.247h1.643l3.887,9.315l3.906-9.315h1.646l-4.793,11.247H474.784z"/>
<path d="M481.388,48.69c0.023-0.9,0.201-1.711,0.529-2.43c0.33-0.721,0.773-1.333,1.332-1.839c0.559-0.508,1.178-0.892,1.859-1.157
	c0.682-0.265,1.381-0.4,2.096-0.413c0.961,0,1.891,0.234,2.791,0.701c0.9,0.466,1.637,1.167,2.211,2.103
	c0.574,0.934,0.861,2.049,0.861,3.344v0.285h-10.16c0.066,0.832,0.322,1.543,0.768,2.131c0.445,0.586,0.986,1.025,1.619,1.318
	c0.633,0.289,1.258,0.436,1.869,0.436c0.545,0,1.096-0.109,1.652-0.326c0.555-0.219,1.045-0.518,1.471-0.895
	c0.428-0.381,0.729-0.803,0.906-1.262h1.562c-0.316,0.863-0.775,1.594-1.377,2.191c-0.605,0.598-1.283,1.039-2.029,1.326
	c-0.748,0.283-1.502,0.428-2.266,0.428c-1-0.041-1.938-0.307-2.809-0.801c-0.871-0.492-1.57-1.186-2.098-2.074
	C481.651,50.866,481.388,49.844,481.388,48.69z M491.587,47.932c-0.129-0.65-0.395-1.252-0.801-1.803
	c-0.408-0.555-0.92-0.992-1.535-1.322c-0.617-0.333-1.287-0.494-2.006-0.494c-0.963,0-1.764,0.229-2.402,0.686
	c-0.639,0.455-1.109,0.964-1.41,1.531c-0.303,0.562-0.477,1.029-0.521,1.402H491.587L491.587,47.932z"/>
<path d="M495.024,54.385V43.139h1.439v1.687c0.373-0.62,0.879-1.096,1.521-1.43s1.326-0.502,2.053-0.502
	c0.633,0,1.244,0.115,1.832,0.342s1.115,0.557,1.58,0.994c0.465,0.433,0.836,0.977,1.113,1.625c0.275,0.65,0.414,1.375,0.414,2.178
	v6.354h-1.482v-6.354c0-0.777-0.166-1.439-0.498-1.988c-0.334-0.551-0.77-0.964-1.311-1.238c-0.539-0.273-1.117-0.412-1.729-0.412
	c-0.6,0-1.158,0.131-1.676,0.395c-0.52,0.262-0.938,0.656-1.258,1.179s-0.48,1.15-0.48,1.879v6.539H495.024z"/>
<path d="M508.255,54.385v-9.872h-2.363v-1.375h2.363v-3.966h1.521v3.966h2.609v1.375h-2.609v9.872H508.255z"/>
<path d="M513.739,41.784v-2.611h1.52v2.611H513.739z M513.739,54.385V43.139h1.52v11.247H513.739z"/>
<path d="M517.271,48.569c0.008-0.738,0.164-1.453,0.467-2.137c0.299-0.688,0.721-1.294,1.26-1.826
	c0.541-0.529,1.182-0.949,1.924-1.255c0.74-0.308,1.545-0.458,2.41-0.458c0.822,0,1.664,0.236,2.527,0.707
	c0.859,0.473,1.588,1.118,2.174,1.933c0.59,0.82,0.922,1.719,0.994,2.705c0,0.049,0.004,0.123,0.01,0.219
	c0.008,0.096,0.014,0.166,0.014,0.209c0,0.83-0.156,1.607-0.469,2.334c-0.312,0.723-0.744,1.361-1.299,1.908
	c-0.557,0.547-1.191,0.971-1.904,1.273c-0.713,0.301-1.465,0.449-2.252,0.449c-0.949,0-1.877-0.238-2.783-0.713
	c-0.904-0.475-1.643-1.172-2.215-2.098C517.554,50.901,517.271,49.817,517.271,48.569z M518.749,48.647
	c0,0.898,0.201,1.686,0.6,2.361c0.4,0.676,0.938,1.201,1.613,1.578c0.678,0.377,1.412,0.586,2.209,0.625
	c0.664,0,1.328-0.18,1.996-0.535c0.664-0.359,1.213-0.887,1.648-1.58s0.652-1.51,0.652-2.449c0-0.545-0.115-1.076-0.342-1.594
	s-0.541-0.979-0.943-1.385c-0.4-0.406-0.865-0.726-1.391-0.96c-0.525-0.236-1.066-0.355-1.621-0.355
	c-0.756,0.018-1.469,0.212-2.143,0.583c-0.672,0.372-1.217,0.881-1.633,1.53C518.978,47.112,518.763,47.84,518.749,48.647z"/>
<path d="M531.03,54.385V43.139h1.439v1.687c0.371-0.62,0.879-1.096,1.523-1.43c0.641-0.334,1.324-0.502,2.051-0.502
	c0.633,0,1.244,0.115,1.832,0.342s1.115,0.557,1.58,0.994c0.465,0.433,0.836,0.977,1.111,1.625c0.277,0.65,0.416,1.375,0.416,2.178
	v6.354h-1.48v-6.354c0-0.777-0.166-1.439-0.5-1.988c-0.332-0.551-0.77-0.964-1.309-1.238c-0.541-0.273-1.119-0.412-1.73-0.412
	c-0.6,0-1.158,0.131-1.676,0.395c-0.52,0.262-0.939,0.656-1.258,1.179c-0.32,0.523-0.48,1.15-0.48,1.879v6.539H531.03z"/>
<path d="M127.98,65.319c0.081-0.723,0.327-1.361,0.738-1.912c0.411-0.553,0.924-0.977,1.539-1.271
	c0.615-0.297,1.261-0.447,1.936-0.447c0.368,0,0.73,0.047,1.083,0.135c0.353,0.09,0.69,0.227,1.011,0.408
	c0.322,0.182,0.621,0.41,0.898,0.688c0.276,0.279,0.52,0.605,0.729,0.982h-0.902c-0.234-0.307-0.504-0.568-0.809-0.781
	c-0.304-0.209-0.625-0.365-0.959-0.467s-0.67-0.152-1.004-0.152c-0.448,0-0.881,0.084-1.296,0.244
	c-0.417,0.16-0.788,0.391-1.115,0.695c-0.327,0.301-0.585,0.664-0.773,1.092c-0.189,0.422-0.284,0.889-0.284,1.395
	c0.006,0.648,0.172,1.232,0.496,1.752c0.323,0.52,0.749,0.922,1.275,1.211c0.527,0.289,1.085,0.438,1.674,0.447
	c0.345-0.01,0.689-0.066,1.031-0.18c0.342-0.107,0.667-0.271,0.975-0.488c0.309-0.221,0.583-0.498,0.823-0.83h0.903
	c-0.296,0.508-0.641,0.93-1.038,1.268c-0.396,0.336-0.821,0.586-1.277,0.748c-0.456,0.162-0.928,0.244-1.417,0.244
	c-0.539,0-1.064-0.1-1.576-0.299c-0.511-0.201-0.971-0.488-1.378-0.861c-0.407-0.375-0.728-0.824-0.963-1.35
	c-0.234-0.523-0.351-1.096-0.351-1.717C127.946,65.684,127.957,65.5,127.98,65.319z"/>
<path d="M137.195,69.963v-8.143h2.214c0.764,0,1.438,0.107,2.023,0.324c0.586,0.215,1.075,0.516,1.469,0.896
	c0.393,0.385,0.687,0.824,0.881,1.324c0.194,0.498,0.292,1.033,0.292,1.602c-0.006,0.605-0.125,1.158-0.359,1.656
	c-0.234,0.496-0.553,0.922-0.957,1.271c-0.403,0.354-0.857,0.619-1.361,0.799s-1.024,0.268-1.56,0.268h-2.641V69.963z
	 M138.009,62.547v6.666h1.254c1.13,0,2.061-0.266,2.792-0.795c0.73-0.531,1.131-1.348,1.204-2.449c0-0.453-0.078-0.887-0.235-1.297
	c-0.155-0.41-0.392-0.773-0.71-1.096c-0.317-0.316-0.721-0.568-1.208-0.754c-0.488-0.184-1.054-0.275-1.697-0.275H138.009
	L138.009,62.547z"/>
<path d="M145.066,65.319c0.081-0.723,0.326-1.361,0.738-1.912c0.411-0.553,0.924-0.977,1.539-1.271
	c0.616-0.297,1.26-0.447,1.937-0.447c0.368,0,0.729,0.047,1.083,0.135c0.352,0.09,0.689,0.227,1.011,0.408s0.621,0.41,0.898,0.688
	c0.276,0.279,0.52,0.605,0.729,0.982h-0.902c-0.234-0.307-0.504-0.568-0.809-0.781c-0.304-0.209-0.624-0.365-0.958-0.467
	c-0.334-0.102-0.67-0.152-1.005-0.152c-0.447,0-0.879,0.084-1.295,0.244c-0.417,0.16-0.789,0.391-1.115,0.695
	c-0.327,0.301-0.585,0.664-0.773,1.092c-0.19,0.422-0.284,0.889-0.284,1.395c0.006,0.648,0.172,1.232,0.496,1.752
	c0.323,0.52,0.749,0.922,1.275,1.211c0.527,0.289,1.085,0.438,1.674,0.447c0.346-0.01,0.69-0.066,1.032-0.18
	c0.342-0.107,0.667-0.271,0.975-0.488c0.308-0.221,0.582-0.498,0.822-0.83h0.902c-0.295,0.508-0.641,0.93-1.037,1.268
	c-0.396,0.336-0.822,0.586-1.277,0.748s-0.928,0.244-1.417,0.244c-0.538,0-1.064-0.1-1.576-0.299
	c-0.511-0.201-0.971-0.488-1.378-0.861c-0.407-0.375-0.728-0.824-0.962-1.35c-0.235-0.523-0.352-1.096-0.352-1.717
	C145.032,65.684,145.042,65.5,145.066,65.319z"/>
<path d="M156.731,64.463c0.008-0.613,0.133-1.123,0.379-1.535c0.245-0.414,0.568-0.723,0.966-0.924
	c0.398-0.201,0.831-0.307,1.296-0.316c0.323,0,0.634,0.062,0.935,0.188s0.568,0.299,0.802,0.52c0.234,0.225,0.418,0.488,0.555,0.791
	c0.135,0.303,0.204,0.625,0.204,0.975c0,0.814-0.382,1.58-1.144,2.301l-2.915,2.75h4.059v0.75h-5.183v-0.725l3.632-3.533
	c0.504-0.504,0.758-1.021,0.758-1.541c0-0.303-0.075-0.58-0.226-0.834c-0.151-0.252-0.35-0.453-0.599-0.602
	c-0.25-0.15-0.513-0.232-0.792-0.248c-0.532,0-0.984,0.16-1.355,0.482c-0.372,0.32-0.558,0.82-0.558,1.5h-0.814V64.463z"/>
<path d="M166.288,61.821h1.013v5.91h0.728v0.725H167.3v1.506h-0.813v-1.506h-4.106v-0.725L166.288,61.821z M166.487,62.932
	l-3.182,4.799h3.182V62.932z"/>
<path d="M168.412,71.362l3.181-9.541h0.748l-3.226,9.541H168.412z"/>
<path d="M173.859,69.963l3.359-7.416h-3.854v-0.725h4.709v0.725l-3.344,7.416H173.859z"/>
<path d="M179.068,64.35h0.814v1.377h-0.814V64.35z M179.068,68.567h0.814v1.395h-0.814V68.567z"/>
<path d="M184.947,67.686c0.018,0.354,0.108,0.652,0.27,0.895c0.162,0.246,0.371,0.428,0.629,0.551s0.531,0.184,0.817,0.184
	c0.266,0,0.521-0.07,0.767-0.213c0.247-0.141,0.444-0.332,0.593-0.572c0.149-0.24,0.224-0.5,0.224-0.775
	c0-0.34-0.085-0.641-0.255-0.904c-0.161-0.254-0.463-0.457-0.906-0.611c-0.443-0.15-0.876-0.301-1.302-0.443
	c-0.424-0.143-0.773-0.355-1.046-0.645c-0.271-0.287-0.408-0.707-0.408-1.262c0-0.02,0.001-0.053,0.006-0.098
	c0.005-0.041,0.007-0.084,0.007-0.121c0.021-0.389,0.139-0.734,0.353-1.035c0.213-0.303,0.49-0.535,0.831-0.699
	c0.34-0.162,0.696-0.246,1.069-0.246c0.44,0,0.833,0.107,1.177,0.32c0.344,0.217,0.61,0.482,0.798,0.809
	c0.187,0.324,0.281,0.641,0.281,0.951v0.109h-0.814c-0.061-0.453-0.221-0.789-0.48-1.01c-0.259-0.221-0.572-0.35-0.942-0.387
	c-0.254,0-0.49,0.055-0.709,0.164c-0.218,0.115-0.395,0.264-0.531,0.455c-0.134,0.189-0.208,0.395-0.222,0.611
	c0,0.51,0.133,0.863,0.399,1.061s0.689,0.381,1.27,0.547c0.581,0.168,1.049,0.375,1.409,0.621s0.616,0.662,0.773,1.252
	c0.03,0.215,0.045,0.387,0.045,0.516c0,0.275-0.052,0.555-0.158,0.84c-0.104,0.285-0.258,0.541-0.46,0.771
	c-0.202,0.234-0.458,0.422-0.767,0.562c-0.309,0.143-0.658,0.215-1.048,0.215c-0.379,0-0.728-0.062-1.046-0.186
	c-0.317-0.125-0.59-0.299-0.817-0.521c-0.228-0.221-0.401-0.479-0.52-0.771c-0.12-0.289-0.179-0.6-0.179-0.93h0.893V67.686z"/>
<path d="M189.861,66.993c0.005-0.479,0.1-0.922,0.282-1.318c0.183-0.4,0.427-0.74,0.734-1.021c0.308-0.277,0.654-0.49,1.037-0.641
	c0.384-0.15,0.774-0.223,1.17-0.223c1.102,0.025,1.891,0.467,2.367,1.322v-1.168h0.792v6.02h-0.792v-1.145
	c-0.226,0.404-0.552,0.719-0.98,0.943c-0.428,0.221-0.913,0.332-1.454,0.332c-0.412-0.01-0.807-0.088-1.184-0.236
	c-0.378-0.148-0.716-0.357-1.015-0.629c-0.299-0.273-0.533-0.602-0.703-0.982C189.946,67.866,189.861,67.448,189.861,66.993z
	 M190.696,66.805c0,0.494,0.108,0.932,0.326,1.312s0.504,0.674,0.861,0.877s0.734,0.311,1.134,0.32c0.459,0,0.875-0.111,1.247-0.332
	c0.37-0.219,0.662-0.51,0.873-0.869c0.21-0.361,0.315-0.732,0.315-1.119c0-0.426-0.102-0.822-0.306-1.182s-0.486-0.648-0.843-0.861
	c-0.357-0.217-0.749-0.334-1.175-0.357c-0.464,0-0.882,0.117-1.255,0.35c-0.373,0.23-0.662,0.52-0.868,0.867
	C190.8,66.155,190.696,66.489,190.696,66.805z"/>
<path d="M199.575,69.963l-2.531-6.02h0.877l2.083,4.986l2.09-4.986h0.881l-2.566,6.02H199.575z"/>
<path d="M203.779,63.217v-1.395h0.813v1.395H203.779z M203.779,69.963v-6.02h0.813v6.02H203.779z"/>
<path d="M206.056,69.963v-6.02h0.771v0.902c0.199-0.332,0.471-0.588,0.814-0.766c0.344-0.182,0.709-0.27,1.098-0.27
	c0.339,0,0.666,0.061,0.981,0.184c0.315,0.121,0.597,0.299,0.846,0.531s0.447,0.523,0.595,0.871
	c0.148,0.348,0.221,0.734,0.221,1.166v3.4h-0.792v-3.4c0-0.416-0.089-0.771-0.268-1.064c-0.18-0.293-0.413-0.516-0.702-0.662
	c-0.29-0.146-0.598-0.219-0.926-0.219c-0.319,0-0.619,0.068-0.896,0.211c-0.278,0.141-0.502,0.352-0.672,0.631
	c-0.171,0.281-0.256,0.615-0.256,1.006v3.5h-0.813L206.056,69.963L206.056,69.963z"/>
<path d="M212.526,66.938c0-0.629,0.148-1.182,0.442-1.656c0.294-0.477,0.672-0.842,1.131-1.094c0.459-0.256,0.929-0.387,1.409-0.398
	c0.368,0,0.716,0.057,1.046,0.166c0.331,0.109,0.622,0.264,0.876,0.471c0.253,0.205,0.445,0.441,0.576,0.709v-1.213h0.771v5.523
	c0,0.461-0.079,0.873-0.24,1.227c-0.16,0.354-0.379,0.648-0.657,0.885c-0.277,0.236-0.593,0.414-0.952,0.529
	c-0.356,0.119-0.727,0.178-1.111,0.178c-0.343,0-0.681-0.047-1.01-0.139c-0.329-0.092-0.633-0.232-0.911-0.416
	c-0.277-0.182-0.517-0.41-0.717-0.682c-0.201-0.273-0.346-0.584-0.433-0.932h0.792c0.197,0.463,0.5,0.816,0.908,1.057
	c0.407,0.242,0.85,0.361,1.326,0.361c0.395,0,0.761-0.08,1.103-0.246c0.341-0.162,0.615-0.402,0.822-0.723
	c0.207-0.318,0.311-0.689,0.311-1.123v-0.656c-0.477,0.887-1.259,1.328-2.344,1.328c-0.376,0-0.748-0.068-1.12-0.207
	c-0.372-0.137-0.708-0.342-1.011-0.613c-0.302-0.273-0.544-0.605-0.724-1.006C212.625,67.874,212.532,67.43,212.526,66.938z
	 M213.34,66.782c0,0.506,0.104,0.949,0.312,1.328c0.208,0.385,0.485,0.676,0.834,0.881c0.35,0.207,0.735,0.312,1.157,0.32
	c0.331,0,0.681-0.084,1.048-0.258c0.369-0.172,0.68-0.443,0.935-0.814c0.255-0.371,0.383-0.834,0.383-1.391
	c0-0.283-0.062-0.559-0.187-0.83c-0.126-0.275-0.299-0.52-0.521-0.732c-0.221-0.213-0.482-0.383-0.781-0.506
	c-0.298-0.127-0.611-0.188-0.941-0.188c-0.575,0.016-1.028,0.164-1.361,0.453c-0.332,0.285-0.56,0.598-0.686,0.938
	C213.402,66.319,213.34,66.586,213.34,66.782z"/>
<path d="M223.949,69.237l3.379-0.023v0.75h-4.193v-8.143h0.814V69.237L223.949,69.237z"/>
<path d="M228.141,63.217v-1.395h0.814v1.395H228.141z M228.141,69.963v-6.02h0.814v6.02H228.141z"/>
<path d="M232.276,69.963l-2.531-6.02h0.879l2.082,4.986l2.09-4.986h0.881l-2.566,6.02H232.276z"/>
<path d="M235.922,66.915c0.014-0.484,0.108-0.918,0.284-1.301c0.177-0.387,0.414-0.713,0.713-0.984s0.631-0.479,0.995-0.621
	c0.365-0.141,0.738-0.215,1.122-0.219c0.514,0,1.012,0.123,1.494,0.375c0.483,0.25,0.877,0.623,1.185,1.125
	c0.307,0.5,0.461,1.098,0.461,1.791v0.152h-5.438c0.036,0.447,0.172,0.826,0.411,1.143c0.238,0.312,0.528,0.547,0.867,0.703
	s0.672,0.232,1.001,0.232c0.291,0,0.586-0.057,0.884-0.174c0.297-0.119,0.56-0.275,0.789-0.479c0.228-0.205,0.39-0.43,0.486-0.678
	h0.835c-0.169,0.461-0.416,0.854-0.739,1.174c-0.323,0.32-0.685,0.557-1.085,0.707c-0.4,0.154-0.805,0.232-1.213,0.232
	c-0.536-0.021-1.038-0.166-1.502-0.43c-0.468-0.264-0.841-0.633-1.125-1.109C236.062,68.079,235.922,67.532,235.922,66.915z
	 M241.381,66.508c-0.068-0.348-0.211-0.668-0.429-0.961c-0.217-0.297-0.49-0.533-0.822-0.711c-0.331-0.176-0.688-0.264-1.073-0.264
	c-0.517,0-0.946,0.123-1.288,0.367c-0.343,0.246-0.593,0.518-0.755,0.818c-0.162,0.303-0.254,0.555-0.28,0.754h4.646L241.381,66.508
	L241.381,66.508z"/>
<path d="M243.068,65.706c-0.007-0.059-0.011-0.143-0.011-0.244c0-0.35,0.086-0.648,0.261-0.896c0.174-0.254,0.391-0.441,0.655-0.566
	c0.262-0.125,0.519-0.188,0.768-0.188c0.202,0,0.404,0.035,0.604,0.104c0.201,0.066,0.384,0.168,0.55,0.303
	c0.167,0.133,0.301,0.305,0.403,0.512c0.104,0.205,0.161,0.439,0.172,0.701h-0.824c-0.016-0.287-0.107-0.5-0.279-0.635
	c-0.171-0.135-0.379-0.203-0.624-0.203c-0.217,0-0.418,0.074-0.605,0.213c-0.187,0.143-0.286,0.352-0.298,0.625
	c0.001,0.006,0.013,0.051,0.031,0.135c0.02,0.084,0.031,0.139,0.036,0.162c0.056,0.199,0.245,0.363,0.567,0.498
	s0.646,0.262,0.974,0.387c0.326,0.121,0.603,0.301,0.829,0.541c0.225,0.236,0.338,0.576,0.338,1.018
	c0,0.076-0.009,0.186-0.024,0.328c-0.044,0.373-0.167,0.68-0.367,0.92c-0.2,0.238-0.436,0.412-0.706,0.52
	c-0.271,0.107-0.537,0.158-0.798,0.158c-0.364,0-0.689-0.084-0.977-0.25c-0.286-0.166-0.51-0.395-0.667-0.682
	c-0.16-0.289-0.238-0.609-0.238-0.959l0.815-0.025c0.011,0.35,0.128,0.627,0.351,0.842c0.224,0.217,0.478,0.328,0.763,0.338
	c0.285-0.023,0.529-0.135,0.73-0.33c0.202-0.195,0.302-0.434,0.302-0.715c0-0.246-0.08-0.471-0.242-0.672
	c-0.162-0.203-0.411-0.344-0.748-0.43c-0.458-0.121-0.853-0.295-1.177-0.518C243.306,66.471,243.118,66.143,243.068,65.706z"/>
<path d="M248.591,68.567h0.816l-0.99,2.121h-0.794L248.591,68.567z"/>
<path d="M253.325,69.963v-8.143h2.137c0.641,0,1.193,0.066,1.656,0.201c0.462,0.137,0.835,0.373,1.118,0.715
	c0.282,0.338,0.442,0.799,0.482,1.385c0.007,0.051,0.01,0.123,0.01,0.219c0,0.451-0.119,0.855-0.358,1.209s-0.573,0.629-1,0.828
	c-0.428,0.195-0.913,0.293-1.457,0.293h-1.771v3.291L253.325,69.963L253.325,69.963z M254.14,62.547v3.4h1.685
	c0.717,0,1.243-0.166,1.577-0.494c0.334-0.33,0.502-0.775,0.502-1.332c-0.03-0.58-0.252-0.986-0.662-1.223
	c-0.41-0.234-0.972-0.352-1.681-0.352H254.14L254.14,62.547z"/>
<path d="M259.649,69.963v-6.041h0.76v0.902c0.335-0.688,0.922-1.035,1.76-1.035v0.826c-0.189,0-0.386,0.041-0.59,0.119
	c-0.205,0.082-0.392,0.193-0.563,0.346c-0.172,0.146-0.308,0.32-0.41,0.52c-0.103,0.197-0.153,0.414-0.153,0.645v3.717
	L259.649,69.963L259.649,69.963z"/>
<path d="M262.434,66.848c0.005-0.393,0.088-0.777,0.25-1.143c0.162-0.367,0.386-0.693,0.676-0.979
	c0.288-0.283,0.632-0.508,1.028-0.672c0.397-0.16,0.826-0.244,1.292-0.244c0.44,0,0.891,0.125,1.353,0.377
	c0.46,0.254,0.85,0.6,1.165,1.037c0.315,0.438,0.492,0.922,0.531,1.445c0,0.027,0.002,0.066,0.007,0.119
	c0.003,0.051,0.004,0.09,0.004,0.113c0,0.443-0.083,0.859-0.25,1.246c-0.167,0.389-0.399,0.729-0.696,1.025
	c-0.297,0.289-0.637,0.518-1.02,0.68c-0.383,0.16-0.785,0.24-1.205,0.24c-0.509,0-1.005-0.125-1.49-0.381
	c-0.485-0.254-0.881-0.627-1.187-1.123C262.586,68.098,262.434,67.52,262.434,66.848z M263.226,66.891
	c0,0.482,0.107,0.904,0.322,1.264c0.214,0.361,0.502,0.645,0.863,0.846c0.361,0.201,0.757,0.312,1.182,0.334
	c0.356,0,0.713-0.096,1.069-0.287c0.355-0.191,0.651-0.473,0.882-0.844s0.35-0.811,0.35-1.312c0-0.291-0.062-0.574-0.183-0.854
	c-0.122-0.277-0.29-0.523-0.505-0.742c-0.215-0.215-0.463-0.387-0.745-0.516c-0.282-0.125-0.57-0.188-0.867-0.188
	c-0.405,0.01-0.788,0.113-1.148,0.311c-0.359,0.201-0.651,0.473-0.874,0.822C263.349,66.073,263.234,66.459,263.226,66.891z"/>
<path d="M270.274,69.963v-5.285h-1.266v-0.734h1.266v-2.123h0.813v2.123h1.397v0.734h-1.397v5.285H270.274z"/>
<path d="M272.789,66.915c0.013-0.484,0.107-0.918,0.283-1.301c0.176-0.387,0.414-0.713,0.714-0.984
	c0.298-0.271,0.63-0.479,0.995-0.621c0.364-0.141,0.738-0.215,1.121-0.219c0.516,0,1.011,0.123,1.496,0.375
	c0.48,0.25,0.877,0.623,1.184,1.125c0.307,0.5,0.461,1.098,0.461,1.791v0.152h-5.438c0.037,0.447,0.172,0.826,0.411,1.143
	c0.238,0.312,0.527,0.547,0.866,0.703c0.34,0.156,0.673,0.232,1.001,0.232c0.291,0,0.586-0.057,0.883-0.174
	c0.298-0.119,0.561-0.275,0.79-0.479c0.227-0.205,0.389-0.43,0.485-0.678h0.837c-0.17,0.461-0.417,0.854-0.739,1.174
	c-0.323,0.32-0.687,0.557-1.085,0.707c-0.4,0.154-0.804,0.232-1.213,0.232c-0.535-0.021-1.036-0.166-1.503-0.43
	c-0.466-0.264-0.84-0.633-1.124-1.109C272.929,68.079,272.789,67.532,272.789,66.915z M278.247,66.508
	c-0.068-0.348-0.211-0.668-0.428-0.961c-0.218-0.297-0.49-0.533-0.822-0.711c-0.332-0.176-0.689-0.264-1.073-0.264
	c-0.516,0-0.945,0.123-1.287,0.367c-0.343,0.246-0.595,0.518-0.757,0.818c-0.162,0.303-0.253,0.555-0.279,0.754h4.646V66.508z"/>
<path d="M279.91,66.938c0.007-0.477,0.095-0.906,0.272-1.295c0.176-0.385,0.414-0.715,0.712-0.984
	c0.299-0.27,0.63-0.479,0.994-0.625c0.362-0.146,0.735-0.227,1.114-0.244c0.688,0,1.316,0.162,1.885,0.488
	c0.57,0.324,0.986,0.812,1.25,1.473h-0.926c-0.217-0.375-0.517-0.658-0.891-0.857c-0.377-0.201-0.816-0.301-1.317-0.301
	c-0.456,0.031-0.856,0.156-1.196,0.379c-0.344,0.221-0.607,0.506-0.789,0.854c-0.186,0.348-0.283,0.721-0.291,1.115
	c0,0.428,0.102,0.824,0.307,1.182s0.49,0.645,0.854,0.857c0.362,0.213,0.765,0.324,1.206,0.338c0.463,0,0.887-0.104,1.267-0.314
	c0.38-0.207,0.673-0.473,0.88-0.795h0.9c-0.656,1.26-1.658,1.893-3.004,1.893c-0.406,0-0.801-0.076-1.188-0.227
	c-0.387-0.152-0.734-0.367-1.045-0.652c-0.311-0.283-0.555-0.617-0.736-1.002c-0.181-0.381-0.273-0.791-0.279-1.232
	c0.01-0.01,0.016-0.018,0.019-0.025C279.908,66.948,279.91,66.944,279.91,66.938z"/>
<path d="M287.79,69.963v-5.285h-1.264v-0.734h1.264v-2.123h0.814v2.123h1.396v0.734h-1.396v5.285H287.79z"/>
<path d="M290.825,63.217v-1.395h0.814v1.395H290.825z M290.825,69.963v-6.02h0.814v6.02H290.825z"/>
<path d="M293.104,69.963v-6.02h0.771v0.902c0.199-0.332,0.47-0.588,0.814-0.766c0.346-0.182,0.711-0.27,1.098-0.27
	c0.34,0,0.666,0.061,0.981,0.184c0.317,0.121,0.597,0.299,0.849,0.531c0.248,0.232,0.445,0.523,0.592,0.871
	c0.149,0.348,0.223,0.734,0.223,1.166v3.4h-0.793v-3.4c0-0.416-0.088-0.771-0.268-1.064c-0.178-0.293-0.411-0.516-0.701-0.662
	c-0.287-0.146-0.596-0.219-0.924-0.219c-0.32,0-0.621,0.068-0.896,0.211c-0.278,0.141-0.502,0.352-0.674,0.631
	c-0.171,0.281-0.255,0.615-0.255,1.006v3.5h-0.815L293.104,69.963L293.104,69.963z"/>
<path d="M299.572,66.938c0-0.629,0.147-1.182,0.442-1.656c0.295-0.477,0.672-0.842,1.131-1.094c0.459-0.256,0.928-0.387,1.41-0.398
	c0.367,0,0.715,0.057,1.045,0.166c0.331,0.109,0.621,0.264,0.877,0.471c0.252,0.205,0.444,0.441,0.576,0.709v-1.213h0.771v5.523
	c0,0.461-0.081,0.873-0.241,1.227c-0.159,0.354-0.38,0.648-0.655,0.885c-0.278,0.236-0.596,0.414-0.952,0.529
	c-0.357,0.119-0.729,0.178-1.111,0.178c-0.346,0-0.682-0.047-1.011-0.139s-0.633-0.232-0.911-0.416
	c-0.279-0.182-0.518-0.41-0.719-0.682c-0.199-0.273-0.345-0.584-0.432-0.932h0.791c0.198,0.463,0.5,0.816,0.908,1.057
	c0.407,0.242,0.849,0.361,1.324,0.361c0.395,0,0.763-0.08,1.104-0.246c0.341-0.162,0.617-0.402,0.823-0.723
	c0.207-0.318,0.311-0.689,0.311-1.123v-0.656c-0.477,0.887-1.26,1.328-2.346,1.328c-0.374,0-0.747-0.068-1.119-0.207
	c-0.371-0.137-0.709-0.342-1.01-0.613c-0.304-0.273-0.547-0.605-0.726-1.006C299.671,67.874,299.579,67.43,299.572,66.938z
	 M300.388,66.782c0,0.506,0.102,0.949,0.31,1.328c0.206,0.385,0.485,0.676,0.834,0.881c0.351,0.207,0.735,0.312,1.157,0.32
	c0.33,0,0.681-0.084,1.049-0.258c0.368-0.172,0.68-0.443,0.936-0.814c0.252-0.371,0.382-0.834,0.382-1.391
	c0-0.283-0.062-0.559-0.188-0.83c-0.123-0.275-0.297-0.52-0.52-0.732s-0.482-0.383-0.781-0.506
	c-0.299-0.127-0.614-0.188-0.941-0.188c-0.576,0.016-1.029,0.164-1.361,0.453c-0.332,0.285-0.561,0.598-0.686,0.938
	C300.45,66.319,300.388,66.586,300.388,66.782z"/>
<path d="M310.181,69.963v-8.143h2.135c0.641,0,1.193,0.066,1.656,0.201c0.465,0.137,0.836,0.373,1.119,0.715
	c0.282,0.338,0.443,0.799,0.483,1.385c0.007,0.051,0.009,0.123,0.009,0.219c0,0.451-0.116,0.855-0.356,1.209
	c-0.238,0.354-0.572,0.629-1.001,0.828c-0.427,0.195-0.913,0.293-1.455,0.293h-1.773v3.291L310.181,69.963L310.181,69.963z
	 M310.996,62.547v3.4h1.685c0.717,0,1.241-0.166,1.576-0.494c0.335-0.33,0.502-0.775,0.502-1.332
	c-0.029-0.58-0.252-0.986-0.66-1.223c-0.413-0.234-0.973-0.352-1.682-0.352H310.996L310.996,62.547z"/>
<path d="M316.124,66.915c0.016-0.484,0.109-0.918,0.285-1.301c0.177-0.387,0.414-0.713,0.715-0.984
	c0.297-0.271,0.631-0.479,0.994-0.621c0.365-0.141,0.738-0.215,1.122-0.219c0.513,0,1.012,0.123,1.495,0.375
	c0.481,0.25,0.876,0.623,1.184,1.125c0.307,0.5,0.461,1.098,0.461,1.791v0.152h-5.438c0.037,0.447,0.173,0.826,0.411,1.143
	c0.237,0.312,0.526,0.547,0.866,0.703c0.338,0.156,0.672,0.232,0.999,0.232c0.292,0,0.587-0.057,0.886-0.174
	c0.297-0.119,0.559-0.275,0.788-0.479c0.228-0.205,0.391-0.43,0.487-0.678h0.835c-0.169,0.461-0.416,0.854-0.737,1.174
	c-0.324,0.32-0.688,0.557-1.088,0.707c-0.399,0.154-0.804,0.232-1.212,0.232c-0.537-0.021-1.036-0.166-1.503-0.43
	c-0.465-0.264-0.84-0.633-1.124-1.109C316.266,68.079,316.124,67.532,316.124,66.915z M321.584,66.508
	c-0.069-0.348-0.211-0.668-0.429-0.961c-0.217-0.297-0.489-0.533-0.822-0.711c-0.33-0.176-0.688-0.264-1.072-0.264
	c-0.518,0-0.945,0.123-1.289,0.367c-0.342,0.246-0.592,0.518-0.755,0.818c-0.161,0.303-0.255,0.555-0.279,0.754h4.646
	L321.584,66.508L321.584,66.508z"/>
<path d="M323.24,66.848c0.007-0.393,0.09-0.777,0.253-1.143c0.16-0.367,0.385-0.693,0.675-0.979
	c0.288-0.283,0.632-0.508,1.027-0.672c0.397-0.16,0.827-0.244,1.292-0.244c0.441,0,0.891,0.125,1.354,0.377
	c0.462,0.254,0.85,0.6,1.166,1.037c0.314,0.438,0.489,0.922,0.53,1.445c0,0.027,0.003,0.066,0.007,0.119
	c0.002,0.051,0.004,0.09,0.004,0.113c0,0.443-0.084,0.859-0.25,1.246c-0.166,0.391-0.397,0.729-0.695,1.025
	c-0.297,0.289-0.638,0.518-1.021,0.68c-0.382,0.16-0.785,0.24-1.204,0.24c-0.51,0-1.005-0.125-1.492-0.381
	c-0.482-0.254-0.879-0.627-1.186-1.123C323.396,68.1,323.24,67.52,323.24,66.848z M324.034,66.891c0,0.482,0.107,0.904,0.32,1.264
	c0.215,0.361,0.5,0.645,0.863,0.846c0.361,0.201,0.756,0.312,1.181,0.334c0.356,0,0.715-0.096,1.067-0.287
	c0.356-0.191,0.651-0.473,0.883-0.844c0.232-0.371,0.352-0.811,0.352-1.312c0-0.291-0.062-0.574-0.185-0.854
	c-0.119-0.277-0.288-0.523-0.505-0.742c-0.214-0.215-0.462-0.387-0.744-0.516c-0.281-0.125-0.57-0.188-0.868-0.188
	c-0.403,0.01-0.786,0.113-1.147,0.311c-0.359,0.201-0.65,0.473-0.874,0.822C324.157,66.073,324.041,66.459,324.034,66.891z"/>
<path d="M330.718,72.065v-8.146h0.779V65c0.182-0.262,0.392-0.484,0.633-0.66c0.24-0.178,0.502-0.311,0.784-0.402
	c0.285-0.088,0.578-0.139,0.884-0.148c0.408,0,0.806,0.074,1.197,0.217c0.391,0.146,0.74,0.355,1.053,0.619
	c0.311,0.27,0.559,0.59,0.746,0.963c0.184,0.375,0.285,0.779,0.293,1.215c0,0.482-0.08,0.924-0.244,1.32
	c-0.162,0.396-0.393,0.744-0.691,1.037c-0.295,0.295-0.641,0.521-1.025,0.68c-0.387,0.158-0.799,0.244-1.24,0.254
	c-0.525,0-0.999-0.113-1.422-0.34c-0.42-0.227-0.729-0.543-0.922-0.949v3.258L330.718,72.065L330.718,72.065z M331.477,66.993
	c0.011,0.354,0.099,0.709,0.271,1.059c0.17,0.35,0.438,0.645,0.801,0.885c0.363,0.238,0.813,0.365,1.348,0.377
	c0.41,0,0.794-0.1,1.158-0.303c0.361-0.205,0.65-0.486,0.865-0.844c0.215-0.361,0.322-0.764,0.322-1.207
	c0-0.42-0.105-0.811-0.316-1.172c-0.213-0.363-0.502-0.652-0.873-0.869s-0.783-0.326-1.234-0.326
	c-0.467,0.018-0.879,0.139-1.236,0.365c-0.354,0.223-0.628,0.521-0.82,0.883C331.571,66.206,331.477,66.588,331.477,66.993z"/>
<path d="M338.239,69.963v-8.143h0.814v8.143H338.239L338.239,69.963z"/>
<path d="M340.243,66.915c0.016-0.484,0.111-0.918,0.287-1.301c0.176-0.387,0.414-0.713,0.713-0.984s0.631-0.479,0.996-0.621
	c0.361-0.141,0.738-0.215,1.121-0.219c0.514,0,1.012,0.123,1.492,0.375c0.484,0.25,0.879,0.623,1.186,1.125
	c0.307,0.5,0.459,1.098,0.459,1.791v0.152h-5.436c0.035,0.447,0.172,0.826,0.412,1.143c0.238,0.312,0.525,0.547,0.865,0.703
	s0.674,0.232,1,0.232c0.293,0,0.588-0.057,0.885-0.174c0.297-0.119,0.559-0.275,0.789-0.479c0.229-0.205,0.391-0.43,0.486-0.678
	h0.836c-0.17,0.461-0.416,0.854-0.738,1.174c-0.324,0.32-0.688,0.557-1.086,0.707c-0.4,0.154-0.805,0.232-1.213,0.232
	c-0.537-0.021-1.037-0.166-1.504-0.43c-0.465-0.264-0.84-0.633-1.123-1.109C340.386,68.079,340.243,67.532,340.243,66.915z
	 M345.704,66.508c-0.068-0.348-0.211-0.668-0.43-0.961c-0.217-0.297-0.49-0.533-0.822-0.711c-0.33-0.176-0.688-0.264-1.072-0.264
	c-0.518,0-0.943,0.123-1.289,0.367c-0.342,0.246-0.592,0.518-0.754,0.818c-0.162,0.303-0.254,0.555-0.281,0.754h4.648V66.508
	L345.704,66.508z"/>
<path d="M348.386,62.481h-1.475v-0.66h3.75v0.66h-1.463v3.982h-0.812V62.481L348.386,62.481z M351.489,66.463v-4.643h1.176
	l1.332,3.268l1.375-3.268h1.178v4.643h-0.725v-3.982l-1.607,3.982h-0.43l-1.572-3.982v3.982H351.489z"/>
</svg>
