<?xml version="1.0" encoding="utf-8"?>
<!-- Generator: Adobe Illustrator 15.1.0, SVG Export Plug-In . SVG Version: 6.00 Build 0)  -->
<!DOCTYPE svg PUBLIC "-//W3C//DTD SVG 1.1//EN" "http://www.w3.org/Graphics/SVG/1.1/DTD/svg11.dtd">
<svg version="1.1" id="Layer_1" xmlns="http://www.w3.org/2000/svg" xmlns:xlink="http://www.w3.org/1999/xlink" x="0px" y="0px"
	 width="671px" height="90px" viewBox="0 0 671 90" enable-background="new 0 0 671 90" xml:space="preserve">
<g>
	<g>
		<path fill="#FFFFFF" d="M0.133-0.615h145.484v88.959H0.133V-0.615z"/>
	</g>
	<g>
		<path fill="#105EAB" d="M1.562,0.84h142.626v85.962H1.562V0.84z"/>
	</g>
	<polygon fill="#FFFFFF" points="60.112,86.784 144.157,1.641 144.157,0.788 143.735,0.788 58.854,86.784 	"/>
	<polygon fill="#FFFFFF" points="7.12,86.784 12.801,0.788 11.907,0.788 6.226,86.784 	"/>
	<polygon fill="#FFFFFF" points="11.665,86.784 23.936,0.788 23.027,0.788 10.763,86.784 	"/>
	<polygon fill="#FFFFFF" points="16.528,86.784 35.722,0.788 34.812,0.788 15.611,86.784 	"/>
	<polygon fill="#FFFFFF" points="21.868,86.784 49.265,0.788 48.342,0.788 20.936,86.784 	"/>
	<polygon fill="#FFFFFF" points="26.906,86.784 62.103,0.788 61.135,0.788 25.935,86.784 	"/>
	<polygon fill="#FFFFFF" points="32.699,86.784 76.723,0.788 75.738,0.788 31.692,86.784 	"/>
	<polygon fill="#FFFFFF" points="98.719,0.788 97.651,0.788 40.654,86.784 41.72,86.784 	"/>
	<polygon fill="#FFFFFF" points="119.043,0.788 117.92,0.788 48.629,86.784 49.773,86.784 	"/>
	<polygon fill="#FFFFFF" points="144.157,33.329 144.157,32.198 75.449,86.784 76.866,86.784 	"/>
	<polygon fill="#FFFFFF" points="144.157,56.983 144.157,55.935 94.796,86.784 96.485,86.784 	"/>
	<polygon fill="#FFFFFF" points="144.157,79.303 144.157,78.312 125.994,86.784 128.101,86.784 	"/>
	<path fill="#FFFFFF" d="M44.134,52.489c-1.765,1.691-6.2,3.515-9.457,3.483c-9.476-0.01-13.903-8.062-13.982-20.364
		c0.063-11.643,4.841-19.048,13.048-19.063c5.869,0.008,8.722,3.409,10.281,5.44l1.717,2.285V13.688l-0.549-0.254
		c-3.383-1.572-7.678-2.309-11.593-2.316c-14.733,0.033-25.977,10.594-26,25.502c0.023,15.291,10.65,24.895,25.871,24.919h0.079
		c7.557,0,11.434-2.281,13.479-3.849l0.605-0.461l-2.522-5.66L44.134,52.489z M85.418,16.62c-4.93-3.618-11.104-4.688-16.371-4.688
		H51.053v48.741h19.165c9.296-0.021,23.658-5.919,23.682-24.505C93.916,26.438,90.364,20.235,85.418,16.62z M62.888,55.019V17.437
		c8.703,0.232,17.966,1.292,18.13,18.93C80.877,53.497,71.402,54.784,62.888,55.019z M134.948,51.573l-0.977,0.918
		c-1.766,1.692-6.189,3.512-9.442,3.479c-9.476,0-13.907-8.061-13.986-20.357c0.064-11.649,4.848-19.053,13.066-19.068
		c5.858,0.008,8.718,3.413,10.247,5.441l1.724,2.315V13.692l-0.546-0.257c-3.366-1.577-7.661-2.307-11.592-2.313
		c-14.729,0.029-25.946,10.591-25.969,25.501c0.023,15.295,10.624,24.891,25.856,24.919h0.117c7.533,0,11.393-2.284,13.44-3.849
		l0.606-0.463L134.948,51.573z"/>
	<path fill="#0033A0" d="M146.727,84.399h1.72v0.254h-0.72V86.5h-0.272v-1.847h-0.728V84.399z"/>
	<path fill="#0033A0" d="M150.446,86.497v-1.258c0-0.046,0-0.317,0-0.519l0,0l-0.598,1.775h-0.281l-0.591-1.775h-0.008
		c0,0.199,0.008,0.473,0.008,0.519v1.258h-0.28v-2.099h0.4l0.613,1.776h0.008l0.59-1.776h0.41v2.099H150.446z"/>
</g>
<g>
	<path d="M156.771,56.067c0.187-1.677,0.756-3.151,1.708-4.433c0.953-1.278,2.141-2.26,3.566-2.946
		c1.425-0.688,2.92-1.028,4.484-1.028c0.855,0,1.691,0.104,2.508,0.312c0.817,0.207,1.598,0.521,2.343,0.942
		c0.745,0.421,1.438,0.953,2.079,1.597c0.641,0.644,1.204,1.399,1.689,2.271h-2.091c-0.543-0.714-1.167-1.313-1.873-1.806
		c-0.705-0.488-1.446-0.852-2.221-1.083c-0.776-0.23-1.552-0.349-2.328-0.349c-1.038,0-2.039,0.186-3.003,0.561
		c-0.964,0.373-1.826,0.91-2.583,1.611c-0.758,0.699-1.355,1.543-1.792,2.525c-0.438,0.98-0.657,2.059-0.657,3.229
		c0.017,1.505,0.399,2.857,1.148,4.059c0.75,1.2,1.734,2.138,2.953,2.808c1.22,0.67,2.512,1.016,3.877,1.035
		c0.801-0.021,1.598-0.156,2.39-0.41c0.793-0.254,1.546-0.635,2.259-1.142c0.714-0.511,1.349-1.147,1.905-1.922h2.091
		c-0.685,1.177-1.486,2.153-2.403,2.938c-0.917,0.78-1.903,1.357-2.959,1.732c-1.056,0.375-2.15,0.563-3.283,0.563
		c-1.249,0-2.465-0.231-3.65-0.693c-1.184-0.463-2.249-1.128-3.192-1.995c-0.944-0.866-1.688-1.907-2.231-3.123
		c-0.543-1.217-0.815-2.543-0.815-3.979C156.691,56.909,156.718,56.487,156.771,56.067z"/>
	<path d="M176.977,59.764c0.029-1.116,0.248-2.12,0.657-3.013c0.408-0.894,0.959-1.652,1.652-2.281
		c0.693-0.628,1.461-1.105,2.306-1.436c0.844-0.328,1.71-0.496,2.598-0.511c1.19,0,2.344,0.291,3.46,0.868
		c1.116,0.579,2.03,1.448,2.742,2.607c0.711,1.159,1.067,2.542,1.067,4.146V60.5h-12.596c0.083,1.032,0.4,1.914,0.952,2.642
		c0.552,0.729,1.221,1.273,2.007,1.635c0.786,0.36,1.559,0.541,2.318,0.541c0.676,0,1.359-0.135,2.048-0.403
		c0.688-0.271,1.298-0.642,1.826-1.11c0.529-0.472,0.904-0.993,1.124-1.564h1.936c-0.39,1.07-0.959,1.977-1.708,2.717
		c-0.749,0.742-1.587,1.289-2.514,1.645c-0.927,0.354-1.864,0.531-2.81,0.531c-1.24-0.05-2.401-0.381-3.482-0.993
		c-1.081-0.61-1.948-1.469-2.602-2.571C177.304,62.464,176.977,61.196,176.977,59.764z M189.624,58.823
		c-0.158-0.807-0.488-1.55-0.993-2.233c-0.504-0.688-1.139-1.231-1.904-1.642c-0.765-0.41-1.594-0.611-2.486-0.611
		c-1.195,0-2.188,0.283-2.981,0.85c-0.792,0.565-1.375,1.198-1.748,1.898c-0.374,0.697-0.59,1.277-0.647,1.738H189.624
		L189.624,58.823z"/>
	<path d="M193.887,66.827V52.881h1.787v2.09c0.46-0.769,1.089-1.358,1.885-1.771c0.797-0.414,1.646-0.623,2.546-0.623
		c0.784,0,1.541,0.143,2.271,0.424c0.73,0.281,1.384,0.69,1.96,1.231c0.576,0.538,1.037,1.211,1.379,2.017
		c0.342,0.807,0.513,1.705,0.513,2.701v7.879h-1.836v-7.879c0-0.964-0.207-1.785-0.619-2.468c-0.414-0.684-0.955-1.194-1.625-1.535
		c-0.67-0.34-1.385-0.511-2.144-0.511c-0.743,0-1.436,0.164-2.079,0.489s-1.162,0.812-1.559,1.463
		c-0.396,0.648-0.594,1.426-0.594,2.33v8.109H193.887z"/>
	<path d="M210.295,66.827V54.585h-2.932v-1.704h2.932v-4.918h1.885v4.918h3.236v1.704h-3.236v12.242H210.295z"/>
	<path d="M215.863,59.764c0.029-1.116,0.248-2.12,0.657-3.013c0.408-0.894,0.959-1.652,1.652-2.281
		c0.692-0.628,1.461-1.105,2.306-1.436c0.844-0.328,1.71-0.496,2.598-0.511c1.19,0,2.344,0.291,3.46,0.868
		c1.116,0.579,2.03,1.448,2.742,2.607c0.711,1.159,1.067,2.542,1.067,4.146V60.5h-12.597c0.083,1.032,0.4,1.914,0.952,2.642
		c0.552,0.729,1.221,1.273,2.007,1.635c0.787,0.36,1.56,0.541,2.319,0.541c0.676,0,1.358-0.135,2.047-0.403
		c0.688-0.271,1.298-0.642,1.827-1.11c0.529-0.472,0.904-0.993,1.124-1.564h1.936c-0.391,1.07-0.959,1.977-1.709,2.717
		c-0.749,0.742-1.586,1.289-2.514,1.645c-0.927,0.354-1.864,0.531-2.81,0.531c-1.24-0.05-2.401-0.381-3.482-0.993
		c-1.081-0.61-1.948-1.469-2.601-2.571C216.188,62.463,215.863,61.196,215.863,59.764z M228.509,58.823
		c-0.158-0.807-0.488-1.55-0.993-2.233c-0.503-0.688-1.139-1.231-1.904-1.642c-0.766-0.408-1.595-0.611-2.487-0.611
		c-1.194,0-2.188,0.283-2.981,0.85c-0.792,0.565-1.375,1.198-1.748,1.898c-0.374,0.697-0.59,1.277-0.647,1.738H228.509
		L228.509,58.823z"/>
	<path d="M232.784,66.827V52.829h1.762v2.092c0.775-1.598,2.135-2.396,4.076-2.396v1.91c-0.44,0-0.896,0.094-1.369,0.28
		c-0.473,0.187-0.907,0.452-1.304,0.797c-0.396,0.345-0.712,0.746-0.948,1.208c-0.237,0.46-0.355,0.957-0.355,1.493v8.612h-1.862
		V66.827z"/>
	<path d="M239.799,56.963c-0.017-0.138-0.025-0.324-0.025-0.562c0-0.809,0.201-1.504,0.604-2.084
		c0.402-0.582,0.908-1.018,1.517-1.308c0.608-0.291,1.202-0.438,1.778-0.438c0.469,0,0.936,0.078,1.401,0.236
		c0.465,0.157,0.89,0.394,1.272,0.703c0.385,0.312,0.696,0.705,0.936,1.182c0.238,0.479,0.37,1.021,0.396,1.627h-1.911
		c-0.033-0.668-0.248-1.157-0.644-1.471c-0.396-0.311-0.878-0.466-1.447-0.466c-0.501,0-0.969,0.164-1.4,0.49
		c-0.432,0.327-0.662,0.81-0.69,1.443c0.004,0.019,0.028,0.121,0.072,0.313c0.043,0.191,0.072,0.316,0.084,0.377
		c0.128,0.46,0.566,0.845,1.313,1.153c0.747,0.311,1.499,0.604,2.256,0.892c0.757,0.284,1.398,0.702,1.92,1.253
		c0.523,0.553,0.785,1.338,0.785,2.358c0,0.175-0.019,0.43-0.057,0.767c-0.104,0.858-0.388,1.566-0.851,2.121
		c-0.463,0.557-1.008,0.958-1.635,1.205s-1.244,0.37-1.85,0.37c-0.844,0-1.598-0.193-2.261-0.579
		c-0.664-0.387-1.18-0.912-1.547-1.58c-0.368-0.668-0.551-1.409-0.551-2.223l1.891-0.058c0.025,0.803,0.295,1.45,0.813,1.948
		c0.517,0.498,1.104,0.759,1.766,0.783c0.663-0.059,1.229-0.313,1.696-0.77c0.466-0.455,0.7-1.004,0.7-1.65
		c0-0.572-0.188-1.094-0.563-1.561c-0.375-0.468-0.954-0.798-1.733-0.992c-1.063-0.286-1.973-0.688-2.727-1.2
		C240.351,58.739,239.916,57.976,239.799,56.963z"/>
	<path d="M257.879,66.827V54.616h-2.142v-1.683h2.142c0-3.281,1.792-4.923,5.377-4.923v1.735c-1.063,0-1.913,0.217-2.552,0.646
		c-0.64,0.432-0.97,1.209-0.99,2.337c0.033,0.066,0.05,0.136,0.05,0.205h3.491v1.683h-3.491v12.211H257.879L257.879,66.827z"/>
	<path d="M263.637,59.614c0.013-0.916,0.206-1.802,0.579-2.65c0.374-0.853,0.895-1.604,1.565-2.264
		c0.67-0.656,1.464-1.177,2.384-1.557c0.919-0.38,1.916-0.568,2.989-0.568c1.021,0,2.065,0.293,3.135,0.877
		c1.066,0.586,1.967,1.387,2.697,2.398c0.729,1.016,1.142,2.132,1.231,3.354c0,0.062,0.003,0.153,0.013,0.272
		c0.008,0.119,0.012,0.206,0.012,0.26c0,1.029-0.192,1.994-0.578,2.895c-0.387,0.896-0.924,1.687-1.612,2.364
		c-0.688,0.677-1.476,1.205-2.36,1.578c-0.888,0.373-1.816,0.56-2.792,0.56c-1.178,0-2.329-0.295-3.451-0.884
		c-1.122-0.59-2.037-1.455-2.747-2.601C263.992,62.507,263.637,61.161,263.637,59.614z M265.473,59.711
		c0,1.114,0.248,2.092,0.744,2.929c0.496,0.838,1.163,1.49,2.001,1.957c0.837,0.467,1.75,0.725,2.738,0.773
		c0.825,0,1.649-0.222,2.474-0.664c0.824-0.445,1.505-1.097,2.044-1.957s0.81-1.873,0.81-3.038c0-0.677-0.142-1.334-0.424-1.977
		c-0.281-0.642-0.672-1.213-1.17-1.717c-0.498-0.505-1.07-0.901-1.724-1.192c-0.651-0.293-1.321-0.438-2.01-0.438
		c-0.938,0.021-1.824,0.261-2.658,0.722s-1.509,1.093-2.026,1.896C265.756,57.809,265.491,58.711,265.473,59.711z"/>
	<path d="M280.713,66.827V52.829h1.762v2.092c0.775-1.598,2.135-2.396,4.076-2.396v1.91c-0.439,0-0.896,0.094-1.369,0.28
		c-0.473,0.188-0.908,0.452-1.304,0.797s-0.712,0.746-0.949,1.208c-0.237,0.46-0.354,0.957-0.354,1.493v8.612h-1.86L280.713,66.827
		L280.713,66.827z"/>
	<path d="M295.244,66.827V47.963h5.129c1.767,0,3.33,0.25,4.687,0.751c1.356,0.499,2.49,1.193,3.401,2.081
		c0.91,0.889,1.591,1.909,2.042,3.062c0.45,1.156,0.675,2.396,0.675,3.716c-0.014,1.4-0.29,2.68-0.831,3.831
		c-0.541,1.154-1.28,2.139-2.216,2.949c-0.938,0.814-1.987,1.431-3.155,1.847c-1.168,0.418-2.373,0.627-3.612,0.627H295.244z
		 M297.132,49.643v15.448h2.905c2.619,0,4.772-0.615,6.467-1.846c1.691-1.229,2.622-3.12,2.788-5.672
		c0-1.052-0.181-2.052-0.542-3.005c-0.361-0.952-0.909-1.799-1.646-2.539c-0.734-0.739-1.67-1.323-2.801-1.75
		c-1.13-0.424-2.441-0.639-3.93-0.639L297.132,49.643L297.132,49.643z"/>
	<path d="M313.92,51.2v-3.237h1.886V51.2H313.92z M313.92,66.827V52.881h1.886v13.946H313.92z"/>
	<path d="M318.562,56.963c-0.017-0.138-0.024-0.324-0.024-0.562c0-0.809,0.201-1.504,0.604-2.084
		c0.403-0.582,0.908-1.018,1.519-1.308c0.607-0.291,1.201-0.438,1.776-0.438c0.47,0,0.938,0.078,1.402,0.236
		c0.465,0.157,0.889,0.394,1.272,0.703c0.385,0.312,0.695,0.705,0.936,1.182c0.238,0.479,0.371,1.021,0.396,1.627h-1.91
		c-0.033-0.668-0.248-1.157-0.646-1.471c-0.396-0.311-0.878-0.466-1.446-0.466c-0.502,0-0.97,0.164-1.399,0.49
		c-0.433,0.327-0.662,0.81-0.691,1.443c0.005,0.019,0.028,0.121,0.072,0.313c0.043,0.191,0.071,0.316,0.084,0.377
		c0.129,0.46,0.565,0.845,1.313,1.153c0.746,0.311,1.498,0.604,2.256,0.892c0.758,0.284,1.397,0.702,1.92,1.253
		c0.522,0.553,0.785,1.338,0.785,2.358c0,0.175-0.02,0.43-0.058,0.767c-0.104,0.858-0.387,1.566-0.85,2.121
		c-0.464,0.557-1.009,0.958-1.636,1.205s-1.242,0.37-1.851,0.37c-0.843,0-1.597-0.193-2.261-0.579
		c-0.664-0.387-1.182-0.912-1.547-1.58c-0.367-0.668-0.553-1.409-0.553-2.223l1.893-0.058c0.023,0.803,0.295,1.45,0.812,1.948
		c0.519,0.498,1.105,0.759,1.768,0.783c0.664-0.059,1.229-0.313,1.695-0.77c0.467-0.455,0.699-1.004,0.699-1.65
		c0-0.572-0.188-1.094-0.562-1.561c-0.375-0.468-0.954-0.798-1.734-0.992c-1.062-0.286-1.972-0.688-2.727-1.2
		C319.115,58.731,318.679,57.976,318.562,56.963z"/>
	<path d="M328.408,59.764c0.028-1.116,0.248-2.12,0.656-3.013c0.408-0.894,0.959-1.652,1.652-2.281
		c0.693-0.628,1.461-1.105,2.306-1.436c0.847-0.328,1.71-0.496,2.6-0.511c1.19,0,2.346,0.291,3.461,0.868
		c1.117,0.579,2.029,1.448,2.742,2.607c0.711,1.159,1.064,2.542,1.064,4.146V60.5h-12.597c0.083,1.032,0.399,1.914,0.952,2.642
		c0.552,0.729,1.221,1.273,2.008,1.635c0.785,0.36,1.559,0.541,2.316,0.541c0.678,0,1.358-0.135,2.049-0.403
		c0.688-0.271,1.297-0.642,1.824-1.11c0.531-0.472,0.904-0.993,1.123-1.564h1.939c-0.393,1.07-0.961,1.977-1.709,2.717
		c-0.75,0.742-1.588,1.289-2.516,1.645c-0.928,0.354-1.863,0.531-2.811,0.531c-1.241-0.05-2.402-0.381-3.483-0.993
		c-1.081-0.61-1.946-1.469-2.601-2.571C328.736,62.463,328.408,61.196,328.408,59.764z M341.057,58.823
		c-0.158-0.807-0.488-1.55-0.992-2.233c-0.506-0.688-1.141-1.231-1.904-1.642c-0.766-0.408-1.596-0.611-2.487-0.611
		c-1.194,0-2.189,0.283-2.981,0.85c-0.792,0.565-1.374,1.198-1.747,1.898c-0.375,0.697-0.59,1.277-0.646,1.738H341.057
		L341.057,58.823z"/>
	<path d="M344.627,59.944c0.012-1.11,0.229-2.131,0.652-3.056c0.424-0.926,0.988-1.713,1.701-2.36
		c0.711-0.646,1.514-1.142,2.402-1.484c0.889-0.345,1.793-0.518,2.709-0.518c2.553,0.062,4.381,1.082,5.484,3.063v-2.707h1.836
		v13.945h-1.836v-2.649c-0.523,0.938-1.279,1.663-2.271,2.181s-2.113,0.774-3.367,0.774c-0.955-0.024-1.869-0.209-2.744-0.551
		c-0.875-0.343-1.656-0.828-2.35-1.46c-0.691-0.629-1.232-1.388-1.629-2.271C344.822,61.967,344.627,60.997,344.627,59.944z
		 M346.562,59.509c0,1.145,0.25,2.158,0.756,3.04c0.504,0.882,1.17,1.56,1.994,2.03c0.826,0.473,1.701,0.722,2.627,0.741
		c1.066,0,2.029-0.258,2.889-0.771c0.857-0.511,1.531-1.185,2.021-2.017c0.486-0.832,0.73-1.695,0.73-2.593
		c0-0.987-0.236-1.896-0.709-2.73c-0.475-0.835-1.125-1.501-1.953-2.001c-0.826-0.5-1.734-0.775-2.725-0.824
		c-1.072,0-2.043,0.268-2.902,0.803c-0.865,0.535-1.535,1.204-2.014,2.011C346.801,58.004,346.562,58.774,346.562,59.509z"/>
	<path d="M362.158,56.963c-0.018-0.138-0.023-0.324-0.023-0.562c0-0.809,0.201-1.504,0.604-2.084
		c0.402-0.582,0.908-1.018,1.518-1.308c0.607-0.291,1.201-0.438,1.779-0.438c0.469,0,0.936,0.078,1.398,0.236
		c0.465,0.157,0.893,0.394,1.275,0.703c0.383,0.312,0.691,0.705,0.934,1.182c0.238,0.479,0.371,1.021,0.396,1.627h-1.91
		c-0.033-0.668-0.248-1.157-0.646-1.471c-0.395-0.311-0.877-0.466-1.445-0.466c-0.502,0-0.971,0.164-1.398,0.49
		c-0.434,0.327-0.664,0.81-0.691,1.443c0.006,0.019,0.027,0.121,0.07,0.313c0.043,0.191,0.072,0.316,0.084,0.377
		c0.129,0.46,0.566,0.845,1.314,1.153c0.746,0.311,1.498,0.604,2.256,0.892c0.756,0.284,1.396,0.702,1.92,1.253
		c0.521,0.553,0.783,1.338,0.783,2.358c0,0.175-0.02,0.43-0.057,0.767c-0.104,0.858-0.387,1.566-0.852,2.121
		c-0.463,0.557-1.008,0.958-1.635,1.205s-1.242,0.37-1.852,0.37c-0.842,0-1.596-0.193-2.26-0.579
		c-0.664-0.387-1.182-0.912-1.549-1.58s-0.551-1.409-0.551-2.223l1.891-0.058c0.025,0.803,0.295,1.45,0.812,1.948
		s1.105,0.759,1.768,0.783c0.664-0.059,1.229-0.313,1.695-0.77c0.465-0.456,0.697-1.004,0.697-1.65c0-0.572-0.188-1.094-0.562-1.561
		c-0.375-0.468-0.953-0.798-1.734-0.992c-1.062-0.286-1.973-0.688-2.727-1.2C362.709,58.739,362.275,57.976,362.158,56.963z"/>
	<path d="M372.006,59.764c0.029-1.116,0.248-2.12,0.656-3.013c0.406-0.894,0.959-1.652,1.65-2.281
		c0.693-0.628,1.461-1.105,2.309-1.436c0.844-0.328,1.709-0.496,2.598-0.511c1.191,0,2.344,0.291,3.461,0.868
		c1.115,0.579,2.029,1.448,2.74,2.607c0.713,1.159,1.066,2.542,1.066,4.146V60.5h-12.598c0.084,1.032,0.4,1.914,0.953,2.642
		c0.551,0.729,1.221,1.273,2.008,1.635c0.785,0.36,1.561,0.541,2.316,0.541c0.678,0,1.357-0.135,2.049-0.403
		c0.688-0.271,1.297-0.642,1.826-1.11c0.527-0.472,0.902-0.993,1.123-1.564h1.938c-0.393,1.07-0.961,1.977-1.709,2.717
		c-0.75,0.742-1.588,1.289-2.516,1.645c-0.928,0.354-1.863,0.531-2.811,0.531c-1.24-0.05-2.4-0.381-3.48-0.993
		c-1.082-0.61-1.949-1.469-2.605-2.571C372.332,62.463,372.006,61.196,372.006,59.764z M384.652,58.823
		c-0.156-0.807-0.486-1.55-0.99-2.233c-0.508-0.688-1.143-1.231-1.904-1.642c-0.766-0.408-1.596-0.611-2.488-0.611
		c-1.191,0-2.188,0.283-2.979,0.85c-0.793,0.565-1.375,1.198-1.748,1.898c-0.375,0.697-0.59,1.277-0.648,1.738H384.652
		L384.652,58.823z"/>
	<path d="M395.232,56.067c0.189-1.677,0.756-3.151,1.709-4.433c0.951-1.278,2.143-2.26,3.566-2.946
		c1.424-0.688,2.92-1.028,4.484-1.028c0.854,0,1.688,0.104,2.508,0.312c0.814,0.207,1.598,0.521,2.344,0.942
		c0.744,0.421,1.436,0.953,2.078,1.597c0.641,0.644,1.203,1.399,1.688,2.271h-2.092c-0.543-0.714-1.168-1.313-1.873-1.806
		c-0.705-0.488-1.443-0.852-2.223-1.083c-0.775-0.23-1.551-0.349-2.326-0.349c-1.037,0-2.039,0.186-3.004,0.561
		c-0.963,0.373-1.826,0.91-2.582,1.611c-0.758,0.699-1.355,1.543-1.793,2.525c-0.438,0.98-0.656,2.059-0.656,3.229
		c0.02,1.505,0.398,2.857,1.148,4.059c0.748,1.2,1.73,2.138,2.953,2.808c1.219,0.67,2.512,1.016,3.877,1.035
		c0.801-0.021,1.598-0.156,2.391-0.41c0.791-0.254,1.545-0.635,2.26-1.142c0.711-0.511,1.35-1.147,1.904-1.922h2.09
		c-0.684,1.177-1.482,2.153-2.4,2.938c-0.918,0.78-1.902,1.357-2.959,1.732c-1.059,0.375-2.15,0.563-3.283,0.563
		c-1.248,0-2.465-0.231-3.65-0.693c-1.184-0.463-2.248-1.128-3.189-1.995c-0.945-0.866-1.689-1.907-2.232-3.123
		c-0.543-1.217-0.814-2.543-0.814-3.979C395.152,56.909,395.18,56.487,395.232,56.067z"/>
	<path d="M415.426,59.614c0.012-0.916,0.205-1.802,0.578-2.65c0.373-0.853,0.896-1.604,1.564-2.264
		c0.67-0.656,1.467-1.177,2.385-1.557c0.92-0.38,1.916-0.568,2.988-0.568c1.021,0,2.066,0.293,3.137,0.877
		c1.064,0.586,1.967,1.387,2.695,2.398c0.73,1.016,1.143,2.132,1.232,3.354c0,0.062,0.004,0.153,0.012,0.272s0.016,0.206,0.016,0.26
		c0,1.029-0.193,1.994-0.58,2.895c-0.387,0.896-0.924,1.687-1.611,2.364c-0.689,0.678-1.477,1.205-2.361,1.578
		s-1.814,0.56-2.791,0.56c-1.178,0-2.33-0.295-3.451-0.884c-1.121-0.59-2.037-1.455-2.746-2.601
		C415.779,62.507,415.426,61.161,415.426,59.614z M417.262,59.711c0,1.114,0.248,2.092,0.744,2.929c0.496,0.838,1.162,1.49,2,1.957
		s1.752,0.725,2.74,0.773c0.822,0,1.646-0.222,2.473-0.664c0.822-0.445,1.506-1.097,2.045-1.957s0.811-1.873,0.811-3.038
		c0-0.677-0.143-1.334-0.426-1.977c-0.279-0.642-0.67-1.213-1.17-1.717c-0.496-0.505-1.07-0.901-1.723-1.192
		c-0.652-0.293-1.322-0.438-2.01-0.438c-0.939,0.021-1.824,0.261-2.66,0.722c-0.832,0.461-1.508,1.093-2.023,1.896
		C417.545,57.809,417.279,58.711,417.262,59.711z"/>
	<path d="M432.49,66.827V52.881h1.785v2.09c0.461-0.769,1.09-1.358,1.889-1.771c0.797-0.414,1.645-0.623,2.545-0.623
		c0.785,0,1.541,0.143,2.27,0.424c0.73,0.281,1.385,0.69,1.961,1.231c0.576,0.538,1.037,1.211,1.379,2.017
		c0.344,0.807,0.514,1.705,0.514,2.701v7.879h-1.834v-7.879c0-0.964-0.207-1.785-0.619-2.468c-0.414-0.684-0.955-1.194-1.625-1.535
		c-0.67-0.34-1.385-0.511-2.146-0.511c-0.74,0-1.436,0.164-2.078,0.489s-1.16,0.812-1.559,1.463
		c-0.396,0.648-0.596,1.426-0.596,2.33v8.109H432.49z"/>
	<path d="M448.898,66.827V54.585h-2.932v-1.704h2.932v-4.918h1.885v4.918h3.236v1.704h-3.236v12.242H448.898z"/>
	<path d="M455.707,66.827V52.829h1.76v2.092c0.777-1.598,2.137-2.396,4.078-2.396v1.91c-0.439,0-0.896,0.094-1.371,0.28
		c-0.473,0.188-0.906,0.452-1.303,0.797s-0.713,0.746-0.949,1.208c-0.236,0.46-0.354,0.957-0.354,1.493v8.612h-1.861V66.827
		L455.707,66.827z"/>
	<path d="M461.896,59.614c0.014-0.916,0.205-1.802,0.578-2.65c0.373-0.853,0.896-1.604,1.566-2.264
		c0.67-0.656,1.465-1.177,2.383-1.557c0.92-0.38,1.916-0.568,2.99-0.568c1.021,0,2.064,0.293,3.135,0.877
		c1.066,0.586,1.967,1.387,2.697,2.398c0.729,1.016,1.141,2.132,1.23,3.354c0,0.062,0.004,0.153,0.014,0.272s0.014,0.206,0.014,0.26
		c0,1.029-0.193,1.994-0.578,2.895c-0.387,0.896-0.924,1.687-1.611,2.364c-0.688,0.677-1.477,1.205-2.363,1.578
		c-0.885,0.373-1.814,0.56-2.791,0.56c-1.178,0-2.328-0.295-3.449-0.884c-1.123-0.59-2.039-1.455-2.748-2.601
		C462.252,62.507,461.896,61.161,461.896,59.614z M463.732,59.711c0,1.114,0.248,2.092,0.744,2.929c0.496,0.838,1.162,1.49,2,1.957
		s1.752,0.725,2.74,0.773c0.824,0,1.646-0.222,2.473-0.664c0.824-0.445,1.506-1.097,2.045-1.957s0.811-1.873,0.811-3.038
		c0-0.677-0.143-1.334-0.422-1.977c-0.283-0.642-0.674-1.213-1.174-1.717c-0.494-0.505-1.07-0.901-1.723-1.192
		c-0.652-0.293-1.322-0.438-2.01-0.438c-0.939,0.021-1.824,0.261-2.658,0.722s-1.51,1.093-2.025,1.896
		C464.016,57.809,463.75,58.711,463.732,59.711z"/>
	<path d="M478.994,66.827V47.963h1.885v18.864H478.994z"/>
	<path d="M490.061,59.944c0.012-1.11,0.229-2.131,0.652-3.056c0.424-0.926,0.99-1.713,1.703-2.36c0.711-0.646,1.512-1.142,2.4-1.484
		c0.891-0.345,1.793-0.518,2.709-0.518c2.555,0.062,4.381,1.082,5.482,3.063v-2.707h1.838v13.945h-1.838v-2.649
		c-0.521,0.938-1.277,1.663-2.271,2.181c-0.992,0.518-2.113,0.774-3.365,0.774c-0.955-0.024-1.869-0.209-2.744-0.551
		c-0.877-0.343-1.66-0.828-2.352-1.46c-0.689-0.629-1.232-1.388-1.629-2.271C490.256,61.967,490.061,60.997,490.061,59.944z
		 M491.996,59.509c0,1.145,0.25,2.158,0.756,3.04c0.504,0.882,1.168,1.56,1.994,2.03c0.824,0.474,1.699,0.722,2.627,0.741
		c1.064,0,2.025-0.258,2.887-0.771c0.859-0.511,1.531-1.185,2.02-2.017s0.73-1.695,0.73-2.593c0-0.987-0.234-1.896-0.707-2.73
		c-0.475-0.835-1.125-1.501-1.953-2.001c-0.826-0.5-1.734-0.775-2.723-0.824c-1.074,0-2.043,0.268-2.906,0.803
		s-1.533,1.204-2.01,2.011C492.232,58.004,491.996,58.774,491.996,59.509z"/>
	<path d="M508.047,66.827V52.881h1.785v2.09c0.461-0.769,1.09-1.358,1.887-1.771c0.797-0.414,1.645-0.623,2.545-0.623
		c0.783,0,1.541,0.143,2.271,0.424c0.729,0.281,1.383,0.69,1.961,1.231c0.576,0.538,1.035,1.211,1.379,2.017
		c0.342,0.807,0.512,1.705,0.512,2.701v7.879h-1.834v-7.879c0-0.964-0.207-1.785-0.619-2.468c-0.414-0.684-0.955-1.194-1.625-1.535
		c-0.67-0.34-1.385-0.511-2.145-0.511c-0.742,0-1.438,0.164-2.078,0.489c-0.645,0.325-1.162,0.812-1.561,1.463
		c-0.396,0.648-0.596,1.426-0.596,2.33v8.109H508.047z"/>
	<path d="M522.766,59.202c0.111-1.297,0.518-2.449,1.223-3.453c0.701-1.004,1.582-1.783,2.637-2.338
		c1.053-0.554,2.139-0.851,3.256-0.888c1.178,0,2.275,0.228,3.297,0.679c1.021,0.453,1.852,1.162,2.49,2.129v-7.368h1.885v18.864
		h-1.785v-2.65c-0.664,0.99-1.459,1.73-2.387,2.221s-2.062,0.734-3.402,0.734c-1.145-0.05-2.279-0.387-3.402-1.012
		c-1.123-0.623-2.045-1.487-2.762-2.593c-0.715-1.104-1.072-2.35-1.072-3.733C522.74,59.536,522.748,59.341,522.766,59.202z
		 M524.699,59.054c-0.031,0.17-0.051,0.425-0.051,0.766c0,0.923,0.24,1.804,0.723,2.646c0.48,0.842,1.141,1.523,1.977,2.049
		c0.836,0.522,1.764,0.792,2.785,0.811c0.922,0,1.814-0.23,2.686-0.691c0.869-0.46,1.578-1.125,2.125-1.994
		c0.549-0.869,0.822-1.876,0.822-3.021c0-0.614-0.195-1.334-0.588-2.162s-1.014-1.547-1.861-2.153
		c-0.848-0.605-1.91-0.911-3.184-0.911c-0.693,0-1.42,0.153-2.182,0.463c-0.762,0.312-1.445,0.814-2.055,1.521
		C525.289,57.071,524.891,57.967,524.699,59.054z"/>
	<path d="M547.646,66.827V47.963h4.947c1.486,0,2.766,0.157,3.838,0.471s1.938,0.863,2.588,1.648
		c0.654,0.786,1.025,1.855,1.117,3.209c0.018,0.12,0.025,0.29,0.025,0.51c0,1.046-0.277,1.979-0.832,2.801
		c-0.555,0.822-1.326,1.462-2.316,1.917c-0.992,0.457-2.117,0.687-3.375,0.687h-4.107v7.623L547.646,66.827L547.646,66.827z
		 M549.531,49.643v7.88h3.902c1.66,0,2.879-0.382,3.654-1.146c0.773-0.763,1.164-1.792,1.164-3.086
		c-0.07-1.341-0.582-2.283-1.535-2.829c-0.951-0.545-2.25-0.819-3.893-0.819H549.531z"/>
	<path d="M562.059,66.827V52.829h1.762v2.092c0.777-1.598,2.137-2.396,4.078-2.396v1.91c-0.438,0-0.896,0.094-1.371,0.28
		c-0.473,0.188-0.906,0.452-1.303,0.797s-0.713,0.746-0.949,1.208c-0.234,0.46-0.354,0.957-0.354,1.493v8.612h-1.861v0.002H562.059z
		"/>
	<path d="M568.289,59.764c0.025-1.116,0.246-2.12,0.654-3.013c0.408-0.894,0.959-1.652,1.652-2.281
		c0.693-0.628,1.461-1.105,2.305-1.436c0.848-0.328,1.711-0.496,2.602-0.511c1.188,0,2.344,0.291,3.459,0.868
		c1.117,0.579,2.031,1.448,2.742,2.607s1.066,2.542,1.066,4.146V60.5h-12.598c0.084,1.032,0.398,1.914,0.953,2.642
		c0.551,0.729,1.221,1.273,2.006,1.635c0.787,0.36,1.559,0.541,2.318,0.541c0.676,0,1.357-0.135,2.049-0.403
		c0.688-0.271,1.297-0.642,1.826-1.11c0.527-0.472,0.9-0.993,1.121-1.564h1.938c-0.391,1.07-0.959,1.977-1.707,2.717
		c-0.75,0.742-1.59,1.289-2.516,1.645c-0.93,0.354-1.863,0.531-2.812,0.531c-1.24-0.05-2.398-0.381-3.48-0.993
		c-1.08-0.61-1.947-1.469-2.604-2.571C568.615,62.463,568.289,61.196,568.289,59.764z M580.934,58.823
		c-0.156-0.807-0.488-1.55-0.992-2.233c-0.504-0.688-1.139-1.231-1.902-1.642c-0.766-0.408-1.596-0.611-2.486-0.611
		c-1.193,0-2.189,0.283-2.98,0.85c-0.793,0.565-1.375,1.198-1.748,1.898c-0.375,0.697-0.59,1.277-0.646,1.738H580.934
		L580.934,58.823z"/>
	<path d="M588.906,66.827l-5.859-13.946h2.035l4.82,11.551l4.846-11.551h2.039l-5.943,13.946H588.906z"/>
	<path d="M597.098,59.764c0.027-1.116,0.246-2.12,0.656-3.013c0.408-0.894,0.959-1.652,1.65-2.281
		c0.693-0.628,1.461-1.105,2.307-1.436c0.846-0.328,1.711-0.496,2.6-0.511c1.189,0,2.344,0.291,3.459,0.868
		c1.117,0.579,2.031,1.448,2.742,2.607s1.068,2.542,1.068,4.146V60.5h-12.6c0.084,1.032,0.4,1.914,0.953,2.642
		c0.551,0.729,1.221,1.273,2.006,1.635c0.787,0.36,1.561,0.541,2.318,0.541c0.676,0,1.359-0.135,2.049-0.403
		c0.688-0.271,1.297-0.642,1.826-1.11c0.529-0.472,0.902-0.993,1.123-1.564h1.938c-0.393,1.07-0.961,1.977-1.709,2.717
		c-0.75,0.742-1.59,1.289-2.516,1.645c-0.928,0.354-1.863,0.531-2.811,0.531c-1.24-0.05-2.4-0.381-3.482-0.993
		c-1.08-0.61-1.947-1.469-2.602-2.571C597.424,62.463,597.098,61.196,597.098,59.764z M609.742,58.823
		c-0.156-0.807-0.488-1.55-0.992-2.233c-0.504-0.688-1.141-1.231-1.904-1.642c-0.764-0.411-1.594-0.611-2.486-0.611
		c-1.193,0-2.188,0.283-2.979,0.85c-0.793,0.565-1.375,1.198-1.748,1.898c-0.375,0.697-0.59,1.277-0.648,1.738H609.742
		L609.742,58.823z"/>
	<path d="M614.008,66.827V52.881h1.785v2.09c0.461-0.769,1.09-1.358,1.887-1.771c0.795-0.414,1.645-0.623,2.545-0.623
		c0.783,0,1.541,0.143,2.271,0.424c0.729,0.281,1.383,0.69,1.961,1.231c0.574,0.538,1.035,1.211,1.379,2.017
		c0.342,0.807,0.512,1.705,0.512,2.701v7.879h-1.836v-7.879c0-0.964-0.205-1.785-0.619-2.468c-0.412-0.684-0.953-1.194-1.623-1.535
		c-0.67-0.34-1.385-0.511-2.145-0.511c-0.744,0-1.438,0.164-2.078,0.489c-0.645,0.325-1.164,0.812-1.561,1.463
		c-0.396,0.648-0.596,1.426-0.596,2.33v8.109H614.008z"/>
	<path d="M630.414,66.827V54.585h-2.932v-1.704h2.932v-4.918h1.887v4.918h3.236v1.704h-3.236v12.242H630.414z"/>
	<path d="M637.215,51.2v-3.237h1.885V51.2H637.215z M637.215,66.827V52.881h1.885v13.946H637.215z"/>
	<path d="M641.594,59.614c0.012-0.916,0.205-1.802,0.578-2.65c0.373-0.853,0.895-1.604,1.562-2.264
		c0.672-0.656,1.467-1.177,2.387-1.557c0.918-0.38,1.916-0.568,2.988-0.568c1.021,0,2.064,0.293,3.135,0.877
		c1.066,0.586,1.967,1.387,2.697,2.398c0.73,1.016,1.143,2.132,1.23,3.354c0,0.062,0.004,0.153,0.014,0.272
		c0.008,0.119,0.014,0.206,0.014,0.26c0,1.029-0.193,1.994-0.578,2.895c-0.389,0.896-0.924,1.687-1.611,2.364
		c-0.689,0.678-1.479,1.205-2.363,1.578c-0.883,0.373-1.814,0.56-2.791,0.56c-1.178,0-2.328-0.295-3.451-0.884
		c-1.123-0.59-2.039-1.455-2.748-2.601C641.947,62.507,641.594,61.161,641.594,59.614z M643.428,59.711
		c0,1.114,0.248,2.092,0.744,2.929c0.496,0.838,1.162,1.49,2,1.957c0.84,0.467,1.752,0.725,2.74,0.773
		c0.822,0,1.646-0.222,2.473-0.664c0.824-0.445,1.506-1.097,2.045-1.957s0.809-1.873,0.809-3.038c0-0.677-0.141-1.334-0.422-1.977
		c-0.281-0.642-0.672-1.213-1.172-1.717c-0.496-0.505-1.072-0.901-1.723-1.192c-0.652-0.293-1.322-0.438-2.01-0.438
		c-0.939,0.021-1.824,0.261-2.658,0.722s-1.51,1.093-2.025,1.896C643.711,57.809,643.445,58.711,643.428,59.711z"/>
	<path d="M658.656,66.827V52.881h1.785v2.09c0.463-0.769,1.09-1.358,1.889-1.771c0.797-0.414,1.645-0.623,2.545-0.623
		c0.783,0,1.543,0.143,2.271,0.424s1.383,0.69,1.959,1.231c0.576,0.538,1.037,1.211,1.379,2.017
		c0.344,0.807,0.516,1.705,0.516,2.701v7.879h-1.836v-7.879c0-0.964-0.207-1.785-0.619-2.468c-0.412-0.684-0.955-1.194-1.623-1.535
		c-0.672-0.34-1.389-0.511-2.146-0.511c-0.744,0-1.436,0.164-2.08,0.489c-0.643,0.325-1.162,0.812-1.559,1.463
		c-0.396,0.648-0.594,1.426-0.594,2.33v8.109H658.656z"/>
</g>
<g>
	<path d="M158.84,80.386c0.1-0.896,0.405-1.688,0.915-2.373c0.51-0.684,1.146-1.21,1.909-1.576c0.762-0.367,1.563-0.553,2.4-0.553
		c0.457,0,0.905,0.057,1.343,0.167c0.437,0.11,0.855,0.278,1.254,0.505c0.399,0.228,0.77,0.51,1.113,0.854
		c0.343,0.345,0.645,0.75,0.904,1.218h-1.119c-0.291-0.382-0.625-0.705-1.003-0.968c-0.377-0.263-0.774-0.455-1.189-0.58
		s-0.831-0.188-1.246-0.188c-0.556,0-1.092,0.102-1.607,0.302c-0.517,0.198-0.978,0.485-1.383,0.861
		c-0.405,0.374-0.725,0.825-0.959,1.354c-0.235,0.523-0.352,1.102-0.352,1.728c0.008,0.806,0.213,1.53,0.615,2.172
		c0.4,0.645,0.928,1.145,1.581,1.503c0.653,0.358,1.345,0.543,2.076,0.556c0.429-0.013,0.855-0.084,1.279-0.222
		c0.424-0.135,0.827-0.338,1.209-0.608c0.382-0.272,0.723-0.614,1.02-1.027h1.12c-0.367,0.629-0.795,1.152-1.287,1.57
		c-0.491,0.418-1.019,0.728-1.584,0.929c-0.565,0.2-1.151,0.302-1.757,0.302c-0.668,0-1.319-0.123-1.954-0.371
		c-0.634-0.248-1.204-0.604-1.709-1.067c-0.505-0.463-0.903-1.021-1.194-1.672c-0.291-0.649-0.436-1.36-0.436-2.13
		C158.797,80.838,158.811,80.61,158.84,80.386z"/>
	<path d="M170.267,86.146V76.048h2.745c0.947,0,1.783,0.134,2.509,0.4c0.726,0.269,1.333,0.641,1.821,1.114
		c0.487,0.476,0.852,1.021,1.093,1.642c0.241,0.616,0.361,1.28,0.361,1.985c-0.007,0.752-0.155,1.437-0.445,2.054
		c-0.29,0.616-0.685,1.144-1.187,1.579c-0.5,0.437-1.063,0.766-1.688,0.987c-0.625,0.225-1.27,0.335-1.934,0.335L170.267,86.146
		L170.267,86.146z M171.276,76.948v8.268h1.556c1.401,0,2.555-0.329,3.461-0.986c0.906-0.66,1.403-1.672,1.493-3.037
		c0-0.562-0.097-1.1-0.291-1.606c-0.193-0.51-0.486-0.962-0.881-1.359c-0.394-0.396-0.894-0.708-1.499-0.936
		c-0.605-0.229-1.307-0.342-2.104-0.342L171.276,76.948L171.276,76.948z"/>
	<path d="M180.027,80.386c0.1-0.896,0.405-1.688,0.915-2.373c0.51-0.684,1.146-1.21,1.909-1.576
		c0.763-0.367,1.563-0.553,2.401-0.553c0.457,0,0.905,0.057,1.343,0.167c0.437,0.11,0.855,0.278,1.254,0.505
		c0.399,0.228,0.77,0.51,1.113,0.854c0.343,0.345,0.645,0.75,0.904,1.218h-1.119c-0.291-0.382-0.625-0.705-1.003-0.968
		c-0.377-0.263-0.774-0.455-1.189-0.58s-0.831-0.188-1.246-0.188c-0.555,0-1.091,0.102-1.607,0.302
		c-0.517,0.198-0.978,0.485-1.383,0.861c-0.405,0.374-0.725,0.825-0.959,1.354c-0.235,0.523-0.352,1.102-0.352,1.728
		c0.008,0.806,0.213,1.53,0.615,2.172c0.4,0.645,0.928,1.145,1.581,1.503c0.653,0.358,1.345,0.543,2.076,0.556
		c0.429-0.013,0.855-0.084,1.279-0.222c0.424-0.135,0.827-0.338,1.209-0.608c0.382-0.272,0.722-0.614,1.02-1.027h1.119
		c-0.366,0.629-0.795,1.152-1.286,1.57c-0.491,0.418-1.019,0.728-1.584,0.929c-0.565,0.2-1.151,0.302-1.757,0.302
		c-0.668,0-1.32-0.123-1.954-0.371c-0.634-0.248-1.204-0.604-1.709-1.067c-0.505-0.463-0.903-1.021-1.194-1.672
		s-0.436-1.36-0.436-2.13C179.985,80.838,179.998,80.61,180.027,80.386z"/>
	<path d="M194.494,79.323c0.009-0.757,0.165-1.392,0.47-1.902c0.304-0.514,0.704-0.896,1.198-1.146
		c0.494-0.25,1.03-0.382,1.607-0.394c0.4,0,0.786,0.078,1.159,0.233c0.374,0.155,0.705,0.37,0.995,0.646
		c0.29,0.277,0.519,0.604,0.688,0.979c0.168,0.375,0.253,0.776,0.253,1.207c0,1.013-0.474,1.961-1.419,2.854l-3.615,3.411h5.034
		v0.931h-6.427v-0.899l4.504-4.382c0.626-0.625,0.94-1.265,0.94-1.911c0-0.375-0.093-0.72-0.28-1.033s-0.434-0.562-0.743-0.747
		c-0.309-0.188-0.636-0.287-0.982-0.306c-0.66,0-1.22,0.198-1.681,0.597c-0.461,0.397-0.691,1.019-0.691,1.859h-1.01V79.323z"/>
	<path d="M206.344,76.048h1.256v7.329h0.903v0.898H207.6v1.868h-1.009v-1.868H201.5v-0.898L206.344,76.048z M206.591,77.427
		l-3.945,5.95h3.945V77.427z"/>
	<path d="M208.979,87.879l3.945-11.831h0.927l-3.999,11.831H208.979z"/>
	<path d="M215.733,86.146l4.165-9.196h-4.778V76.05h5.84v0.899l-4.147,9.196H215.733z"/>
	<path d="M222.193,79.186h1.009v1.706h-1.009V79.186z M222.193,84.413h1.009v1.73h-1.009V84.413z"/>
	<path d="M229.483,83.321c0.022,0.438,0.134,0.809,0.335,1.11c0.201,0.304,0.46,0.529,0.78,0.681
		c0.32,0.152,0.658,0.229,1.013,0.229c0.329,0,0.646-0.087,0.951-0.263c0.306-0.177,0.551-0.412,0.736-0.711
		c0.185-0.298,0.278-0.619,0.278-0.962c0-0.422-0.106-0.795-0.317-1.12c-0.199-0.314-0.574-0.567-1.124-0.759
		c-0.549-0.188-1.087-0.373-1.614-0.55c-0.527-0.176-0.959-0.441-1.297-0.8c-0.337-0.355-0.506-0.877-0.506-1.564
		c0-0.025,0.002-0.066,0.008-0.12c0.006-0.052,0.008-0.104,0.008-0.15c0.027-0.482,0.173-0.91,0.438-1.284
		c0.265-0.375,0.608-0.663,1.03-0.866c0.422-0.202,0.863-0.306,1.325-0.306c0.546,0,1.033,0.134,1.46,0.397
		c0.427,0.267,0.757,0.6,0.989,1.002c0.232,0.401,0.348,0.795,0.348,1.18v0.137h-1.01c-0.075-0.562-0.274-0.979-0.595-1.255
		c-0.321-0.271-0.71-0.433-1.168-0.478c-0.315,0-0.608,0.067-0.879,0.205c-0.271,0.14-0.49,0.323-0.658,0.562
		c-0.167,0.235-0.259,0.488-0.275,0.761c0,0.631,0.165,1.07,0.495,1.314c0.33,0.244,0.855,0.47,1.575,0.678
		c0.72,0.208,1.301,0.464,1.747,0.771c0.445,0.305,0.764,0.819,0.958,1.551c0.038,0.268,0.056,0.479,0.056,0.64
		c0,0.343-0.064,0.688-0.195,1.041c-0.129,0.354-0.32,0.671-0.571,0.958c-0.25,0.289-0.568,0.521-0.951,0.697
		c-0.383,0.176-0.816,0.266-1.3,0.266c-0.47,0-0.903-0.078-1.297-0.23c-0.394-0.154-0.732-0.37-1.014-0.646
		c-0.282-0.273-0.497-0.595-0.644-0.956c-0.148-0.358-0.222-0.744-0.222-1.153h1.107V83.321z"/>
	<path d="M235.577,82.461c0.007-0.595,0.124-1.143,0.35-1.636c0.227-0.496,0.53-0.918,0.911-1.265
		c0.381-0.346,0.81-0.61,1.286-0.796c0.476-0.185,0.96-0.275,1.451-0.275c1.366,0.032,2.344,0.579,2.935,1.64V78.68h0.983v7.466
		h-0.983v-1.419c-0.28,0.501-0.685,0.893-1.216,1.169c-0.531,0.274-1.132,0.413-1.802,0.413c-0.511-0.013-1.001-0.109-1.469-0.295
		c-0.469-0.185-0.888-0.441-1.258-0.78c-0.37-0.338-0.661-0.743-0.872-1.217C235.683,83.544,235.577,83.024,235.577,82.461z
		 M236.613,82.228c0,0.613,0.135,1.156,0.405,1.629c0.27,0.472,0.625,0.834,1.067,1.088c0.442,0.253,0.911,0.386,1.406,0.396
		c0.57,0,1.085-0.138,1.546-0.411c0.459-0.272,0.82-0.634,1.082-1.079c0.261-0.446,0.391-0.907,0.391-1.388
		c0-0.528-0.126-1.019-0.379-1.463c-0.253-0.446-0.602-0.806-1.045-1.07c-0.443-0.268-0.929-0.415-1.457-0.441
		c-0.576,0-1.094,0.145-1.556,0.431c-0.462,0.287-0.821,0.646-1.076,1.076C236.741,81.422,236.613,81.835,236.613,82.228z"/>
	<path d="M247.623,86.146l-3.139-7.466h1.088l2.584,6.183l2.592-6.183h1.092l-3.182,7.466H247.623z"/>
	<path d="M252.836,77.78v-1.73h1.009v1.73H252.836z M252.836,86.146V78.68h1.009v7.466H252.836z"/>
	<path d="M255.66,86.146V78.68h0.957v1.119c0.246-0.41,0.583-0.729,1.009-0.949c0.427-0.223,0.88-0.333,1.361-0.333
		c0.421,0,0.826,0.075,1.217,0.228c0.391,0.149,0.74,0.37,1.049,0.659c0.309,0.287,0.555,0.647,0.738,1.078
		c0.183,0.433,0.274,0.913,0.274,1.446v4.218h-0.982v-4.218c0-0.517-0.11-0.955-0.332-1.319c-0.223-0.364-0.512-0.641-0.87-0.821
		c-0.359-0.183-0.741-0.272-1.148-0.272c-0.396,0-0.768,0.087-1.112,0.263c-0.344,0.175-0.623,0.437-0.834,0.782
		c-0.212,0.348-0.317,0.764-0.317,1.247v4.342h-1.009L255.66,86.146L255.66,86.146z"/>
	<path d="M263.684,82.394c0-0.781,0.184-1.466,0.548-2.055c0.365-0.589,0.833-1.042,1.403-1.357s1.152-0.479,1.747-0.491
		c0.456,0,0.888,0.067,1.298,0.204c0.41,0.136,0.771,0.328,1.086,0.584c0.314,0.255,0.552,0.548,0.714,0.88v-1.505h0.956v6.851
		c0,0.572-0.099,1.081-0.298,1.521c-0.199,0.438-0.47,0.806-0.815,1.097c-0.344,0.293-0.736,0.513-1.18,0.657
		c-0.442,0.147-0.901,0.222-1.378,0.222c-0.426,0-0.844-0.06-1.253-0.174c-0.408-0.114-0.785-0.287-1.129-0.514
		c-0.344-0.227-0.641-0.51-0.889-0.849c-0.249-0.338-0.429-0.723-0.537-1.154h0.982c0.244,0.574,0.619,1.012,1.125,1.312
		c0.505,0.3,1.054,0.448,1.645,0.448c0.489,0,0.943-0.102,1.368-0.306c0.423-0.202,0.763-0.501,1.019-0.896
		c0.257-0.396,0.385-0.857,0.385-1.394v-0.813c-0.591,1.099-1.561,1.646-2.907,1.646c-0.466,0-0.928-0.085-1.389-0.257
		c-0.461-0.17-0.878-0.424-1.254-0.761c-0.375-0.337-0.675-0.751-0.898-1.245C263.806,83.554,263.691,83.003,263.684,82.394z
		 M264.694,82.2c0,0.627,0.128,1.177,0.386,1.647c0.257,0.476,0.602,0.837,1.034,1.092c0.434,0.257,0.911,0.388,1.434,0.397
		c0.411,0,0.845-0.104,1.301-0.32c0.457-0.213,0.843-0.55,1.159-1.01c0.317-0.461,0.475-1.035,0.475-1.727
		c0-0.35-0.078-0.69-0.232-1.029c-0.156-0.339-0.371-0.643-0.646-0.906c-0.274-0.265-0.598-0.476-0.968-0.629
		c-0.37-0.155-0.759-0.231-1.167-0.231c-0.713,0.02-1.275,0.205-1.688,0.562c-0.411,0.354-0.694,0.742-0.851,1.162
		C264.771,81.627,264.694,81.959,264.694,82.2z"/>
	<path d="M277.85,85.245l4.191-0.029v0.93h-5.201V76.048h1.01V85.245L277.85,85.245z"/>
	<path d="M283.048,77.78v-1.73h1.009v1.73H283.048z M283.048,86.146V78.68h1.009v7.466H283.048z"/>
	<path d="M288.175,86.146l-3.138-7.466h1.089l2.581,6.183l2.593-6.183h1.093l-3.182,7.466H288.175z"/>
	<path d="M292.697,82.364c0.017-0.599,0.133-1.138,0.352-1.612c0.219-0.479,0.514-0.886,0.885-1.222
		c0.371-0.337,0.782-0.593,1.234-0.77c0.451-0.176,0.915-0.267,1.391-0.271c0.639,0,1.256,0.153,1.854,0.465
		c0.598,0.31,1.086,0.773,1.468,1.396c0.381,0.62,0.571,1.36,0.571,2.221v0.189h-6.744c0.045,0.555,0.215,1.023,0.511,1.415
		c0.295,0.39,0.653,0.681,1.075,0.874c0.421,0.193,0.834,0.289,1.24,0.289c0.361,0,0.728-0.071,1.097-0.217
		c0.369-0.146,0.694-0.343,0.978-0.595c0.283-0.254,0.484-0.532,0.604-0.84h1.035c-0.207,0.573-0.514,1.06-0.914,1.455
		c-0.401,0.396-0.85,0.689-1.348,0.879c-0.496,0.19-0.998,0.285-1.504,0.285c-0.664-0.025-1.285-0.204-1.863-0.531
		c-0.578-0.328-1.043-0.785-1.394-1.377C292.871,83.809,292.697,83.131,292.697,82.364z M299.466,81.86
		c-0.084-0.431-0.261-0.827-0.531-1.193c-0.271-0.367-0.608-0.659-1.021-0.878c-0.409-0.22-0.854-0.328-1.33-0.328
		c-0.641,0-1.172,0.151-1.598,0.455c-0.424,0.304-0.734,0.642-0.936,1.016c-0.2,0.375-0.314,0.687-0.348,0.933h5.762L299.466,81.86
		L299.466,81.86z"/>
	<path d="M301.559,80.864c-0.009-0.072-0.014-0.175-0.014-0.302c0-0.433,0.107-0.805,0.322-1.112c0.217-0.313,0.485-0.546,0.812-0.7
		c0.325-0.156,0.643-0.233,0.952-0.233c0.25,0,0.501,0.042,0.75,0.127c0.249,0.083,0.476,0.209,0.683,0.376
		c0.205,0.166,0.372,0.378,0.5,0.634c0.127,0.255,0.198,0.546,0.211,0.869h-1.021c-0.019-0.355-0.134-0.619-0.345-0.787
		c-0.213-0.166-0.473-0.25-0.775-0.25c-0.27,0-0.52,0.091-0.75,0.265c-0.23,0.176-0.354,0.434-0.37,0.772
		c0.002,0.009,0.015,0.064,0.038,0.168c0.023,0.104,0.039,0.172,0.045,0.201c0.069,0.246,0.305,0.452,0.703,0.618
		c0.4,0.165,0.802,0.324,1.208,0.478c0.405,0.151,0.748,0.375,1.028,0.673c0.277,0.295,0.419,0.715,0.419,1.263
		c0,0.092-0.011,0.229-0.03,0.407c-0.057,0.461-0.208,0.841-0.455,1.138c-0.248,0.298-0.54,0.513-0.875,0.646
		c-0.336,0.133-0.666,0.196-0.99,0.196c-0.449,0-0.854-0.104-1.209-0.311c-0.355-0.206-0.633-0.488-0.83-0.847
		c-0.195-0.357-0.295-0.754-0.295-1.188l1.014-0.029c0.013,0.431,0.158,0.776,0.435,1.043c0.277,0.269,0.593,0.406,0.945,0.42
		c0.354-0.03,0.657-0.169,0.907-0.411s0.375-0.537,0.375-0.886c0-0.306-0.101-0.584-0.301-0.834
		c-0.201-0.25-0.511-0.427-0.929-0.531c-0.569-0.151-1.056-0.366-1.46-0.643C301.854,81.815,301.621,81.407,301.559,80.864z"/>
	<path d="M308.406,84.413h1.013l-1.229,2.632h-0.982L308.406,84.413z"/>
	<path d="M314.279,86.146V76.048h2.648c0.795,0,1.479,0.083,2.053,0.251s1.037,0.462,1.387,0.884c0.351,0.42,0.55,0.993,0.599,1.717
		c0.009,0.064,0.013,0.155,0.013,0.273c0,0.559-0.146,1.059-0.443,1.498c-0.297,0.44-0.711,0.781-1.241,1.027
		c-0.531,0.243-1.132,0.364-1.806,0.364h-2.199v4.081L314.279,86.146L314.279,86.146z M315.289,76.948v4.217h2.088
		c0.889,0,1.541-0.204,1.955-0.613c0.416-0.408,0.623-0.96,0.623-1.652c-0.037-0.718-0.312-1.223-0.82-1.515
		s-1.205-0.437-2.084-0.437H315.289L315.289,76.948z"/>
	<path d="M322.121,86.146v-7.492h0.941v1.119c0.415-0.854,1.145-1.282,2.184-1.282v1.022c-0.235,0-0.479,0.051-0.732,0.148
		c-0.254,0.102-0.486,0.241-0.699,0.428c-0.212,0.184-0.381,0.398-0.507,0.646c-0.127,0.246-0.188,0.513-0.188,0.8v4.609
		L322.121,86.146L322.121,86.146z"/>
	<path d="M325.574,82.282c0.006-0.488,0.108-0.964,0.31-1.418c0.201-0.455,0.479-0.858,0.838-1.212
		c0.358-0.352,0.784-0.629,1.276-0.832c0.492-0.202,1.023-0.306,1.601-0.306c0.546,0,1.104,0.156,1.677,0.47
		s1.056,0.741,1.445,1.284c0.391,0.544,0.61,1.143,0.659,1.794c0,0.033,0.003,0.082,0.008,0.146c0.004,0.063,0.006,0.11,0.006,0.14
		c0,0.552-0.104,1.067-0.31,1.548c-0.207,0.48-0.495,0.902-0.863,1.269c-0.369,0.36-0.79,0.644-1.264,0.844
		c-0.477,0.199-0.975,0.3-1.494,0.3c-0.631,0-1.247-0.157-1.848-0.474c-0.603-0.314-1.092-0.779-1.473-1.392
		C325.763,83.832,325.574,83.114,325.574,82.282z M326.556,82.336c0,0.598,0.133,1.12,0.399,1.566c0.265,0.448,0.621,0.8,1.07,1.048
		c0.447,0.25,0.938,0.389,1.465,0.416c0.441,0,0.885-0.119,1.324-0.356c0.441-0.237,0.807-0.587,1.096-1.047
		c0.286-0.46,0.433-1.004,0.433-1.627c0-0.361-0.076-0.714-0.227-1.059c-0.151-0.344-0.359-0.648-0.626-0.92
		c-0.268-0.269-0.574-0.48-0.924-0.64c-0.35-0.156-0.707-0.233-1.076-0.233c-0.5,0.013-0.977,0.141-1.422,0.386
		c-0.447,0.248-0.809,0.586-1.086,1.018C326.707,81.319,326.566,81.801,326.556,82.336z"/>
	<path d="M335.296,86.146v-6.554h-1.57V78.68h1.57v-2.632h1.008v2.632h1.734v0.912h-1.734v6.554H335.296z"/>
	<path d="M338.414,82.364c0.018-0.599,0.133-1.138,0.352-1.612c0.219-0.479,0.514-0.886,0.885-1.222
		c0.371-0.337,0.783-0.593,1.234-0.77c0.451-0.176,0.916-0.267,1.391-0.271c0.639,0,1.256,0.153,1.855,0.465
		c0.596,0.31,1.086,0.773,1.467,1.396c0.381,0.62,0.572,1.36,0.572,2.221v0.189h-6.744c0.045,0.555,0.215,1.023,0.51,1.415
		c0.295,0.39,0.654,0.681,1.074,0.874c0.422,0.193,0.834,0.289,1.242,0.289c0.359,0,0.727-0.071,1.096-0.217
		c0.369-0.146,0.693-0.343,0.979-0.595c0.281-0.254,0.482-0.532,0.602-0.84h1.037c-0.209,0.573-0.516,1.06-0.916,1.455
		c-0.4,0.396-0.852,0.689-1.346,0.879c-0.496,0.19-0.996,0.285-1.504,0.285c-0.664-0.025-1.285-0.204-1.863-0.531
		c-0.578-0.328-1.043-0.785-1.395-1.377C338.59,83.809,338.414,83.131,338.414,82.364z M345.184,81.86
		c-0.084-0.431-0.262-0.827-0.529-1.193c-0.271-0.367-0.609-0.659-1.021-0.878c-0.41-0.22-0.854-0.328-1.33-0.328
		c-0.639,0-1.172,0.151-1.596,0.455s-0.736,0.642-0.938,1.016c-0.201,0.375-0.314,0.687-0.346,0.933h5.76V81.86z"/>
	<path d="M347.246,82.394c0.008-0.591,0.117-1.125,0.338-1.604c0.219-0.479,0.514-0.888,0.883-1.222
		c0.371-0.336,0.781-0.596,1.232-0.774c0.449-0.183,0.912-0.281,1.381-0.304c0.854,0,1.633,0.201,2.34,0.604
		c0.705,0.402,1.223,1.01,1.549,1.828h-1.146c-0.271-0.464-0.643-0.816-1.107-1.063c-0.467-0.248-1.012-0.371-1.633-0.371
		c-0.564,0.037-1.061,0.191-1.484,0.468c-0.424,0.273-0.752,0.627-0.979,1.059c-0.229,0.432-0.35,0.896-0.359,1.384
		c0,0.531,0.127,1.021,0.381,1.464c0.254,0.443,0.607,0.8,1.059,1.063c0.451,0.266,0.949,0.404,1.496,0.42
		c0.574,0,1.1-0.129,1.57-0.389c0.473-0.259,0.834-0.588,1.092-0.987h1.115c-0.812,1.562-2.055,2.346-3.725,2.346
		c-0.502,0-0.992-0.094-1.473-0.279c-0.479-0.188-0.91-0.457-1.295-0.811c-0.385-0.351-0.688-0.764-0.912-1.239
		c-0.225-0.475-0.34-0.983-0.348-1.53c0.012-0.013,0.02-0.021,0.023-0.031C347.244,82.405,347.246,82.399,347.246,82.394z"/>
	<path d="M357.02,86.146v-6.554h-1.568V78.68h1.568v-2.632h1.008v2.632h1.732v0.912h-1.732v6.554H357.02z"/>
	<path d="M360.781,77.78v-1.73h1.012v1.73H360.781z M360.781,86.146V78.68h1.012v7.466H360.781z"/>
	<path d="M363.607,86.146V78.68h0.955v1.119c0.246-0.41,0.582-0.729,1.01-0.949c0.428-0.223,0.883-0.333,1.361-0.333
		c0.422,0,0.826,0.075,1.217,0.228c0.393,0.149,0.74,0.37,1.053,0.659c0.309,0.287,0.553,0.647,0.734,1.078
		c0.186,0.433,0.275,0.913,0.275,1.446v4.218h-0.982v-4.218c0-0.517-0.109-0.955-0.332-1.319c-0.221-0.364-0.51-0.641-0.869-0.821
		c-0.357-0.183-0.74-0.272-1.146-0.272c-0.398,0-0.77,0.087-1.111,0.263c-0.346,0.175-0.623,0.437-0.836,0.782
		c-0.211,0.348-0.316,0.764-0.316,1.247v4.342h-1.012V86.146L363.607,86.146z"/>
	<path d="M371.629,82.394c0-0.781,0.184-1.466,0.549-2.055s0.834-1.042,1.402-1.357s1.15-0.479,1.748-0.491
		c0.455,0,0.887,0.067,1.297,0.204c0.41,0.136,0.771,0.328,1.086,0.584c0.314,0.255,0.553,0.548,0.715,0.88v-1.505h0.957v6.851
		c0,0.572-0.102,1.081-0.299,1.521c-0.199,0.438-0.473,0.806-0.814,1.097c-0.344,0.293-0.738,0.513-1.182,0.657
		c-0.441,0.147-0.902,0.222-1.377,0.222c-0.428,0-0.846-0.06-1.252-0.174c-0.41-0.114-0.785-0.287-1.131-0.514
		s-0.643-0.51-0.891-0.849c-0.248-0.338-0.428-0.723-0.535-1.154h0.98c0.246,0.574,0.619,1.012,1.125,1.312s1.053,0.448,1.645,0.448
		c0.488,0,0.943-0.102,1.367-0.306c0.424-0.202,0.766-0.501,1.021-0.896c0.258-0.396,0.385-0.857,0.385-1.394v-0.813
		c-0.59,1.099-1.561,1.646-2.908,1.646c-0.463,0-0.926-0.085-1.387-0.257c-0.461-0.17-0.881-0.424-1.254-0.761
		c-0.377-0.337-0.678-0.751-0.9-1.245C371.752,83.554,371.637,83.003,371.629,82.394z M372.639,82.2
		c0,0.627,0.129,1.177,0.385,1.647c0.256,0.476,0.604,0.837,1.035,1.092c0.436,0.257,0.91,0.388,1.434,0.397
		c0.41,0,0.846-0.104,1.303-0.32c0.455-0.213,0.842-0.55,1.158-1.01c0.314-0.461,0.475-1.035,0.475-1.727
		c0-0.35-0.078-0.69-0.232-1.029s-0.369-0.643-0.646-0.906c-0.275-0.265-0.598-0.476-0.967-0.629
		c-0.371-0.155-0.764-0.231-1.168-0.231c-0.715,0.02-1.277,0.205-1.689,0.562c-0.41,0.354-0.695,0.742-0.85,1.162
		C372.717,81.627,372.639,81.959,372.639,82.2z"/>
	<path d="M384.785,86.146V76.048h2.646c0.795,0,1.48,0.083,2.055,0.251s1.037,0.462,1.387,0.884c0.35,0.42,0.551,0.993,0.6,1.717
		c0.008,0.064,0.012,0.155,0.012,0.273c0,0.559-0.145,1.059-0.443,1.498c-0.295,0.44-0.709,0.781-1.24,1.027
		c-0.529,0.243-1.133,0.364-1.805,0.364h-2.199v4.081L384.785,86.146L384.785,86.146z M385.795,76.948v4.217h2.09
		c0.889,0,1.539-0.204,1.955-0.613c0.414-0.408,0.623-0.96,0.623-1.652c-0.039-0.718-0.314-1.223-0.82-1.515
		c-0.512-0.292-1.205-0.437-2.086-0.437H385.795L385.795,76.948z"/>
	<path d="M392.154,82.364c0.02-0.599,0.137-1.138,0.355-1.612c0.217-0.479,0.512-0.886,0.885-1.222
		c0.369-0.337,0.781-0.593,1.234-0.77c0.451-0.176,0.914-0.267,1.391-0.271c0.637,0,1.254,0.153,1.854,0.465
		c0.598,0.31,1.086,0.773,1.467,1.396c0.381,0.62,0.572,1.36,0.572,2.221v0.189h-6.742c0.045,0.555,0.213,1.023,0.51,1.415
		c0.295,0.39,0.652,0.681,1.074,0.874c0.42,0.193,0.834,0.289,1.238,0.289c0.363,0,0.729-0.071,1.098-0.217
		c0.369-0.146,0.693-0.343,0.979-0.595c0.283-0.254,0.484-0.532,0.604-0.84h1.035c-0.209,0.573-0.516,1.06-0.914,1.455
		c-0.402,0.396-0.852,0.689-1.348,0.879c-0.496,0.19-0.998,0.285-1.504,0.285c-0.666-0.025-1.285-0.204-1.863-0.531
		c-0.578-0.328-1.041-0.785-1.395-1.377C392.33,83.809,392.154,83.131,392.154,82.364z M398.926,81.86
		c-0.086-0.431-0.262-0.827-0.531-1.193c-0.27-0.367-0.607-0.659-1.02-0.878c-0.41-0.22-0.855-0.328-1.332-0.328
		c-0.641,0-1.17,0.151-1.598,0.455c-0.424,0.304-0.734,0.642-0.936,1.016c-0.201,0.375-0.316,0.687-0.346,0.933h5.76V81.86H398.926z
		"/>
	<path d="M400.98,82.282c0.008-0.488,0.109-0.964,0.312-1.418c0.199-0.455,0.479-0.858,0.838-1.212
		c0.355-0.352,0.783-0.629,1.273-0.832c0.492-0.202,1.025-0.306,1.602-0.306c0.549,0,1.105,0.156,1.678,0.47
		c0.574,0.314,1.055,0.741,1.445,1.284c0.391,0.544,0.607,1.143,0.658,1.794c0,0.033,0.004,0.082,0.008,0.146
		c0.004,0.063,0.008,0.11,0.008,0.14c0,0.552-0.105,1.067-0.312,1.548c-0.205,0.481-0.492,0.902-0.861,1.269
		c-0.369,0.36-0.791,0.644-1.266,0.844c-0.475,0.199-0.973,0.3-1.492,0.3c-0.633,0-1.248-0.157-1.852-0.474
		c-0.6-0.314-1.09-0.779-1.469-1.392C401.172,83.833,400.98,83.114,400.98,82.282z M401.963,82.336c0,0.598,0.133,1.12,0.396,1.566
		c0.268,0.448,0.621,0.8,1.072,1.048c0.447,0.25,0.938,0.389,1.465,0.416c0.441,0,0.885-0.119,1.324-0.356
		c0.441-0.237,0.807-0.587,1.094-1.047c0.289-0.46,0.436-1.004,0.436-1.627c0-0.361-0.076-0.714-0.229-1.059
		c-0.148-0.344-0.357-0.648-0.625-0.92c-0.268-0.269-0.574-0.48-0.924-0.64c-0.348-0.156-0.707-0.233-1.076-0.233
		c-0.502,0.013-0.977,0.141-1.424,0.386c-0.445,0.248-0.807,0.586-1.084,1.018C402.115,81.319,401.973,81.801,401.963,82.336z"/>
	<path d="M410.252,88.751V78.65h0.967v1.341c0.225-0.326,0.486-0.602,0.785-0.818c0.297-0.221,0.621-0.387,0.973-0.499
		c0.352-0.11,0.715-0.173,1.094-0.185c0.508,0,1.002,0.092,1.486,0.271c0.484,0.182,0.918,0.438,1.305,0.768
		c0.387,0.332,0.693,0.729,0.926,1.192c0.229,0.465,0.354,0.966,0.365,1.506c0,0.598-0.102,1.145-0.303,1.639
		c-0.203,0.491-0.488,0.922-0.859,1.286c-0.367,0.364-0.793,0.646-1.271,0.843s-0.99,0.303-1.537,0.313
		c-0.652,0-1.24-0.14-1.764-0.421c-0.521-0.28-0.902-0.673-1.143-1.175v4.038L410.252,88.751L410.252,88.751z M411.193,82.461
		c0.012,0.439,0.121,0.88,0.334,1.312c0.211,0.436,0.543,0.8,0.994,1.097c0.451,0.298,1.008,0.453,1.672,0.469
		c0.508,0,0.984-0.125,1.436-0.376c0.447-0.252,0.807-0.602,1.074-1.048c0.266-0.447,0.398-0.945,0.398-1.494
		c0-0.521-0.131-1.005-0.393-1.455c-0.264-0.448-0.623-0.809-1.082-1.076c-0.461-0.27-0.971-0.404-1.529-0.404
		c-0.58,0.021-1.092,0.173-1.533,0.451c-0.439,0.278-0.779,0.646-1.018,1.097C411.311,81.485,411.193,81.961,411.193,82.461z"/>
	<path d="M419.58,86.146V76.048h1.008v10.098H419.58L419.58,86.146z"/>
	<path d="M422.066,82.364c0.018-0.599,0.135-1.138,0.354-1.612c0.219-0.479,0.514-0.886,0.885-1.222
		c0.371-0.337,0.781-0.593,1.234-0.77c0.449-0.176,0.916-0.267,1.391-0.271c0.637,0,1.256,0.153,1.852,0.465
		c0.6,0.31,1.09,0.773,1.471,1.396c0.381,0.62,0.568,1.36,0.568,2.221v0.189h-6.74c0.045,0.555,0.213,1.023,0.51,1.415
		c0.295,0.39,0.652,0.681,1.074,0.874c0.42,0.193,0.834,0.289,1.238,0.289c0.363,0,0.73-0.071,1.098-0.217
		c0.369-0.146,0.693-0.343,0.979-0.595c0.283-0.254,0.484-0.532,0.604-0.84h1.035c-0.209,0.573-0.514,1.06-0.914,1.455
		c-0.4,0.396-0.852,0.689-1.348,0.879c-0.496,0.19-0.996,0.285-1.504,0.285c-0.664-0.025-1.285-0.204-1.863-0.531
		c-0.578-0.328-1.043-0.785-1.393-1.377C422.24,83.809,422.066,83.131,422.066,82.364z M428.836,81.86
		c-0.084-0.431-0.262-0.827-0.531-1.193c-0.27-0.367-0.609-0.659-1.02-0.878c-0.41-0.22-0.854-0.328-1.33-0.328
		c-0.643,0-1.172,0.151-1.598,0.455c-0.424,0.304-0.736,0.642-0.938,1.016c-0.199,0.375-0.314,0.687-0.348,0.933h5.764V81.86
		L428.836,81.86z"/>
	<path d="M432.162,76.866h-1.828v-0.818h4.65v0.818h-1.812v4.938h-1.01V76.866L432.162,76.866z M436.01,81.805v-5.757h1.459
		l1.652,4.051l1.705-4.051h1.461v5.757h-0.9v-4.938l-1.992,4.938h-0.533l-1.949-4.938v4.938H436.01z"/>
</g>
</svg>
