<?xml version="1.0" encoding="utf-8"?>
<!-- Generator: Adobe Illustrator 20.0.0, SVG Export Plug-In . SVG Version: 6.00 Build 0)  -->
<!DOCTYPE svg PUBLIC "-//W3C//DTD SVG 1.1//EN" "http://www.w3.org/Graphics/SVG/1.1/DTD/svg11.dtd">
<svg version="1.1" id="Layer_1" xmlns="http://www.w3.org/2000/svg" xmlns:xlink="http://www.w3.org/1999/xlink" x="0px" y="0px"
	 viewBox="0 0 287.8 117.9" style="enable-background:new 0 0 287.8 117.9;" xml:space="preserve">
<style type="text/css">
	.st0{fill:#FFFFFF;}
	.st1{fill:#A088E4;}
</style>
<g>
	<g>
		<g>
			<path class="st0" d="M144.5,88.5h-1.7v-4.9l0.1-2.7h0l-2.6,7.6h-1.6l-2.6-7.6h0l0.1,2.7v4.9h-1.8v-9.3h2.8l1.7,5.1l0.6,2.1h0
				l0.6-2.1l1.7-5.1h2.7V88.5z"/>
			<path class="st0" d="M153.7,86.3h-3.6l-0.8,2.3h-2l3.4-9.3h2.3l3.4,9.3h-2L153.7,86.3z M153.2,84.8l-0.9-2.6l-0.4-1.4h0l-0.4,1.4
				l-0.9,2.7H153.2z"/>
			<path class="st0" d="M165.4,80.8h-3.1v7.7h-1.9v-7.7h-3.1v-1.6h8.2V80.8z"/>
			<path class="st0" d="M174.7,87v1.6h-7.2v-9.3h7v1.6h-5v2.3h4v1.5h-4V87H174.7z"/>
			<path class="st0" d="M181.5,85h-1.7v3.6h-1.9v-9.3h4.1c1.1,0,1.9,0.3,2.5,0.8c0.6,0.5,0.9,1.2,0.9,2.1c0,0.7-0.2,1.2-0.5,1.7
				c-0.3,0.5-0.8,0.8-1.4,1l2.5,3.8h-2.2L181.5,85z M179.8,83.5h1.9c0.6,0,1-0.1,1.2-0.3s0.4-0.6,0.4-1c0-0.5-0.1-0.8-0.4-1
				c-0.3-0.2-0.7-0.3-1.2-0.3h-1.9V83.5z"/>
			<path class="st0" d="M196.9,88.5h-2.2l-3.3-5.5l-0.8-1.6h0l0.1,1.7v5.4h-1.7v-9.3h2.2l3.3,5.5l0.8,1.6h0l-0.1-1.7v-5.4h1.7V88.5z
				"/>
			<path class="st0" d="M206,86.3h-3.6l-0.8,2.3h-2l3.4-9.3h2.3l3.4,9.3h-2L206,86.3z M205.5,84.8l-0.9-2.6l-0.4-1.4h0l-0.4,1.4
				l-0.9,2.7H205.5z"/>
			<path class="st0" d="M218.4,87v1.6h-6.9v-9.3h1.9V87H218.4z"/>
			<path class="st0" d="M144.5,103.2h-1.7v-4.9l0.1-2.7h0l-2.6,7.6h-1.6l-2.6-7.6h0l0.1,2.7v4.9h-1.8v-9.3h2.8l1.7,5.1l0.6,2.1h0
				l0.6-2.1l1.7-5.1h2.7V103.2z"/>
			<path class="st0" d="M153.9,94.3c0.7,0.4,1.2,0.9,1.6,1.7c0.4,0.7,0.5,1.6,0.5,2.6s-0.2,1.8-0.5,2.6c-0.4,0.7-0.9,1.3-1.6,1.7
				c-0.7,0.4-1.5,0.6-2.4,0.6s-1.7-0.2-2.4-0.6c-0.7-0.4-1.2-0.9-1.6-1.7c-0.4-0.7-0.5-1.6-0.5-2.6s0.2-1.8,0.5-2.6
				c0.4-0.7,0.9-1.3,1.6-1.7c0.7-0.4,1.5-0.6,2.4-0.6S153.3,93.9,153.9,94.3z M149.7,96.1c-0.4,0.6-0.6,1.3-0.6,2.4
				c0,1,0.2,1.8,0.6,2.4c0.4,0.6,1,0.8,1.8,0.8c0.8,0,1.4-0.3,1.8-0.8c0.4-0.6,0.6-1.3,0.6-2.4c0-1-0.2-1.8-0.6-2.4
				c-0.4-0.5-1-0.8-1.8-0.8C150.8,95.3,150.1,95.6,149.7,96.1z"/>
			<path class="st0" d="M161.9,99.6h-1.7v3.6h-1.9v-9.3h4.1c1.1,0,1.9,0.3,2.5,0.8c0.6,0.5,0.9,1.2,0.9,2.1c0,0.7-0.2,1.2-0.5,1.7
				s-0.8,0.8-1.4,1l2.5,3.8h-2.2L161.9,99.6z M160.2,98.1h1.9c0.6,0,1-0.1,1.2-0.3c0.3-0.2,0.4-0.6,0.4-1s-0.1-0.8-0.4-1
				c-0.3-0.2-0.7-0.3-1.2-0.3h-1.9V98.1z"/>
			<path class="st0" d="M175.3,95.4h-3.1v7.7h-1.9v-7.7h-3.1v-1.6h8.2V95.4z"/>
			<path class="st0" d="M182.1,100.9h-3.6l-0.8,2.3h-2l3.4-9.3h2.3l3.4,9.3h-2L182.1,100.9z M181.6,99.5l-0.9-2.6l-0.4-1.4h0
				l-0.4,1.4l-0.9,2.7H181.6z"/>
			<path class="st0" d="M194,101.6v1.6h-6.9v-9.3h1.9v7.7H194z"/>
			<path class="st0" d="M199,103.2H197v-9.3h1.9V103.2z"/>
			<path class="st0" d="M209.9,95.4h-3.1v7.7h-1.9v-7.7h-3.1v-1.6h8.2V95.4z"/>
			<path class="st0" d="M216.6,99.7v3.5h-1.9v-3.5l-3.3-5.8h2.1l1.5,2.8l0.7,1.5l0.7-1.5l1.5-2.8h2.1L216.6,99.7z"/>
			<path class="st0" d="M231.6,99.6h-1.7v3.6h-1.9v-9.3h4.1c1.1,0,1.9,0.3,2.5,0.8c0.6,0.5,0.9,1.2,0.9,2.1c0,0.7-0.2,1.2-0.5,1.7
				s-0.8,0.8-1.4,1l2.5,3.8h-2.2L231.6,99.6z M229.9,98.1h1.9c0.6,0,1-0.1,1.2-0.3s0.4-0.6,0.4-1s-0.1-0.8-0.4-1
				c-0.3-0.2-0.7-0.3-1.2-0.3h-1.9V98.1z"/>
			<path class="st0" d="M245.8,101.6v1.6h-7.2v-9.3h7v1.6h-5v2.3h4v1.5h-4v2.4H245.8z"/>
			<path class="st0" d="M253.4,103.2h-2.3l-3.4-9.3h2.1l2,5.9l0.5,1.8l0.5-1.8l2-5.9h2L253.4,103.2z"/>
			<path class="st0" d="M261.5,103.2h-1.9v-9.3h1.9V103.2z"/>
			<path class="st0" d="M272.6,101.6v1.6h-7.2v-9.3h7v1.6h-5v2.3h4v1.5h-4v2.4H272.6z"/>
			<path class="st0" d="M279.4,103.2h-2.2l-2.7-9.3h2.1l1.8,7.8l1.9-7.8h1.9l1.9,7.8l1.8-7.8h2l-2.7,9.3h-2.2l-1.3-5.1l-0.4-2.2h0
				l-0.4,2.2L279.4,103.2z"/>
			<path class="st0" d="M135.4,117.8h-0.7v-9.3h0.7V117.8z"/>
			<path class="st0" d="M146.9,117.8H146l-4.9-7.3l-0.7-1.2h0l0,1.2v7.4h-0.7v-9.3h0.9l4.9,7.3l0.7,1.3l0-1.2v-7.4h0.7V117.8z"/>
			<path class="st0" d="M151.9,109.1v3.6h4.5v0.7h-4.5v4.4h-0.7v-9.3h6.3v0.6H151.9z"/>
			<path class="st0" d="M166,108.9c0.6,0.4,1.1,0.9,1.5,1.7c0.3,0.7,0.5,1.6,0.5,2.5c0,1-0.2,1.8-0.5,2.5c-0.3,0.7-0.8,1.3-1.5,1.7
				c-0.6,0.4-1.4,0.6-2.3,0.6c-0.9,0-1.6-0.2-2.3-0.6c-0.6-0.4-1.1-0.9-1.5-1.7c-0.3-0.7-0.5-1.6-0.5-2.5c0-1,0.2-1.8,0.5-2.5
				c0.3-0.7,0.8-1.3,1.5-1.7c0.6-0.4,1.4-0.6,2.3-0.6C164.6,108.4,165.4,108.5,166,108.9z M161.9,109.5c-0.5,0.3-0.9,0.8-1.2,1.4
				c-0.3,0.6-0.4,1.4-0.4,2.2c0,0.8,0.1,1.6,0.4,2.2c0.3,0.6,0.7,1.1,1.2,1.4c0.5,0.3,1.2,0.5,1.9,0.5c0.7,0,1.4-0.2,1.9-0.5
				c0.5-0.3,0.9-0.8,1.2-1.4c0.3-0.6,0.4-1.4,0.4-2.2c0-0.8-0.1-1.6-0.4-2.2c-0.3-0.6-0.7-1.1-1.2-1.4c-0.5-0.3-1.2-0.5-1.9-0.5
				C163,109,162.4,109.2,161.9,109.5z"/>
			<path class="st0" d="M178,117.8l-2.7-4h0h-2.8v4h-0.7v-9.3h3.5c0.9,0,1.7,0.2,2.2,0.7c0.6,0.5,0.8,1.1,0.8,1.9
				c0,0.7-0.2,1.2-0.6,1.7c-0.4,0.4-0.9,0.7-1.6,0.9l2.7,4.1H178z M172.5,113.1h2.7c0.8,0,1.3-0.2,1.7-0.5c0.4-0.3,0.6-0.8,0.6-1.5
				c0-0.6-0.2-1.1-0.6-1.5c-0.4-0.3-1-0.5-1.7-0.5h-2.7V113.1z"/>
			<path class="st0" d="M190.9,117.8h-0.7v-6.9l0.1-1.7h0l-3.4,8.6h-0.6l-3.4-8.6h0l0.1,1.7v6.9h-0.7v-9.3h1.1l2.8,7.1l0.5,1.4h0
				l0.5-1.4l2.8-7.1h1.1V117.8z"/>
			<path class="st0" d="M200.4,114.9h-4.5l-1.2,2.9H194l3.7-9.3h0.8l3.7,9.3h-0.7L200.4,114.9z M200.2,114.2l-1.6-4.1l-0.3-1h0
				l-0.3,1l-1.6,4.1H200.2z"/>
			<path class="st0" d="M210.5,109.1h-3.4v8.7h-0.7v-8.7H203v-0.6h7.5V109.1z"/>
			<path class="st0" d="M214.4,117.8h-0.7v-9.3h0.7V117.8z"/>
			<path class="st0" d="M224.7,108.9c0.6,0.4,1.1,0.9,1.5,1.7c0.3,0.7,0.5,1.6,0.5,2.5c0,1-0.2,1.8-0.5,2.5
				c-0.3,0.7-0.8,1.3-1.5,1.7c-0.6,0.4-1.4,0.6-2.3,0.6c-0.9,0-1.6-0.2-2.3-0.6c-0.6-0.4-1.1-0.9-1.5-1.7c-0.3-0.7-0.5-1.6-0.5-2.5
				c0-1,0.2-1.8,0.5-2.5c0.3-0.7,0.8-1.3,1.5-1.7c0.6-0.4,1.4-0.6,2.3-0.6C223.3,108.4,224.1,108.5,224.7,108.9z M220.5,109.5
				c-0.5,0.3-0.9,0.8-1.2,1.4c-0.3,0.6-0.4,1.4-0.4,2.2c0,0.8,0.1,1.6,0.4,2.2c0.3,0.6,0.7,1.1,1.2,1.4c0.5,0.3,1.2,0.5,1.9,0.5
				s1.4-0.2,1.9-0.5c0.5-0.3,0.9-0.8,1.2-1.4c0.3-0.6,0.4-1.4,0.4-2.2c0-0.8-0.1-1.6-0.4-2.2c-0.3-0.6-0.7-1.1-1.2-1.4
				c-0.5-0.3-1.2-0.5-1.9-0.5S221.1,109.2,220.5,109.5z"/>
			<path class="st0" d="M237.6,117.8h-0.9l-4.9-7.3l-0.7-1.2h0l0,1.2v7.4h-0.7v-9.3h0.9l4.9,7.3l0.7,1.3l0-1.2v-7.4h0.7V117.8z"/>
			<path class="st0" d="M252.5,114.9h-4.5l-1.2,2.9h-0.7l3.7-9.3h0.8l3.7,9.3h-0.7L252.5,114.9z M252.3,114.2l-1.6-4.1l-0.3-1h0
				l-0.3,1l-1.6,4.1H252.3z"/>
			<path class="st0" d="M263,109.2c0.6,0.5,0.9,1.1,0.9,2c0,0.8-0.3,1.5-0.9,2c-0.6,0.5-1.3,0.7-2.3,0.7h-2.4v3.9h-0.7v-9.3h3.1
				C261.6,108.5,262.4,108.7,263,109.2z M262.4,112.8c0.4-0.4,0.6-0.9,0.6-1.5c0-0.7-0.2-1.2-0.6-1.5c-0.4-0.4-1-0.5-1.9-0.5h-2.3
				v4.1h2.3C261.4,113.3,262,113.1,262.4,112.8z"/>
			<path class="st0" d="M272.4,109.2c0.6,0.5,0.9,1.1,0.9,2c0,0.8-0.3,1.5-0.9,2c-0.6,0.5-1.3,0.7-2.3,0.7h-2.4v3.9H267v-9.3h3.1
				C271,108.5,271.8,108.7,272.4,109.2z M271.8,112.8c0.4-0.4,0.6-0.9,0.6-1.5c0-0.7-0.2-1.2-0.6-1.5c-0.4-0.4-1-0.5-1.9-0.5h-2.3
				v4.1h2.3C270.8,113.3,271.4,113.1,271.8,112.8z"/>
		</g>
	</g>
	<g>
		<ellipse class="st1" cx="75.9" cy="81.7" rx="3" ry="3"/>
		<ellipse class="st1" cx="33.4" cy="81.7" rx="3" ry="3"/>
		<ellipse class="st1" cx="33.4" cy="28.1" rx="3" ry="3"/>
		<path class="st1" d="M45.6,78.7c-1.7,0-3,1.3-3,3v6c0,1.7,1.4,3,3,3c1.7,0,3-1.3,3-3v-6C48.6,80,47.2,78.7,45.6,78.7z"/>
		<path class="st1" d="M75.9,19.1c-1.7,0-3,1.3-3,3v6c0,1.7,1.4,3,3,3s3-1.3,3-3v-6C78.9,20.4,77.6,19.1,75.9,19.1z"/>
		<path class="st1" d="M88.1,78.7c-1.7,0-3,1.3-3,3v12.1c0,1.7,1.4,3,3,3s3-1.3,3-3V81.7C91.1,80,89.8,78.7,88.1,78.7z"/>
		<ellipse class="st1" cx="120.7" cy="99.8" rx="3" ry="3"/>
		<path class="st1" d="M120.7,78.7c-1.7,0-3,1.3-3,3v6c0,1.7,1.4,3,3,3s3-1.3,3-3v-6C123.7,80.1,122.4,78.7,120.7,78.7z"/>
		<path class="st1" d="M88.1,19.1c-1.7,0-3,1.3-3,3v6c0,1.7,1.4,3,3,3s3-1.3,3-3v-6C91.1,20.4,89.8,19.1,88.1,19.1z"/>
		<ellipse class="st1" cx="88.1" cy="10.1" rx="3" ry="3"/>
		<ellipse class="st1" cx="120.7" cy="3" rx="3" ry="3"/>
		<ellipse class="st1" cx="134.5" cy="20.9" rx="3" ry="3"/>
		<path class="st1" d="M120.7,12.1c-1.7,0-3,1.3-3,3v6c0,1.7,1.4,3,3,3s3-1.3,3-3v-6C123.7,13.4,122.4,12.1,120.7,12.1z"/>
		<ellipse class="st1" cx="60.7" cy="14.9" rx="3" ry="3"/>
		<path class="st1" d="M63.8,32.6v-5.7c0-1.7-1.4-3-3-3c-1.7,0-3,1.3-3,3v7h0v5c0,1.7,1.4,3,3,3s3-1.3,3-3v-6
			C63.8,32.8,63.8,32.7,63.8,32.6z"/>
		<ellipse class="st1" cx="105.2" cy="28.1" rx="3" ry="3"/>
		<path class="st0" d="M34.4,36.1c-1.2-0.4-2.6,0-3.4,1.1L18.2,54.5L5.5,37.2c-0.8-1-2.2-1.5-3.4-1.1C0.9,36.5,0,37.7,0,39v30.7
			c0,1.6,1.4,3,3,3c1.7,0,3-1.4,3-3V48.2l9.7,13.1l0,0c0.6,0.8,1.5,1.2,2.5,1.2c1,0,1.9-0.5,2.4-1.2l9.7-13.1v21.4c0,1.6,1.4,3,3,3
			c1.7,0,3-1.4,3-3V39C36.4,37.7,35.6,36.5,34.4,36.1z"/>
		<path class="st0" d="M76.9,36.1c-1.2-0.4-2.6,0-3.4,1.1L60.8,54.5L48,37.2c-0.8-1-2.2-1.5-3.4-1.1c-1.3,0.4-2.1,1.6-2.1,2.9v30.7
			c0,1.6,1.4,3,3,3c1.7,0,3-1.4,3-3V48.2l9.7,13.1l0,0c0.6,0.8,1.5,1.2,2.5,1.2c1,0,1.9-0.5,2.4-1.2l9.7-13.1v21.4c0,1.6,1.4,3,3,3
			c1.7,0,3-1.4,3-3V39C79,37.7,78.1,36.5,76.9,36.1z"/>
		<path class="st0" d="M113,73.6c0-1.5-0.1-3-0.4-4.4l0,0c-0.5-2.3-1.3-4.5-2.3-6.5c-1.1-1.8-2.3-3.6-3.8-5
			c3.8-1.8,6.4-5.7,6.4-10.2c0-1.4-0.2-2.7-0.7-4l0-0.1c-0.4-1-0.9-1.8-1.4-2.6c-2-2.8-5.2-4.6-8.8-4.6c-0.1,0-0.2,0-0.3,0
			c-0.1,0-0.2,0-0.3,0H88.1c-1.7,0-3,1.3-3,3v30.6c0,1.6,1.3,3,2.9,3.1c1.7,0.1,3.2-1.3,3.2-3V42.2h8.8h1.5h0.5
			c2.9,0,4.9,2.3,4.9,5.2v0c0,2.9-2,5.2-4.9,5.2h-2c-0.2,0-0.5,0-0.7,0c-0.5,0-1.1,0.1-1.7,0.1c-1.6,0-2.9,1.2-3,2.7
			c-0.2,1.6,0.9,3,2.4,3.3l0.1,0c0.2,0,1.1,0.3,2.5,1.2c1.9,1.2,3.5,2.9,4.9,5c0.8,1.3,1.5,2.9,2,4.6c0.3,1.3,0.5,2.8,0.5,4.3l0,0v3
			c0,1.7,1.4,3,3,3c1.7,0,3-1.3,3-3L113,73.6L113,73.6z"/>
		<path class="st0" d="M120.7,30.1c-1.7,0-3,1.3-3,3v6v2.7v3.7v12.1v8.1v4c0,1.7,1.4,3,3,3c1.7,0,3-1.3,3-3v-4v-8.1V45.6v-3.7v-2.7
			v-6C123.7,31.5,122.4,30.1,120.7,30.1z"/>
		<g>
			<path class="st0" d="M164.4,68.5l-15.1-30.6c-0.5-1-1.6-1.7-2.7-1.7c-1.1,0-2.2,0.6-2.7,1.7l-15,30.7c-0.7,1.3-0.3,2.9,0.9,3.7
				c0.5,0.4,1.2,0.6,1.8,0.6c0.1,0,0.1,0,0.2,0c1-0.1,1.8-0.7,2.2-1.5l12.6-25.2l9,18.2l3.4,6.9c0.4,0.7,1,1.3,1.8,1.5
				c0.8,0.2,1.6,0.2,2.3-0.2c0.7-0.4,1.3-1,1.5-1.7C164.8,70,164.7,69.2,164.4,68.5z"/>
			<path class="st0" d="M153.2,52c-6.5,1.1-12.5,3.8-17.4,7.9l-1.8,11c4.9-7.3,12.7-12.1,21.4-13.1"/>
		</g>
		<path class="st1" d="M134.5,29.9c-1.7,0-3,1.3-3,3v6c0,1.7,1.4,3,3,3c1.7,0,3-1.3,3-3v-6C137.5,31.3,136.2,29.9,134.5,29.9z"/>
		<ellipse class="st1" cx="161.6" cy="39.2" rx="3" ry="3"/>
	</g>
</g>
</svg>
